G75*
G70*
%OFA0B0*%
%FSLAX24Y24*%
%IPPOS*%
%LPD*%
%AMOC8*
5,1,8,0,0,1.08239X$1,22.5*
%
%ADD10C,0.0010*%
%ADD11C,0.0120*%
%ADD12C,0.0030*%
%ADD13C,0.0090*%
%ADD14C,0.0100*%
%ADD15C,0.0060*%
%ADD16C,0.0020*%
%ADD17C,0.0050*%
%ADD18R,0.0090X0.0315*%
%ADD19C,0.0040*%
D10*
X003690Y000140D02*
X003690Y010940D01*
X000140Y010940D01*
X000140Y024890D01*
X013440Y024890D01*
X013440Y010940D01*
X009890Y010940D01*
X009890Y000140D01*
X003690Y000140D01*
D11*
X003506Y011450D02*
X003359Y011597D01*
X003506Y011744D01*
X003946Y011744D01*
X003946Y011890D02*
X003946Y011450D01*
X003506Y011450D01*
X003506Y012037D02*
X003799Y012037D01*
X003946Y011890D01*
X004280Y011744D02*
X004720Y012037D01*
X005047Y011890D02*
X005047Y011597D01*
X005194Y011450D01*
X005487Y011450D01*
X005634Y011597D01*
X005634Y011890D01*
X005487Y012037D01*
X005194Y012037D01*
X005047Y011890D01*
X004720Y011450D02*
X004280Y011744D01*
X004280Y011450D02*
X004280Y012331D01*
X004433Y012700D02*
X005020Y012700D01*
X004727Y012700D02*
X004727Y013581D01*
X004433Y013287D01*
X004100Y013434D02*
X004100Y012847D01*
X003953Y012700D01*
X003659Y012700D01*
X003512Y012847D01*
X004100Y013434D01*
X003953Y013581D01*
X003659Y013581D01*
X003512Y013434D01*
X003512Y012847D01*
X003179Y012700D02*
X002592Y012700D01*
X003179Y013287D01*
X003179Y013434D01*
X003032Y013581D01*
X002738Y013581D01*
X002592Y013434D01*
X002258Y013434D02*
X002111Y013581D01*
X001818Y013581D01*
X001671Y013434D01*
X001671Y013287D01*
X001818Y013140D01*
X002111Y013140D01*
X002258Y012994D01*
X002258Y012847D01*
X002111Y012700D01*
X001818Y012700D01*
X001671Y012847D01*
X001337Y012847D02*
X001337Y013140D01*
X001044Y013140D01*
X001337Y013434D02*
X001190Y013581D01*
X000897Y013581D01*
X000750Y013434D01*
X000750Y012847D01*
X000897Y012700D01*
X001190Y012700D01*
X001337Y012847D01*
X001190Y012331D02*
X001337Y012184D01*
X001337Y012037D01*
X001190Y011890D01*
X000750Y011890D01*
X000750Y011450D02*
X001190Y011450D01*
X001337Y011597D01*
X001337Y011744D01*
X001190Y011890D01*
X001190Y012331D02*
X000750Y012331D01*
X000750Y011450D01*
X001671Y011450D02*
X001671Y012037D01*
X001671Y011744D02*
X001964Y012037D01*
X002111Y012037D01*
X002438Y011890D02*
X002438Y011597D01*
X002585Y011450D01*
X002878Y011450D01*
X003025Y011744D02*
X002438Y011744D01*
X002438Y011890D02*
X002585Y012037D01*
X002878Y012037D01*
X003025Y011890D01*
X003025Y011744D01*
X005354Y012700D02*
X005941Y012700D01*
X005648Y012700D02*
X005648Y013581D01*
X005354Y013287D01*
X005968Y012037D02*
X005968Y011597D01*
X006115Y011450D01*
X006555Y011450D01*
X006555Y012037D01*
X006275Y012700D02*
X006275Y013581D01*
X006568Y013287D01*
X006862Y013581D01*
X006862Y012700D01*
X007035Y012184D02*
X007035Y011597D01*
X007182Y011450D01*
X007182Y012037D02*
X006889Y012037D01*
D12*
X007090Y001565D02*
X007055Y001530D01*
X007055Y001390D01*
X007090Y001355D01*
X007160Y001355D01*
X007195Y001390D01*
X007195Y001530D02*
X007160Y001565D01*
X007090Y001565D01*
D13*
X007121Y001146D02*
X006897Y001146D01*
X006786Y001034D01*
X006786Y000587D01*
X006897Y000475D01*
X007121Y000475D01*
X007233Y000587D01*
X007233Y000810D01*
X007009Y000810D01*
X007233Y001034D02*
X007121Y001146D01*
X007485Y001146D02*
X007485Y000475D01*
X007932Y000475D02*
X007485Y001146D01*
X007597Y001475D02*
X007485Y001587D01*
X007597Y001475D02*
X007821Y001475D01*
X007932Y001587D01*
X007932Y001699D01*
X007821Y001810D01*
X007709Y001810D01*
X007821Y001810D02*
X007932Y001922D01*
X007932Y002034D01*
X007821Y002146D01*
X007597Y002146D01*
X007485Y002034D01*
X007597Y002475D02*
X007485Y002587D01*
X007597Y002475D02*
X007821Y002475D01*
X007932Y002587D01*
X007932Y002699D01*
X007821Y002810D01*
X007709Y002810D01*
X007821Y002810D02*
X007932Y002922D01*
X007932Y003034D01*
X007821Y003146D01*
X007597Y003146D01*
X007485Y003034D01*
X007597Y003475D02*
X007485Y003587D01*
X007597Y003475D02*
X007821Y003475D01*
X007932Y003587D01*
X007932Y003699D01*
X007821Y003810D01*
X007709Y003810D01*
X007821Y003810D02*
X007932Y003922D01*
X007932Y004034D01*
X007821Y004146D01*
X007597Y004146D01*
X007485Y004034D01*
X007597Y004475D02*
X007485Y004587D01*
X007597Y004475D02*
X007821Y004475D01*
X007932Y004587D01*
X007932Y004699D01*
X007821Y004810D01*
X007709Y004810D01*
X007821Y004810D02*
X007932Y004922D01*
X007932Y005034D01*
X007821Y005146D01*
X007597Y005146D01*
X007485Y005034D01*
X007597Y005475D02*
X007485Y005587D01*
X007597Y005475D02*
X007821Y005475D01*
X007932Y005587D01*
X007932Y005699D01*
X007821Y005810D01*
X007709Y005810D01*
X007821Y005810D02*
X007932Y005922D01*
X007932Y006034D01*
X007821Y006146D01*
X007597Y006146D01*
X007485Y006034D01*
X007821Y006475D02*
X007821Y007146D01*
X007485Y006810D01*
X007932Y006810D01*
X008185Y006587D02*
X008632Y007034D01*
X008632Y006587D01*
X008520Y006475D01*
X008297Y006475D01*
X008185Y006587D01*
X008185Y007034D01*
X008297Y007146D01*
X008520Y007146D01*
X008632Y007034D01*
X008632Y007475D02*
X008185Y007475D01*
X008409Y007475D02*
X008409Y008146D01*
X008185Y007922D01*
X007932Y007810D02*
X007485Y007810D01*
X007821Y008146D01*
X007821Y007475D01*
X007821Y008475D02*
X007821Y009146D01*
X007485Y008810D01*
X007932Y008810D01*
X008185Y009034D02*
X008297Y009146D01*
X008520Y009146D01*
X008632Y009034D01*
X008632Y008922D01*
X008185Y008475D01*
X008632Y008475D01*
X008185Y009475D02*
X008185Y009587D01*
X008632Y010034D01*
X008632Y010146D01*
X008185Y010146D01*
X008297Y010475D02*
X008185Y010587D01*
X008297Y010475D02*
X008520Y010475D01*
X008632Y010587D01*
X008632Y010699D01*
X008520Y010810D01*
X008409Y010810D01*
X008520Y010810D02*
X008632Y010922D01*
X008632Y011034D01*
X008520Y011146D01*
X008297Y011146D01*
X008185Y011034D01*
X007947Y010587D02*
X007947Y010475D01*
X007835Y010475D01*
X007835Y010587D01*
X007947Y010587D01*
X007821Y010146D02*
X007485Y009810D01*
X007932Y009810D01*
X007821Y009475D02*
X007821Y010146D01*
X007471Y010475D02*
X007583Y010587D01*
X007583Y010699D01*
X007471Y010810D01*
X007359Y010810D01*
X007471Y010810D02*
X007583Y010922D01*
X007583Y011034D01*
X007471Y011146D01*
X007247Y011146D01*
X007136Y011034D01*
X006782Y011044D02*
X006782Y010597D01*
X006670Y010485D01*
X006335Y010485D01*
X006335Y011156D01*
X006670Y011156D01*
X006782Y011044D01*
X007136Y010587D02*
X007247Y010475D01*
X007471Y010475D01*
X006082Y010485D02*
X006082Y011156D01*
X005635Y011156D02*
X006082Y010485D01*
X005970Y010156D02*
X005635Y009820D01*
X006082Y009820D01*
X005970Y009485D02*
X005970Y010156D01*
X005635Y010485D02*
X005635Y011156D01*
X005382Y011044D02*
X005270Y011156D01*
X005047Y011156D01*
X004935Y011044D01*
X004935Y010597D01*
X005047Y010485D01*
X005270Y010485D01*
X005382Y010597D01*
X005382Y010820D01*
X005159Y010820D01*
X005159Y010156D02*
X005159Y009485D01*
X005159Y009156D02*
X005159Y008485D01*
X005382Y008485D02*
X004935Y008485D01*
X004935Y008932D02*
X005159Y009156D01*
X005382Y009485D02*
X004935Y009485D01*
X004935Y009932D02*
X005159Y010156D01*
X005635Y009156D02*
X005635Y008820D01*
X005858Y008932D01*
X005970Y008932D01*
X006082Y008820D01*
X006082Y008597D01*
X005970Y008485D01*
X005747Y008485D01*
X005635Y008597D01*
X005747Y008156D02*
X005635Y008044D01*
X005635Y007932D01*
X005747Y007820D01*
X005970Y007820D01*
X006082Y007709D01*
X006082Y007597D01*
X005970Y007485D01*
X005747Y007485D01*
X005635Y007597D01*
X005635Y007709D01*
X005747Y007820D01*
X005747Y008156D02*
X005970Y008156D01*
X006082Y008044D01*
X006082Y007932D01*
X005970Y007820D01*
X005970Y007156D02*
X005747Y007156D01*
X005635Y007044D01*
X005635Y006932D01*
X005747Y006820D01*
X006082Y006820D01*
X006082Y006597D02*
X006082Y007044D01*
X005970Y007156D01*
X006082Y006597D02*
X005970Y006485D01*
X005747Y006485D01*
X005635Y006597D01*
X005382Y006485D02*
X004935Y006485D01*
X005047Y006156D02*
X004935Y006044D01*
X005047Y006156D02*
X005270Y006156D01*
X005382Y006044D01*
X005382Y005932D01*
X004935Y005485D01*
X005382Y005485D01*
X005635Y005597D02*
X006082Y006044D01*
X006082Y005597D01*
X005970Y005485D01*
X005747Y005485D01*
X005635Y005597D01*
X005635Y006044D01*
X005747Y006156D01*
X005970Y006156D01*
X006082Y006044D01*
X006082Y005156D02*
X005635Y005156D01*
X005382Y005044D02*
X005270Y005156D01*
X005047Y005156D01*
X004935Y005044D01*
X005382Y004932D02*
X004935Y004485D01*
X005382Y004485D01*
X005635Y004485D02*
X005635Y004597D01*
X006082Y005044D01*
X006082Y005156D01*
X005970Y004156D02*
X005747Y004156D01*
X005635Y004044D01*
X005635Y003932D01*
X005747Y003820D01*
X005970Y003820D01*
X006082Y003709D01*
X006082Y003597D01*
X005970Y003485D01*
X005747Y003485D01*
X005635Y003597D01*
X005635Y003709D01*
X005747Y003820D01*
X005970Y003820D02*
X006082Y003932D01*
X006082Y004044D01*
X005970Y004156D01*
X005382Y004044D02*
X005270Y004156D01*
X005047Y004156D01*
X004935Y004044D01*
X005382Y003932D02*
X004935Y003485D01*
X005382Y003485D01*
X005270Y003156D02*
X005047Y003156D01*
X004935Y003044D01*
X005382Y002932D02*
X004935Y002485D01*
X005382Y002485D01*
X005635Y002597D02*
X005747Y002485D01*
X005970Y002485D01*
X006082Y002597D01*
X006082Y003044D01*
X005970Y003156D01*
X005747Y003156D01*
X005635Y003044D01*
X005635Y002932D01*
X005747Y002820D01*
X006082Y002820D01*
X005970Y002156D02*
X005747Y002156D01*
X005635Y002044D01*
X005635Y001597D01*
X006082Y002044D01*
X006082Y001597D01*
X005970Y001485D01*
X005747Y001485D01*
X005635Y001597D01*
X005382Y001597D02*
X005382Y001709D01*
X005270Y001820D01*
X005159Y001820D01*
X005270Y001820D02*
X005382Y001932D01*
X005382Y002044D01*
X005270Y002156D01*
X005047Y002156D01*
X004935Y002044D01*
X004935Y001597D02*
X005047Y001485D01*
X005270Y001485D01*
X005382Y001597D01*
X005270Y001156D02*
X005382Y001044D01*
X005382Y000932D01*
X005270Y000820D01*
X005382Y000709D01*
X005382Y000597D01*
X005270Y000485D01*
X005047Y000485D01*
X004935Y000597D01*
X004935Y001044D02*
X005047Y001156D01*
X005270Y001156D01*
X005270Y000820D02*
X005159Y000820D01*
X005635Y000597D02*
X005635Y000485D01*
X005747Y000485D01*
X005747Y000597D01*
X005635Y000597D01*
X005985Y000597D02*
X006096Y000485D01*
X006320Y000485D01*
X006432Y000597D01*
X006432Y000709D01*
X006320Y000820D01*
X006208Y000820D01*
X006320Y000820D02*
X006432Y000932D01*
X006432Y001044D01*
X006320Y001156D01*
X006096Y001156D01*
X005985Y001044D01*
X006082Y002044D02*
X005970Y002156D01*
X005382Y002932D02*
X005382Y003044D01*
X005270Y003156D01*
X005382Y003932D02*
X005382Y004044D01*
X005382Y004932D02*
X005382Y005044D01*
X005159Y006485D02*
X005159Y007156D01*
X004935Y006932D01*
X004935Y007485D02*
X005382Y007485D01*
X005159Y007485D02*
X005159Y008156D01*
X004935Y007932D01*
X005635Y009156D02*
X006082Y009156D01*
X008297Y006146D02*
X008185Y006034D01*
X008185Y005922D01*
X008297Y005810D01*
X008632Y005810D01*
X008632Y005587D02*
X008520Y005475D01*
X008297Y005475D01*
X008185Y005587D01*
X008297Y005146D02*
X008185Y005034D01*
X008185Y004922D01*
X008297Y004810D01*
X008520Y004810D01*
X008632Y004699D01*
X008632Y004587D01*
X008520Y004475D01*
X008297Y004475D01*
X008185Y004587D01*
X008185Y004699D01*
X008297Y004810D01*
X008520Y004810D02*
X008632Y004922D01*
X008632Y005034D01*
X008520Y005146D01*
X008297Y005146D01*
X008632Y005587D02*
X008632Y006034D01*
X008520Y006146D01*
X008297Y006146D01*
X008185Y004146D02*
X008632Y004146D01*
X008632Y004034D01*
X008185Y003587D01*
X008185Y003475D01*
X008409Y003034D02*
X008185Y002810D01*
X008520Y002810D01*
X008632Y002699D01*
X008632Y002587D01*
X008520Y002475D01*
X008297Y002475D01*
X008185Y002587D01*
X008185Y002810D01*
X008409Y003034D02*
X008632Y003146D01*
X008632Y002146D02*
X008185Y002146D01*
X008185Y001810D01*
X008409Y001922D01*
X008520Y001922D01*
X008632Y001810D01*
X008632Y001587D01*
X008520Y001475D01*
X008297Y001475D01*
X008185Y001587D01*
X008185Y001146D02*
X008520Y001146D01*
X008632Y001034D01*
X008632Y000587D01*
X008520Y000475D01*
X008185Y000475D01*
X008185Y001146D01*
X007932Y001146D02*
X007932Y000475D01*
D14*
X010360Y014300D02*
X011320Y014300D01*
X011320Y015390D01*
X011320Y024580D02*
X011320Y027100D01*
X002260Y027100D01*
X002260Y024100D01*
X001660Y024300D02*
X001662Y024328D01*
X001668Y024355D01*
X001677Y024381D01*
X001690Y024406D01*
X001707Y024429D01*
X001726Y024449D01*
X001748Y024466D01*
X001772Y024480D01*
X001798Y024490D01*
X001825Y024497D01*
X001853Y024500D01*
X001881Y024499D01*
X001908Y024494D01*
X001935Y024485D01*
X001960Y024473D01*
X001983Y024458D01*
X002004Y024439D01*
X002022Y024418D01*
X002037Y024394D01*
X002048Y024368D01*
X002056Y024342D01*
X002060Y024314D01*
X002060Y024286D01*
X002056Y024258D01*
X002048Y024232D01*
X002037Y024206D01*
X002022Y024182D01*
X002004Y024161D01*
X001983Y024142D01*
X001960Y024127D01*
X001935Y024115D01*
X001908Y024106D01*
X001881Y024101D01*
X001853Y024100D01*
X001825Y024103D01*
X001798Y024110D01*
X001772Y024120D01*
X001748Y024134D01*
X001726Y024151D01*
X001707Y024171D01*
X001690Y024194D01*
X001677Y024219D01*
X001668Y024245D01*
X001662Y024272D01*
X001660Y024300D01*
X002260Y015400D02*
X002260Y014300D01*
X003160Y014300D01*
D15*
X005497Y020130D02*
X005710Y020130D01*
X005817Y020237D01*
X005817Y020771D01*
X006035Y020664D02*
X006141Y020771D01*
X006355Y020771D01*
X006462Y020664D01*
X006355Y020450D02*
X006141Y020450D01*
X006035Y020557D01*
X006035Y020664D01*
X006035Y020237D02*
X006141Y020130D01*
X006355Y020130D01*
X006462Y020237D01*
X006462Y020344D01*
X006355Y020450D01*
X006248Y020877D02*
X006248Y020023D01*
X006679Y020130D02*
X007106Y020130D01*
X006893Y020130D02*
X006893Y020771D01*
X006679Y020557D01*
X005497Y020130D02*
X005390Y020237D01*
X005390Y020771D01*
D16*
X001219Y019740D02*
X001179Y019740D01*
X001179Y019661D01*
X001101Y019661D02*
X001101Y019740D01*
X001061Y019740D01*
X001101Y019740D02*
X001101Y019819D01*
X001179Y019819D02*
X001179Y019740D01*
X010801Y013519D02*
X010801Y013440D01*
X010761Y013440D01*
X010801Y013440D02*
X010801Y013361D01*
X010879Y013361D02*
X010879Y013440D01*
X010919Y013440D01*
X010879Y013440D02*
X010879Y013519D01*
X010879Y012969D02*
X010879Y012890D01*
X010919Y012890D01*
X010879Y012890D02*
X010879Y012811D01*
X010801Y012811D02*
X010801Y012890D01*
X010761Y012890D01*
X010801Y012890D02*
X010801Y012969D01*
X012170Y021961D02*
X012170Y022001D01*
X012091Y022001D01*
X012091Y022079D02*
X012170Y022079D01*
X012170Y022119D01*
X012170Y022079D02*
X012249Y022079D01*
X012249Y022001D02*
X012170Y022001D01*
X012691Y022001D02*
X012770Y022001D01*
X012770Y021961D01*
X012770Y022001D02*
X012849Y022001D01*
X012849Y022079D02*
X012770Y022079D01*
X012770Y022119D01*
X012770Y022079D02*
X012691Y022079D01*
D17*
X012749Y020809D02*
X012749Y020576D01*
X012573Y020751D01*
X012924Y020751D01*
X012865Y020441D02*
X012924Y020383D01*
X012924Y020266D01*
X012865Y020208D01*
X012632Y020208D01*
X012573Y020266D01*
X012573Y020383D01*
X012632Y020441D01*
X012374Y020383D02*
X012315Y020441D01*
X012374Y020383D02*
X012374Y020266D01*
X012315Y020208D01*
X012082Y020208D01*
X012023Y020266D01*
X012023Y020383D01*
X012082Y020441D01*
X012023Y020576D02*
X012199Y020576D01*
X012140Y020693D01*
X012140Y020751D01*
X012199Y020809D01*
X012315Y020809D01*
X012374Y020751D01*
X012374Y020634D01*
X012315Y020576D01*
X012023Y020576D02*
X012023Y020809D01*
X012051Y013587D02*
X011934Y013587D01*
X011876Y013528D01*
X011741Y013528D02*
X011683Y013587D01*
X011566Y013587D01*
X011508Y013528D01*
X011508Y013295D01*
X011566Y013236D01*
X011683Y013236D01*
X011741Y013295D01*
X011876Y013236D02*
X012109Y013470D01*
X012109Y013528D01*
X012051Y013587D01*
X012109Y013236D02*
X011876Y013236D01*
X011733Y013037D02*
X011616Y013037D01*
X011558Y012978D01*
X011558Y012745D01*
X011616Y012686D01*
X011733Y012686D01*
X011791Y012745D01*
X011926Y012686D02*
X012159Y012686D01*
X012043Y012686D02*
X012043Y013037D01*
X011926Y012920D01*
X011791Y012978D02*
X011733Y013037D01*
X007003Y003587D02*
X006886Y003470D01*
X006752Y003528D02*
X006752Y003411D01*
X006693Y003353D01*
X006518Y003353D01*
X006518Y003236D02*
X006518Y003587D01*
X006693Y003587D01*
X006752Y003528D01*
X006635Y003353D02*
X006752Y003236D01*
X006886Y003236D02*
X007120Y003236D01*
X007003Y003236D02*
X007003Y003587D01*
X007054Y002515D02*
X006878Y002515D01*
X006878Y002165D01*
X007054Y002165D01*
X007112Y002223D01*
X007112Y002457D01*
X007054Y002515D01*
X007247Y002399D02*
X007363Y002515D01*
X007363Y002165D01*
X007247Y002165D02*
X007480Y002165D01*
X006744Y002165D02*
X006510Y002165D01*
X006510Y002515D01*
X006744Y002515D01*
X006627Y002340D02*
X006510Y002340D01*
X006375Y002165D02*
X006142Y002165D01*
X006142Y002515D01*
X001379Y018994D02*
X001263Y018994D01*
X001204Y019052D01*
X001069Y019052D02*
X001011Y018994D01*
X000894Y018994D01*
X000836Y019052D01*
X000836Y019286D01*
X000894Y019344D01*
X001011Y019344D01*
X001069Y019286D01*
X001204Y019286D02*
X001263Y019344D01*
X001379Y019344D01*
X001438Y019286D01*
X001438Y019227D01*
X001379Y019169D01*
X001438Y019111D01*
X001438Y019052D01*
X001379Y018994D01*
X001379Y019169D02*
X001321Y019169D01*
D18*
X006890Y001838D03*
D19*
X006907Y001683D02*
X006773Y001683D01*
X006773Y001998D02*
X006907Y001998D01*
M02*
