G75*
G70*
%OFA0B0*%
%FSLAX24Y24*%
%IPPOS*%
%LPD*%
%AMOC8*
5,1,8,0,0,1.08239X$1,22.5*
%
%ADD10R,0.0360X0.0750*%
%ADD11R,0.0750X0.0360*%
%ADD12R,0.0394X0.0433*%
%ADD13R,0.0433X0.0394*%
%ADD14OC8,0.0600*%
%ADD15R,0.0315X0.0315*%
%ADD16C,0.0396*%
%ADD17C,0.0320*%
%ADD18C,0.0080*%
D10*
X003540Y014300D03*
X004040Y014300D03*
X004540Y014300D03*
X005040Y014300D03*
X005540Y014300D03*
X006040Y014300D03*
X006540Y014300D03*
X007040Y014300D03*
X007540Y014300D03*
X008040Y014300D03*
X008540Y014300D03*
X009040Y014300D03*
X009540Y014300D03*
X010040Y014300D03*
D11*
X011320Y015740D03*
X011320Y016240D03*
X011320Y016740D03*
X011320Y017240D03*
X011320Y017740D03*
X011320Y018240D03*
X011320Y018740D03*
X011320Y019240D03*
X011320Y019740D03*
X011320Y020240D03*
X011320Y020740D03*
X011320Y021240D03*
X011320Y021740D03*
X011320Y022240D03*
X011320Y022740D03*
X011320Y023240D03*
X011320Y023740D03*
X011320Y024240D03*
X002230Y023740D03*
X002230Y023240D03*
X002230Y022740D03*
X002230Y022240D03*
X002230Y021740D03*
X002230Y021240D03*
X002230Y020740D03*
X002230Y020240D03*
X002230Y019740D03*
X002230Y019240D03*
X002230Y018740D03*
X002230Y018240D03*
X002230Y017740D03*
X002230Y017240D03*
X002230Y016740D03*
X002230Y016240D03*
X002230Y015740D03*
D12*
X001494Y019740D03*
X000786Y019740D03*
X006436Y002890D03*
X007144Y002890D03*
X010486Y012890D03*
X010486Y013440D03*
X011194Y013440D03*
X011194Y012890D03*
D13*
X012170Y021686D03*
X012170Y022394D03*
X012770Y022394D03*
X012770Y021686D03*
D14*
X004290Y000740D03*
X004290Y001740D03*
X004290Y002740D03*
X004290Y003740D03*
X004290Y004740D03*
X004290Y005740D03*
X004290Y006740D03*
X004290Y007740D03*
X004290Y008740D03*
X004290Y009740D03*
X004290Y010740D03*
X009290Y010740D03*
X009290Y009740D03*
X009290Y008740D03*
X009290Y007740D03*
X009290Y006740D03*
X009290Y005740D03*
X009290Y004740D03*
X009290Y003740D03*
X009290Y002740D03*
X009290Y001740D03*
X009290Y000740D03*
D15*
X007135Y001840D03*
X006545Y001840D03*
D16*
X010010Y012880D03*
X010010Y013480D03*
X010740Y013990D03*
X011190Y013990D03*
X010640Y016240D03*
X010640Y016740D03*
X012170Y021120D03*
X012730Y021120D03*
X012750Y022870D03*
X012170Y022870D03*
X012070Y023730D03*
X001540Y023740D03*
X001490Y020240D03*
X000790Y020240D03*
X001540Y015740D03*
D17*
X002230Y015740D01*
X002230Y019740D02*
X001494Y019740D01*
X001490Y019740D01*
X001490Y020240D01*
X000790Y020240D02*
X000790Y019740D01*
X000786Y019740D01*
X001540Y023740D02*
X002230Y023740D01*
X010040Y013510D02*
X010010Y013480D01*
X010050Y013440D01*
X010486Y013440D01*
X010486Y012890D02*
X010020Y012890D01*
X010010Y012880D01*
X010040Y013510D02*
X010040Y014300D01*
X010740Y013990D02*
X011190Y013990D01*
X011194Y013986D01*
X011194Y013440D01*
X011194Y012890D01*
X011190Y013990D02*
X011540Y014340D01*
X011540Y015390D01*
X011320Y015610D01*
X011320Y015740D01*
X011320Y016240D02*
X010640Y016240D01*
X010640Y016740D02*
X011320Y016740D01*
X012170Y021120D02*
X012170Y021686D01*
X012170Y022394D02*
X012170Y022870D01*
X012750Y022870D02*
X012770Y022850D01*
X012770Y022394D01*
X012770Y021686D02*
X012770Y021160D01*
X012730Y021120D01*
X012070Y023730D02*
X012060Y023740D01*
X011320Y023740D01*
D18*
X011320Y023240D02*
X012950Y023240D01*
X013150Y023040D01*
X013150Y012080D01*
X012270Y011200D01*
X009070Y011200D01*
X008830Y010960D01*
X008830Y010200D01*
X009290Y009740D01*
X008670Y009360D02*
X009290Y008740D01*
X008510Y008520D02*
X009290Y007740D01*
X008350Y007680D02*
X009290Y006740D01*
X009290Y005740D02*
X008190Y006840D01*
X008190Y011280D01*
X008750Y011840D01*
X011950Y011840D01*
X012510Y012400D01*
X012510Y018720D01*
X011990Y019240D01*
X011320Y019240D01*
X011320Y018740D02*
X011850Y018740D01*
X012350Y018240D01*
X012350Y012480D01*
X011870Y012000D01*
X008670Y012000D01*
X008030Y011360D01*
X008030Y006000D01*
X009290Y004740D01*
X009290Y003740D02*
X007870Y005160D01*
X007870Y011440D01*
X008590Y012160D01*
X011790Y012160D01*
X012190Y012560D01*
X012190Y017680D01*
X011630Y018240D01*
X011320Y018240D01*
X011320Y017740D02*
X011570Y017740D01*
X012030Y017280D01*
X012030Y012640D01*
X011710Y012320D01*
X008510Y012320D01*
X007710Y011520D01*
X007710Y004320D01*
X009290Y002740D01*
X009290Y001740D02*
X007550Y003480D01*
X007550Y011600D01*
X008430Y012480D01*
X011630Y012480D01*
X011870Y012720D01*
X011870Y017040D01*
X011670Y017240D01*
X011320Y017240D01*
X012670Y019200D02*
X012130Y019740D01*
X011320Y019740D01*
X011320Y020240D02*
X012350Y020240D01*
X012830Y019760D01*
X012830Y012240D01*
X012110Y011520D01*
X008910Y011520D01*
X008510Y011120D01*
X008510Y008520D01*
X008350Y007680D02*
X008350Y011200D01*
X008830Y011680D01*
X012030Y011680D01*
X012670Y012320D01*
X012670Y019200D01*
X012990Y020240D02*
X012990Y012160D01*
X012190Y011360D01*
X008990Y011360D01*
X008670Y011040D01*
X008670Y009360D01*
X007390Y011680D02*
X007390Y004840D01*
X004290Y001740D01*
X004290Y000740D02*
X005390Y001840D01*
X006545Y001840D01*
X007135Y001840D02*
X006436Y002540D01*
X006436Y002890D01*
X007144Y002890D02*
X007144Y002886D01*
X009290Y000740D01*
X007230Y005680D02*
X004290Y002740D01*
X004290Y003740D02*
X007070Y006520D01*
X007070Y011840D01*
X008540Y013310D01*
X008540Y014300D01*
X009040Y014300D02*
X009040Y013570D01*
X007230Y011760D01*
X007230Y005680D01*
X006910Y007360D02*
X004290Y004740D01*
X004290Y005740D02*
X005630Y007080D01*
X005630Y012640D01*
X004540Y013730D01*
X004540Y014300D01*
X004040Y014300D02*
X004040Y013750D01*
X005470Y012320D01*
X005470Y007920D01*
X004290Y006740D01*
X004290Y007740D02*
X005310Y008760D01*
X005310Y012000D01*
X003540Y013770D01*
X003540Y014300D01*
X002910Y013920D02*
X005150Y011680D01*
X005150Y009600D01*
X004290Y008740D01*
X004290Y009740D02*
X004990Y010440D01*
X004990Y011520D01*
X002910Y013600D01*
X001310Y013600D01*
X000830Y014080D01*
X000830Y016480D01*
X001590Y017240D01*
X002230Y017240D01*
X002230Y016740D02*
X001570Y016740D01*
X001150Y016320D01*
X001150Y014320D01*
X001550Y013920D01*
X002910Y013920D01*
X006910Y011920D02*
X006910Y007360D01*
X007390Y011680D02*
X009540Y013830D01*
X009540Y014300D01*
X008040Y014300D02*
X008040Y013050D01*
X006910Y011920D01*
X011320Y020740D02*
X012490Y020740D01*
X012990Y020240D01*
M02*
