%
M48
M72
T01C0.0236
T02C0.0400
%
T01
X1540Y15740
X1490Y20240
X790Y20240
X1540Y23740
X10010Y13480
X10010Y12880
X10740Y13990
X11190Y13990
X10640Y16240
X10640Y16740
X12170Y21120
X12730Y21120
X12750Y22870
X12170Y22870
X12070Y23730
T02
X4290Y740
X4290Y1740
X4290Y2740
X4290Y3740
X4290Y4740
X4290Y5740
X4290Y6740
X4290Y7740
X4290Y8740
X4290Y9740
X4290Y10740
X9290Y10740
X9290Y9740
X9290Y8740
X9290Y7740
X9290Y6740
X9290Y5740
X9290Y4740
X9290Y3740
X9290Y2740
X9290Y1740
X9290Y740
M30
