G75*
G70*
%OFA0B0*%
%FSLAX24Y24*%
%IPPOS*%
%LPD*%
%AMOC8*
5,1,8,0,0,1.08239X$1,22.5*
%
%ADD10R,0.0420X0.0810*%
%ADD11R,0.0810X0.0420*%
%ADD12R,0.0454X0.0493*%
%ADD13R,0.0493X0.0454*%
%ADD14OC8,0.0660*%
%ADD15R,0.0375X0.0375*%
%ADD16C,0.0456*%
D10*
X003540Y014300D03*
X004040Y014300D03*
X004540Y014300D03*
X005040Y014300D03*
X005540Y014300D03*
X006040Y014300D03*
X006540Y014300D03*
X007040Y014300D03*
X007540Y014300D03*
X008040Y014300D03*
X008540Y014300D03*
X009040Y014300D03*
X009540Y014300D03*
X010040Y014300D03*
D11*
X011320Y015740D03*
X011320Y016240D03*
X011320Y016740D03*
X011320Y017240D03*
X011320Y017740D03*
X011320Y018240D03*
X011320Y018740D03*
X011320Y019240D03*
X011320Y019740D03*
X011320Y020240D03*
X011320Y020740D03*
X011320Y021240D03*
X011320Y021740D03*
X011320Y022240D03*
X011320Y022740D03*
X011320Y023240D03*
X011320Y023740D03*
X011320Y024240D03*
X002230Y023740D03*
X002230Y023240D03*
X002230Y022740D03*
X002230Y022240D03*
X002230Y021740D03*
X002230Y021240D03*
X002230Y020740D03*
X002230Y020240D03*
X002230Y019740D03*
X002230Y019240D03*
X002230Y018740D03*
X002230Y018240D03*
X002230Y017740D03*
X002230Y017240D03*
X002230Y016740D03*
X002230Y016240D03*
X002230Y015740D03*
D12*
X001494Y019740D03*
X000786Y019740D03*
X006436Y002890D03*
X007144Y002890D03*
X010486Y012890D03*
X010486Y013440D03*
X011194Y013440D03*
X011194Y012890D03*
D13*
X012170Y021686D03*
X012170Y022394D03*
X012770Y022394D03*
X012770Y021686D03*
D14*
X004290Y000740D03*
X004290Y001740D03*
X004290Y002740D03*
X004290Y003740D03*
X004290Y004740D03*
X004290Y005740D03*
X004290Y006740D03*
X004290Y007740D03*
X004290Y008740D03*
X004290Y009740D03*
X004290Y010740D03*
X009290Y010740D03*
X009290Y009740D03*
X009290Y008740D03*
X009290Y007740D03*
X009290Y006740D03*
X009290Y005740D03*
X009290Y004740D03*
X009290Y003740D03*
X009290Y002740D03*
X009290Y001740D03*
X009290Y000740D03*
D15*
X007135Y001840D03*
X006545Y001840D03*
D16*
X010010Y012880D03*
X010010Y013480D03*
X010740Y013990D03*
X011190Y013990D03*
X010640Y016240D03*
X010640Y016740D03*
X012170Y021120D03*
X012730Y021120D03*
X012750Y022870D03*
X012170Y022870D03*
X012070Y023730D03*
X001540Y023740D03*
X001490Y020240D03*
X000790Y020240D03*
X001540Y015740D03*
M02*
