G75*
G70*
%OFA0B0*%
%FSLAX24Y24*%
%IPPOS*%
%LPD*%
%AMOC8*
5,1,8,0,0,1.08239X$1,22.5*
%
%ADD10R,0.0130X0.0472*%
%ADD11R,0.0433X0.0394*%
%ADD12R,0.0315X0.0315*%
%ADD13R,0.0394X0.0433*%
%ADD14C,0.0600*%
%ADD15C,0.0120*%
%ADD16C,0.0396*%
%ADD17C,0.0100*%
%ADD18C,0.0160*%
D10*
X003820Y002987D03*
X004036Y002987D03*
X004253Y002987D03*
X004469Y002987D03*
X004686Y002987D03*
X004902Y002987D03*
X005119Y002987D03*
X005336Y002987D03*
X005552Y002987D03*
X005769Y002987D03*
X005985Y002987D03*
X006202Y002987D03*
X006418Y002987D03*
X006635Y002987D03*
X006635Y008066D03*
X006418Y008066D03*
X006202Y008066D03*
X005985Y008066D03*
X005769Y008066D03*
X005552Y008066D03*
X005336Y008066D03*
X005119Y008066D03*
X004902Y008066D03*
X004686Y008066D03*
X004469Y008066D03*
X004253Y008066D03*
X004036Y008066D03*
X003820Y008066D03*
D11*
X006432Y008747D03*
X006432Y009456D03*
X005857Y002432D03*
X005857Y001723D03*
X004893Y001727D03*
X004893Y002436D03*
X003790Y002420D03*
X003141Y002424D03*
X003141Y001715D03*
X003790Y001711D03*
D12*
X003692Y001089D03*
X003101Y001089D03*
D13*
X004278Y001058D03*
X004987Y001058D03*
X004991Y008751D03*
X005700Y008751D03*
D14*
X008148Y008495D02*
X008748Y008495D01*
X008748Y009495D02*
X008148Y009495D01*
X008148Y007495D02*
X008748Y007495D01*
X008748Y006495D02*
X008148Y006495D01*
X008148Y005495D02*
X008748Y005495D01*
X008748Y004495D02*
X008148Y004495D01*
X008148Y003495D02*
X008748Y003495D01*
X008748Y002495D02*
X008148Y002495D01*
X008148Y001495D02*
X008748Y001495D01*
X001748Y001495D02*
X001148Y001495D01*
X001148Y002495D02*
X001748Y002495D01*
X001748Y003495D02*
X001148Y003495D01*
X001148Y004495D02*
X001748Y004495D01*
X001748Y005495D02*
X001148Y005495D01*
X001148Y006495D02*
X001748Y006495D01*
X001748Y007495D02*
X001148Y007495D01*
X001148Y008495D02*
X001748Y008495D01*
X001748Y009495D02*
X001148Y009495D01*
D15*
X004983Y009235D02*
X004991Y009227D01*
X004991Y008751D01*
X005119Y008623D01*
X005119Y008066D01*
X005336Y008066D02*
X005336Y008387D01*
X005700Y008751D01*
X005692Y008759D01*
X005692Y009235D01*
X005101Y003605D02*
X005119Y003587D01*
X005119Y002987D01*
X004902Y002987D02*
X004902Y002446D01*
X004893Y002436D01*
X004944Y002385D01*
X005101Y002385D01*
X005763Y001723D01*
X005857Y001723D01*
X005897Y001684D01*
X004987Y001727D02*
X004987Y001058D01*
X004987Y001727D02*
X004893Y001727D01*
X004365Y001727D01*
X004353Y001715D01*
X003790Y001711D02*
X003786Y001715D01*
X003141Y001715D01*
X003141Y001089D01*
X003101Y001089D01*
X003692Y001089D02*
X004278Y001089D01*
X004278Y001058D01*
X004353Y002424D02*
X004253Y002524D01*
X004253Y002987D01*
X004365Y002436D02*
X004353Y002424D01*
X004365Y002436D02*
X004893Y002436D01*
D16*
X004353Y002424D03*
X004353Y001715D03*
X005101Y003605D03*
X002503Y007975D03*
X003290Y008763D03*
X003093Y009865D03*
X004983Y009235D03*
X005692Y009235D03*
D17*
X005259Y009589D02*
X004983Y009314D01*
X004983Y009235D01*
X005259Y009589D02*
X006298Y009589D01*
X006432Y009456D01*
X006432Y008747D02*
X008196Y008747D01*
X008448Y008495D01*
X008440Y007503D02*
X008448Y007495D01*
X008440Y007503D02*
X007070Y007503D01*
X003820Y004253D01*
X003820Y002987D01*
X003381Y002987D01*
X003290Y002897D01*
X003290Y002574D01*
X003141Y002424D01*
X003790Y002420D02*
X004036Y002666D01*
X004036Y002987D01*
X004036Y004036D01*
X006440Y006440D01*
X008393Y006440D01*
X008448Y006495D01*
X008448Y005495D02*
X006322Y005495D01*
X005985Y005158D01*
X005985Y002987D01*
X005985Y002560D01*
X005857Y002432D01*
X006202Y002987D02*
X006202Y004233D01*
X006440Y004471D01*
X008424Y004471D01*
X008448Y004495D01*
X008448Y003495D02*
X008440Y003487D01*
X006519Y003487D01*
X006418Y003387D01*
X006418Y002987D01*
X006635Y002987D02*
X007956Y002987D01*
X008448Y002495D01*
X004353Y002424D02*
X004353Y002274D01*
X003790Y001711D01*
X002424Y002818D02*
X002109Y002503D01*
X001456Y002503D01*
X001448Y002495D01*
X001456Y003487D02*
X001448Y003495D01*
X001456Y003487D02*
X002070Y003487D01*
X005985Y007402D01*
X005985Y008066D01*
X006202Y008066D02*
X006202Y007304D01*
X002424Y003526D01*
X002424Y002818D01*
X002700Y004471D02*
X001471Y004471D01*
X001448Y004495D01*
X001487Y005456D02*
X001448Y005495D01*
X001487Y005456D02*
X003330Y005456D01*
X005552Y007678D01*
X005552Y008066D01*
X005769Y008066D02*
X005769Y007540D01*
X002700Y004471D01*
X001463Y006479D02*
X001448Y006495D01*
X001463Y006479D02*
X003999Y006479D01*
X004902Y007383D01*
X004902Y008066D01*
X004686Y008066D02*
X004686Y007521D01*
X004511Y007345D01*
X001597Y007345D01*
X001448Y007495D01*
X001495Y008448D02*
X001448Y008495D01*
X001495Y008448D02*
X002739Y008448D01*
X003605Y007582D01*
X004393Y007582D01*
X004469Y007658D01*
X004469Y008066D01*
X004253Y008066D02*
X004253Y009139D01*
X003920Y009471D01*
X001471Y009471D01*
X001448Y009495D01*
X006418Y008733D02*
X006418Y008066D01*
X006418Y008733D02*
X006432Y008747D01*
D18*
X000854Y001115D02*
X000854Y000854D01*
X002716Y000854D01*
X002704Y000884D01*
X002704Y001295D01*
X002734Y001369D01*
X002721Y001383D01*
X002684Y001471D01*
X002684Y001960D01*
X002721Y002048D01*
X002742Y002070D01*
X002721Y002091D01*
X002684Y002180D01*
X002684Y002669D01*
X002721Y002757D01*
X002788Y002824D01*
X002876Y002861D01*
X003000Y002861D01*
X003000Y002954D01*
X003044Y003061D01*
X003126Y003142D01*
X003217Y003233D01*
X003323Y003277D01*
X003517Y003277D01*
X003530Y003307D01*
X003530Y004222D01*
X002714Y003406D01*
X002714Y002760D01*
X002670Y002654D01*
X002355Y002339D01*
X002273Y002257D01*
X002225Y002237D01*
X002206Y002189D01*
X002054Y002037D01*
X001868Y001960D01*
X001932Y001940D01*
X001999Y001905D01*
X002060Y001861D01*
X002114Y001808D01*
X002158Y001747D01*
X002193Y001679D01*
X002216Y001607D01*
X002228Y001533D01*
X002228Y001515D01*
X001468Y001515D01*
X001468Y001475D01*
X002228Y001475D01*
X002228Y001457D01*
X002216Y001383D01*
X002193Y001311D01*
X002158Y001243D01*
X002114Y001182D01*
X002060Y001129D01*
X001999Y001084D01*
X001932Y001050D01*
X001860Y001027D01*
X001785Y001015D01*
X001468Y001015D01*
X001468Y001475D01*
X001428Y001475D01*
X001428Y001015D01*
X001110Y001015D01*
X001035Y001027D01*
X000963Y001050D01*
X000896Y001084D01*
X000854Y001115D01*
X000854Y001049D02*
X000966Y001049D01*
X000854Y000891D02*
X002704Y000891D01*
X002704Y001049D02*
X001929Y001049D01*
X002132Y001208D02*
X002704Y001208D01*
X002733Y001366D02*
X002211Y001366D01*
X002228Y001525D02*
X002684Y001525D01*
X002684Y001683D02*
X002191Y001683D01*
X002080Y001842D02*
X002684Y001842D01*
X002701Y002000D02*
X001964Y002000D01*
X002175Y002159D02*
X002693Y002159D01*
X002684Y002317D02*
X002334Y002317D01*
X002492Y002476D02*
X002684Y002476D01*
X002684Y002634D02*
X002651Y002634D01*
X002714Y002793D02*
X002756Y002793D01*
X002714Y002951D02*
X003000Y002951D01*
X003093Y003110D02*
X002714Y003110D01*
X002714Y003268D02*
X003302Y003268D01*
X003530Y003427D02*
X002734Y003427D01*
X002893Y003585D02*
X003530Y003585D01*
X003530Y003744D02*
X003051Y003744D01*
X003210Y003902D02*
X003530Y003902D01*
X003530Y004061D02*
X003368Y004061D01*
X003527Y004219D02*
X003530Y004219D01*
X004326Y003916D02*
X004326Y003463D01*
X005015Y003463D01*
X005103Y003427D01*
X005119Y003411D01*
X005135Y003427D01*
X005223Y003463D01*
X005695Y003463D01*
X005695Y005216D01*
X005739Y005323D01*
X006076Y005659D01*
X006157Y005741D01*
X006264Y005785D01*
X007683Y005785D01*
X007690Y005801D01*
X007842Y005953D01*
X007944Y005995D01*
X007842Y006037D01*
X007729Y006150D01*
X006560Y006150D01*
X004326Y003916D01*
X004326Y003902D02*
X005695Y003902D01*
X005695Y003744D02*
X004326Y003744D01*
X004326Y003585D02*
X005695Y003585D01*
X005695Y004061D02*
X004471Y004061D01*
X004629Y004219D02*
X005695Y004219D01*
X005695Y004378D02*
X004788Y004378D01*
X004946Y004536D02*
X005695Y004536D01*
X005695Y004695D02*
X005105Y004695D01*
X005263Y004853D02*
X005695Y004853D01*
X005695Y005012D02*
X005422Y005012D01*
X005580Y005170D02*
X005695Y005170D01*
X005739Y005329D02*
X005745Y005329D01*
X005897Y005487D02*
X005904Y005487D01*
X006056Y005646D02*
X006062Y005646D01*
X006214Y005804D02*
X007693Y005804D01*
X007866Y005963D02*
X006373Y005963D01*
X006531Y006121D02*
X007758Y006121D01*
X005718Y008769D02*
X005681Y008769D01*
X005681Y009147D01*
X005479Y009147D01*
X005433Y009135D01*
X005410Y009122D01*
X005421Y009148D01*
X005421Y009299D01*
X005975Y009299D01*
X005975Y009211D01*
X006012Y009123D01*
X006034Y009101D01*
X006025Y009093D01*
X006007Y009111D01*
X005966Y009135D01*
X005920Y009147D01*
X005718Y009147D01*
X005718Y008769D01*
X005718Y008816D02*
X005681Y008816D01*
X005681Y008974D02*
X005718Y008974D01*
X005718Y009133D02*
X005681Y009133D01*
X005429Y009133D02*
X005415Y009133D01*
X005421Y009291D02*
X005975Y009291D01*
X005970Y009133D02*
X006008Y009133D01*
X006136Y009879D02*
X005201Y009879D01*
X005094Y009835D01*
X004932Y009673D01*
X004896Y009673D01*
X004735Y009607D01*
X004612Y009483D01*
X004545Y009322D01*
X004545Y009148D01*
X004577Y009071D01*
X004554Y009015D01*
X004554Y008542D01*
X004543Y008542D01*
X004543Y009196D01*
X004499Y009303D01*
X004166Y009636D01*
X004084Y009717D01*
X003978Y009761D01*
X002222Y009761D01*
X002206Y009801D01*
X002054Y009953D01*
X001855Y010035D01*
X001040Y010035D01*
X000854Y009958D01*
X000854Y010057D01*
X008994Y010057D01*
X008994Y009977D01*
X008855Y010035D01*
X008040Y010035D01*
X007842Y009953D01*
X007690Y009801D01*
X007608Y009602D01*
X007608Y009388D01*
X007690Y009189D01*
X007842Y009037D01*
X007842Y009037D01*
X006870Y009037D01*
X006852Y009080D01*
X006830Y009101D01*
X006852Y009123D01*
X006889Y009211D01*
X006889Y009700D01*
X006852Y009788D01*
X006784Y009856D01*
X006696Y009892D01*
X006168Y009892D01*
X006136Y009879D01*
X006861Y009767D02*
X007676Y009767D01*
X007814Y009925D02*
X002081Y009925D01*
X002220Y009767D02*
X005026Y009767D01*
X004739Y009608D02*
X004193Y009608D01*
X004352Y009450D02*
X004598Y009450D01*
X004545Y009291D02*
X004504Y009291D01*
X004543Y009133D02*
X004551Y009133D01*
X004543Y008974D02*
X004554Y008974D01*
X004543Y008816D02*
X004554Y008816D01*
X004543Y008657D02*
X004554Y008657D01*
X003963Y008657D02*
X002940Y008657D01*
X002903Y008694D02*
X002797Y008738D01*
X002232Y008738D01*
X002206Y008801D01*
X002054Y008953D01*
X001952Y008995D01*
X002054Y009037D01*
X002198Y009181D01*
X003800Y009181D01*
X003963Y009019D01*
X003963Y008542D01*
X003707Y008542D01*
X003619Y008506D01*
X003551Y008438D01*
X003515Y008350D01*
X003515Y008082D01*
X002985Y008612D01*
X002903Y008694D01*
X003098Y008499D02*
X003612Y008499D01*
X003515Y008340D02*
X003257Y008340D01*
X003415Y008182D02*
X003515Y008182D01*
X003070Y007706D02*
X002245Y007706D01*
X002274Y007635D02*
X002206Y007801D01*
X002054Y007953D01*
X001952Y007995D01*
X002054Y008037D01*
X002174Y008158D01*
X002619Y008158D01*
X003141Y007635D01*
X002274Y007635D01*
X002142Y007865D02*
X002912Y007865D01*
X002753Y008023D02*
X002020Y008023D01*
X002191Y008816D02*
X003963Y008816D01*
X003963Y008974D02*
X002002Y008974D01*
X002149Y009133D02*
X003849Y009133D01*
X006856Y009133D02*
X007746Y009133D01*
X007648Y009291D02*
X006889Y009291D01*
X006889Y009450D02*
X007608Y009450D01*
X007610Y009608D02*
X006889Y009608D01*
X005135Y003427D02*
X005103Y003427D01*
X006314Y002511D02*
X006314Y002187D01*
X006277Y002099D01*
X006256Y002078D01*
X006277Y002056D01*
X006314Y001968D01*
X006314Y001479D01*
X006277Y001391D01*
X006210Y001323D01*
X006121Y001286D01*
X005593Y001286D01*
X005505Y001323D01*
X005437Y001391D01*
X005401Y001479D01*
X005401Y001661D01*
X005289Y001773D01*
X005289Y001746D01*
X004911Y001746D01*
X004911Y001709D01*
X005289Y001709D01*
X005289Y001507D01*
X005277Y001461D01*
X005263Y001437D01*
X005294Y001419D01*
X005328Y001385D01*
X005352Y001344D01*
X005364Y001298D01*
X005364Y001076D01*
X005006Y001076D01*
X005006Y001040D01*
X005364Y001040D01*
X005364Y000854D01*
X008994Y000854D01*
X008994Y001082D01*
X008932Y001050D01*
X008860Y001027D01*
X008785Y001015D01*
X008468Y001015D01*
X008468Y001475D01*
X008428Y001475D01*
X008428Y001015D01*
X008110Y001015D01*
X008035Y001027D01*
X007963Y001050D01*
X007896Y001084D01*
X007835Y001129D01*
X007782Y001182D01*
X007737Y001243D01*
X007703Y001311D01*
X007680Y001383D01*
X007668Y001457D01*
X007668Y001475D01*
X008428Y001475D01*
X008428Y001515D01*
X007668Y001515D01*
X007668Y001533D01*
X007680Y001607D01*
X007703Y001679D01*
X007737Y001747D01*
X007782Y001808D01*
X007835Y001861D01*
X007896Y001905D01*
X007963Y001940D01*
X008027Y001960D01*
X007842Y002037D01*
X007690Y002189D01*
X007608Y002388D01*
X007608Y002602D01*
X007647Y002697D01*
X006937Y002697D01*
X006903Y002615D01*
X006836Y002547D01*
X006747Y002511D01*
X006314Y002511D01*
X006314Y002476D02*
X007608Y002476D01*
X007621Y002634D02*
X006911Y002634D01*
X006314Y002317D02*
X007637Y002317D01*
X007720Y002159D02*
X006302Y002159D01*
X006300Y002000D02*
X007931Y002000D01*
X007816Y001842D02*
X006314Y001842D01*
X006314Y001683D02*
X007705Y001683D01*
X007668Y001525D02*
X006314Y001525D01*
X006253Y001366D02*
X007685Y001366D01*
X007763Y001208D02*
X005364Y001208D01*
X005339Y001366D02*
X005461Y001366D01*
X005401Y001525D02*
X005289Y001525D01*
X005289Y001683D02*
X005379Y001683D01*
X004874Y001709D02*
X004496Y001709D01*
X004496Y001514D01*
X004247Y001514D01*
X004247Y001758D01*
X004499Y002010D01*
X004524Y002021D01*
X004508Y001994D01*
X004496Y001948D01*
X004496Y001746D01*
X004874Y001746D01*
X004874Y001709D01*
X004512Y002000D02*
X004489Y002000D01*
X004496Y001842D02*
X004331Y001842D01*
X004247Y001683D02*
X004496Y001683D01*
X004496Y001525D02*
X004247Y001525D01*
X005006Y001049D02*
X007966Y001049D01*
X008428Y001049D02*
X008468Y001049D01*
X008468Y001208D02*
X008428Y001208D01*
X008428Y001366D02*
X008468Y001366D01*
X008929Y001049D02*
X008994Y001049D01*
X008994Y000891D02*
X005364Y000891D01*
X001468Y001049D02*
X001428Y001049D01*
X001428Y001208D02*
X001468Y001208D01*
X001468Y001366D02*
X001428Y001366D01*
M02*
