G75*
G70*
%OFA0B0*%
%FSLAX24Y24*%
%IPPOS*%
%LPD*%
%AMOC8*
5,1,8,0,0,1.08239X$1,22.5*
%
%ADD10C,0.0600*%
%ADD11C,0.0396*%
%ADD12C,0.0100*%
D10*
X001148Y001495D02*
X001748Y001495D01*
X001748Y002495D02*
X001148Y002495D01*
X001148Y003495D02*
X001748Y003495D01*
X001748Y004495D02*
X001148Y004495D01*
X001148Y005495D02*
X001748Y005495D01*
X001748Y006495D02*
X001148Y006495D01*
X001148Y007495D02*
X001748Y007495D01*
X001748Y008495D02*
X001148Y008495D01*
X001148Y009495D02*
X001748Y009495D01*
X008148Y009495D02*
X008748Y009495D01*
X008748Y008495D02*
X008148Y008495D01*
X008148Y007495D02*
X008748Y007495D01*
X008748Y006495D02*
X008148Y006495D01*
X008148Y005495D02*
X008748Y005495D01*
X008748Y004495D02*
X008148Y004495D01*
X008148Y003495D02*
X008748Y003495D01*
X008748Y002495D02*
X008148Y002495D01*
X008148Y001495D02*
X008748Y001495D01*
D11*
X005101Y003605D03*
X004353Y002424D03*
X004353Y001715D03*
X002503Y007975D03*
X003290Y008763D03*
X003093Y009865D03*
X004983Y009235D03*
X005692Y009235D03*
D12*
X000824Y001183D02*
X000824Y000824D01*
X009024Y000824D01*
X009024Y001140D01*
X008984Y001110D01*
X008920Y001078D01*
X008853Y001056D01*
X008783Y001045D01*
X008498Y001045D01*
X008498Y001445D01*
X008398Y001445D01*
X008398Y001045D01*
X008112Y001045D01*
X008042Y001056D01*
X007975Y001078D01*
X007912Y001110D01*
X007855Y001152D01*
X007804Y001202D01*
X007763Y001259D01*
X007731Y001322D01*
X007709Y001390D01*
X007700Y001445D01*
X008398Y001445D01*
X008398Y001545D01*
X008398Y001945D01*
X008112Y001945D01*
X008042Y001934D01*
X007975Y001912D01*
X007912Y001880D01*
X007855Y001838D01*
X007804Y001788D01*
X007763Y001731D01*
X007731Y001668D01*
X007709Y001600D01*
X007700Y001545D01*
X008398Y001545D01*
X008498Y001545D01*
X008498Y001945D01*
X008783Y001945D01*
X008853Y001934D01*
X008920Y001912D01*
X008984Y001880D01*
X009024Y001850D01*
X009024Y002058D01*
X008849Y001985D01*
X008046Y001985D01*
X007859Y002063D01*
X007715Y002206D01*
X007638Y002394D01*
X007638Y002596D01*
X007715Y002784D01*
X007859Y002927D01*
X008022Y002995D01*
X007859Y003063D01*
X007715Y003206D01*
X007638Y003394D01*
X007638Y003596D01*
X007715Y003784D01*
X007859Y003927D01*
X008022Y003995D01*
X007859Y004063D01*
X007715Y004206D01*
X007638Y004394D01*
X007638Y004596D01*
X007715Y004784D01*
X007859Y004927D01*
X008022Y004995D01*
X007859Y005063D01*
X007715Y005206D01*
X007638Y005394D01*
X007638Y005596D01*
X007715Y005784D01*
X007859Y005927D01*
X008022Y005995D01*
X007859Y006063D01*
X007715Y006206D01*
X007638Y006394D01*
X007638Y006596D01*
X007715Y006784D01*
X007859Y006927D01*
X008022Y006995D01*
X007859Y007063D01*
X007715Y007206D01*
X007638Y007394D01*
X007638Y007596D01*
X007715Y007784D01*
X007859Y007927D01*
X008022Y007995D01*
X007859Y008063D01*
X007715Y008206D01*
X007638Y008394D01*
X007638Y008596D01*
X007715Y008784D01*
X007859Y008927D01*
X008022Y008995D01*
X007859Y009063D01*
X007715Y009206D01*
X007638Y009394D01*
X007638Y009596D01*
X007715Y009784D01*
X007859Y009927D01*
X008046Y010005D01*
X008849Y010005D01*
X009024Y009932D01*
X009024Y010087D01*
X000824Y010087D01*
X000824Y009892D01*
X000859Y009927D01*
X001046Y010005D01*
X001849Y010005D01*
X002037Y009927D01*
X002180Y009784D01*
X002258Y009596D01*
X002258Y009394D01*
X002180Y009206D01*
X002037Y009063D01*
X001873Y008995D01*
X002037Y008927D01*
X002180Y008784D01*
X002258Y008596D01*
X002258Y008394D01*
X002180Y008206D01*
X002037Y008063D01*
X001873Y007995D01*
X002037Y007927D01*
X002180Y007784D01*
X002258Y007596D01*
X002258Y007394D01*
X002180Y007206D01*
X002037Y007063D01*
X001873Y006995D01*
X002037Y006927D01*
X002180Y006784D01*
X002258Y006596D01*
X002258Y006394D01*
X002180Y006206D01*
X002037Y006063D01*
X001873Y005995D01*
X002037Y005927D01*
X002180Y005784D01*
X002258Y005596D01*
X002258Y005394D01*
X002180Y005206D01*
X002037Y005063D01*
X001873Y004995D01*
X002037Y004927D01*
X002180Y004784D01*
X002258Y004596D01*
X002258Y004394D01*
X002180Y004206D01*
X002037Y004063D01*
X001873Y003995D01*
X002037Y003927D01*
X002180Y003784D01*
X002258Y003596D01*
X002258Y003394D01*
X002180Y003206D01*
X002037Y003063D01*
X001873Y002995D01*
X002037Y002927D01*
X002180Y002784D01*
X002258Y002596D01*
X002258Y002394D01*
X002180Y002206D01*
X002037Y002063D01*
X001849Y001985D01*
X001046Y001985D01*
X000859Y002063D01*
X000824Y002098D01*
X000824Y001807D01*
X000855Y001838D01*
X000912Y001880D01*
X000975Y001912D01*
X001042Y001934D01*
X001112Y001945D01*
X001398Y001945D01*
X001398Y001545D01*
X001498Y001545D01*
X002195Y001545D01*
X002187Y001600D01*
X002165Y001668D01*
X002133Y001731D01*
X002091Y001788D01*
X002041Y001838D01*
X001984Y001880D01*
X001920Y001912D01*
X001853Y001934D01*
X001783Y001945D01*
X001498Y001945D01*
X001498Y001545D01*
X001498Y001445D01*
X002195Y001445D01*
X002187Y001390D01*
X002165Y001322D01*
X002133Y001259D01*
X002091Y001202D01*
X002041Y001152D01*
X001984Y001110D01*
X001920Y001078D01*
X001853Y001056D01*
X001783Y001045D01*
X001498Y001045D01*
X001498Y001445D01*
X001398Y001445D01*
X001398Y001045D01*
X001112Y001045D01*
X001042Y001056D01*
X000975Y001078D01*
X000912Y001110D01*
X000855Y001152D01*
X000824Y001183D01*
X000824Y001165D02*
X000842Y001165D01*
X000824Y001066D02*
X001011Y001066D01*
X000824Y000968D02*
X009024Y000968D01*
X009024Y001066D02*
X008884Y001066D01*
X009024Y000869D02*
X000824Y000869D01*
X001398Y001066D02*
X001498Y001066D01*
X001498Y001165D02*
X001398Y001165D01*
X001398Y001263D02*
X001498Y001263D01*
X001498Y001362D02*
X001398Y001362D01*
X001498Y001460D02*
X008398Y001460D01*
X008398Y001362D02*
X008498Y001362D01*
X008498Y001263D02*
X008398Y001263D01*
X008398Y001165D02*
X008498Y001165D01*
X008498Y001066D02*
X008398Y001066D01*
X008011Y001066D02*
X001884Y001066D01*
X002054Y001165D02*
X007842Y001165D01*
X007761Y001263D02*
X002135Y001263D01*
X002178Y001362D02*
X007718Y001362D01*
X007702Y001559D02*
X002193Y001559D01*
X002168Y001657D02*
X007727Y001657D01*
X007781Y001756D02*
X002115Y001756D01*
X002019Y001854D02*
X007877Y001854D01*
X007886Y002051D02*
X004519Y002051D01*
X004584Y002078D02*
X004699Y002193D01*
X004761Y002343D01*
X004761Y002505D01*
X004699Y002655D01*
X004584Y002770D01*
X004434Y002832D01*
X004272Y002832D01*
X004122Y002770D01*
X004007Y002655D01*
X003945Y002505D01*
X003945Y002343D01*
X004007Y002193D01*
X004122Y002078D01*
X004272Y002016D01*
X004434Y002016D01*
X004584Y002078D01*
X004656Y002150D02*
X007772Y002150D01*
X007698Y002248D02*
X004722Y002248D01*
X004761Y002347D02*
X007657Y002347D01*
X007638Y002445D02*
X004761Y002445D01*
X004745Y002544D02*
X007638Y002544D01*
X007657Y002642D02*
X004705Y002642D01*
X004614Y002741D02*
X007697Y002741D01*
X007771Y002839D02*
X002125Y002839D01*
X002198Y002741D02*
X004093Y002741D01*
X004002Y002642D02*
X002239Y002642D01*
X002258Y002544D02*
X003961Y002544D01*
X003945Y002445D02*
X002258Y002445D01*
X002238Y002347D02*
X003945Y002347D01*
X003984Y002248D02*
X002198Y002248D01*
X002124Y002150D02*
X004050Y002150D01*
X004187Y002051D02*
X002009Y002051D01*
X001498Y001854D02*
X001398Y001854D01*
X001398Y001756D02*
X001498Y001756D01*
X001498Y001657D02*
X001398Y001657D01*
X001398Y001559D02*
X001498Y001559D01*
X000886Y002051D02*
X000824Y002051D01*
X000824Y001953D02*
X009024Y001953D01*
X009024Y002051D02*
X009009Y002051D01*
X009019Y001854D02*
X009024Y001854D01*
X008498Y001854D02*
X008398Y001854D01*
X008398Y001756D02*
X008498Y001756D01*
X008498Y001657D02*
X008398Y001657D01*
X008398Y001559D02*
X008498Y001559D01*
X007884Y002938D02*
X002012Y002938D01*
X001973Y003036D02*
X007923Y003036D01*
X007787Y003135D02*
X002109Y003135D01*
X002191Y003233D02*
X007704Y003233D01*
X007663Y003332D02*
X002232Y003332D01*
X002258Y003430D02*
X007638Y003430D01*
X007638Y003529D02*
X002258Y003529D01*
X002245Y003627D02*
X007650Y003627D01*
X007691Y003726D02*
X002204Y003726D01*
X002140Y003824D02*
X007756Y003824D01*
X007854Y003923D02*
X002041Y003923D01*
X001937Y004021D02*
X007959Y004021D01*
X007802Y004120D02*
X002094Y004120D01*
X002185Y004218D02*
X007710Y004218D01*
X007670Y004317D02*
X002226Y004317D01*
X002258Y004415D02*
X007638Y004415D01*
X007638Y004514D02*
X002258Y004514D01*
X002251Y004612D02*
X007644Y004612D01*
X007685Y004711D02*
X002210Y004711D01*
X002155Y004809D02*
X007741Y004809D01*
X007839Y004908D02*
X002056Y004908D01*
X001900Y005006D02*
X007995Y005006D01*
X007817Y005105D02*
X002079Y005105D01*
X002177Y005203D02*
X007718Y005203D01*
X007676Y005302D02*
X002220Y005302D01*
X002258Y005400D02*
X007638Y005400D01*
X007638Y005499D02*
X002258Y005499D01*
X002257Y005597D02*
X007638Y005597D01*
X007679Y005696D02*
X002217Y005696D01*
X002170Y005794D02*
X007726Y005794D01*
X007824Y005893D02*
X002071Y005893D01*
X002064Y006090D02*
X007832Y006090D01*
X007733Y006188D02*
X002162Y006188D01*
X002213Y006287D02*
X007682Y006287D01*
X007641Y006385D02*
X002254Y006385D01*
X002258Y006484D02*
X007638Y006484D01*
X007638Y006582D02*
X002258Y006582D01*
X002223Y006681D02*
X007673Y006681D01*
X007713Y006779D02*
X002182Y006779D01*
X002086Y006878D02*
X007809Y006878D01*
X007977Y006976D02*
X001919Y006976D01*
X002049Y007075D02*
X007847Y007075D01*
X007748Y007173D02*
X002147Y007173D01*
X002207Y007272D02*
X007688Y007272D01*
X007647Y007370D02*
X002248Y007370D01*
X002258Y007469D02*
X007638Y007469D01*
X007638Y007567D02*
X002258Y007567D01*
X002229Y007666D02*
X007666Y007666D01*
X007707Y007764D02*
X002188Y007764D01*
X002101Y007863D02*
X007794Y007863D01*
X007941Y007961D02*
X001955Y007961D01*
X002030Y008060D02*
X007866Y008060D01*
X007763Y008158D02*
X002132Y008158D01*
X002201Y008257D02*
X007694Y008257D01*
X007654Y008355D02*
X002242Y008355D01*
X002258Y008454D02*
X007638Y008454D01*
X007638Y008552D02*
X002258Y008552D01*
X002235Y008651D02*
X007660Y008651D01*
X007701Y008749D02*
X002194Y008749D01*
X002116Y008848D02*
X004852Y008848D01*
X004902Y008827D02*
X005064Y008827D01*
X005214Y008889D01*
X005329Y009004D01*
X005391Y009154D01*
X005391Y009316D01*
X005329Y009466D01*
X005214Y009581D01*
X005064Y009643D01*
X004902Y009643D01*
X004752Y009581D01*
X004637Y009466D01*
X004575Y009316D01*
X004575Y009154D01*
X004637Y009004D01*
X004752Y008889D01*
X004902Y008827D01*
X004695Y008946D02*
X001991Y008946D01*
X001993Y009045D02*
X004620Y009045D01*
X004579Y009143D02*
X002117Y009143D01*
X002195Y009242D02*
X004575Y009242D01*
X004585Y009340D02*
X002236Y009340D01*
X002258Y009439D02*
X004626Y009439D01*
X004708Y009537D02*
X002258Y009537D01*
X002241Y009636D02*
X004884Y009636D01*
X005082Y009636D02*
X007654Y009636D01*
X007638Y009537D02*
X005258Y009537D01*
X005341Y009439D02*
X007638Y009439D01*
X007660Y009340D02*
X005381Y009340D01*
X005391Y009242D02*
X007701Y009242D01*
X007778Y009143D02*
X005387Y009143D01*
X005346Y009045D02*
X007902Y009045D01*
X007904Y008946D02*
X005271Y008946D01*
X005114Y008848D02*
X007779Y008848D01*
X007695Y009734D02*
X002201Y009734D01*
X002131Y009833D02*
X007764Y009833D01*
X007868Y009931D02*
X002027Y009931D01*
X000868Y009931D02*
X000824Y009931D01*
X000824Y010030D02*
X009024Y010030D01*
X008013Y005991D02*
X001882Y005991D01*
X000877Y001854D02*
X000824Y001854D01*
M02*
