G75*
G70*
%OFA0B0*%
%FSLAX24Y24*%
%IPPOS*%
%LPD*%
%AMOC8*
5,1,8,0,0,1.08239X$1,22.5*
%
%ADD10C,0.0600*%
%ADD11C,0.0396*%
%ADD12C,0.0160*%
D10*
X001448Y001495D03*
X001448Y002495D03*
X001448Y003495D03*
X001448Y004495D03*
X001448Y005495D03*
X001448Y006495D03*
X001448Y007495D03*
X001448Y008495D03*
X001448Y009495D03*
X008448Y009495D03*
X008448Y008495D03*
X008448Y007495D03*
X008448Y006495D03*
X008448Y005495D03*
X008448Y004495D03*
X008448Y003495D03*
X008448Y002495D03*
X008448Y001495D03*
D11*
X005101Y003605D03*
X004353Y002424D03*
X004353Y001715D03*
X002503Y007975D03*
X003290Y008763D03*
X003093Y009865D03*
X004983Y009235D03*
X005692Y009235D03*
D12*
X000854Y010057D02*
X000854Y000854D01*
X008994Y000854D01*
X008994Y010057D01*
X003379Y010057D01*
X003380Y010057D01*
X003431Y009932D01*
X003431Y009798D01*
X003380Y009674D01*
X003285Y009578D01*
X003161Y009527D01*
X003026Y009527D01*
X002902Y009578D01*
X002807Y009674D01*
X002755Y009798D01*
X002755Y009932D01*
X002807Y010057D01*
X002808Y010057D01*
X000854Y010057D01*
X000854Y009925D02*
X001337Y009925D01*
X001360Y009935D02*
X001198Y009868D01*
X001075Y009744D01*
X001008Y009582D01*
X001008Y009407D01*
X001075Y009246D01*
X001198Y009122D01*
X001360Y009055D01*
X001535Y009055D01*
X001697Y009122D01*
X001821Y009246D01*
X001888Y009407D01*
X001888Y009582D01*
X001821Y009744D01*
X001697Y009868D01*
X001535Y009935D01*
X001360Y009935D01*
X001559Y009925D02*
X002755Y009925D01*
X002768Y009767D02*
X001798Y009767D01*
X001877Y009608D02*
X002872Y009608D01*
X003315Y009608D02*
X007980Y009608D01*
X007980Y009607D02*
X007968Y009533D01*
X007968Y009515D01*
X008428Y009515D01*
X008428Y009975D01*
X008410Y009975D01*
X008335Y009963D01*
X008263Y009940D01*
X008196Y009905D01*
X008135Y009861D01*
X008082Y009808D01*
X008037Y009747D01*
X008003Y009679D01*
X007980Y009607D01*
X007968Y009475D02*
X007968Y009457D01*
X007980Y009383D01*
X008003Y009311D01*
X008037Y009243D01*
X008082Y009182D01*
X008135Y009129D01*
X008196Y009084D01*
X008263Y009050D01*
X008335Y009027D01*
X008410Y009015D01*
X008428Y009015D01*
X008428Y009475D01*
X008468Y009475D01*
X008468Y009515D01*
X008928Y009515D01*
X008928Y009533D01*
X008916Y009607D01*
X008893Y009679D01*
X008858Y009747D01*
X008814Y009808D01*
X008760Y009861D01*
X008699Y009905D01*
X008632Y009940D01*
X008560Y009963D01*
X008485Y009975D01*
X008468Y009975D01*
X008468Y009515D01*
X008428Y009515D01*
X008428Y009475D01*
X007968Y009475D01*
X007969Y009450D02*
X005955Y009450D01*
X005978Y009427D02*
X005883Y009522D01*
X005759Y009573D01*
X005625Y009573D01*
X005500Y009522D01*
X005405Y009427D01*
X005354Y009302D01*
X005354Y009168D01*
X005405Y009044D01*
X005500Y008948D01*
X005625Y008897D01*
X005759Y008897D01*
X005883Y008948D01*
X005978Y009044D01*
X006030Y009168D01*
X006030Y009302D01*
X005978Y009427D01*
X006030Y009291D02*
X008013Y009291D01*
X008131Y009133D02*
X006015Y009133D01*
X005909Y008974D02*
X008994Y008974D01*
X008994Y008816D02*
X008749Y008816D01*
X008697Y008868D02*
X008821Y008744D01*
X008888Y008582D01*
X008888Y008407D01*
X008821Y008246D01*
X008697Y008122D01*
X008535Y008055D01*
X008360Y008055D01*
X008198Y008122D01*
X008075Y008246D01*
X008008Y008407D01*
X008008Y008582D01*
X008075Y008744D01*
X008198Y008868D01*
X008360Y008935D01*
X008535Y008935D01*
X008697Y008868D01*
X008632Y009050D02*
X008560Y009027D01*
X008485Y009015D01*
X008468Y009015D01*
X008468Y009475D01*
X008928Y009475D01*
X008928Y009457D01*
X008916Y009383D01*
X008893Y009311D01*
X008858Y009243D01*
X008814Y009182D01*
X008760Y009129D01*
X008699Y009084D01*
X008632Y009050D01*
X008764Y009133D02*
X008994Y009133D01*
X008994Y009291D02*
X008883Y009291D01*
X008927Y009450D02*
X008994Y009450D01*
X008994Y009608D02*
X008916Y009608D01*
X008844Y009767D02*
X008994Y009767D01*
X008994Y009925D02*
X008661Y009925D01*
X008468Y009925D02*
X008428Y009925D01*
X008428Y009767D02*
X008468Y009767D01*
X008468Y009608D02*
X008428Y009608D01*
X008428Y009450D02*
X008468Y009450D01*
X008468Y009291D02*
X008428Y009291D01*
X008428Y009133D02*
X008468Y009133D01*
X008146Y008816D02*
X003628Y008816D01*
X003628Y008830D02*
X003577Y008954D01*
X003482Y009049D01*
X003357Y009101D01*
X003223Y009101D01*
X003099Y009049D01*
X003004Y008954D01*
X002952Y008830D01*
X002952Y008695D01*
X003004Y008571D01*
X003099Y008476D01*
X003223Y008425D01*
X003357Y008425D01*
X003482Y008476D01*
X003577Y008571D01*
X003628Y008695D01*
X003628Y008830D01*
X003557Y008974D02*
X005475Y008974D01*
X005368Y009133D02*
X001708Y009133D01*
X001840Y009291D02*
X005354Y009291D01*
X005428Y009450D02*
X001888Y009450D01*
X001697Y008868D02*
X001535Y008935D01*
X001360Y008935D01*
X001198Y008868D01*
X001075Y008744D01*
X001008Y008582D01*
X001008Y008407D01*
X001075Y008246D01*
X001198Y008122D01*
X001360Y008055D01*
X001535Y008055D01*
X001697Y008122D01*
X001821Y008246D01*
X001888Y008407D01*
X001888Y008582D01*
X001821Y008744D01*
X001697Y008868D01*
X001749Y008816D02*
X002952Y008816D01*
X003024Y008974D02*
X000854Y008974D01*
X000854Y008816D02*
X001146Y008816D01*
X001039Y008657D02*
X000854Y008657D01*
X000854Y008499D02*
X001008Y008499D01*
X001036Y008340D02*
X000854Y008340D01*
X000854Y008182D02*
X001139Y008182D01*
X001198Y007868D02*
X001075Y007744D01*
X001008Y007582D01*
X001008Y007407D01*
X001075Y007246D01*
X001198Y007122D01*
X001360Y007055D01*
X001535Y007055D01*
X001697Y007122D01*
X001821Y007246D01*
X001888Y007407D01*
X001888Y007582D01*
X001821Y007744D01*
X001697Y007868D01*
X001535Y007935D01*
X001360Y007935D01*
X001198Y007868D01*
X001195Y007865D02*
X000854Y007865D01*
X000854Y008023D02*
X002165Y008023D01*
X002165Y008043D02*
X002165Y007908D01*
X002216Y007784D01*
X002311Y007689D01*
X002436Y007637D01*
X002570Y007637D01*
X002694Y007689D01*
X002789Y007784D01*
X002841Y007908D01*
X002841Y008043D01*
X002789Y008167D01*
X002694Y008262D01*
X002570Y008313D01*
X002436Y008313D01*
X002311Y008262D01*
X002216Y008167D01*
X002165Y008043D01*
X002183Y007865D02*
X001700Y007865D01*
X001836Y007706D02*
X002294Y007706D01*
X002712Y007706D02*
X008059Y007706D01*
X008075Y007744D02*
X008008Y007582D01*
X008008Y007407D01*
X008075Y007246D01*
X008198Y007122D01*
X008360Y007055D01*
X008535Y007055D01*
X008697Y007122D01*
X008821Y007246D01*
X008888Y007407D01*
X008888Y007582D01*
X008821Y007744D01*
X008697Y007868D01*
X008535Y007935D01*
X008360Y007935D01*
X008198Y007868D01*
X008075Y007744D01*
X008195Y007865D02*
X002823Y007865D01*
X002841Y008023D02*
X008994Y008023D01*
X008994Y007865D02*
X008700Y007865D01*
X008836Y007706D02*
X008994Y007706D01*
X008994Y007548D02*
X008888Y007548D01*
X008880Y007389D02*
X008994Y007389D01*
X008994Y007231D02*
X008806Y007231D01*
X008994Y007072D02*
X008577Y007072D01*
X008535Y006935D02*
X008360Y006935D01*
X008198Y006868D01*
X008075Y006744D01*
X008008Y006582D01*
X008008Y006407D01*
X008075Y006246D01*
X008198Y006122D01*
X008360Y006055D01*
X008535Y006055D01*
X008697Y006122D01*
X008821Y006246D01*
X008888Y006407D01*
X008888Y006582D01*
X008821Y006744D01*
X008697Y006868D01*
X008535Y006935D01*
X008587Y006914D02*
X008994Y006914D01*
X008994Y006755D02*
X008810Y006755D01*
X008882Y006597D02*
X008994Y006597D01*
X008994Y006438D02*
X008888Y006438D01*
X008835Y006280D02*
X008994Y006280D01*
X008994Y006121D02*
X008695Y006121D01*
X008535Y005935D02*
X008360Y005935D01*
X008198Y005868D01*
X008075Y005744D01*
X008008Y005582D01*
X008008Y005407D01*
X008075Y005246D01*
X008198Y005122D01*
X008360Y005055D01*
X008535Y005055D01*
X008697Y005122D01*
X008821Y005246D01*
X008888Y005407D01*
X008888Y005582D01*
X008821Y005744D01*
X008697Y005868D01*
X008535Y005935D01*
X008761Y005804D02*
X008994Y005804D01*
X008994Y005646D02*
X008862Y005646D01*
X008888Y005487D02*
X008994Y005487D01*
X008994Y005329D02*
X008855Y005329D01*
X008745Y005170D02*
X008994Y005170D01*
X008994Y005012D02*
X000854Y005012D01*
X000854Y005170D02*
X001150Y005170D01*
X001198Y005122D02*
X001075Y005246D01*
X001008Y005407D01*
X001008Y005582D01*
X001075Y005744D01*
X001198Y005868D01*
X001360Y005935D01*
X001535Y005935D01*
X001697Y005868D01*
X001821Y005744D01*
X001888Y005582D01*
X001888Y005407D01*
X001821Y005246D01*
X001697Y005122D01*
X001535Y005055D01*
X001360Y005055D01*
X001198Y005122D01*
X001360Y004935D02*
X001198Y004868D01*
X001075Y004744D01*
X001008Y004582D01*
X001008Y004407D01*
X001075Y004246D01*
X001198Y004122D01*
X001360Y004055D01*
X001535Y004055D01*
X001697Y004122D01*
X001821Y004246D01*
X001888Y004407D01*
X001888Y004582D01*
X001821Y004744D01*
X001697Y004868D01*
X001535Y004935D01*
X001360Y004935D01*
X001184Y004853D02*
X000854Y004853D01*
X000854Y004695D02*
X001054Y004695D01*
X001008Y004536D02*
X000854Y004536D01*
X000854Y004378D02*
X001020Y004378D01*
X001101Y004219D02*
X000854Y004219D01*
X000854Y004061D02*
X001346Y004061D01*
X001360Y003935D02*
X001198Y003868D01*
X001075Y003744D01*
X001008Y003582D01*
X001008Y003407D01*
X001075Y003246D01*
X001198Y003122D01*
X001360Y003055D01*
X001535Y003055D01*
X001697Y003122D01*
X001821Y003246D01*
X001888Y003407D01*
X001888Y003582D01*
X001821Y003744D01*
X004793Y003744D01*
X004815Y003797D02*
X004763Y003672D01*
X004763Y003538D01*
X004815Y003414D01*
X004910Y003319D01*
X005034Y003267D01*
X005169Y003267D01*
X005293Y003319D01*
X005388Y003414D01*
X005439Y003538D01*
X005439Y003672D01*
X005388Y003797D01*
X005293Y003892D01*
X005169Y003943D01*
X005034Y003943D01*
X004910Y003892D01*
X004815Y003797D01*
X004935Y003902D02*
X001614Y003902D01*
X001535Y003935D02*
X001360Y003935D01*
X001281Y003902D02*
X000854Y003902D01*
X000854Y003744D02*
X001074Y003744D01*
X001009Y003585D02*
X000854Y003585D01*
X000854Y003427D02*
X001008Y003427D01*
X001065Y003268D02*
X000854Y003268D01*
X000854Y003110D02*
X001228Y003110D01*
X001360Y002935D02*
X001198Y002868D01*
X001075Y002744D01*
X001008Y002582D01*
X001008Y002407D01*
X001075Y002246D01*
X001198Y002122D01*
X001360Y002055D01*
X001535Y002055D01*
X001697Y002122D01*
X001821Y002246D01*
X001888Y002407D01*
X001888Y002582D01*
X001821Y002744D01*
X001697Y002868D01*
X001535Y002935D01*
X001360Y002935D01*
X001123Y002793D02*
X000854Y002793D01*
X000854Y002951D02*
X008994Y002951D01*
X008994Y002793D02*
X008772Y002793D01*
X008821Y002744D02*
X008697Y002868D01*
X008535Y002935D01*
X008360Y002935D01*
X008198Y002868D01*
X008075Y002744D01*
X008008Y002582D01*
X008008Y002407D01*
X008075Y002246D01*
X008198Y002122D01*
X008360Y002055D01*
X008535Y002055D01*
X008697Y002122D01*
X008821Y002246D01*
X008888Y002407D01*
X008888Y002582D01*
X008821Y002744D01*
X008866Y002634D02*
X008994Y002634D01*
X008994Y002476D02*
X008888Y002476D01*
X008850Y002317D02*
X008994Y002317D01*
X008994Y002159D02*
X008734Y002159D01*
X008697Y001868D02*
X008535Y001935D01*
X008360Y001935D01*
X008198Y001868D01*
X008075Y001744D01*
X008008Y001582D01*
X008008Y001407D01*
X008075Y001246D01*
X008198Y001122D01*
X008360Y001055D01*
X008535Y001055D01*
X008697Y001122D01*
X008821Y001246D01*
X008888Y001407D01*
X008888Y001582D01*
X008821Y001744D01*
X008697Y001868D01*
X008723Y001842D02*
X008994Y001842D01*
X008994Y002000D02*
X004547Y002000D01*
X004545Y002002D02*
X004420Y002054D01*
X004286Y002054D01*
X004162Y002002D01*
X004067Y001907D01*
X004015Y001783D01*
X004015Y001648D01*
X004067Y001524D01*
X004162Y001429D01*
X004286Y001377D01*
X004420Y001377D01*
X004545Y001429D01*
X004640Y001524D01*
X004691Y001648D01*
X004691Y001783D01*
X004640Y001907D01*
X004545Y002002D01*
X004667Y001842D02*
X008172Y001842D01*
X008049Y001683D02*
X004691Y001683D01*
X004640Y001525D02*
X008008Y001525D01*
X008025Y001366D02*
X001871Y001366D01*
X001888Y001407D02*
X001821Y001246D01*
X001697Y001122D01*
X001535Y001055D01*
X001360Y001055D01*
X001198Y001122D01*
X001075Y001246D01*
X001008Y001407D01*
X001008Y001582D01*
X001075Y001744D01*
X001198Y001868D01*
X001360Y001935D01*
X001535Y001935D01*
X001697Y001868D01*
X001821Y001744D01*
X001888Y001582D01*
X001888Y001407D01*
X001888Y001525D02*
X004066Y001525D01*
X004015Y001683D02*
X001846Y001683D01*
X001723Y001842D02*
X004040Y001842D01*
X004160Y002000D02*
X000854Y002000D01*
X000854Y001842D02*
X001172Y001842D01*
X001049Y001683D02*
X000854Y001683D01*
X000854Y001525D02*
X001008Y001525D01*
X001025Y001366D02*
X000854Y001366D01*
X000854Y001208D02*
X001113Y001208D01*
X000854Y001049D02*
X008994Y001049D01*
X008994Y000891D02*
X000854Y000891D01*
X001783Y001208D02*
X008113Y001208D01*
X008783Y001208D02*
X008994Y001208D01*
X008994Y001366D02*
X008871Y001366D01*
X008888Y001525D02*
X008994Y001525D01*
X008994Y001683D02*
X008846Y001683D01*
X008162Y002159D02*
X001734Y002159D01*
X001850Y002317D02*
X008045Y002317D01*
X008008Y002476D02*
X001888Y002476D01*
X001866Y002634D02*
X008029Y002634D01*
X008123Y002793D02*
X001772Y002793D01*
X001667Y003110D02*
X008228Y003110D01*
X008198Y003122D02*
X008360Y003055D01*
X008535Y003055D01*
X008697Y003122D01*
X008821Y003246D01*
X008888Y003407D01*
X008888Y003582D01*
X008821Y003744D01*
X008994Y003744D01*
X008994Y003902D02*
X008614Y003902D01*
X008535Y003935D02*
X008360Y003935D01*
X008198Y003868D01*
X008075Y003744D01*
X008008Y003582D01*
X008008Y003407D01*
X008075Y003246D01*
X008198Y003122D01*
X008065Y003268D02*
X005171Y003268D01*
X005031Y003268D02*
X001830Y003268D01*
X001888Y003427D02*
X004809Y003427D01*
X004763Y003585D02*
X001887Y003585D01*
X001821Y003744D02*
X001697Y003868D01*
X001535Y003935D01*
X001549Y004061D02*
X008346Y004061D01*
X008360Y004055D02*
X008535Y004055D01*
X008697Y004122D01*
X008821Y004246D01*
X008888Y004407D01*
X008888Y004582D01*
X008821Y004744D01*
X008697Y004868D01*
X008535Y004935D01*
X008360Y004935D01*
X008198Y004868D01*
X008075Y004744D01*
X008008Y004582D01*
X008008Y004407D01*
X008075Y004246D01*
X008198Y004122D01*
X008360Y004055D01*
X008281Y003902D02*
X005268Y003902D01*
X005410Y003744D02*
X008074Y003744D01*
X008009Y003585D02*
X005439Y003585D01*
X005393Y003427D02*
X008008Y003427D01*
X008535Y003935D02*
X008697Y003868D01*
X008821Y003744D01*
X008887Y003585D02*
X008994Y003585D01*
X008994Y003427D02*
X008888Y003427D01*
X008830Y003268D02*
X008994Y003268D01*
X008994Y003110D02*
X008667Y003110D01*
X008549Y004061D02*
X008994Y004061D01*
X008994Y004219D02*
X008794Y004219D01*
X008875Y004378D02*
X008994Y004378D01*
X008994Y004536D02*
X008888Y004536D01*
X008841Y004695D02*
X008994Y004695D01*
X008994Y004853D02*
X008712Y004853D01*
X008184Y004853D02*
X001712Y004853D01*
X001841Y004695D02*
X008054Y004695D01*
X008008Y004536D02*
X001888Y004536D01*
X001875Y004378D02*
X008020Y004378D01*
X008101Y004219D02*
X001794Y004219D01*
X001745Y005170D02*
X008150Y005170D01*
X008040Y005329D02*
X001855Y005329D01*
X001888Y005487D02*
X008008Y005487D01*
X008034Y005646D02*
X001862Y005646D01*
X001761Y005804D02*
X008135Y005804D01*
X008200Y006121D02*
X001695Y006121D01*
X001697Y006122D02*
X001821Y006246D01*
X001888Y006407D01*
X001888Y006582D01*
X001821Y006744D01*
X001697Y006868D01*
X001535Y006935D01*
X001360Y006935D01*
X001198Y006868D01*
X001075Y006744D01*
X001008Y006582D01*
X001008Y006407D01*
X001075Y006246D01*
X001198Y006122D01*
X001360Y006055D01*
X001535Y006055D01*
X001697Y006122D01*
X001835Y006280D02*
X008061Y006280D01*
X008008Y006438D02*
X001888Y006438D01*
X001882Y006597D02*
X008014Y006597D01*
X008086Y006755D02*
X001810Y006755D01*
X001587Y006914D02*
X008309Y006914D01*
X008319Y007072D02*
X001577Y007072D01*
X001806Y007231D02*
X008090Y007231D01*
X008015Y007389D02*
X001880Y007389D01*
X001888Y007548D02*
X008008Y007548D01*
X008139Y008182D02*
X002775Y008182D01*
X003076Y008499D02*
X001888Y008499D01*
X001857Y008657D02*
X002968Y008657D01*
X003504Y008499D02*
X008008Y008499D01*
X008039Y008657D02*
X003613Y008657D01*
X003419Y009767D02*
X008052Y009767D01*
X008235Y009925D02*
X003431Y009925D01*
X002231Y008182D02*
X001757Y008182D01*
X001860Y008340D02*
X008036Y008340D01*
X008757Y008182D02*
X008994Y008182D01*
X008994Y008340D02*
X008860Y008340D01*
X008888Y008499D02*
X008994Y008499D01*
X008994Y008657D02*
X008857Y008657D01*
X008994Y005963D02*
X000854Y005963D01*
X000854Y006121D02*
X001200Y006121D01*
X001061Y006280D02*
X000854Y006280D01*
X000854Y006438D02*
X001008Y006438D01*
X001014Y006597D02*
X000854Y006597D01*
X000854Y006755D02*
X001086Y006755D01*
X001309Y006914D02*
X000854Y006914D01*
X000854Y007072D02*
X001319Y007072D01*
X001090Y007231D02*
X000854Y007231D01*
X000854Y007389D02*
X001015Y007389D01*
X001008Y007548D02*
X000854Y007548D01*
X000854Y007706D02*
X001059Y007706D01*
X001188Y009133D02*
X000854Y009133D01*
X000854Y009291D02*
X001056Y009291D01*
X001008Y009450D02*
X000854Y009450D01*
X000854Y009608D02*
X001018Y009608D01*
X001097Y009767D02*
X000854Y009767D01*
X000854Y005804D02*
X001135Y005804D01*
X001034Y005646D02*
X000854Y005646D01*
X000854Y005487D02*
X001008Y005487D01*
X001040Y005329D02*
X000854Y005329D01*
X000854Y002634D02*
X001029Y002634D01*
X001008Y002476D02*
X000854Y002476D01*
X000854Y002317D02*
X001045Y002317D01*
X001162Y002159D02*
X000854Y002159D01*
M02*
