%
M48
M72
T01C0.0236
T02C0.0400
%
T01
X4353Y1715
X4353Y2424
X5101Y3605
X2503Y7975
X3290Y8763
X3093Y9865
X4983Y9235
X5692Y9235
T02
X1448Y1495
X1448Y2495
X1448Y3495
X1448Y4495
X1448Y5495
X1448Y6495
X1448Y7495
X1448Y8495
X1448Y9495
X8448Y9495
X8448Y8495
X8448Y7495
X8448Y6495
X8448Y5495
X8448Y4495
X8448Y3495
X8448Y2495
X8448Y1495
M30
