G75*
G70*
%OFA0B0*%
%FSLAX24Y24*%
%IPPOS*%
%LPD*%
%AMOC8*
5,1,8,0,0,1.08239X$1,22.5*
%
%ADD10R,0.1162X0.0910*%
%ADD11R,0.0375X0.0375*%
%ADD12R,0.0493X0.0454*%
%ADD13R,0.0454X0.0493*%
%ADD14C,0.0660*%
%ADD15C,0.0178*%
%ADD16R,0.2973X0.2973*%
%ADD17R,0.0560X0.1060*%
%ADD18R,0.0808X0.0611*%
%ADD19C,0.0417*%
D10*
X003679Y009335D03*
X005569Y009335D03*
D11*
X005155Y029360D03*
X004565Y029360D03*
D12*
X005500Y018954D03*
X005500Y018246D03*
X002760Y009794D03*
X002760Y009086D03*
D13*
X003423Y010617D03*
X004132Y010617D03*
X004779Y010623D03*
X005487Y010623D03*
X003934Y012940D03*
X003226Y012940D03*
X003194Y018060D03*
X003174Y019100D03*
X002466Y019100D03*
X002486Y018060D03*
X004446Y028720D03*
X005154Y028720D03*
D14*
X001480Y001180D02*
X000880Y001180D01*
X000880Y002180D02*
X001480Y002180D01*
X001480Y003180D02*
X000880Y003180D01*
X000880Y004180D02*
X001480Y004180D01*
X001480Y005180D02*
X000880Y005180D01*
X000880Y006180D02*
X001480Y006180D01*
X001480Y007180D02*
X000880Y007180D01*
X000880Y008180D02*
X001480Y008180D01*
X001480Y009180D02*
X000880Y009180D01*
X000880Y010180D02*
X001480Y010180D01*
X001480Y011180D02*
X000880Y011180D01*
X000880Y012180D02*
X001480Y012180D01*
X001480Y013180D02*
X000880Y013180D01*
X000880Y014180D02*
X001480Y014180D01*
X001480Y015180D02*
X000880Y015180D01*
X000880Y016180D02*
X001480Y016180D01*
X001480Y017180D02*
X000880Y017180D01*
X000880Y018180D02*
X001480Y018180D01*
X001480Y019180D02*
X000880Y019180D01*
X000880Y020180D02*
X001480Y020180D01*
X001480Y021180D02*
X000880Y021180D01*
X000880Y022180D02*
X001480Y022180D01*
X001480Y023180D02*
X000880Y023180D01*
X000880Y024180D02*
X001480Y024180D01*
X001480Y025180D02*
X000880Y025180D01*
X000880Y026180D02*
X001480Y026180D01*
X001480Y027180D02*
X000880Y027180D01*
X000880Y028180D02*
X001480Y028180D01*
X001480Y029180D02*
X000880Y029180D01*
X000880Y030180D02*
X001480Y030180D01*
X007880Y030180D02*
X008480Y030180D01*
X008480Y029180D02*
X007880Y029180D01*
X007880Y028180D02*
X008480Y028180D01*
X008480Y027180D02*
X007880Y027180D01*
X007880Y026180D02*
X008480Y026180D01*
X008480Y025180D02*
X007880Y025180D01*
X007880Y024180D02*
X008480Y024180D01*
X008480Y023180D02*
X007880Y023180D01*
X007880Y022180D02*
X008480Y022180D01*
X008480Y021180D02*
X007880Y021180D01*
X007880Y020180D02*
X008480Y020180D01*
X008480Y019180D02*
X007880Y019180D01*
X007880Y018180D02*
X008480Y018180D01*
X008480Y017180D02*
X007880Y017180D01*
X007880Y016180D02*
X008480Y016180D01*
X008480Y015180D02*
X007880Y015180D01*
X007880Y014180D02*
X008480Y014180D01*
X008480Y013180D02*
X007880Y013180D01*
X007880Y012180D02*
X008480Y012180D01*
X008480Y011180D02*
X007880Y011180D01*
X007880Y010180D02*
X008480Y010180D01*
X008480Y009180D02*
X007880Y009180D01*
X007880Y008180D02*
X008480Y008180D01*
X008480Y007180D02*
X007880Y007180D01*
X007880Y006180D02*
X008480Y006180D01*
X008480Y005180D02*
X007880Y005180D01*
X007880Y004180D02*
X008480Y004180D01*
X008480Y003180D02*
X007880Y003180D01*
X007880Y002180D02*
X008480Y002180D01*
X008480Y001180D02*
X007880Y001180D01*
D15*
X006136Y013777D02*
X006136Y014033D01*
X005940Y014033D02*
X005940Y013777D01*
X005743Y013777D02*
X005743Y014033D01*
X005546Y014033D02*
X005546Y013777D01*
X005349Y013777D02*
X005349Y014033D01*
X005152Y014033D02*
X005152Y013777D01*
X004955Y013777D02*
X004955Y014033D01*
X004758Y014033D02*
X004758Y013777D01*
X004562Y013777D02*
X004562Y014033D01*
X004365Y014033D02*
X004365Y013777D01*
X004168Y013777D02*
X004168Y014033D01*
X003971Y014033D02*
X003971Y013777D01*
X003774Y013777D02*
X003774Y014033D01*
X003577Y014033D02*
X003577Y013777D01*
X003380Y013777D02*
X003380Y014033D01*
X003184Y014033D02*
X003184Y013777D01*
X002993Y014224D02*
X002737Y014224D01*
X002737Y014420D02*
X002993Y014420D01*
X002993Y014617D02*
X002737Y014617D01*
X002737Y014814D02*
X002993Y014814D01*
X002993Y015011D02*
X002737Y015011D01*
X002737Y015208D02*
X002993Y015208D01*
X002993Y015405D02*
X002737Y015405D01*
X002737Y015602D02*
X002993Y015602D01*
X002993Y015798D02*
X002737Y015798D01*
X002737Y015995D02*
X002993Y015995D01*
X002993Y016192D02*
X002737Y016192D01*
X002737Y016389D02*
X002993Y016389D01*
X002993Y016586D02*
X002737Y016586D01*
X002737Y016783D02*
X002993Y016783D01*
X002993Y016980D02*
X002737Y016980D01*
X002737Y017176D02*
X002993Y017176D01*
X003184Y017367D02*
X003184Y017623D01*
X003380Y017623D02*
X003380Y017367D01*
X003577Y017367D02*
X003577Y017623D01*
X003774Y017623D02*
X003774Y017367D01*
X003971Y017367D02*
X003971Y017623D01*
X004168Y017623D02*
X004168Y017367D01*
X004365Y017367D02*
X004365Y017623D01*
X004562Y017623D02*
X004562Y017367D01*
X004758Y017367D02*
X004758Y017623D01*
X004955Y017623D02*
X004955Y017367D01*
X005152Y017367D02*
X005152Y017623D01*
X005349Y017623D02*
X005349Y017367D01*
X005546Y017367D02*
X005546Y017623D01*
X005743Y017623D02*
X005743Y017367D01*
X005940Y017367D02*
X005940Y017623D01*
X006136Y017623D02*
X006136Y017367D01*
X006327Y017176D02*
X006583Y017176D01*
X006583Y016980D02*
X006327Y016980D01*
X006327Y016783D02*
X006583Y016783D01*
X006583Y016586D02*
X006327Y016586D01*
X006327Y016389D02*
X006583Y016389D01*
X006583Y016192D02*
X006327Y016192D01*
X006327Y015995D02*
X006583Y015995D01*
X006583Y015798D02*
X006327Y015798D01*
X006327Y015602D02*
X006583Y015602D01*
X006583Y015405D02*
X006327Y015405D01*
X006327Y015208D02*
X006583Y015208D01*
X006583Y015011D02*
X006327Y015011D01*
X006327Y014814D02*
X006583Y014814D01*
X006583Y014617D02*
X006327Y014617D01*
X006327Y014420D02*
X006583Y014420D01*
X006583Y014224D02*
X006327Y014224D01*
D16*
X004660Y015700D03*
D17*
X004660Y006263D03*
X004660Y004013D03*
X005660Y004013D03*
X005660Y006263D03*
X003660Y006263D03*
X003660Y004013D03*
D18*
X003605Y011285D03*
X003605Y012230D03*
X005337Y012230D03*
X005337Y011285D03*
D19*
X005860Y010100D03*
X005836Y014526D03*
X005836Y015108D03*
X005836Y015691D03*
X005836Y016274D03*
X005836Y016856D03*
X005253Y016856D03*
X005253Y016274D03*
X005253Y015691D03*
X005253Y015108D03*
X005253Y014526D03*
X004671Y014526D03*
X004671Y015108D03*
X004671Y015691D03*
X004671Y016274D03*
X004671Y016856D03*
X004088Y016856D03*
X004088Y016274D03*
X004088Y015691D03*
X004088Y015108D03*
X004088Y014526D03*
X004020Y013460D03*
X003505Y014526D03*
X003505Y015108D03*
X003505Y015691D03*
X003505Y016274D03*
X003505Y016856D03*
X003220Y018580D03*
X002500Y018580D03*
X002944Y012064D03*
X002740Y010420D03*
X003417Y010085D03*
X002660Y007620D03*
X001940Y005700D03*
X002260Y004660D03*
X003620Y003220D03*
X005620Y003220D03*
X006020Y018500D03*
X006020Y018980D03*
X005700Y028740D03*
X005700Y029380D03*
M02*
