%
M48
M72
T01C0.0197
T02C0.0400
%
T01
X1940Y5700
X2260Y4660
X2660Y7620
X3417Y10085
X2944Y12064
X2740Y10420
X4020Y13460
X4088Y14526
X4088Y15108
X4088Y15691
X4088Y16274
X4088Y16856
X3505Y16856
X3505Y16274
X3505Y15691
X3505Y15108
X3505Y14526
X4671Y14526
X4671Y15108
X4671Y15691
X4671Y16274
X4671Y16856
X5253Y16856
X5253Y16274
X5253Y15691
X5253Y15108
X5253Y14526
X5836Y14526
X5836Y15108
X5836Y15691
X5836Y16274
X5836Y16856
X6020Y18500
X6020Y18980
X5860Y10100
X5620Y3220
X3620Y3220
X3220Y18580
X2500Y18580
X5700Y28740
X5700Y29380
T02
X1180Y1180
X1180Y2180
X1180Y3180
X1180Y4180
X1180Y5180
X1180Y6180
X1180Y7180
X1180Y8180
X1180Y9180
X1180Y10180
X1180Y11180
X1180Y12180
X1180Y13180
X1180Y14180
X1180Y15180
X1180Y16180
X1180Y17180
X1180Y18180
X1180Y19180
X1180Y20180
X1180Y21180
X1180Y22180
X1180Y23180
X1180Y24180
X1180Y25180
X1180Y26180
X1180Y27180
X1180Y28180
X1180Y29180
X1180Y30180
X8180Y30180
X8180Y29180
X8180Y28180
X8180Y27180
X8180Y26180
X8180Y25180
X8180Y24180
X8180Y23180
X8180Y22180
X8180Y21180
X8180Y20180
X8180Y19180
X8180Y18180
X8180Y17180
X8180Y16180
X8180Y15180
X8180Y14180
X8180Y13180
X8180Y12180
X8180Y11180
X8180Y10180
X8180Y9180
X8180Y8180
X8180Y7180
X8180Y6180
X8180Y5180
X8180Y4180
X8180Y3180
X8180Y2180
X8180Y1180
M30
