G75*
G70*
%OFA0B0*%
%FSLAX24Y24*%
%IPPOS*%
%LPD*%
%AMOC8*
5,1,8,0,0,1.08239X$1,22.5*
%
%ADD10C,0.0660*%
%ADD11C,0.0417*%
D10*
X000880Y001180D02*
X001480Y001180D01*
X001480Y002180D02*
X000880Y002180D01*
X000880Y003180D02*
X001480Y003180D01*
X001480Y004180D02*
X000880Y004180D01*
X000880Y005180D02*
X001480Y005180D01*
X001480Y006180D02*
X000880Y006180D01*
X000880Y007180D02*
X001480Y007180D01*
X001480Y008180D02*
X000880Y008180D01*
X000880Y009180D02*
X001480Y009180D01*
X001480Y010180D02*
X000880Y010180D01*
X000880Y011180D02*
X001480Y011180D01*
X001480Y012180D02*
X000880Y012180D01*
X000880Y013180D02*
X001480Y013180D01*
X001480Y014180D02*
X000880Y014180D01*
X000880Y015180D02*
X001480Y015180D01*
X001480Y016180D02*
X000880Y016180D01*
X000880Y017180D02*
X001480Y017180D01*
X001480Y018180D02*
X000880Y018180D01*
X000880Y019180D02*
X001480Y019180D01*
X001480Y020180D02*
X000880Y020180D01*
X000880Y021180D02*
X001480Y021180D01*
X001480Y022180D02*
X000880Y022180D01*
X000880Y023180D02*
X001480Y023180D01*
X001480Y024180D02*
X000880Y024180D01*
X000880Y025180D02*
X001480Y025180D01*
X001480Y026180D02*
X000880Y026180D01*
X000880Y027180D02*
X001480Y027180D01*
X001480Y028180D02*
X000880Y028180D01*
X000880Y029180D02*
X001480Y029180D01*
X001480Y030180D02*
X000880Y030180D01*
X007880Y030180D02*
X008480Y030180D01*
X008480Y029180D02*
X007880Y029180D01*
X007880Y028180D02*
X008480Y028180D01*
X008480Y027180D02*
X007880Y027180D01*
X007880Y026180D02*
X008480Y026180D01*
X008480Y025180D02*
X007880Y025180D01*
X007880Y024180D02*
X008480Y024180D01*
X008480Y023180D02*
X007880Y023180D01*
X007880Y022180D02*
X008480Y022180D01*
X008480Y021180D02*
X007880Y021180D01*
X007880Y020180D02*
X008480Y020180D01*
X008480Y019180D02*
X007880Y019180D01*
X007880Y018180D02*
X008480Y018180D01*
X008480Y017180D02*
X007880Y017180D01*
X007880Y016180D02*
X008480Y016180D01*
X008480Y015180D02*
X007880Y015180D01*
X007880Y014180D02*
X008480Y014180D01*
X008480Y013180D02*
X007880Y013180D01*
X007880Y012180D02*
X008480Y012180D01*
X008480Y011180D02*
X007880Y011180D01*
X007880Y010180D02*
X008480Y010180D01*
X008480Y009180D02*
X007880Y009180D01*
X007880Y008180D02*
X008480Y008180D01*
X008480Y007180D02*
X007880Y007180D01*
X007880Y006180D02*
X008480Y006180D01*
X008480Y005180D02*
X007880Y005180D01*
X007880Y004180D02*
X008480Y004180D01*
X008480Y003180D02*
X007880Y003180D01*
X007880Y002180D02*
X008480Y002180D01*
X008480Y001180D02*
X007880Y001180D01*
D11*
X005620Y003220D03*
X003620Y003220D03*
X002260Y004660D03*
X001940Y005700D03*
X002660Y007620D03*
X003417Y010085D03*
X002944Y012064D03*
X002740Y010420D03*
X004020Y013460D03*
X004088Y014526D03*
X004088Y015108D03*
X004088Y015691D03*
X004088Y016274D03*
X004088Y016856D03*
X003505Y016856D03*
X003505Y016274D03*
X003505Y015691D03*
X003505Y015108D03*
X003505Y014526D03*
X004671Y014526D03*
X004671Y015108D03*
X004671Y015691D03*
X004671Y016274D03*
X004671Y016856D03*
X005253Y016856D03*
X005253Y016274D03*
X005253Y015691D03*
X005253Y015108D03*
X005253Y014526D03*
X005836Y014526D03*
X005836Y015108D03*
X005836Y015691D03*
X005836Y016274D03*
X005836Y016856D03*
X006020Y018500D03*
X006020Y018980D03*
X005860Y010100D03*
X003220Y018580D03*
X002500Y018580D03*
X005700Y028740D03*
X005700Y029380D03*
M02*
