G75*
G70*
%OFA0B0*%
%FSLAX24Y24*%
%IPPOS*%
%LPD*%
%AMOC8*
5,1,8,0,0,1.08239X$1,22.5*
%
%ADD10C,0.0600*%
%ADD11C,0.0357*%
%ADD12C,0.0160*%
D10*
X001180Y001180D03*
X001180Y002180D03*
X001180Y003180D03*
X001180Y004180D03*
X001180Y005180D03*
X001180Y006180D03*
X001180Y007180D03*
X001180Y008180D03*
X001180Y009180D03*
X001180Y010180D03*
X001180Y011180D03*
X001180Y012180D03*
X001180Y013180D03*
X001180Y014180D03*
X001180Y015180D03*
X001180Y016180D03*
X001180Y017180D03*
X001180Y018180D03*
X001180Y019180D03*
X001180Y020180D03*
X001180Y021180D03*
X001180Y022180D03*
X001180Y023180D03*
X001180Y024180D03*
X001180Y025180D03*
X001180Y026180D03*
X001180Y027180D03*
X001180Y028180D03*
X001180Y029180D03*
X001180Y030180D03*
X008180Y030180D03*
X008180Y029180D03*
X008180Y028180D03*
X008180Y027180D03*
X008180Y026180D03*
X008180Y025180D03*
X008180Y024180D03*
X008180Y023180D03*
X008180Y022180D03*
X008180Y021180D03*
X008180Y020180D03*
X008180Y019180D03*
X008180Y018180D03*
X008180Y017180D03*
X008180Y016180D03*
X008180Y015180D03*
X008180Y014180D03*
X008180Y013180D03*
X008180Y012180D03*
X008180Y011180D03*
X008180Y010180D03*
X008180Y009180D03*
X008180Y008180D03*
X008180Y007180D03*
X008180Y006180D03*
X008180Y005180D03*
X008180Y004180D03*
X008180Y003180D03*
X008180Y002180D03*
X008180Y001180D03*
D11*
X005620Y003220D03*
X003620Y003220D03*
X002260Y004660D03*
X001940Y005700D03*
X002660Y007620D03*
X003417Y010085D03*
X002944Y012064D03*
X002740Y010420D03*
X004020Y013460D03*
X004088Y014526D03*
X004088Y015108D03*
X004088Y015691D03*
X004088Y016274D03*
X004088Y016856D03*
X003505Y016856D03*
X003505Y016274D03*
X003505Y015691D03*
X003505Y015108D03*
X003505Y014526D03*
X004671Y014526D03*
X004671Y015108D03*
X004671Y015691D03*
X004671Y016274D03*
X004671Y016856D03*
X005253Y016856D03*
X005253Y016274D03*
X005253Y015691D03*
X005253Y015108D03*
X005253Y014526D03*
X005836Y014526D03*
X005836Y015108D03*
X005836Y015691D03*
X005836Y016274D03*
X005836Y016856D03*
X006020Y018500D03*
X006020Y018980D03*
X005860Y010100D03*
X003220Y018580D03*
X002500Y018580D03*
X005700Y028740D03*
X005700Y029380D03*
D12*
X000640Y030650D02*
X000620Y000740D01*
X008732Y000740D01*
X008732Y030650D01*
X008280Y030650D01*
X008292Y030648D01*
X008364Y030625D01*
X008432Y030591D01*
X008493Y030546D01*
X008546Y030493D01*
X008591Y030432D01*
X008625Y030364D01*
X008648Y030292D01*
X008660Y030218D01*
X008660Y030200D01*
X008200Y030200D01*
X008200Y030160D01*
X008660Y030160D01*
X008660Y030142D01*
X008648Y030068D01*
X008625Y029996D01*
X008591Y029928D01*
X008546Y029867D01*
X008493Y029814D01*
X008432Y029769D01*
X008364Y029735D01*
X008292Y029712D01*
X008218Y029700D01*
X008200Y029700D01*
X008200Y030160D01*
X008160Y030160D01*
X008160Y029700D01*
X008142Y029700D01*
X008068Y029712D01*
X007996Y029735D01*
X007928Y029769D01*
X007867Y029814D01*
X007814Y029867D01*
X007769Y029928D01*
X007735Y029996D01*
X007712Y030068D01*
X007700Y030142D01*
X007700Y030160D01*
X008160Y030160D01*
X008160Y030200D01*
X007700Y030200D01*
X007700Y030218D01*
X007712Y030292D01*
X007735Y030364D01*
X007769Y030432D01*
X007814Y030493D01*
X007867Y030546D01*
X007928Y030591D01*
X007996Y030625D01*
X008068Y030648D01*
X008080Y030650D01*
X001280Y030650D01*
X001292Y030648D01*
X001364Y030625D01*
X001432Y030591D01*
X001493Y030546D01*
X001546Y030493D01*
X001591Y030432D01*
X001625Y030364D01*
X001648Y030292D01*
X001660Y030218D01*
X001660Y030200D01*
X001200Y030200D01*
X001200Y030160D01*
X001660Y030160D01*
X001660Y030142D01*
X001648Y030068D01*
X001625Y029996D01*
X001591Y029928D01*
X001546Y029867D01*
X001493Y029814D01*
X001432Y029769D01*
X001364Y029735D01*
X001292Y029712D01*
X001218Y029700D01*
X001200Y029700D01*
X001200Y030160D01*
X001160Y030160D01*
X000700Y030160D01*
X000700Y030142D01*
X000712Y030068D01*
X000735Y029996D01*
X000769Y029928D01*
X000814Y029867D01*
X000867Y029814D01*
X000928Y029769D01*
X000996Y029735D01*
X001068Y029712D01*
X001142Y029700D01*
X001160Y029700D01*
X001160Y030160D01*
X001160Y030200D01*
X000700Y030200D01*
X000700Y030218D01*
X000712Y030292D01*
X000735Y030364D01*
X000769Y030432D01*
X000814Y030493D01*
X000867Y030546D01*
X000928Y030591D01*
X000996Y030625D01*
X001068Y030648D01*
X001080Y030650D01*
X000640Y030650D01*
X000640Y030575D02*
X000907Y030575D01*
X000762Y030417D02*
X000640Y030417D01*
X000640Y030258D02*
X000706Y030258D01*
X000707Y030100D02*
X000639Y030100D01*
X000639Y029941D02*
X000763Y029941D01*
X000639Y029783D02*
X000910Y029783D01*
X000931Y029553D02*
X000807Y029429D01*
X000740Y029268D01*
X000740Y029092D01*
X000807Y028931D01*
X000931Y028807D01*
X001092Y028740D01*
X001268Y028740D01*
X001429Y028807D01*
X001553Y028931D01*
X001620Y029092D01*
X001620Y029268D01*
X001553Y029429D01*
X001429Y029553D01*
X001268Y029620D01*
X001092Y029620D01*
X000931Y029553D01*
X000843Y029466D02*
X000639Y029466D01*
X000639Y029624D02*
X005494Y029624D01*
X005520Y029650D02*
X005430Y029560D01*
X005382Y029443D01*
X005382Y029317D01*
X005430Y029200D01*
X005520Y029110D01*
X005637Y029062D01*
X005763Y029062D01*
X005880Y029110D01*
X005970Y029200D01*
X006018Y029317D01*
X006018Y029443D01*
X005970Y029560D01*
X005880Y029650D01*
X005763Y029698D01*
X005637Y029698D01*
X005520Y029650D01*
X005481Y029149D02*
X001620Y029149D01*
X001604Y029307D02*
X005386Y029307D01*
X005391Y029466D02*
X001517Y029466D01*
X001450Y029783D02*
X007910Y029783D01*
X007763Y029941D02*
X001597Y029941D01*
X001653Y030100D02*
X007707Y030100D01*
X007706Y030258D02*
X001654Y030258D01*
X001598Y030417D02*
X007762Y030417D01*
X007907Y030575D02*
X001453Y030575D01*
X001200Y030100D02*
X001160Y030100D01*
X001160Y029941D02*
X001200Y029941D01*
X001200Y029783D02*
X001160Y029783D01*
X000782Y028990D02*
X000639Y028990D01*
X000639Y028832D02*
X000906Y028832D01*
X000931Y028553D02*
X000807Y028429D01*
X000740Y028268D01*
X000740Y028092D01*
X000807Y027931D01*
X000931Y027807D01*
X001092Y027740D01*
X001268Y027740D01*
X001429Y027807D01*
X001553Y027931D01*
X001620Y028092D01*
X001620Y028268D01*
X001553Y028429D01*
X001429Y028553D01*
X001268Y028620D01*
X001092Y028620D01*
X000931Y028553D01*
X000892Y028515D02*
X000638Y028515D01*
X000639Y028673D02*
X008732Y028673D01*
X008732Y028515D02*
X008468Y028515D01*
X008429Y028553D02*
X008268Y028620D01*
X008092Y028620D01*
X007931Y028553D01*
X007807Y028429D01*
X007740Y028268D01*
X007740Y028092D01*
X007807Y027931D01*
X007931Y027807D01*
X008092Y027740D01*
X008268Y027740D01*
X008429Y027807D01*
X008553Y027931D01*
X008620Y028092D01*
X008620Y028268D01*
X008553Y028429D01*
X008429Y028553D01*
X008268Y028740D02*
X008429Y028807D01*
X008553Y028931D01*
X008620Y029092D01*
X008620Y029268D01*
X008553Y029429D01*
X008429Y029553D01*
X008268Y029620D01*
X008092Y029620D01*
X007931Y029553D01*
X007807Y029429D01*
X007740Y029268D01*
X007740Y029092D01*
X007807Y028931D01*
X007931Y028807D01*
X008092Y028740D01*
X008268Y028740D01*
X008454Y028832D02*
X008732Y028832D01*
X008732Y028990D02*
X008578Y028990D01*
X008620Y029149D02*
X008732Y029149D01*
X008732Y029307D02*
X008604Y029307D01*
X008517Y029466D02*
X008732Y029466D01*
X008732Y029624D02*
X005906Y029624D01*
X006009Y029466D02*
X007843Y029466D01*
X007756Y029307D02*
X006014Y029307D01*
X005919Y029149D02*
X007740Y029149D01*
X007782Y028990D02*
X001578Y028990D01*
X001454Y028832D02*
X007906Y028832D01*
X007892Y028515D02*
X001468Y028515D01*
X001583Y028356D02*
X007777Y028356D01*
X007740Y028198D02*
X001620Y028198D01*
X001598Y028039D02*
X007762Y028039D01*
X007857Y027881D02*
X001503Y027881D01*
X001404Y027564D02*
X007956Y027564D01*
X007931Y027553D02*
X007807Y027429D01*
X007740Y027268D01*
X007740Y027092D01*
X007807Y026931D01*
X007931Y026807D01*
X008092Y026740D01*
X008268Y026740D01*
X008429Y026807D01*
X008553Y026931D01*
X008620Y027092D01*
X008620Y027268D01*
X008553Y027429D01*
X008429Y027553D01*
X008268Y027620D01*
X008092Y027620D01*
X007931Y027553D01*
X007797Y027405D02*
X001563Y027405D01*
X001553Y027429D02*
X001429Y027553D01*
X001268Y027620D01*
X001092Y027620D01*
X000931Y027553D01*
X000807Y027429D01*
X000740Y027268D01*
X000740Y027092D01*
X000807Y026931D01*
X000931Y026807D01*
X001092Y026740D01*
X001268Y026740D01*
X001429Y026807D01*
X001553Y026931D01*
X001620Y027092D01*
X001620Y027268D01*
X001553Y027429D01*
X001620Y027247D02*
X007740Y027247D01*
X007742Y027088D02*
X001618Y027088D01*
X001552Y026930D02*
X007808Y026930D01*
X008018Y026771D02*
X001342Y026771D01*
X001286Y026613D02*
X008074Y026613D01*
X008092Y026620D02*
X007931Y026553D01*
X007807Y026429D01*
X007740Y026268D01*
X007740Y026092D01*
X007807Y025931D01*
X007931Y025807D01*
X008092Y025740D01*
X008268Y025740D01*
X008429Y025807D01*
X008553Y025931D01*
X008620Y026092D01*
X008620Y026268D01*
X008553Y026429D01*
X008429Y026553D01*
X008268Y026620D01*
X008092Y026620D01*
X008286Y026613D02*
X008732Y026613D01*
X008732Y026771D02*
X008342Y026771D01*
X008552Y026930D02*
X008732Y026930D01*
X008732Y027088D02*
X008618Y027088D01*
X008620Y027247D02*
X008732Y027247D01*
X008732Y027405D02*
X008563Y027405D01*
X008404Y027564D02*
X008732Y027564D01*
X008732Y027722D02*
X000638Y027722D01*
X000638Y027564D02*
X000956Y027564D01*
X000797Y027405D02*
X000638Y027405D01*
X000638Y027247D02*
X000740Y027247D01*
X000742Y027088D02*
X000637Y027088D01*
X000637Y026930D02*
X000808Y026930D01*
X000637Y026771D02*
X001018Y026771D01*
X001074Y026613D02*
X000637Y026613D01*
X000637Y026454D02*
X000832Y026454D01*
X000807Y026429D02*
X000740Y026268D01*
X000740Y026092D01*
X000807Y025931D01*
X000931Y025807D01*
X001092Y025740D01*
X001268Y025740D01*
X001429Y025807D01*
X001553Y025931D01*
X001620Y026092D01*
X001620Y026268D01*
X001553Y026429D01*
X001429Y026553D01*
X001268Y026620D01*
X001092Y026620D01*
X000931Y026553D01*
X000807Y026429D01*
X000752Y026296D02*
X000637Y026296D01*
X000637Y026137D02*
X000740Y026137D01*
X000787Y025979D02*
X000637Y025979D01*
X000637Y025820D02*
X000918Y025820D01*
X001092Y025620D02*
X000931Y025553D01*
X000807Y025429D01*
X000740Y025268D01*
X000740Y025092D01*
X000807Y024931D01*
X000931Y024807D01*
X001092Y024740D01*
X001268Y024740D01*
X001429Y024807D01*
X001553Y024931D01*
X001620Y025092D01*
X001620Y025268D01*
X001553Y025429D01*
X001429Y025553D01*
X001268Y025620D01*
X001092Y025620D01*
X000881Y025503D02*
X000636Y025503D01*
X000636Y025345D02*
X000772Y025345D01*
X000740Y025186D02*
X000636Y025186D01*
X000636Y025028D02*
X000767Y025028D01*
X000869Y024869D02*
X000636Y024869D01*
X000636Y024711D02*
X008732Y024711D01*
X008732Y024869D02*
X008491Y024869D01*
X008429Y024807D02*
X008553Y024931D01*
X008620Y025092D01*
X008620Y025268D01*
X008553Y025429D01*
X008429Y025553D01*
X008268Y025620D01*
X008092Y025620D01*
X007931Y025553D01*
X007807Y025429D01*
X007740Y025268D01*
X007740Y025092D01*
X007807Y024931D01*
X007931Y024807D01*
X008092Y024740D01*
X008268Y024740D01*
X008429Y024807D01*
X008268Y024620D02*
X008429Y024553D01*
X008553Y024429D01*
X008620Y024268D01*
X008620Y024092D01*
X008553Y023931D01*
X008429Y023807D01*
X008268Y023740D01*
X008092Y023740D01*
X007931Y023807D01*
X007807Y023931D01*
X007740Y024092D01*
X007740Y024268D01*
X007807Y024429D01*
X007931Y024553D01*
X008092Y024620D01*
X008268Y024620D01*
X008430Y024552D02*
X008732Y024552D01*
X008732Y024394D02*
X008568Y024394D01*
X008620Y024235D02*
X008732Y024235D01*
X008732Y024077D02*
X008613Y024077D01*
X008540Y023918D02*
X008732Y023918D01*
X008732Y023760D02*
X008315Y023760D01*
X008268Y023620D02*
X008092Y023620D01*
X007931Y023553D01*
X007807Y023429D01*
X007740Y023268D01*
X007740Y023092D01*
X007807Y022931D01*
X007931Y022807D01*
X008092Y022740D01*
X008268Y022740D01*
X008429Y022807D01*
X008553Y022931D01*
X008620Y023092D01*
X008620Y023268D01*
X008553Y023429D01*
X008429Y023553D01*
X008268Y023620D01*
X008313Y023601D02*
X008732Y023601D01*
X008732Y023443D02*
X008540Y023443D01*
X008613Y023284D02*
X008732Y023284D01*
X008732Y023126D02*
X008620Y023126D01*
X008568Y022967D02*
X008732Y022967D01*
X008732Y022809D02*
X008431Y022809D01*
X008268Y022620D02*
X008429Y022553D01*
X008553Y022429D01*
X008620Y022268D01*
X008620Y022092D01*
X008553Y021931D01*
X008429Y021807D01*
X008268Y021740D01*
X008092Y021740D01*
X007931Y021807D01*
X007807Y021931D01*
X007740Y022092D01*
X007740Y022268D01*
X007807Y022429D01*
X007931Y022553D01*
X008092Y022620D01*
X008268Y022620D01*
X008491Y022492D02*
X008732Y022492D01*
X008732Y022650D02*
X000635Y022650D01*
X000634Y022492D02*
X000869Y022492D01*
X000931Y022553D02*
X000807Y022429D01*
X000740Y022268D01*
X000740Y022092D01*
X000807Y021931D01*
X000931Y021807D01*
X001092Y021740D01*
X001268Y021740D01*
X001429Y021807D01*
X001553Y021931D01*
X001620Y022092D01*
X001620Y022268D01*
X001553Y022429D01*
X001429Y022553D01*
X001268Y022620D01*
X001092Y022620D01*
X000931Y022553D01*
X001092Y022740D02*
X000931Y022807D01*
X000807Y022931D01*
X000740Y023092D01*
X000740Y023268D01*
X000807Y023429D01*
X000931Y023553D01*
X001092Y023620D01*
X001268Y023620D01*
X001429Y023553D01*
X001553Y023429D01*
X001620Y023268D01*
X001620Y023092D01*
X001553Y022931D01*
X001429Y022807D01*
X001268Y022740D01*
X001092Y022740D01*
X000929Y022809D02*
X000635Y022809D01*
X000635Y022967D02*
X000792Y022967D01*
X000740Y023126D02*
X000635Y023126D01*
X000635Y023284D02*
X000747Y023284D01*
X000820Y023443D02*
X000635Y023443D01*
X000635Y023601D02*
X001047Y023601D01*
X001092Y023740D02*
X000931Y023807D01*
X000807Y023931D01*
X000740Y024092D01*
X000740Y024268D01*
X000807Y024429D01*
X000931Y024553D01*
X001092Y024620D01*
X001268Y024620D01*
X001429Y024553D01*
X001553Y024429D01*
X001620Y024268D01*
X001620Y024092D01*
X001553Y023931D01*
X001429Y023807D01*
X001268Y023740D01*
X001092Y023740D01*
X001045Y023760D02*
X000635Y023760D01*
X000635Y023918D02*
X000820Y023918D01*
X000747Y024077D02*
X000635Y024077D01*
X000636Y024235D02*
X000740Y024235D01*
X000792Y024394D02*
X000636Y024394D01*
X000636Y024552D02*
X000930Y024552D01*
X001315Y023760D02*
X008045Y023760D01*
X008047Y023601D02*
X001313Y023601D01*
X001540Y023443D02*
X007820Y023443D01*
X007747Y023284D02*
X001613Y023284D01*
X001620Y023126D02*
X007740Y023126D01*
X007792Y022967D02*
X001568Y022967D01*
X001431Y022809D02*
X007929Y022809D01*
X007869Y022492D02*
X001491Y022492D01*
X001593Y022333D02*
X007767Y022333D01*
X007740Y022175D02*
X001620Y022175D01*
X001588Y022016D02*
X007772Y022016D01*
X007880Y021858D02*
X001480Y021858D01*
X001429Y021553D02*
X001268Y021620D01*
X001092Y021620D01*
X000931Y021553D01*
X000807Y021429D01*
X000740Y021268D01*
X000740Y021092D01*
X000807Y020931D01*
X000931Y020807D01*
X001092Y020740D01*
X001268Y020740D01*
X001429Y020807D01*
X001553Y020931D01*
X001620Y021092D01*
X001620Y021268D01*
X001553Y021429D01*
X001429Y021553D01*
X001442Y021541D02*
X007918Y021541D01*
X007931Y021553D02*
X007807Y021429D01*
X007740Y021268D01*
X007740Y021092D01*
X007807Y020931D01*
X007931Y020807D01*
X008092Y020740D01*
X008268Y020740D01*
X008429Y020807D01*
X008553Y020931D01*
X008620Y021092D01*
X008620Y021268D01*
X008553Y021429D01*
X008429Y021553D01*
X008268Y021620D01*
X008092Y021620D01*
X007931Y021553D01*
X007787Y021382D02*
X001573Y021382D01*
X001620Y021224D02*
X007740Y021224D01*
X007751Y021065D02*
X001609Y021065D01*
X001529Y020907D02*
X007831Y020907D01*
X007931Y020553D02*
X007807Y020429D01*
X007740Y020268D01*
X007740Y020092D01*
X007807Y019931D01*
X007931Y019807D01*
X008092Y019740D01*
X008268Y019740D01*
X008429Y019807D01*
X008553Y019931D01*
X008620Y020092D01*
X008620Y020268D01*
X008553Y020429D01*
X008429Y020553D01*
X008268Y020620D01*
X008092Y020620D01*
X007931Y020553D01*
X008019Y020590D02*
X001341Y020590D01*
X001268Y020620D02*
X001092Y020620D01*
X000931Y020553D01*
X000807Y020429D01*
X000740Y020268D01*
X000740Y020092D01*
X000807Y019931D01*
X000931Y019807D01*
X001092Y019740D01*
X001268Y019740D01*
X001429Y019807D01*
X001553Y019931D01*
X001620Y020092D01*
X001620Y020268D01*
X001553Y020429D01*
X001429Y020553D01*
X001268Y020620D01*
X001287Y020748D02*
X008073Y020748D01*
X008287Y020748D02*
X008732Y020748D01*
X008732Y020590D02*
X008341Y020590D01*
X008551Y020431D02*
X008732Y020431D01*
X008732Y020273D02*
X008618Y020273D01*
X008620Y020114D02*
X008732Y020114D01*
X008732Y019956D02*
X008563Y019956D01*
X008429Y019553D02*
X008268Y019620D01*
X008092Y019620D01*
X007931Y019553D01*
X007807Y019429D01*
X007740Y019268D01*
X007740Y019092D01*
X007807Y018931D01*
X007931Y018807D01*
X008092Y018740D01*
X008268Y018740D01*
X008429Y018807D01*
X008553Y018931D01*
X008620Y019092D01*
X008620Y019268D01*
X008553Y019429D01*
X008429Y019553D01*
X008502Y019480D02*
X008732Y019480D01*
X008732Y019322D02*
X008598Y019322D01*
X008620Y019163D02*
X008732Y019163D01*
X008732Y019005D02*
X008584Y019005D01*
X008468Y018846D02*
X008732Y018846D01*
X008732Y018688D02*
X006146Y018688D01*
X006200Y018710D02*
X006290Y018800D01*
X006338Y018917D01*
X006338Y019043D01*
X006290Y019160D01*
X006200Y019250D01*
X006083Y019298D01*
X005957Y019298D01*
X005840Y019250D01*
X005750Y019160D01*
X005702Y019043D01*
X005702Y018917D01*
X005750Y018800D01*
X005840Y018710D01*
X005957Y018662D01*
X006083Y018662D01*
X006200Y018710D01*
X006309Y018846D02*
X007892Y018846D01*
X007776Y019005D02*
X006338Y019005D01*
X006287Y019163D02*
X007740Y019163D01*
X007762Y019322D02*
X001598Y019322D01*
X001620Y019268D02*
X001553Y019429D01*
X001429Y019553D01*
X001268Y019620D01*
X001092Y019620D01*
X000931Y019553D01*
X000807Y019429D01*
X000740Y019268D01*
X000740Y019092D01*
X000807Y018931D01*
X000931Y018807D01*
X001092Y018740D01*
X001268Y018740D01*
X001429Y018807D01*
X001553Y018931D01*
X001620Y019092D01*
X001620Y019268D01*
X001620Y019163D02*
X005753Y019163D01*
X005702Y019005D02*
X001584Y019005D01*
X001468Y018846D02*
X002316Y018846D01*
X002320Y018850D02*
X002230Y018760D01*
X002182Y018643D01*
X002182Y018517D01*
X002230Y018400D01*
X002320Y018310D01*
X002437Y018262D01*
X002563Y018262D01*
X002680Y018310D01*
X002770Y018400D01*
X002818Y018517D01*
X002818Y018643D01*
X002770Y018760D01*
X002680Y018850D01*
X002563Y018898D01*
X002437Y018898D01*
X002320Y018850D01*
X002200Y018688D02*
X000632Y018688D01*
X000632Y018846D02*
X000892Y018846D01*
X000776Y019005D02*
X000632Y019005D01*
X000632Y019163D02*
X000740Y019163D01*
X000762Y019322D02*
X000632Y019322D01*
X000632Y019480D02*
X000858Y019480D01*
X000955Y019797D02*
X000633Y019797D01*
X000633Y019639D02*
X008732Y019639D01*
X008732Y019797D02*
X008405Y019797D01*
X008529Y020907D02*
X008732Y020907D01*
X008732Y021065D02*
X008609Y021065D01*
X008620Y021224D02*
X008732Y021224D01*
X008732Y021382D02*
X008573Y021382D01*
X008442Y021541D02*
X008732Y021541D01*
X008732Y021699D02*
X000634Y021699D01*
X000634Y021541D02*
X000918Y021541D01*
X000787Y021382D02*
X000634Y021382D01*
X000634Y021224D02*
X000740Y021224D01*
X000751Y021065D02*
X000634Y021065D01*
X000633Y020907D02*
X000831Y020907D01*
X000809Y020431D02*
X000633Y020431D01*
X000633Y020273D02*
X000742Y020273D01*
X000740Y020114D02*
X000633Y020114D01*
X000633Y019956D02*
X000797Y019956D01*
X000633Y020590D02*
X001019Y020590D01*
X001073Y020748D02*
X000633Y020748D01*
X000634Y021858D02*
X000880Y021858D01*
X000772Y022016D02*
X000634Y022016D01*
X000634Y022175D02*
X000740Y022175D01*
X000767Y022333D02*
X000634Y022333D01*
X001430Y024552D02*
X007930Y024552D01*
X007792Y024394D02*
X001568Y024394D01*
X001620Y024235D02*
X007740Y024235D01*
X007747Y024077D02*
X001613Y024077D01*
X001540Y023918D02*
X007820Y023918D01*
X007869Y024869D02*
X001491Y024869D01*
X001593Y025028D02*
X007767Y025028D01*
X007740Y025186D02*
X001620Y025186D01*
X001588Y025345D02*
X007772Y025345D01*
X007881Y025503D02*
X001479Y025503D01*
X001442Y025820D02*
X007918Y025820D01*
X007787Y025979D02*
X001573Y025979D01*
X001620Y026137D02*
X007740Y026137D01*
X007752Y026296D02*
X001608Y026296D01*
X001528Y026454D02*
X007832Y026454D01*
X008442Y025820D02*
X008732Y025820D01*
X008732Y025662D02*
X000637Y025662D01*
X000638Y027881D02*
X000857Y027881D01*
X000762Y028039D02*
X000638Y028039D01*
X000638Y028198D02*
X000740Y028198D01*
X000777Y028356D02*
X000638Y028356D01*
X000639Y029149D02*
X000740Y029149D01*
X000756Y029307D02*
X000639Y029307D01*
X001551Y020431D02*
X007809Y020431D01*
X007742Y020273D02*
X001618Y020273D01*
X001620Y020114D02*
X007740Y020114D01*
X007797Y019956D02*
X001563Y019956D01*
X001502Y019480D02*
X007858Y019480D01*
X007955Y019797D02*
X001405Y019797D01*
X001268Y018620D02*
X001092Y018620D01*
X000931Y018553D01*
X000807Y018429D01*
X000740Y018268D01*
X000740Y018092D01*
X000807Y017931D01*
X000931Y017807D01*
X001092Y017740D01*
X001268Y017740D01*
X001429Y017807D01*
X001553Y017931D01*
X001620Y018092D01*
X001620Y018268D01*
X001553Y018429D01*
X001429Y018553D01*
X001268Y018620D01*
X001453Y018529D02*
X002182Y018529D01*
X002259Y018371D02*
X001577Y018371D01*
X001620Y018212D02*
X007740Y018212D01*
X007740Y018268D02*
X007740Y018092D01*
X007807Y017931D01*
X007931Y017807D01*
X008092Y017740D01*
X008268Y017740D01*
X008429Y017807D01*
X008553Y017931D01*
X008620Y018092D01*
X008620Y018268D01*
X008553Y018429D01*
X008429Y018553D01*
X008268Y018620D01*
X008092Y018620D01*
X007931Y018553D01*
X007807Y018429D01*
X007740Y018268D01*
X007783Y018371D02*
X002741Y018371D01*
X002818Y018529D02*
X007907Y018529D01*
X007756Y018054D02*
X001604Y018054D01*
X001517Y017895D02*
X007843Y017895D01*
X007991Y017578D02*
X001369Y017578D01*
X001429Y017553D02*
X001268Y017620D01*
X001092Y017620D01*
X000931Y017553D01*
X000807Y017429D01*
X000740Y017268D01*
X000740Y017092D01*
X000807Y016931D01*
X000931Y016807D01*
X001092Y016740D01*
X001268Y016740D01*
X001429Y016807D01*
X001553Y016931D01*
X001620Y017092D01*
X001620Y017268D01*
X001553Y017429D01*
X001429Y017553D01*
X001557Y017420D02*
X007803Y017420D01*
X007807Y017429D02*
X007740Y017268D01*
X007740Y017092D01*
X007807Y016931D01*
X007931Y016807D01*
X008092Y016740D01*
X008268Y016740D01*
X008429Y016807D01*
X008553Y016931D01*
X008620Y017092D01*
X008620Y017268D01*
X008553Y017429D01*
X008429Y017553D01*
X008268Y017620D01*
X008092Y017620D01*
X007931Y017553D01*
X007807Y017429D01*
X007740Y017261D02*
X001620Y017261D01*
X001620Y017103D02*
X003301Y017103D01*
X003325Y017126D02*
X003235Y017037D01*
X003187Y016920D01*
X003187Y016793D01*
X003235Y016676D01*
X003325Y016586D01*
X003377Y016565D01*
X003325Y016543D01*
X003235Y016454D01*
X003187Y016337D01*
X003187Y016210D01*
X003235Y016093D01*
X003325Y016004D01*
X003377Y015982D01*
X003325Y015961D01*
X003235Y015871D01*
X003187Y015754D01*
X003187Y015628D01*
X003235Y015510D01*
X003325Y015421D01*
X003377Y015400D01*
X003325Y015378D01*
X003235Y015289D01*
X003187Y015172D01*
X003187Y015045D01*
X003235Y014928D01*
X003325Y014838D01*
X003377Y014817D01*
X003325Y014795D01*
X003235Y014706D01*
X003187Y014589D01*
X003187Y014462D01*
X003235Y014345D01*
X003325Y014256D01*
X003442Y014207D01*
X003569Y014207D01*
X003686Y014256D01*
X003775Y014345D01*
X003797Y014397D01*
X003818Y014345D01*
X003908Y014256D01*
X004025Y014207D01*
X004151Y014207D01*
X004268Y014256D01*
X004358Y014345D01*
X004379Y014397D01*
X004401Y014345D01*
X004490Y014256D01*
X004607Y014207D01*
X004734Y014207D01*
X004851Y014256D01*
X004941Y014345D01*
X004962Y014397D01*
X004983Y014345D01*
X005073Y014256D01*
X005190Y014207D01*
X005317Y014207D01*
X005434Y014256D01*
X005523Y014345D01*
X005545Y014397D01*
X005566Y014345D01*
X005656Y014256D01*
X005773Y014207D01*
X005899Y014207D01*
X006016Y014256D01*
X006106Y014345D01*
X006154Y014462D01*
X006154Y014589D01*
X006106Y014706D01*
X006016Y014795D01*
X005965Y014817D01*
X006016Y014838D01*
X006106Y014928D01*
X006154Y015045D01*
X006154Y015172D01*
X006106Y015289D01*
X006016Y015378D01*
X005965Y015400D01*
X006016Y015421D01*
X006106Y015510D01*
X006154Y015628D01*
X006154Y015754D01*
X006106Y015871D01*
X006016Y015961D01*
X005965Y015982D01*
X006016Y016004D01*
X006106Y016093D01*
X006154Y016210D01*
X006154Y016337D01*
X006106Y016454D01*
X006016Y016543D01*
X005965Y016565D01*
X006016Y016586D01*
X006106Y016676D01*
X006154Y016793D01*
X006154Y016920D01*
X006106Y017037D01*
X006016Y017126D01*
X005899Y017175D01*
X005773Y017175D01*
X005656Y017126D01*
X005566Y017037D01*
X005545Y016985D01*
X005523Y017037D01*
X005434Y017126D01*
X005317Y017175D01*
X005190Y017175D01*
X005073Y017126D01*
X004983Y017037D01*
X004962Y016985D01*
X004941Y017037D01*
X004851Y017126D01*
X004734Y017175D01*
X004607Y017175D01*
X004490Y017126D01*
X004401Y017037D01*
X004379Y016985D01*
X004358Y017037D01*
X004268Y017126D01*
X004151Y017175D01*
X004025Y017175D01*
X003908Y017126D01*
X003818Y017037D01*
X003797Y016985D01*
X003775Y017037D01*
X003686Y017126D01*
X003569Y017175D01*
X003442Y017175D01*
X003325Y017126D01*
X003197Y016944D02*
X001559Y016944D01*
X001377Y016786D02*
X003190Y016786D01*
X003284Y016627D02*
X000631Y016627D01*
X000631Y016469D02*
X000846Y016469D01*
X000807Y016429D02*
X000740Y016268D01*
X000740Y016092D01*
X000807Y015931D01*
X000931Y015807D01*
X001092Y015740D01*
X001268Y015740D01*
X001429Y015807D01*
X001553Y015931D01*
X001620Y016092D01*
X001620Y016268D01*
X001553Y016429D01*
X001429Y016553D01*
X001268Y016620D01*
X001092Y016620D01*
X000931Y016553D01*
X000807Y016429D01*
X000758Y016310D02*
X000630Y016310D01*
X000630Y016152D02*
X000740Y016152D01*
X000781Y015993D02*
X000630Y015993D01*
X000630Y015835D02*
X000903Y015835D01*
X000931Y015553D02*
X000807Y015429D01*
X000740Y015268D01*
X000740Y015092D01*
X000807Y014931D01*
X000931Y014807D01*
X001092Y014740D01*
X001268Y014740D01*
X001429Y014807D01*
X001553Y014931D01*
X001620Y015092D01*
X001620Y015268D01*
X001553Y015429D01*
X001429Y015553D01*
X001268Y015620D01*
X001092Y015620D01*
X000931Y015553D01*
X000895Y015518D02*
X000630Y015518D01*
X000630Y015676D02*
X003187Y015676D01*
X003220Y015835D02*
X001457Y015835D01*
X001579Y015993D02*
X003350Y015993D01*
X003211Y016152D02*
X001620Y016152D01*
X001602Y016310D02*
X003187Y016310D01*
X003250Y016469D02*
X001514Y016469D01*
X001465Y015518D02*
X003232Y015518D01*
X003306Y015359D02*
X001582Y015359D01*
X001620Y015201D02*
X003199Y015201D01*
X003188Y015042D02*
X001599Y015042D01*
X001506Y014884D02*
X003280Y014884D01*
X003255Y014725D02*
X000629Y014725D01*
X000629Y014567D02*
X000963Y014567D01*
X000931Y014553D02*
X000807Y014429D01*
X000740Y014268D01*
X000740Y014092D01*
X000807Y013931D01*
X000931Y013807D01*
X001092Y013740D01*
X001268Y013740D01*
X001429Y013807D01*
X001553Y013931D01*
X001620Y014092D01*
X001620Y014268D01*
X001553Y014429D01*
X001429Y014553D01*
X001268Y014620D01*
X001092Y014620D01*
X000931Y014553D01*
X000798Y014408D02*
X000629Y014408D01*
X000629Y014250D02*
X000740Y014250D01*
X000741Y014091D02*
X000629Y014091D01*
X000629Y013933D02*
X000806Y013933D01*
X000931Y013553D02*
X000807Y013429D01*
X000740Y013268D01*
X000740Y013092D01*
X000807Y012931D01*
X000931Y012807D01*
X001092Y012740D01*
X001268Y012740D01*
X001429Y012807D01*
X001553Y012931D01*
X001620Y013092D01*
X001620Y013268D01*
X001553Y013429D01*
X001429Y013553D01*
X001268Y013620D01*
X001092Y013620D01*
X000931Y013553D01*
X000835Y013457D02*
X000629Y013457D01*
X000628Y013299D02*
X000753Y013299D01*
X000740Y013140D02*
X000628Y013140D01*
X000628Y012982D02*
X000786Y012982D01*
X000915Y012823D02*
X000628Y012823D01*
X000628Y012665D02*
X008732Y012665D01*
X008732Y012823D02*
X008445Y012823D01*
X008429Y012807D02*
X008553Y012931D01*
X008620Y013092D01*
X008620Y013268D01*
X008553Y013429D01*
X008429Y013553D01*
X008268Y013620D01*
X008092Y013620D01*
X007931Y013553D01*
X007807Y013429D01*
X007740Y013268D01*
X007740Y013092D01*
X007807Y012931D01*
X007931Y012807D01*
X008092Y012740D01*
X008268Y012740D01*
X008429Y012807D01*
X008574Y012982D02*
X008732Y012982D01*
X008732Y013140D02*
X008620Y013140D01*
X008607Y013299D02*
X008732Y013299D01*
X008732Y013457D02*
X008525Y013457D01*
X008429Y013807D02*
X008553Y013931D01*
X008620Y014092D01*
X008620Y014268D01*
X008553Y014429D01*
X008429Y014553D01*
X008268Y014620D01*
X008092Y014620D01*
X007931Y014553D01*
X007807Y014429D01*
X007740Y014268D01*
X007740Y014092D01*
X007807Y013931D01*
X007931Y013807D01*
X008092Y013740D01*
X008268Y013740D01*
X008429Y013807D01*
X008350Y013774D02*
X008732Y013774D01*
X008732Y013616D02*
X008278Y013616D01*
X008082Y013616D02*
X001278Y013616D01*
X001350Y013774D02*
X008010Y013774D01*
X007806Y013933D02*
X001554Y013933D01*
X001619Y014091D02*
X007741Y014091D01*
X007740Y014250D02*
X006002Y014250D01*
X006132Y014408D02*
X007798Y014408D01*
X007931Y014807D02*
X007807Y014931D01*
X007740Y015092D01*
X007740Y015268D01*
X007807Y015429D01*
X007931Y015553D01*
X008092Y015620D01*
X008268Y015620D01*
X008429Y015553D01*
X008553Y015429D01*
X008620Y015268D01*
X008620Y015092D01*
X008553Y014931D01*
X008429Y014807D01*
X008268Y014740D01*
X008092Y014740D01*
X007931Y014807D01*
X007854Y014884D02*
X006062Y014884D01*
X006087Y014725D02*
X008732Y014725D01*
X008732Y014567D02*
X008397Y014567D01*
X008506Y014884D02*
X008732Y014884D01*
X008732Y015042D02*
X008599Y015042D01*
X008620Y015201D02*
X008732Y015201D01*
X008732Y015359D02*
X008582Y015359D01*
X008465Y015518D02*
X008732Y015518D01*
X008732Y015676D02*
X006154Y015676D01*
X006121Y015835D02*
X007903Y015835D01*
X007931Y015807D02*
X008092Y015740D01*
X008268Y015740D01*
X008429Y015807D01*
X008553Y015931D01*
X008620Y016092D01*
X008620Y016268D01*
X008553Y016429D01*
X008429Y016553D01*
X008268Y016620D01*
X008092Y016620D01*
X007931Y016553D01*
X007807Y016429D01*
X007740Y016268D01*
X007740Y016092D01*
X007807Y015931D01*
X007931Y015807D01*
X007781Y015993D02*
X005991Y015993D01*
X006091Y016469D02*
X007846Y016469D01*
X007758Y016310D02*
X006154Y016310D01*
X006130Y016152D02*
X007740Y016152D01*
X007895Y015518D02*
X006109Y015518D01*
X006036Y015359D02*
X007778Y015359D01*
X007740Y015201D02*
X006142Y015201D01*
X006153Y015042D02*
X007761Y015042D01*
X007963Y014567D02*
X006154Y014567D01*
X005670Y014250D02*
X005419Y014250D01*
X005088Y014250D02*
X004836Y014250D01*
X004505Y014250D02*
X004254Y014250D01*
X003922Y014250D02*
X003671Y014250D01*
X003340Y014250D02*
X001620Y014250D01*
X001562Y014408D02*
X003209Y014408D01*
X003187Y014567D02*
X001397Y014567D01*
X001082Y013616D02*
X000629Y013616D01*
X000629Y013774D02*
X001010Y013774D01*
X000854Y014884D02*
X000629Y014884D01*
X000630Y015042D02*
X000761Y015042D01*
X000740Y015201D02*
X000630Y015201D01*
X000630Y015359D02*
X000778Y015359D01*
X000631Y016786D02*
X000983Y016786D01*
X000801Y016944D02*
X000631Y016944D01*
X000631Y017103D02*
X000740Y017103D01*
X000740Y017261D02*
X000631Y017261D01*
X000631Y017420D02*
X000803Y017420D01*
X000631Y017578D02*
X000991Y017578D01*
X000843Y017895D02*
X000631Y017895D01*
X000631Y017737D02*
X008732Y017737D01*
X008732Y017895D02*
X008517Y017895D01*
X008604Y018054D02*
X008732Y018054D01*
X008732Y018212D02*
X008620Y018212D01*
X008577Y018371D02*
X008732Y018371D01*
X008732Y018529D02*
X008453Y018529D01*
X008369Y017578D02*
X008732Y017578D01*
X008732Y017420D02*
X008557Y017420D01*
X008620Y017261D02*
X008732Y017261D01*
X008732Y017103D02*
X008620Y017103D01*
X008559Y016944D02*
X008732Y016944D01*
X008732Y016786D02*
X008377Y016786D01*
X008514Y016469D02*
X008732Y016469D01*
X008732Y016627D02*
X006057Y016627D01*
X006151Y016786D02*
X007983Y016786D01*
X007801Y016944D02*
X006144Y016944D01*
X006040Y017103D02*
X007740Y017103D01*
X008457Y015835D02*
X008732Y015835D01*
X008732Y015993D02*
X008579Y015993D01*
X008620Y016152D02*
X008732Y016152D01*
X008732Y016310D02*
X008602Y016310D01*
X008562Y014408D02*
X008732Y014408D01*
X008732Y014250D02*
X008620Y014250D01*
X008619Y014091D02*
X008732Y014091D01*
X008732Y013933D02*
X008554Y013933D01*
X008268Y012620D02*
X008092Y012620D01*
X007931Y012553D01*
X007807Y012429D01*
X007740Y012268D01*
X007740Y012092D01*
X007807Y011931D01*
X007931Y011807D01*
X008092Y011740D01*
X008268Y011740D01*
X008429Y011807D01*
X008553Y011931D01*
X008620Y012092D01*
X008620Y012268D01*
X008553Y012429D01*
X008429Y012553D01*
X008268Y012620D01*
X008476Y012506D02*
X008732Y012506D01*
X008732Y012348D02*
X008587Y012348D01*
X008620Y012189D02*
X008732Y012189D01*
X008732Y012031D02*
X008594Y012031D01*
X008494Y011872D02*
X008732Y011872D01*
X008732Y011714D02*
X000627Y011714D01*
X000627Y011872D02*
X000866Y011872D01*
X000807Y011931D02*
X000740Y012092D01*
X000740Y012268D01*
X000807Y012429D01*
X000931Y012553D01*
X001092Y012620D01*
X001268Y012620D01*
X001429Y012553D01*
X001553Y012429D01*
X001620Y012268D01*
X001620Y012092D01*
X001553Y011931D01*
X001429Y011807D01*
X001268Y011740D01*
X001092Y011740D01*
X000931Y011807D01*
X000807Y011931D01*
X000766Y012031D02*
X000628Y012031D01*
X000628Y012189D02*
X000740Y012189D01*
X000773Y012348D02*
X000628Y012348D01*
X000628Y012506D02*
X000884Y012506D01*
X001092Y011620D02*
X000931Y011553D01*
X000807Y011429D01*
X000740Y011268D01*
X000740Y011092D01*
X000807Y010931D01*
X000931Y010807D01*
X001092Y010740D01*
X001268Y010740D01*
X001429Y010807D01*
X001553Y010931D01*
X001620Y011092D01*
X001620Y011268D01*
X001553Y011429D01*
X001429Y011553D01*
X001268Y011620D01*
X001092Y011620D01*
X000936Y011555D02*
X000627Y011555D01*
X000627Y011397D02*
X000793Y011397D01*
X000740Y011238D02*
X000627Y011238D01*
X000627Y011080D02*
X000745Y011080D01*
X000817Y010921D02*
X000627Y010921D01*
X000627Y010763D02*
X001038Y010763D01*
X001092Y010620D02*
X000931Y010553D01*
X000807Y010429D01*
X000740Y010268D01*
X000740Y010092D01*
X000807Y009931D01*
X000931Y009807D01*
X001092Y009740D01*
X001268Y009740D01*
X001429Y009807D01*
X001553Y009931D01*
X001620Y010092D01*
X001620Y010268D01*
X001553Y010429D01*
X001429Y010553D01*
X001268Y010620D01*
X001092Y010620D01*
X001054Y010604D02*
X000627Y010604D01*
X000627Y010446D02*
X000823Y010446D01*
X000748Y010287D02*
X000626Y010287D01*
X000626Y010129D02*
X000740Y010129D01*
X000791Y009970D02*
X000626Y009970D01*
X000626Y009812D02*
X000926Y009812D01*
X001092Y009620D02*
X000931Y009553D01*
X000807Y009429D01*
X000740Y009268D01*
X000740Y009092D01*
X000807Y008931D01*
X000931Y008807D01*
X001092Y008740D01*
X001268Y008740D01*
X001429Y008807D01*
X001553Y008931D01*
X001620Y009092D01*
X001620Y009268D01*
X001553Y009429D01*
X001429Y009553D01*
X001268Y009620D01*
X001092Y009620D01*
X000872Y009495D02*
X000626Y009495D01*
X000626Y009653D02*
X008732Y009653D01*
X008732Y009495D02*
X008488Y009495D01*
X008429Y009553D02*
X008268Y009620D01*
X008092Y009620D01*
X007931Y009553D01*
X007807Y009429D01*
X007740Y009268D01*
X007740Y009092D01*
X007807Y008931D01*
X007931Y008807D01*
X008092Y008740D01*
X008268Y008740D01*
X008429Y008807D01*
X008553Y008931D01*
X008620Y009092D01*
X008620Y009268D01*
X008553Y009429D01*
X008429Y009553D01*
X008268Y009740D02*
X008429Y009807D01*
X008553Y009931D01*
X008620Y010092D01*
X008620Y010268D01*
X008553Y010429D01*
X008429Y010553D01*
X008268Y010620D01*
X008092Y010620D01*
X007931Y010553D01*
X007807Y010429D01*
X007740Y010268D01*
X007740Y010092D01*
X007807Y009931D01*
X007931Y009807D01*
X008092Y009740D01*
X008268Y009740D01*
X008434Y009812D02*
X008732Y009812D01*
X008732Y009970D02*
X008569Y009970D01*
X008620Y010129D02*
X008732Y010129D01*
X008732Y010287D02*
X008612Y010287D01*
X008537Y010446D02*
X008732Y010446D01*
X008732Y010604D02*
X008306Y010604D01*
X008268Y010740D02*
X008429Y010807D01*
X008553Y010931D01*
X008620Y011092D01*
X008620Y011268D01*
X008553Y011429D01*
X008429Y011553D01*
X008268Y011620D01*
X008092Y011620D01*
X007931Y011553D01*
X007807Y011429D01*
X007740Y011268D01*
X007740Y011092D01*
X007807Y010931D01*
X007931Y010807D01*
X008092Y010740D01*
X008268Y010740D01*
X008322Y010763D02*
X008732Y010763D01*
X008732Y010921D02*
X008543Y010921D01*
X008615Y011080D02*
X008732Y011080D01*
X008732Y011238D02*
X008620Y011238D01*
X008567Y011397D02*
X008732Y011397D01*
X008732Y011555D02*
X008424Y011555D01*
X008038Y010763D02*
X001322Y010763D01*
X001306Y010604D02*
X008054Y010604D01*
X007926Y009812D02*
X005996Y009812D01*
X006040Y009830D02*
X005923Y009782D01*
X005797Y009782D01*
X005680Y009830D01*
X005590Y009920D01*
X005542Y010037D01*
X005542Y010163D01*
X005590Y010280D01*
X005680Y010370D01*
X005797Y010418D01*
X005923Y010418D01*
X006040Y010370D01*
X006130Y010280D01*
X006178Y010163D01*
X006178Y010037D01*
X006130Y009920D01*
X006040Y009830D01*
X006151Y009970D02*
X007791Y009970D01*
X007740Y010129D02*
X006178Y010129D01*
X006123Y010287D02*
X007748Y010287D01*
X007823Y010446D02*
X001537Y010446D01*
X001612Y010287D02*
X003169Y010287D01*
X003147Y010265D02*
X003098Y010148D01*
X003098Y010021D01*
X003147Y009904D01*
X003236Y009815D01*
X003354Y009766D01*
X003480Y009766D01*
X003597Y009815D01*
X003687Y009904D01*
X003735Y010021D01*
X003735Y010148D01*
X003687Y010265D01*
X003597Y010355D01*
X003480Y010403D01*
X003354Y010403D01*
X003236Y010355D01*
X003147Y010265D01*
X003098Y010129D02*
X001620Y010129D01*
X001569Y009970D02*
X003120Y009970D01*
X003244Y009812D02*
X001434Y009812D01*
X001488Y009495D02*
X007872Y009495D01*
X007768Y009336D02*
X001592Y009336D01*
X001620Y009178D02*
X007740Y009178D01*
X007770Y009019D02*
X001590Y009019D01*
X001483Y008861D02*
X007877Y008861D01*
X007931Y008553D02*
X007807Y008429D01*
X007740Y008268D01*
X007740Y008092D01*
X007807Y007931D01*
X007931Y007807D01*
X008092Y007740D01*
X008268Y007740D01*
X008429Y007807D01*
X008553Y007931D01*
X008620Y008092D01*
X008620Y008268D01*
X008553Y008429D01*
X008429Y008553D01*
X008268Y008620D01*
X008092Y008620D01*
X007931Y008553D01*
X007921Y008544D02*
X001439Y008544D01*
X001429Y008553D02*
X001268Y008620D01*
X001092Y008620D01*
X000931Y008553D01*
X000807Y008429D01*
X000740Y008268D01*
X000740Y008092D01*
X000807Y007931D01*
X000931Y007807D01*
X001092Y007740D01*
X001268Y007740D01*
X001429Y007807D01*
X001553Y007931D01*
X001620Y008092D01*
X001620Y008268D01*
X001553Y008429D01*
X001429Y008553D01*
X001571Y008385D02*
X007789Y008385D01*
X007740Y008227D02*
X001620Y008227D01*
X001610Y008068D02*
X007750Y008068D01*
X007828Y007910D02*
X002793Y007910D01*
X002840Y007890D02*
X002723Y007938D01*
X002597Y007938D01*
X002480Y007890D01*
X002390Y007800D01*
X002342Y007683D01*
X002342Y007557D01*
X002390Y007440D01*
X002480Y007350D01*
X002597Y007302D01*
X002723Y007302D01*
X002840Y007350D01*
X002930Y007440D01*
X002978Y007557D01*
X002978Y007683D01*
X002930Y007800D01*
X002840Y007890D01*
X002950Y007751D02*
X008066Y007751D01*
X008092Y007620D02*
X007931Y007553D01*
X007807Y007429D01*
X007740Y007268D01*
X007740Y007092D01*
X007807Y006931D01*
X007931Y006807D01*
X008092Y006740D01*
X008268Y006740D01*
X008429Y006807D01*
X008553Y006931D01*
X008620Y007092D01*
X008620Y007268D01*
X008553Y007429D01*
X008429Y007553D01*
X008268Y007620D01*
X008092Y007620D01*
X008026Y007593D02*
X002978Y007593D01*
X002924Y007434D02*
X007812Y007434D01*
X007743Y007276D02*
X001617Y007276D01*
X001620Y007268D02*
X001553Y007429D01*
X001429Y007553D01*
X001268Y007620D01*
X001092Y007620D01*
X000931Y007553D01*
X000807Y007429D01*
X000740Y007268D01*
X000740Y007092D01*
X000807Y006931D01*
X000931Y006807D01*
X001092Y006740D01*
X001268Y006740D01*
X001429Y006807D01*
X001553Y006931D01*
X001620Y007092D01*
X001620Y007268D01*
X001620Y007117D02*
X007740Y007117D01*
X007795Y006959D02*
X001565Y006959D01*
X001548Y007434D02*
X002396Y007434D01*
X002342Y007593D02*
X001334Y007593D01*
X001294Y007751D02*
X002370Y007751D01*
X002527Y007910D02*
X001532Y007910D01*
X001066Y007751D02*
X000625Y007751D01*
X000625Y007593D02*
X001026Y007593D01*
X000812Y007434D02*
X000625Y007434D01*
X000624Y007276D02*
X000743Y007276D01*
X000740Y007117D02*
X000624Y007117D01*
X000624Y006959D02*
X000795Y006959D01*
X000948Y006800D02*
X000624Y006800D01*
X000624Y006642D02*
X008732Y006642D01*
X008732Y006800D02*
X008412Y006800D01*
X008268Y006620D02*
X008429Y006553D01*
X008553Y006429D01*
X008620Y006268D01*
X008620Y006092D01*
X008553Y005931D01*
X008429Y005807D01*
X008268Y005740D01*
X008092Y005740D01*
X007931Y005807D01*
X007807Y005931D01*
X007740Y006092D01*
X007740Y006268D01*
X007807Y006429D01*
X007931Y006553D01*
X008092Y006620D01*
X008268Y006620D01*
X008499Y006483D02*
X008732Y006483D01*
X008732Y006325D02*
X008596Y006325D01*
X008620Y006166D02*
X008732Y006166D01*
X008732Y006008D02*
X008585Y006008D01*
X008471Y005849D02*
X008732Y005849D01*
X008732Y005691D02*
X002258Y005691D01*
X002258Y005637D02*
X002210Y005520D01*
X002120Y005430D01*
X002003Y005382D01*
X001877Y005382D01*
X001760Y005430D01*
X001670Y005520D01*
X001622Y005637D01*
X001622Y005763D01*
X001670Y005880D01*
X001760Y005970D01*
X001877Y006018D01*
X002003Y006018D01*
X002120Y005970D01*
X002210Y005880D01*
X002258Y005763D01*
X002258Y005637D01*
X002215Y005532D02*
X007910Y005532D01*
X007931Y005553D02*
X007807Y005429D01*
X007740Y005268D01*
X007740Y005092D01*
X007807Y004931D01*
X007931Y004807D01*
X008092Y004740D01*
X008268Y004740D01*
X008429Y004807D01*
X008553Y004931D01*
X008620Y005092D01*
X008620Y005268D01*
X008553Y005429D01*
X008429Y005553D01*
X008268Y005620D01*
X008092Y005620D01*
X007931Y005553D01*
X007784Y005374D02*
X001576Y005374D01*
X001553Y005429D02*
X001429Y005553D01*
X001268Y005620D01*
X001092Y005620D01*
X000931Y005553D01*
X000807Y005429D01*
X000740Y005268D01*
X000740Y005092D01*
X000807Y004931D01*
X000931Y004807D01*
X001092Y004740D01*
X001268Y004740D01*
X001429Y004807D01*
X001553Y004931D01*
X001620Y005092D01*
X001620Y005268D01*
X001553Y005429D01*
X001450Y005532D02*
X001665Y005532D01*
X001622Y005691D02*
X000623Y005691D01*
X000624Y005849D02*
X000889Y005849D01*
X000931Y005807D02*
X001092Y005740D01*
X001268Y005740D01*
X001429Y005807D01*
X001553Y005931D01*
X001620Y006092D01*
X001620Y006268D01*
X001553Y006429D01*
X001429Y006553D01*
X001268Y006620D01*
X001092Y006620D01*
X000931Y006553D01*
X000807Y006429D01*
X000740Y006268D01*
X000740Y006092D01*
X000807Y005931D01*
X000931Y005807D01*
X000775Y006008D02*
X000624Y006008D01*
X000624Y006166D02*
X000740Y006166D01*
X000764Y006325D02*
X000624Y006325D01*
X000624Y006483D02*
X000861Y006483D01*
X000910Y005532D02*
X000623Y005532D01*
X000623Y005374D02*
X000784Y005374D01*
X000740Y005215D02*
X000623Y005215D01*
X000623Y005057D02*
X000755Y005057D01*
X000840Y004898D02*
X000623Y004898D01*
X000623Y004740D02*
X001948Y004740D01*
X001942Y004723D02*
X001942Y004597D01*
X001990Y004480D01*
X002080Y004390D01*
X002197Y004342D01*
X002323Y004342D01*
X002440Y004390D01*
X002530Y004480D01*
X002578Y004597D01*
X002578Y004723D01*
X002530Y004840D01*
X002440Y004930D01*
X002323Y004978D01*
X002197Y004978D01*
X002080Y004930D01*
X001990Y004840D01*
X001942Y004723D01*
X001948Y004581D02*
X001362Y004581D01*
X001429Y004553D02*
X001268Y004620D01*
X001092Y004620D01*
X000931Y004553D01*
X000807Y004429D01*
X000740Y004268D01*
X000740Y004092D01*
X000807Y003931D01*
X000931Y003807D01*
X001092Y003740D01*
X001268Y003740D01*
X001429Y003807D01*
X001553Y003931D01*
X001620Y004092D01*
X001620Y004268D01*
X001553Y004429D01*
X001429Y004553D01*
X001520Y004898D02*
X002048Y004898D01*
X002047Y004423D02*
X001556Y004423D01*
X001620Y004264D02*
X007740Y004264D01*
X007740Y004268D02*
X007740Y004092D01*
X007807Y003931D01*
X007931Y003807D01*
X008092Y003740D01*
X008268Y003740D01*
X008429Y003807D01*
X008553Y003931D01*
X008620Y004092D01*
X008620Y004268D01*
X008553Y004429D01*
X008429Y004553D01*
X008268Y004620D01*
X008092Y004620D01*
X007931Y004553D01*
X007807Y004429D01*
X007740Y004268D01*
X007740Y004106D02*
X001620Y004106D01*
X001560Y003947D02*
X007800Y003947D01*
X007931Y003553D02*
X007807Y003429D01*
X007740Y003268D01*
X007740Y003092D01*
X007807Y002931D01*
X007931Y002807D01*
X008092Y002740D01*
X008268Y002740D01*
X008429Y002807D01*
X008553Y002931D01*
X008620Y003092D01*
X008620Y003268D01*
X008553Y003429D01*
X008429Y003553D01*
X008268Y003620D01*
X008092Y003620D01*
X007931Y003553D01*
X007849Y003472D02*
X003819Y003472D01*
X003800Y003490D02*
X003683Y003538D01*
X003557Y003538D01*
X003440Y003490D01*
X003350Y003400D01*
X003302Y003283D01*
X003302Y003157D01*
X003350Y003040D01*
X003440Y002950D01*
X003557Y002902D01*
X003683Y002902D01*
X003800Y002950D01*
X003890Y003040D01*
X003938Y003157D01*
X003938Y003283D01*
X003890Y003400D01*
X003800Y003490D01*
X003926Y003313D02*
X007759Y003313D01*
X007740Y003155D02*
X003938Y003155D01*
X003846Y002996D02*
X007780Y002996D01*
X007900Y002838D02*
X001460Y002838D01*
X001429Y002807D02*
X001553Y002931D01*
X001620Y003092D01*
X001620Y003268D01*
X001553Y003429D01*
X001429Y003553D01*
X001268Y003620D01*
X001092Y003620D01*
X000931Y003553D01*
X000807Y003429D01*
X000740Y003268D01*
X000740Y003092D01*
X000807Y002931D01*
X000931Y002807D01*
X001092Y002740D01*
X001268Y002740D01*
X001429Y002807D01*
X001268Y002620D02*
X001429Y002553D01*
X001553Y002429D01*
X001620Y002268D01*
X001620Y002092D01*
X001553Y001931D01*
X001429Y001807D01*
X001268Y001740D01*
X001092Y001740D01*
X000931Y001807D01*
X000807Y001931D01*
X000740Y002092D01*
X000740Y002268D01*
X000807Y002429D01*
X000931Y002553D01*
X001092Y002620D01*
X001268Y002620D01*
X001462Y002521D02*
X007898Y002521D01*
X007931Y002553D02*
X007807Y002429D01*
X007740Y002268D01*
X007740Y002092D01*
X007807Y001931D01*
X007931Y001807D01*
X008092Y001740D01*
X008268Y001740D01*
X008429Y001807D01*
X008553Y001931D01*
X008620Y002092D01*
X008620Y002268D01*
X008553Y002429D01*
X008429Y002553D01*
X008268Y002620D01*
X008092Y002620D01*
X007931Y002553D01*
X007779Y002362D02*
X001581Y002362D01*
X001620Y002204D02*
X007740Y002204D01*
X007760Y002045D02*
X001600Y002045D01*
X001509Y001887D02*
X007851Y001887D01*
X007971Y001570D02*
X001389Y001570D01*
X001429Y001553D02*
X001268Y001620D01*
X001092Y001620D01*
X000931Y001553D01*
X000807Y001429D01*
X000740Y001268D01*
X000740Y001092D01*
X000807Y000931D01*
X000931Y000807D01*
X001092Y000740D01*
X001268Y000740D01*
X001429Y000807D01*
X001553Y000931D01*
X001620Y001092D01*
X001620Y001268D01*
X001553Y001429D01*
X001429Y001553D01*
X001561Y001411D02*
X007799Y001411D01*
X007807Y001429D02*
X007740Y001268D01*
X007740Y001092D01*
X007807Y000931D01*
X007931Y000807D01*
X008092Y000740D01*
X008268Y000740D01*
X008429Y000807D01*
X008553Y000931D01*
X008620Y001092D01*
X008620Y001268D01*
X008553Y001429D01*
X008429Y001553D01*
X008268Y001620D01*
X008092Y001620D01*
X007931Y001553D01*
X007807Y001429D01*
X007740Y001253D02*
X001620Y001253D01*
X001620Y001094D02*
X007740Y001094D01*
X007805Y000936D02*
X001555Y000936D01*
X001357Y000777D02*
X008003Y000777D01*
X008357Y000777D02*
X008732Y000777D01*
X008732Y000936D02*
X008555Y000936D01*
X008620Y001094D02*
X008732Y001094D01*
X008732Y001253D02*
X008620Y001253D01*
X008561Y001411D02*
X008732Y001411D01*
X008732Y001570D02*
X008389Y001570D01*
X008509Y001887D02*
X008732Y001887D01*
X008732Y002045D02*
X008600Y002045D01*
X008620Y002204D02*
X008732Y002204D01*
X008732Y002362D02*
X008581Y002362D01*
X008462Y002521D02*
X008732Y002521D01*
X008732Y002679D02*
X000621Y002679D01*
X000621Y002521D02*
X000898Y002521D01*
X000779Y002362D02*
X000621Y002362D01*
X000621Y002204D02*
X000740Y002204D01*
X000760Y002045D02*
X000621Y002045D01*
X000621Y001887D02*
X000851Y001887D01*
X000621Y001728D02*
X008732Y001728D01*
X008732Y002838D02*
X008460Y002838D01*
X008580Y002996D02*
X008732Y002996D01*
X008732Y003155D02*
X008620Y003155D01*
X008601Y003313D02*
X008732Y003313D01*
X008732Y003472D02*
X008511Y003472D01*
X008385Y003789D02*
X008732Y003789D01*
X008732Y003947D02*
X008560Y003947D01*
X008620Y004106D02*
X008732Y004106D01*
X008732Y004264D02*
X008620Y004264D01*
X008556Y004423D02*
X008732Y004423D01*
X008732Y004581D02*
X008362Y004581D01*
X008520Y004898D02*
X008732Y004898D01*
X008732Y004740D02*
X002572Y004740D01*
X002572Y004581D02*
X007998Y004581D01*
X007804Y004423D02*
X002473Y004423D01*
X002472Y004898D02*
X007840Y004898D01*
X007755Y005057D02*
X001605Y005057D01*
X001620Y005215D02*
X007740Y005215D01*
X007889Y005849D02*
X002223Y005849D01*
X002030Y006008D02*
X007775Y006008D01*
X007740Y006166D02*
X001620Y006166D01*
X001596Y006325D02*
X007764Y006325D01*
X007861Y006483D02*
X001499Y006483D01*
X001412Y006800D02*
X007948Y006800D01*
X008294Y007751D02*
X008732Y007751D01*
X008732Y007593D02*
X008334Y007593D01*
X008548Y007434D02*
X008732Y007434D01*
X008732Y007276D02*
X008617Y007276D01*
X008620Y007117D02*
X008732Y007117D01*
X008732Y006959D02*
X008565Y006959D01*
X008532Y007910D02*
X008732Y007910D01*
X008732Y008068D02*
X008610Y008068D01*
X008620Y008227D02*
X008732Y008227D01*
X008732Y008385D02*
X008571Y008385D01*
X008439Y008544D02*
X008732Y008544D01*
X008732Y008702D02*
X000625Y008702D01*
X000625Y008544D02*
X000921Y008544D01*
X000789Y008385D02*
X000625Y008385D01*
X000625Y008227D02*
X000740Y008227D01*
X000750Y008068D02*
X000625Y008068D01*
X000625Y007910D02*
X000828Y007910D01*
X000877Y008861D02*
X000626Y008861D01*
X000626Y009019D02*
X000770Y009019D01*
X000740Y009178D02*
X000626Y009178D01*
X000626Y009336D02*
X000768Y009336D01*
X001424Y011555D02*
X007936Y011555D01*
X007793Y011397D02*
X001567Y011397D01*
X001620Y011238D02*
X007740Y011238D01*
X007745Y011080D02*
X001615Y011080D01*
X001543Y010921D02*
X007817Y010921D01*
X007866Y011872D02*
X003202Y011872D01*
X003214Y011884D02*
X003263Y012001D01*
X003263Y012128D01*
X003214Y012245D01*
X003125Y012334D01*
X003008Y012383D01*
X002881Y012383D01*
X002764Y012334D01*
X002674Y012245D01*
X002626Y012128D01*
X002626Y012001D01*
X002674Y011884D01*
X002764Y011794D01*
X002881Y011746D01*
X003008Y011746D01*
X003125Y011794D01*
X003214Y011884D01*
X003263Y012031D02*
X007766Y012031D01*
X007740Y012189D02*
X003237Y012189D01*
X003093Y012348D02*
X007773Y012348D01*
X007884Y012506D02*
X001476Y012506D01*
X001587Y012348D02*
X002796Y012348D01*
X002651Y012189D02*
X001620Y012189D01*
X001594Y012031D02*
X002626Y012031D01*
X002686Y011872D02*
X001494Y011872D01*
X001445Y012823D02*
X007915Y012823D01*
X007786Y012982D02*
X001574Y012982D01*
X001620Y013140D02*
X007740Y013140D01*
X007753Y013299D02*
X001607Y013299D01*
X001525Y013457D02*
X007835Y013457D01*
X008592Y009336D02*
X008732Y009336D01*
X008732Y009178D02*
X008620Y009178D01*
X008590Y009019D02*
X008732Y009019D01*
X008732Y008861D02*
X008483Y008861D01*
X008450Y005532D02*
X008732Y005532D01*
X008732Y005374D02*
X008576Y005374D01*
X008620Y005215D02*
X008732Y005215D01*
X008732Y005057D02*
X008605Y005057D01*
X008732Y003630D02*
X000622Y003630D01*
X000622Y003472D02*
X000849Y003472D01*
X000759Y003313D02*
X000622Y003313D01*
X000622Y003155D02*
X000740Y003155D01*
X000780Y002996D02*
X000622Y002996D01*
X000622Y002838D02*
X000900Y002838D01*
X000975Y003789D02*
X000622Y003789D01*
X000622Y003947D02*
X000800Y003947D01*
X000740Y004106D02*
X000622Y004106D01*
X000622Y004264D02*
X000740Y004264D01*
X000804Y004423D02*
X000623Y004423D01*
X000623Y004581D02*
X000998Y004581D01*
X001385Y003789D02*
X007975Y003789D01*
X005724Y009812D02*
X003590Y009812D01*
X003714Y009970D02*
X005569Y009970D01*
X005542Y010129D02*
X003735Y010129D01*
X003665Y010287D02*
X005597Y010287D01*
X005632Y017103D02*
X005457Y017103D01*
X005049Y017103D02*
X004875Y017103D01*
X004467Y017103D02*
X004292Y017103D01*
X003884Y017103D02*
X003709Y017103D01*
X002800Y018688D02*
X005894Y018688D01*
X005731Y018846D02*
X002684Y018846D01*
X000907Y018529D02*
X000632Y018529D01*
X000632Y018371D02*
X000783Y018371D01*
X000740Y018212D02*
X000632Y018212D01*
X000632Y018054D02*
X000756Y018054D01*
X001585Y006008D02*
X001850Y006008D01*
X001657Y005849D02*
X001471Y005849D01*
X001511Y003472D02*
X003421Y003472D01*
X003314Y003313D02*
X001601Y003313D01*
X001620Y003155D02*
X003302Y003155D01*
X003394Y002996D02*
X001580Y002996D01*
X000971Y001570D02*
X000621Y001570D01*
X000621Y001411D02*
X000799Y001411D01*
X000740Y001253D02*
X000621Y001253D01*
X000620Y001094D02*
X000740Y001094D01*
X000805Y000936D02*
X000620Y000936D01*
X000620Y000777D02*
X001003Y000777D01*
X008480Y021858D02*
X008732Y021858D01*
X008732Y022016D02*
X008588Y022016D01*
X008620Y022175D02*
X008732Y022175D01*
X008732Y022333D02*
X008593Y022333D01*
X008593Y025028D02*
X008732Y025028D01*
X008732Y025186D02*
X008620Y025186D01*
X008588Y025345D02*
X008732Y025345D01*
X008732Y025503D02*
X008479Y025503D01*
X008573Y025979D02*
X008732Y025979D01*
X008732Y026137D02*
X008620Y026137D01*
X008608Y026296D02*
X008732Y026296D01*
X008732Y026454D02*
X008528Y026454D01*
X008503Y027881D02*
X008732Y027881D01*
X008732Y028039D02*
X008598Y028039D01*
X008620Y028198D02*
X008732Y028198D01*
X008732Y028356D02*
X008583Y028356D01*
X008450Y029783D02*
X008732Y029783D01*
X008732Y029941D02*
X008597Y029941D01*
X008653Y030100D02*
X008732Y030100D01*
X008732Y030258D02*
X008654Y030258D01*
X008598Y030417D02*
X008732Y030417D01*
X008732Y030575D02*
X008453Y030575D01*
X008200Y030100D02*
X008160Y030100D01*
X008160Y029941D02*
X008200Y029941D01*
X008200Y029783D02*
X008160Y029783D01*
M02*
