G75*
G70*
%OFA0B0*%
%FSLAX24Y24*%
%IPPOS*%
%LPD*%
%AMOC8*
5,1,8,0,0,1.08239X$1,22.5*
%
%ADD10C,0.0000*%
%ADD11C,0.0090*%
%ADD12C,0.0060*%
%ADD13C,0.0070*%
%ADD14C,0.0040*%
%ADD15C,0.0160*%
%ADD16C,0.0050*%
%ADD17C,0.0080*%
%ADD18R,0.0157X0.0354*%
%ADD19R,0.0118X0.0059*%
%ADD20R,0.0118X0.0118*%
%ADD21R,0.0340X0.0160*%
%ADD22C,0.0030*%
%ADD23R,0.0160X0.0340*%
%ADD24R,0.0200X0.0200*%
%ADD25C,0.0278*%
%ADD26C,0.0143*%
D10*
X000340Y000460D02*
X000360Y030930D01*
X009012Y030930D01*
X009012Y000460D01*
X000340Y000460D01*
D11*
X001825Y000977D02*
X001937Y000865D01*
X002160Y000865D01*
X002272Y000977D01*
X002272Y001200D01*
X002049Y001200D01*
X002272Y001424D02*
X002160Y001536D01*
X001937Y001536D01*
X001825Y001424D01*
X001825Y000977D01*
X002525Y000865D02*
X002525Y001536D01*
X002972Y000865D01*
X002972Y001536D01*
X003225Y001536D02*
X003225Y000865D01*
X003560Y000865D01*
X003672Y000977D01*
X003672Y001424D01*
X003560Y001536D01*
X003225Y001536D01*
X003905Y002305D02*
X004129Y002305D01*
X004017Y002305D02*
X004017Y002976D01*
X003905Y002976D02*
X004129Y002976D01*
X004372Y002864D02*
X004372Y002752D01*
X004483Y002640D01*
X004707Y002640D01*
X004819Y002529D01*
X004819Y002417D01*
X004707Y002305D01*
X004483Y002305D01*
X004372Y002417D01*
X004372Y002864D02*
X004483Y002976D01*
X004707Y002976D01*
X004819Y002864D01*
X005071Y002976D02*
X005071Y002305D01*
X005071Y002529D02*
X005407Y002529D01*
X005518Y002640D01*
X005518Y002864D01*
X005407Y002976D01*
X005071Y002976D01*
X005817Y001536D02*
X005705Y001424D01*
X005705Y000977D01*
X005817Y000865D01*
X006040Y000865D01*
X006152Y000977D01*
X006152Y001200D01*
X005929Y001200D01*
X006152Y001424D02*
X006040Y001536D01*
X005817Y001536D01*
X006385Y001865D02*
X006720Y001865D01*
X006832Y001977D01*
X006832Y002424D01*
X006720Y002536D01*
X006385Y002536D01*
X006385Y001865D01*
X006405Y001536D02*
X006852Y000865D01*
X006852Y001536D01*
X007105Y001536D02*
X007105Y000865D01*
X007440Y000865D01*
X007552Y000977D01*
X007552Y001424D01*
X007440Y001536D01*
X007105Y001536D01*
X007197Y001865D02*
X007085Y001977D01*
X007532Y002424D01*
X007532Y001977D01*
X007420Y001865D01*
X007197Y001865D01*
X007085Y001977D02*
X007085Y002424D01*
X007197Y002536D01*
X007420Y002536D01*
X007532Y002424D01*
X007532Y002865D02*
X007085Y002865D01*
X007085Y003312D02*
X007308Y003536D01*
X007308Y002865D01*
X007085Y003865D02*
X007532Y004312D01*
X007532Y004424D01*
X007420Y004536D01*
X007197Y004536D01*
X007085Y004424D01*
X007197Y004865D02*
X007085Y004977D01*
X007197Y004865D02*
X007420Y004865D01*
X007532Y004977D01*
X007532Y005089D01*
X007420Y005200D01*
X007308Y005200D01*
X007420Y005200D02*
X007532Y005312D01*
X007532Y005424D01*
X007420Y005536D01*
X007197Y005536D01*
X007085Y005424D01*
X007085Y006200D02*
X007532Y006200D01*
X007420Y005865D02*
X007420Y006536D01*
X007085Y006200D01*
X007197Y006865D02*
X007085Y006977D01*
X007197Y006865D02*
X007420Y006865D01*
X007532Y006977D01*
X007532Y007200D01*
X007420Y007312D01*
X007308Y007312D01*
X007085Y007200D01*
X007085Y007536D01*
X007532Y007536D01*
X007420Y007865D02*
X007532Y007977D01*
X007532Y008089D01*
X007420Y008200D01*
X007085Y008200D01*
X007085Y007977D01*
X007197Y007865D01*
X007420Y007865D01*
X007085Y008200D02*
X007308Y008424D01*
X007532Y008536D01*
X007085Y008977D02*
X007532Y009424D01*
X007532Y009536D01*
X007085Y009536D01*
X007197Y009865D02*
X007085Y009977D01*
X007532Y010424D01*
X007532Y009977D01*
X007420Y009865D01*
X007197Y009865D01*
X007085Y009977D02*
X007085Y010424D01*
X007197Y010536D01*
X007420Y010536D01*
X007532Y010424D01*
X007532Y010865D02*
X007085Y010865D01*
X007308Y010865D02*
X007308Y011536D01*
X007085Y011312D01*
X007197Y011865D02*
X007085Y011977D01*
X007532Y012424D01*
X007532Y011977D01*
X007420Y011865D01*
X007197Y011865D01*
X007085Y011977D02*
X007085Y012424D01*
X007197Y012536D01*
X007420Y012536D01*
X007532Y012424D01*
X007532Y012865D02*
X007085Y012865D01*
X007085Y013312D02*
X007308Y013536D01*
X007308Y012865D01*
X006832Y012977D02*
X006720Y012865D01*
X006497Y012865D01*
X006385Y012977D01*
X006385Y013424D01*
X006497Y013536D01*
X006720Y013536D01*
X006832Y013424D01*
X006720Y012536D02*
X006497Y012536D01*
X006385Y012424D01*
X006385Y011977D01*
X006497Y011865D01*
X006720Y011865D01*
X006832Y011977D01*
X006832Y012424D02*
X006720Y012536D01*
X006832Y011536D02*
X006385Y011536D01*
X006385Y010865D01*
X006832Y010865D01*
X006832Y010536D02*
X006385Y010536D01*
X006385Y009865D01*
X006832Y009865D01*
X006720Y009536D02*
X006385Y009536D01*
X006385Y008865D01*
X006720Y008865D01*
X006832Y008977D01*
X006832Y009424D01*
X006720Y009536D01*
X006609Y010200D02*
X006385Y010200D01*
X006385Y011200D02*
X006609Y011200D01*
X007085Y008977D02*
X007085Y008865D01*
X006720Y008536D02*
X006832Y008424D01*
X006832Y007977D01*
X006720Y007865D01*
X006385Y007865D01*
X006385Y008536D01*
X006720Y008536D01*
X006720Y007536D02*
X006385Y007536D01*
X006385Y006865D01*
X006720Y006865D01*
X006832Y006977D01*
X006832Y007424D01*
X006720Y007536D01*
X006720Y006536D02*
X006385Y006536D01*
X006385Y005865D01*
X006720Y005865D01*
X006832Y005977D01*
X006832Y006424D01*
X006720Y006536D01*
X006720Y005536D02*
X006385Y005536D01*
X006385Y004865D01*
X006720Y004865D01*
X006832Y004977D01*
X006832Y005424D01*
X006720Y005536D01*
X006720Y004536D02*
X006385Y004536D01*
X006385Y003865D01*
X006720Y003865D01*
X006832Y003977D01*
X006832Y004424D01*
X006720Y004536D01*
X006720Y003536D02*
X006385Y003536D01*
X006385Y002865D01*
X006720Y002865D01*
X006832Y002977D01*
X006832Y003424D01*
X006720Y003536D01*
X007085Y003865D02*
X007532Y003865D01*
X006405Y001536D02*
X006405Y000865D01*
X005368Y007745D02*
X005368Y008416D01*
X005145Y008416D02*
X005592Y008416D01*
X004892Y008304D02*
X004780Y008416D01*
X004557Y008416D01*
X004445Y008304D01*
X004445Y008192D01*
X004557Y008080D01*
X004780Y008080D01*
X004892Y007969D01*
X004892Y007857D01*
X004780Y007745D01*
X004557Y007745D01*
X004445Y007857D01*
X004192Y007745D02*
X003969Y007969D01*
X004080Y007969D02*
X003745Y007969D01*
X003745Y007745D02*
X003745Y008416D01*
X004080Y008416D01*
X004192Y008304D01*
X004192Y008080D01*
X004080Y007969D01*
X003672Y007536D02*
X003225Y007536D01*
X003448Y007536D02*
X003448Y006865D01*
X002972Y006977D02*
X002860Y006865D01*
X002637Y006865D01*
X002525Y006977D01*
X002637Y007200D02*
X002525Y007312D01*
X002525Y007424D01*
X002637Y007536D01*
X002860Y007536D01*
X002972Y007424D01*
X002860Y007200D02*
X002972Y007089D01*
X002972Y006977D01*
X002860Y007200D02*
X002637Y007200D01*
X002637Y007865D02*
X002525Y007977D01*
X002637Y007865D02*
X002860Y007865D01*
X002972Y007977D01*
X002972Y008200D01*
X002860Y008312D01*
X002748Y008312D01*
X002525Y008200D01*
X002525Y008536D01*
X002972Y008536D01*
X002525Y009865D02*
X002525Y009977D01*
X002972Y010424D01*
X002972Y010536D01*
X002525Y010536D01*
X002637Y010865D02*
X002860Y010865D01*
X002972Y010977D01*
X002972Y011089D01*
X002860Y011200D01*
X002525Y011200D01*
X002525Y010977D01*
X002637Y010865D01*
X002525Y011200D02*
X002748Y011424D01*
X002972Y011536D01*
X002860Y011865D02*
X002637Y011865D01*
X002525Y011977D01*
X002525Y012200D02*
X002748Y012312D01*
X002860Y012312D01*
X002972Y012200D01*
X002972Y011977D01*
X002860Y011865D01*
X002525Y012200D02*
X002525Y012536D01*
X002972Y012536D01*
X002860Y012865D02*
X002860Y013536D01*
X002525Y013200D01*
X002972Y013200D01*
X002272Y013089D02*
X002272Y012977D01*
X002160Y012865D01*
X001825Y012865D01*
X001825Y013536D01*
X002160Y013536D01*
X002272Y013424D01*
X002272Y013312D01*
X002160Y013200D01*
X001825Y013200D01*
X001825Y012536D02*
X002160Y012536D01*
X002272Y012424D01*
X002272Y012312D01*
X002160Y012200D01*
X001825Y012200D01*
X001825Y011865D02*
X001825Y012536D01*
X001825Y011865D02*
X002160Y011865D01*
X002272Y011977D01*
X002272Y012089D01*
X002160Y012200D01*
X002272Y013089D02*
X002160Y013200D01*
X002160Y011536D02*
X001825Y011536D01*
X001825Y010865D01*
X002160Y010865D01*
X002272Y010977D01*
X002272Y011089D01*
X002160Y011200D01*
X001825Y011200D01*
X001825Y010536D02*
X002160Y010536D01*
X002272Y010424D01*
X002272Y010312D01*
X002160Y010200D01*
X001825Y010200D01*
X001825Y009865D02*
X002160Y009865D01*
X002272Y009977D01*
X002272Y010089D01*
X002160Y010200D01*
X002160Y011200D02*
X002272Y011312D01*
X002272Y011424D01*
X002160Y011536D01*
X001825Y010536D02*
X001825Y009865D01*
X001825Y008536D02*
X001825Y007865D01*
X002272Y007865D01*
X002160Y007536D02*
X002272Y007424D01*
X002272Y007200D01*
X002160Y007089D01*
X001825Y007089D01*
X001825Y006865D02*
X001825Y007536D01*
X002160Y007536D01*
X002049Y007089D02*
X002272Y006865D01*
X002049Y008200D02*
X001825Y008200D01*
X001825Y008536D02*
X002272Y008536D01*
X002272Y019865D02*
X001825Y019865D01*
X001825Y020536D01*
X002272Y020536D01*
X002272Y020865D02*
X002272Y021312D01*
X002049Y021536D01*
X001825Y021312D01*
X001825Y020865D01*
X001825Y021200D02*
X002272Y021200D01*
X002525Y021089D02*
X002860Y021089D01*
X002972Y021200D01*
X002972Y021424D01*
X002860Y021536D01*
X002525Y021536D01*
X002525Y020865D01*
X002748Y021089D02*
X002972Y020865D01*
X002972Y020536D02*
X002748Y020424D01*
X002525Y020200D01*
X002860Y020200D01*
X002972Y020089D01*
X002972Y019977D01*
X002860Y019865D01*
X002637Y019865D01*
X002525Y019977D01*
X002525Y020200D01*
X002049Y020200D02*
X001825Y020200D01*
X001825Y021865D02*
X001825Y022536D01*
X002272Y022536D01*
X002049Y022200D02*
X001825Y022200D01*
X001825Y022865D02*
X001825Y023536D01*
X002272Y023536D01*
X002049Y023200D02*
X001825Y023200D01*
X001825Y023865D02*
X001825Y024536D01*
X002272Y024536D01*
X002049Y024200D02*
X001825Y024200D01*
X001825Y024865D02*
X001825Y025536D01*
X002272Y025536D01*
X002049Y025200D02*
X001825Y025200D01*
X001825Y025865D02*
X001825Y026536D01*
X002272Y026536D01*
X002049Y026200D02*
X001825Y026200D01*
X001825Y026865D02*
X001825Y027536D01*
X002272Y027536D01*
X002049Y027200D02*
X001825Y027200D01*
X001825Y027865D02*
X001825Y028536D01*
X002272Y028536D01*
X002049Y028200D02*
X001825Y028200D01*
X001825Y028865D02*
X001825Y029536D01*
X002272Y029536D01*
X002160Y029825D02*
X001937Y029825D01*
X001825Y029937D01*
X001825Y030384D02*
X001937Y030496D01*
X002160Y030496D01*
X002272Y030384D01*
X002272Y030272D01*
X002160Y030160D01*
X002272Y030049D01*
X002272Y029937D01*
X002160Y029825D01*
X002160Y030160D02*
X002049Y030160D01*
X002049Y029200D02*
X001825Y029200D01*
X002525Y028977D02*
X002525Y028865D01*
X002525Y028977D02*
X002972Y029424D01*
X002972Y029536D01*
X002525Y029536D01*
X002525Y029825D02*
X002637Y029825D01*
X002637Y029937D01*
X002525Y029937D01*
X002525Y029825D01*
X002875Y029937D02*
X002986Y029825D01*
X003210Y029825D01*
X003322Y029937D01*
X003322Y030049D01*
X003210Y030160D01*
X003098Y030160D01*
X003210Y030160D02*
X003322Y030272D01*
X003322Y030384D01*
X003210Y030496D01*
X002986Y030496D01*
X002875Y030384D01*
X002972Y028536D02*
X002748Y028424D01*
X002525Y028200D01*
X002860Y028200D01*
X002972Y028089D01*
X002972Y027977D01*
X002860Y027865D01*
X002637Y027865D01*
X002525Y027977D01*
X002525Y028200D01*
X002525Y027536D02*
X002525Y027200D01*
X002748Y027312D01*
X002860Y027312D01*
X002972Y027200D01*
X002972Y026977D01*
X002860Y026865D01*
X002637Y026865D01*
X002525Y026977D01*
X002525Y027536D02*
X002972Y027536D01*
X002860Y026536D02*
X002525Y026200D01*
X002972Y026200D01*
X002860Y025865D02*
X002860Y026536D01*
X002860Y025536D02*
X002637Y025536D01*
X002525Y025424D01*
X002748Y025200D02*
X002860Y025200D01*
X002972Y025089D01*
X002972Y024977D01*
X002860Y024865D01*
X002637Y024865D01*
X002525Y024977D01*
X002637Y024536D02*
X002525Y024424D01*
X002637Y024536D02*
X002860Y024536D01*
X002972Y024424D01*
X002972Y024312D01*
X002525Y023865D01*
X002972Y023865D01*
X002748Y023536D02*
X002748Y022865D01*
X002637Y022536D02*
X002860Y022536D01*
X002972Y022424D01*
X002525Y021977D01*
X002637Y021865D01*
X002860Y021865D01*
X002972Y021977D01*
X002972Y022424D01*
X002972Y022865D02*
X002525Y022865D01*
X002637Y022536D02*
X002525Y022424D01*
X002525Y021977D01*
X002525Y023312D02*
X002748Y023536D01*
X002860Y025200D02*
X002972Y025312D01*
X002972Y025424D01*
X002860Y025536D01*
X003905Y027585D02*
X003905Y028256D01*
X004240Y028256D01*
X004352Y028144D01*
X004352Y027920D01*
X004240Y027809D01*
X003905Y027809D01*
X004605Y027585D02*
X004828Y027809D01*
X005052Y027585D01*
X005052Y028256D01*
X005305Y028256D02*
X005305Y027585D01*
X005305Y027809D02*
X005640Y027809D01*
X005752Y027920D01*
X005752Y028144D01*
X005640Y028256D01*
X005305Y028256D01*
X005528Y027809D02*
X005752Y027585D01*
X006385Y027312D02*
X006385Y026865D01*
X006609Y026536D02*
X006385Y026312D01*
X006385Y025865D01*
X006385Y026200D02*
X006832Y026200D01*
X006832Y026312D02*
X006832Y025865D01*
X006609Y025536D02*
X006832Y025312D01*
X006832Y024865D01*
X006832Y025200D02*
X006385Y025200D01*
X006385Y025312D02*
X006609Y025536D01*
X006385Y025312D02*
X006385Y024865D01*
X006609Y024536D02*
X006385Y024312D01*
X006385Y023865D01*
X006385Y024200D02*
X006832Y024200D01*
X006832Y024312D02*
X006832Y023865D01*
X006832Y024312D02*
X006609Y024536D01*
X006609Y023536D02*
X006832Y023312D01*
X006832Y022865D01*
X006832Y023200D02*
X006385Y023200D01*
X006385Y023312D02*
X006609Y023536D01*
X006385Y023312D02*
X006385Y022865D01*
X006609Y022536D02*
X006385Y022312D01*
X006385Y021865D01*
X006609Y021536D02*
X006385Y021312D01*
X006385Y020865D01*
X006385Y020536D02*
X006385Y019865D01*
X006832Y019865D01*
X006720Y019536D02*
X006497Y019536D01*
X006385Y019424D01*
X006385Y018977D01*
X006497Y018865D01*
X006720Y018865D01*
X006832Y018977D01*
X006720Y018536D02*
X006497Y018536D01*
X006385Y018424D01*
X006385Y017977D01*
X006497Y017865D01*
X006720Y017865D01*
X006832Y017977D01*
X006832Y018424D02*
X006720Y018536D01*
X006832Y019424D02*
X006720Y019536D01*
X006609Y020200D02*
X006385Y020200D01*
X006385Y020536D02*
X006832Y020536D01*
X006832Y020865D02*
X006832Y021312D01*
X006609Y021536D01*
X006832Y021865D02*
X006832Y022312D01*
X006609Y022536D01*
X006385Y022200D02*
X006832Y022200D01*
X007085Y022200D02*
X007085Y021977D01*
X007197Y021865D01*
X007420Y021865D01*
X007532Y021977D01*
X007532Y022089D01*
X007420Y022200D01*
X007085Y022200D01*
X007308Y022424D01*
X007532Y022536D01*
X007420Y022865D02*
X007197Y022865D01*
X007085Y022977D01*
X007085Y023200D02*
X007308Y023312D01*
X007420Y023312D01*
X007532Y023200D01*
X007532Y022977D01*
X007420Y022865D01*
X007532Y023536D02*
X007085Y023536D01*
X007085Y023200D01*
X007420Y023865D02*
X007420Y024536D01*
X007085Y024200D01*
X007532Y024200D01*
X007420Y024865D02*
X007197Y024865D01*
X007085Y024977D01*
X007308Y025200D02*
X007420Y025200D01*
X007532Y025089D01*
X007532Y024977D01*
X007420Y024865D01*
X007420Y025200D02*
X007532Y025312D01*
X007532Y025424D01*
X007420Y025536D01*
X007197Y025536D01*
X007085Y025424D01*
X007085Y025865D02*
X007532Y026312D01*
X007532Y026424D01*
X007420Y026536D01*
X007197Y026536D01*
X007085Y026424D01*
X007085Y026865D02*
X007532Y026865D01*
X007308Y026865D02*
X007308Y027536D01*
X007085Y027312D01*
X007197Y027865D02*
X007085Y027977D01*
X007532Y028424D01*
X007532Y027977D01*
X007420Y027865D01*
X007197Y027865D01*
X007085Y027977D02*
X007085Y028424D01*
X007197Y028536D01*
X007420Y028536D01*
X007532Y028424D01*
X007318Y029825D02*
X007542Y030049D01*
X007542Y030496D01*
X007094Y030049D02*
X007318Y029825D01*
X007094Y030049D02*
X007094Y030496D01*
X006842Y030384D02*
X006842Y030272D01*
X006730Y030160D01*
X006842Y030049D01*
X006842Y029937D01*
X006730Y029825D01*
X006506Y029825D01*
X006395Y029937D01*
X006618Y030160D02*
X006730Y030160D01*
X006842Y030384D02*
X006730Y030496D01*
X006506Y030496D01*
X006395Y030384D01*
X006157Y029937D02*
X006157Y029825D01*
X006045Y029825D01*
X006045Y029937D01*
X006157Y029937D01*
X005792Y029937D02*
X005680Y029825D01*
X005457Y029825D01*
X005345Y029937D01*
X005569Y030160D02*
X005680Y030160D01*
X005792Y030049D01*
X005792Y029937D01*
X005680Y030160D02*
X005792Y030272D01*
X005792Y030384D01*
X005680Y030496D01*
X005457Y030496D01*
X005345Y030384D01*
X004605Y028256D02*
X004605Y027585D01*
X003798Y029825D02*
X004022Y030049D01*
X004022Y030496D01*
X003574Y030049D02*
X003798Y029825D01*
X003574Y030049D02*
X003574Y030496D01*
X006385Y028312D02*
X006385Y027865D01*
X006385Y028200D02*
X006832Y028200D01*
X006832Y028312D02*
X006832Y027865D01*
X006832Y028312D02*
X006609Y028536D01*
X006385Y028312D01*
X006609Y027536D02*
X006385Y027312D01*
X006385Y027200D02*
X006832Y027200D01*
X006832Y027312D02*
X006832Y026865D01*
X006609Y026536D02*
X006832Y026312D01*
X007085Y025865D02*
X007532Y025865D01*
X006832Y027312D02*
X006609Y027536D01*
X007085Y021536D02*
X007532Y021536D01*
X007532Y021424D01*
X007085Y020977D01*
X007085Y020865D01*
X007197Y020536D02*
X007085Y020424D01*
X007197Y020536D02*
X007420Y020536D01*
X007532Y020424D01*
X007532Y020312D01*
X007085Y019865D01*
X007532Y019865D01*
X007532Y019536D02*
X007532Y019424D01*
X007085Y018977D01*
X007085Y018865D01*
X007308Y018424D02*
X007085Y018200D01*
X007420Y018200D01*
X007532Y018089D01*
X007532Y017977D01*
X007420Y017865D01*
X007197Y017865D01*
X007085Y017977D01*
X007085Y018200D01*
X007308Y018424D02*
X007532Y018536D01*
X007532Y019536D02*
X007085Y019536D01*
X006832Y021200D02*
X006385Y021200D01*
X004371Y021536D02*
X003924Y021536D01*
X003924Y020865D01*
X003924Y021200D02*
X004148Y021200D01*
X003672Y020865D02*
X003225Y020865D01*
X003225Y021536D01*
X003672Y021536D01*
X003448Y021200D02*
X003225Y021200D01*
D12*
X003010Y019240D02*
X002630Y019240D01*
X002630Y018960D02*
X003010Y018960D01*
X003030Y018200D02*
X002650Y018200D01*
X002650Y017920D02*
X003030Y017920D01*
X002270Y017810D02*
X002270Y018104D01*
X002197Y018270D02*
X002270Y018344D01*
X002270Y018491D01*
X002197Y018564D01*
X002123Y018564D01*
X002050Y018491D01*
X002050Y018417D01*
X002050Y018491D02*
X001976Y018564D01*
X001903Y018564D01*
X001830Y018491D01*
X001830Y018344D01*
X001903Y018270D01*
X001830Y018104D02*
X001830Y017810D01*
X002270Y017810D01*
X002050Y017810D02*
X002050Y017957D01*
X002050Y018810D02*
X002050Y018957D01*
X002197Y019270D02*
X002270Y019270D01*
X002197Y019270D02*
X001903Y019564D01*
X001830Y019564D01*
X001830Y019270D01*
X001830Y019104D02*
X001830Y018810D01*
X002270Y018810D01*
X002270Y019104D01*
X001680Y018930D02*
X001680Y019430D01*
X001430Y019680D01*
X001680Y019930D01*
X001680Y020430D01*
X001430Y020680D01*
X001680Y020930D01*
X001680Y021430D01*
X001430Y021680D01*
X001680Y021930D01*
X001680Y022430D01*
X001430Y022680D01*
X001680Y022930D01*
X001680Y023430D01*
X001430Y023680D01*
X001680Y023930D01*
X001680Y024430D01*
X001430Y024680D01*
X001680Y024930D01*
X001680Y025430D01*
X001430Y025680D01*
X001680Y025930D01*
X001680Y026430D01*
X001430Y026680D01*
X001680Y026930D01*
X001680Y027430D01*
X001430Y027680D01*
X001680Y027930D01*
X001680Y028430D01*
X001430Y028680D01*
X001680Y028930D01*
X001680Y029430D01*
X001430Y029680D01*
X001680Y029930D01*
X001680Y030430D01*
X001430Y030680D01*
X000930Y030680D01*
X000680Y030430D01*
X000680Y029930D01*
X000930Y029680D01*
X001430Y029680D01*
X001430Y028680D02*
X000930Y028680D01*
X000680Y028930D01*
X000680Y029430D01*
X000930Y029680D01*
X000930Y028680D02*
X000680Y028430D01*
X000680Y027930D01*
X000930Y027680D01*
X001430Y027680D01*
X001430Y026680D02*
X000930Y026680D01*
X000680Y026930D01*
X000680Y027430D01*
X000930Y027680D01*
X000930Y026680D02*
X000680Y026430D01*
X000680Y025930D01*
X000930Y025680D01*
X001430Y025680D01*
X001430Y024680D02*
X000930Y024680D01*
X000680Y024930D01*
X000680Y025430D01*
X000930Y025680D01*
X000930Y024680D02*
X000680Y024430D01*
X000680Y023930D01*
X000930Y023680D01*
X001430Y023680D01*
X001430Y022680D02*
X000930Y022680D01*
X000680Y022930D01*
X000680Y023430D01*
X000930Y023680D01*
X000930Y022680D02*
X000680Y022430D01*
X000680Y021930D01*
X000930Y021680D01*
X001430Y021680D01*
X001430Y020680D02*
X000930Y020680D01*
X000680Y020930D01*
X000680Y021430D01*
X000930Y021680D01*
X000930Y020680D02*
X000680Y020430D01*
X000680Y019930D01*
X000930Y019680D01*
X001430Y019680D01*
X001680Y018930D02*
X001430Y018680D01*
X001680Y018430D01*
X001680Y017930D01*
X001430Y017680D01*
X001680Y017430D01*
X001680Y016930D01*
X001430Y016680D01*
X001680Y016430D01*
X001680Y015930D01*
X001430Y015680D01*
X001680Y015430D01*
X001680Y014930D01*
X001430Y014680D01*
X001680Y014430D01*
X001680Y013930D01*
X001430Y013680D01*
X001680Y013430D01*
X001680Y012930D01*
X001430Y012680D01*
X001680Y012430D01*
X001680Y011930D01*
X001430Y011680D01*
X001680Y011430D01*
X001680Y010930D01*
X001430Y010680D01*
X001680Y010430D01*
X001680Y009930D01*
X001430Y009680D01*
X001680Y009430D01*
X001680Y008930D01*
X001430Y008680D01*
X001680Y008430D01*
X001680Y007930D01*
X001430Y007680D01*
X001680Y007430D01*
X001680Y006930D01*
X001430Y006680D01*
X001680Y006430D01*
X001680Y005930D01*
X001430Y005680D01*
X001680Y005430D01*
X001680Y004930D01*
X001430Y004680D01*
X001680Y004430D01*
X001680Y003930D01*
X001430Y003680D01*
X001680Y003430D01*
X001680Y002930D01*
X001430Y002680D01*
X001680Y002430D01*
X001680Y001930D01*
X001430Y001680D01*
X001680Y001430D01*
X001680Y000930D01*
X001430Y000680D01*
X000930Y000680D01*
X000680Y000930D01*
X000680Y001430D01*
X000930Y001680D01*
X000680Y001930D01*
X000680Y002430D01*
X000930Y002680D01*
X001430Y002680D01*
X001430Y001680D02*
X000930Y001680D01*
X000930Y002680D02*
X000680Y002930D01*
X000680Y003430D01*
X000930Y003680D01*
X000680Y003930D01*
X000680Y004430D01*
X000930Y004680D01*
X000680Y004930D01*
X000680Y005430D01*
X000930Y005680D01*
X001430Y005680D01*
X001430Y006680D02*
X000930Y006680D01*
X000680Y006930D01*
X000680Y007430D01*
X000930Y007680D01*
X000680Y007930D01*
X000680Y008430D01*
X000930Y008680D01*
X001430Y008680D01*
X001430Y007680D02*
X000930Y007680D01*
X000930Y006680D02*
X000680Y006430D01*
X000680Y005930D01*
X000930Y005680D01*
X000930Y004680D02*
X001430Y004680D01*
X001430Y003680D02*
X000930Y003680D01*
X000930Y008680D02*
X000680Y008930D01*
X000680Y009430D01*
X000930Y009680D01*
X000680Y009930D01*
X000680Y010430D01*
X000930Y010680D01*
X000680Y010930D01*
X000680Y011430D01*
X000930Y011680D01*
X001430Y011680D01*
X001430Y010680D02*
X000930Y010680D01*
X000930Y011680D02*
X000680Y011930D01*
X000680Y012430D01*
X000930Y012680D01*
X000680Y012930D01*
X000680Y013430D01*
X000930Y013680D01*
X000680Y013930D01*
X000680Y014430D01*
X000930Y014680D01*
X001430Y014680D01*
X001430Y013680D02*
X000930Y013680D01*
X000930Y012680D02*
X001430Y012680D01*
X000930Y014680D02*
X000680Y014930D01*
X000680Y015430D01*
X000930Y015680D01*
X000680Y015930D01*
X000680Y016430D01*
X000930Y016680D01*
X000680Y016930D01*
X000680Y017430D01*
X000930Y017680D01*
X001430Y017680D01*
X001430Y016680D02*
X000930Y016680D01*
X000930Y015680D02*
X001430Y015680D01*
X000930Y017680D02*
X000680Y017930D01*
X000680Y018430D01*
X000930Y018680D01*
X000680Y018930D01*
X000680Y019430D01*
X000930Y019680D01*
X000930Y018680D02*
X001430Y018680D01*
X003390Y013080D02*
X003770Y013080D01*
X003770Y012800D02*
X003390Y012800D01*
X003588Y010757D02*
X003967Y010757D01*
X003967Y010477D02*
X003588Y010477D01*
X002900Y009630D02*
X002900Y009250D01*
X002620Y009250D02*
X002620Y009630D01*
X002270Y009491D02*
X001830Y009491D01*
X002050Y009270D01*
X002050Y009564D01*
X002270Y009104D02*
X002270Y008810D01*
X001830Y008810D01*
X001830Y009104D01*
X002050Y008957D02*
X002050Y008810D01*
X001430Y009680D02*
X000930Y009680D01*
X004943Y010483D02*
X005323Y010483D01*
X005323Y010763D02*
X004943Y010763D01*
X005360Y018410D02*
X005360Y018790D01*
X005640Y018790D02*
X005640Y018410D01*
X007680Y018430D02*
X007680Y017930D01*
X007930Y017680D01*
X008430Y017680D01*
X008680Y017430D01*
X008680Y016930D01*
X008430Y016680D01*
X008680Y016430D01*
X008680Y015930D01*
X008430Y015680D01*
X008680Y015430D01*
X008680Y014930D01*
X008430Y014680D01*
X008680Y014430D01*
X008680Y013930D01*
X008430Y013680D01*
X008680Y013430D01*
X008680Y012930D01*
X008430Y012680D01*
X008680Y012430D01*
X008680Y011930D01*
X008430Y011680D01*
X008680Y011430D01*
X008680Y010930D01*
X008430Y010680D01*
X008680Y010430D01*
X008680Y009930D01*
X008430Y009680D01*
X008680Y009430D01*
X008680Y008930D01*
X008430Y008680D01*
X008680Y008430D01*
X008680Y007930D01*
X008430Y007680D01*
X008680Y007430D01*
X008680Y006930D01*
X008430Y006680D01*
X008680Y006430D01*
X008680Y005930D01*
X008430Y005680D01*
X008680Y005430D01*
X008680Y004930D01*
X008430Y004680D01*
X008680Y004430D01*
X008680Y003930D01*
X008430Y003680D01*
X008680Y003430D01*
X008680Y002930D01*
X008430Y002680D01*
X008680Y002430D01*
X008680Y001930D01*
X008430Y001680D01*
X008680Y001430D01*
X008680Y000930D01*
X008430Y000680D01*
X007930Y000680D01*
X007680Y000930D01*
X007680Y001430D01*
X007930Y001680D01*
X007680Y001930D01*
X007680Y002430D01*
X007930Y002680D01*
X008430Y002680D01*
X008430Y001680D02*
X007930Y001680D01*
X007930Y002680D02*
X007680Y002930D01*
X007680Y003430D01*
X007930Y003680D01*
X007680Y003930D01*
X007680Y004430D01*
X007930Y004680D01*
X007680Y004930D01*
X007680Y005430D01*
X007930Y005680D01*
X008430Y005680D01*
X008430Y006680D02*
X007930Y006680D01*
X007680Y006930D01*
X007680Y007430D01*
X007930Y007680D01*
X007680Y007930D01*
X007680Y008430D01*
X007930Y008680D01*
X008430Y008680D01*
X008430Y007680D02*
X007930Y007680D01*
X007930Y006680D02*
X007680Y006430D01*
X007680Y005930D01*
X007930Y005680D01*
X007930Y004680D02*
X008430Y004680D01*
X008430Y003680D02*
X007930Y003680D01*
X007930Y008680D02*
X007680Y008930D01*
X007680Y009430D01*
X007930Y009680D01*
X007680Y009930D01*
X007680Y010430D01*
X007930Y010680D01*
X007680Y010930D01*
X007680Y011430D01*
X007930Y011680D01*
X008430Y011680D01*
X008430Y010680D02*
X007930Y010680D01*
X007930Y011680D02*
X007680Y011930D01*
X007680Y012430D01*
X007930Y012680D01*
X007680Y012930D01*
X007680Y013430D01*
X007930Y013680D01*
X007680Y013930D01*
X007680Y014430D01*
X007930Y014680D01*
X008430Y014680D01*
X008430Y013680D02*
X007930Y013680D01*
X007930Y012680D02*
X008430Y012680D01*
X007930Y014680D02*
X007680Y014930D01*
X007680Y015430D01*
X007930Y015680D01*
X007680Y015930D01*
X007680Y016430D01*
X007930Y016680D01*
X007680Y016930D01*
X007680Y017430D01*
X007930Y017680D01*
X007680Y018430D02*
X007930Y018680D01*
X007680Y018930D01*
X007680Y019430D01*
X007930Y019680D01*
X007680Y019930D01*
X007680Y020430D01*
X007930Y020680D01*
X007680Y020930D01*
X007680Y021430D01*
X007930Y021680D01*
X007680Y021930D01*
X007680Y022430D01*
X007930Y022680D01*
X007680Y022930D01*
X007680Y023430D01*
X007930Y023680D01*
X007680Y023930D01*
X007680Y024430D01*
X007930Y024680D01*
X007680Y024930D01*
X007680Y025430D01*
X007930Y025680D01*
X007680Y025930D01*
X007680Y026430D01*
X007930Y026680D01*
X007680Y026930D01*
X007680Y027430D01*
X007930Y027680D01*
X007680Y027930D01*
X007680Y028430D01*
X007930Y028680D01*
X007680Y028930D01*
X007680Y029430D01*
X007930Y029680D01*
X007680Y029930D01*
X007680Y030430D01*
X007930Y030680D01*
X008430Y030680D01*
X008680Y030430D01*
X008680Y029930D01*
X008430Y029680D01*
X007930Y029680D01*
X007930Y028680D02*
X008430Y028680D01*
X008680Y028930D01*
X008680Y029430D01*
X008430Y029680D01*
X008430Y028680D02*
X008680Y028430D01*
X008680Y027930D01*
X008430Y027680D01*
X007930Y027680D01*
X007930Y026680D02*
X008430Y026680D01*
X008680Y026930D01*
X008680Y027430D01*
X008430Y027680D01*
X008430Y026680D02*
X008680Y026430D01*
X008680Y025930D01*
X008430Y025680D01*
X007930Y025680D01*
X007930Y024680D02*
X008430Y024680D01*
X008680Y024930D01*
X008680Y025430D01*
X008430Y025680D01*
X008430Y024680D02*
X008680Y024430D01*
X008680Y023930D01*
X008430Y023680D01*
X008680Y023430D01*
X008680Y022930D01*
X008430Y022680D01*
X007930Y022680D01*
X007930Y021680D02*
X008430Y021680D01*
X008680Y021930D01*
X008680Y022430D01*
X008430Y022680D01*
X008430Y021680D02*
X008680Y021430D01*
X008680Y020930D01*
X008430Y020680D01*
X007930Y020680D01*
X007930Y019680D02*
X008430Y019680D01*
X008680Y019930D01*
X008680Y020430D01*
X008430Y020680D01*
X008430Y019680D02*
X008680Y019430D01*
X008680Y018930D01*
X008430Y018680D01*
X008680Y018430D01*
X008680Y017930D01*
X008430Y017680D01*
X008430Y016680D02*
X007930Y016680D01*
X007930Y015680D02*
X008430Y015680D01*
X008430Y018680D02*
X007930Y018680D01*
X007930Y023680D02*
X008430Y023680D01*
X004990Y028580D02*
X004610Y028580D01*
X004610Y028860D02*
X004990Y028860D01*
X007930Y009680D02*
X008430Y009680D01*
D13*
X007538Y013895D02*
X007211Y013895D01*
X007538Y014222D01*
X007538Y014304D01*
X007456Y014385D01*
X007292Y014385D01*
X007211Y014304D01*
X007022Y014304D02*
X006940Y014385D01*
X006777Y014385D01*
X006695Y014304D01*
X006695Y013977D01*
X006777Y013895D01*
X006940Y013895D01*
X007022Y013977D01*
X006940Y014895D02*
X006777Y014895D01*
X006695Y014977D01*
X006695Y015304D01*
X006777Y015385D01*
X006940Y015385D01*
X007022Y015304D01*
X007022Y014977D02*
X006940Y014895D01*
X007211Y014977D02*
X007292Y014895D01*
X007456Y014895D01*
X007538Y014977D01*
X007538Y015058D01*
X007456Y015140D01*
X007374Y015140D01*
X007456Y015140D02*
X007538Y015222D01*
X007538Y015304D01*
X007456Y015385D01*
X007292Y015385D01*
X007211Y015304D01*
X007456Y015895D02*
X007456Y016385D01*
X007211Y016140D01*
X007538Y016140D01*
X007456Y016935D02*
X007292Y016935D01*
X007211Y017017D01*
X007211Y017180D02*
X007374Y017262D01*
X007456Y017262D01*
X007538Y017180D01*
X007538Y017017D01*
X007456Y016935D01*
X007538Y017425D02*
X007211Y017425D01*
X007211Y017180D01*
X007022Y017017D02*
X006940Y016935D01*
X006777Y016935D01*
X006695Y017017D01*
X006695Y017344D01*
X006777Y017425D01*
X006940Y017425D01*
X007022Y017344D01*
X006940Y016385D02*
X006777Y016385D01*
X006695Y016304D01*
X006695Y015977D01*
X006777Y015895D01*
X006940Y015895D01*
X007022Y015977D01*
X007022Y016304D02*
X006940Y016385D01*
X002658Y015895D02*
X002331Y015895D01*
X002494Y015895D02*
X002494Y016385D01*
X002331Y016222D01*
X002142Y016222D02*
X002060Y016140D01*
X001815Y016140D01*
X001815Y015895D02*
X002060Y015895D01*
X002142Y015977D01*
X002142Y016058D01*
X002060Y016140D01*
X002142Y016222D02*
X002142Y016304D01*
X002060Y016385D01*
X001815Y016385D01*
X001815Y015895D01*
X001815Y015385D02*
X002060Y015385D01*
X002142Y015304D01*
X002142Y015222D01*
X002060Y015140D01*
X001815Y015140D01*
X001815Y014895D02*
X002060Y014895D01*
X002142Y014977D01*
X002142Y015058D01*
X002060Y015140D01*
X002060Y014385D02*
X002142Y014304D01*
X002142Y014222D01*
X002060Y014140D01*
X001815Y014140D01*
X001815Y013895D02*
X002060Y013895D01*
X002142Y013977D01*
X002142Y014058D01*
X002060Y014140D01*
X002060Y014385D02*
X001815Y014385D01*
X001815Y013895D01*
X001815Y014895D02*
X001815Y015385D01*
X001815Y016895D02*
X002060Y016895D01*
X002142Y016977D01*
X002142Y017058D01*
X002060Y017140D01*
X001815Y017140D01*
X001815Y016895D02*
X001815Y017385D01*
X002060Y017385D01*
X002142Y017304D01*
X002142Y017222D01*
X002060Y017140D01*
X002331Y016977D02*
X002658Y017304D01*
X002658Y016977D01*
X002576Y016895D01*
X002412Y016895D01*
X002331Y016977D01*
X002331Y017304D01*
X002412Y017385D01*
X002576Y017385D01*
X002658Y017304D01*
X002576Y015385D02*
X002412Y015385D01*
X002331Y015304D01*
X002658Y015222D02*
X002331Y014895D01*
X002658Y014895D01*
X002658Y015222D02*
X002658Y015304D01*
X002576Y015385D01*
X002576Y014385D02*
X002412Y014385D01*
X002331Y014304D01*
X002494Y014140D02*
X002576Y014140D01*
X002658Y014058D01*
X002658Y013977D01*
X002576Y013895D01*
X002412Y013895D01*
X002331Y013977D01*
X002576Y014140D02*
X002658Y014222D01*
X002658Y014304D01*
X002576Y014385D01*
D14*
X003167Y013770D02*
X003090Y013694D01*
X003090Y013387D01*
X003167Y013310D01*
X003320Y013310D01*
X003397Y013387D01*
X003550Y013310D02*
X003857Y013617D01*
X003857Y013694D01*
X003781Y013770D01*
X003627Y013770D01*
X003550Y013694D01*
X003397Y013694D02*
X003320Y013770D01*
X003167Y013770D01*
X003550Y013310D02*
X003857Y013310D01*
X004211Y013001D02*
X004211Y012694D01*
X004288Y012617D01*
X004441Y012617D01*
X004518Y012694D01*
X004518Y013001D01*
X004441Y013078D01*
X004288Y013078D01*
X004211Y013001D01*
X004365Y012771D02*
X004518Y012617D01*
X004672Y012617D02*
X004979Y012617D01*
X004825Y012617D02*
X004825Y013078D01*
X004672Y012924D01*
X004050Y017870D02*
X004050Y017947D01*
X004357Y018254D01*
X004357Y018330D01*
X004050Y018330D01*
X003897Y018254D02*
X003820Y018330D01*
X003667Y018330D01*
X003590Y018254D01*
X003590Y017947D01*
X003667Y017870D01*
X003820Y017870D01*
X003897Y017947D01*
X003840Y018910D02*
X003687Y018910D01*
X003610Y018987D01*
X003610Y019294D01*
X003687Y019370D01*
X003840Y019370D01*
X003917Y019294D01*
X003917Y018987D02*
X003840Y018910D01*
X004070Y018987D02*
X004147Y018910D01*
X004301Y018910D01*
X004377Y018987D01*
X004377Y019063D01*
X004301Y019140D01*
X004070Y019140D01*
X004070Y018987D01*
X004070Y019140D02*
X004224Y019294D01*
X004377Y019370D01*
X004566Y018810D02*
X004489Y018734D01*
X004489Y018427D01*
X004566Y018350D01*
X004719Y018350D01*
X004796Y018427D01*
X004796Y018734D02*
X004719Y018810D01*
X004566Y018810D01*
X004950Y018580D02*
X005257Y018580D01*
X005180Y018350D02*
X005180Y018810D01*
X004950Y018580D01*
X004041Y028530D02*
X003887Y028530D01*
X003810Y028607D01*
X003964Y028760D02*
X004041Y028760D01*
X004117Y028683D01*
X004117Y028607D01*
X004041Y028530D01*
X004041Y028760D02*
X004117Y028837D01*
X004117Y028914D01*
X004041Y028990D01*
X003887Y028990D01*
X003810Y028914D01*
X003810Y029150D02*
X004117Y029150D01*
X003964Y029150D02*
X003964Y029610D01*
X003810Y029457D01*
X003657Y029534D02*
X003657Y029227D01*
X003580Y029150D01*
X003350Y029150D01*
X003350Y029610D01*
X003580Y029610D01*
X003657Y029534D01*
X003580Y028990D02*
X003657Y028914D01*
X003657Y028760D01*
X003580Y028683D01*
X003350Y028683D01*
X003350Y028530D02*
X003350Y028990D01*
X003580Y028990D01*
X003503Y028683D02*
X003657Y028530D01*
X004683Y029203D02*
X005037Y029203D01*
X005037Y029517D02*
X004683Y029517D01*
X004960Y029727D02*
X005007Y029680D01*
X005100Y029680D01*
X005147Y029727D01*
X005147Y029914D02*
X005100Y029960D01*
X005007Y029960D01*
X004960Y029914D01*
X004960Y029727D01*
D15*
X005330Y007250D02*
X005332Y007284D01*
X005338Y007318D01*
X005347Y007351D01*
X005361Y007382D01*
X005378Y007412D01*
X005398Y007440D01*
X005421Y007465D01*
X005447Y007488D01*
X005475Y007507D01*
X005505Y007523D01*
X005537Y007535D01*
X005570Y007544D01*
X005604Y007549D01*
X005639Y007550D01*
X005673Y007547D01*
X005706Y007540D01*
X005739Y007530D01*
X005770Y007515D01*
X005799Y007498D01*
X005826Y007477D01*
X005851Y007453D01*
X005873Y007426D01*
X005891Y007398D01*
X005906Y007367D01*
X005918Y007335D01*
X005926Y007301D01*
X005930Y007267D01*
X005930Y007233D01*
X005926Y007199D01*
X005918Y007165D01*
X005906Y007133D01*
X005891Y007102D01*
X005873Y007074D01*
X005851Y007047D01*
X005826Y007023D01*
X005799Y007002D01*
X005770Y006985D01*
X005739Y006970D01*
X005706Y006960D01*
X005673Y006953D01*
X005639Y006950D01*
X005604Y006951D01*
X005570Y006956D01*
X005537Y006965D01*
X005505Y006977D01*
X005475Y006993D01*
X005447Y007012D01*
X005421Y007035D01*
X005398Y007060D01*
X005378Y007088D01*
X005361Y007118D01*
X005347Y007149D01*
X005338Y007182D01*
X005332Y007216D01*
X005330Y007250D01*
D16*
X005205Y005348D02*
X005205Y004998D01*
X005089Y004998D02*
X005322Y004998D01*
X005089Y005231D02*
X005205Y005348D01*
X004954Y005289D02*
X004954Y005173D01*
X004895Y005114D01*
X004720Y005114D01*
X004720Y004998D02*
X004720Y005348D01*
X004895Y005348D01*
X004954Y005289D01*
X004837Y005114D02*
X004954Y004998D01*
X004586Y005056D02*
X004586Y005289D01*
X004527Y005348D01*
X004352Y005348D01*
X004352Y004998D01*
X004527Y004998D01*
X004586Y005056D01*
X004217Y004998D02*
X004217Y005348D01*
X004217Y005173D02*
X003984Y005173D01*
X003984Y004998D02*
X003984Y005348D01*
X003160Y006138D02*
X006160Y006138D01*
X006160Y004138D01*
X003160Y004138D01*
X004121Y022105D02*
X004005Y022222D01*
X004121Y022339D01*
X004355Y022339D01*
X004180Y022339D02*
X004180Y022105D01*
X004121Y022105D02*
X004355Y022105D01*
X004297Y022532D02*
X004355Y022590D01*
X004297Y022532D02*
X004063Y022532D01*
X004121Y022473D02*
X004121Y022590D01*
X004121Y022719D02*
X004121Y022777D01*
X004180Y022836D01*
X004121Y022894D01*
X004180Y022952D01*
X004355Y022952D01*
X004355Y022836D02*
X004180Y022836D01*
X004121Y022719D02*
X004355Y022719D01*
X004297Y023087D02*
X004180Y023087D01*
X004121Y023146D01*
X004121Y023262D01*
X004180Y023321D01*
X004238Y023321D01*
X004238Y023087D01*
X004297Y023087D02*
X004355Y023146D01*
X004355Y023262D01*
X004355Y023455D02*
X004355Y023572D01*
X004355Y023514D02*
X004005Y023514D01*
X004005Y023455D01*
X004063Y024069D02*
X004121Y024069D01*
X004180Y024128D01*
X004180Y024303D01*
X004297Y024303D02*
X004063Y024303D01*
X004005Y024244D01*
X004005Y024128D01*
X004063Y024069D01*
X004063Y024438D02*
X004005Y024496D01*
X004005Y024613D01*
X004063Y024671D01*
X004297Y024438D01*
X004355Y024496D01*
X004355Y024613D01*
X004297Y024671D01*
X004063Y024671D01*
X004005Y024806D02*
X004297Y024806D01*
X004355Y024864D01*
X004355Y024981D01*
X004297Y025040D01*
X004005Y025040D01*
X004063Y025174D02*
X004121Y025174D01*
X004180Y025233D01*
X004180Y025349D01*
X004238Y025408D01*
X004297Y025408D01*
X004355Y025349D01*
X004355Y025233D01*
X004297Y025174D01*
X004355Y025543D02*
X004355Y025718D01*
X004297Y025776D01*
X004238Y025776D01*
X004180Y025718D01*
X004180Y025543D01*
X004180Y025718D02*
X004121Y025776D01*
X004063Y025776D01*
X004005Y025718D01*
X004005Y025543D01*
X004355Y025543D01*
X004355Y025911D02*
X004355Y026144D01*
X004355Y026028D02*
X004005Y026028D01*
X004121Y025911D01*
X004063Y025408D02*
X004005Y025349D01*
X004005Y025233D01*
X004063Y025174D01*
X004063Y024438D02*
X004297Y024438D01*
X004297Y024303D02*
X004355Y024244D01*
X004355Y024128D01*
X004297Y024069D01*
X004605Y023517D02*
X004955Y023517D01*
X004838Y023517D02*
X004955Y023692D01*
X004897Y023824D02*
X004955Y023882D01*
X004955Y023999D01*
X004897Y024057D01*
X004780Y024057D01*
X004721Y023999D01*
X004721Y023882D01*
X004780Y023824D01*
X004897Y023824D01*
X004721Y023692D02*
X004838Y023517D01*
X004838Y023382D02*
X004838Y023207D01*
X004897Y023149D01*
X004955Y023207D01*
X004955Y023382D01*
X004780Y023382D01*
X004721Y023324D01*
X004721Y023207D01*
X004780Y023014D02*
X004721Y022955D01*
X004721Y022839D01*
X004780Y022780D01*
X004897Y022780D01*
X004955Y022839D01*
X004955Y022955D01*
X004838Y023014D02*
X004838Y022780D01*
X004721Y022648D02*
X004721Y022590D01*
X004838Y022473D01*
X004955Y022473D02*
X004721Y022473D01*
X004721Y022339D02*
X004780Y022280D01*
X004780Y022105D01*
X004780Y022280D02*
X004838Y022339D01*
X004897Y022339D01*
X004955Y022280D01*
X004955Y022105D01*
X004605Y022105D01*
X004605Y022280D01*
X004663Y022339D01*
X004721Y022339D01*
X004780Y023014D02*
X004838Y023014D01*
X005263Y023578D02*
X005205Y023637D01*
X005205Y023753D01*
X005263Y023812D01*
X005321Y023812D01*
X005555Y023578D01*
X005555Y023812D01*
X005497Y023947D02*
X005555Y024005D01*
X005555Y024122D01*
X005497Y024180D01*
X005263Y024180D01*
X005497Y023947D01*
X005263Y023947D01*
X005205Y024005D01*
X005205Y024122D01*
X005263Y024180D01*
X005321Y024315D02*
X005205Y024432D01*
X005555Y024432D01*
X005555Y024548D02*
X005555Y024315D01*
X005380Y024683D02*
X005380Y024917D01*
X005205Y024858D02*
X005380Y024683D01*
X005555Y024858D02*
X005205Y024858D01*
X004955Y024677D02*
X004897Y024619D01*
X004663Y024619D01*
X004721Y024560D02*
X004721Y024677D01*
X004721Y024426D02*
X004955Y024426D01*
X004955Y024250D01*
X004897Y024192D01*
X004721Y024192D01*
X004721Y025174D02*
X004955Y025291D01*
X004721Y025408D01*
X004721Y025543D02*
X004605Y025659D01*
X004955Y025659D01*
X004955Y025543D02*
X004955Y025776D01*
X004955Y025911D02*
X004955Y025969D01*
X004897Y025969D01*
X004897Y025911D01*
X004955Y025911D01*
X004897Y026095D02*
X004663Y026329D01*
X004897Y026329D01*
X004955Y026270D01*
X004955Y026153D01*
X004897Y026095D01*
X004663Y026095D01*
X004605Y026153D01*
X004605Y026270D01*
X004663Y026329D01*
X004355Y026279D02*
X004121Y026513D01*
X004063Y026513D01*
X004005Y026454D01*
X004005Y026338D01*
X004063Y026279D01*
X004063Y026648D02*
X004121Y026648D01*
X004180Y026706D01*
X004180Y026823D01*
X004238Y026881D01*
X004297Y026881D01*
X004355Y026823D01*
X004355Y026706D01*
X004297Y026648D01*
X004238Y026648D01*
X004180Y026706D01*
X004180Y026823D02*
X004121Y026881D01*
X004063Y026881D01*
X004005Y026823D01*
X004005Y026706D01*
X004063Y026648D01*
X004180Y027016D02*
X004063Y027133D01*
X004005Y027249D01*
X004180Y027191D02*
X004180Y027016D01*
X004297Y027016D01*
X004355Y027074D01*
X004355Y027191D01*
X004297Y027249D01*
X004238Y027249D01*
X004180Y027191D01*
X004355Y026513D02*
X004355Y026279D01*
X005321Y023075D02*
X005613Y023075D01*
X005672Y023017D01*
X005672Y022958D01*
X005555Y022900D02*
X005555Y023075D01*
X005555Y022900D02*
X005497Y022842D01*
X005321Y022842D01*
X005380Y022707D02*
X005321Y022648D01*
X005321Y022532D01*
X005380Y022707D02*
X005555Y022707D01*
X005555Y022532D01*
X005497Y022473D01*
X005438Y022532D01*
X005438Y022707D01*
X005555Y022339D02*
X005205Y022339D01*
X005321Y022222D01*
X005205Y022105D01*
X005555Y022105D01*
D17*
X006411Y017451D02*
X002909Y017451D01*
X002909Y013949D01*
X006411Y013949D01*
X006411Y017451D01*
X005446Y012406D02*
X005448Y012383D01*
X005453Y012359D01*
X005461Y012337D01*
X005473Y012316D01*
X005487Y012297D01*
X005504Y012280D01*
X005523Y012266D01*
X005544Y012254D01*
X005566Y012246D01*
X005590Y012241D01*
X005613Y012239D01*
X005613Y011875D01*
X005613Y011639D01*
X005613Y011275D01*
X005590Y011273D01*
X005566Y011268D01*
X005544Y011260D01*
X005523Y011248D01*
X005504Y011234D01*
X005487Y011217D01*
X005473Y011198D01*
X005461Y011177D01*
X005453Y011155D01*
X005448Y011131D01*
X005446Y011108D01*
X004885Y011108D01*
X004058Y011108D01*
X003497Y011108D01*
X003495Y011131D01*
X003490Y011155D01*
X003482Y011177D01*
X003470Y011198D01*
X003456Y011217D01*
X003439Y011234D01*
X003420Y011248D01*
X003399Y011260D01*
X003377Y011268D01*
X003353Y011273D01*
X003330Y011275D01*
X003330Y011639D01*
X003330Y011875D01*
X003330Y012239D01*
X003353Y012241D01*
X003377Y012246D01*
X003399Y012254D01*
X003420Y012266D01*
X003439Y012280D01*
X003456Y012297D01*
X003470Y012316D01*
X003482Y012337D01*
X003490Y012359D01*
X003495Y012383D01*
X003497Y012406D01*
X003497Y012407D02*
X004058Y012407D01*
X004885Y012407D01*
X005446Y012407D01*
X005801Y010024D02*
X005801Y008646D01*
X003439Y008646D01*
X003439Y010024D01*
X005801Y010024D01*
D18*
X005116Y029360D03*
X004604Y029360D03*
D19*
X004919Y029212D03*
X004919Y029508D03*
D20*
X004919Y029360D03*
D21*
X005500Y018870D03*
X005500Y018330D03*
X002760Y009710D03*
X002760Y009170D03*
D22*
X003105Y008535D02*
X003105Y008245D01*
X003105Y008342D02*
X003250Y008342D01*
X003298Y008390D01*
X003298Y008487D01*
X003250Y008535D01*
X003105Y008535D01*
X003202Y008342D02*
X003298Y008245D01*
X003400Y008390D02*
X003593Y008390D01*
X003545Y008245D02*
X003545Y008535D01*
X003400Y008390D01*
X003691Y010102D02*
X003642Y010150D01*
X003642Y010344D01*
X003691Y010392D01*
X003788Y010392D01*
X003836Y010344D01*
X003937Y010392D02*
X003937Y010247D01*
X004034Y010295D01*
X004082Y010295D01*
X004131Y010247D01*
X004131Y010150D01*
X004082Y010102D01*
X003986Y010102D01*
X003937Y010150D01*
X003836Y010150D02*
X003788Y010102D01*
X003691Y010102D01*
X003937Y010392D02*
X004131Y010392D01*
X004892Y010344D02*
X004892Y010150D01*
X004940Y010102D01*
X005037Y010102D01*
X005085Y010150D01*
X005187Y010150D02*
X005235Y010102D01*
X005332Y010102D01*
X005380Y010150D01*
X005380Y010199D01*
X005332Y010247D01*
X005283Y010247D01*
X005332Y010247D02*
X005380Y010295D01*
X005380Y010344D01*
X005332Y010392D01*
X005235Y010392D01*
X005187Y010344D01*
X005085Y010344D02*
X005037Y010392D01*
X004940Y010392D01*
X004892Y010344D01*
D23*
X004863Y010623D03*
X005403Y010623D03*
X004047Y010617D03*
X003508Y010617D03*
X003310Y012940D03*
X003850Y012940D03*
X003110Y018060D03*
X003090Y019100D03*
X002550Y019100D03*
X002570Y018060D03*
X004530Y028720D03*
X005070Y028720D03*
D24*
X008180Y029180D03*
X008180Y028180D03*
X008180Y027180D03*
X008180Y026180D03*
X008180Y025180D03*
X008180Y024180D03*
X008180Y023180D03*
X008180Y022180D03*
X008180Y021180D03*
X008180Y020180D03*
X008180Y019180D03*
X008180Y018180D03*
X008180Y017180D03*
X008180Y016180D03*
X008180Y015180D03*
X008180Y014180D03*
X008180Y013180D03*
X008180Y012180D03*
X008180Y011180D03*
X008180Y010180D03*
X008180Y009180D03*
X008180Y008180D03*
X008180Y007180D03*
X008180Y006180D03*
X008180Y005180D03*
X008180Y004180D03*
X008180Y003180D03*
X008180Y002180D03*
X008180Y001180D03*
X001180Y001180D03*
X001180Y002180D03*
X001180Y003180D03*
X001180Y004180D03*
X001180Y005180D03*
X001180Y006180D03*
X001180Y007180D03*
X001180Y008180D03*
X001180Y009180D03*
X001180Y010180D03*
X001180Y011180D03*
X001180Y012180D03*
X001180Y013180D03*
X001180Y014180D03*
X001180Y015180D03*
X001180Y016180D03*
X001180Y017180D03*
X001180Y018180D03*
X001180Y019180D03*
X001180Y020180D03*
X001180Y021180D03*
X001180Y022180D03*
X001180Y023180D03*
X001180Y024180D03*
X001180Y025180D03*
X001180Y026180D03*
X001180Y027180D03*
X001180Y028180D03*
X001180Y029180D03*
X001180Y030180D03*
X008180Y030180D03*
D25*
X002782Y017578D03*
D26*
X003664Y011678D03*
M02*
