G75*
G70*
%OFA0B0*%
%FSLAX24Y24*%
%IPPOS*%
%LPD*%
%AMOC8*
5,1,8,0,0,1.08239X$1,22.5*
%
%ADD10R,0.0315X0.0315*%
%ADD11R,0.0394X0.0433*%
%ADD12R,0.1120X0.0600*%
%ADD13R,0.0600X0.1120*%
%ADD14R,0.0433X0.0394*%
%ADD15C,0.0740*%
%ADD16C,0.0396*%
%ADD17C,0.0160*%
%ADD18C,0.0400*%
%ADD19C,0.0320*%
%ADD20C,0.0240*%
%ADD21C,0.0100*%
D10*
X022280Y001089D03*
X022871Y001089D03*
D11*
X021781Y001086D03*
X021072Y001086D03*
X020478Y001108D03*
X020504Y001650D03*
X019796Y001650D03*
X019769Y001108D03*
D12*
X017870Y003240D03*
X017870Y004030D03*
X017870Y004820D03*
X017870Y005610D03*
X017870Y006400D03*
X017870Y007190D03*
X017870Y007980D03*
X017870Y008770D03*
X017870Y009560D03*
X017870Y010350D03*
X017870Y011140D03*
X017870Y011930D03*
X017870Y012720D03*
X026330Y012720D03*
X026330Y011930D03*
X026330Y011140D03*
X026330Y010350D03*
X026330Y009560D03*
X026330Y008770D03*
X026330Y007980D03*
X026330Y007190D03*
X026330Y006400D03*
X026330Y005610D03*
X026330Y004820D03*
X026330Y004030D03*
X026330Y003240D03*
X026330Y013510D03*
X026330Y014300D03*
X026330Y015090D03*
D13*
X024880Y002550D03*
X024090Y002550D03*
X023300Y002550D03*
X022510Y002550D03*
X021720Y002550D03*
X020930Y002550D03*
X020140Y002550D03*
X019350Y002550D03*
D14*
X015775Y010446D03*
X015775Y011154D03*
X015800Y011646D03*
X015800Y012354D03*
D15*
X016600Y012200D03*
X016600Y011200D03*
X016600Y010200D03*
X016600Y009200D03*
X016600Y008200D03*
X016600Y007200D03*
X016600Y006200D03*
X016600Y005200D03*
X016600Y004200D03*
X016600Y003200D03*
X016600Y002200D03*
X027600Y002200D03*
X027600Y003200D03*
X027600Y004200D03*
X027600Y005200D03*
X027600Y006200D03*
X027600Y007200D03*
X027600Y008200D03*
X027600Y009200D03*
X027600Y010200D03*
X027600Y011200D03*
X027600Y012200D03*
D16*
X025950Y002175D03*
X023350Y001125D03*
X021000Y001650D03*
X018625Y002175D03*
D17*
X018625Y002485D01*
X017870Y003240D01*
X017880Y003250D01*
X018575Y003250D01*
X018650Y003325D01*
X018650Y004725D01*
X018555Y004820D01*
X017870Y004820D01*
X025950Y002860D02*
X025950Y002175D01*
X025950Y002860D02*
X026330Y003240D01*
D18*
X017330Y011930D02*
X016600Y011200D01*
X017330Y011930D02*
X017870Y011930D01*
X017870Y012720D02*
X017120Y012720D01*
X016600Y012200D01*
X026330Y013510D02*
X027190Y013510D01*
X027500Y013200D01*
X027500Y012300D01*
X027600Y012200D01*
D19*
X016600Y012200D02*
X016446Y012354D01*
X015800Y012354D01*
X015800Y011646D02*
X015775Y011621D01*
X015775Y011154D01*
X015800Y011646D02*
X016154Y011646D01*
X016600Y011200D01*
D20*
X015771Y010450D02*
X015775Y010446D01*
X015771Y010450D02*
X015400Y010450D01*
X015350Y010500D01*
X015350Y012300D01*
X015404Y012354D01*
X015800Y012354D01*
D21*
X015250Y000900D02*
X016474Y000900D01*
X016403Y000930D01*
X016330Y001003D01*
X015780Y001553D01*
X015740Y001648D01*
X015740Y007652D01*
X015780Y007747D01*
X016048Y008016D01*
X016020Y008085D01*
X016020Y008315D01*
X016108Y008529D01*
X016271Y008692D01*
X016291Y008700D01*
X016271Y008708D01*
X016108Y008871D01*
X016020Y009085D01*
X016020Y009315D01*
X016108Y009529D01*
X016271Y009692D01*
X016291Y009700D01*
X016271Y009708D01*
X016108Y009871D01*
X016020Y010085D01*
X016020Y010101D01*
X016011Y010099D01*
X015823Y010099D01*
X015823Y010397D01*
X015727Y010397D01*
X015727Y010099D01*
X015539Y010099D01*
X015501Y010109D01*
X015466Y010129D01*
X015438Y010157D01*
X015419Y010191D01*
X015408Y010229D01*
X015408Y010397D01*
X015727Y010397D01*
X015727Y010494D01*
X015408Y010494D01*
X015408Y010662D01*
X015419Y010700D01*
X015438Y010735D01*
X015461Y010758D01*
X015348Y010870D01*
X015348Y011438D01*
X015373Y011463D01*
X015373Y011930D01*
X015486Y012042D01*
X015463Y012065D01*
X015444Y012100D01*
X015433Y012138D01*
X015433Y012306D01*
X015752Y012306D01*
X015752Y012403D01*
X015433Y012403D01*
X015433Y012550D01*
X015250Y012550D01*
X015250Y000900D01*
X015250Y000946D02*
X016387Y000946D01*
X016288Y001044D02*
X015250Y001044D01*
X015250Y001143D02*
X016190Y001143D01*
X016091Y001241D02*
X015250Y001241D01*
X015250Y001340D02*
X015993Y001340D01*
X015894Y001438D02*
X015250Y001438D01*
X015250Y001537D02*
X015796Y001537D01*
X015745Y001635D02*
X015250Y001635D01*
X015250Y001734D02*
X015740Y001734D01*
X015740Y001832D02*
X015250Y001832D01*
X015250Y001931D02*
X015740Y001931D01*
X015740Y002029D02*
X015250Y002029D01*
X015250Y002128D02*
X015740Y002128D01*
X015740Y002226D02*
X015250Y002226D01*
X015250Y002325D02*
X015740Y002325D01*
X015740Y002423D02*
X015250Y002423D01*
X015250Y002522D02*
X015740Y002522D01*
X015740Y002620D02*
X015250Y002620D01*
X015250Y002719D02*
X015740Y002719D01*
X015740Y002817D02*
X015250Y002817D01*
X015250Y002916D02*
X015740Y002916D01*
X015740Y003014D02*
X015250Y003014D01*
X015250Y003113D02*
X015740Y003113D01*
X015740Y003211D02*
X015250Y003211D01*
X015250Y003310D02*
X015740Y003310D01*
X015740Y003408D02*
X015250Y003408D01*
X015250Y003507D02*
X015740Y003507D01*
X015740Y003605D02*
X015250Y003605D01*
X015250Y003704D02*
X015740Y003704D01*
X015740Y003802D02*
X015250Y003802D01*
X015250Y003901D02*
X015740Y003901D01*
X015740Y003999D02*
X015250Y003999D01*
X015250Y004098D02*
X015740Y004098D01*
X015740Y004196D02*
X015250Y004196D01*
X015250Y004295D02*
X015740Y004295D01*
X015740Y004393D02*
X015250Y004393D01*
X015250Y004492D02*
X015740Y004492D01*
X015740Y004590D02*
X015250Y004590D01*
X015250Y004689D02*
X015740Y004689D01*
X015740Y004787D02*
X015250Y004787D01*
X015250Y004886D02*
X015740Y004886D01*
X015740Y004984D02*
X015250Y004984D01*
X015250Y005083D02*
X015740Y005083D01*
X015740Y005181D02*
X015250Y005181D01*
X015250Y005280D02*
X015740Y005280D01*
X015740Y005378D02*
X015250Y005378D01*
X015250Y005477D02*
X015740Y005477D01*
X015740Y005575D02*
X015250Y005575D01*
X015250Y005674D02*
X015740Y005674D01*
X015740Y005772D02*
X015250Y005772D01*
X015250Y005871D02*
X015740Y005871D01*
X015740Y005969D02*
X015250Y005969D01*
X015250Y006068D02*
X015740Y006068D01*
X015740Y006166D02*
X015250Y006166D01*
X015250Y006265D02*
X015740Y006265D01*
X015740Y006363D02*
X015250Y006363D01*
X015250Y006462D02*
X015740Y006462D01*
X015740Y006560D02*
X015250Y006560D01*
X015250Y006659D02*
X015740Y006659D01*
X015740Y006757D02*
X015250Y006757D01*
X015250Y006856D02*
X015740Y006856D01*
X015740Y006954D02*
X015250Y006954D01*
X015250Y007053D02*
X015740Y007053D01*
X015740Y007151D02*
X015250Y007151D01*
X015250Y007250D02*
X015740Y007250D01*
X015740Y007348D02*
X015250Y007348D01*
X015250Y007447D02*
X015740Y007447D01*
X015740Y007545D02*
X015250Y007545D01*
X015250Y007644D02*
X015740Y007644D01*
X015777Y007742D02*
X015250Y007742D01*
X015250Y007841D02*
X015873Y007841D01*
X015971Y007939D02*
X015250Y007939D01*
X015250Y008038D02*
X016040Y008038D01*
X016020Y008136D02*
X015250Y008136D01*
X015250Y008235D02*
X016020Y008235D01*
X016027Y008333D02*
X015250Y008333D01*
X015250Y008432D02*
X016068Y008432D01*
X016110Y008530D02*
X015250Y008530D01*
X015250Y008629D02*
X016208Y008629D01*
X016253Y008727D02*
X015250Y008727D01*
X015250Y008826D02*
X016154Y008826D01*
X016087Y008924D02*
X015250Y008924D01*
X015250Y009023D02*
X016046Y009023D01*
X016020Y009121D02*
X015250Y009121D01*
X015250Y009220D02*
X016020Y009220D01*
X016021Y009318D02*
X015250Y009318D01*
X015250Y009417D02*
X016062Y009417D01*
X016103Y009515D02*
X015250Y009515D01*
X015250Y009614D02*
X016193Y009614D01*
X016268Y009712D02*
X015250Y009712D01*
X015250Y009811D02*
X016169Y009811D01*
X016093Y009909D02*
X015250Y009909D01*
X015250Y010008D02*
X016052Y010008D01*
X015823Y010106D02*
X015727Y010106D01*
X015727Y010205D02*
X015823Y010205D01*
X015823Y010303D02*
X015727Y010303D01*
X015727Y010402D02*
X015250Y010402D01*
X015250Y010500D02*
X015408Y010500D01*
X015408Y010599D02*
X015250Y010599D01*
X015250Y010697D02*
X015418Y010697D01*
X015423Y010796D02*
X015250Y010796D01*
X015250Y010894D02*
X015348Y010894D01*
X015348Y010993D02*
X015250Y010993D01*
X015250Y011091D02*
X015348Y011091D01*
X015348Y011190D02*
X015250Y011190D01*
X015250Y011288D02*
X015348Y011288D01*
X015348Y011387D02*
X015250Y011387D01*
X015250Y011485D02*
X015373Y011485D01*
X015373Y011584D02*
X015250Y011584D01*
X015250Y011682D02*
X015373Y011682D01*
X015373Y011781D02*
X015250Y011781D01*
X015250Y011879D02*
X015373Y011879D01*
X015421Y011978D02*
X015250Y011978D01*
X015250Y012076D02*
X015457Y012076D01*
X015433Y012175D02*
X015250Y012175D01*
X015250Y012273D02*
X015433Y012273D01*
X015433Y012470D02*
X015250Y012470D01*
X015250Y012372D02*
X015752Y012372D01*
X017540Y011140D02*
X016600Y010200D01*
X016700Y009500D02*
X017550Y010350D01*
X017870Y010350D01*
X017870Y011140D02*
X017540Y011140D01*
X015512Y010106D02*
X015250Y010106D01*
X015250Y010205D02*
X015415Y010205D01*
X015408Y010303D02*
X015250Y010303D01*
X016700Y009500D02*
X016700Y009300D01*
X016600Y009200D01*
X017170Y008770D02*
X016600Y008200D01*
X016000Y007600D01*
X016000Y001700D01*
X016550Y001150D01*
X019727Y001150D01*
X019769Y001108D01*
X019796Y001650D02*
X019350Y001650D01*
X019250Y001550D01*
X017250Y001550D01*
X016600Y002200D01*
X016600Y003200D02*
X018050Y001750D01*
X019150Y001750D01*
X019350Y001950D01*
X019350Y002550D01*
X018840Y002400D02*
X017768Y002400D01*
X018158Y002010D01*
X018840Y002010D01*
X018840Y002400D01*
X018840Y002325D02*
X017843Y002325D01*
X017942Y002226D02*
X018840Y002226D01*
X018840Y002128D02*
X018040Y002128D01*
X018139Y002029D02*
X018840Y002029D01*
X019796Y001796D02*
X019796Y001650D01*
X019796Y001796D02*
X020150Y002150D01*
X020150Y002540D01*
X020140Y002550D01*
X020930Y002550D02*
X021000Y002480D01*
X021000Y002200D01*
X021650Y001550D01*
X026950Y001550D01*
X027600Y002200D01*
X028135Y002423D02*
X028923Y002423D01*
X028923Y002325D02*
X028176Y002325D01*
X028180Y002315D02*
X028092Y002529D01*
X027929Y002692D01*
X027909Y002700D01*
X027929Y002708D01*
X028092Y002871D01*
X028180Y003085D01*
X028180Y003315D01*
X028092Y003529D01*
X027929Y003692D01*
X027909Y003700D01*
X027929Y003708D01*
X028092Y003871D01*
X028180Y004085D01*
X028180Y004315D01*
X028092Y004529D01*
X027929Y004692D01*
X027909Y004700D01*
X027929Y004708D01*
X028092Y004871D01*
X028180Y005085D01*
X028180Y005315D01*
X028092Y005529D01*
X027929Y005692D01*
X027909Y005700D01*
X027929Y005708D01*
X028092Y005871D01*
X028180Y006085D01*
X028180Y006315D01*
X028092Y006529D01*
X027929Y006692D01*
X027829Y006733D01*
X027873Y006755D01*
X027939Y006803D01*
X027997Y006861D01*
X028045Y006927D01*
X028082Y007000D01*
X028107Y007078D01*
X028119Y007150D01*
X027650Y007150D01*
X027650Y007250D01*
X028119Y007250D01*
X028107Y007322D01*
X028082Y007400D01*
X028045Y007473D01*
X027997Y007539D01*
X027939Y007597D01*
X027873Y007645D01*
X027829Y007667D01*
X027929Y007708D01*
X028092Y007871D01*
X028180Y008085D01*
X028180Y008315D01*
X028092Y008529D01*
X027929Y008692D01*
X027909Y008700D01*
X027929Y008708D01*
X028092Y008871D01*
X028180Y009085D01*
X028180Y009315D01*
X028092Y009529D01*
X027929Y009692D01*
X027909Y009700D01*
X027929Y009708D01*
X028092Y009871D01*
X028180Y010085D01*
X028180Y010315D01*
X028092Y010529D01*
X027929Y010692D01*
X027909Y010700D01*
X027929Y010708D01*
X028092Y010871D01*
X028180Y011085D01*
X028180Y011315D01*
X028092Y011529D01*
X027929Y011692D01*
X027829Y011733D01*
X027873Y011755D01*
X027939Y011803D01*
X027997Y011861D01*
X028045Y011927D01*
X028082Y012000D01*
X028107Y012078D01*
X028119Y012150D01*
X027650Y012150D01*
X027650Y012250D01*
X028119Y012250D01*
X028107Y012322D01*
X028082Y012400D01*
X028045Y012473D01*
X027997Y012539D01*
X027985Y012550D01*
X028923Y012550D01*
X028923Y000900D01*
X023175Y000900D01*
X023178Y000912D01*
X023178Y001060D01*
X022899Y001060D01*
X022899Y001118D01*
X023178Y001118D01*
X023178Y001266D01*
X023172Y001290D01*
X027002Y001290D01*
X027097Y001330D01*
X027170Y001403D01*
X027416Y001648D01*
X027485Y001620D01*
X027715Y001620D01*
X027929Y001708D01*
X028092Y001871D01*
X028180Y002085D01*
X028180Y002315D01*
X028180Y002226D02*
X028923Y002226D01*
X028923Y002128D02*
X028180Y002128D01*
X028157Y002029D02*
X028923Y002029D01*
X028923Y001931D02*
X028116Y001931D01*
X028052Y001832D02*
X028923Y001832D01*
X028923Y001734D02*
X027954Y001734D01*
X027752Y001635D02*
X028923Y001635D01*
X028923Y001537D02*
X027304Y001537D01*
X027403Y001635D02*
X027448Y001635D01*
X027206Y001438D02*
X028923Y001438D01*
X028923Y001340D02*
X027107Y001340D01*
X026150Y001750D02*
X027600Y003200D01*
X028015Y003605D02*
X028923Y003605D01*
X028923Y003507D02*
X028101Y003507D01*
X028142Y003408D02*
X028923Y003408D01*
X028923Y003310D02*
X028180Y003310D01*
X028180Y003211D02*
X028923Y003211D01*
X028923Y003113D02*
X028180Y003113D01*
X028151Y003014D02*
X028923Y003014D01*
X028923Y002916D02*
X028110Y002916D01*
X028037Y002817D02*
X028923Y002817D01*
X028923Y002719D02*
X027939Y002719D01*
X028000Y002620D02*
X028923Y002620D01*
X028923Y002522D02*
X028095Y002522D01*
X028923Y001241D02*
X023178Y001241D01*
X023178Y001143D02*
X028923Y001143D01*
X028923Y001044D02*
X023178Y001044D01*
X023178Y000946D02*
X028923Y000946D01*
X026432Y002400D02*
X026042Y002010D01*
X025390Y002010D01*
X025390Y002400D01*
X026432Y002400D01*
X026357Y002325D02*
X025390Y002325D01*
X025390Y002226D02*
X026258Y002226D01*
X026160Y002128D02*
X025390Y002128D01*
X025390Y002029D02*
X026061Y002029D01*
X026150Y001750D02*
X021800Y001750D01*
X021720Y001830D01*
X021720Y002550D01*
X021000Y001650D02*
X020504Y001650D01*
X020478Y001623D01*
X020478Y001108D01*
X021072Y001086D02*
X021072Y001578D01*
X021000Y001650D01*
X021781Y001086D02*
X022277Y001086D01*
X022280Y001089D01*
X022871Y001089D02*
X023314Y001089D01*
X023350Y001125D01*
X026980Y004820D02*
X027600Y004200D01*
X028180Y004196D02*
X028923Y004196D01*
X028923Y004098D02*
X028180Y004098D01*
X028145Y003999D02*
X028923Y003999D01*
X028923Y003901D02*
X028104Y003901D01*
X028022Y003802D02*
X028923Y003802D01*
X028923Y003704D02*
X027917Y003704D01*
X028180Y004295D02*
X028923Y004295D01*
X028923Y004393D02*
X028148Y004393D01*
X028107Y004492D02*
X028923Y004492D01*
X028923Y004590D02*
X028030Y004590D01*
X027932Y004689D02*
X028923Y004689D01*
X028923Y004787D02*
X028007Y004787D01*
X028098Y004886D02*
X028923Y004886D01*
X028923Y004984D02*
X028138Y004984D01*
X028179Y005083D02*
X028923Y005083D01*
X028923Y005181D02*
X028180Y005181D01*
X028180Y005280D02*
X028923Y005280D01*
X028923Y005378D02*
X028154Y005378D01*
X028113Y005477D02*
X028923Y005477D01*
X028923Y005575D02*
X028045Y005575D01*
X027947Y005674D02*
X028923Y005674D01*
X028923Y005772D02*
X027992Y005772D01*
X028091Y005871D02*
X028923Y005871D01*
X028923Y005969D02*
X028132Y005969D01*
X028173Y006068D02*
X028923Y006068D01*
X028923Y006166D02*
X028180Y006166D01*
X028180Y006265D02*
X028923Y006265D01*
X028923Y006363D02*
X028160Y006363D01*
X028119Y006462D02*
X028923Y006462D01*
X028923Y006560D02*
X028060Y006560D01*
X027962Y006659D02*
X028923Y006659D01*
X028923Y006757D02*
X027875Y006757D01*
X027991Y006856D02*
X028923Y006856D01*
X028923Y006954D02*
X028058Y006954D01*
X028099Y007053D02*
X028923Y007053D01*
X028923Y007151D02*
X027650Y007151D01*
X027650Y007250D02*
X028923Y007250D01*
X028923Y007348D02*
X028099Y007348D01*
X028058Y007447D02*
X028923Y007447D01*
X028923Y007545D02*
X027990Y007545D01*
X027874Y007644D02*
X028923Y007644D01*
X028923Y007742D02*
X027962Y007742D01*
X028061Y007841D02*
X028923Y007841D01*
X028923Y007939D02*
X028120Y007939D01*
X028160Y008038D02*
X028923Y008038D01*
X028923Y008136D02*
X028180Y008136D01*
X028180Y008235D02*
X028923Y008235D01*
X028923Y008333D02*
X028173Y008333D01*
X028132Y008432D02*
X028923Y008432D01*
X028923Y008530D02*
X028090Y008530D01*
X027992Y008629D02*
X028923Y008629D01*
X028923Y008727D02*
X027947Y008727D01*
X028046Y008826D02*
X028923Y008826D01*
X028923Y008924D02*
X028113Y008924D01*
X028154Y009023D02*
X028923Y009023D01*
X028923Y009121D02*
X028180Y009121D01*
X028180Y009220D02*
X028923Y009220D01*
X028923Y009318D02*
X028179Y009318D01*
X028138Y009417D02*
X028923Y009417D01*
X028923Y009515D02*
X028097Y009515D01*
X028007Y009614D02*
X028923Y009614D01*
X028923Y009712D02*
X027932Y009712D01*
X028031Y009811D02*
X028923Y009811D01*
X028923Y009909D02*
X028107Y009909D01*
X028148Y010008D02*
X028923Y010008D01*
X028923Y010106D02*
X028180Y010106D01*
X028180Y010205D02*
X028923Y010205D01*
X028923Y010303D02*
X028180Y010303D01*
X028144Y010402D02*
X028923Y010402D01*
X028923Y010500D02*
X028104Y010500D01*
X028022Y010599D02*
X028923Y010599D01*
X028923Y010697D02*
X027916Y010697D01*
X028016Y010796D02*
X028923Y010796D01*
X028923Y010894D02*
X028101Y010894D01*
X028142Y010993D02*
X028923Y010993D01*
X028923Y011091D02*
X028180Y011091D01*
X028180Y011190D02*
X028923Y011190D01*
X028923Y011288D02*
X028180Y011288D01*
X028151Y011387D02*
X028923Y011387D01*
X028923Y011485D02*
X028110Y011485D01*
X028037Y011584D02*
X028923Y011584D01*
X028923Y011682D02*
X027938Y011682D01*
X027907Y011781D02*
X028923Y011781D01*
X028923Y011879D02*
X028010Y011879D01*
X028070Y011978D02*
X028923Y011978D01*
X028923Y012076D02*
X028106Y012076D01*
X028115Y012273D02*
X028923Y012273D01*
X028923Y012175D02*
X027650Y012175D01*
X028091Y012372D02*
X028923Y012372D01*
X028923Y012470D02*
X028046Y012470D01*
X027600Y011200D02*
X027540Y011140D01*
X026330Y011140D01*
X026330Y010350D02*
X027450Y010350D01*
X027600Y010200D01*
X027600Y009200D02*
X027170Y008770D01*
X026330Y008770D01*
X026330Y007980D02*
X027380Y007980D01*
X027600Y008200D01*
X027400Y006400D02*
X026330Y006400D01*
X027400Y006400D02*
X027600Y006200D01*
X027190Y005610D02*
X027600Y005200D01*
X027190Y005610D02*
X026330Y005610D01*
X026330Y004820D02*
X026980Y004820D01*
X017870Y004030D02*
X016770Y004030D01*
X016600Y004200D01*
X017127Y004444D02*
X017092Y004529D01*
X016929Y004692D01*
X016909Y004700D01*
X016929Y004708D01*
X017092Y004871D01*
X017160Y005036D01*
X017160Y004870D01*
X017500Y004870D01*
X017500Y004770D01*
X017160Y004770D01*
X017160Y004500D01*
X017165Y004482D01*
X017127Y004444D01*
X017107Y004492D02*
X017162Y004492D01*
X017160Y004590D02*
X017030Y004590D01*
X016932Y004689D02*
X017160Y004689D01*
X017007Y004787D02*
X017500Y004787D01*
X017160Y004886D02*
X017098Y004886D01*
X017138Y004984D02*
X017160Y004984D01*
X016600Y005200D02*
X017010Y005610D01*
X017870Y005610D01*
X016600Y006200D02*
X016600Y006400D01*
X017390Y007190D01*
X017870Y007190D01*
X017870Y007980D02*
X017380Y007980D01*
X016600Y007200D01*
X017170Y008770D02*
X017870Y008770D01*
M02*
