%
M48
M72
T01C0.0236
T02C0.0400
%
T01
X18625Y2175
X21000Y1650
X23350Y1125
X25950Y2175
T02
X16600Y2200
X16600Y3200
X16600Y4200
X16600Y5200
X16600Y6200
X16600Y7200
X16600Y8200
X16600Y9200
X16600Y10200
X16600Y11200
X16600Y12200
X27600Y12200
X27600Y11200
X27600Y10200
X27600Y9200
X27600Y8200
X27600Y7200
X27600Y6200
X27600Y5200
X27600Y4200
X27600Y3200
X27600Y2200
M30
