G75*
G70*
%OFA0B0*%
%FSLAX24Y24*%
%IPPOS*%
%LPD*%
%AMOC8*
5,1,8,0,0,1.08239X$1,22.5*
%
%ADD10C,0.0740*%
%ADD11C,0.0396*%
%ADD12C,0.0100*%
D10*
X016600Y002200D03*
X016600Y003200D03*
X016600Y004200D03*
X016600Y005200D03*
X016600Y006200D03*
X016600Y007200D03*
X016600Y008200D03*
X016600Y009200D03*
X016600Y010200D03*
X016600Y011200D03*
X016600Y012200D03*
X027600Y012200D03*
X027600Y011200D03*
X027600Y010200D03*
X027600Y009200D03*
X027600Y008200D03*
X027600Y007200D03*
X027600Y006200D03*
X027600Y005200D03*
X027600Y004200D03*
X027600Y003200D03*
X027600Y002200D03*
D11*
X025950Y002175D03*
X023350Y001125D03*
X021000Y001650D03*
X018625Y002175D03*
D12*
X015250Y000900D02*
X015250Y012550D01*
X016215Y012550D01*
X016203Y012539D01*
X016155Y012473D01*
X016118Y012400D01*
X016093Y012322D01*
X016081Y012250D01*
X016550Y012250D01*
X016550Y012150D01*
X016650Y012150D01*
X016650Y012250D01*
X017119Y012250D01*
X017107Y012322D01*
X017082Y012400D01*
X017045Y012473D01*
X016997Y012539D01*
X016985Y012550D01*
X027215Y012550D01*
X027203Y012539D01*
X027155Y012473D01*
X027118Y012400D01*
X027093Y012322D01*
X027081Y012250D01*
X027550Y012250D01*
X027550Y012150D01*
X027081Y012150D01*
X027093Y012078D01*
X027118Y012000D01*
X027155Y011927D01*
X027203Y011861D01*
X027261Y011803D01*
X027327Y011755D01*
X027400Y011718D01*
X027478Y011693D01*
X027550Y011681D01*
X027550Y012150D01*
X027650Y012150D01*
X027650Y012250D01*
X028119Y012250D01*
X028107Y012322D01*
X028082Y012400D01*
X028045Y012473D01*
X027997Y012539D01*
X027985Y012550D01*
X028923Y012550D01*
X028923Y000900D01*
X015250Y000900D01*
X015250Y000946D02*
X028923Y000946D01*
X028923Y001044D02*
X015250Y001044D01*
X015250Y001143D02*
X028923Y001143D01*
X028923Y001241D02*
X015250Y001241D01*
X015250Y001340D02*
X028923Y001340D01*
X028923Y001438D02*
X021224Y001438D01*
X021261Y001475D02*
X021308Y001589D01*
X021308Y001711D01*
X021261Y001825D01*
X021175Y001911D01*
X021061Y001958D01*
X020939Y001958D01*
X020825Y001911D01*
X020739Y001825D01*
X020692Y001711D01*
X020692Y001589D01*
X020739Y001475D01*
X020825Y001389D01*
X020939Y001342D01*
X021061Y001342D01*
X021175Y001389D01*
X021261Y001475D01*
X021286Y001537D02*
X028923Y001537D01*
X028923Y001635D02*
X021308Y001635D01*
X021299Y001734D02*
X027472Y001734D01*
X027505Y001720D02*
X027695Y001720D01*
X027872Y001793D01*
X028007Y001928D01*
X028080Y002105D01*
X028080Y002295D01*
X028007Y002472D01*
X027872Y002607D01*
X027695Y002680D01*
X027505Y002680D01*
X027328Y002607D01*
X027193Y002472D01*
X027120Y002295D01*
X027120Y002105D01*
X027193Y001928D01*
X027328Y001793D01*
X027505Y001720D01*
X027728Y001734D02*
X028923Y001734D01*
X028923Y001832D02*
X027911Y001832D01*
X028008Y001931D02*
X028923Y001931D01*
X028923Y002029D02*
X028049Y002029D01*
X028080Y002128D02*
X028923Y002128D01*
X028923Y002226D02*
X028080Y002226D01*
X028068Y002325D02*
X028923Y002325D01*
X028923Y002423D02*
X028027Y002423D01*
X027957Y002522D02*
X028923Y002522D01*
X028923Y002620D02*
X027840Y002620D01*
X027872Y002793D02*
X027695Y002720D01*
X027505Y002720D01*
X027328Y002793D01*
X027193Y002928D01*
X027120Y003105D01*
X027120Y003295D01*
X027193Y003472D01*
X027328Y003607D01*
X027505Y003680D01*
X027695Y003680D01*
X027872Y003607D01*
X028007Y003472D01*
X028080Y003295D01*
X028080Y003105D01*
X028007Y002928D01*
X027872Y002793D01*
X027896Y002817D02*
X028923Y002817D01*
X028923Y002719D02*
X015250Y002719D01*
X015250Y002817D02*
X016304Y002817D01*
X016328Y002793D02*
X016505Y002720D01*
X016695Y002720D01*
X016872Y002793D01*
X017007Y002928D01*
X017080Y003105D01*
X017080Y003295D01*
X017007Y003472D01*
X016872Y003607D01*
X016695Y003680D01*
X016505Y003680D01*
X016328Y003607D01*
X016193Y003472D01*
X016120Y003295D01*
X016120Y003105D01*
X016193Y002928D01*
X016328Y002793D01*
X016206Y002916D02*
X015250Y002916D01*
X015250Y003014D02*
X016157Y003014D01*
X016120Y003113D02*
X015250Y003113D01*
X015250Y003211D02*
X016120Y003211D01*
X016126Y003310D02*
X015250Y003310D01*
X015250Y003408D02*
X016167Y003408D01*
X016228Y003507D02*
X015250Y003507D01*
X015250Y003605D02*
X016326Y003605D01*
X016328Y003793D02*
X016505Y003720D01*
X016695Y003720D01*
X016872Y003793D01*
X017007Y003928D01*
X017080Y004105D01*
X017080Y004295D01*
X017007Y004472D01*
X016872Y004607D01*
X016695Y004680D01*
X016505Y004680D01*
X016328Y004607D01*
X016193Y004472D01*
X016120Y004295D01*
X016120Y004105D01*
X016193Y003928D01*
X016328Y003793D01*
X016319Y003802D02*
X015250Y003802D01*
X015250Y003704D02*
X028923Y003704D01*
X028923Y003802D02*
X027881Y003802D01*
X027872Y003793D02*
X028007Y003928D01*
X028080Y004105D01*
X028080Y004295D01*
X028007Y004472D01*
X027872Y004607D01*
X027695Y004680D01*
X027505Y004680D01*
X027328Y004607D01*
X027193Y004472D01*
X027120Y004295D01*
X027120Y004105D01*
X027193Y003928D01*
X027328Y003793D01*
X027505Y003720D01*
X027695Y003720D01*
X027872Y003793D01*
X027979Y003901D02*
X028923Y003901D01*
X028923Y003999D02*
X028036Y003999D01*
X028077Y004098D02*
X028923Y004098D01*
X028923Y004196D02*
X028080Y004196D01*
X028080Y004295D02*
X028923Y004295D01*
X028923Y004393D02*
X028040Y004393D01*
X027987Y004492D02*
X028923Y004492D01*
X028923Y004590D02*
X027889Y004590D01*
X027857Y004787D02*
X028923Y004787D01*
X028923Y004689D02*
X015250Y004689D01*
X015250Y004787D02*
X016343Y004787D01*
X016328Y004793D02*
X016505Y004720D01*
X016695Y004720D01*
X016872Y004793D01*
X017007Y004928D01*
X017080Y005105D01*
X017080Y005295D01*
X017007Y005472D01*
X016872Y005607D01*
X016695Y005680D01*
X016505Y005680D01*
X016328Y005607D01*
X016193Y005472D01*
X016120Y005295D01*
X016120Y005105D01*
X016193Y004928D01*
X016328Y004793D01*
X016236Y004886D02*
X015250Y004886D01*
X015250Y004984D02*
X016170Y004984D01*
X016129Y005083D02*
X015250Y005083D01*
X015250Y005181D02*
X016120Y005181D01*
X016120Y005280D02*
X015250Y005280D01*
X015250Y005378D02*
X016154Y005378D01*
X016198Y005477D02*
X015250Y005477D01*
X015250Y005575D02*
X016296Y005575D01*
X016379Y005772D02*
X015250Y005772D01*
X015250Y005674D02*
X016489Y005674D01*
X016505Y005720D02*
X016695Y005720D01*
X016872Y005793D01*
X017007Y005928D01*
X017080Y006105D01*
X017080Y006295D01*
X017007Y006472D01*
X016872Y006607D01*
X016695Y006680D01*
X016505Y006680D01*
X016328Y006607D01*
X016193Y006472D01*
X016120Y006295D01*
X016120Y006105D01*
X016193Y005928D01*
X016328Y005793D01*
X016505Y005720D01*
X016711Y005674D02*
X027489Y005674D01*
X027505Y005680D02*
X027328Y005607D01*
X027193Y005472D01*
X027120Y005295D01*
X027120Y005105D01*
X027193Y004928D01*
X027328Y004793D01*
X027505Y004720D01*
X027695Y004720D01*
X027872Y004793D01*
X028007Y004928D01*
X028080Y005105D01*
X028080Y005295D01*
X028007Y005472D01*
X027872Y005607D01*
X027695Y005680D01*
X027505Y005680D01*
X027505Y005720D02*
X027695Y005720D01*
X027872Y005793D01*
X028007Y005928D01*
X028080Y006105D01*
X028080Y006295D01*
X028007Y006472D01*
X027872Y006607D01*
X027695Y006680D01*
X027505Y006680D01*
X027328Y006607D01*
X027193Y006472D01*
X027120Y006295D01*
X027120Y006105D01*
X027193Y005928D01*
X027328Y005793D01*
X027505Y005720D01*
X027379Y005772D02*
X016821Y005772D01*
X016949Y005871D02*
X027251Y005871D01*
X027176Y005969D02*
X017024Y005969D01*
X017065Y006068D02*
X027135Y006068D01*
X027120Y006166D02*
X017080Y006166D01*
X017080Y006265D02*
X027120Y006265D01*
X027148Y006363D02*
X017052Y006363D01*
X017011Y006462D02*
X027189Y006462D01*
X027281Y006560D02*
X016919Y006560D01*
X016747Y006659D02*
X027453Y006659D01*
X027478Y006693D02*
X027550Y006681D01*
X027550Y007150D01*
X027650Y007150D01*
X027650Y007250D01*
X028119Y007250D01*
X028107Y007322D01*
X028082Y007400D01*
X028045Y007473D01*
X027997Y007539D01*
X027939Y007597D01*
X027873Y007645D01*
X027800Y007682D01*
X027722Y007707D01*
X027650Y007719D01*
X027650Y007250D01*
X027550Y007250D01*
X027550Y007719D01*
X027478Y007707D01*
X027400Y007682D01*
X027327Y007645D01*
X027261Y007597D01*
X027203Y007539D01*
X027155Y007473D01*
X027118Y007400D01*
X027093Y007322D01*
X027081Y007250D01*
X027550Y007250D01*
X027550Y007150D01*
X027081Y007150D01*
X027093Y007078D01*
X027118Y007000D01*
X027155Y006927D01*
X027203Y006861D01*
X027261Y006803D01*
X027327Y006755D01*
X027400Y006718D01*
X027478Y006693D01*
X027550Y006757D02*
X027650Y006757D01*
X027650Y006681D02*
X027722Y006693D01*
X027800Y006718D01*
X027873Y006755D01*
X027939Y006803D01*
X027997Y006861D01*
X028045Y006927D01*
X028082Y007000D01*
X028107Y007078D01*
X028119Y007150D01*
X027650Y007150D01*
X027650Y006681D01*
X027747Y006659D02*
X028923Y006659D01*
X028923Y006757D02*
X027875Y006757D01*
X027991Y006856D02*
X028923Y006856D01*
X028923Y006954D02*
X028058Y006954D01*
X028099Y007053D02*
X028923Y007053D01*
X028923Y007151D02*
X027650Y007151D01*
X027650Y007053D02*
X027550Y007053D01*
X027550Y007151D02*
X017080Y007151D01*
X017080Y007105D02*
X017007Y006928D01*
X016872Y006793D01*
X016695Y006720D01*
X016505Y006720D01*
X016328Y006793D01*
X016193Y006928D01*
X016120Y007105D01*
X016120Y007295D01*
X016193Y007472D01*
X016328Y007607D01*
X016505Y007680D01*
X016695Y007680D01*
X016872Y007607D01*
X017007Y007472D01*
X017080Y007295D01*
X017080Y007105D01*
X017058Y007053D02*
X027101Y007053D01*
X027142Y006954D02*
X017018Y006954D01*
X016934Y006856D02*
X027209Y006856D01*
X027325Y006757D02*
X016785Y006757D01*
X016453Y006659D02*
X015250Y006659D01*
X015250Y006757D02*
X016415Y006757D01*
X016266Y006856D02*
X015250Y006856D01*
X015250Y006954D02*
X016182Y006954D01*
X016142Y007053D02*
X015250Y007053D01*
X015250Y007151D02*
X016120Y007151D01*
X016120Y007250D02*
X015250Y007250D01*
X015250Y007348D02*
X016142Y007348D01*
X016183Y007447D02*
X015250Y007447D01*
X015250Y007545D02*
X016266Y007545D01*
X016416Y007644D02*
X015250Y007644D01*
X015250Y007742D02*
X016451Y007742D01*
X016505Y007720D02*
X016695Y007720D01*
X016872Y007793D01*
X017007Y007928D01*
X017080Y008105D01*
X017080Y008295D01*
X017007Y008472D01*
X016872Y008607D01*
X016695Y008680D01*
X016505Y008680D01*
X016328Y008607D01*
X016193Y008472D01*
X016120Y008295D01*
X016120Y008105D01*
X016193Y007928D01*
X016328Y007793D01*
X016505Y007720D01*
X016749Y007742D02*
X027451Y007742D01*
X027505Y007720D02*
X027695Y007720D01*
X027872Y007793D01*
X028007Y007928D01*
X028080Y008105D01*
X028080Y008295D01*
X028007Y008472D01*
X027872Y008607D01*
X027695Y008680D01*
X027505Y008680D01*
X027328Y008607D01*
X027193Y008472D01*
X027120Y008295D01*
X027120Y008105D01*
X027193Y007928D01*
X027328Y007793D01*
X027505Y007720D01*
X027550Y007644D02*
X027650Y007644D01*
X027650Y007545D02*
X027550Y007545D01*
X027550Y007447D02*
X027650Y007447D01*
X027650Y007348D02*
X027550Y007348D01*
X027550Y007250D02*
X017080Y007250D01*
X017058Y007348D02*
X027101Y007348D01*
X027142Y007447D02*
X017017Y007447D01*
X016934Y007545D02*
X027210Y007545D01*
X027326Y007644D02*
X016784Y007644D01*
X016919Y007841D02*
X027281Y007841D01*
X027189Y007939D02*
X017011Y007939D01*
X017052Y008038D02*
X027148Y008038D01*
X027120Y008136D02*
X017080Y008136D01*
X017080Y008235D02*
X027120Y008235D01*
X027136Y008333D02*
X017064Y008333D01*
X017024Y008432D02*
X027176Y008432D01*
X027251Y008530D02*
X016949Y008530D01*
X016820Y008629D02*
X027380Y008629D01*
X027488Y008727D02*
X016712Y008727D01*
X016695Y008720D02*
X016872Y008793D01*
X017007Y008928D01*
X017080Y009105D01*
X017080Y009295D01*
X017007Y009472D01*
X016872Y009607D01*
X016695Y009680D01*
X016505Y009680D01*
X016328Y009607D01*
X016193Y009472D01*
X016120Y009295D01*
X016120Y009105D01*
X016193Y008928D01*
X016328Y008793D01*
X016505Y008720D01*
X016695Y008720D01*
X016488Y008727D02*
X015250Y008727D01*
X015250Y008629D02*
X016380Y008629D01*
X016251Y008530D02*
X015250Y008530D01*
X015250Y008432D02*
X016176Y008432D01*
X016136Y008333D02*
X015250Y008333D01*
X015250Y008235D02*
X016120Y008235D01*
X016120Y008136D02*
X015250Y008136D01*
X015250Y008038D02*
X016148Y008038D01*
X016189Y007939D02*
X015250Y007939D01*
X015250Y007841D02*
X016281Y007841D01*
X016296Y008826D02*
X015250Y008826D01*
X015250Y008924D02*
X016197Y008924D01*
X016154Y009023D02*
X015250Y009023D01*
X015250Y009121D02*
X016120Y009121D01*
X016120Y009220D02*
X015250Y009220D01*
X015250Y009318D02*
X016129Y009318D01*
X016170Y009417D02*
X015250Y009417D01*
X015250Y009515D02*
X016236Y009515D01*
X016344Y009614D02*
X015250Y009614D01*
X015250Y009712D02*
X028923Y009712D01*
X028923Y009614D02*
X027856Y009614D01*
X027872Y009607D02*
X027695Y009680D01*
X027505Y009680D01*
X027328Y009607D01*
X027193Y009472D01*
X027120Y009295D01*
X027120Y009105D01*
X027193Y008928D01*
X027328Y008793D01*
X027505Y008720D01*
X027695Y008720D01*
X027872Y008793D01*
X028007Y008928D01*
X028080Y009105D01*
X028080Y009295D01*
X028007Y009472D01*
X027872Y009607D01*
X027964Y009515D02*
X028923Y009515D01*
X028923Y009417D02*
X028030Y009417D01*
X028071Y009318D02*
X028923Y009318D01*
X028923Y009220D02*
X028080Y009220D01*
X028080Y009121D02*
X028923Y009121D01*
X028923Y009023D02*
X028046Y009023D01*
X028003Y008924D02*
X028923Y008924D01*
X028923Y008826D02*
X027904Y008826D01*
X027820Y008629D02*
X028923Y008629D01*
X028923Y008727D02*
X027712Y008727D01*
X027949Y008530D02*
X028923Y008530D01*
X028923Y008432D02*
X028024Y008432D01*
X028064Y008333D02*
X028923Y008333D01*
X028923Y008235D02*
X028080Y008235D01*
X028080Y008136D02*
X028923Y008136D01*
X028923Y008038D02*
X028052Y008038D01*
X028011Y007939D02*
X028923Y007939D01*
X028923Y007841D02*
X027919Y007841D01*
X027749Y007742D02*
X028923Y007742D01*
X028923Y007644D02*
X027874Y007644D01*
X027990Y007545D02*
X028923Y007545D01*
X028923Y007447D02*
X028058Y007447D01*
X028099Y007348D02*
X028923Y007348D01*
X028923Y007250D02*
X027650Y007250D01*
X027650Y006954D02*
X027550Y006954D01*
X027550Y006856D02*
X027650Y006856D01*
X027919Y006560D02*
X028923Y006560D01*
X028923Y006462D02*
X028011Y006462D01*
X028052Y006363D02*
X028923Y006363D01*
X028923Y006265D02*
X028080Y006265D01*
X028080Y006166D02*
X028923Y006166D01*
X028923Y006068D02*
X028065Y006068D01*
X028024Y005969D02*
X028923Y005969D01*
X028923Y005871D02*
X027949Y005871D01*
X027821Y005772D02*
X028923Y005772D01*
X028923Y005674D02*
X027711Y005674D01*
X027904Y005575D02*
X028923Y005575D01*
X028923Y005477D02*
X028002Y005477D01*
X028046Y005378D02*
X028923Y005378D01*
X028923Y005280D02*
X028080Y005280D01*
X028080Y005181D02*
X028923Y005181D01*
X028923Y005083D02*
X028071Y005083D01*
X028030Y004984D02*
X028923Y004984D01*
X028923Y004886D02*
X027964Y004886D01*
X027343Y004787D02*
X016857Y004787D01*
X016964Y004886D02*
X027236Y004886D01*
X027170Y004984D02*
X017030Y004984D01*
X017071Y005083D02*
X027129Y005083D01*
X027120Y005181D02*
X017080Y005181D01*
X017080Y005280D02*
X027120Y005280D01*
X027154Y005378D02*
X017046Y005378D01*
X017002Y005477D02*
X027198Y005477D01*
X027296Y005575D02*
X016904Y005575D01*
X016251Y005871D02*
X015250Y005871D01*
X015250Y005969D02*
X016176Y005969D01*
X016135Y006068D02*
X015250Y006068D01*
X015250Y006166D02*
X016120Y006166D01*
X016120Y006265D02*
X015250Y006265D01*
X015250Y006363D02*
X016148Y006363D01*
X016189Y006462D02*
X015250Y006462D01*
X015250Y006560D02*
X016281Y006560D01*
X016311Y004590D02*
X015250Y004590D01*
X015250Y004492D02*
X016213Y004492D01*
X016160Y004393D02*
X015250Y004393D01*
X015250Y004295D02*
X016120Y004295D01*
X016120Y004196D02*
X015250Y004196D01*
X015250Y004098D02*
X016123Y004098D01*
X016164Y003999D02*
X015250Y003999D01*
X015250Y003901D02*
X016221Y003901D01*
X016881Y003802D02*
X027319Y003802D01*
X027221Y003901D02*
X016979Y003901D01*
X017036Y003999D02*
X027164Y003999D01*
X027123Y004098D02*
X017077Y004098D01*
X017080Y004196D02*
X027120Y004196D01*
X027120Y004295D02*
X017080Y004295D01*
X017040Y004393D02*
X027160Y004393D01*
X027213Y004492D02*
X016987Y004492D01*
X016889Y004590D02*
X027311Y004590D01*
X027326Y003605D02*
X016874Y003605D01*
X016972Y003507D02*
X027228Y003507D01*
X027167Y003408D02*
X017033Y003408D01*
X017074Y003310D02*
X027126Y003310D01*
X027120Y003211D02*
X017080Y003211D01*
X017080Y003113D02*
X027120Y003113D01*
X027157Y003014D02*
X017043Y003014D01*
X016994Y002916D02*
X027206Y002916D01*
X027304Y002817D02*
X016896Y002817D01*
X016840Y002620D02*
X027360Y002620D01*
X027243Y002522D02*
X016957Y002522D01*
X017007Y002472D02*
X016872Y002607D01*
X016695Y002680D01*
X016505Y002680D01*
X016328Y002607D01*
X016193Y002472D01*
X016120Y002295D01*
X016120Y002105D01*
X016193Y001928D01*
X016328Y001793D01*
X016505Y001720D01*
X016695Y001720D01*
X016872Y001793D01*
X017007Y001928D01*
X017080Y002105D01*
X017080Y002295D01*
X017007Y002472D01*
X017027Y002423D02*
X027173Y002423D01*
X027132Y002325D02*
X017068Y002325D01*
X017080Y002226D02*
X027120Y002226D01*
X027120Y002128D02*
X017080Y002128D01*
X017049Y002029D02*
X027151Y002029D01*
X027192Y001931D02*
X021128Y001931D01*
X021254Y001832D02*
X027289Y001832D01*
X027994Y002916D02*
X028923Y002916D01*
X028923Y003014D02*
X028043Y003014D01*
X028080Y003113D02*
X028923Y003113D01*
X028923Y003211D02*
X028080Y003211D01*
X028074Y003310D02*
X028923Y003310D01*
X028923Y003408D02*
X028033Y003408D01*
X027972Y003507D02*
X028923Y003507D01*
X028923Y003605D02*
X027874Y003605D01*
X020872Y001931D02*
X017008Y001931D01*
X016911Y001832D02*
X020746Y001832D01*
X020701Y001734D02*
X016728Y001734D01*
X016472Y001734D02*
X015250Y001734D01*
X015250Y001832D02*
X016289Y001832D01*
X016192Y001931D02*
X015250Y001931D01*
X015250Y002029D02*
X016151Y002029D01*
X016120Y002128D02*
X015250Y002128D01*
X015250Y002226D02*
X016120Y002226D01*
X016132Y002325D02*
X015250Y002325D01*
X015250Y002423D02*
X016173Y002423D01*
X016243Y002522D02*
X015250Y002522D01*
X015250Y002620D02*
X016360Y002620D01*
X015250Y001635D02*
X020692Y001635D01*
X020714Y001537D02*
X015250Y001537D01*
X015250Y001438D02*
X020776Y001438D01*
X016904Y008826D02*
X027296Y008826D01*
X027197Y008924D02*
X017003Y008924D01*
X017046Y009023D02*
X027154Y009023D01*
X027120Y009121D02*
X017080Y009121D01*
X017080Y009220D02*
X027120Y009220D01*
X027129Y009318D02*
X017071Y009318D01*
X017030Y009417D02*
X027170Y009417D01*
X027236Y009515D02*
X016964Y009515D01*
X016856Y009614D02*
X027344Y009614D01*
X027328Y009793D02*
X027505Y009720D01*
X027695Y009720D01*
X027872Y009793D01*
X028007Y009928D01*
X028080Y010105D01*
X028080Y010295D01*
X028007Y010472D01*
X027872Y010607D01*
X027695Y010680D01*
X027505Y010680D01*
X027328Y010607D01*
X027193Y010472D01*
X027120Y010295D01*
X027120Y010105D01*
X027193Y009928D01*
X027328Y009793D01*
X027311Y009811D02*
X016889Y009811D01*
X016872Y009793D02*
X017007Y009928D01*
X017080Y010105D01*
X017080Y010295D01*
X017007Y010472D01*
X016872Y010607D01*
X016695Y010680D01*
X016505Y010680D01*
X016328Y010607D01*
X016193Y010472D01*
X016120Y010295D01*
X016120Y010105D01*
X016193Y009928D01*
X016328Y009793D01*
X016505Y009720D01*
X016695Y009720D01*
X016872Y009793D01*
X016988Y009909D02*
X027212Y009909D01*
X027160Y010008D02*
X017040Y010008D01*
X017080Y010106D02*
X027120Y010106D01*
X027120Y010205D02*
X017080Y010205D01*
X017077Y010303D02*
X027123Y010303D01*
X027164Y010402D02*
X017036Y010402D01*
X016979Y010500D02*
X027221Y010500D01*
X027320Y010599D02*
X016880Y010599D01*
X016872Y010793D02*
X017007Y010928D01*
X017080Y011105D01*
X017080Y011295D01*
X017007Y011472D01*
X016872Y011607D01*
X016695Y011680D01*
X016505Y011680D01*
X016328Y011607D01*
X016193Y011472D01*
X016120Y011295D01*
X016120Y011105D01*
X016193Y010928D01*
X016328Y010793D01*
X016505Y010720D01*
X016695Y010720D01*
X016872Y010793D01*
X016874Y010796D02*
X027326Y010796D01*
X027328Y010793D02*
X027505Y010720D01*
X027695Y010720D01*
X027872Y010793D01*
X028007Y010928D01*
X028080Y011105D01*
X028080Y011295D01*
X028007Y011472D01*
X027872Y011607D01*
X027695Y011680D01*
X027505Y011680D01*
X027328Y011607D01*
X027193Y011472D01*
X027120Y011295D01*
X027120Y011105D01*
X027193Y010928D01*
X027328Y010793D01*
X027227Y010894D02*
X016973Y010894D01*
X017034Y010993D02*
X027166Y010993D01*
X027126Y011091D02*
X017074Y011091D01*
X017080Y011190D02*
X027120Y011190D01*
X027120Y011288D02*
X017080Y011288D01*
X017042Y011387D02*
X027158Y011387D01*
X027206Y011485D02*
X016994Y011485D01*
X016895Y011584D02*
X027305Y011584D01*
X027293Y011781D02*
X016907Y011781D01*
X016939Y011803D02*
X016997Y011861D01*
X017045Y011927D01*
X017082Y012000D01*
X017107Y012078D01*
X017119Y012150D01*
X016650Y012150D01*
X016650Y011681D01*
X016722Y011693D01*
X016800Y011718D01*
X016873Y011755D01*
X016939Y011803D01*
X017010Y011879D02*
X027190Y011879D01*
X027130Y011978D02*
X017070Y011978D01*
X017106Y012076D02*
X027094Y012076D01*
X027085Y012273D02*
X017115Y012273D01*
X017091Y012372D02*
X027109Y012372D01*
X027154Y012470D02*
X017046Y012470D01*
X016650Y012175D02*
X027550Y012175D01*
X027550Y012076D02*
X027650Y012076D01*
X027650Y012150D02*
X027650Y011681D01*
X027722Y011693D01*
X027800Y011718D01*
X027873Y011755D01*
X027939Y011803D01*
X027997Y011861D01*
X028045Y011927D01*
X028082Y012000D01*
X028107Y012078D01*
X028119Y012150D01*
X027650Y012150D01*
X027650Y012175D02*
X028923Y012175D01*
X028923Y012273D02*
X028115Y012273D01*
X028091Y012372D02*
X028923Y012372D01*
X028923Y012470D02*
X028046Y012470D01*
X028106Y012076D02*
X028923Y012076D01*
X028923Y011978D02*
X028070Y011978D01*
X028010Y011879D02*
X028923Y011879D01*
X028923Y011781D02*
X027907Y011781D01*
X027895Y011584D02*
X028923Y011584D01*
X028923Y011682D02*
X027654Y011682D01*
X027650Y011682D02*
X027550Y011682D01*
X027546Y011682D02*
X016654Y011682D01*
X016650Y011682D02*
X016550Y011682D01*
X016550Y011681D02*
X016550Y012150D01*
X016081Y012150D01*
X016093Y012078D01*
X016118Y012000D01*
X016155Y011927D01*
X016203Y011861D01*
X016261Y011803D01*
X016327Y011755D01*
X016400Y011718D01*
X016478Y011693D01*
X016550Y011681D01*
X016546Y011682D02*
X015250Y011682D01*
X015250Y011584D02*
X016305Y011584D01*
X016206Y011485D02*
X015250Y011485D01*
X015250Y011387D02*
X016158Y011387D01*
X016120Y011288D02*
X015250Y011288D01*
X015250Y011190D02*
X016120Y011190D01*
X016126Y011091D02*
X015250Y011091D01*
X015250Y010993D02*
X016166Y010993D01*
X016227Y010894D02*
X015250Y010894D01*
X015250Y010796D02*
X016326Y010796D01*
X016320Y010599D02*
X015250Y010599D01*
X015250Y010697D02*
X028923Y010697D01*
X028923Y010599D02*
X027880Y010599D01*
X027979Y010500D02*
X028923Y010500D01*
X028923Y010402D02*
X028036Y010402D01*
X028077Y010303D02*
X028923Y010303D01*
X028923Y010205D02*
X028080Y010205D01*
X028080Y010106D02*
X028923Y010106D01*
X028923Y010008D02*
X028040Y010008D01*
X027988Y009909D02*
X028923Y009909D01*
X028923Y009811D02*
X027889Y009811D01*
X027874Y010796D02*
X028923Y010796D01*
X028923Y010894D02*
X027973Y010894D01*
X028034Y010993D02*
X028923Y010993D01*
X028923Y011091D02*
X028074Y011091D01*
X028080Y011190D02*
X028923Y011190D01*
X028923Y011288D02*
X028080Y011288D01*
X028042Y011387D02*
X028923Y011387D01*
X028923Y011485D02*
X027994Y011485D01*
X027650Y011781D02*
X027550Y011781D01*
X027550Y011879D02*
X027650Y011879D01*
X027650Y011978D02*
X027550Y011978D01*
X016650Y011978D02*
X016550Y011978D01*
X016550Y012076D02*
X016650Y012076D01*
X016550Y012175D02*
X015250Y012175D01*
X015250Y012273D02*
X016085Y012273D01*
X016109Y012372D02*
X015250Y012372D01*
X015250Y012470D02*
X016154Y012470D01*
X016094Y012076D02*
X015250Y012076D01*
X015250Y011978D02*
X016130Y011978D01*
X016190Y011879D02*
X015250Y011879D01*
X015250Y011781D02*
X016293Y011781D01*
X016550Y011781D02*
X016650Y011781D01*
X016650Y011879D02*
X016550Y011879D01*
X016221Y010500D02*
X015250Y010500D01*
X015250Y010402D02*
X016164Y010402D01*
X016123Y010303D02*
X015250Y010303D01*
X015250Y010205D02*
X016120Y010205D01*
X016120Y010106D02*
X015250Y010106D01*
X015250Y010008D02*
X016160Y010008D01*
X016212Y009909D02*
X015250Y009909D01*
X015250Y009811D02*
X016311Y009811D01*
M02*
