G75*
G70*
%OFA0B0*%
%FSLAX24Y24*%
%IPPOS*%
%LPD*%
%AMOC8*
5,1,8,0,0,1.08239X$1,22.5*
%
%ADD10R,0.0315X0.0315*%
%ADD11R,0.0394X0.0433*%
%ADD12R,0.1120X0.0600*%
%ADD13R,0.0600X0.1120*%
%ADD14R,0.0433X0.0394*%
D10*
X022280Y001089D03*
X022871Y001089D03*
D11*
X021781Y001086D03*
X021072Y001086D03*
X020478Y001108D03*
X020504Y001650D03*
X019796Y001650D03*
X019769Y001108D03*
D12*
X017870Y003240D03*
X017870Y004030D03*
X017870Y004820D03*
X017870Y005610D03*
X017870Y006400D03*
X017870Y007190D03*
X017870Y007980D03*
X017870Y008770D03*
X017870Y009560D03*
X017870Y010350D03*
X017870Y011140D03*
X017870Y011930D03*
X017870Y012720D03*
X026330Y012720D03*
X026330Y011930D03*
X026330Y011140D03*
X026330Y010350D03*
X026330Y009560D03*
X026330Y008770D03*
X026330Y007980D03*
X026330Y007190D03*
X026330Y006400D03*
X026330Y005610D03*
X026330Y004820D03*
X026330Y004030D03*
X026330Y003240D03*
X026330Y013510D03*
X026330Y014300D03*
X026330Y015090D03*
D13*
X024880Y002550D03*
X024090Y002550D03*
X023300Y002550D03*
X022510Y002550D03*
X021720Y002550D03*
X020930Y002550D03*
X020140Y002550D03*
X019350Y002550D03*
D14*
X015775Y010446D03*
X015775Y011154D03*
X015800Y011646D03*
X015800Y012354D03*
M02*
