G75*
G70*
%OFA0B0*%
%FSLAX24Y24*%
%IPPOS*%
%LPD*%
%AMOC8*
5,1,8,0,0,1.08239X$1,22.5*
%
%ADD10C,0.0000*%
%ADD11C,0.0050*%
%ADD12C,0.0100*%
%ADD13C,0.0030*%
%ADD14C,0.0080*%
%ADD15C,0.0040*%
%ADD16R,0.0118X0.0059*%
%ADD17R,0.0118X0.0118*%
%ADD18C,0.0200*%
%ADD19C,0.0060*%
D10*
X015000Y000650D02*
X015000Y016472D01*
X029173Y016472D01*
X029173Y000650D01*
X015000Y000650D01*
D11*
X015215Y002058D02*
X015305Y002058D01*
X015260Y002058D02*
X015260Y002328D01*
X015215Y002328D02*
X015305Y002328D01*
X015411Y002238D02*
X015501Y002328D01*
X015501Y002058D01*
X015411Y002058D02*
X015592Y002058D01*
X015706Y002058D02*
X015706Y002103D01*
X015886Y002283D01*
X015886Y002328D01*
X015706Y002328D01*
X015751Y003058D02*
X015706Y003103D01*
X015706Y003148D01*
X015751Y003193D01*
X015841Y003193D01*
X015886Y003148D01*
X015886Y003103D01*
X015841Y003058D01*
X015751Y003058D01*
X015751Y003193D02*
X015706Y003238D01*
X015706Y003283D01*
X015751Y003328D01*
X015841Y003328D01*
X015886Y003283D01*
X015886Y003238D01*
X015841Y003193D01*
X015592Y003058D02*
X015411Y003058D01*
X015501Y003058D02*
X015501Y003328D01*
X015411Y003238D01*
X015305Y003328D02*
X015215Y003328D01*
X015260Y003328D02*
X015260Y003058D01*
X015215Y003058D02*
X015305Y003058D01*
X015305Y004058D02*
X015215Y004058D01*
X015260Y004058D02*
X015260Y004328D01*
X015215Y004328D02*
X015305Y004328D01*
X015411Y004238D02*
X015501Y004328D01*
X015501Y004058D01*
X015411Y004058D02*
X015592Y004058D01*
X015706Y004103D02*
X015751Y004058D01*
X015841Y004058D01*
X015886Y004103D01*
X015886Y004283D01*
X015841Y004328D01*
X015751Y004328D01*
X015706Y004283D01*
X015706Y004238D01*
X015751Y004193D01*
X015886Y004193D01*
X015841Y005058D02*
X015751Y005058D01*
X015706Y005103D01*
X015706Y005148D01*
X015751Y005193D01*
X015841Y005193D01*
X015886Y005148D01*
X015886Y005103D01*
X015841Y005058D01*
X015841Y005193D02*
X015886Y005238D01*
X015886Y005283D01*
X015841Y005328D01*
X015751Y005328D01*
X015706Y005283D01*
X015706Y005238D01*
X015751Y005193D01*
X015592Y005283D02*
X015411Y005103D01*
X015456Y005058D01*
X015547Y005058D01*
X015592Y005103D01*
X015592Y005283D01*
X015547Y005328D01*
X015456Y005328D01*
X015411Y005283D01*
X015411Y005103D01*
X015305Y005058D02*
X015215Y005058D01*
X015260Y005058D02*
X015260Y005328D01*
X015215Y005328D02*
X015305Y005328D01*
X015305Y006058D02*
X015215Y006058D01*
X015260Y006058D02*
X015260Y006328D01*
X015215Y006328D02*
X015305Y006328D01*
X015411Y006238D02*
X015501Y006328D01*
X015501Y006058D01*
X015411Y006058D02*
X015592Y006058D01*
X015706Y006058D02*
X015886Y006058D01*
X015796Y006058D02*
X015796Y006328D01*
X015706Y006238D01*
X015751Y007058D02*
X015706Y007103D01*
X015886Y007283D01*
X015886Y007103D01*
X015841Y007058D01*
X015751Y007058D01*
X015706Y007103D02*
X015706Y007283D01*
X015751Y007328D01*
X015841Y007328D01*
X015886Y007283D01*
X015592Y007058D02*
X015411Y007058D01*
X015501Y007058D02*
X015501Y007328D01*
X015411Y007238D01*
X015305Y007328D02*
X015215Y007328D01*
X015260Y007328D02*
X015260Y007058D01*
X015215Y007058D02*
X015305Y007058D01*
X015215Y008058D02*
X015215Y008328D01*
X015350Y008328D01*
X015395Y008283D01*
X015395Y008193D01*
X015350Y008148D01*
X015215Y008148D01*
X015305Y008148D02*
X015395Y008058D01*
X015510Y008103D02*
X015555Y008058D01*
X015645Y008058D01*
X015690Y008103D01*
X015690Y008148D01*
X015645Y008193D01*
X015555Y008193D01*
X015510Y008238D01*
X015510Y008283D01*
X015555Y008328D01*
X015645Y008328D01*
X015690Y008283D01*
X015804Y008328D02*
X015984Y008328D01*
X015894Y008328D02*
X015894Y008058D01*
X015841Y009058D02*
X015841Y009328D01*
X015706Y009193D01*
X015886Y009193D01*
X015592Y009058D02*
X015411Y009058D01*
X015501Y009058D02*
X015501Y009328D01*
X015411Y009238D01*
X015305Y009328D02*
X015215Y009328D01*
X015260Y009328D02*
X015260Y009058D01*
X015215Y009058D02*
X015305Y009058D01*
X015305Y009858D02*
X015215Y009858D01*
X015260Y009858D02*
X015260Y010128D01*
X015215Y010128D02*
X015305Y010128D01*
X015411Y010038D02*
X015501Y010128D01*
X015501Y009858D01*
X015411Y009858D02*
X015592Y009858D01*
X015706Y009903D02*
X015751Y009858D01*
X015841Y009858D01*
X015886Y009903D01*
X015886Y009948D01*
X015841Y009993D01*
X015796Y009993D01*
X015841Y009993D02*
X015886Y010038D01*
X015886Y010083D01*
X015841Y010128D01*
X015751Y010128D01*
X015706Y010083D01*
X015448Y010627D02*
X015506Y010686D01*
X015506Y010803D01*
X015448Y010861D01*
X015390Y010861D01*
X015331Y010803D01*
X015331Y010744D01*
X015331Y010803D02*
X015273Y010861D01*
X015214Y010861D01*
X015156Y010803D01*
X015156Y010686D01*
X015214Y010627D01*
X015448Y010996D02*
X015448Y011054D01*
X015506Y011054D01*
X015506Y010996D01*
X015448Y010996D01*
X015448Y011180D02*
X015506Y011238D01*
X015506Y011355D01*
X015448Y011413D01*
X015390Y011413D01*
X015331Y011355D01*
X015331Y011297D01*
X015331Y011355D02*
X015273Y011413D01*
X015214Y011413D01*
X015156Y011355D01*
X015156Y011238D01*
X015214Y011180D01*
X015156Y011548D02*
X015390Y011548D01*
X015506Y011665D01*
X015390Y011782D01*
X015156Y011782D01*
X016193Y012843D02*
X016310Y012843D01*
X016369Y012901D01*
X016369Y013018D01*
X016252Y013018D01*
X016369Y013134D02*
X016310Y013193D01*
X016193Y013193D01*
X016135Y013134D01*
X016135Y012901D01*
X016193Y012843D01*
X016503Y012843D02*
X016503Y013193D01*
X016737Y012843D01*
X016737Y013193D01*
X016872Y013193D02*
X016872Y012843D01*
X017047Y012843D01*
X017105Y012901D01*
X017105Y013134D01*
X017047Y013193D01*
X016872Y013193D01*
X017770Y013150D02*
X017770Y015750D01*
X026430Y015750D01*
X026430Y015550D01*
X028260Y012328D02*
X028215Y012283D01*
X028215Y012103D01*
X028260Y012058D01*
X028350Y012058D01*
X028395Y012103D01*
X028395Y012193D01*
X028305Y012193D01*
X028395Y012283D02*
X028350Y012328D01*
X028260Y012328D01*
X028510Y012328D02*
X028690Y012058D01*
X028690Y012328D01*
X028804Y012328D02*
X028804Y012058D01*
X028939Y012058D01*
X028984Y012103D01*
X028984Y012283D01*
X028939Y012328D01*
X028804Y012328D01*
X028510Y012328D02*
X028510Y012058D01*
X028547Y011328D02*
X028592Y011283D01*
X028411Y011103D01*
X028456Y011058D01*
X028547Y011058D01*
X028592Y011103D01*
X028592Y011283D01*
X028547Y011328D02*
X028456Y011328D01*
X028411Y011283D01*
X028411Y011103D01*
X028305Y011058D02*
X028215Y011058D01*
X028260Y011058D02*
X028260Y011328D01*
X028215Y011328D02*
X028305Y011328D01*
X028706Y011238D02*
X028796Y011328D01*
X028796Y011058D01*
X028706Y011058D02*
X028886Y011058D01*
X028841Y010328D02*
X028751Y010328D01*
X028706Y010283D01*
X028592Y010283D02*
X028411Y010103D01*
X028456Y010058D01*
X028547Y010058D01*
X028592Y010103D01*
X028592Y010283D01*
X028547Y010328D01*
X028456Y010328D01*
X028411Y010283D01*
X028411Y010103D01*
X028305Y010058D02*
X028215Y010058D01*
X028260Y010058D02*
X028260Y010328D01*
X028215Y010328D02*
X028305Y010328D01*
X028706Y010058D02*
X028886Y010238D01*
X028886Y010283D01*
X028841Y010328D01*
X028886Y010058D02*
X028706Y010058D01*
X028547Y009328D02*
X028592Y009283D01*
X028411Y009103D01*
X028456Y009058D01*
X028547Y009058D01*
X028592Y009103D01*
X028592Y009283D01*
X028547Y009328D02*
X028456Y009328D01*
X028411Y009283D01*
X028411Y009103D01*
X028305Y009058D02*
X028215Y009058D01*
X028260Y009058D02*
X028260Y009328D01*
X028215Y009328D02*
X028305Y009328D01*
X028706Y009193D02*
X028841Y009193D01*
X028886Y009148D01*
X028886Y009103D01*
X028841Y009058D01*
X028751Y009058D01*
X028706Y009103D01*
X028706Y009193D01*
X028796Y009283D01*
X028886Y009328D01*
X028886Y008328D02*
X028706Y008328D01*
X028706Y008193D01*
X028796Y008238D01*
X028841Y008238D01*
X028886Y008193D01*
X028886Y008103D01*
X028841Y008058D01*
X028751Y008058D01*
X028706Y008103D01*
X028592Y008103D02*
X028547Y008058D01*
X028456Y008058D01*
X028411Y008103D01*
X028592Y008283D01*
X028592Y008103D01*
X028592Y008283D02*
X028547Y008328D01*
X028456Y008328D01*
X028411Y008283D01*
X028411Y008103D01*
X028305Y008058D02*
X028215Y008058D01*
X028260Y008058D02*
X028260Y008328D01*
X028215Y008328D02*
X028305Y008328D01*
X028260Y007328D02*
X028215Y007283D01*
X028215Y007103D01*
X028260Y007058D01*
X028350Y007058D01*
X028395Y007103D01*
X028395Y007193D01*
X028305Y007193D01*
X028395Y007283D02*
X028350Y007328D01*
X028260Y007328D01*
X028510Y007328D02*
X028690Y007058D01*
X028690Y007328D01*
X028804Y007328D02*
X028804Y007058D01*
X028939Y007058D01*
X028984Y007103D01*
X028984Y007283D01*
X028939Y007328D01*
X028804Y007328D01*
X028510Y007328D02*
X028510Y007058D01*
X028547Y006328D02*
X028592Y006283D01*
X028411Y006103D01*
X028456Y006058D01*
X028547Y006058D01*
X028592Y006103D01*
X028592Y006283D01*
X028547Y006328D02*
X028456Y006328D01*
X028411Y006283D01*
X028411Y006103D01*
X028305Y006058D02*
X028215Y006058D01*
X028260Y006058D02*
X028260Y006328D01*
X028215Y006328D02*
X028305Y006328D01*
X028706Y006283D02*
X028706Y006238D01*
X028751Y006193D01*
X028886Y006193D01*
X028886Y006103D02*
X028886Y006283D01*
X028841Y006328D01*
X028751Y006328D01*
X028706Y006283D01*
X028706Y006103D02*
X028751Y006058D01*
X028841Y006058D01*
X028886Y006103D01*
X028886Y005328D02*
X028706Y005328D01*
X028592Y005283D02*
X028411Y005103D01*
X028456Y005058D01*
X028547Y005058D01*
X028592Y005103D01*
X028592Y005283D01*
X028547Y005328D01*
X028456Y005328D01*
X028411Y005283D01*
X028411Y005103D01*
X028305Y005058D02*
X028215Y005058D01*
X028260Y005058D02*
X028260Y005328D01*
X028215Y005328D02*
X028305Y005328D01*
X028706Y005103D02*
X028706Y005058D01*
X028706Y005103D02*
X028886Y005283D01*
X028886Y005328D01*
X028841Y004328D02*
X028706Y004193D01*
X028886Y004193D01*
X028841Y004058D02*
X028841Y004328D01*
X028592Y004283D02*
X028411Y004103D01*
X028456Y004058D01*
X028547Y004058D01*
X028592Y004103D01*
X028592Y004283D01*
X028547Y004328D01*
X028456Y004328D01*
X028411Y004283D01*
X028411Y004103D01*
X028305Y004058D02*
X028215Y004058D01*
X028260Y004058D02*
X028260Y004328D01*
X028215Y004328D02*
X028305Y004328D01*
X028305Y003328D02*
X028215Y003328D01*
X028260Y003328D02*
X028260Y003058D01*
X028215Y003058D02*
X028305Y003058D01*
X028411Y003058D02*
X028592Y003058D01*
X028501Y003058D02*
X028501Y003328D01*
X028411Y003238D01*
X028706Y003193D02*
X028796Y003238D01*
X028841Y003238D01*
X028886Y003193D01*
X028886Y003103D01*
X028841Y003058D01*
X028751Y003058D01*
X028706Y003103D01*
X028706Y003193D02*
X028706Y003328D01*
X028886Y003328D01*
X028886Y002328D02*
X028796Y002283D01*
X028706Y002193D01*
X028841Y002193D01*
X028886Y002148D01*
X028886Y002103D01*
X028841Y002058D01*
X028751Y002058D01*
X028706Y002103D01*
X028706Y002193D01*
X028592Y002058D02*
X028411Y002058D01*
X028501Y002058D02*
X028501Y002328D01*
X028411Y002238D01*
X028305Y002328D02*
X028215Y002328D01*
X028260Y002328D02*
X028260Y002058D01*
X028215Y002058D02*
X028305Y002058D01*
X026430Y002450D02*
X026430Y002750D01*
X026430Y002450D02*
X017770Y002450D01*
X017770Y002750D01*
X022115Y001728D02*
X022115Y001458D01*
X022115Y001548D02*
X022250Y001548D01*
X022295Y001593D01*
X022295Y001683D01*
X022250Y001728D01*
X022115Y001728D01*
X022410Y001728D02*
X022410Y001458D01*
X022500Y001548D01*
X022590Y001458D01*
X022590Y001728D01*
X022704Y001728D02*
X022839Y001728D01*
X022884Y001683D01*
X022884Y001593D01*
X022839Y001548D01*
X022704Y001548D01*
X022704Y001458D02*
X022704Y001728D01*
X022794Y001548D02*
X022884Y001458D01*
D12*
X015000Y000650D02*
X015000Y016472D01*
X029173Y016472D01*
X029173Y000650D01*
X015000Y000650D01*
X027675Y013104D02*
X028436Y013611D01*
X028436Y013895D02*
X028182Y014149D01*
X028436Y014403D01*
X027675Y014403D01*
X027929Y014687D02*
X027929Y014814D01*
X028436Y014814D01*
X028436Y014687D02*
X028436Y014941D01*
X028436Y015215D02*
X027675Y015215D01*
X027675Y015722D01*
X027929Y016007D02*
X027929Y016134D01*
X028436Y016134D01*
X028436Y016007D02*
X028436Y016261D01*
X027675Y016134D02*
X027548Y016134D01*
X028056Y015469D02*
X028056Y015215D01*
X027675Y014814D02*
X027548Y014814D01*
X027675Y013895D02*
X028436Y013895D01*
X028436Y013104D02*
X027675Y013611D01*
D13*
X015978Y013015D02*
X015785Y013015D01*
X015881Y013015D02*
X015881Y013305D01*
X015785Y013208D01*
X015683Y013257D02*
X015635Y013305D01*
X015538Y013305D01*
X015490Y013257D01*
X015490Y013063D01*
X015538Y013015D01*
X015635Y013015D01*
X015683Y013063D01*
X015635Y012930D02*
X015538Y012930D01*
X015490Y012882D01*
X015490Y012688D01*
X015538Y012640D01*
X015635Y012640D01*
X015683Y012688D01*
X015785Y012640D02*
X015978Y012833D01*
X015978Y012882D01*
X015930Y012930D01*
X015833Y012930D01*
X015785Y012882D01*
X015683Y012882D02*
X015635Y012930D01*
X015785Y012640D02*
X015978Y012640D01*
X018915Y001835D02*
X019100Y001835D01*
X019162Y001774D01*
X019162Y001650D01*
X019100Y001588D01*
X018915Y001588D01*
X018915Y001465D02*
X018915Y001835D01*
X019038Y001588D02*
X019162Y001465D01*
X019283Y001465D02*
X019530Y001712D01*
X019530Y001774D01*
X019468Y001835D01*
X019345Y001835D01*
X019283Y001774D01*
X019283Y001465D02*
X019530Y001465D01*
X019399Y001312D02*
X019399Y000942D01*
X019276Y000942D02*
X019523Y000942D01*
X019276Y001189D02*
X019399Y001312D01*
X019154Y001251D02*
X019154Y001127D01*
X019092Y001066D01*
X018907Y001066D01*
X019031Y001066D02*
X019154Y000942D01*
X018907Y000942D02*
X018907Y001312D01*
X019092Y001312D01*
X019154Y001251D01*
X021326Y001439D02*
X021326Y001809D01*
X021511Y001809D01*
X021573Y001748D01*
X021573Y001624D01*
X021511Y001562D01*
X021326Y001562D01*
X021449Y001562D02*
X021573Y001439D01*
X021694Y001501D02*
X021756Y001439D01*
X021879Y001439D01*
X021941Y001501D01*
X021941Y001562D01*
X021879Y001624D01*
X021818Y001624D01*
X021879Y001624D02*
X021941Y001686D01*
X021941Y001748D01*
X021879Y001809D01*
X021756Y001809D01*
X021694Y001748D01*
X022990Y001490D02*
X022990Y001350D01*
X023025Y001315D01*
X023095Y001315D01*
X023130Y001350D01*
X023130Y001490D02*
X023095Y001525D01*
X023025Y001525D01*
X022990Y001490D01*
D14*
X023944Y001575D02*
X024357Y000954D01*
X024588Y000954D02*
X024898Y000954D01*
X025002Y001058D01*
X025002Y001161D01*
X024898Y001264D01*
X024588Y001264D01*
X024588Y000954D02*
X024588Y001575D01*
X024898Y001575D01*
X025002Y001471D01*
X025002Y001368D01*
X024898Y001264D01*
X025233Y001264D02*
X025233Y001058D01*
X025336Y000954D01*
X025543Y000954D01*
X025646Y001161D02*
X025233Y001161D01*
X025233Y001264D02*
X025336Y001368D01*
X025543Y001368D01*
X025646Y001264D01*
X025646Y001161D01*
X025877Y001161D02*
X026291Y001161D01*
X026291Y001264D01*
X026187Y001368D01*
X025981Y001368D01*
X025877Y001264D01*
X025877Y001058D01*
X025981Y000954D01*
X026187Y000954D01*
X027166Y001058D02*
X027270Y000954D01*
X027477Y000954D01*
X027580Y001058D01*
X027580Y001161D01*
X027477Y001264D01*
X027270Y001264D01*
X027166Y001368D01*
X027166Y001471D01*
X027270Y001575D01*
X027477Y001575D01*
X027580Y001471D01*
X027811Y001264D02*
X028121Y001264D01*
X028225Y001161D01*
X028225Y001058D01*
X028121Y000954D01*
X027914Y000954D01*
X027811Y001058D01*
X027811Y001264D01*
X028018Y001471D01*
X028225Y001575D01*
X028455Y001575D02*
X028766Y001575D01*
X028869Y001471D01*
X028869Y001368D01*
X028766Y001264D01*
X028455Y001264D01*
X028455Y000954D02*
X028766Y000954D01*
X028869Y001058D01*
X028869Y001161D01*
X028766Y001264D01*
X028455Y000954D02*
X028455Y001575D01*
X028100Y001950D02*
X027850Y001700D01*
X027350Y001700D01*
X027100Y001950D01*
X027100Y002450D01*
X027350Y002700D01*
X027100Y002950D01*
X027100Y003450D01*
X027350Y003700D01*
X027100Y003950D01*
X027100Y004450D01*
X027350Y004700D01*
X027100Y004950D01*
X027100Y005450D01*
X027350Y005700D01*
X027100Y005950D01*
X027100Y006450D01*
X027350Y006700D01*
X027100Y006950D01*
X027100Y007450D01*
X027350Y007700D01*
X027100Y007950D01*
X027100Y008450D01*
X027350Y008700D01*
X027100Y008950D01*
X027100Y009450D01*
X027350Y009700D01*
X027100Y009950D01*
X027100Y010450D01*
X027350Y010700D01*
X027100Y010950D01*
X027100Y011450D01*
X027350Y011700D01*
X027100Y011950D01*
X027100Y012450D01*
X027350Y012700D01*
X027850Y012700D01*
X028100Y012450D01*
X028100Y011950D01*
X027850Y011700D01*
X028100Y011450D01*
X028100Y010950D01*
X027850Y010700D01*
X028100Y010450D01*
X028100Y009950D01*
X027850Y009700D01*
X028100Y009450D01*
X028100Y008950D01*
X027850Y008700D01*
X028100Y008450D01*
X028100Y007950D01*
X027850Y007700D01*
X028100Y007450D01*
X028100Y006950D01*
X027850Y006700D01*
X028100Y006450D01*
X028100Y005950D01*
X027850Y005700D01*
X028100Y005450D01*
X028100Y004950D01*
X027850Y004700D01*
X028100Y004450D01*
X028100Y003950D01*
X027850Y003700D01*
X028100Y003450D01*
X028100Y002950D01*
X027850Y002700D01*
X028100Y002450D01*
X028100Y001950D01*
X024357Y001575D02*
X023944Y000954D01*
X017100Y001950D02*
X016850Y001700D01*
X016350Y001700D01*
X016100Y001950D01*
X016100Y002450D01*
X016350Y002700D01*
X016100Y002950D01*
X016100Y003450D01*
X016350Y003700D01*
X016100Y003950D01*
X016100Y004450D01*
X016350Y004700D01*
X016100Y004950D01*
X016100Y005450D01*
X016350Y005700D01*
X016100Y005950D01*
X016100Y006450D01*
X016350Y006700D01*
X016100Y006950D01*
X016100Y007450D01*
X016350Y007700D01*
X016100Y007950D01*
X016100Y008450D01*
X016350Y008700D01*
X016100Y008950D01*
X016100Y009450D01*
X016350Y009700D01*
X016100Y009950D01*
X016100Y010450D01*
X016350Y010700D01*
X016100Y010950D01*
X016100Y011450D01*
X016350Y011700D01*
X016100Y011950D01*
X016100Y012450D01*
X016350Y012700D01*
X016850Y012700D01*
X017100Y012450D01*
X017100Y011950D01*
X016850Y011700D01*
X017100Y011450D01*
X017100Y010950D01*
X016850Y010700D01*
X017100Y010450D01*
X017100Y009950D01*
X016850Y009700D01*
X017100Y009450D01*
X017100Y008950D01*
X016850Y008700D01*
X017100Y008450D01*
X017100Y007950D01*
X016850Y007700D01*
X017100Y007450D01*
X017100Y006950D01*
X016850Y006700D01*
X017100Y006450D01*
X017100Y005950D01*
X016850Y005700D01*
X017100Y005450D01*
X017100Y004950D01*
X016850Y004700D01*
X017100Y004450D01*
X017100Y003950D01*
X016850Y003700D01*
X017100Y003450D01*
X017100Y002950D01*
X016850Y002700D01*
X017100Y002450D01*
X017100Y001950D01*
D15*
X016943Y001214D02*
X017037Y001121D01*
X017037Y001028D01*
X016943Y000934D01*
X016835Y000981D02*
X016789Y000934D01*
X016695Y000934D01*
X016649Y000981D01*
X016649Y001168D01*
X016695Y001214D01*
X016789Y001214D01*
X016835Y001168D01*
X016546Y001214D02*
X016452Y001121D01*
X016452Y001028D01*
X016546Y000934D01*
X016050Y000981D02*
X016050Y001214D01*
X015863Y001214D02*
X015863Y000981D01*
X015910Y000934D01*
X016003Y000934D01*
X016050Y000981D01*
X015755Y001168D02*
X015755Y001214D01*
X015755Y001168D02*
X015662Y001074D01*
X015662Y000934D01*
X015662Y001074D02*
X015568Y001168D01*
X015568Y001214D01*
X015460Y001168D02*
X015460Y001121D01*
X015414Y001074D01*
X015274Y001074D01*
X015414Y001074D02*
X015460Y001028D01*
X015460Y000981D01*
X015414Y000934D01*
X015274Y000934D01*
X015274Y001214D01*
X015414Y001214D01*
X015460Y001168D01*
X017434Y001168D02*
X017481Y001214D01*
X017574Y001214D01*
X017621Y001168D01*
X017621Y001121D01*
X017434Y000934D01*
X017621Y000934D01*
X017729Y000981D02*
X017916Y001168D01*
X017916Y000981D01*
X017869Y000934D01*
X017776Y000934D01*
X017729Y000981D01*
X017729Y001168D01*
X017776Y001214D01*
X017869Y001214D01*
X017916Y001168D01*
X018024Y001121D02*
X018117Y001214D01*
X018117Y000934D01*
X018024Y000934D02*
X018210Y000934D01*
X018318Y000981D02*
X018365Y000934D01*
X018458Y000934D01*
X018505Y000981D01*
X018505Y001028D01*
X018458Y001074D01*
X018412Y001074D01*
X018458Y001074D02*
X018505Y001121D01*
X018505Y001168D01*
X018458Y001214D01*
X018365Y001214D01*
X018318Y001168D01*
D16*
X022634Y001237D03*
X022634Y000942D03*
D17*
X022634Y001089D03*
D18*
X016870Y013650D02*
X016872Y013684D01*
X016878Y013718D01*
X016887Y013751D01*
X016901Y013782D01*
X016918Y013812D01*
X016938Y013840D01*
X016961Y013865D01*
X016987Y013888D01*
X017015Y013907D01*
X017045Y013923D01*
X017077Y013935D01*
X017110Y013944D01*
X017144Y013949D01*
X017179Y013950D01*
X017213Y013947D01*
X017246Y013940D01*
X017279Y013930D01*
X017310Y013915D01*
X017339Y013898D01*
X017366Y013877D01*
X017391Y013853D01*
X017413Y013826D01*
X017431Y013798D01*
X017446Y013767D01*
X017458Y013735D01*
X017466Y013701D01*
X017470Y013667D01*
X017470Y013633D01*
X017466Y013599D01*
X017458Y013565D01*
X017446Y013533D01*
X017431Y013502D01*
X017413Y013474D01*
X017391Y013447D01*
X017366Y013423D01*
X017339Y013402D01*
X017310Y013385D01*
X017279Y013370D01*
X017246Y013360D01*
X017213Y013353D01*
X017179Y013350D01*
X017144Y013351D01*
X017110Y013356D01*
X017077Y013365D01*
X017045Y013377D01*
X017015Y013393D01*
X016987Y013412D01*
X016961Y013435D01*
X016938Y013460D01*
X016918Y013488D01*
X016901Y013518D01*
X016887Y013549D01*
X016878Y013582D01*
X016872Y013616D01*
X016870Y013650D01*
D19*
X020400Y010020D02*
X020694Y009580D01*
X020860Y009580D02*
X021081Y009580D01*
X021154Y009653D01*
X021154Y009727D01*
X021081Y009800D01*
X020860Y009800D01*
X020860Y009580D02*
X020860Y010020D01*
X021081Y010020D01*
X021154Y009947D01*
X021154Y009874D01*
X021081Y009800D01*
X021321Y009800D02*
X021468Y009800D01*
X021321Y009580D02*
X021614Y009580D01*
X021781Y009580D02*
X022075Y009580D01*
X022242Y009580D02*
X022388Y009727D01*
X022535Y009580D01*
X022535Y010020D01*
X022702Y010020D02*
X022849Y010020D01*
X022775Y010020D02*
X022775Y009580D01*
X022702Y009580D02*
X022849Y009580D01*
X023009Y009580D02*
X023009Y010020D01*
X023302Y010020D01*
X023469Y010020D02*
X023616Y010020D01*
X023543Y010020D02*
X023543Y009580D01*
X023616Y009580D02*
X023469Y009580D01*
X023156Y009800D02*
X023009Y009800D01*
X022242Y010020D02*
X022242Y009580D01*
X021928Y009800D02*
X021781Y009800D01*
X021781Y010020D02*
X021781Y009580D01*
X021321Y009580D02*
X021321Y010020D01*
X021614Y010020D01*
X021781Y010020D02*
X022075Y010020D01*
X020694Y010020D02*
X020400Y009580D01*
M02*
