G75*
G70*
%OFA0B0*%
%FSLAX24Y24*%
%IPPOS*%
%LPD*%
%AMOC8*
5,1,8,0,0,1.08239X$1,22.5*
%
%ADD10R,0.0375X0.0375*%
%ADD11R,0.0454X0.0493*%
%ADD12R,0.1180X0.0660*%
%ADD13R,0.0660X0.1180*%
%ADD14R,0.0493X0.0454*%
%ADD15C,0.0800*%
%ADD16C,0.0456*%
D10*
X022280Y001089D03*
X022871Y001089D03*
D11*
X021781Y001086D03*
X021072Y001086D03*
X020478Y001108D03*
X020504Y001650D03*
X019796Y001650D03*
X019769Y001108D03*
D12*
X017870Y003240D03*
X017870Y004030D03*
X017870Y004820D03*
X017870Y005610D03*
X017870Y006400D03*
X017870Y007190D03*
X017870Y007980D03*
X017870Y008770D03*
X017870Y009560D03*
X017870Y010350D03*
X017870Y011140D03*
X017870Y011930D03*
X017870Y012720D03*
X026330Y012720D03*
X026330Y011930D03*
X026330Y011140D03*
X026330Y010350D03*
X026330Y009560D03*
X026330Y008770D03*
X026330Y007980D03*
X026330Y007190D03*
X026330Y006400D03*
X026330Y005610D03*
X026330Y004820D03*
X026330Y004030D03*
X026330Y003240D03*
X026330Y013510D03*
X026330Y014300D03*
X026330Y015090D03*
D13*
X024880Y002550D03*
X024090Y002550D03*
X023300Y002550D03*
X022510Y002550D03*
X021720Y002550D03*
X020930Y002550D03*
X020140Y002550D03*
X019350Y002550D03*
D14*
X015775Y010446D03*
X015775Y011154D03*
X015800Y011646D03*
X015800Y012354D03*
D15*
X016600Y012200D03*
X016600Y011200D03*
X016600Y010200D03*
X016600Y009200D03*
X016600Y008200D03*
X016600Y007200D03*
X016600Y006200D03*
X016600Y005200D03*
X016600Y004200D03*
X016600Y003200D03*
X016600Y002200D03*
X027600Y002200D03*
X027600Y003200D03*
X027600Y004200D03*
X027600Y005200D03*
X027600Y006200D03*
X027600Y007200D03*
X027600Y008200D03*
X027600Y009200D03*
X027600Y010200D03*
X027600Y011200D03*
X027600Y012200D03*
D16*
X025950Y002175D03*
X023350Y001125D03*
X021000Y001650D03*
X018625Y002175D03*
M02*
