G75*
G70*
%OFA0B0*%
%FSLAX24Y24*%
%IPPOS*%
%LPD*%
%AMOC8*
5,1,8,0,0,1.08239X$1,22.5*
%
%ADD10R,0.0470X0.0220*%
%ADD11R,0.0220X0.0470*%
%ADD12R,0.1102X0.0850*%
%ADD13R,0.0500X0.1000*%
%ADD14R,0.0315X0.0315*%
%ADD15R,0.0945X0.0669*%
%ADD16R,0.0394X0.0433*%
%ADD17R,0.0433X0.0394*%
%ADD18R,0.1120X0.0600*%
%ADD19R,0.0600X0.1120*%
D10*
X018193Y005957D03*
X018193Y006272D03*
X018193Y006587D03*
X018193Y006902D03*
X018193Y007217D03*
X018193Y007532D03*
X018193Y007847D03*
X018193Y008162D03*
X018193Y008477D03*
X018193Y008792D03*
X018193Y009107D03*
X018193Y009422D03*
X018193Y009737D03*
X018193Y010052D03*
X018193Y010367D03*
X018193Y010681D03*
X024335Y010681D03*
X024335Y010367D03*
X024335Y010052D03*
X024335Y009737D03*
X024335Y009422D03*
X024335Y009107D03*
X024335Y008792D03*
X024335Y008477D03*
X024335Y008162D03*
X024335Y007847D03*
X024335Y007532D03*
X024335Y007217D03*
X024335Y006902D03*
X024335Y006587D03*
X024335Y006272D03*
X024335Y005957D03*
D11*
X023626Y005248D03*
X023311Y005248D03*
X022996Y005248D03*
X022681Y005248D03*
X022366Y005248D03*
X022051Y005248D03*
X021736Y005248D03*
X021421Y005248D03*
X021106Y005248D03*
X020791Y005248D03*
X020476Y005248D03*
X020161Y005248D03*
X019846Y005248D03*
X019531Y005248D03*
X019217Y005248D03*
X018902Y005248D03*
X018902Y011390D03*
X019217Y011390D03*
X019531Y011390D03*
X019846Y011390D03*
X020161Y011390D03*
X020476Y011390D03*
X020791Y011390D03*
X021106Y011390D03*
X021421Y011390D03*
X021736Y011390D03*
X022051Y011390D03*
X022366Y011390D03*
X022681Y011390D03*
X022996Y011390D03*
X023311Y011390D03*
X023626Y011390D03*
D12*
X024114Y001784D03*
X026004Y001784D03*
D13*
X021031Y001532D03*
X020031Y001532D03*
X019031Y001532D03*
X019031Y003782D03*
X020031Y003782D03*
X021031Y003782D03*
D14*
X017580Y001839D03*
X018171Y001839D03*
X024968Y010619D03*
X025558Y010619D03*
D15*
X025823Y009319D03*
X025823Y007863D03*
D16*
X025638Y007193D03*
X024929Y007193D03*
X025559Y010028D03*
X026268Y010028D03*
X026217Y011134D03*
X025508Y011134D03*
X018280Y005445D03*
X017571Y005445D03*
X017569Y004064D03*
X018278Y004064D03*
X024224Y002843D03*
X024933Y002843D03*
D17*
X026268Y006489D03*
X026268Y007197D03*
X017606Y006744D03*
X017606Y006036D03*
X017606Y009087D03*
X017606Y009796D03*
X015592Y019919D03*
X015592Y020628D03*
X016175Y022346D03*
X016800Y022346D03*
X016800Y023054D03*
X016175Y023054D03*
D18*
X017870Y022880D03*
X017870Y022090D03*
X017870Y021300D03*
X017870Y020510D03*
X017870Y019720D03*
X017870Y018930D03*
X017870Y018140D03*
X017870Y017350D03*
X017870Y016560D03*
X017870Y015770D03*
X017870Y014980D03*
X017870Y014190D03*
X026330Y014190D03*
X026330Y014980D03*
X026330Y015770D03*
X026330Y016560D03*
X026330Y017350D03*
X026330Y018140D03*
X026330Y018930D03*
X026330Y019720D03*
X026330Y020510D03*
X026330Y021300D03*
X026330Y022090D03*
X026330Y022880D03*
X026330Y023670D03*
X026330Y024460D03*
X026330Y025250D03*
X026330Y026040D03*
X017870Y023670D03*
D19*
X019350Y013500D03*
X020140Y013500D03*
X020930Y013500D03*
X021720Y013500D03*
X022510Y013500D03*
X023300Y013500D03*
X024090Y013500D03*
X024880Y013500D03*
M02*
