%
M48
M72
T01C0.0236
T02C0.0400
%
T01
X17835Y11080
X17813Y11560
X18412Y12673
X18881Y12667
X18625Y13125
X17925Y13125
X19525Y12650
X19889Y12192
X20300Y12650
X21050Y12200
X21425Y12650
X22175Y12650
X22850Y12650
X23525Y10800
X23100Y10575
X22650Y10400
X20750Y10800
X20275Y10800
X19461Y10807
X18780Y9941
X18944Y9469
X18937Y8918
X18937Y8367
X18937Y7422
X18780Y6870
X19409Y6241
X18307Y4902
X18858Y4666
X19567Y4666
X21614Y6162
X22087Y6713
X22480Y6162
X23000Y6150
X23425Y6792
X23425Y7343
X23425Y7894
X24921Y8603
X24921Y9154
X26260Y10571
X25950Y13125
X25630Y6634
X25079Y6634
X24291Y5374
X22480Y4115
X22087Y3800
X21693Y3485
X22480Y2697
X23504Y2855
X25472Y2855
X26074Y2844
X21063Y2382
X19016Y2382
X16800Y21800
X16175Y21800
X15625Y23050
X27200Y23100
T02
X16575Y1386
X16575Y2386
X16575Y3386
X16575Y4386
X16575Y5386
X16575Y6386
X16575Y7386
X16575Y8386
X16575Y9386
X16575Y10386
X16575Y11386
X16575Y12386
X16575Y13386
X16575Y14386
X16575Y15386
X16575Y16386
X16575Y17386
X16575Y18386
X16575Y19386
X16575Y20386
X27598Y20386
X27598Y19386
X27598Y18386
X27598Y17386
X27598Y16386
X27598Y15386
X27598Y14386
X27598Y13386
X27598Y12386
X27598Y11386
X27598Y10386
X27598Y9386
X27598Y8386
X27598Y7386
X27598Y6386
X27598Y5386
X27598Y4386
X27598Y3386
X27598Y2386
X27598Y1386
M30
