G75*
G70*
%OFA0B0*%
%FSLAX24Y24*%
%IPPOS*%
%LPD*%
%AMOC8*
5,1,8,0,0,1.08239X$1,22.5*
%
%ADD10C,0.0000*%
%ADD11C,0.0070*%
%ADD12C,0.0080*%
%ADD13C,0.0050*%
%ADD14C,0.0040*%
%ADD15C,0.0090*%
%ADD16C,0.0100*%
%ADD17C,0.0030*%
%ADD18C,0.0120*%
%ADD19C,0.0020*%
%ADD20C,0.0060*%
%ADD21R,0.0118X0.0059*%
%ADD22R,0.0118X0.0118*%
%ADD23C,0.0200*%
D10*
X015000Y000650D02*
X015000Y027422D01*
X029173Y027422D01*
X029173Y000650D01*
X015000Y000650D01*
D11*
X017284Y000960D02*
X017284Y001451D01*
X017529Y001451D01*
X017611Y001369D01*
X017611Y001206D01*
X017529Y001124D01*
X017284Y001124D01*
X017799Y000960D02*
X017799Y001451D01*
X018126Y001451D02*
X018126Y000960D01*
X017963Y001124D01*
X017799Y000960D01*
X018315Y000960D02*
X018315Y001451D01*
X018560Y001451D01*
X018642Y001369D01*
X018642Y001206D01*
X018560Y001124D01*
X018315Y001124D01*
X018478Y001124D02*
X018642Y000960D01*
D12*
X023651Y003621D02*
X023651Y004201D01*
X023942Y004201D01*
X024038Y004105D01*
X024038Y003911D01*
X023942Y003814D01*
X023651Y003814D01*
X023845Y003814D02*
X024038Y003621D01*
X024259Y003621D02*
X024646Y003621D01*
X024867Y003718D02*
X024964Y003621D01*
X025157Y003621D01*
X025254Y003718D01*
X025254Y003814D01*
X025157Y003911D01*
X024964Y003911D01*
X024867Y004008D01*
X024867Y004105D01*
X024964Y004201D01*
X025157Y004201D01*
X025254Y004105D01*
X025475Y004201D02*
X025475Y003621D01*
X025862Y003621D01*
X025668Y003911D02*
X025475Y003911D01*
X025475Y004201D02*
X025862Y004201D01*
X026082Y004201D02*
X026469Y004201D01*
X026276Y004201D02*
X026276Y003621D01*
X024646Y004201D02*
X024259Y004201D01*
X024259Y003621D01*
X024259Y003911D02*
X024453Y003911D01*
D13*
X028189Y001132D02*
X028189Y001049D01*
X028355Y000884D01*
X028437Y000884D01*
X028520Y000967D01*
X028520Y001049D01*
X028437Y001132D01*
X028355Y001049D01*
X028355Y001214D02*
X028272Y001214D01*
X028189Y001132D01*
X028409Y001351D02*
X028821Y001268D01*
X028574Y001516D01*
X028669Y001611D02*
X028793Y001735D01*
X028875Y001735D01*
X029041Y001570D01*
X029041Y001488D01*
X028917Y001364D01*
X028669Y001611D01*
X028409Y001351D02*
X028656Y001103D01*
X028561Y002200D02*
X028386Y002200D01*
X028386Y002550D01*
X028561Y002550D01*
X028619Y002492D01*
X028619Y002433D01*
X028561Y002375D01*
X028386Y002375D01*
X028561Y002375D02*
X028619Y002317D01*
X028619Y002258D01*
X028561Y002200D01*
X028754Y002258D02*
X028988Y002492D01*
X028988Y002258D01*
X028929Y002200D01*
X028813Y002200D01*
X028754Y002258D01*
X028754Y002492D01*
X028813Y002550D01*
X028929Y002550D01*
X028988Y002492D01*
X028954Y006216D02*
X028954Y006566D01*
X028779Y006391D01*
X029013Y006391D01*
X028644Y006449D02*
X028586Y006391D01*
X028411Y006391D01*
X028411Y006566D02*
X028586Y006566D01*
X028644Y006507D01*
X028644Y006449D01*
X028586Y006391D02*
X028644Y006332D01*
X028644Y006274D01*
X028586Y006216D01*
X028411Y006216D01*
X028411Y006566D01*
X028411Y007214D02*
X028586Y007214D01*
X028644Y007273D01*
X028644Y007331D01*
X028586Y007389D01*
X028411Y007389D01*
X028411Y007214D02*
X028411Y007564D01*
X028586Y007564D01*
X028644Y007506D01*
X028644Y007448D01*
X028586Y007389D01*
X028779Y007389D02*
X028779Y007564D01*
X029013Y007564D01*
X028954Y007448D02*
X029013Y007389D01*
X029013Y007273D01*
X028954Y007214D01*
X028838Y007214D01*
X028779Y007273D01*
X028779Y007389D02*
X028896Y007448D01*
X028954Y007448D01*
X028954Y008209D02*
X029013Y008267D01*
X029013Y008326D01*
X028954Y008384D01*
X028779Y008384D01*
X028779Y008267D01*
X028838Y008209D01*
X028954Y008209D01*
X028779Y008384D02*
X028896Y008501D01*
X029013Y008559D01*
X028644Y008501D02*
X028644Y008443D01*
X028586Y008384D01*
X028411Y008384D01*
X028411Y008209D02*
X028411Y008559D01*
X028586Y008559D01*
X028644Y008501D01*
X028586Y008384D02*
X028644Y008326D01*
X028644Y008267D01*
X028586Y008209D01*
X028411Y008209D01*
X028411Y009208D02*
X028586Y009208D01*
X028644Y009266D01*
X028644Y009324D01*
X028586Y009383D01*
X028411Y009383D01*
X028586Y009383D02*
X028644Y009441D01*
X028644Y009500D01*
X028586Y009558D01*
X028411Y009558D01*
X028411Y009208D01*
X028779Y009208D02*
X028779Y009266D01*
X029013Y009500D01*
X029013Y009558D01*
X028779Y009558D01*
X028838Y010206D02*
X028779Y010265D01*
X029013Y010498D01*
X029013Y010265D01*
X028954Y010206D01*
X028838Y010206D01*
X028779Y010265D02*
X028779Y010498D01*
X028838Y010557D01*
X028954Y010557D01*
X029013Y010498D01*
X028644Y010498D02*
X028586Y010557D01*
X028411Y010557D01*
X028411Y010206D01*
X028586Y010206D01*
X028644Y010265D01*
X028644Y010498D01*
X028586Y011226D02*
X028644Y011285D01*
X028644Y011518D01*
X028586Y011576D01*
X028411Y011576D01*
X028411Y011226D01*
X028586Y011226D01*
X028779Y011226D02*
X029013Y011226D01*
X028896Y011226D02*
X028896Y011576D01*
X028779Y011460D01*
X028838Y012225D02*
X028779Y012283D01*
X029013Y012517D01*
X029013Y012283D01*
X028954Y012225D01*
X028838Y012225D01*
X028779Y012283D02*
X028779Y012517D01*
X028838Y012575D01*
X028954Y012575D01*
X029013Y012517D01*
X028644Y012517D02*
X028586Y012575D01*
X028469Y012575D01*
X028411Y012517D01*
X028411Y012283D01*
X028469Y012225D01*
X028586Y012225D01*
X028644Y012283D01*
X028586Y013198D02*
X028644Y013257D01*
X028586Y013198D02*
X028469Y013198D01*
X028411Y013257D01*
X028411Y013490D01*
X028469Y013549D01*
X028586Y013549D01*
X028644Y013490D01*
X028779Y013432D02*
X028896Y013549D01*
X028896Y013198D01*
X028779Y013198D02*
X029013Y013198D01*
X029013Y014218D02*
X028779Y014218D01*
X029013Y014452D01*
X029013Y014510D01*
X028954Y014569D01*
X028838Y014569D01*
X028779Y014510D01*
X028644Y014510D02*
X028586Y014569D01*
X028469Y014569D01*
X028411Y014510D01*
X028411Y014277D01*
X028469Y014218D01*
X028586Y014218D01*
X028644Y014277D01*
X028586Y015242D02*
X028644Y015300D01*
X028586Y015242D02*
X028469Y015242D01*
X028411Y015300D01*
X028411Y015534D01*
X028469Y015592D01*
X028586Y015592D01*
X028644Y015534D01*
X028779Y015534D02*
X028838Y015592D01*
X028954Y015592D01*
X029013Y015534D01*
X029013Y015475D01*
X028954Y015417D01*
X029013Y015359D01*
X029013Y015300D01*
X028954Y015242D01*
X028838Y015242D01*
X028779Y015300D01*
X028896Y015417D02*
X028954Y015417D01*
X028954Y016216D02*
X028954Y016566D01*
X028779Y016391D01*
X029013Y016391D01*
X028644Y016507D02*
X028586Y016566D01*
X028469Y016566D01*
X028411Y016507D01*
X028411Y016274D01*
X028469Y016216D01*
X028586Y016216D01*
X028644Y016274D01*
X028586Y017214D02*
X028644Y017273D01*
X028586Y017214D02*
X028469Y017214D01*
X028411Y017273D01*
X028411Y017506D01*
X028469Y017564D01*
X028586Y017564D01*
X028644Y017506D01*
X028779Y017564D02*
X028779Y017389D01*
X028896Y017448D01*
X028954Y017448D01*
X029013Y017389D01*
X029013Y017273D01*
X028954Y017214D01*
X028838Y017214D01*
X028779Y017273D01*
X028779Y017564D02*
X029013Y017564D01*
X028954Y018234D02*
X029013Y018292D01*
X029013Y018351D01*
X028954Y018409D01*
X028779Y018409D01*
X028779Y018292D01*
X028838Y018234D01*
X028954Y018234D01*
X028779Y018409D02*
X028896Y018526D01*
X029013Y018584D01*
X028644Y018526D02*
X028586Y018584D01*
X028469Y018584D01*
X028411Y018526D01*
X028411Y018292D01*
X028469Y018234D01*
X028586Y018234D01*
X028644Y018292D01*
X028586Y019233D02*
X028644Y019291D01*
X028586Y019233D02*
X028469Y019233D01*
X028411Y019291D01*
X028411Y019525D01*
X028469Y019583D01*
X028586Y019583D01*
X028644Y019525D01*
X028779Y019583D02*
X029013Y019583D01*
X029013Y019525D01*
X028779Y019291D01*
X028779Y019233D01*
X028189Y021069D02*
X028305Y021185D01*
X028305Y021419D01*
X028072Y021419D02*
X028072Y021185D01*
X028189Y021069D01*
X027937Y021127D02*
X027879Y021069D01*
X027762Y021069D01*
X027703Y021127D01*
X027578Y021127D02*
X027578Y021069D01*
X027519Y021069D01*
X027519Y021127D01*
X027578Y021127D01*
X027385Y021127D02*
X027385Y021185D01*
X027326Y021244D01*
X027268Y021244D01*
X027326Y021244D02*
X027385Y021302D01*
X027385Y021361D01*
X027326Y021419D01*
X027209Y021419D01*
X027151Y021361D01*
X027151Y021127D02*
X027209Y021069D01*
X027326Y021069D01*
X027385Y021127D01*
X027703Y021361D02*
X027762Y021419D01*
X027879Y021419D01*
X027937Y021361D01*
X027937Y021302D01*
X027879Y021244D01*
X027937Y021185D01*
X027937Y021127D01*
X027879Y021244D02*
X027820Y021244D01*
X026430Y026500D02*
X026430Y026700D01*
X017770Y026700D01*
X017770Y024100D01*
X017132Y021394D02*
X017132Y021160D01*
X017015Y021044D01*
X016898Y021160D01*
X016898Y021394D01*
X016763Y021336D02*
X016763Y021277D01*
X016705Y021219D01*
X016763Y021160D01*
X016763Y021102D01*
X016705Y021044D01*
X016588Y021044D01*
X016530Y021102D01*
X016404Y021102D02*
X016404Y021044D01*
X016346Y021044D01*
X016346Y021102D01*
X016404Y021102D01*
X016211Y021102D02*
X016153Y021044D01*
X016036Y021044D01*
X015977Y021102D01*
X016094Y021219D02*
X016153Y021219D01*
X016211Y021160D01*
X016211Y021102D01*
X016153Y021219D02*
X016211Y021277D01*
X016211Y021336D01*
X016153Y021394D01*
X016036Y021394D01*
X015977Y021336D01*
X016530Y021336D02*
X016588Y021394D01*
X016705Y021394D01*
X016763Y021336D01*
X016705Y021219D02*
X016647Y021219D01*
X015817Y019558D02*
X015817Y019500D01*
X015583Y019266D01*
X015583Y019208D01*
X015448Y019208D02*
X015448Y019441D01*
X015332Y019558D01*
X015215Y019441D01*
X015215Y019208D01*
X015215Y019383D02*
X015448Y019383D01*
X015583Y019558D02*
X015817Y019558D01*
X015817Y018559D02*
X015700Y018501D01*
X015583Y018384D01*
X015758Y018384D01*
X015817Y018326D01*
X015817Y018267D01*
X015758Y018209D01*
X015642Y018209D01*
X015583Y018267D01*
X015583Y018384D01*
X015448Y018384D02*
X015215Y018384D01*
X015215Y018443D02*
X015215Y018209D01*
X015448Y018209D02*
X015448Y018443D01*
X015332Y018559D01*
X015215Y018443D01*
X015357Y017561D02*
X015473Y017444D01*
X015473Y017210D01*
X015608Y017269D02*
X015667Y017210D01*
X015783Y017210D01*
X015842Y017269D01*
X015842Y017386D01*
X015783Y017444D01*
X015725Y017444D01*
X015608Y017386D01*
X015608Y017561D01*
X015842Y017561D01*
X015473Y017386D02*
X015240Y017386D01*
X015240Y017444D02*
X015357Y017561D01*
X015240Y017444D02*
X015240Y017210D01*
X015332Y016566D02*
X015448Y016449D01*
X015448Y016216D01*
X015448Y016391D02*
X015215Y016391D01*
X015215Y016449D02*
X015332Y016566D01*
X015215Y016449D02*
X015215Y016216D01*
X015583Y016391D02*
X015758Y016566D01*
X015758Y016216D01*
X015817Y016391D02*
X015583Y016391D01*
X015642Y015571D02*
X015758Y015571D01*
X015817Y015513D01*
X015817Y015454D01*
X015758Y015396D01*
X015817Y015337D01*
X015817Y015279D01*
X015758Y015221D01*
X015642Y015221D01*
X015583Y015279D01*
X015448Y015221D02*
X015448Y015454D01*
X015332Y015571D01*
X015215Y015454D01*
X015215Y015221D01*
X015215Y015396D02*
X015448Y015396D01*
X015583Y015513D02*
X015642Y015571D01*
X015700Y015396D02*
X015758Y015396D01*
X015783Y014572D02*
X015667Y014572D01*
X015608Y014514D01*
X015473Y014456D02*
X015473Y014222D01*
X015608Y014222D02*
X015842Y014456D01*
X015842Y014514D01*
X015783Y014572D01*
X015473Y014456D02*
X015357Y014572D01*
X015240Y014456D01*
X015240Y014222D01*
X015240Y014397D02*
X015473Y014397D01*
X015608Y014222D02*
X015842Y014222D01*
X015700Y013549D02*
X015700Y013198D01*
X015583Y013198D02*
X015817Y013198D01*
X015583Y013432D02*
X015700Y013549D01*
X015448Y013432D02*
X015448Y013198D01*
X015448Y013374D02*
X015215Y013374D01*
X015215Y013432D02*
X015332Y013549D01*
X015448Y013432D01*
X015215Y013432D02*
X015215Y013198D01*
X015357Y012550D02*
X015473Y012433D01*
X015473Y012200D01*
X015608Y012258D02*
X015842Y012492D01*
X015842Y012258D01*
X015783Y012200D01*
X015667Y012200D01*
X015608Y012258D01*
X015608Y012492D01*
X015667Y012550D01*
X015783Y012550D01*
X015842Y012492D01*
X015473Y012375D02*
X015240Y012375D01*
X015240Y012433D02*
X015357Y012550D01*
X015240Y012433D02*
X015240Y012200D01*
X015240Y011555D02*
X015473Y011555D01*
X015608Y011555D02*
X015842Y011555D01*
X015842Y011497D01*
X015608Y011263D01*
X015608Y011205D01*
X015357Y011380D02*
X015240Y011380D01*
X015240Y011205D02*
X015240Y011555D01*
X015240Y010557D02*
X015473Y010557D01*
X015357Y010381D02*
X015240Y010381D01*
X015240Y010206D02*
X015240Y010557D01*
X015608Y010381D02*
X015783Y010381D01*
X015842Y010323D01*
X015842Y010265D01*
X015783Y010206D01*
X015667Y010206D01*
X015608Y010265D01*
X015608Y010381D01*
X015725Y010498D01*
X015842Y010557D01*
X015842Y009558D02*
X015608Y009558D01*
X015608Y009383D01*
X015725Y009441D01*
X015783Y009441D01*
X015842Y009383D01*
X015842Y009266D01*
X015783Y009208D01*
X015667Y009208D01*
X015608Y009266D01*
X015357Y009383D02*
X015240Y009383D01*
X015240Y009208D02*
X015240Y009558D01*
X015473Y009558D01*
X015473Y008563D02*
X015240Y008563D01*
X015240Y008213D01*
X015240Y008388D02*
X015357Y008388D01*
X015608Y008388D02*
X015842Y008388D01*
X015783Y008563D02*
X015608Y008388D01*
X015783Y008213D02*
X015783Y008563D01*
X015783Y007564D02*
X015842Y007506D01*
X015842Y007448D01*
X015783Y007389D01*
X015842Y007331D01*
X015842Y007273D01*
X015783Y007214D01*
X015667Y007214D01*
X015608Y007273D01*
X015725Y007389D02*
X015783Y007389D01*
X015783Y007564D02*
X015667Y007564D01*
X015608Y007506D01*
X015473Y007564D02*
X015240Y007564D01*
X015240Y007214D01*
X015240Y007389D02*
X015357Y007389D01*
X015473Y006541D02*
X015240Y006541D01*
X015240Y006191D01*
X015240Y006366D02*
X015357Y006366D01*
X015608Y006482D02*
X015667Y006541D01*
X015783Y006541D01*
X015842Y006482D01*
X015842Y006424D01*
X015608Y006191D01*
X015842Y006191D01*
X015725Y005542D02*
X015725Y005192D01*
X015608Y005192D02*
X015842Y005192D01*
X015608Y005425D02*
X015725Y005542D01*
X015473Y005542D02*
X015240Y005542D01*
X015240Y005192D01*
X015240Y005367D02*
X015357Y005367D01*
X015240Y004572D02*
X015473Y004572D01*
X015608Y004514D02*
X015667Y004572D01*
X015783Y004572D01*
X015842Y004514D01*
X015608Y004280D01*
X015667Y004222D01*
X015783Y004222D01*
X015842Y004280D01*
X015842Y004514D01*
X015608Y004514D02*
X015608Y004280D01*
X015357Y004397D02*
X015240Y004397D01*
X015240Y004222D02*
X015240Y004572D01*
X015240Y003574D02*
X015240Y003223D01*
X015473Y003223D01*
X015608Y003282D02*
X015667Y003223D01*
X015783Y003223D01*
X015842Y003282D01*
X015842Y003340D01*
X015783Y003399D01*
X015608Y003399D01*
X015608Y003282D01*
X015608Y003399D02*
X015725Y003515D01*
X015842Y003574D01*
X015473Y003574D02*
X015240Y003574D01*
X015240Y003399D02*
X015357Y003399D01*
X015473Y002550D02*
X015240Y002550D01*
X015240Y002200D01*
X015473Y002200D01*
X015608Y002200D02*
X015608Y002258D01*
X015842Y002492D01*
X015842Y002550D01*
X015608Y002550D01*
X015357Y002375D02*
X015240Y002375D01*
X015302Y001724D02*
X015137Y001559D01*
X015137Y001476D01*
X015219Y001394D01*
X015302Y001394D01*
X015384Y001476D01*
X015302Y001559D01*
X015302Y001724D02*
X015384Y001724D01*
X015467Y001641D01*
X015467Y001559D01*
X015604Y001505D02*
X015356Y001257D01*
X015521Y001092D02*
X015769Y001340D01*
X015864Y001244D02*
X015988Y001120D01*
X015988Y001038D01*
X015823Y000873D01*
X015740Y000873D01*
X015616Y000997D01*
X015864Y001244D01*
X015604Y001505D02*
X015521Y001092D01*
X019525Y008450D02*
X019525Y008684D01*
X019642Y008800D01*
X019759Y008684D01*
X019759Y008450D01*
X019759Y008625D02*
X019525Y008625D01*
X019893Y008800D02*
X020127Y008800D01*
X020010Y008800D02*
X020010Y008450D01*
X020262Y008508D02*
X020320Y008450D01*
X020437Y008450D01*
X020495Y008508D01*
X020495Y008742D01*
X020437Y008800D01*
X020320Y008800D01*
X020262Y008742D01*
X020262Y008684D01*
X020320Y008625D01*
X020495Y008625D01*
X020630Y008508D02*
X020863Y008742D01*
X020863Y008508D01*
X020805Y008450D01*
X020688Y008450D01*
X020630Y008508D01*
X020630Y008742D01*
X020688Y008800D01*
X020805Y008800D01*
X020863Y008742D01*
X020998Y008800D02*
X020998Y008508D01*
X021057Y008450D01*
X021173Y008450D01*
X021232Y008508D01*
X021232Y008800D01*
X021367Y008742D02*
X021367Y008684D01*
X021425Y008625D01*
X021542Y008625D01*
X021600Y008567D01*
X021600Y008508D01*
X021542Y008450D01*
X021425Y008450D01*
X021367Y008508D01*
X021367Y008742D02*
X021425Y008800D01*
X021542Y008800D01*
X021600Y008742D01*
X021735Y008800D02*
X021735Y008450D01*
X021910Y008450D01*
X021968Y008508D01*
X021968Y008567D01*
X021910Y008625D01*
X021735Y008625D01*
X021910Y008625D02*
X021968Y008684D01*
X021968Y008742D01*
X021910Y008800D01*
X021735Y008800D01*
X022103Y008684D02*
X022220Y008800D01*
X022220Y008450D01*
X022103Y008450D02*
X022337Y008450D01*
X022472Y008450D02*
X022705Y008684D01*
X022705Y008742D01*
X022647Y008800D01*
X022530Y008800D01*
X022472Y008742D01*
X022472Y008450D02*
X022705Y008450D01*
X022840Y008508D02*
X022840Y008567D01*
X022898Y008625D01*
X023015Y008625D01*
X023073Y008567D01*
X023073Y008508D01*
X023015Y008450D01*
X022898Y008450D01*
X022840Y008508D01*
X022898Y008625D02*
X022840Y008684D01*
X022840Y008742D01*
X022898Y008800D01*
X023015Y008800D01*
X023073Y008742D01*
X023073Y008684D01*
X023015Y008625D01*
X023208Y008625D02*
X023383Y008625D01*
X023442Y008567D01*
X023442Y008508D01*
X023383Y008450D01*
X023267Y008450D01*
X023208Y008508D01*
X023208Y008625D01*
X023325Y008742D01*
X023442Y008800D01*
X025193Y009575D02*
X025193Y007607D01*
X025390Y008315D02*
X025823Y008315D01*
X025823Y008237D01*
X025823Y008315D02*
X026256Y008315D01*
X026217Y008433D02*
X026217Y008748D01*
X026177Y008748D02*
X025469Y008748D01*
X025429Y008748D02*
X025429Y008433D01*
X025469Y008433D02*
X026177Y008433D01*
X026256Y008867D02*
X025823Y008867D01*
X025823Y008945D01*
X025823Y008867D02*
X025390Y008867D01*
X026453Y009575D02*
X026453Y007607D01*
X026430Y013400D02*
X026430Y013700D01*
X026430Y013400D02*
X017770Y013400D01*
X017770Y013700D01*
D14*
X028159Y005086D02*
X028291Y005086D01*
X028291Y005218D01*
X028489Y005020D01*
X028565Y005096D02*
X028631Y005162D01*
X028598Y005129D02*
X028400Y005327D01*
X028367Y005294D02*
X028433Y005360D01*
X028539Y005400D02*
X028572Y005367D01*
X028638Y005367D01*
X028704Y005433D01*
X028770Y005433D01*
X028803Y005400D01*
X028803Y005334D01*
X028737Y005268D01*
X028671Y005268D01*
X028539Y005400D02*
X028539Y005466D01*
X028605Y005532D01*
X028671Y005532D01*
X028748Y005608D02*
X028880Y005476D01*
X028946Y005476D01*
X029012Y005542D01*
X029012Y005608D01*
X028880Y005741D01*
X028814Y005741D01*
X028748Y005675D01*
X028748Y005608D01*
X028159Y005086D02*
X028357Y004888D01*
X028675Y004603D02*
X028609Y004537D01*
X028609Y004471D01*
X028642Y004438D01*
X028708Y004438D01*
X028774Y004504D01*
X028840Y004504D01*
X028873Y004471D01*
X028873Y004405D01*
X028807Y004339D01*
X028741Y004339D01*
X028665Y004263D02*
X028532Y004395D01*
X028466Y004395D01*
X028400Y004329D01*
X028400Y004263D01*
X028532Y004130D01*
X028598Y004130D01*
X028665Y004197D01*
X028665Y004263D01*
X028489Y004021D02*
X028291Y004219D01*
X028291Y004087D01*
X028159Y004087D01*
X028357Y003889D01*
X028647Y003655D02*
X028845Y003457D01*
X028779Y003523D02*
X028779Y003787D01*
X028779Y003589D02*
X028977Y003589D01*
X028736Y003414D02*
X028736Y003348D01*
X028670Y003282D01*
X028604Y003282D01*
X028472Y003414D01*
X028472Y003480D01*
X028538Y003546D01*
X028604Y003546D01*
X028395Y003338D02*
X028329Y003338D01*
X028263Y003272D01*
X028263Y003206D01*
X028296Y003173D01*
X028362Y003173D01*
X028428Y003239D01*
X028494Y003239D01*
X028527Y003206D01*
X028527Y003140D01*
X028461Y003074D01*
X028395Y003074D01*
X028675Y004603D02*
X028741Y004603D01*
X028784Y004712D02*
X028850Y004778D01*
X028817Y004745D02*
X029015Y004547D01*
X028982Y004514D02*
X029048Y004580D01*
D15*
X028866Y023224D02*
X028754Y023224D01*
X028307Y023671D01*
X028195Y023671D01*
X028195Y023224D01*
X028866Y023923D02*
X028195Y024370D01*
X028419Y024623D02*
X028195Y024847D01*
X028866Y024847D01*
X028866Y025070D02*
X028866Y024623D01*
X028866Y025323D02*
X028195Y025770D01*
X028419Y026023D02*
X028195Y026246D01*
X028866Y026246D01*
X028866Y026023D02*
X028866Y026470D01*
X028754Y026723D02*
X028866Y026834D01*
X028866Y027058D01*
X028754Y027170D01*
X028642Y027170D01*
X028531Y027058D01*
X028531Y026946D01*
X028531Y027058D02*
X028419Y027170D01*
X028307Y027170D01*
X028195Y027058D01*
X028195Y026834D01*
X028307Y026723D01*
D16*
X015000Y027422D02*
X015000Y000650D01*
X029173Y000650D01*
X029173Y027422D01*
X015000Y027422D01*
D17*
X015151Y022755D02*
X015090Y022693D01*
X015090Y022570D01*
X015151Y022508D01*
X015213Y022508D01*
X015275Y022570D01*
X015275Y022755D01*
X015398Y022755D02*
X015151Y022755D01*
X015398Y022755D02*
X015460Y022693D01*
X015460Y022570D01*
X015398Y022508D01*
X015398Y022387D02*
X015460Y022325D01*
X015460Y022202D01*
X015398Y022140D01*
X015151Y022140D01*
X015090Y022202D01*
X015090Y022325D01*
X015151Y022387D01*
X015515Y022325D02*
X015515Y022202D01*
X015576Y022140D01*
X015823Y022140D01*
X015885Y022202D01*
X015885Y022325D01*
X015823Y022387D01*
X015823Y022508D02*
X015762Y022508D01*
X015700Y022570D01*
X015700Y022693D01*
X015762Y022755D01*
X015823Y022755D01*
X015885Y022693D01*
X015885Y022570D01*
X015823Y022508D01*
X015700Y022570D02*
X015638Y022508D01*
X015576Y022508D01*
X015515Y022570D01*
X015515Y022693D01*
X015576Y022755D01*
X015638Y022755D01*
X015700Y022693D01*
X015576Y022387D02*
X015515Y022325D01*
X015708Y021573D02*
X015708Y021326D01*
X015708Y021204D02*
X015584Y021081D01*
X015584Y021142D02*
X015584Y020957D01*
X015708Y020957D02*
X015338Y020957D01*
X015338Y021142D01*
X015399Y021204D01*
X015523Y021204D01*
X015584Y021142D01*
X015461Y021326D02*
X015338Y021449D01*
X015708Y021449D01*
X025595Y011824D02*
X025780Y011824D01*
X025842Y011762D01*
X025842Y011639D01*
X025780Y011577D01*
X025595Y011577D01*
X025595Y011453D02*
X025595Y011824D01*
X025719Y011577D02*
X025842Y011453D01*
X025964Y011453D02*
X026211Y011700D01*
X026211Y011762D01*
X026149Y011824D01*
X026025Y011824D01*
X025964Y011762D01*
X025964Y011453D02*
X026211Y011453D01*
X025222Y010190D02*
X025099Y010190D01*
X025037Y010128D01*
X024915Y010128D02*
X024854Y010190D01*
X024730Y010190D01*
X024669Y010128D01*
X024669Y009881D01*
X024730Y009819D01*
X024854Y009819D01*
X024915Y009881D01*
X025037Y009881D02*
X025099Y009819D01*
X025222Y009819D01*
X025284Y009881D01*
X025284Y009943D01*
X025222Y010004D01*
X025160Y010004D01*
X025222Y010004D02*
X025284Y010066D01*
X025284Y010128D01*
X025222Y010190D01*
X026502Y008808D02*
X026873Y008808D01*
X026873Y008931D02*
X026873Y008684D01*
X026873Y008563D02*
X026502Y008316D01*
X026502Y008563D02*
X026873Y008316D01*
X026626Y008684D02*
X026502Y008808D01*
X025494Y006346D02*
X025309Y006161D01*
X025556Y006161D01*
X025494Y005976D02*
X025494Y006346D01*
X025188Y006285D02*
X025126Y006346D01*
X025003Y006346D01*
X024941Y006285D01*
X024941Y006038D01*
X025003Y005976D01*
X025126Y005976D01*
X025188Y006038D01*
X025983Y006080D02*
X025983Y005833D01*
X026044Y005771D01*
X026168Y005771D01*
X026230Y005833D01*
X026351Y005833D02*
X026413Y005771D01*
X026536Y005771D01*
X026598Y005833D01*
X026598Y005956D01*
X026536Y006018D01*
X026474Y006018D01*
X026351Y005956D01*
X026351Y006141D01*
X026598Y006141D01*
X026230Y006080D02*
X026168Y006141D01*
X026044Y006141D01*
X025983Y006080D01*
X024851Y003535D02*
X024666Y003349D01*
X024912Y003349D01*
X024851Y003164D02*
X024851Y003535D01*
X024544Y003473D02*
X024544Y003349D01*
X024482Y003288D01*
X024297Y003288D01*
X024421Y003288D02*
X024544Y003164D01*
X024297Y003164D02*
X024297Y003535D01*
X024482Y003535D01*
X024544Y003473D01*
X023403Y002539D02*
X023403Y002292D01*
X023403Y002171D02*
X023033Y002171D01*
X023156Y002292D02*
X023033Y002416D01*
X023403Y002416D01*
X023403Y002171D02*
X023280Y002048D01*
X023403Y001924D01*
X023033Y001924D01*
X023095Y001803D02*
X023033Y001741D01*
X023033Y001617D01*
X023095Y001556D01*
X023156Y001556D01*
X023218Y001617D01*
X023218Y001741D01*
X023280Y001803D01*
X023341Y001803D01*
X023403Y001741D01*
X023403Y001617D01*
X023341Y001556D01*
X022037Y001570D02*
X021666Y001570D01*
X021852Y001570D02*
X021852Y001817D01*
X022037Y001817D02*
X021666Y001817D01*
X021666Y001938D02*
X021666Y002124D01*
X021728Y002185D01*
X021975Y002185D01*
X022037Y002124D01*
X022037Y001938D01*
X021666Y001938D01*
X021790Y002307D02*
X021666Y002430D01*
X022037Y002430D01*
X022037Y002307D02*
X022037Y002554D01*
X018280Y002290D02*
X018245Y002325D01*
X018175Y002325D01*
X018140Y002290D01*
X018140Y002150D01*
X018175Y002115D01*
X018245Y002115D01*
X018280Y002150D01*
X018179Y003339D02*
X018056Y003339D01*
X017994Y003401D01*
X017873Y003339D02*
X017749Y003462D01*
X017811Y003462D02*
X017626Y003462D01*
X017626Y003339D02*
X017626Y003709D01*
X017811Y003709D01*
X017873Y003648D01*
X017873Y003524D01*
X017811Y003462D01*
X017994Y003648D02*
X018056Y003709D01*
X018179Y003709D01*
X018241Y003648D01*
X018241Y003586D01*
X018179Y003524D01*
X018241Y003462D01*
X018241Y003401D01*
X018179Y003339D01*
X018179Y003524D02*
X018118Y003524D01*
X017770Y004745D02*
X017770Y004807D01*
X018017Y005054D01*
X018017Y005115D01*
X017770Y005115D01*
X017648Y005054D02*
X017587Y005115D01*
X017463Y005115D01*
X017402Y005054D01*
X017402Y004807D01*
X017463Y004745D01*
X017587Y004745D01*
X017648Y004807D01*
X017715Y007095D02*
X017468Y007095D01*
X017406Y007156D01*
X017406Y007280D01*
X017468Y007341D01*
X017592Y007463D02*
X017592Y007648D01*
X017653Y007710D01*
X017715Y007710D01*
X017777Y007648D01*
X017777Y007525D01*
X017715Y007463D01*
X017592Y007463D01*
X017468Y007586D01*
X017406Y007710D01*
X017715Y007341D02*
X017777Y007280D01*
X017777Y007156D01*
X017715Y007095D01*
X017693Y010118D02*
X017446Y010118D01*
X017385Y010179D01*
X017385Y010303D01*
X017446Y010364D01*
X017446Y010486D02*
X017385Y010548D01*
X017385Y010671D01*
X017446Y010733D01*
X017508Y010733D01*
X017755Y010486D01*
X017755Y010733D01*
X017693Y010364D02*
X017755Y010303D01*
X017755Y010179D01*
X017693Y010118D01*
D18*
X016426Y023564D02*
X015545Y024151D01*
X015545Y024484D02*
X016426Y024484D01*
X016132Y024778D01*
X016426Y025071D01*
X015545Y025071D01*
X015839Y025405D02*
X015839Y025552D01*
X016426Y025552D01*
X016426Y025405D02*
X016426Y025699D01*
X016426Y026019D02*
X015545Y026019D01*
X015545Y026606D01*
X015839Y026940D02*
X015839Y027087D01*
X016426Y027087D01*
X016426Y027233D02*
X016426Y026940D01*
X015985Y026313D02*
X015985Y026019D01*
X015545Y025552D02*
X015398Y025552D01*
X015398Y027087D02*
X015545Y027087D01*
X016426Y024151D02*
X015545Y023564D01*
D19*
X025865Y010740D02*
X025835Y010710D01*
X025835Y010590D01*
X025865Y010560D01*
X025925Y010560D01*
X025955Y010590D01*
X025955Y010710D02*
X025925Y010740D01*
X025865Y010740D01*
D20*
X027098Y010636D02*
X027098Y010136D01*
X027348Y009886D01*
X027848Y009886D01*
X028098Y010136D01*
X028098Y010636D01*
X027848Y010886D01*
X027348Y010886D01*
X027098Y010636D01*
X027348Y010886D02*
X027098Y011136D01*
X027098Y011636D01*
X027348Y011886D01*
X027098Y012136D01*
X027098Y012636D01*
X027348Y012886D01*
X027098Y013136D01*
X027098Y013636D01*
X027348Y013886D01*
X027098Y014136D01*
X027098Y014636D01*
X027348Y014886D01*
X027098Y015136D01*
X027098Y015636D01*
X027348Y015886D01*
X027098Y016136D01*
X027098Y016636D01*
X027348Y016886D01*
X027098Y017136D01*
X027098Y017636D01*
X027348Y017886D01*
X027098Y018136D01*
X027098Y018636D01*
X027348Y018886D01*
X027098Y019136D01*
X027098Y019636D01*
X027348Y019886D01*
X027098Y020136D01*
X027098Y020636D01*
X027348Y020886D01*
X027848Y020886D01*
X028098Y020636D01*
X028098Y020136D01*
X027848Y019886D01*
X028098Y019636D01*
X028098Y019136D01*
X027848Y018886D01*
X027348Y018886D01*
X027848Y018886D02*
X028098Y018636D01*
X028098Y018136D01*
X027848Y017886D01*
X028098Y017636D01*
X028098Y017136D01*
X027848Y016886D01*
X028098Y016636D01*
X028098Y016136D01*
X027848Y015886D01*
X027348Y015886D01*
X027848Y015886D02*
X028098Y015636D01*
X028098Y015136D01*
X027848Y014886D01*
X028098Y014636D01*
X028098Y014136D01*
X027848Y013886D01*
X028098Y013636D01*
X028098Y013136D01*
X027848Y012886D01*
X027348Y012886D01*
X027848Y012886D02*
X028098Y012636D01*
X028098Y012136D01*
X027848Y011886D01*
X028098Y011636D01*
X028098Y011136D01*
X027848Y010886D01*
X027848Y009886D02*
X028098Y009636D01*
X028098Y009136D01*
X027848Y008886D01*
X028098Y008636D01*
X028098Y008136D01*
X027848Y007886D01*
X028098Y007636D01*
X028098Y007136D01*
X027848Y006886D01*
X027348Y006886D01*
X027098Y007136D01*
X027098Y007636D01*
X027348Y007886D01*
X027098Y008136D01*
X027098Y008636D01*
X027348Y008886D01*
X027098Y009136D01*
X027098Y009636D01*
X027348Y009886D01*
X027348Y008886D02*
X027848Y008886D01*
X027848Y007886D02*
X027348Y007886D01*
X027348Y006886D02*
X027098Y006636D01*
X027098Y006136D01*
X027348Y005886D01*
X027098Y005636D01*
X027098Y005136D01*
X027348Y004886D01*
X027098Y004636D01*
X027098Y004136D01*
X027348Y003886D01*
X027848Y003886D01*
X028098Y004136D01*
X028098Y004636D01*
X027848Y004886D01*
X027348Y004886D01*
X027848Y004886D02*
X028098Y005136D01*
X028098Y005636D01*
X027848Y005886D01*
X027348Y005886D01*
X027848Y005886D02*
X028098Y006136D01*
X028098Y006636D01*
X027848Y006886D01*
X027848Y003886D02*
X028098Y003636D01*
X028098Y003136D01*
X027848Y002886D01*
X028098Y002636D01*
X028098Y002136D01*
X027848Y001886D01*
X028098Y001636D01*
X028098Y001136D01*
X027848Y000886D01*
X027348Y000886D01*
X027098Y001136D01*
X027098Y001636D01*
X027348Y001886D01*
X027098Y002136D01*
X027098Y002636D01*
X027348Y002886D01*
X027098Y003136D01*
X027098Y003636D01*
X027348Y003886D01*
X027348Y002886D02*
X027848Y002886D01*
X027848Y001886D02*
X027348Y001886D01*
X024034Y005549D02*
X018664Y005549D01*
X018494Y005719D01*
X018494Y011089D01*
X024034Y011089D01*
X024034Y005549D01*
X018729Y006004D02*
X018731Y006033D01*
X018737Y006062D01*
X018746Y006090D01*
X018760Y006116D01*
X018776Y006140D01*
X018796Y006162D01*
X018819Y006181D01*
X018843Y006197D01*
X018870Y006209D01*
X018898Y006218D01*
X018927Y006223D01*
X018956Y006224D01*
X018986Y006221D01*
X019014Y006214D01*
X019042Y006204D01*
X019067Y006189D01*
X019091Y006172D01*
X019112Y006152D01*
X019130Y006129D01*
X019145Y006103D01*
X019157Y006076D01*
X019165Y006048D01*
X019169Y006019D01*
X019169Y005989D01*
X019165Y005960D01*
X019157Y005932D01*
X019145Y005905D01*
X019130Y005879D01*
X019112Y005856D01*
X019091Y005836D01*
X019067Y005819D01*
X019042Y005804D01*
X019014Y005794D01*
X018986Y005787D01*
X018956Y005784D01*
X018927Y005785D01*
X018898Y005790D01*
X018870Y005799D01*
X018843Y005811D01*
X018819Y005827D01*
X018796Y005846D01*
X018776Y005868D01*
X018760Y005892D01*
X018746Y005918D01*
X018737Y005946D01*
X018731Y005975D01*
X018729Y006004D01*
X017075Y006136D02*
X016825Y005886D01*
X017075Y005636D01*
X017075Y005136D01*
X016825Y004886D01*
X017075Y004636D01*
X017075Y004136D01*
X016825Y003886D01*
X016325Y003886D01*
X016075Y004136D01*
X016075Y004636D01*
X016325Y004886D01*
X016075Y005136D01*
X016075Y005636D01*
X016325Y005886D01*
X016075Y006136D01*
X016075Y006636D01*
X016325Y006886D01*
X016075Y007136D01*
X016075Y007636D01*
X016325Y007886D01*
X016075Y008136D01*
X016075Y008636D01*
X016325Y008886D01*
X016075Y009136D01*
X016075Y009636D01*
X016325Y009886D01*
X016075Y010136D01*
X016075Y010636D01*
X016325Y010886D01*
X016075Y011136D01*
X016075Y011636D01*
X016325Y011886D01*
X016075Y012136D01*
X016075Y012636D01*
X016325Y012886D01*
X016075Y013136D01*
X016075Y013636D01*
X016325Y013886D01*
X016075Y014136D01*
X016075Y014636D01*
X016325Y014886D01*
X016075Y015136D01*
X016075Y015636D01*
X016325Y015886D01*
X016075Y016136D01*
X016075Y016636D01*
X016325Y016886D01*
X016075Y017136D01*
X016075Y017636D01*
X016325Y017886D01*
X016075Y018136D01*
X016075Y018636D01*
X016325Y018886D01*
X016075Y019136D01*
X016075Y019636D01*
X016325Y019886D01*
X016075Y020136D01*
X016075Y020636D01*
X016325Y020886D01*
X016825Y020886D01*
X017075Y020636D01*
X017075Y020136D01*
X016825Y019886D01*
X017075Y019636D01*
X017075Y019136D01*
X016825Y018886D01*
X016325Y018886D01*
X016825Y018886D02*
X017075Y018636D01*
X017075Y018136D01*
X016825Y017886D01*
X017075Y017636D01*
X017075Y017136D01*
X016825Y016886D01*
X017075Y016636D01*
X017075Y016136D01*
X016825Y015886D01*
X016325Y015886D01*
X016825Y015886D02*
X017075Y015636D01*
X017075Y015136D01*
X016825Y014886D01*
X017075Y014636D01*
X017075Y014136D01*
X016825Y013886D01*
X017075Y013636D01*
X017075Y013136D01*
X016825Y012886D01*
X016325Y012886D01*
X016825Y012886D02*
X017075Y012636D01*
X017075Y012136D01*
X016825Y011886D01*
X017075Y011636D01*
X017075Y011136D01*
X016825Y010886D01*
X017075Y010636D01*
X017075Y010136D01*
X016825Y009886D01*
X016325Y009886D01*
X016825Y009886D02*
X017075Y009636D01*
X017075Y009136D01*
X016825Y008886D01*
X017075Y008636D01*
X017075Y008136D01*
X016825Y007886D01*
X017075Y007636D01*
X017075Y007136D01*
X016825Y006886D01*
X016325Y006886D01*
X016825Y006886D02*
X017075Y006636D01*
X017075Y006136D01*
X016825Y005886D02*
X016325Y005886D01*
X016325Y004886D02*
X016825Y004886D01*
X016825Y003886D02*
X017075Y003636D01*
X017075Y003136D01*
X016825Y002886D01*
X017075Y002636D01*
X017075Y002136D01*
X016825Y001886D01*
X017075Y001636D01*
X017075Y001136D01*
X016825Y000886D01*
X016325Y000886D01*
X016075Y001136D01*
X016075Y001636D01*
X016325Y001886D01*
X016075Y002136D01*
X016075Y002636D01*
X016325Y002886D01*
X016075Y003136D01*
X016075Y003636D01*
X016325Y003886D01*
X016325Y002886D02*
X016825Y002886D01*
X016825Y001886D02*
X016325Y001886D01*
X016325Y007886D02*
X016825Y007886D01*
X016825Y008886D02*
X016325Y008886D01*
X016325Y010886D02*
X016825Y010886D01*
X016825Y011886D02*
X016325Y011886D01*
X016325Y013886D02*
X016825Y013886D01*
X016825Y014886D02*
X016325Y014886D01*
X016325Y016886D02*
X016825Y016886D01*
X016825Y017886D02*
X016325Y017886D01*
X016325Y019886D02*
X016825Y019886D01*
X020400Y020530D02*
X020694Y020970D01*
X020860Y020970D02*
X020860Y020530D01*
X021081Y020530D01*
X021154Y020603D01*
X021154Y020677D01*
X021081Y020750D01*
X020860Y020750D01*
X020860Y020970D02*
X021081Y020970D01*
X021154Y020897D01*
X021154Y020824D01*
X021081Y020750D01*
X021321Y020750D02*
X021468Y020750D01*
X021321Y020530D02*
X021614Y020530D01*
X021781Y020530D02*
X021781Y020970D01*
X022075Y020970D01*
X022242Y020970D02*
X022242Y020530D01*
X022388Y020677D01*
X022535Y020530D01*
X022535Y020970D01*
X022702Y020970D02*
X022849Y020970D01*
X022775Y020970D02*
X022775Y020530D01*
X022702Y020530D02*
X022849Y020530D01*
X023009Y020530D02*
X023009Y020970D01*
X023302Y020970D01*
X023469Y020970D02*
X023616Y020970D01*
X023543Y020970D02*
X023543Y020530D01*
X023616Y020530D02*
X023469Y020530D01*
X023156Y020750D02*
X023009Y020750D01*
X022075Y020530D02*
X021781Y020530D01*
X021781Y020750D02*
X021928Y020750D01*
X021614Y020970D02*
X021321Y020970D01*
X021321Y020530D01*
X020694Y020530D02*
X020400Y020970D01*
X027348Y019886D02*
X027848Y019886D01*
X027848Y017886D02*
X027348Y017886D01*
X027348Y016886D02*
X027848Y016886D01*
X027848Y014886D02*
X027348Y014886D01*
X027348Y013886D02*
X027848Y013886D01*
X027848Y011886D02*
X027348Y011886D01*
D21*
X025322Y010766D03*
X025322Y010471D03*
X017934Y001987D03*
X017934Y001692D03*
D22*
X017934Y001839D03*
X025322Y010619D03*
D23*
X016870Y024600D02*
X016872Y024634D01*
X016878Y024668D01*
X016887Y024701D01*
X016901Y024732D01*
X016918Y024762D01*
X016938Y024790D01*
X016961Y024815D01*
X016987Y024838D01*
X017015Y024857D01*
X017045Y024873D01*
X017077Y024885D01*
X017110Y024894D01*
X017144Y024899D01*
X017179Y024900D01*
X017213Y024897D01*
X017246Y024890D01*
X017279Y024880D01*
X017310Y024865D01*
X017339Y024848D01*
X017366Y024827D01*
X017391Y024803D01*
X017413Y024776D01*
X017431Y024748D01*
X017446Y024717D01*
X017458Y024685D01*
X017466Y024651D01*
X017470Y024617D01*
X017470Y024583D01*
X017466Y024549D01*
X017458Y024515D01*
X017446Y024483D01*
X017431Y024452D01*
X017413Y024424D01*
X017391Y024397D01*
X017366Y024373D01*
X017339Y024352D01*
X017310Y024335D01*
X017279Y024320D01*
X017246Y024310D01*
X017213Y024303D01*
X017179Y024300D01*
X017144Y024301D01*
X017110Y024306D01*
X017077Y024315D01*
X017045Y024327D01*
X017015Y024343D01*
X016987Y024362D01*
X016961Y024385D01*
X016938Y024410D01*
X016918Y024438D01*
X016901Y024468D01*
X016887Y024499D01*
X016878Y024532D01*
X016872Y024566D01*
X016870Y024600D01*
M02*
