%
M48
M72
T01C0.0236
T02C0.0400
%
T01
X3960Y4826
X4511Y4589
X5219Y4589
X5062Y6164
X4432Y6794
X4589Y7345
X4589Y8290
X4589Y8841
X4747Y9393
X4432Y9865
X5141Y8999
X5613Y9471
X6007Y9944
X6322Y10337
X6873Y10731
X7424Y10731
X7897Y10731
X8369Y10731
X9786Y11361
X10574Y9629
X10574Y9078
X10574Y8526
X10731Y6558
X11282Y6558
X9944Y5298
X9078Y6715
X9078Y7267
X9078Y7818
X8133Y6086
X7739Y6637
X7267Y6086
X8133Y4038
X7739Y3723
X7345Y3408
X6715Y2306
X8133Y2621
X9156Y2778
X11125Y2778
X11676Y2542
X11912Y10495
X10495Y14353
X9314Y13566
X8684Y13960
X8133Y13566
X7345Y13566
X6558Y11912
X5692Y11991
X4983Y11991
X5613Y10731
X4117Y13566
X4117Y14353
X4589Y14747
X3566Y12385
X3566Y11834
X3487Y11204
X5928Y15141
X5928Y15849
X6164Y23015
X6952Y23015
X7739Y23015
X8526Y23015
X9314Y23015
X10101Y23015
X12070Y15613
X5377Y23015
X4589Y23015
X4668Y2306
T02
X2227Y1310
X2227Y2310
X2227Y3310
X2227Y4310
X2227Y5310
X2227Y6310
X2227Y7310
X2227Y8310
X2227Y9310
X2227Y10310
X2227Y11310
X2227Y12310
X2227Y13310
X2227Y14310
X2227Y15310
X2227Y16310
X2227Y17310
X2227Y18310
X2227Y19310
X2227Y20310
X13251Y20310
X13251Y19310
X13251Y18310
X13251Y17310
X13251Y16310
X13251Y15310
X13251Y14310
X13251Y13310
X13251Y12310
X13251Y11310
X13251Y10310
X13251Y9310
X13251Y8310
X13251Y7310
X13251Y6310
X13251Y5310
X13251Y4310
X13251Y3310
X13251Y2310
X13251Y1310
M30
