G75*
G70*
%OFA0B0*%
%FSLAX24Y24*%
%IPPOS*%
%LPD*%
%AMOC8*
5,1,8,0,0,1.08239X$1,22.5*
%
%ADD10C,0.0660*%
%ADD11C,0.0456*%
D10*
X001927Y001310D02*
X002527Y001310D01*
X002527Y002310D02*
X001927Y002310D01*
X001927Y003310D02*
X002527Y003310D01*
X002527Y004310D02*
X001927Y004310D01*
X001927Y005310D02*
X002527Y005310D01*
X002527Y006310D02*
X001927Y006310D01*
X001927Y007310D02*
X002527Y007310D01*
X002527Y008310D02*
X001927Y008310D01*
X001927Y009310D02*
X002527Y009310D01*
X002527Y010310D02*
X001927Y010310D01*
X001927Y011310D02*
X002527Y011310D01*
X002527Y012310D02*
X001927Y012310D01*
X001927Y013310D02*
X002527Y013310D01*
X002527Y014310D02*
X001927Y014310D01*
X001927Y015310D02*
X002527Y015310D01*
X002527Y016310D02*
X001927Y016310D01*
X001927Y017310D02*
X002527Y017310D01*
X002527Y018310D02*
X001927Y018310D01*
X001927Y019310D02*
X002527Y019310D01*
X002527Y020310D02*
X001927Y020310D01*
X012951Y020310D02*
X013551Y020310D01*
X013551Y019310D02*
X012951Y019310D01*
X012951Y018310D02*
X013551Y018310D01*
X013551Y017310D02*
X012951Y017310D01*
X012951Y016310D02*
X013551Y016310D01*
X013551Y015310D02*
X012951Y015310D01*
X012951Y014310D02*
X013551Y014310D01*
X013551Y013310D02*
X012951Y013310D01*
X012951Y012310D02*
X013551Y012310D01*
X013551Y011310D02*
X012951Y011310D01*
X012951Y010310D02*
X013551Y010310D01*
X013551Y009310D02*
X012951Y009310D01*
X012951Y008310D02*
X013551Y008310D01*
X013551Y007310D02*
X012951Y007310D01*
X012951Y006310D02*
X013551Y006310D01*
X013551Y005310D02*
X012951Y005310D01*
X012951Y004310D02*
X013551Y004310D01*
X013551Y003310D02*
X012951Y003310D01*
X012951Y002310D02*
X013551Y002310D01*
X013551Y001310D02*
X012951Y001310D01*
D11*
X011676Y002542D03*
X011125Y002778D03*
X009944Y005298D03*
X010731Y006558D03*
X011282Y006558D03*
X010574Y008526D03*
X010574Y009078D03*
X010574Y009629D03*
X009786Y011361D03*
X009314Y013566D03*
X008684Y013960D03*
X008133Y013566D03*
X007345Y013566D03*
X006558Y011912D03*
X006873Y010731D03*
X006322Y010337D03*
X006007Y009944D03*
X005613Y009471D03*
X005141Y008999D03*
X004747Y009393D03*
X004432Y009865D03*
X004589Y008841D03*
X004589Y008290D03*
X004589Y007345D03*
X004432Y006794D03*
X005062Y006164D03*
X005219Y004589D03*
X004511Y004589D03*
X003960Y004826D03*
X004668Y002306D03*
X006715Y002306D03*
X007345Y003408D03*
X007739Y003723D03*
X008133Y004038D03*
X008133Y002621D03*
X009156Y002778D03*
X008133Y006086D03*
X007739Y006637D03*
X007267Y006086D03*
X009078Y006715D03*
X009078Y007267D03*
X009078Y007818D03*
X008369Y010731D03*
X007897Y010731D03*
X007424Y010731D03*
X005613Y010731D03*
X005692Y011991D03*
X004983Y011991D03*
X004117Y013566D03*
X004117Y014353D03*
X004589Y014747D03*
X003566Y012385D03*
X003566Y011834D03*
X003487Y011204D03*
X005928Y015141D03*
X005928Y015849D03*
X006164Y023015D03*
X006952Y023015D03*
X007739Y023015D03*
X008526Y023015D03*
X009314Y023015D03*
X010101Y023015D03*
X012070Y015613D03*
X010495Y014353D03*
X011912Y010495D03*
X005377Y023015D03*
X004589Y023015D03*
M02*
