G75*
G70*
%OFA0B0*%
%FSLAX24Y24*%
%IPPOS*%
%LPD*%
%AMOC8*
5,1,8,0,0,1.08239X$1,22.5*
%
%ADD10C,0.0600*%
%ADD11C,0.0396*%
%ADD12C,0.0160*%
D10*
X002227Y001310D03*
X002227Y002310D03*
X002227Y003310D03*
X002227Y004310D03*
X002227Y005310D03*
X002227Y006310D03*
X002227Y007310D03*
X002227Y008310D03*
X002227Y009310D03*
X002227Y010310D03*
X002227Y011310D03*
X002227Y012310D03*
X002227Y013310D03*
X002227Y014310D03*
X002227Y015310D03*
X002227Y016310D03*
X002227Y017310D03*
X002227Y018310D03*
X002227Y019310D03*
X002227Y020310D03*
X013251Y020310D03*
X013251Y019310D03*
X013251Y018310D03*
X013251Y017310D03*
X013251Y016310D03*
X013251Y015310D03*
X013251Y014310D03*
X013251Y013310D03*
X013251Y012310D03*
X013251Y011310D03*
X013251Y010310D03*
X013251Y009310D03*
X013251Y008310D03*
X013251Y007310D03*
X013251Y006310D03*
X013251Y005310D03*
X013251Y004310D03*
X013251Y003310D03*
X013251Y002310D03*
X013251Y001310D03*
D11*
X011676Y002542D03*
X011125Y002778D03*
X009944Y005298D03*
X010731Y006558D03*
X011282Y006558D03*
X010574Y008526D03*
X010574Y009078D03*
X010574Y009629D03*
X009786Y011361D03*
X009314Y013566D03*
X008684Y013960D03*
X008133Y013566D03*
X007345Y013566D03*
X006558Y011912D03*
X006873Y010731D03*
X006322Y010337D03*
X006007Y009944D03*
X005613Y009471D03*
X005141Y008999D03*
X004747Y009393D03*
X004432Y009865D03*
X004589Y008841D03*
X004589Y008290D03*
X004589Y007345D03*
X004432Y006794D03*
X005062Y006164D03*
X005219Y004589D03*
X004511Y004589D03*
X003960Y004826D03*
X004668Y002306D03*
X006715Y002306D03*
X007345Y003408D03*
X007739Y003723D03*
X008133Y004038D03*
X008133Y002621D03*
X009156Y002778D03*
X008133Y006086D03*
X007739Y006637D03*
X007267Y006086D03*
X009078Y006715D03*
X009078Y007267D03*
X009078Y007818D03*
X008369Y010731D03*
X007897Y010731D03*
X007424Y010731D03*
X005613Y010731D03*
X005692Y011991D03*
X004983Y011991D03*
X004117Y013566D03*
X004117Y014353D03*
X004589Y014747D03*
X003566Y012385D03*
X003566Y011834D03*
X003487Y011204D03*
X005928Y015141D03*
X005928Y015849D03*
X006164Y023015D03*
X006952Y023015D03*
X007739Y023015D03*
X008526Y023015D03*
X009314Y023015D03*
X010101Y023015D03*
X012070Y015613D03*
X010495Y014353D03*
X011912Y010495D03*
X005377Y023015D03*
X004589Y023015D03*
D12*
X000932Y023802D02*
X000932Y000854D01*
X002078Y000854D01*
X002043Y000865D01*
X001976Y000899D01*
X001915Y000944D01*
X001861Y000997D01*
X001817Y001058D01*
X001782Y001126D01*
X001759Y001198D01*
X001747Y001272D01*
X001747Y001290D01*
X002207Y001290D01*
X002207Y001330D01*
X001747Y001330D01*
X001747Y001348D01*
X001759Y001422D01*
X001782Y001494D01*
X001817Y001561D01*
X001861Y001623D01*
X001915Y001676D01*
X001976Y001720D01*
X002043Y001755D01*
X002115Y001778D01*
X002189Y001790D01*
X002207Y001790D01*
X002207Y001330D01*
X002247Y001330D01*
X002247Y001790D01*
X002265Y001790D01*
X002340Y001778D01*
X002411Y001755D01*
X002479Y001720D01*
X002540Y001676D01*
X002593Y001623D01*
X002638Y001561D01*
X002672Y001494D01*
X002695Y001422D01*
X002707Y001348D01*
X002707Y001330D01*
X002247Y001330D01*
X002247Y001290D01*
X002707Y001290D01*
X002707Y001272D01*
X002695Y001198D01*
X002672Y001126D01*
X002638Y001058D01*
X002593Y000997D01*
X002540Y000944D01*
X002479Y000899D01*
X002411Y000865D01*
X002376Y000854D01*
X013102Y000854D01*
X013067Y000865D01*
X012999Y000899D01*
X012938Y000944D01*
X012885Y000997D01*
X012840Y001058D01*
X012806Y001126D01*
X012783Y001198D01*
X012771Y001272D01*
X012771Y001290D01*
X013231Y001290D01*
X013231Y001330D01*
X013231Y001790D01*
X013213Y001790D01*
X013138Y001778D01*
X013067Y001755D01*
X012999Y001720D01*
X012938Y001676D01*
X012885Y001623D01*
X012840Y001561D01*
X012806Y001494D01*
X012783Y001422D01*
X012771Y001348D01*
X012771Y001330D01*
X013231Y001330D01*
X013271Y001330D01*
X013731Y001330D01*
X013731Y001348D01*
X013719Y001422D01*
X013696Y001494D01*
X013661Y001561D01*
X013617Y001623D01*
X013564Y001676D01*
X013502Y001720D01*
X013435Y001755D01*
X013363Y001778D01*
X013289Y001790D01*
X013271Y001790D01*
X013271Y001330D01*
X013271Y001290D01*
X013731Y001290D01*
X013731Y001272D01*
X013719Y001198D01*
X013696Y001126D01*
X013661Y001058D01*
X013617Y000997D01*
X013564Y000944D01*
X013502Y000899D01*
X013435Y000865D01*
X013400Y000854D01*
X014546Y000854D01*
X014546Y023802D01*
X000932Y023802D01*
X000932Y023715D02*
X014546Y023715D01*
X014546Y023556D02*
X000932Y023556D01*
X000932Y023398D02*
X014546Y023398D01*
X014546Y023239D02*
X000932Y023239D01*
X000932Y023081D02*
X014546Y023081D01*
X014546Y022922D02*
X000932Y022922D01*
X000932Y022764D02*
X014546Y022764D01*
X014546Y022605D02*
X000932Y022605D01*
X000932Y022447D02*
X014546Y022447D01*
X014546Y022288D02*
X000932Y022288D01*
X000932Y022130D02*
X014546Y022130D01*
X014546Y021971D02*
X000932Y021971D01*
X000932Y021813D02*
X014546Y021813D01*
X014546Y021654D02*
X000932Y021654D01*
X000932Y021496D02*
X014546Y021496D01*
X014546Y021337D02*
X000932Y021337D01*
X000932Y021179D02*
X014546Y021179D01*
X014546Y021020D02*
X000932Y021020D01*
X000932Y020862D02*
X014546Y020862D01*
X014546Y020703D02*
X013451Y020703D01*
X013500Y020683D02*
X013338Y020750D01*
X013163Y020750D01*
X013002Y020683D01*
X012878Y020559D01*
X012811Y020397D01*
X012811Y020222D01*
X012878Y020061D01*
X013002Y019937D01*
X013163Y019870D01*
X013338Y019870D01*
X013500Y019937D01*
X013624Y020061D01*
X013691Y020222D01*
X013691Y020397D01*
X013624Y020559D01*
X013500Y020683D01*
X013630Y020545D02*
X014546Y020545D01*
X014546Y020386D02*
X013691Y020386D01*
X013691Y020228D02*
X014546Y020228D01*
X014546Y020069D02*
X013627Y020069D01*
X013437Y019911D02*
X014546Y019911D01*
X014546Y019752D02*
X000932Y019752D01*
X000932Y019594D02*
X001889Y019594D01*
X001854Y019559D02*
X001787Y019397D01*
X001787Y019222D01*
X001854Y019061D01*
X001978Y018937D01*
X002140Y018870D01*
X002315Y018870D01*
X002476Y018937D01*
X002600Y019061D01*
X002667Y019222D01*
X002667Y019397D01*
X002600Y019559D01*
X002476Y019683D01*
X002315Y019750D01*
X002140Y019750D01*
X001978Y019683D01*
X001854Y019559D01*
X001803Y019435D02*
X000932Y019435D01*
X000932Y019277D02*
X001787Y019277D01*
X001830Y019118D02*
X000932Y019118D01*
X000932Y018960D02*
X001955Y018960D01*
X001978Y018683D02*
X001854Y018559D01*
X001787Y018397D01*
X001787Y018222D01*
X001854Y018061D01*
X001978Y017937D01*
X002140Y017870D01*
X002315Y017870D01*
X002476Y017937D01*
X002600Y018061D01*
X002667Y018222D01*
X002667Y018397D01*
X002600Y018559D01*
X002476Y018683D01*
X002315Y018750D01*
X002140Y018750D01*
X001978Y018683D01*
X001938Y018643D02*
X000932Y018643D01*
X000932Y018801D02*
X014546Y018801D01*
X014546Y018643D02*
X013540Y018643D01*
X013500Y018683D02*
X013338Y018750D01*
X013163Y018750D01*
X013002Y018683D01*
X012878Y018559D01*
X012811Y018397D01*
X012811Y018222D01*
X012878Y018061D01*
X013002Y017937D01*
X013163Y017870D01*
X013338Y017870D01*
X013500Y017937D01*
X013624Y018061D01*
X013691Y018222D01*
X013691Y018397D01*
X013624Y018559D01*
X013500Y018683D01*
X013338Y018870D02*
X013500Y018937D01*
X013624Y019061D01*
X013691Y019222D01*
X013691Y019397D01*
X013624Y019559D01*
X013500Y019683D01*
X013338Y019750D01*
X013163Y019750D01*
X013002Y019683D01*
X012878Y019559D01*
X012811Y019397D01*
X012811Y019222D01*
X012878Y019061D01*
X013002Y018937D01*
X013163Y018870D01*
X013338Y018870D01*
X013523Y018960D02*
X014546Y018960D01*
X014546Y019118D02*
X013648Y019118D01*
X013691Y019277D02*
X014546Y019277D01*
X014546Y019435D02*
X013675Y019435D01*
X013589Y019594D02*
X014546Y019594D01*
X014546Y018484D02*
X013655Y018484D01*
X013691Y018326D02*
X014546Y018326D01*
X014546Y018167D02*
X013668Y018167D01*
X013572Y018009D02*
X014546Y018009D01*
X014546Y017850D02*
X000932Y017850D01*
X000932Y017692D02*
X001999Y017692D01*
X001978Y017683D02*
X001854Y017559D01*
X001787Y017397D01*
X001787Y017222D01*
X001854Y017061D01*
X001978Y016937D01*
X002140Y016870D01*
X002315Y016870D01*
X002476Y016937D01*
X002600Y017061D01*
X002667Y017222D01*
X002667Y017397D01*
X002600Y017559D01*
X002476Y017683D01*
X002315Y017750D01*
X002140Y017750D01*
X001978Y017683D01*
X001843Y017533D02*
X000932Y017533D01*
X000932Y017375D02*
X001787Y017375D01*
X001790Y017216D02*
X000932Y017216D01*
X000932Y017058D02*
X001857Y017058D01*
X002069Y016899D02*
X000932Y016899D01*
X000932Y016741D02*
X002118Y016741D01*
X002140Y016750D02*
X001978Y016683D01*
X001854Y016559D01*
X001787Y016397D01*
X001787Y016222D01*
X001854Y016061D01*
X001978Y015937D01*
X002140Y015870D01*
X002315Y015870D01*
X002476Y015937D01*
X002600Y016061D01*
X002667Y016222D01*
X002667Y016397D01*
X002600Y016559D01*
X002476Y016683D01*
X002315Y016750D01*
X002140Y016750D01*
X001877Y016582D02*
X000932Y016582D01*
X000932Y016424D02*
X001798Y016424D01*
X001787Y016265D02*
X000932Y016265D01*
X000932Y016107D02*
X001835Y016107D01*
X001967Y015948D02*
X000932Y015948D01*
X000932Y015790D02*
X005590Y015790D01*
X005590Y015782D02*
X005641Y015658D01*
X005737Y015563D01*
X005861Y015511D01*
X005995Y015511D01*
X006120Y015563D01*
X006215Y015658D01*
X006266Y015782D01*
X006266Y015917D01*
X006215Y016041D01*
X006120Y016136D01*
X005995Y016187D01*
X005861Y016187D01*
X005737Y016136D01*
X005641Y016041D01*
X005590Y015917D01*
X005590Y015782D01*
X005603Y015948D02*
X002488Y015948D01*
X002619Y016107D02*
X005707Y016107D01*
X006149Y016107D02*
X012859Y016107D01*
X012878Y016061D02*
X013002Y015937D01*
X013163Y015870D01*
X013338Y015870D01*
X013500Y015937D01*
X013624Y016061D01*
X013691Y016222D01*
X013691Y016397D01*
X013624Y016559D01*
X013500Y016683D01*
X013338Y016750D01*
X013163Y016750D01*
X013002Y016683D01*
X012878Y016559D01*
X012811Y016397D01*
X012811Y016222D01*
X012878Y016061D01*
X012990Y015948D02*
X012144Y015948D01*
X012137Y015951D02*
X012003Y015951D01*
X011878Y015900D01*
X011783Y015805D01*
X011732Y015680D01*
X011732Y015546D01*
X011783Y015422D01*
X011878Y015326D01*
X012003Y015275D01*
X012137Y015275D01*
X012261Y015326D01*
X012356Y015422D01*
X012408Y015546D01*
X012408Y015680D01*
X012356Y015805D01*
X012261Y015900D01*
X012137Y015951D01*
X011995Y015948D02*
X006253Y015948D01*
X006266Y015790D02*
X011777Y015790D01*
X011732Y015631D02*
X006188Y015631D01*
X006120Y015427D02*
X006215Y015332D01*
X006266Y015208D01*
X006266Y015073D01*
X006215Y014949D01*
X006120Y014854D01*
X005995Y014803D01*
X005861Y014803D01*
X005737Y014854D01*
X005641Y014949D01*
X005590Y015073D01*
X005590Y015208D01*
X005641Y015332D01*
X005737Y015427D01*
X005861Y015479D01*
X005995Y015479D01*
X006120Y015427D01*
X006010Y015473D02*
X011762Y015473D01*
X011908Y015314D02*
X006222Y015314D01*
X006266Y015156D02*
X012838Y015156D01*
X012811Y015222D02*
X012878Y015061D01*
X013002Y014937D01*
X013163Y014870D01*
X013338Y014870D01*
X013500Y014937D01*
X013624Y015061D01*
X013691Y015222D01*
X013691Y015397D01*
X013624Y015559D01*
X013500Y015683D01*
X013338Y015750D01*
X013163Y015750D01*
X013002Y015683D01*
X012878Y015559D01*
X012811Y015397D01*
X012811Y015222D01*
X012811Y015314D02*
X012232Y015314D01*
X012378Y015473D02*
X012842Y015473D01*
X012950Y015631D02*
X012408Y015631D01*
X012363Y015790D02*
X014546Y015790D01*
X014546Y015948D02*
X013511Y015948D01*
X013643Y016107D02*
X014546Y016107D01*
X014546Y016265D02*
X013691Y016265D01*
X013680Y016424D02*
X014546Y016424D01*
X014546Y016582D02*
X013601Y016582D01*
X013500Y016937D02*
X013624Y017061D01*
X013691Y017222D01*
X013691Y017397D01*
X013624Y017559D01*
X013500Y017683D01*
X013338Y017750D01*
X013163Y017750D01*
X013002Y017683D01*
X012878Y017559D01*
X012811Y017397D01*
X012811Y017222D01*
X012878Y017061D01*
X013002Y016937D01*
X013163Y016870D01*
X013338Y016870D01*
X013500Y016937D01*
X013409Y016899D02*
X014546Y016899D01*
X014546Y016741D02*
X013361Y016741D01*
X013141Y016741D02*
X002337Y016741D01*
X002386Y016899D02*
X013093Y016899D01*
X012881Y017058D02*
X002597Y017058D01*
X002665Y017216D02*
X012813Y017216D01*
X012811Y017375D02*
X002667Y017375D01*
X002611Y017533D02*
X012867Y017533D01*
X013023Y017692D02*
X002455Y017692D01*
X002548Y018009D02*
X012930Y018009D01*
X012834Y018167D02*
X002644Y018167D01*
X002667Y018326D02*
X012811Y018326D01*
X012847Y018484D02*
X002631Y018484D01*
X002517Y018643D02*
X012961Y018643D01*
X012979Y018960D02*
X002499Y018960D01*
X002624Y019118D02*
X012854Y019118D01*
X012811Y019277D02*
X002667Y019277D01*
X002652Y019435D02*
X012827Y019435D01*
X012912Y019594D02*
X002566Y019594D01*
X002413Y019911D02*
X013065Y019911D01*
X012874Y020069D02*
X002604Y020069D01*
X002600Y020061D02*
X002667Y020222D01*
X002667Y020397D01*
X002600Y020559D01*
X002476Y020683D01*
X002315Y020750D01*
X002140Y020750D01*
X001978Y020683D01*
X001854Y020559D01*
X001787Y020397D01*
X001787Y020222D01*
X001854Y020061D01*
X001978Y019937D01*
X002140Y019870D01*
X002315Y019870D01*
X002476Y019937D01*
X002600Y020061D01*
X002667Y020228D02*
X012811Y020228D01*
X012811Y020386D02*
X002667Y020386D01*
X002606Y020545D02*
X012872Y020545D01*
X013051Y020703D02*
X002427Y020703D01*
X002027Y020703D02*
X000932Y020703D01*
X000932Y020545D02*
X001848Y020545D01*
X001787Y020386D02*
X000932Y020386D01*
X000932Y020228D02*
X001787Y020228D01*
X001851Y020069D02*
X000932Y020069D01*
X000932Y019911D02*
X002041Y019911D01*
X001823Y018484D02*
X000932Y018484D01*
X000932Y018326D02*
X001787Y018326D01*
X001810Y018167D02*
X000932Y018167D01*
X000932Y018009D02*
X001906Y018009D01*
X002577Y016582D02*
X012901Y016582D01*
X012822Y016424D02*
X002656Y016424D01*
X002667Y016265D02*
X012811Y016265D01*
X013552Y015631D02*
X014546Y015631D01*
X014546Y015473D02*
X013660Y015473D01*
X013691Y015314D02*
X014546Y015314D01*
X014546Y015156D02*
X013663Y015156D01*
X013560Y014997D02*
X014546Y014997D01*
X014546Y014839D02*
X006083Y014839D01*
X006235Y014997D02*
X012941Y014997D01*
X013002Y014683D02*
X012878Y014559D01*
X012811Y014397D01*
X012811Y014222D01*
X012878Y014061D01*
X013002Y013937D01*
X013163Y013870D01*
X013338Y013870D01*
X013500Y013937D01*
X013624Y014061D01*
X013691Y014222D01*
X013691Y014397D01*
X013624Y014559D01*
X013500Y014683D01*
X013338Y014750D01*
X013163Y014750D01*
X013002Y014683D01*
X012999Y014680D02*
X010589Y014680D01*
X010562Y014691D02*
X010428Y014691D01*
X010303Y014640D01*
X010208Y014545D01*
X010157Y014420D01*
X010157Y014286D01*
X010208Y014162D01*
X010303Y014067D01*
X010428Y014015D01*
X010562Y014015D01*
X010686Y014067D01*
X010782Y014162D01*
X010833Y014286D01*
X010833Y014420D01*
X010782Y014545D01*
X010686Y014640D01*
X010562Y014691D01*
X010401Y014680D02*
X004928Y014680D01*
X004876Y014555D01*
X004781Y014460D01*
X004657Y014409D01*
X004522Y014409D01*
X004447Y014440D01*
X004455Y014420D01*
X004455Y014286D01*
X004404Y014162D01*
X004309Y014067D01*
X004184Y014015D01*
X004050Y014015D01*
X003925Y014067D01*
X003830Y014162D01*
X003779Y014286D01*
X003779Y014420D01*
X003830Y014545D01*
X003925Y014640D01*
X004050Y014691D01*
X004184Y014691D01*
X004259Y014660D01*
X004251Y014680D01*
X004211Y014680D01*
X004251Y014680D02*
X004251Y014814D01*
X004303Y014938D01*
X004398Y015034D01*
X004522Y015085D01*
X004657Y015085D01*
X004781Y015034D01*
X004876Y014938D01*
X004928Y014814D01*
X004928Y014680D01*
X004917Y014839D02*
X005773Y014839D01*
X005621Y014997D02*
X004817Y014997D01*
X004842Y014522D02*
X010199Y014522D01*
X010157Y014363D02*
X004455Y014363D01*
X004421Y014205D02*
X008451Y014205D01*
X008492Y014246D02*
X008397Y014151D01*
X008346Y014027D01*
X008346Y013892D01*
X008397Y013768D01*
X008492Y013673D01*
X008617Y013621D01*
X008751Y013621D01*
X008875Y013673D01*
X008971Y013768D01*
X009022Y013892D01*
X009022Y014027D01*
X008971Y014151D01*
X008875Y014246D01*
X008751Y014298D01*
X008617Y014298D01*
X008492Y014246D01*
X008354Y014046D02*
X004259Y014046D01*
X004184Y013904D02*
X004050Y013904D01*
X003925Y013852D01*
X003830Y013757D01*
X003779Y013633D01*
X003779Y013499D01*
X003830Y013374D01*
X003925Y013279D01*
X004050Y013228D01*
X004184Y013228D01*
X004309Y013279D01*
X004404Y013374D01*
X004455Y013499D01*
X004455Y013633D01*
X004404Y013757D01*
X004309Y013852D01*
X004184Y013904D01*
X004223Y013888D02*
X008348Y013888D01*
X008436Y013729D02*
X004415Y013729D01*
X004455Y013571D02*
X008976Y013571D01*
X008976Y013633D02*
X008976Y013499D01*
X009027Y013374D01*
X009122Y013279D01*
X009247Y013228D01*
X009381Y013228D01*
X009505Y013279D01*
X009600Y013374D01*
X009652Y013499D01*
X009652Y013633D01*
X009600Y013757D01*
X009505Y013852D01*
X009381Y013904D01*
X009247Y013904D01*
X009122Y013852D01*
X009027Y013757D01*
X008976Y013633D01*
X009016Y013729D02*
X008932Y013729D01*
X009020Y013888D02*
X009207Y013888D01*
X009014Y014046D02*
X010353Y014046D01*
X010191Y014205D02*
X008917Y014205D01*
X009012Y013412D02*
X004419Y013412D01*
X004247Y013254D02*
X009184Y013254D01*
X009444Y013254D02*
X012811Y013254D01*
X012811Y013222D02*
X012878Y013061D01*
X013002Y012937D01*
X002476Y012937D01*
X002600Y013061D01*
X002667Y013222D01*
X002667Y013397D01*
X002600Y013559D01*
X002476Y013683D01*
X002315Y013750D01*
X002140Y013750D01*
X001978Y013683D01*
X001854Y013559D01*
X001787Y013397D01*
X001787Y013222D01*
X001854Y013061D01*
X001978Y012937D01*
X002140Y012870D01*
X002315Y012870D01*
X002476Y012937D01*
X002615Y013095D02*
X012864Y013095D01*
X012811Y013222D02*
X012811Y013397D01*
X012878Y013559D01*
X013002Y013683D01*
X013163Y013750D01*
X013338Y013750D01*
X013500Y013683D01*
X013624Y013559D01*
X013691Y013397D01*
X013691Y013222D01*
X013624Y013061D01*
X013500Y012937D01*
X013338Y012870D01*
X013163Y012870D01*
X013002Y012937D01*
X013163Y012750D02*
X013002Y012683D01*
X012878Y012559D01*
X012811Y012397D01*
X012811Y012222D01*
X012878Y012061D01*
X013002Y011937D01*
X013163Y011870D01*
X013338Y011870D01*
X013500Y011937D01*
X013624Y012061D01*
X013691Y012222D01*
X013691Y012397D01*
X013624Y012559D01*
X013500Y012683D01*
X013338Y012750D01*
X013163Y012750D01*
X012938Y012620D02*
X003809Y012620D01*
X003852Y012576D02*
X003757Y012671D01*
X003633Y012723D01*
X003499Y012723D01*
X003374Y012671D01*
X003279Y012576D01*
X003228Y012452D01*
X003228Y012317D01*
X003279Y012193D01*
X003363Y012109D01*
X003279Y012025D01*
X003228Y011901D01*
X003228Y011766D01*
X003279Y011642D01*
X003374Y011547D01*
X003403Y011535D01*
X003296Y011490D01*
X003200Y011395D01*
X003149Y011271D01*
X003149Y011136D01*
X003200Y011012D01*
X003296Y010917D01*
X003420Y010866D01*
X003554Y010866D01*
X003679Y010917D01*
X003774Y011012D01*
X003825Y011136D01*
X003825Y011271D01*
X003774Y011395D01*
X003679Y011490D01*
X003650Y011502D01*
X003757Y011547D01*
X003852Y011642D01*
X003904Y011766D01*
X003904Y011901D01*
X003852Y012025D01*
X003768Y012109D01*
X003852Y012193D01*
X003904Y012317D01*
X003904Y012452D01*
X003852Y012576D01*
X003900Y012461D02*
X012837Y012461D01*
X012811Y012303D02*
X005823Y012303D01*
X005883Y012278D02*
X005759Y012329D01*
X005625Y012329D01*
X005500Y012278D01*
X005405Y012183D01*
X005354Y012058D01*
X005354Y011924D01*
X005405Y011799D01*
X005500Y011704D01*
X005625Y011653D01*
X005759Y011653D01*
X005883Y011704D01*
X005978Y011799D01*
X006030Y011924D01*
X006030Y012058D01*
X005978Y012183D01*
X005883Y012278D01*
X005994Y012144D02*
X006312Y012144D01*
X006271Y012104D02*
X006220Y011980D01*
X006220Y011845D01*
X006271Y011721D01*
X006366Y011626D01*
X006491Y011574D01*
X006625Y011574D01*
X006749Y011626D01*
X006845Y011721D01*
X006896Y011845D01*
X006896Y011980D01*
X006845Y012104D01*
X006749Y012199D01*
X006625Y012250D01*
X006491Y012250D01*
X006366Y012199D01*
X006271Y012104D01*
X006222Y011986D02*
X006030Y011986D01*
X005990Y011827D02*
X006227Y011827D01*
X006323Y011669D02*
X005797Y011669D01*
X005586Y011669D02*
X005089Y011669D01*
X005050Y011653D02*
X005175Y011704D01*
X005270Y011799D01*
X005321Y011924D01*
X005321Y012058D01*
X005270Y012183D01*
X005175Y012278D01*
X005050Y012329D01*
X004916Y012329D01*
X004792Y012278D01*
X004697Y012183D01*
X004645Y012058D01*
X004645Y011924D01*
X004697Y011799D01*
X004792Y011704D01*
X004916Y011653D01*
X005050Y011653D01*
X004878Y011669D02*
X003864Y011669D01*
X003904Y011827D02*
X004685Y011827D01*
X004645Y011986D02*
X003869Y011986D01*
X003803Y012144D02*
X004681Y012144D01*
X004852Y012303D02*
X003898Y012303D01*
X003669Y011510D02*
X009482Y011510D01*
X009500Y011553D02*
X009448Y011428D01*
X009448Y011294D01*
X009500Y011170D01*
X009595Y011074D01*
X009719Y011023D01*
X009854Y011023D01*
X009978Y011074D01*
X010073Y011170D01*
X010124Y011294D01*
X010124Y011428D01*
X010073Y011553D01*
X009978Y011648D01*
X009854Y011699D01*
X009719Y011699D01*
X009595Y011648D01*
X009500Y011553D01*
X009645Y011669D02*
X006793Y011669D01*
X006889Y011827D02*
X014546Y011827D01*
X014546Y011669D02*
X013514Y011669D01*
X013500Y011683D02*
X013338Y011750D01*
X013163Y011750D01*
X013002Y011683D01*
X012878Y011559D01*
X012811Y011397D01*
X012811Y011222D01*
X012878Y011061D01*
X013002Y010937D01*
X013163Y010870D01*
X013338Y010870D01*
X013500Y010937D01*
X013624Y011061D01*
X013691Y011222D01*
X013691Y011397D01*
X013624Y011559D01*
X013500Y011683D01*
X013644Y011510D02*
X014546Y011510D01*
X014546Y011352D02*
X013691Y011352D01*
X013679Y011193D02*
X014546Y011193D01*
X014546Y011035D02*
X013598Y011035D01*
X013354Y010876D02*
X014546Y010876D01*
X014546Y010718D02*
X013416Y010718D01*
X013338Y010750D02*
X013500Y010683D01*
X013624Y010559D01*
X013691Y010397D01*
X013691Y010222D01*
X013624Y010061D01*
X013500Y009937D01*
X013338Y009870D01*
X013163Y009870D01*
X013002Y009937D01*
X012878Y010061D01*
X012811Y010222D01*
X012811Y010397D01*
X012878Y010559D01*
X013002Y010683D01*
X013163Y010750D01*
X013338Y010750D01*
X013148Y010876D02*
X008675Y010876D01*
X008656Y010923D02*
X008560Y011018D01*
X008436Y011069D01*
X008302Y011069D01*
X008177Y011018D01*
X008133Y010973D01*
X008088Y011018D01*
X007964Y011069D01*
X007829Y011069D01*
X007705Y011018D01*
X007660Y010973D01*
X007616Y011018D01*
X007491Y011069D01*
X007357Y011069D01*
X007233Y011018D01*
X007149Y010934D01*
X007064Y011018D01*
X006940Y011069D01*
X006806Y011069D01*
X006681Y011018D01*
X006586Y010923D01*
X006535Y010798D01*
X006535Y010664D01*
X006578Y010559D01*
X006513Y010624D01*
X006389Y010676D01*
X006254Y010676D01*
X006130Y010624D01*
X006035Y010529D01*
X005984Y010405D01*
X005984Y010282D01*
X005940Y010282D01*
X005815Y010230D01*
X005720Y010135D01*
X005669Y010011D01*
X005669Y009877D01*
X005700Y009801D01*
X005680Y009809D01*
X005546Y009809D01*
X005422Y009758D01*
X005326Y009663D01*
X005275Y009539D01*
X005275Y009404D01*
X005322Y009290D01*
X005208Y009337D01*
X005073Y009337D01*
X004949Y009286D01*
X004854Y009190D01*
X004814Y009095D01*
X004781Y009128D01*
X004657Y009180D01*
X004522Y009180D01*
X004398Y009128D01*
X004303Y009033D01*
X004251Y008909D01*
X004251Y008774D01*
X004303Y008650D01*
X004387Y008566D01*
X004303Y008482D01*
X004251Y008357D01*
X004251Y008223D01*
X004303Y008099D01*
X004398Y008004D01*
X004522Y007952D01*
X004657Y007952D01*
X004781Y008004D01*
X004876Y008099D01*
X004928Y008223D01*
X004928Y008357D01*
X004876Y008482D01*
X004792Y008566D01*
X004876Y008650D01*
X004916Y008746D01*
X004949Y008712D01*
X005073Y008661D01*
X005208Y008661D01*
X005332Y008712D01*
X005427Y008807D01*
X005479Y008932D01*
X005479Y009066D01*
X005431Y009181D01*
X005546Y009133D01*
X005680Y009133D01*
X005805Y009185D01*
X005900Y009280D01*
X005951Y009404D01*
X005951Y009539D01*
X005920Y009614D01*
X005940Y009606D01*
X006074Y009606D01*
X006198Y009657D01*
X006293Y009752D01*
X006345Y009877D01*
X006345Y009999D01*
X006389Y009999D01*
X006513Y010051D01*
X006608Y010146D01*
X006660Y010270D01*
X006660Y010405D01*
X006616Y010509D01*
X006681Y010445D01*
X006806Y010393D01*
X006940Y010393D01*
X007064Y010445D01*
X007149Y010529D01*
X007233Y010445D01*
X007357Y010393D01*
X007491Y010393D01*
X007616Y010445D01*
X007660Y010489D01*
X007705Y010445D01*
X007829Y010393D01*
X007964Y010393D01*
X008088Y010445D01*
X008133Y010489D01*
X008177Y010445D01*
X008302Y010393D01*
X008436Y010393D01*
X008560Y010445D01*
X008656Y010540D01*
X008707Y010664D01*
X008707Y010798D01*
X008656Y010923D01*
X008520Y011035D02*
X009691Y011035D01*
X009490Y011193D02*
X003825Y011193D01*
X003792Y011352D02*
X009448Y011352D01*
X009882Y011035D02*
X012904Y011035D01*
X012823Y011193D02*
X010083Y011193D01*
X010124Y011352D02*
X012811Y011352D01*
X012858Y011510D02*
X010091Y011510D01*
X009927Y011669D02*
X012987Y011669D01*
X012953Y011986D02*
X006894Y011986D01*
X006804Y012144D02*
X012843Y012144D01*
X013549Y011986D02*
X014546Y011986D01*
X014546Y012144D02*
X013658Y012144D01*
X013691Y012303D02*
X014546Y012303D01*
X014546Y012461D02*
X013664Y012461D01*
X013563Y012620D02*
X014546Y012620D01*
X014546Y012778D02*
X000932Y012778D01*
X000932Y012620D02*
X001915Y012620D01*
X001854Y012559D02*
X001787Y012397D01*
X001787Y012222D01*
X001854Y012061D01*
X001978Y011937D01*
X002140Y011870D01*
X002315Y011870D01*
X002476Y011937D01*
X002600Y012061D01*
X002667Y012222D01*
X002667Y012397D01*
X002600Y012559D01*
X002476Y012683D01*
X002315Y012750D01*
X002140Y012750D01*
X001978Y012683D01*
X001854Y012559D01*
X001814Y012461D02*
X000932Y012461D01*
X000932Y012303D02*
X001787Y012303D01*
X001820Y012144D02*
X000932Y012144D01*
X000932Y011986D02*
X001929Y011986D01*
X001978Y011683D02*
X001854Y011559D01*
X001787Y011397D01*
X001787Y011222D01*
X001854Y011061D01*
X001978Y010937D01*
X002140Y010870D01*
X002315Y010870D01*
X002476Y010937D01*
X002600Y011061D01*
X002667Y011222D01*
X002667Y011397D01*
X002600Y011559D01*
X002476Y011683D01*
X002315Y011750D01*
X002140Y011750D01*
X001978Y011683D01*
X001964Y011669D02*
X000932Y011669D01*
X000932Y011827D02*
X003228Y011827D01*
X003263Y011986D02*
X002525Y011986D01*
X002635Y012144D02*
X003328Y012144D01*
X003234Y012303D02*
X002667Y012303D01*
X002641Y012461D02*
X003232Y012461D01*
X003323Y012620D02*
X002540Y012620D01*
X002667Y013254D02*
X003987Y013254D01*
X003815Y013412D02*
X002661Y013412D01*
X002589Y013571D02*
X003779Y013571D01*
X003819Y013729D02*
X002365Y013729D01*
X002315Y013870D02*
X002476Y013937D01*
X002600Y014061D01*
X002667Y014222D01*
X002667Y014397D01*
X002600Y014559D01*
X002476Y014683D01*
X002315Y014750D01*
X002140Y014750D01*
X001978Y014683D01*
X001854Y014559D01*
X001787Y014397D01*
X001787Y014222D01*
X001854Y014061D01*
X001978Y013937D01*
X002140Y013870D01*
X002315Y013870D01*
X002358Y013888D02*
X004011Y013888D01*
X003975Y014046D02*
X002586Y014046D01*
X002660Y014205D02*
X003813Y014205D01*
X003779Y014363D02*
X002667Y014363D01*
X002616Y014522D02*
X003821Y014522D01*
X004023Y014680D02*
X002479Y014680D01*
X002315Y014870D02*
X002476Y014937D01*
X002600Y015061D01*
X002667Y015222D01*
X002667Y015397D01*
X002600Y015559D01*
X002476Y015683D01*
X002315Y015750D01*
X002140Y015750D01*
X001978Y015683D01*
X001854Y015559D01*
X001787Y015397D01*
X001787Y015222D01*
X001854Y015061D01*
X001978Y014937D01*
X002140Y014870D01*
X002315Y014870D01*
X002537Y014997D02*
X004362Y014997D01*
X004262Y014839D02*
X000932Y014839D01*
X000932Y014997D02*
X001918Y014997D01*
X001815Y015156D02*
X000932Y015156D01*
X000932Y015314D02*
X001787Y015314D01*
X001818Y015473D02*
X000932Y015473D01*
X000932Y015631D02*
X001926Y015631D01*
X001975Y014680D02*
X000932Y014680D01*
X000932Y014522D02*
X001839Y014522D01*
X001787Y014363D02*
X000932Y014363D01*
X000932Y014205D02*
X001795Y014205D01*
X001869Y014046D02*
X000932Y014046D01*
X000932Y013888D02*
X002097Y013888D01*
X002090Y013729D02*
X000932Y013729D01*
X000932Y013571D02*
X001866Y013571D01*
X001793Y013412D02*
X000932Y013412D01*
X000932Y013254D02*
X001787Y013254D01*
X001840Y013095D02*
X000932Y013095D01*
X000932Y012937D02*
X001978Y012937D01*
X002491Y011669D02*
X003268Y011669D01*
X003344Y011510D02*
X002621Y011510D01*
X002667Y011352D02*
X003182Y011352D01*
X003149Y011193D02*
X002655Y011193D01*
X002574Y011035D02*
X003191Y011035D01*
X003394Y010876D02*
X002330Y010876D01*
X002315Y010750D02*
X002140Y010750D01*
X001978Y010683D01*
X001854Y010559D01*
X001787Y010397D01*
X001787Y010222D01*
X001854Y010061D01*
X001978Y009937D01*
X002140Y009870D01*
X002315Y009870D01*
X002476Y009937D01*
X002600Y010061D01*
X002667Y010222D01*
X002667Y010397D01*
X002600Y010559D01*
X005318Y010559D01*
X005326Y010540D02*
X005422Y010445D01*
X005546Y010393D01*
X005680Y010393D01*
X005805Y010445D01*
X005900Y010540D01*
X005951Y010664D01*
X005951Y010798D01*
X005900Y010923D01*
X005805Y011018D01*
X005680Y011069D01*
X005546Y011069D01*
X005422Y011018D01*
X005326Y010923D01*
X005275Y010798D01*
X005275Y010664D01*
X005326Y010540D01*
X005275Y010718D02*
X002393Y010718D01*
X002315Y010750D02*
X002476Y010683D01*
X002600Y010559D01*
X002666Y010401D02*
X005527Y010401D01*
X005669Y009925D02*
X004770Y009925D01*
X004770Y009932D02*
X004719Y010057D01*
X004623Y010152D01*
X004499Y010203D01*
X004365Y010203D01*
X004240Y010152D01*
X004145Y010057D01*
X004094Y009932D01*
X004094Y009798D01*
X004145Y009674D01*
X004240Y009578D01*
X004365Y009527D01*
X004499Y009527D01*
X004623Y009578D01*
X004719Y009674D01*
X004770Y009798D01*
X004770Y009932D01*
X004757Y009767D02*
X005443Y009767D01*
X005304Y009608D02*
X004653Y009608D01*
X004770Y009133D02*
X004830Y009133D01*
X004963Y009291D02*
X002667Y009291D01*
X002667Y009222D02*
X002600Y009061D01*
X002476Y008937D01*
X002315Y008870D01*
X002140Y008870D01*
X001978Y008937D01*
X001854Y009061D01*
X001787Y009222D01*
X001787Y009397D01*
X001854Y009559D01*
X001978Y009683D01*
X002140Y009750D01*
X002315Y009750D01*
X002476Y009683D01*
X002600Y009559D01*
X002667Y009397D01*
X002667Y009222D01*
X002630Y009133D02*
X004409Y009133D01*
X004278Y008974D02*
X002514Y008974D01*
X002476Y008683D02*
X002315Y008750D01*
X002140Y008750D01*
X001978Y008683D01*
X001854Y008559D01*
X001787Y008397D01*
X001787Y008222D01*
X001854Y008061D01*
X001978Y007937D01*
X002140Y007870D01*
X002315Y007870D01*
X002476Y007937D01*
X002600Y008061D01*
X002667Y008222D01*
X002667Y008397D01*
X002600Y008559D01*
X002476Y008683D01*
X002502Y008657D02*
X004300Y008657D01*
X004320Y008499D02*
X002625Y008499D01*
X002667Y008340D02*
X004251Y008340D01*
X004268Y008182D02*
X002650Y008182D01*
X002563Y008023D02*
X004378Y008023D01*
X004522Y007683D02*
X004398Y007632D01*
X004303Y007537D01*
X004251Y007413D01*
X004251Y007278D01*
X004303Y007154D01*
X004336Y007120D01*
X004240Y007081D01*
X004145Y006986D01*
X004094Y006861D01*
X004094Y006727D01*
X004145Y006603D01*
X004240Y006508D01*
X004365Y006456D01*
X004499Y006456D01*
X004623Y006508D01*
X004719Y006603D01*
X004770Y006727D01*
X004770Y006861D01*
X004719Y006986D01*
X004685Y007019D01*
X004781Y007059D01*
X004876Y007154D01*
X004928Y007278D01*
X004928Y007413D01*
X004876Y007537D01*
X004781Y007632D01*
X004657Y007683D01*
X004522Y007683D01*
X004314Y007548D02*
X002605Y007548D01*
X002600Y007559D02*
X002476Y007683D01*
X002315Y007750D01*
X002140Y007750D01*
X001978Y007683D01*
X001854Y007559D01*
X001787Y007397D01*
X001787Y007222D01*
X001854Y007061D01*
X001978Y006937D01*
X002140Y006870D01*
X002315Y006870D01*
X002476Y006937D01*
X002600Y007061D01*
X002667Y007222D01*
X002667Y007397D01*
X002600Y007559D01*
X002667Y007389D02*
X004251Y007389D01*
X004271Y007231D02*
X002667Y007231D01*
X002605Y007072D02*
X004232Y007072D01*
X004116Y006914D02*
X002420Y006914D01*
X002315Y006750D02*
X002140Y006750D01*
X001978Y006683D01*
X001854Y006559D01*
X001787Y006397D01*
X001787Y006222D01*
X001854Y006061D01*
X001978Y005937D01*
X002140Y005870D01*
X002315Y005870D01*
X002476Y005937D01*
X002600Y006061D01*
X002667Y006222D01*
X002667Y006397D01*
X002600Y006559D01*
X002476Y006683D01*
X002315Y006750D01*
X002563Y006597D02*
X004151Y006597D01*
X004094Y006755D02*
X000932Y006755D01*
X000932Y006597D02*
X001892Y006597D01*
X001804Y006438D02*
X000932Y006438D01*
X000932Y006280D02*
X001787Y006280D01*
X001829Y006121D02*
X000932Y006121D01*
X000932Y005963D02*
X001952Y005963D01*
X001978Y005683D02*
X001854Y005559D01*
X001787Y005397D01*
X001787Y005222D01*
X001854Y005061D01*
X001978Y004937D01*
X002140Y004870D01*
X002315Y004870D01*
X002476Y004937D01*
X002600Y005061D01*
X002667Y005222D01*
X002667Y005397D01*
X002600Y005559D01*
X002476Y005683D01*
X002315Y005750D01*
X002140Y005750D01*
X001978Y005683D01*
X001941Y005646D02*
X000932Y005646D01*
X000932Y005804D02*
X007070Y005804D01*
X007075Y005799D02*
X007199Y005747D01*
X007334Y005747D01*
X007458Y005799D01*
X007553Y005894D01*
X007605Y006018D01*
X007605Y006153D01*
X007553Y006277D01*
X007458Y006372D01*
X007334Y006424D01*
X007199Y006424D01*
X007075Y006372D01*
X006980Y006277D01*
X006929Y006153D01*
X006929Y006018D01*
X006980Y005894D01*
X007075Y005799D01*
X006952Y005963D02*
X002502Y005963D01*
X002625Y006121D02*
X006929Y006121D01*
X006983Y006280D02*
X002667Y006280D01*
X002650Y006438D02*
X007459Y006438D01*
X007452Y006445D02*
X007548Y006350D01*
X007672Y006299D01*
X007806Y006299D01*
X007911Y006342D01*
X007846Y006277D01*
X007795Y006153D01*
X007795Y006018D01*
X007846Y005894D01*
X007941Y005799D01*
X008066Y005747D01*
X008200Y005747D01*
X008324Y005799D01*
X008419Y005894D01*
X008471Y006018D01*
X008471Y006153D01*
X008419Y006277D01*
X008324Y006372D01*
X008200Y006424D01*
X008066Y006424D01*
X007961Y006380D01*
X008026Y006445D01*
X008077Y006569D01*
X008077Y006704D01*
X008026Y006828D01*
X007931Y006923D01*
X007806Y006975D01*
X007672Y006975D01*
X007548Y006923D01*
X007452Y006828D01*
X007401Y006704D01*
X007401Y006569D01*
X007452Y006445D01*
X007401Y006597D02*
X004713Y006597D01*
X004770Y006755D02*
X007422Y006755D01*
X007538Y006914D02*
X004748Y006914D01*
X004794Y007072D02*
X008794Y007072D01*
X008791Y007075D02*
X008875Y006991D01*
X008791Y006907D01*
X008740Y006783D01*
X008740Y006648D01*
X008791Y006524D01*
X008886Y006429D01*
X009010Y006377D01*
X009145Y006377D01*
X009269Y006429D01*
X009364Y006524D01*
X009416Y006648D01*
X009416Y006783D01*
X009364Y006907D01*
X009280Y006991D01*
X009364Y007075D01*
X009416Y007199D01*
X009416Y007334D01*
X009364Y007458D01*
X009269Y007553D01*
X009145Y007605D01*
X009010Y007605D01*
X008886Y007553D01*
X008791Y007458D01*
X008740Y007334D01*
X008740Y007199D01*
X008791Y007075D01*
X008798Y006914D02*
X007940Y006914D01*
X008056Y006755D02*
X008740Y006755D01*
X008761Y006597D02*
X008077Y006597D01*
X008019Y006438D02*
X008877Y006438D01*
X008471Y006121D02*
X012853Y006121D01*
X012878Y006061D02*
X013002Y005937D01*
X013163Y005870D01*
X013338Y005870D01*
X013500Y005937D01*
X013624Y006061D01*
X013691Y006222D01*
X013691Y006397D01*
X013624Y006559D01*
X013500Y006683D01*
X013338Y006750D01*
X013163Y006750D01*
X013002Y006683D01*
X012878Y006559D01*
X012811Y006397D01*
X012811Y006222D01*
X012878Y006061D01*
X012976Y005963D02*
X008448Y005963D01*
X008330Y005804D02*
X014546Y005804D01*
X014546Y005646D02*
X013537Y005646D01*
X013500Y005683D02*
X013338Y005750D01*
X013163Y005750D01*
X013002Y005683D01*
X012878Y005559D01*
X012811Y005397D01*
X012811Y005222D01*
X012878Y005061D01*
X013002Y004937D01*
X013163Y004870D01*
X013338Y004870D01*
X013500Y004937D01*
X013624Y005061D01*
X013691Y005222D01*
X013691Y005397D01*
X013624Y005559D01*
X013500Y005683D01*
X013654Y005487D02*
X014546Y005487D01*
X014546Y005329D02*
X013691Y005329D01*
X013669Y005170D02*
X014546Y005170D01*
X014546Y005012D02*
X013575Y005012D01*
X013472Y004695D02*
X014546Y004695D01*
X014546Y004853D02*
X005434Y004853D01*
X005411Y004876D02*
X005287Y004928D01*
X005152Y004928D01*
X005028Y004876D01*
X004933Y004781D01*
X004881Y004657D01*
X004881Y004522D01*
X004933Y004398D01*
X005028Y004303D01*
X005152Y004251D01*
X005287Y004251D01*
X005411Y004303D01*
X005506Y004398D01*
X005557Y004522D01*
X005557Y004657D01*
X005506Y004781D01*
X005411Y004876D01*
X005542Y004695D02*
X013030Y004695D01*
X013002Y004683D02*
X012878Y004559D01*
X012811Y004397D01*
X012811Y004222D01*
X012878Y004061D01*
X008471Y004061D01*
X008471Y004106D02*
X008419Y004230D01*
X008324Y004325D01*
X008200Y004376D01*
X008066Y004376D01*
X007941Y004325D01*
X007846Y004230D01*
X007795Y004106D01*
X007795Y004061D01*
X007672Y004061D01*
X007548Y004010D01*
X007452Y003915D01*
X007401Y003791D01*
X007401Y003746D01*
X007278Y003746D01*
X007154Y003695D01*
X007059Y003600D01*
X007007Y003476D01*
X007007Y003341D01*
X007059Y003217D01*
X007154Y003122D01*
X007278Y003070D01*
X007413Y003070D01*
X007537Y003122D01*
X007632Y003217D01*
X007683Y003341D01*
X007683Y003385D01*
X007806Y003385D01*
X007931Y003437D01*
X008026Y003532D01*
X008077Y003656D01*
X008077Y003700D01*
X008200Y003700D01*
X008324Y003752D01*
X008419Y003847D01*
X008471Y003971D01*
X008471Y004106D01*
X008424Y004219D02*
X012812Y004219D01*
X012811Y004378D02*
X005486Y004378D01*
X005557Y004536D02*
X012868Y004536D01*
X013002Y004683D02*
X013163Y004750D01*
X013338Y004750D01*
X013500Y004683D01*
X013624Y004559D01*
X013691Y004397D01*
X013691Y004222D01*
X013624Y004061D01*
X014546Y004061D01*
X014546Y004219D02*
X013690Y004219D01*
X013691Y004378D02*
X014546Y004378D01*
X014546Y004536D02*
X013633Y004536D01*
X013624Y004061D02*
X013500Y003937D01*
X013338Y003870D01*
X013163Y003870D01*
X013002Y003937D01*
X012878Y004061D01*
X013085Y003902D02*
X008442Y003902D01*
X008305Y003744D02*
X013148Y003744D01*
X013163Y003750D02*
X013002Y003683D01*
X012878Y003559D01*
X012811Y003397D01*
X012811Y003222D01*
X012878Y003061D01*
X013002Y002937D01*
X013163Y002870D01*
X013338Y002870D01*
X013500Y002937D01*
X013624Y003061D01*
X013691Y003222D01*
X013691Y003397D01*
X013624Y003559D01*
X013500Y003683D01*
X013338Y003750D01*
X013163Y003750D01*
X013353Y003744D02*
X014546Y003744D01*
X014546Y003902D02*
X013416Y003902D01*
X013598Y003585D02*
X014546Y003585D01*
X014546Y003427D02*
X013679Y003427D01*
X013691Y003268D02*
X014546Y003268D01*
X014546Y003110D02*
X013644Y003110D01*
X013514Y002951D02*
X014546Y002951D01*
X014546Y002793D02*
X011463Y002793D01*
X011463Y002846D02*
X011412Y002970D01*
X011316Y003065D01*
X011192Y003117D01*
X011058Y003117D01*
X010933Y003065D01*
X010838Y002970D01*
X010787Y002846D01*
X010787Y002711D01*
X010838Y002587D01*
X010933Y002492D01*
X011058Y002440D01*
X011192Y002440D01*
X011316Y002492D01*
X011412Y002587D01*
X011463Y002711D01*
X011463Y002846D01*
X011419Y002951D02*
X012987Y002951D01*
X012858Y003110D02*
X011209Y003110D01*
X011041Y003110D02*
X009240Y003110D01*
X009224Y003117D02*
X009348Y003065D01*
X009443Y002970D01*
X009494Y002846D01*
X009494Y002711D01*
X009443Y002587D01*
X009348Y002492D01*
X009224Y002440D01*
X009089Y002440D01*
X008965Y002492D01*
X008870Y002587D01*
X008818Y002711D01*
X008818Y002846D01*
X008870Y002970D01*
X008965Y003065D01*
X009089Y003117D01*
X009224Y003117D01*
X009073Y003110D02*
X007508Y003110D01*
X007653Y003268D02*
X012811Y003268D01*
X012823Y003427D02*
X007907Y003427D01*
X008048Y003585D02*
X012904Y003585D01*
X013163Y002750D02*
X013002Y002683D01*
X012878Y002559D01*
X012811Y002397D01*
X012811Y002222D01*
X012878Y002061D01*
X013002Y001937D01*
X013163Y001870D01*
X013338Y001870D01*
X013500Y001937D01*
X013624Y002061D01*
X013691Y002222D01*
X013691Y002397D01*
X013624Y002559D01*
X013500Y002683D01*
X013338Y002750D01*
X013163Y002750D01*
X012953Y002634D02*
X011431Y002634D01*
X011278Y002476D02*
X012843Y002476D01*
X012811Y002317D02*
X008283Y002317D01*
X008324Y002334D02*
X008200Y002283D01*
X008066Y002283D01*
X007941Y002334D01*
X007846Y002429D01*
X007795Y002554D01*
X007795Y002688D01*
X007846Y002812D01*
X007941Y002908D01*
X008066Y002959D01*
X008200Y002959D01*
X008324Y002908D01*
X008419Y002812D01*
X008471Y002688D01*
X008471Y002554D01*
X008419Y002429D01*
X008324Y002334D01*
X008439Y002476D02*
X009004Y002476D01*
X008850Y002634D02*
X008471Y002634D01*
X008428Y002793D02*
X008818Y002793D01*
X008862Y002951D02*
X008219Y002951D01*
X008047Y002951D02*
X002491Y002951D01*
X002476Y002937D02*
X002600Y003061D01*
X002667Y003222D01*
X002667Y003397D01*
X002600Y003559D01*
X002476Y003683D01*
X002315Y003750D01*
X002140Y003750D01*
X001978Y003683D01*
X001854Y003559D01*
X001787Y003397D01*
X001787Y003222D01*
X001854Y003061D01*
X001978Y002937D01*
X002140Y002870D01*
X002315Y002870D01*
X002476Y002937D01*
X002621Y003110D02*
X007183Y003110D01*
X007037Y003268D02*
X002667Y003268D01*
X002655Y003427D02*
X007007Y003427D01*
X007053Y003585D02*
X002574Y003585D01*
X002330Y003744D02*
X007271Y003744D01*
X007447Y003902D02*
X002393Y003902D01*
X002315Y003870D02*
X002476Y003937D01*
X002600Y004061D01*
X007670Y004061D01*
X007842Y004219D02*
X002666Y004219D01*
X002667Y004222D02*
X002600Y004061D01*
X002667Y004222D02*
X002667Y004397D01*
X002600Y004559D01*
X002476Y004683D01*
X002315Y004750D01*
X002140Y004750D01*
X001978Y004683D01*
X001854Y004559D01*
X001787Y004397D01*
X001787Y004222D01*
X001854Y004061D01*
X000932Y004061D01*
X000932Y004219D02*
X001789Y004219D01*
X001787Y004378D02*
X000932Y004378D01*
X000932Y004536D02*
X001845Y004536D01*
X002006Y004695D02*
X000932Y004695D01*
X000932Y004853D02*
X003621Y004853D01*
X003621Y004893D02*
X003621Y004758D01*
X003673Y004634D01*
X003768Y004539D01*
X003892Y004488D01*
X004027Y004488D01*
X004151Y004539D01*
X004173Y004561D01*
X004173Y004522D01*
X004224Y004398D01*
X004319Y004303D01*
X004443Y004251D01*
X004578Y004251D01*
X004702Y004303D01*
X004797Y004398D01*
X004849Y004522D01*
X004849Y004657D01*
X004797Y004781D01*
X004702Y004876D01*
X004578Y004928D01*
X004443Y004928D01*
X004319Y004876D01*
X004298Y004855D01*
X004298Y004893D01*
X004246Y005017D01*
X004151Y005112D01*
X004027Y005164D01*
X003892Y005164D01*
X003768Y005112D01*
X003673Y005017D01*
X003621Y004893D01*
X003671Y005012D02*
X002551Y005012D01*
X002646Y005170D02*
X009631Y005170D01*
X009606Y005231D02*
X009657Y005107D01*
X009752Y005011D01*
X009877Y004960D01*
X010011Y004960D01*
X010135Y005011D01*
X010230Y005107D01*
X010282Y005231D01*
X010282Y005365D01*
X010230Y005490D01*
X010135Y005585D01*
X010011Y005636D01*
X009877Y005636D01*
X009752Y005585D01*
X009657Y005490D01*
X009606Y005365D01*
X009606Y005231D01*
X009606Y005329D02*
X002667Y005329D01*
X002630Y005487D02*
X009656Y005487D01*
X009752Y005012D02*
X004248Y005012D01*
X004173Y004536D02*
X004144Y004536D01*
X004244Y004378D02*
X002667Y004378D01*
X002610Y004536D02*
X003775Y004536D01*
X003648Y004695D02*
X002448Y004695D01*
X001903Y005012D02*
X000932Y005012D01*
X000932Y005170D02*
X001809Y005170D01*
X001787Y005329D02*
X000932Y005329D01*
X000932Y005487D02*
X001824Y005487D01*
X002514Y005646D02*
X012964Y005646D01*
X012848Y005487D02*
X010231Y005487D01*
X010282Y005329D02*
X012811Y005329D01*
X012832Y005170D02*
X010257Y005170D01*
X010136Y005012D02*
X012927Y005012D01*
X013526Y005963D02*
X014546Y005963D01*
X014546Y006121D02*
X013649Y006121D01*
X013691Y006280D02*
X014546Y006280D01*
X014546Y006438D02*
X013674Y006438D01*
X013586Y006597D02*
X014546Y006597D01*
X014546Y006755D02*
X011012Y006755D01*
X011018Y006749D02*
X010923Y006845D01*
X010798Y006896D01*
X010664Y006896D01*
X010540Y006845D01*
X010445Y006749D01*
X010393Y006625D01*
X010393Y006491D01*
X010445Y006366D01*
X010540Y006271D01*
X010664Y006220D01*
X010798Y006220D01*
X010923Y006271D01*
X011018Y006366D01*
X011069Y006491D01*
X011069Y006625D01*
X011018Y006749D01*
X011069Y006597D02*
X012915Y006597D01*
X012828Y006438D02*
X011048Y006438D01*
X010931Y006280D02*
X012811Y006280D01*
X013002Y006937D02*
X013163Y006870D01*
X013338Y006870D01*
X013500Y006937D01*
X013624Y007061D01*
X013691Y007222D01*
X013691Y007397D01*
X013624Y007559D01*
X013500Y007683D01*
X013338Y007750D01*
X013163Y007750D01*
X013002Y007683D01*
X012878Y007559D01*
X012811Y007397D01*
X012811Y007222D01*
X012878Y007061D01*
X013002Y006937D01*
X013058Y006914D02*
X009358Y006914D01*
X009361Y007072D02*
X012873Y007072D01*
X012811Y007231D02*
X009416Y007231D01*
X009393Y007389D02*
X012811Y007389D01*
X012873Y007548D02*
X009275Y007548D01*
X008881Y007548D02*
X004865Y007548D01*
X004928Y007389D02*
X008762Y007389D01*
X008740Y007231D02*
X004908Y007231D01*
X004801Y008023D02*
X012915Y008023D01*
X012878Y008061D02*
X013002Y007937D01*
X013163Y007870D01*
X013338Y007870D01*
X013500Y007937D01*
X013624Y008061D01*
X013691Y008222D01*
X013691Y008397D01*
X013624Y008559D01*
X013500Y008683D01*
X013338Y008750D01*
X013163Y008750D01*
X013002Y008683D01*
X012878Y008559D01*
X012811Y008397D01*
X012811Y008222D01*
X012878Y008061D01*
X012828Y008182D02*
X004910Y008182D01*
X004928Y008340D02*
X010285Y008340D01*
X010287Y008335D02*
X010382Y008240D01*
X010506Y008188D01*
X010641Y008188D01*
X010765Y008240D01*
X010860Y008335D01*
X010912Y008459D01*
X010912Y008594D01*
X010860Y008718D01*
X010776Y008802D01*
X010860Y008886D01*
X010912Y009010D01*
X010912Y009145D01*
X010860Y009269D01*
X010776Y009353D01*
X010860Y009437D01*
X010912Y009562D01*
X010912Y009696D01*
X010860Y009820D01*
X010765Y009915D01*
X010641Y009967D01*
X010506Y009967D01*
X010382Y009915D01*
X010287Y009820D01*
X010236Y009696D01*
X010236Y009562D01*
X010287Y009437D01*
X010371Y009353D01*
X010287Y009269D01*
X010236Y009145D01*
X010236Y009010D01*
X010287Y008886D01*
X010371Y008802D01*
X010287Y008718D01*
X010236Y008594D01*
X010236Y008459D01*
X010287Y008335D01*
X010236Y008499D02*
X004859Y008499D01*
X004879Y008657D02*
X010262Y008657D01*
X010357Y008816D02*
X005431Y008816D01*
X005479Y008974D02*
X010251Y008974D01*
X010236Y009133D02*
X005451Y009133D01*
X005322Y009291D02*
X005318Y009291D01*
X005275Y009450D02*
X002646Y009450D01*
X002551Y009608D02*
X004211Y009608D01*
X004107Y009767D02*
X000932Y009767D01*
X000932Y009925D02*
X002006Y009925D01*
X001845Y010084D02*
X000932Y010084D01*
X000932Y010242D02*
X001787Y010242D01*
X001789Y010401D02*
X000932Y010401D01*
X000932Y010559D02*
X001854Y010559D01*
X002062Y010718D02*
X000932Y010718D01*
X000932Y010876D02*
X002125Y010876D01*
X001880Y011035D02*
X000932Y011035D01*
X000932Y011193D02*
X001799Y011193D01*
X001787Y011352D02*
X000932Y011352D01*
X000932Y011510D02*
X001834Y011510D01*
X002610Y010084D02*
X004172Y010084D01*
X004094Y009925D02*
X002448Y009925D01*
X002667Y010242D02*
X005844Y010242D01*
X005984Y010401D02*
X005699Y010401D01*
X005908Y010559D02*
X006065Y010559D01*
X005951Y010718D02*
X006535Y010718D01*
X006567Y010876D02*
X005919Y010876D01*
X005764Y011035D02*
X006722Y011035D01*
X007024Y011035D02*
X007273Y011035D01*
X007575Y011035D02*
X007746Y011035D01*
X008047Y011035D02*
X008218Y011035D01*
X008707Y010718D02*
X013086Y010718D01*
X012878Y010559D02*
X008664Y010559D01*
X008455Y010401D02*
X012812Y010401D01*
X012811Y010242D02*
X006648Y010242D01*
X006660Y010401D02*
X006787Y010401D01*
X006959Y010401D02*
X007338Y010401D01*
X007510Y010401D02*
X007811Y010401D01*
X007982Y010401D02*
X008283Y010401D01*
X006578Y010559D02*
X006578Y010559D01*
X006546Y010084D02*
X012868Y010084D01*
X013030Y009925D02*
X010742Y009925D01*
X010883Y009767D02*
X014546Y009767D01*
X014546Y009925D02*
X013472Y009925D01*
X013338Y009750D02*
X013163Y009750D01*
X013002Y009683D01*
X012878Y009559D01*
X012811Y009397D01*
X012811Y009222D01*
X012878Y009061D01*
X013002Y008937D01*
X013163Y008870D01*
X013338Y008870D01*
X013500Y008937D01*
X013624Y009061D01*
X013691Y009222D01*
X013691Y009397D01*
X013624Y009559D01*
X013500Y009683D01*
X013338Y009750D01*
X013575Y009608D02*
X014546Y009608D01*
X014546Y009450D02*
X013669Y009450D01*
X013691Y009291D02*
X014546Y009291D01*
X014546Y009133D02*
X013654Y009133D01*
X013537Y008974D02*
X014546Y008974D01*
X014546Y008816D02*
X010790Y008816D01*
X010886Y008657D02*
X012976Y008657D01*
X012853Y008499D02*
X010912Y008499D01*
X010863Y008340D02*
X012811Y008340D01*
X012964Y008974D02*
X010897Y008974D01*
X010912Y009133D02*
X012848Y009133D01*
X012811Y009291D02*
X010838Y009291D01*
X010865Y009450D02*
X012833Y009450D01*
X012927Y009608D02*
X010912Y009608D01*
X010406Y009925D02*
X006345Y009925D01*
X006299Y009767D02*
X010265Y009767D01*
X010236Y009608D02*
X006080Y009608D01*
X005933Y009608D02*
X005922Y009608D01*
X005951Y009450D02*
X010282Y009450D01*
X010309Y009291D02*
X005904Y009291D01*
X005699Y010084D02*
X004691Y010084D01*
X005307Y010876D02*
X003580Y010876D01*
X003783Y011035D02*
X005462Y011035D01*
X005394Y011827D02*
X005281Y011827D01*
X005321Y011986D02*
X005354Y011986D01*
X005389Y012144D02*
X005286Y012144D01*
X005114Y012303D02*
X005561Y012303D01*
X005590Y015156D02*
X002640Y015156D01*
X002667Y015314D02*
X005634Y015314D01*
X005846Y015473D02*
X002636Y015473D01*
X002528Y015631D02*
X005668Y015631D01*
X004251Y008816D02*
X000932Y008816D01*
X000932Y008974D02*
X001941Y008974D01*
X001824Y009133D02*
X000932Y009133D01*
X000932Y009291D02*
X001787Y009291D01*
X001809Y009450D02*
X000932Y009450D01*
X000932Y009608D02*
X001903Y009608D01*
X001952Y008657D02*
X000932Y008657D01*
X000932Y008499D02*
X001829Y008499D01*
X001787Y008340D02*
X000932Y008340D01*
X000932Y008182D02*
X001804Y008182D01*
X001892Y008023D02*
X000932Y008023D01*
X000932Y007865D02*
X014546Y007865D01*
X014546Y008023D02*
X013586Y008023D01*
X013674Y008182D02*
X014546Y008182D01*
X014546Y008340D02*
X013691Y008340D01*
X013649Y008499D02*
X014546Y008499D01*
X014546Y008657D02*
X013526Y008657D01*
X013444Y007706D02*
X014546Y007706D01*
X014546Y007548D02*
X013629Y007548D01*
X013691Y007389D02*
X014546Y007389D01*
X014546Y007231D02*
X013691Y007231D01*
X013629Y007072D02*
X014546Y007072D01*
X014546Y006914D02*
X013444Y006914D01*
X013058Y007706D02*
X002420Y007706D01*
X002034Y007706D02*
X000932Y007706D01*
X000932Y007548D02*
X001849Y007548D01*
X001787Y007389D02*
X000932Y007389D01*
X000932Y007231D02*
X001787Y007231D01*
X001849Y007072D02*
X000932Y007072D01*
X000932Y006914D02*
X002034Y006914D01*
X001854Y004061D02*
X001978Y003937D01*
X002140Y003870D01*
X002315Y003870D01*
X002125Y003744D02*
X000932Y003744D01*
X000932Y003902D02*
X002062Y003902D01*
X001880Y003585D02*
X000932Y003585D01*
X000932Y003427D02*
X001799Y003427D01*
X001787Y003268D02*
X000932Y003268D01*
X000932Y003110D02*
X001834Y003110D01*
X001964Y002951D02*
X000932Y002951D01*
X000932Y002793D02*
X007838Y002793D01*
X007795Y002634D02*
X006807Y002634D01*
X006783Y002644D02*
X006648Y002644D01*
X006524Y002593D01*
X006429Y002498D01*
X006377Y002373D01*
X006377Y002239D01*
X006429Y002114D01*
X006524Y002019D01*
X006648Y001968D01*
X006783Y001968D01*
X006907Y002019D01*
X007002Y002114D01*
X007054Y002239D01*
X007054Y002373D01*
X007002Y002498D01*
X006907Y002593D01*
X006783Y002644D01*
X006624Y002634D02*
X002525Y002634D01*
X002476Y002683D02*
X002315Y002750D01*
X002140Y002750D01*
X001978Y002683D01*
X001854Y002559D01*
X001787Y002397D01*
X001787Y002222D01*
X001854Y002061D01*
X001978Y001937D01*
X002140Y001870D01*
X002315Y001870D01*
X002476Y001937D01*
X002600Y002061D01*
X002667Y002222D01*
X002667Y002397D01*
X002600Y002559D01*
X002476Y002683D01*
X002635Y002476D02*
X006420Y002476D01*
X006377Y002317D02*
X002667Y002317D01*
X002641Y002159D02*
X006410Y002159D01*
X006570Y002000D02*
X002540Y002000D01*
X002530Y001683D02*
X012948Y001683D01*
X012822Y001525D02*
X002657Y001525D01*
X002704Y001366D02*
X012774Y001366D01*
X012781Y001208D02*
X002697Y001208D01*
X002631Y001049D02*
X012847Y001049D01*
X013016Y000891D02*
X002462Y000891D01*
X002247Y001366D02*
X002207Y001366D01*
X002207Y001525D02*
X002247Y001525D01*
X002247Y001683D02*
X002207Y001683D01*
X001924Y001683D02*
X000932Y001683D01*
X000932Y001525D02*
X001798Y001525D01*
X001750Y001366D02*
X000932Y001366D01*
X000932Y001208D02*
X001757Y001208D01*
X001823Y001049D02*
X000932Y001049D01*
X000932Y000891D02*
X001993Y000891D01*
X001915Y002000D02*
X000932Y002000D01*
X000932Y001842D02*
X014546Y001842D01*
X014546Y002000D02*
X013563Y002000D01*
X013664Y002159D02*
X014546Y002159D01*
X014546Y002317D02*
X013691Y002317D01*
X013658Y002476D02*
X014546Y002476D01*
X014546Y002634D02*
X013549Y002634D01*
X012938Y002000D02*
X006861Y002000D01*
X007020Y002159D02*
X012837Y002159D01*
X013231Y001683D02*
X013271Y001683D01*
X013271Y001525D02*
X013231Y001525D01*
X013231Y001366D02*
X013271Y001366D01*
X013485Y000891D02*
X014546Y000891D01*
X014546Y001049D02*
X013655Y001049D01*
X013721Y001208D02*
X014546Y001208D01*
X014546Y001366D02*
X013728Y001366D01*
X013680Y001525D02*
X014546Y001525D01*
X014546Y001683D02*
X013554Y001683D01*
X010972Y002476D02*
X009309Y002476D01*
X009463Y002634D02*
X010819Y002634D01*
X010787Y002793D02*
X009494Y002793D01*
X009451Y002951D02*
X010830Y002951D01*
X010531Y006280D02*
X008417Y006280D01*
X007936Y005804D02*
X007463Y005804D01*
X007582Y005963D02*
X007818Y005963D01*
X007795Y006121D02*
X007605Y006121D01*
X007551Y006280D02*
X007849Y006280D01*
X009279Y006438D02*
X010415Y006438D01*
X010393Y006597D02*
X009394Y006597D01*
X009416Y006755D02*
X010450Y006755D01*
X007983Y002317D02*
X007054Y002317D01*
X007011Y002476D02*
X007827Y002476D01*
X004953Y004378D02*
X004777Y004378D01*
X004849Y004536D02*
X004881Y004536D01*
X004897Y004695D02*
X004833Y004695D01*
X004725Y004853D02*
X005005Y004853D01*
X001929Y002634D02*
X000932Y002634D01*
X000932Y002476D02*
X001820Y002476D01*
X001787Y002317D02*
X000932Y002317D01*
X000932Y002159D02*
X001814Y002159D01*
X009420Y013888D02*
X013120Y013888D01*
X013113Y013729D02*
X009612Y013729D01*
X009652Y013571D02*
X012889Y013571D01*
X012817Y013412D02*
X009616Y013412D01*
X010637Y014046D02*
X012892Y014046D01*
X012818Y014205D02*
X010799Y014205D01*
X010833Y014363D02*
X012811Y014363D01*
X012862Y014522D02*
X010791Y014522D01*
X013381Y013888D02*
X014546Y013888D01*
X014546Y014046D02*
X013609Y014046D01*
X013684Y014205D02*
X014546Y014205D01*
X014546Y014363D02*
X013691Y014363D01*
X013639Y014522D02*
X014546Y014522D01*
X014546Y014680D02*
X013503Y014680D01*
X013388Y013729D02*
X014546Y013729D01*
X014546Y013571D02*
X013612Y013571D01*
X013685Y013412D02*
X014546Y013412D01*
X014546Y013254D02*
X013691Y013254D01*
X013638Y013095D02*
X014546Y013095D01*
X014546Y012937D02*
X013500Y012937D01*
X013624Y010559D02*
X014546Y010559D01*
X014546Y010401D02*
X013690Y010401D01*
X013691Y010242D02*
X014546Y010242D01*
X014546Y010084D02*
X013633Y010084D01*
X013621Y017058D02*
X014546Y017058D01*
X014546Y017216D02*
X013688Y017216D01*
X013691Y017375D02*
X014546Y017375D01*
X014546Y017533D02*
X013635Y017533D01*
X013479Y017692D02*
X014546Y017692D01*
M02*
