G75*
G70*
%OFA0B0*%
%FSLAX24Y24*%
%IPPOS*%
%LPD*%
%AMOC8*
5,1,8,0,0,1.08239X$1,22.5*
%
%ADD10R,0.0470X0.0220*%
%ADD11R,0.0220X0.0470*%
%ADD12R,0.1102X0.0850*%
%ADD13R,0.0500X0.1000*%
%ADD14R,0.0787X0.0394*%
%ADD15R,0.0394X0.0787*%
%ADD16R,0.0394X0.0437*%
%ADD17R,0.0315X0.0315*%
%ADD18R,0.0945X0.0669*%
%ADD19R,0.0394X0.0433*%
%ADD20R,0.0433X0.0394*%
%ADD21C,0.0600*%
%ADD22C,0.0396*%
%ADD23C,0.0100*%
%ADD24C,0.0160*%
D10*
X003845Y005881D03*
X003845Y006196D03*
X003845Y006511D03*
X003845Y006826D03*
X003845Y007141D03*
X003845Y007456D03*
X003845Y007771D03*
X003845Y008086D03*
X003845Y008400D03*
X003845Y008715D03*
X003845Y009030D03*
X003845Y009345D03*
X003845Y009660D03*
X003845Y009975D03*
X003845Y010290D03*
X003845Y010605D03*
X009987Y010605D03*
X009987Y010290D03*
X009987Y009975D03*
X009987Y009660D03*
X009987Y009345D03*
X009987Y009030D03*
X009987Y008715D03*
X009987Y008400D03*
X009987Y008086D03*
X009987Y007771D03*
X009987Y007456D03*
X009987Y007141D03*
X009987Y006826D03*
X009987Y006511D03*
X009987Y006196D03*
X009987Y005881D03*
D11*
X009278Y005172D03*
X008963Y005172D03*
X008649Y005172D03*
X008334Y005172D03*
X008019Y005172D03*
X007704Y005172D03*
X007389Y005172D03*
X007074Y005172D03*
X006759Y005172D03*
X006444Y005172D03*
X006129Y005172D03*
X005814Y005172D03*
X005499Y005172D03*
X005184Y005172D03*
X004869Y005172D03*
X004554Y005172D03*
X004554Y011314D03*
X004869Y011314D03*
X005184Y011314D03*
X005499Y011314D03*
X005814Y011314D03*
X006129Y011314D03*
X006444Y011314D03*
X006759Y011314D03*
X007074Y011314D03*
X007389Y011314D03*
X007704Y011314D03*
X008019Y011314D03*
X008334Y011314D03*
X008649Y011314D03*
X008963Y011314D03*
X009278Y011314D03*
D12*
X009767Y001708D03*
X011656Y001708D03*
D13*
X006684Y001456D03*
X005684Y001456D03*
X004684Y001456D03*
X004684Y003706D03*
X005684Y003706D03*
X006684Y003706D03*
D14*
X003397Y013570D03*
X003397Y014357D03*
X003397Y015145D03*
X003397Y015932D03*
X003397Y016719D03*
X003397Y017507D03*
X003397Y018294D03*
X003397Y019082D03*
X003397Y019869D03*
X003397Y020656D03*
X003397Y021444D03*
X003397Y022231D03*
X003397Y023019D03*
X011271Y023019D03*
X011271Y022231D03*
X011271Y021444D03*
X011271Y020656D03*
X011271Y019869D03*
X011271Y019082D03*
X011271Y018294D03*
X011271Y017507D03*
X011271Y016719D03*
X011271Y015932D03*
X011271Y015145D03*
X011271Y014357D03*
X011271Y013570D03*
D15*
X010483Y012782D03*
X009696Y012782D03*
X008908Y012782D03*
X008121Y012782D03*
X007334Y012782D03*
X006546Y012782D03*
X005759Y012782D03*
X004971Y012782D03*
X004184Y012782D03*
D16*
X004184Y023606D03*
X004971Y023606D03*
X005759Y023606D03*
X006546Y023606D03*
X007334Y023606D03*
X008121Y023606D03*
X008908Y023606D03*
X009696Y023606D03*
X010483Y023606D03*
D17*
X010845Y010542D03*
X011436Y010542D03*
X003798Y003688D03*
X003208Y003688D03*
D18*
X011475Y007786D03*
X011475Y009243D03*
D19*
X011211Y009952D03*
X011160Y011058D03*
X011869Y011058D03*
X011920Y009952D03*
X011290Y007117D03*
X010582Y007117D03*
X010586Y002767D03*
X009877Y002767D03*
X008873Y011983D03*
X008164Y011983D03*
X003932Y005369D03*
X003956Y004263D03*
X003247Y004263D03*
X003223Y005369D03*
D20*
X003259Y005960D03*
X003259Y006668D03*
X003259Y009011D03*
X003259Y009719D03*
X011920Y007121D03*
X011920Y006412D03*
X012070Y014393D03*
X012070Y015101D03*
D21*
X012951Y015310D02*
X013551Y015310D01*
X013551Y014310D02*
X012951Y014310D01*
X012951Y013310D02*
X013551Y013310D01*
X013551Y012310D02*
X012951Y012310D01*
X012951Y011310D02*
X013551Y011310D01*
X013551Y010310D02*
X012951Y010310D01*
X012951Y009310D02*
X013551Y009310D01*
X013551Y008310D02*
X012951Y008310D01*
X012951Y007310D02*
X013551Y007310D01*
X013551Y006310D02*
X012951Y006310D01*
X012951Y005310D02*
X013551Y005310D01*
X013551Y004310D02*
X012951Y004310D01*
X012951Y003310D02*
X013551Y003310D01*
X013551Y002310D02*
X012951Y002310D01*
X012951Y001310D02*
X013551Y001310D01*
X013551Y016310D02*
X012951Y016310D01*
X012951Y017310D02*
X013551Y017310D01*
X013551Y018310D02*
X012951Y018310D01*
X012951Y019310D02*
X013551Y019310D01*
X013551Y020310D02*
X012951Y020310D01*
X002527Y020310D02*
X001927Y020310D01*
X001927Y019310D02*
X002527Y019310D01*
X002527Y018310D02*
X001927Y018310D01*
X001927Y017310D02*
X002527Y017310D01*
X002527Y016310D02*
X001927Y016310D01*
X001927Y015310D02*
X002527Y015310D01*
X002527Y014310D02*
X001927Y014310D01*
X001927Y013310D02*
X002527Y013310D01*
X002527Y012310D02*
X001927Y012310D01*
X001927Y011310D02*
X002527Y011310D01*
X002527Y010310D02*
X001927Y010310D01*
X001927Y009310D02*
X002527Y009310D01*
X002527Y008310D02*
X001927Y008310D01*
X001927Y007310D02*
X002527Y007310D01*
X002527Y006310D02*
X001927Y006310D01*
X001927Y005310D02*
X002527Y005310D01*
X002527Y004310D02*
X001927Y004310D01*
X001927Y003310D02*
X002527Y003310D01*
X002527Y002310D02*
X001927Y002310D01*
X001927Y001310D02*
X002527Y001310D01*
D22*
X003960Y004826D03*
X004511Y004589D03*
X005219Y004589D03*
X005062Y006164D03*
X004432Y006794D03*
X004589Y007345D03*
X004589Y008290D03*
X004589Y008841D03*
X004747Y009393D03*
X004432Y009865D03*
X005141Y008999D03*
X005613Y009471D03*
X006007Y009944D03*
X006322Y010337D03*
X006873Y010731D03*
X007424Y010731D03*
X007897Y010731D03*
X008369Y010731D03*
X009786Y011361D03*
X010574Y009629D03*
X010574Y009078D03*
X010574Y008526D03*
X010731Y006558D03*
X011282Y006558D03*
X009944Y005298D03*
X009078Y006715D03*
X009078Y007267D03*
X009078Y007818D03*
X008133Y006086D03*
X007739Y006637D03*
X007267Y006086D03*
X008133Y004038D03*
X007739Y003723D03*
X007345Y003408D03*
X006715Y002306D03*
X008133Y002621D03*
X009156Y002778D03*
X011125Y002778D03*
X011676Y002542D03*
X011912Y010495D03*
X010495Y014353D03*
X009314Y013566D03*
X008684Y013960D03*
X008133Y013566D03*
X007345Y013566D03*
X006558Y011912D03*
X005692Y011991D03*
X004983Y011991D03*
X005613Y010731D03*
X004117Y013566D03*
X004117Y014353D03*
X004589Y014747D03*
X003566Y012385D03*
X003566Y011834D03*
X003487Y011204D03*
X005928Y015141D03*
X005928Y015849D03*
X006164Y023015D03*
X006952Y023015D03*
X007739Y023015D03*
X008526Y023015D03*
X009314Y023015D03*
X010101Y023015D03*
X012070Y015613D03*
X005377Y023015D03*
X004589Y023015D03*
X004668Y002306D03*
D23*
X003798Y003176D01*
X003798Y003688D01*
X003247Y003727D02*
X003208Y003688D01*
X003247Y003727D02*
X003247Y004263D01*
X002227Y006310D02*
X003373Y007456D01*
X003845Y007456D01*
X003845Y007771D02*
X002688Y007771D01*
X002227Y007310D01*
X002452Y008086D02*
X002227Y008310D01*
X002452Y008086D02*
X003845Y008086D01*
X003845Y008400D02*
X003137Y008400D01*
X002227Y009310D01*
X003172Y010416D02*
X003172Y011365D01*
X002227Y012310D01*
X003172Y010416D02*
X003613Y009975D01*
X003845Y009975D01*
X003845Y010290D02*
X003534Y010290D01*
X003408Y010416D01*
X003408Y011125D01*
X003487Y011204D01*
X003845Y011554D02*
X003845Y010605D01*
X003845Y011554D02*
X003566Y011834D01*
X004038Y011912D02*
X003566Y012385D01*
X004038Y011912D02*
X004274Y011912D01*
X004554Y011633D01*
X004554Y011314D01*
X004869Y011314D02*
X004869Y011633D01*
X004589Y011912D01*
X004589Y014747D01*
X004117Y014353D02*
X003400Y014353D01*
X003397Y014357D01*
X003397Y013570D02*
X003400Y013566D01*
X004117Y013566D01*
X003397Y015145D02*
X005924Y015145D01*
X005928Y015141D01*
X005928Y015849D02*
X005849Y015928D01*
X003400Y015928D01*
X003397Y015932D01*
X004983Y011991D02*
X004983Y011912D01*
X005184Y011711D01*
X005184Y011314D01*
X005499Y011314D02*
X005499Y010845D01*
X005613Y010731D01*
X005814Y011314D02*
X005814Y011869D01*
X005692Y011991D01*
X006444Y011798D02*
X006444Y011314D01*
X006444Y011798D02*
X006558Y011912D01*
X006759Y011314D02*
X006759Y010845D01*
X006873Y010731D01*
X007074Y011314D02*
X007074Y011633D01*
X006952Y011755D01*
X006952Y016794D01*
X007267Y017109D01*
X013050Y017109D01*
X013251Y017310D01*
X013251Y015310D02*
X012688Y014747D01*
X007975Y014747D01*
X007704Y014475D01*
X007704Y011314D01*
X008019Y011314D02*
X008019Y010853D01*
X007897Y010731D01*
X008334Y010767D02*
X008369Y010731D01*
X008334Y010767D02*
X008334Y011314D01*
X008649Y011314D02*
X008649Y010924D01*
X008684Y010889D01*
X009786Y010889D01*
X010495Y011597D01*
X012538Y011597D01*
X013251Y012310D01*
X013251Y013310D02*
X011774Y011834D01*
X010259Y011834D01*
X009786Y011361D01*
X009987Y010605D02*
X010782Y010605D01*
X010845Y010542D01*
X011160Y011058D02*
X011436Y010782D01*
X011436Y010542D01*
X011869Y010538D02*
X011912Y010495D01*
X011869Y010538D02*
X011869Y011058D01*
X010574Y009629D02*
X010019Y009629D01*
X009987Y009660D01*
X009987Y009975D02*
X006038Y009975D01*
X006007Y009944D01*
X006369Y010290D02*
X006322Y010337D01*
X006369Y010290D02*
X009987Y010290D01*
X009987Y009345D02*
X005739Y009345D01*
X005613Y009471D01*
X005172Y009030D02*
X005141Y008999D01*
X005172Y009030D02*
X009987Y009030D01*
X009987Y008715D02*
X010290Y008715D01*
X010337Y008763D01*
X010574Y009078D01*
X010574Y008526D02*
X010448Y008400D01*
X009987Y008400D01*
X010558Y007141D02*
X010582Y007117D01*
X010731Y006558D02*
X010731Y006322D01*
X010290Y005881D01*
X009987Y005881D01*
X009944Y005298D02*
X009404Y005298D01*
X009278Y005172D01*
X008963Y005172D02*
X008963Y004782D01*
X008999Y004747D01*
X011046Y004747D01*
X012385Y006086D01*
X012385Y006444D01*
X013251Y007310D01*
X013251Y006310D02*
X011452Y004511D01*
X008763Y004511D01*
X008649Y004625D01*
X008649Y005172D01*
X008334Y005172D02*
X008334Y004511D01*
X006952Y004511D01*
X006684Y004243D01*
X006684Y003706D01*
X007345Y003408D02*
X007503Y003251D01*
X011834Y003251D01*
X012774Y002310D01*
X013251Y002310D01*
X013251Y003310D02*
X012562Y003310D01*
X012227Y003645D01*
X007818Y003645D01*
X007739Y003723D01*
X008133Y004038D02*
X012385Y004038D01*
X012656Y004310D01*
X013251Y004310D01*
X013251Y005310D02*
X012215Y004274D01*
X008448Y004274D01*
X008334Y004389D01*
X008334Y004511D01*
X008019Y005172D02*
X008019Y005971D01*
X008133Y006086D01*
X007739Y006637D02*
X007739Y005208D01*
X007704Y005172D01*
X007704Y004790D01*
X007660Y004747D01*
X006164Y004747D01*
X005771Y004353D01*
X005771Y003792D01*
X005684Y003706D01*
X005219Y004589D02*
X005141Y004668D01*
X005062Y004668D01*
X004869Y004861D01*
X004869Y005172D01*
X004554Y005172D02*
X004554Y004633D01*
X004511Y004589D01*
X004684Y003706D02*
X004684Y003078D01*
X004747Y003015D01*
X008920Y003015D01*
X009156Y002778D01*
X009865Y002778D01*
X009877Y002767D01*
X009877Y001818D01*
X009767Y001708D01*
X010586Y002767D02*
X011113Y002767D01*
X011125Y002778D01*
X011656Y002523D02*
X011676Y002542D01*
X011656Y002523D02*
X011656Y001708D01*
X009987Y006826D02*
X009188Y006826D01*
X009078Y006715D01*
X007389Y005963D02*
X007389Y005172D01*
X007389Y005963D02*
X007267Y006086D01*
X008054Y002700D02*
X006086Y002700D01*
X005684Y002298D01*
X005684Y001456D01*
X004684Y001456D02*
X004684Y002290D01*
X004668Y002306D01*
X004668Y003690D02*
X004684Y003706D01*
X004432Y006794D02*
X004400Y006826D01*
X003845Y006826D01*
X003845Y007141D02*
X004385Y007141D01*
X004589Y007345D01*
X004589Y008290D02*
X004164Y008715D01*
X003845Y008715D01*
X003845Y009030D02*
X004400Y009030D01*
X004589Y008841D01*
X007389Y010767D02*
X007424Y010731D01*
X007389Y010767D02*
X007389Y011314D01*
X008684Y013960D02*
X012900Y013960D01*
X013251Y014310D01*
X012070Y014393D02*
X011306Y014393D01*
X011271Y014357D01*
X010499Y014357D01*
X010495Y014353D01*
X012070Y015054D02*
X012070Y015101D01*
X012070Y015613D01*
X010101Y023015D02*
X010483Y023397D01*
X010483Y023606D01*
X010101Y023015D02*
X009696Y023420D01*
X009696Y023606D01*
X009314Y023015D02*
X008908Y023420D01*
X008908Y023606D01*
X008526Y023015D02*
X008121Y023420D01*
X008121Y023606D01*
X007739Y023015D02*
X007334Y023420D01*
X007334Y023606D01*
X006952Y023015D02*
X006546Y023420D01*
X006546Y023606D01*
X006164Y023015D02*
X005759Y023420D01*
X005759Y023606D01*
X005377Y023015D02*
X004971Y023420D01*
X004971Y023606D01*
X004589Y023015D02*
X004184Y023420D01*
X004184Y023606D01*
X008054Y002700D02*
X008133Y002621D01*
X006715Y002306D02*
X006684Y002274D01*
X006684Y001456D01*
D24*
X000932Y000854D02*
X000932Y023802D01*
X003807Y023802D01*
X003807Y023624D01*
X004166Y023624D01*
X004166Y023588D01*
X004202Y023588D01*
X004202Y023624D01*
X004561Y023624D01*
X004561Y023802D01*
X004594Y023802D01*
X004594Y023624D01*
X004953Y023624D01*
X004953Y023588D01*
X004594Y023588D01*
X004594Y023364D01*
X004607Y023318D01*
X004630Y023277D01*
X004664Y023243D01*
X004705Y023220D01*
X004751Y023207D01*
X004953Y023207D01*
X004953Y023588D01*
X004990Y023588D01*
X004990Y023624D01*
X005348Y023624D01*
X005348Y023802D01*
X005382Y023802D01*
X005382Y023624D01*
X005740Y023624D01*
X005740Y023588D01*
X005382Y023588D01*
X005382Y023364D01*
X005394Y023318D01*
X005418Y023277D01*
X005451Y023243D01*
X005492Y023220D01*
X005538Y023207D01*
X005740Y023207D01*
X005740Y023588D01*
X005777Y023588D01*
X005777Y023624D01*
X006136Y023624D01*
X006136Y023802D01*
X006169Y023802D01*
X006169Y023624D01*
X006528Y023624D01*
X006528Y023588D01*
X006169Y023588D01*
X006169Y023364D01*
X006182Y023318D01*
X006205Y023277D01*
X006239Y023243D01*
X006280Y023220D01*
X006326Y023207D01*
X006528Y023207D01*
X006528Y023588D01*
X006565Y023588D01*
X006565Y023624D01*
X006923Y023624D01*
X006923Y023802D01*
X006957Y023802D01*
X006957Y023624D01*
X007315Y023624D01*
X007315Y023588D01*
X006957Y023588D01*
X006957Y023364D01*
X006969Y023318D01*
X006993Y023277D01*
X007026Y023243D01*
X007067Y023220D01*
X007113Y023207D01*
X007315Y023207D01*
X007315Y023588D01*
X007352Y023588D01*
X007352Y023624D01*
X007710Y023624D01*
X007710Y023802D01*
X007744Y023802D01*
X007744Y023624D01*
X008103Y023624D01*
X008103Y023588D01*
X008139Y023588D01*
X008139Y023624D01*
X008498Y023624D01*
X008498Y023802D01*
X008531Y023802D01*
X008531Y023624D01*
X008890Y023624D01*
X008890Y023588D01*
X008531Y023588D01*
X008531Y023364D01*
X008544Y023318D01*
X008567Y023277D01*
X008601Y023243D01*
X008642Y023220D01*
X008688Y023207D01*
X008890Y023207D01*
X008890Y023588D01*
X008927Y023588D01*
X008927Y023624D01*
X009285Y023624D01*
X009285Y023802D01*
X009319Y023802D01*
X009319Y023624D01*
X009677Y023624D01*
X009677Y023588D01*
X009319Y023588D01*
X009319Y023364D01*
X009331Y023318D01*
X009355Y023277D01*
X009388Y023243D01*
X009429Y023220D01*
X009475Y023207D01*
X009677Y023207D01*
X009677Y023588D01*
X009714Y023588D01*
X009714Y023624D01*
X010073Y023624D01*
X010073Y023802D01*
X010106Y023802D01*
X010106Y023624D01*
X010465Y023624D01*
X010465Y023588D01*
X010106Y023588D01*
X010106Y023364D01*
X010119Y023318D01*
X010142Y023277D01*
X010176Y023243D01*
X010217Y023220D01*
X010263Y023207D01*
X010465Y023207D01*
X010465Y023588D01*
X010502Y023588D01*
X010502Y023624D01*
X010860Y023624D01*
X010860Y023802D01*
X014546Y023802D01*
X014546Y000854D01*
X013700Y000854D01*
X013735Y000865D01*
X013802Y000899D01*
X013864Y000944D01*
X013917Y000997D01*
X013961Y001058D01*
X013996Y001126D01*
X014019Y001198D01*
X014031Y001272D01*
X014031Y001290D01*
X013271Y001290D01*
X013271Y001330D01*
X014031Y001330D01*
X014031Y001348D01*
X014019Y001422D01*
X013996Y001494D01*
X013961Y001561D01*
X013917Y001623D01*
X013864Y001676D01*
X013802Y001720D01*
X013735Y001755D01*
X013663Y001778D01*
X013589Y001790D01*
X013271Y001790D01*
X013271Y001330D01*
X013231Y001330D01*
X013231Y001790D01*
X012913Y001790D01*
X012838Y001778D01*
X012767Y001755D01*
X012699Y001720D01*
X012638Y001676D01*
X012585Y001623D01*
X012540Y001561D01*
X012506Y001494D01*
X012483Y001422D01*
X012471Y001348D01*
X012471Y001330D01*
X013231Y001330D01*
X013231Y001290D01*
X012471Y001290D01*
X012471Y001272D01*
X012483Y001198D01*
X012506Y001126D01*
X012540Y001058D01*
X012585Y000997D01*
X012638Y000944D01*
X012699Y000899D01*
X012767Y000865D01*
X012802Y000854D01*
X007115Y000854D01*
X007134Y000873D01*
X007134Y002038D01*
X007064Y002108D01*
X007114Y002227D01*
X007114Y002385D01*
X007087Y002450D01*
X007773Y002450D01*
X007795Y002395D01*
X007907Y002283D01*
X008054Y002223D01*
X008212Y002223D01*
X008358Y002283D01*
X008470Y002395D01*
X008531Y002542D01*
X008531Y002700D01*
X008504Y002765D01*
X008758Y002765D01*
X008758Y002699D01*
X008819Y002553D01*
X008931Y002441D01*
X009077Y002380D01*
X009236Y002380D01*
X009382Y002441D01*
X009469Y002528D01*
X009480Y002528D01*
X009480Y002467D01*
X009597Y002350D01*
X009627Y002350D01*
X009627Y002333D01*
X009133Y002333D01*
X009015Y002216D01*
X009015Y001200D01*
X009133Y001082D01*
X010401Y001082D01*
X010518Y001200D01*
X010518Y002216D01*
X010401Y002333D01*
X010127Y002333D01*
X010127Y002350D01*
X010157Y002350D01*
X010231Y002425D01*
X010306Y002350D01*
X010865Y002350D01*
X010939Y002424D01*
X011046Y002380D01*
X011204Y002380D01*
X011350Y002441D01*
X011462Y002553D01*
X011523Y002699D01*
X011523Y002858D01*
X011464Y003001D01*
X011730Y003001D01*
X012451Y002280D01*
X012451Y002210D01*
X012527Y002027D01*
X012668Y001886D01*
X012851Y001810D01*
X013650Y001810D01*
X013834Y001886D01*
X013975Y002027D01*
X014051Y002210D01*
X014051Y002409D01*
X013975Y002593D01*
X013834Y002734D01*
X013650Y002810D01*
X013834Y002886D01*
X013975Y003027D01*
X014051Y003210D01*
X014051Y003409D01*
X013975Y003593D01*
X013834Y003734D01*
X013650Y003810D01*
X013834Y003886D01*
X013975Y004027D01*
X014051Y004210D01*
X014051Y004409D01*
X013975Y004593D01*
X013834Y004734D01*
X013650Y004810D01*
X013834Y004886D01*
X013975Y005027D01*
X014051Y005210D01*
X014051Y005409D01*
X013975Y005593D01*
X013834Y005734D01*
X013650Y005810D01*
X013834Y005886D01*
X013975Y006027D01*
X014051Y006210D01*
X014051Y006409D01*
X013975Y006593D01*
X013834Y006734D01*
X013650Y006810D01*
X013834Y006886D01*
X013975Y007027D01*
X014051Y007210D01*
X014051Y007409D01*
X013975Y007593D01*
X013834Y007734D01*
X013650Y007810D01*
X013834Y007886D01*
X013975Y008027D01*
X014051Y008210D01*
X014051Y008409D01*
X013975Y008593D01*
X013834Y008734D01*
X013650Y008810D01*
X013834Y008886D01*
X013975Y009027D01*
X014051Y009210D01*
X014051Y009409D01*
X013975Y009593D01*
X013834Y009734D01*
X013650Y009810D01*
X013834Y009886D01*
X013975Y010027D01*
X014051Y010210D01*
X014051Y010409D01*
X013975Y010593D01*
X013834Y010734D01*
X013650Y010810D01*
X012851Y010810D01*
X012668Y010734D01*
X012527Y010593D01*
X012451Y010409D01*
X012451Y010210D01*
X012527Y010027D01*
X012668Y009886D01*
X012851Y009810D01*
X013650Y009810D01*
X012851Y009810D01*
X012668Y009734D01*
X012527Y009593D01*
X012451Y009409D01*
X012451Y009210D01*
X012527Y009027D01*
X012668Y008886D01*
X012851Y008810D01*
X013650Y008810D01*
X012851Y008810D01*
X012668Y008734D01*
X012527Y008593D01*
X012451Y008409D01*
X012451Y008210D01*
X012527Y008027D01*
X012668Y007886D01*
X012851Y007810D01*
X013650Y007810D01*
X012851Y007810D01*
X012668Y007734D01*
X012527Y007593D01*
X012451Y007409D01*
X012451Y007210D01*
X012527Y007027D01*
X012571Y006983D01*
X012290Y006703D01*
X012281Y006720D01*
X012248Y006752D01*
X012337Y006841D01*
X012337Y007401D01*
X012220Y007518D01*
X012148Y007518D01*
X012148Y008204D01*
X012031Y008321D01*
X011315Y008321D01*
X011677Y008683D01*
X011703Y008708D01*
X012031Y008708D01*
X012148Y008826D01*
X012148Y009557D01*
X012186Y009567D01*
X012228Y009591D01*
X012261Y009625D01*
X012285Y009666D01*
X012297Y009711D01*
X012297Y009933D01*
X011939Y009933D01*
X011939Y009970D01*
X012297Y009970D01*
X012297Y010192D01*
X012285Y010238D01*
X012261Y010279D01*
X012228Y010312D01*
X012186Y010336D01*
X012141Y010348D01*
X011939Y010348D01*
X011939Y009970D01*
X011902Y009970D01*
X011902Y010348D01*
X011793Y010348D01*
X011793Y010661D01*
X011851Y010661D01*
X011851Y011040D01*
X011887Y011040D01*
X011887Y011076D01*
X012246Y011076D01*
X012246Y011298D01*
X012234Y011344D01*
X012232Y011347D01*
X012451Y011347D01*
X012451Y011210D01*
X012527Y011027D01*
X012668Y010886D01*
X012851Y010810D01*
X013650Y010810D01*
X013834Y010886D01*
X013975Y011027D01*
X014051Y011210D01*
X014051Y011409D01*
X013975Y011593D01*
X013834Y011734D01*
X013650Y011810D01*
X013834Y011886D01*
X013975Y012027D01*
X014051Y012210D01*
X014051Y012409D01*
X013975Y012593D01*
X013834Y012734D01*
X013650Y012810D01*
X013834Y012886D01*
X013975Y013027D01*
X014051Y013210D01*
X014051Y013409D01*
X013975Y013593D01*
X013834Y013734D01*
X013650Y013810D01*
X013834Y013886D01*
X013975Y014027D01*
X014051Y014210D01*
X014051Y014409D01*
X013975Y014593D01*
X013834Y014734D01*
X013650Y014810D01*
X013834Y014886D01*
X013975Y015027D01*
X014051Y015210D01*
X014051Y015409D01*
X013975Y015593D01*
X013834Y015734D01*
X013650Y015810D01*
X013834Y015886D01*
X013975Y016027D01*
X014051Y016210D01*
X014051Y016409D01*
X013975Y016593D01*
X013834Y016734D01*
X013650Y016810D01*
X012851Y016810D01*
X012668Y016734D01*
X012527Y016593D01*
X012451Y016409D01*
X012451Y016210D01*
X012527Y016027D01*
X012668Y015886D01*
X012851Y015810D01*
X013650Y015810D01*
X012851Y015810D01*
X012668Y015734D01*
X012527Y015593D01*
X012453Y015414D01*
X012428Y015439D01*
X012468Y015534D01*
X012468Y015692D01*
X012407Y015839D01*
X012295Y015951D01*
X012149Y016011D01*
X011991Y016011D01*
X011864Y015959D01*
X011864Y016212D01*
X011750Y016326D01*
X011864Y016440D01*
X011864Y016859D01*
X012733Y016859D01*
X012851Y016810D01*
X013650Y016810D01*
X013834Y016886D01*
X013975Y017027D01*
X014051Y017210D01*
X014051Y017409D01*
X013975Y017593D01*
X013834Y017734D01*
X013650Y017810D01*
X013834Y017886D01*
X013975Y018027D01*
X014051Y018210D01*
X014051Y018409D01*
X013975Y018593D01*
X013834Y018734D01*
X013650Y018810D01*
X013834Y018886D01*
X013975Y019027D01*
X014051Y019210D01*
X014051Y019409D01*
X013975Y019593D01*
X013834Y019734D01*
X013650Y019810D01*
X013834Y019886D01*
X013975Y020027D01*
X014051Y020210D01*
X014051Y020409D01*
X013975Y020593D01*
X013834Y020734D01*
X013650Y020810D01*
X012851Y020810D01*
X012668Y020734D01*
X012527Y020593D01*
X012451Y020409D01*
X012451Y020210D01*
X012527Y020027D01*
X012668Y019886D01*
X012851Y019810D01*
X013650Y019810D01*
X012851Y019810D01*
X012668Y019734D01*
X012527Y019593D01*
X012451Y019409D01*
X012451Y019210D01*
X012527Y019027D01*
X012668Y018886D01*
X012851Y018810D01*
X013650Y018810D01*
X012851Y018810D01*
X012668Y018734D01*
X012527Y018593D01*
X012451Y018409D01*
X012451Y018210D01*
X012527Y018027D01*
X012668Y017886D01*
X012851Y017810D01*
X013650Y017810D01*
X012851Y017810D01*
X012668Y017734D01*
X012527Y017593D01*
X012451Y017409D01*
X012451Y017359D01*
X011864Y017359D01*
X011864Y017786D01*
X011750Y017900D01*
X011864Y018014D01*
X011864Y018574D01*
X011750Y018688D01*
X011864Y018802D01*
X011864Y019361D01*
X011750Y019475D01*
X011864Y019589D01*
X011864Y020149D01*
X011750Y020263D01*
X011864Y020377D01*
X011864Y020936D01*
X011750Y021050D01*
X011864Y021164D01*
X011864Y021723D01*
X011750Y021837D01*
X011864Y021951D01*
X011864Y022511D01*
X011750Y022625D01*
X011864Y022739D01*
X011864Y023298D01*
X011747Y023415D01*
X010860Y023415D01*
X010860Y023588D01*
X010502Y023588D01*
X010502Y023207D01*
X010677Y023207D01*
X010677Y022739D01*
X010791Y022625D01*
X010677Y022511D01*
X010677Y021951D01*
X010791Y021837D01*
X010677Y021723D01*
X010677Y021164D01*
X010791Y021050D01*
X010677Y020936D01*
X010677Y020377D01*
X010791Y020263D01*
X010677Y020149D01*
X010677Y019589D01*
X010791Y019475D01*
X010677Y019361D01*
X010677Y018802D01*
X010791Y018688D01*
X010677Y018574D01*
X010677Y018014D01*
X010791Y017900D01*
X010677Y017786D01*
X010677Y017359D01*
X007217Y017359D01*
X007125Y017321D01*
X007055Y017251D01*
X006740Y016936D01*
X006702Y016844D01*
X006702Y013376D01*
X006266Y013376D01*
X006152Y013262D01*
X006038Y013376D01*
X005479Y013376D01*
X005365Y013262D01*
X005251Y013376D01*
X004839Y013376D01*
X004839Y014434D01*
X004927Y014521D01*
X004988Y014668D01*
X004988Y014826D01*
X004959Y014895D01*
X005611Y014895D01*
X005703Y014803D01*
X005849Y014743D01*
X006007Y014743D01*
X006154Y014803D01*
X006266Y014915D01*
X006326Y015061D01*
X006326Y015220D01*
X006266Y015366D01*
X006154Y015478D01*
X006113Y015495D01*
X006154Y015512D01*
X006266Y015624D01*
X006326Y015770D01*
X006326Y015928D01*
X006266Y016075D01*
X006154Y016187D01*
X006007Y016247D01*
X005849Y016247D01*
X005703Y016187D01*
X005694Y016178D01*
X003990Y016178D01*
X003990Y016212D01*
X003876Y016326D01*
X003990Y016440D01*
X003990Y016999D01*
X003876Y017113D01*
X003990Y017227D01*
X003990Y017786D01*
X003876Y017900D01*
X003990Y018014D01*
X003990Y018574D01*
X003876Y018688D01*
X003990Y018802D01*
X003990Y019361D01*
X003876Y019475D01*
X003990Y019589D01*
X003990Y020149D01*
X003876Y020263D01*
X003990Y020377D01*
X003990Y020936D01*
X003876Y021050D01*
X003990Y021164D01*
X003990Y021723D01*
X003876Y021837D01*
X003990Y021951D01*
X003990Y022511D01*
X003876Y022625D01*
X003990Y022739D01*
X003990Y023207D01*
X004166Y023207D01*
X004166Y023588D01*
X003807Y023588D01*
X003807Y023415D01*
X002920Y023415D01*
X002803Y023298D01*
X002803Y022739D01*
X002917Y022625D01*
X002803Y022511D01*
X002803Y021951D01*
X002917Y021837D01*
X002803Y021723D01*
X002803Y021164D01*
X002917Y021050D01*
X002803Y020936D01*
X002803Y020737D01*
X002627Y020810D01*
X001828Y020810D01*
X001644Y020734D01*
X001503Y020593D01*
X001427Y020409D01*
X001427Y020210D01*
X001503Y020027D01*
X001644Y019886D01*
X001828Y019810D01*
X001644Y019734D01*
X001503Y019593D01*
X001427Y019409D01*
X001427Y019210D01*
X001503Y019027D01*
X001644Y018886D01*
X001828Y018810D01*
X001644Y018734D01*
X001503Y018593D01*
X001427Y018409D01*
X001427Y018210D01*
X001503Y018027D01*
X001644Y017886D01*
X001828Y017810D01*
X001644Y017734D01*
X001503Y017593D01*
X001427Y017409D01*
X001427Y017210D01*
X001503Y017027D01*
X001644Y016886D01*
X001828Y016810D01*
X001644Y016734D01*
X001503Y016593D01*
X001427Y016409D01*
X001427Y016210D01*
X001503Y016027D01*
X001644Y015886D01*
X001828Y015810D01*
X001644Y015734D01*
X001503Y015593D01*
X001427Y015409D01*
X001427Y015210D01*
X001503Y015027D01*
X001644Y014886D01*
X001828Y014810D01*
X001644Y014734D01*
X001503Y014593D01*
X001427Y014409D01*
X001427Y014210D01*
X001503Y014027D01*
X001644Y013886D01*
X001828Y013810D01*
X001644Y013734D01*
X001503Y013593D01*
X001427Y013409D01*
X001427Y013210D01*
X001503Y013027D01*
X001644Y012886D01*
X001828Y012810D01*
X001644Y012734D01*
X001503Y012593D01*
X001427Y012409D01*
X001427Y012210D01*
X001503Y012027D01*
X001644Y011886D01*
X001828Y011810D01*
X001644Y011734D01*
X001503Y011593D01*
X001427Y011409D01*
X001427Y011210D01*
X001503Y011027D01*
X001644Y010886D01*
X001828Y010810D01*
X001644Y010734D01*
X001503Y010593D01*
X001427Y010409D01*
X001427Y010210D01*
X001503Y010027D01*
X001644Y009886D01*
X001828Y009810D01*
X001644Y009734D01*
X001503Y009593D01*
X001427Y009409D01*
X001427Y009210D01*
X001503Y009027D01*
X001644Y008886D01*
X001828Y008810D01*
X001644Y008734D01*
X001503Y008593D01*
X001427Y008409D01*
X001427Y008210D01*
X001503Y008027D01*
X001644Y007886D01*
X001828Y007810D01*
X001644Y007734D01*
X001503Y007593D01*
X001427Y007409D01*
X001427Y007210D01*
X001503Y007027D01*
X001644Y006886D01*
X001828Y006810D01*
X001644Y006734D01*
X001503Y006593D01*
X001427Y006409D01*
X001427Y006210D01*
X001503Y006027D01*
X001644Y005886D01*
X001828Y005810D01*
X001644Y005734D01*
X001503Y005593D01*
X001427Y005409D01*
X001427Y005210D01*
X001503Y005027D01*
X001644Y004886D01*
X001828Y004810D01*
X001644Y004734D01*
X001503Y004593D01*
X001427Y004409D01*
X001427Y004210D01*
X001503Y004027D01*
X001644Y003886D01*
X001828Y003810D01*
X001644Y003734D01*
X001503Y003593D01*
X001427Y003409D01*
X001427Y003210D01*
X001503Y003027D01*
X001644Y002886D01*
X001828Y002810D01*
X001644Y002734D01*
X001503Y002593D01*
X001427Y002409D01*
X001427Y002210D01*
X001503Y002027D01*
X001644Y001886D01*
X001828Y001810D01*
X002627Y001810D01*
X002810Y001886D01*
X002951Y002027D01*
X003027Y002210D01*
X003027Y002409D01*
X002951Y002593D01*
X002810Y002734D01*
X002627Y002810D01*
X001828Y002810D01*
X002627Y002810D01*
X002810Y002886D01*
X002951Y003027D01*
X003027Y003210D01*
X003027Y003330D01*
X003448Y003330D01*
X003517Y003399D01*
X003530Y003386D01*
X003571Y003363D01*
X003617Y003350D01*
X003798Y003350D01*
X003798Y003688D01*
X004136Y003688D01*
X004136Y003846D01*
X004234Y003846D01*
X004234Y003123D01*
X004351Y003006D01*
X004443Y003006D01*
X004472Y002936D01*
X004535Y002873D01*
X004605Y002803D01*
X004697Y002765D01*
X005797Y002765D01*
X005472Y002440D01*
X005434Y002348D01*
X005434Y002248D01*
X005434Y002156D01*
X005351Y002156D01*
X005234Y002038D01*
X005234Y000873D01*
X005253Y000854D01*
X005083Y000854D01*
X005102Y000886D01*
X005114Y000932D01*
X005114Y001411D01*
X004729Y001411D01*
X004729Y001501D01*
X004639Y001501D01*
X004639Y002136D01*
X004410Y002136D01*
X004364Y002123D01*
X004323Y002100D01*
X004290Y002066D01*
X004266Y002025D01*
X004254Y001979D01*
X004254Y001501D01*
X004639Y001501D01*
X004639Y001411D01*
X004254Y001411D01*
X004254Y000932D01*
X004266Y000886D01*
X004285Y000854D01*
X002676Y000854D01*
X002711Y000865D01*
X002779Y000899D01*
X002840Y000944D01*
X002893Y000997D01*
X002938Y001058D01*
X002972Y001126D01*
X002995Y001198D01*
X003007Y001272D01*
X003007Y001290D01*
X002247Y001290D01*
X002247Y001330D01*
X002207Y001330D01*
X002207Y001290D01*
X001447Y001290D01*
X001447Y001272D01*
X001459Y001198D01*
X001482Y001126D01*
X001517Y001058D01*
X001561Y000997D01*
X001615Y000944D01*
X001676Y000899D01*
X001743Y000865D01*
X001778Y000854D01*
X000932Y000854D01*
X000932Y000891D02*
X001693Y000891D01*
X001523Y001049D02*
X000932Y001049D01*
X000932Y001208D02*
X001457Y001208D01*
X001447Y001330D02*
X002207Y001330D01*
X002207Y001790D01*
X001889Y001790D01*
X001815Y001778D01*
X001743Y001755D01*
X001676Y001720D01*
X001615Y001676D01*
X001561Y001623D01*
X001517Y001561D01*
X001482Y001494D01*
X001459Y001422D01*
X001447Y001348D01*
X001447Y001330D01*
X001450Y001366D02*
X000932Y001366D01*
X000932Y001525D02*
X001498Y001525D01*
X001624Y001683D02*
X000932Y001683D01*
X000932Y001842D02*
X001751Y001842D01*
X001530Y002000D02*
X000932Y002000D01*
X000932Y002159D02*
X001449Y002159D01*
X001427Y002317D02*
X000932Y002317D01*
X000932Y002476D02*
X001455Y002476D01*
X001544Y002634D02*
X000932Y002634D01*
X000932Y002793D02*
X001786Y002793D01*
X001579Y002951D02*
X000932Y002951D01*
X000932Y003110D02*
X001469Y003110D01*
X001427Y003268D02*
X000932Y003268D01*
X000932Y003427D02*
X001434Y003427D01*
X001500Y003585D02*
X000932Y003585D01*
X000932Y003744D02*
X001668Y003744D01*
X001628Y003902D02*
X000932Y003902D01*
X000932Y004061D02*
X001489Y004061D01*
X001427Y004219D02*
X000932Y004219D01*
X000932Y004378D02*
X001427Y004378D01*
X001480Y004536D02*
X000932Y004536D01*
X000932Y004695D02*
X001605Y004695D01*
X001723Y004853D02*
X000932Y004853D01*
X000932Y005012D02*
X001518Y005012D01*
X001444Y005170D02*
X000932Y005170D01*
X000932Y005329D02*
X001427Y005329D01*
X001459Y005487D02*
X000932Y005487D01*
X000932Y005646D02*
X001556Y005646D01*
X001814Y005804D02*
X000932Y005804D01*
X000932Y005963D02*
X001567Y005963D01*
X001464Y006121D02*
X000932Y006121D01*
X000932Y006280D02*
X001427Y006280D01*
X001439Y006438D02*
X000932Y006438D01*
X000932Y006597D02*
X001507Y006597D01*
X001696Y006755D02*
X000932Y006755D01*
X000932Y006914D02*
X001616Y006914D01*
X001485Y007072D02*
X000932Y007072D01*
X000932Y007231D02*
X001427Y007231D01*
X001427Y007389D02*
X000932Y007389D01*
X000932Y007548D02*
X001485Y007548D01*
X001616Y007706D02*
X000932Y007706D01*
X000932Y007865D02*
X001696Y007865D01*
X001828Y007810D02*
X002374Y007810D01*
X002374Y007810D01*
X001828Y007810D01*
X001507Y008023D02*
X000932Y008023D01*
X000932Y008182D02*
X001439Y008182D01*
X001427Y008340D02*
X000932Y008340D01*
X000932Y008499D02*
X001464Y008499D01*
X001567Y008657D02*
X000932Y008657D01*
X000932Y008816D02*
X001814Y008816D01*
X001828Y008810D02*
X002374Y008810D01*
X001828Y008810D01*
X001556Y008974D02*
X000932Y008974D01*
X000932Y009133D02*
X001459Y009133D01*
X001427Y009291D02*
X000932Y009291D01*
X000932Y009450D02*
X001444Y009450D01*
X001518Y009608D02*
X000932Y009608D01*
X000932Y009767D02*
X001723Y009767D01*
X001828Y009810D02*
X002627Y009810D01*
X002810Y009734D01*
X002842Y009702D01*
X002842Y009918D01*
X002810Y009886D01*
X002627Y009810D01*
X001828Y009810D01*
X001605Y009925D02*
X000932Y009925D01*
X000932Y010084D02*
X001480Y010084D01*
X001427Y010242D02*
X000932Y010242D01*
X000932Y010401D02*
X001427Y010401D01*
X001489Y010559D02*
X000932Y010559D01*
X000932Y010718D02*
X001628Y010718D01*
X001668Y010876D02*
X000932Y010876D01*
X000932Y011035D02*
X001500Y011035D01*
X001434Y011193D02*
X000932Y011193D01*
X000932Y011352D02*
X001427Y011352D01*
X001469Y011510D02*
X000932Y011510D01*
X000932Y011669D02*
X001579Y011669D01*
X001786Y011827D02*
X000932Y011827D01*
X000932Y011986D02*
X001544Y011986D01*
X001455Y012144D02*
X000932Y012144D01*
X000932Y012303D02*
X001427Y012303D01*
X001449Y012461D02*
X000932Y012461D01*
X000932Y012620D02*
X001530Y012620D01*
X001751Y012778D02*
X000932Y012778D01*
X000932Y012937D02*
X001593Y012937D01*
X001475Y013095D02*
X000932Y013095D01*
X000932Y013254D02*
X001427Y013254D01*
X001428Y013412D02*
X000932Y013412D01*
X000932Y013571D02*
X001494Y013571D01*
X001639Y013729D02*
X000932Y013729D01*
X000932Y013888D02*
X001642Y013888D01*
X001828Y013810D02*
X002627Y013810D01*
X002803Y013737D01*
X002803Y013849D01*
X002917Y013963D01*
X002902Y013978D01*
X002810Y013886D01*
X002627Y013810D01*
X001828Y013810D01*
X001495Y014046D02*
X000932Y014046D01*
X000932Y014205D02*
X001430Y014205D01*
X001427Y014363D02*
X000932Y014363D01*
X000932Y014522D02*
X001474Y014522D01*
X001590Y014680D02*
X000932Y014680D01*
X000932Y014839D02*
X001758Y014839D01*
X001828Y014810D02*
X002627Y014810D01*
X002810Y014734D01*
X002855Y014689D01*
X002917Y014751D01*
X002803Y014865D01*
X002803Y014883D01*
X002627Y014810D01*
X001828Y014810D01*
X001533Y014997D02*
X000932Y014997D01*
X000932Y015156D02*
X001450Y015156D01*
X001427Y015314D02*
X000932Y015314D01*
X000932Y015473D02*
X001453Y015473D01*
X001541Y015631D02*
X000932Y015631D01*
X000932Y015790D02*
X001779Y015790D01*
X001828Y015810D02*
X002627Y015810D01*
X002803Y015737D01*
X002803Y015883D01*
X002627Y015810D01*
X001828Y015810D01*
X001582Y015948D02*
X000932Y015948D01*
X000932Y016107D02*
X001470Y016107D01*
X001427Y016265D02*
X000932Y016265D01*
X000932Y016424D02*
X001433Y016424D01*
X001499Y016582D02*
X000932Y016582D01*
X000932Y016741D02*
X001661Y016741D01*
X001631Y016899D02*
X000932Y016899D01*
X000932Y017058D02*
X001491Y017058D01*
X001427Y017216D02*
X000932Y017216D01*
X000932Y017375D02*
X001427Y017375D01*
X001479Y017533D02*
X000932Y017533D01*
X000932Y017692D02*
X001602Y017692D01*
X001730Y017850D02*
X000932Y017850D01*
X000932Y018009D02*
X001521Y018009D01*
X001445Y018167D02*
X000932Y018167D01*
X000932Y018326D02*
X001427Y018326D01*
X001458Y018484D02*
X000932Y018484D01*
X000932Y018643D02*
X001553Y018643D01*
X001807Y018801D02*
X000932Y018801D01*
X000932Y018960D02*
X001570Y018960D01*
X001465Y019118D02*
X000932Y019118D01*
X000932Y019277D02*
X001427Y019277D01*
X001438Y019435D02*
X000932Y019435D01*
X000932Y019594D02*
X001504Y019594D01*
X001689Y019752D02*
X000932Y019752D01*
X000932Y019911D02*
X001619Y019911D01*
X001486Y020069D02*
X000932Y020069D01*
X000932Y020228D02*
X001427Y020228D01*
X001427Y020386D02*
X000932Y020386D01*
X000932Y020545D02*
X001483Y020545D01*
X001613Y020703D02*
X000932Y020703D01*
X000932Y020862D02*
X002803Y020862D01*
X002887Y021020D02*
X000932Y021020D01*
X000932Y021179D02*
X002803Y021179D01*
X002803Y021337D02*
X000932Y021337D01*
X000932Y021496D02*
X002803Y021496D01*
X002803Y021654D02*
X000932Y021654D01*
X000932Y021813D02*
X002892Y021813D01*
X002803Y021971D02*
X000932Y021971D01*
X000932Y022130D02*
X002803Y022130D01*
X002803Y022288D02*
X000932Y022288D01*
X000932Y022447D02*
X002803Y022447D01*
X002897Y022605D02*
X000932Y022605D01*
X000932Y022764D02*
X002803Y022764D01*
X002803Y022922D02*
X000932Y022922D01*
X000932Y023081D02*
X002803Y023081D01*
X002803Y023239D02*
X000932Y023239D01*
X000932Y023398D02*
X002902Y023398D01*
X003807Y023556D02*
X000932Y023556D01*
X000932Y023715D02*
X003807Y023715D01*
X004166Y023556D02*
X004202Y023556D01*
X004202Y023588D02*
X004202Y023207D01*
X004404Y023207D01*
X004450Y023220D01*
X004491Y023243D01*
X004525Y023277D01*
X004549Y023318D01*
X004561Y023364D01*
X004561Y023588D01*
X004202Y023588D01*
X004202Y023398D02*
X004166Y023398D01*
X004166Y023239D02*
X004202Y023239D01*
X003990Y023081D02*
X010677Y023081D01*
X010677Y022922D02*
X003990Y022922D01*
X003990Y022764D02*
X010677Y022764D01*
X010771Y022605D02*
X003896Y022605D01*
X003990Y022447D02*
X010677Y022447D01*
X010677Y022288D02*
X003990Y022288D01*
X003990Y022130D02*
X010677Y022130D01*
X010677Y021971D02*
X003990Y021971D01*
X003901Y021813D02*
X010766Y021813D01*
X010677Y021654D02*
X003990Y021654D01*
X003990Y021496D02*
X010677Y021496D01*
X010677Y021337D02*
X003990Y021337D01*
X003990Y021179D02*
X010677Y021179D01*
X010761Y021020D02*
X003906Y021020D01*
X003990Y020862D02*
X010677Y020862D01*
X010677Y020703D02*
X003990Y020703D01*
X003990Y020545D02*
X010677Y020545D01*
X010677Y020386D02*
X003990Y020386D01*
X003911Y020228D02*
X010756Y020228D01*
X010677Y020069D02*
X003990Y020069D01*
X003990Y019911D02*
X010677Y019911D01*
X010677Y019752D02*
X003990Y019752D01*
X003990Y019594D02*
X010677Y019594D01*
X010751Y019435D02*
X003916Y019435D01*
X003990Y019277D02*
X010677Y019277D01*
X010677Y019118D02*
X003990Y019118D01*
X003990Y018960D02*
X010677Y018960D01*
X010678Y018801D02*
X003990Y018801D01*
X003921Y018643D02*
X010746Y018643D01*
X010677Y018484D02*
X003990Y018484D01*
X003990Y018326D02*
X010677Y018326D01*
X010677Y018167D02*
X003990Y018167D01*
X003984Y018009D02*
X010683Y018009D01*
X010741Y017850D02*
X003926Y017850D01*
X003990Y017692D02*
X010677Y017692D01*
X010677Y017533D02*
X003990Y017533D01*
X003990Y017375D02*
X010677Y017375D01*
X010677Y016859D02*
X010677Y016440D01*
X010791Y016326D01*
X010677Y016212D01*
X010677Y015652D01*
X010791Y015538D01*
X010677Y015424D01*
X010677Y014997D01*
X007926Y014997D01*
X007834Y014959D01*
X007763Y014889D01*
X007492Y014617D01*
X007454Y014525D01*
X007454Y013356D01*
X007352Y013356D01*
X007352Y012801D01*
X007315Y012801D01*
X007315Y013356D01*
X007202Y013356D01*
X007202Y016691D01*
X007370Y016859D01*
X010677Y016859D01*
X010677Y016741D02*
X007252Y016741D01*
X007202Y016582D02*
X010677Y016582D01*
X010693Y016424D02*
X007202Y016424D01*
X007202Y016265D02*
X010730Y016265D01*
X010677Y016107D02*
X007202Y016107D01*
X007202Y015948D02*
X010677Y015948D01*
X010677Y015790D02*
X007202Y015790D01*
X007202Y015631D02*
X010698Y015631D01*
X010725Y015473D02*
X007202Y015473D01*
X007202Y015314D02*
X010677Y015314D01*
X010677Y015156D02*
X007202Y015156D01*
X007202Y014997D02*
X010677Y014997D01*
X010124Y014497D02*
X010097Y014432D01*
X010097Y014274D01*
X010124Y014210D01*
X008997Y014210D01*
X008909Y014297D01*
X008763Y014358D01*
X008605Y014358D01*
X008458Y014297D01*
X008346Y014185D01*
X008286Y014039D01*
X008286Y013880D01*
X008346Y013734D01*
X008458Y013622D01*
X008605Y013561D01*
X008763Y013561D01*
X008909Y013622D01*
X008916Y013628D01*
X008916Y013564D01*
X008728Y013376D01*
X008629Y013376D01*
X008511Y013259D01*
X008511Y012318D01*
X008504Y012311D01*
X008488Y012328D01*
X008498Y012365D01*
X008498Y012764D01*
X008139Y012764D01*
X008139Y012801D01*
X008103Y012801D01*
X008103Y013356D01*
X007954Y013356D01*
X007954Y014372D01*
X008079Y014497D01*
X010124Y014497D01*
X010097Y014363D02*
X007954Y014363D01*
X007954Y014205D02*
X008366Y014205D01*
X008289Y014046D02*
X007954Y014046D01*
X007954Y013888D02*
X008286Y013888D01*
X008351Y013729D02*
X007954Y013729D01*
X007954Y013571D02*
X008582Y013571D01*
X008764Y013412D02*
X007954Y013412D01*
X008139Y013356D02*
X008139Y012801D01*
X008498Y012801D01*
X008498Y013200D01*
X008486Y013246D01*
X008462Y013287D01*
X008428Y013320D01*
X008387Y013344D01*
X008341Y013356D01*
X008139Y013356D01*
X008139Y013254D02*
X008103Y013254D01*
X008103Y013095D02*
X008139Y013095D01*
X008139Y012937D02*
X008103Y012937D01*
X008121Y012782D02*
X008121Y012026D01*
X008164Y011983D01*
X008498Y012461D02*
X008511Y012461D01*
X008498Y012620D02*
X008511Y012620D01*
X008511Y012778D02*
X008139Y012778D01*
X008121Y012782D02*
X008121Y013554D01*
X008133Y013566D01*
X008481Y013254D02*
X008511Y013254D01*
X008498Y013095D02*
X008511Y013095D01*
X008498Y012937D02*
X008511Y012937D01*
X008908Y012782D02*
X008908Y013160D01*
X009314Y013566D01*
X009696Y013184D01*
X009696Y012782D01*
X008908Y012782D02*
X008908Y012019D01*
X008873Y011983D01*
X008916Y013571D02*
X008786Y013571D01*
X007714Y014839D02*
X007202Y014839D01*
X007202Y014680D02*
X007555Y014680D01*
X007454Y014522D02*
X007202Y014522D01*
X007202Y014363D02*
X007454Y014363D01*
X007454Y014205D02*
X007202Y014205D01*
X007202Y014046D02*
X007454Y014046D01*
X007454Y013888D02*
X007202Y013888D01*
X007202Y013729D02*
X007454Y013729D01*
X007454Y013571D02*
X007202Y013571D01*
X007334Y013554D02*
X007345Y013566D01*
X007334Y013554D02*
X007334Y012782D01*
X007352Y012764D02*
X007352Y012209D01*
X007454Y012209D01*
X007454Y011749D01*
X007296Y011749D01*
X007286Y011774D01*
X007202Y011858D01*
X007202Y012209D01*
X007315Y012209D01*
X007315Y012764D01*
X007352Y012764D01*
X007352Y012620D02*
X007315Y012620D01*
X007315Y012461D02*
X007352Y012461D01*
X007352Y012303D02*
X007315Y012303D01*
X007202Y012144D02*
X007454Y012144D01*
X007454Y011986D02*
X007202Y011986D01*
X007233Y011827D02*
X007454Y011827D01*
X007352Y012937D02*
X007315Y012937D01*
X007315Y013095D02*
X007352Y013095D01*
X007352Y013254D02*
X007315Y013254D01*
X007202Y013412D02*
X007454Y013412D01*
X006702Y013412D02*
X004839Y013412D01*
X004839Y013571D02*
X006702Y013571D01*
X006702Y013729D02*
X004839Y013729D01*
X004839Y013888D02*
X006702Y013888D01*
X006702Y014046D02*
X004839Y014046D01*
X004839Y014205D02*
X006702Y014205D01*
X006702Y014363D02*
X004839Y014363D01*
X004927Y014522D02*
X006702Y014522D01*
X006702Y014680D02*
X004988Y014680D01*
X004982Y014839D02*
X005667Y014839D01*
X006159Y015473D02*
X006702Y015473D01*
X006702Y015631D02*
X006269Y015631D01*
X006326Y015790D02*
X006702Y015790D01*
X006702Y015948D02*
X006318Y015948D01*
X006234Y016107D02*
X006702Y016107D01*
X006702Y016265D02*
X003937Y016265D01*
X003974Y016424D02*
X006702Y016424D01*
X006702Y016582D02*
X003990Y016582D01*
X003990Y016741D02*
X006702Y016741D01*
X006725Y016899D02*
X003990Y016899D01*
X003932Y017058D02*
X006862Y017058D01*
X007020Y017216D02*
X003979Y017216D01*
X002803Y016883D02*
X002803Y016737D01*
X002627Y016810D01*
X001828Y016810D01*
X002627Y016810D01*
X002803Y016883D01*
X002794Y016741D02*
X002803Y016741D01*
X002803Y015790D02*
X002675Y015790D01*
X002696Y014839D02*
X002829Y014839D01*
X002812Y013888D02*
X002841Y013888D01*
X003012Y013173D02*
X003787Y013173D01*
X003787Y012724D01*
X003645Y012783D01*
X003487Y012783D01*
X003340Y012722D01*
X003228Y012610D01*
X003168Y012464D01*
X003168Y012306D01*
X003228Y012159D01*
X003278Y012109D01*
X003228Y012059D01*
X003168Y011913D01*
X003168Y011754D01*
X003190Y011701D01*
X002908Y011983D01*
X002951Y012027D01*
X003027Y012210D01*
X003027Y012409D01*
X002951Y012593D01*
X002810Y012734D01*
X002627Y012810D01*
X001828Y012810D01*
X002627Y012810D01*
X002810Y012886D01*
X002951Y013027D01*
X003012Y013173D01*
X002980Y013095D02*
X003787Y013095D01*
X003787Y012937D02*
X002861Y012937D01*
X002703Y012778D02*
X003475Y012778D01*
X003656Y012778D02*
X003787Y012778D01*
X003238Y012620D02*
X002925Y012620D01*
X003006Y012461D02*
X003168Y012461D01*
X003169Y012303D02*
X003027Y012303D01*
X003000Y012144D02*
X003243Y012144D01*
X003198Y011986D02*
X002910Y011986D01*
X003063Y011827D02*
X003168Y011827D01*
X002922Y010998D02*
X002922Y010622D01*
X002810Y010734D01*
X002627Y010810D01*
X001828Y010810D01*
X002627Y010810D01*
X002810Y010886D01*
X002922Y010998D01*
X002922Y010876D02*
X002787Y010876D01*
X002827Y010718D02*
X002922Y010718D01*
X002842Y009767D02*
X002731Y009767D01*
X002374Y008810D02*
X002374Y008810D01*
X003240Y009029D02*
X003240Y009323D01*
X003277Y009323D01*
X003277Y009029D01*
X003240Y009029D01*
X003251Y009019D02*
X003259Y009011D01*
X003251Y009019D02*
X003251Y009235D01*
X003361Y009345D01*
X003845Y009345D01*
X004700Y009345D01*
X004747Y009393D01*
X004870Y009291D02*
X004260Y009291D01*
X004260Y009280D02*
X004260Y009345D01*
X003845Y009345D01*
X003845Y009345D01*
X004260Y009345D01*
X004260Y009380D01*
X004283Y009380D01*
X004386Y009423D01*
X004430Y009467D01*
X004511Y009467D01*
X004657Y009528D01*
X004769Y009640D01*
X004830Y009786D01*
X004830Y009944D01*
X004769Y010091D01*
X004657Y010203D01*
X004511Y010263D01*
X004353Y010263D01*
X004280Y010233D01*
X004280Y010798D01*
X004163Y010915D01*
X004095Y010915D01*
X004095Y011604D01*
X004071Y011662D01*
X004171Y011662D01*
X004244Y011589D01*
X004244Y010996D01*
X004361Y010879D01*
X005243Y010879D01*
X005215Y010810D01*
X005215Y010652D01*
X005276Y010506D01*
X005388Y010394D01*
X005534Y010333D01*
X005692Y010333D01*
X005839Y010394D01*
X005951Y010506D01*
X006011Y010652D01*
X006011Y010810D01*
X005983Y010879D01*
X006503Y010879D01*
X006475Y010810D01*
X006475Y010705D01*
X006401Y010736D01*
X006243Y010736D01*
X006096Y010675D01*
X005984Y010563D01*
X005924Y010417D01*
X005924Y010340D01*
X005781Y010281D01*
X005669Y010169D01*
X005609Y010023D01*
X005609Y009869D01*
X005534Y009869D01*
X005388Y009809D01*
X005276Y009697D01*
X005215Y009551D01*
X005215Y009397D01*
X005061Y009397D01*
X004915Y009336D01*
X004803Y009224D01*
X004789Y009190D01*
X004669Y009240D01*
X004545Y009240D01*
X004542Y009242D01*
X004450Y009280D01*
X004260Y009280D01*
X004413Y009450D02*
X005215Y009450D01*
X005239Y009608D02*
X004738Y009608D01*
X004822Y009767D02*
X005345Y009767D01*
X005609Y009925D02*
X004830Y009925D01*
X004772Y010084D02*
X005634Y010084D01*
X005742Y010242D02*
X004562Y010242D01*
X004302Y010242D02*
X004280Y010242D01*
X004280Y010401D02*
X005381Y010401D01*
X005253Y010559D02*
X004280Y010559D01*
X004280Y010718D02*
X005215Y010718D01*
X005242Y010876D02*
X004202Y010876D01*
X004244Y011035D02*
X004095Y011035D01*
X004095Y011193D02*
X004244Y011193D01*
X004244Y011352D02*
X004095Y011352D01*
X004095Y011510D02*
X004244Y011510D01*
X004432Y009865D02*
X004227Y009660D01*
X003845Y009660D01*
X003318Y009660D01*
X003259Y009719D01*
X003240Y009291D02*
X003277Y009291D01*
X003277Y009133D02*
X003240Y009133D01*
X004280Y008036D02*
X004280Y007599D01*
X004364Y007683D01*
X004510Y007743D01*
X004669Y007743D01*
X004815Y007683D01*
X004927Y007571D01*
X004988Y007425D01*
X004988Y007266D01*
X004927Y007120D01*
X004815Y007008D01*
X004780Y006994D01*
X004830Y006873D01*
X004830Y006715D01*
X004769Y006569D01*
X004657Y006457D01*
X004511Y006396D01*
X004353Y006396D01*
X004280Y006426D01*
X004280Y006318D01*
X004260Y006298D01*
X004260Y006196D01*
X003845Y006196D01*
X005030Y006196D01*
X005062Y006164D01*
X004781Y006597D02*
X007341Y006597D01*
X007341Y006558D02*
X007377Y006471D01*
X007346Y006484D01*
X007187Y006484D01*
X007041Y006423D01*
X006929Y006311D01*
X006869Y006165D01*
X006869Y006006D01*
X006929Y005860D01*
X007041Y005748D01*
X007139Y005708D01*
X007139Y005607D01*
X004361Y005607D01*
X004329Y005575D01*
X004329Y005668D01*
X004280Y005717D01*
X004280Y006074D01*
X004260Y006094D01*
X004260Y006196D01*
X003845Y006196D01*
X003495Y006196D01*
X003259Y005960D01*
X003223Y005924D01*
X003223Y005369D01*
X003205Y005387D02*
X003205Y005583D01*
X003240Y005583D01*
X003240Y005941D01*
X003277Y005941D01*
X003277Y005766D01*
X003242Y005766D01*
X003242Y005387D01*
X003205Y005387D01*
X003205Y005351D02*
X003242Y005351D01*
X003242Y004972D01*
X003444Y004972D01*
X003490Y004985D01*
X003531Y005008D01*
X003563Y005041D01*
X003602Y005003D01*
X003561Y004905D01*
X003561Y004746D01*
X003615Y004618D01*
X003601Y004605D01*
X003527Y004679D01*
X002967Y004679D01*
X002916Y004628D01*
X002810Y004734D01*
X002627Y004810D01*
X001828Y004810D01*
X002627Y004810D01*
X002810Y004886D01*
X002927Y005002D01*
X002957Y004985D01*
X003003Y004972D01*
X003205Y004972D01*
X003205Y005351D01*
X003205Y005329D02*
X003242Y005329D01*
X003242Y005487D02*
X003205Y005487D01*
X003240Y005646D02*
X003242Y005646D01*
X003240Y005804D02*
X003277Y005804D01*
X003416Y006511D02*
X003259Y006668D01*
X003416Y006511D02*
X003845Y006511D01*
X003845Y006196D02*
X003845Y006196D01*
X003845Y005881D02*
X003845Y005456D01*
X003932Y005369D01*
X003932Y004853D01*
X003960Y004826D01*
X003956Y004822D01*
X003956Y004263D01*
X004136Y003744D02*
X004234Y003744D01*
X004136Y003688D02*
X004136Y003507D01*
X004123Y003461D01*
X004100Y003420D01*
X004066Y003386D01*
X004025Y003363D01*
X003979Y003350D01*
X003798Y003350D01*
X003798Y003688D01*
X003798Y003688D01*
X003798Y003688D01*
X004136Y003688D01*
X004136Y003585D02*
X004234Y003585D01*
X004234Y003427D02*
X004104Y003427D01*
X004234Y003268D02*
X003027Y003268D01*
X002986Y003110D02*
X004247Y003110D01*
X004466Y002951D02*
X002876Y002951D01*
X002668Y002793D02*
X004629Y002793D01*
X004729Y002136D02*
X004729Y001501D01*
X005114Y001501D01*
X005114Y001979D01*
X005102Y002025D01*
X005078Y002066D01*
X005044Y002100D01*
X005003Y002123D01*
X004958Y002136D01*
X004729Y002136D01*
X004729Y002000D02*
X004639Y002000D01*
X004639Y001842D02*
X004729Y001842D01*
X004729Y001683D02*
X004639Y001683D01*
X004639Y001525D02*
X004729Y001525D01*
X005114Y001525D02*
X005234Y001525D01*
X005234Y001683D02*
X005114Y001683D01*
X005114Y001842D02*
X005234Y001842D01*
X005234Y002000D02*
X005108Y002000D01*
X005434Y002159D02*
X003006Y002159D01*
X003027Y002317D02*
X005434Y002317D01*
X005508Y002476D02*
X003000Y002476D01*
X002910Y002634D02*
X005666Y002634D01*
X005234Y001366D02*
X005114Y001366D01*
X005114Y001208D02*
X005234Y001208D01*
X005234Y001049D02*
X005114Y001049D01*
X005103Y000891D02*
X005234Y000891D01*
X004265Y000891D02*
X002762Y000891D01*
X002931Y001049D02*
X004254Y001049D01*
X004254Y001208D02*
X002997Y001208D01*
X003007Y001330D02*
X003007Y001348D01*
X002995Y001422D01*
X002972Y001494D01*
X002938Y001561D01*
X002893Y001623D01*
X002840Y001676D01*
X002779Y001720D01*
X002711Y001755D01*
X002640Y001778D01*
X002565Y001790D01*
X002247Y001790D01*
X002247Y001330D01*
X003007Y001330D01*
X003004Y001366D02*
X004254Y001366D01*
X004254Y001525D02*
X002957Y001525D01*
X002830Y001683D02*
X004254Y001683D01*
X004254Y001842D02*
X002703Y001842D01*
X002925Y002000D02*
X004260Y002000D01*
X003798Y003427D02*
X003798Y003427D01*
X003798Y003585D02*
X003798Y003585D01*
X003583Y004695D02*
X002850Y004695D01*
X002731Y004853D02*
X003561Y004853D01*
X003534Y005012D02*
X003593Y005012D01*
X003242Y005012D02*
X003205Y005012D01*
X003205Y005170D02*
X003242Y005170D01*
X002870Y005674D02*
X002810Y005734D01*
X002627Y005810D01*
X001828Y005810D01*
X002627Y005810D01*
X002810Y005886D01*
X002862Y005938D01*
X002862Y005739D01*
X002874Y005693D01*
X002878Y005688D01*
X002870Y005674D01*
X002862Y005804D02*
X002640Y005804D01*
X002374Y006810D02*
X001828Y006810D01*
X002374Y006810D01*
X002374Y006810D01*
X002850Y003926D02*
X002850Y003694D01*
X002810Y003734D01*
X002627Y003810D01*
X001828Y003810D01*
X002627Y003810D01*
X002810Y003886D01*
X002850Y003926D01*
X002850Y003902D02*
X002827Y003902D01*
X002850Y003744D02*
X002787Y003744D01*
X002247Y001683D02*
X002207Y001683D01*
X002207Y001525D02*
X002247Y001525D01*
X002247Y001366D02*
X002207Y001366D01*
X004329Y005646D02*
X007139Y005646D01*
X006985Y005804D02*
X004280Y005804D01*
X004280Y005963D02*
X006887Y005963D01*
X006869Y006121D02*
X004260Y006121D01*
X004260Y006280D02*
X006916Y006280D01*
X007078Y006438D02*
X004613Y006438D01*
X004830Y006755D02*
X007357Y006755D01*
X007341Y006716D02*
X007341Y006558D01*
X007341Y006716D02*
X007402Y006862D01*
X007514Y006974D01*
X007660Y007035D01*
X007818Y007035D01*
X007965Y006974D01*
X008077Y006862D01*
X008137Y006716D01*
X008137Y006558D01*
X008107Y006484D01*
X008212Y006484D01*
X008358Y006423D01*
X008470Y006311D01*
X008531Y006165D01*
X008531Y006006D01*
X008470Y005860D01*
X008358Y005748D01*
X008269Y005711D01*
X008269Y005607D01*
X009471Y005607D01*
X009530Y005548D01*
X009631Y005548D01*
X009661Y005579D01*
X009552Y005688D01*
X009552Y006576D01*
X009451Y006576D01*
X009415Y006490D01*
X009303Y006378D01*
X009157Y006317D01*
X008998Y006317D01*
X008852Y006378D01*
X008740Y006490D01*
X008680Y006636D01*
X008680Y006795D01*
X008740Y006941D01*
X008790Y006991D01*
X008740Y007041D01*
X008680Y007187D01*
X008680Y007346D01*
X008740Y007492D01*
X008852Y007604D01*
X008998Y007665D01*
X009157Y007665D01*
X009303Y007604D01*
X009415Y007492D01*
X009445Y007421D01*
X009572Y007421D01*
X009572Y007456D01*
X009987Y007456D01*
X009987Y007456D01*
X009676Y007456D01*
X009314Y007818D01*
X009078Y007818D01*
X008796Y007548D02*
X004937Y007548D01*
X004988Y007389D02*
X008698Y007389D01*
X008680Y007231D02*
X004973Y007231D01*
X004879Y007072D02*
X008727Y007072D01*
X008729Y006914D02*
X008025Y006914D01*
X008121Y006755D02*
X008680Y006755D01*
X008696Y006597D02*
X008137Y006597D01*
X008322Y006438D02*
X008792Y006438D01*
X008483Y006280D02*
X009552Y006280D01*
X009552Y006438D02*
X009363Y006438D01*
X009552Y006121D02*
X008531Y006121D01*
X008513Y005963D02*
X009552Y005963D01*
X009552Y005804D02*
X008414Y005804D01*
X008269Y005646D02*
X009594Y005646D01*
X010234Y005571D02*
X010305Y005571D01*
X010383Y005648D01*
X010432Y005669D01*
X010873Y006110D01*
X010943Y006180D01*
X010962Y006226D01*
X011069Y006332D01*
X011129Y006479D01*
X011129Y006637D01*
X011095Y006720D01*
X011272Y006720D01*
X011272Y007099D01*
X011309Y007099D01*
X011309Y006720D01*
X011511Y006720D01*
X011557Y006733D01*
X011592Y006753D01*
X011592Y006752D01*
X011560Y006720D01*
X011536Y006679D01*
X011524Y006633D01*
X011524Y006431D01*
X011902Y006431D01*
X011902Y006394D01*
X011939Y006394D01*
X011939Y006035D01*
X011981Y006035D01*
X010943Y004997D01*
X010206Y004997D01*
X010281Y005073D01*
X010342Y005219D01*
X010342Y005377D01*
X010281Y005524D01*
X010234Y005571D01*
X010296Y005487D02*
X011433Y005487D01*
X011274Y005329D02*
X010342Y005329D01*
X010322Y005170D02*
X011116Y005170D01*
X010957Y005012D02*
X010220Y005012D01*
X010380Y005646D02*
X011591Y005646D01*
X011750Y005804D02*
X010567Y005804D01*
X010726Y005963D02*
X011908Y005963D01*
X011902Y006035D02*
X011902Y006394D01*
X011524Y006394D01*
X011524Y006192D01*
X011536Y006146D01*
X011560Y006105D01*
X011593Y006071D01*
X011634Y006048D01*
X011680Y006035D01*
X011902Y006035D01*
X011902Y006121D02*
X011939Y006121D01*
X011939Y006280D02*
X011902Y006280D01*
X011920Y006412D02*
X011428Y006412D01*
X011282Y006558D01*
X011290Y006566D01*
X011290Y007117D01*
X011272Y007072D02*
X011309Y007072D01*
X011309Y006914D02*
X011272Y006914D01*
X011272Y006755D02*
X011309Y006755D01*
X011129Y006597D02*
X011524Y006597D01*
X011524Y006438D02*
X011112Y006438D01*
X011016Y006280D02*
X011524Y006280D01*
X011550Y006121D02*
X010884Y006121D01*
X010558Y007141D02*
X009987Y007141D01*
X009204Y007141D01*
X009078Y007267D01*
X009360Y007548D02*
X009572Y007548D01*
X009572Y007558D02*
X009572Y007456D01*
X009987Y007456D01*
X009987Y007771D02*
X011460Y007771D01*
X011475Y007786D01*
X011920Y007341D01*
X011920Y007121D01*
X012148Y007548D02*
X012508Y007548D01*
X012451Y007389D02*
X012337Y007389D01*
X012337Y007231D02*
X012451Y007231D01*
X012508Y007072D02*
X012337Y007072D01*
X012337Y006914D02*
X012501Y006914D01*
X012343Y006755D02*
X012251Y006755D01*
X012148Y007706D02*
X012640Y007706D01*
X012719Y007865D02*
X012148Y007865D01*
X012148Y008023D02*
X012530Y008023D01*
X012463Y008182D02*
X012148Y008182D01*
X012451Y008340D02*
X011335Y008340D01*
X011493Y008499D02*
X012488Y008499D01*
X012591Y008657D02*
X011652Y008657D01*
X011519Y008920D02*
X011519Y009200D01*
X011475Y009243D01*
X011211Y009507D01*
X011211Y009952D01*
X011793Y010401D02*
X012451Y010401D01*
X012451Y010242D02*
X012282Y010242D01*
X012297Y010084D02*
X012503Y010084D01*
X012628Y009925D02*
X012297Y009925D01*
X012297Y009767D02*
X012747Y009767D01*
X012542Y009608D02*
X012245Y009608D01*
X012148Y009450D02*
X012468Y009450D01*
X012451Y009291D02*
X012148Y009291D01*
X012148Y009133D02*
X012483Y009133D01*
X012579Y008974D02*
X012148Y008974D01*
X012138Y008816D02*
X012837Y008816D01*
X013664Y008816D02*
X014546Y008816D01*
X014546Y008974D02*
X013922Y008974D01*
X014019Y009133D02*
X014546Y009133D01*
X014546Y009291D02*
X014051Y009291D01*
X014034Y009450D02*
X014546Y009450D01*
X014546Y009608D02*
X013960Y009608D01*
X013755Y009767D02*
X014546Y009767D01*
X014546Y009925D02*
X013873Y009925D01*
X013998Y010084D02*
X014546Y010084D01*
X014546Y010242D02*
X014051Y010242D01*
X014051Y010401D02*
X014546Y010401D01*
X014546Y010559D02*
X013989Y010559D01*
X013850Y010718D02*
X014546Y010718D01*
X014546Y010876D02*
X013810Y010876D01*
X013978Y011035D02*
X014546Y011035D01*
X014546Y011193D02*
X014044Y011193D01*
X014051Y011352D02*
X014546Y011352D01*
X014546Y011510D02*
X014009Y011510D01*
X013899Y011669D02*
X014546Y011669D01*
X014546Y011827D02*
X013692Y011827D01*
X013650Y011810D02*
X013104Y011810D01*
X013104Y011810D01*
X013650Y011810D01*
X013934Y011986D02*
X014546Y011986D01*
X014546Y012144D02*
X014023Y012144D01*
X014051Y012303D02*
X014546Y012303D01*
X014546Y012461D02*
X014029Y012461D01*
X013948Y012620D02*
X014546Y012620D01*
X014546Y012778D02*
X013727Y012778D01*
X013650Y012810D02*
X013104Y012810D01*
X013104Y012810D01*
X013650Y012810D01*
X013885Y012937D02*
X014546Y012937D01*
X014546Y013095D02*
X014003Y013095D01*
X014051Y013254D02*
X014546Y013254D01*
X014546Y013412D02*
X014050Y013412D01*
X013984Y013571D02*
X014546Y013571D01*
X014546Y013729D02*
X013839Y013729D01*
X013836Y013888D02*
X014546Y013888D01*
X014546Y014046D02*
X013983Y014046D01*
X014048Y014205D02*
X014546Y014205D01*
X014546Y014363D02*
X014051Y014363D01*
X014004Y014522D02*
X014546Y014522D01*
X014546Y014680D02*
X013888Y014680D01*
X013720Y014839D02*
X014546Y014839D01*
X014546Y014997D02*
X013945Y014997D01*
X014028Y015156D02*
X014546Y015156D01*
X014546Y015314D02*
X014051Y015314D01*
X014025Y015473D02*
X014546Y015473D01*
X014546Y015631D02*
X013937Y015631D01*
X013896Y015948D02*
X014546Y015948D01*
X014546Y015790D02*
X013699Y015790D01*
X014008Y016107D02*
X014546Y016107D01*
X014546Y016265D02*
X014051Y016265D01*
X014045Y016424D02*
X014546Y016424D01*
X014546Y016582D02*
X013979Y016582D01*
X013817Y016741D02*
X014546Y016741D01*
X014546Y016899D02*
X013847Y016899D01*
X013988Y017058D02*
X014546Y017058D01*
X014546Y017216D02*
X014051Y017216D01*
X014051Y017375D02*
X014546Y017375D01*
X014546Y017533D02*
X014000Y017533D01*
X013876Y017692D02*
X014546Y017692D01*
X014546Y017850D02*
X013748Y017850D01*
X013957Y018009D02*
X014546Y018009D01*
X014546Y018167D02*
X014033Y018167D01*
X014051Y018326D02*
X014546Y018326D01*
X014546Y018484D02*
X014020Y018484D01*
X013925Y018643D02*
X014546Y018643D01*
X014546Y018801D02*
X013671Y018801D01*
X013908Y018960D02*
X014546Y018960D01*
X014546Y019118D02*
X014013Y019118D01*
X014051Y019277D02*
X014546Y019277D01*
X014546Y019435D02*
X014040Y019435D01*
X013974Y019594D02*
X014546Y019594D01*
X014546Y019752D02*
X013790Y019752D01*
X013859Y019911D02*
X014546Y019911D01*
X014546Y020069D02*
X013992Y020069D01*
X014051Y020228D02*
X014546Y020228D01*
X014546Y020386D02*
X014051Y020386D01*
X013995Y020545D02*
X014546Y020545D01*
X014546Y020703D02*
X013865Y020703D01*
X014546Y020862D02*
X011864Y020862D01*
X011864Y020703D02*
X012637Y020703D01*
X012507Y020545D02*
X011864Y020545D01*
X011864Y020386D02*
X012451Y020386D01*
X012451Y020228D02*
X011785Y020228D01*
X011864Y020069D02*
X012509Y020069D01*
X012643Y019911D02*
X011864Y019911D01*
X011864Y019752D02*
X012712Y019752D01*
X012528Y019594D02*
X011864Y019594D01*
X011790Y019435D02*
X012462Y019435D01*
X012451Y019277D02*
X011864Y019277D01*
X011864Y019118D02*
X012489Y019118D01*
X012594Y018960D02*
X011864Y018960D01*
X011864Y018801D02*
X012830Y018801D01*
X012577Y018643D02*
X011795Y018643D01*
X011864Y018484D02*
X012482Y018484D01*
X012451Y018326D02*
X011864Y018326D01*
X011864Y018167D02*
X012469Y018167D01*
X012545Y018009D02*
X011858Y018009D01*
X011800Y017850D02*
X012754Y017850D01*
X012626Y017692D02*
X011864Y017692D01*
X011864Y017533D02*
X012502Y017533D01*
X012451Y017375D02*
X011864Y017375D01*
X011864Y016741D02*
X012684Y016741D01*
X012522Y016582D02*
X011864Y016582D01*
X011848Y016424D02*
X012457Y016424D01*
X012451Y016265D02*
X011811Y016265D01*
X011864Y016107D02*
X012494Y016107D01*
X012605Y015948D02*
X012298Y015948D01*
X012428Y015790D02*
X012803Y015790D01*
X012565Y015631D02*
X012468Y015631D01*
X012477Y015473D02*
X012443Y015473D01*
X013104Y014810D02*
X013650Y014810D01*
X013104Y014810D01*
X013104Y014810D01*
X013104Y013810D02*
X013650Y013810D01*
X013104Y013810D01*
X013104Y013810D01*
X012458Y011193D02*
X012246Y011193D01*
X012246Y011040D02*
X011887Y011040D01*
X011887Y010661D01*
X012090Y010661D01*
X012135Y010674D01*
X012176Y010697D01*
X012210Y010731D01*
X012234Y010772D01*
X012246Y010818D01*
X012246Y011040D01*
X012246Y011035D02*
X012524Y011035D01*
X012691Y010876D02*
X012246Y010876D01*
X012197Y010718D02*
X012652Y010718D01*
X012513Y010559D02*
X011793Y010559D01*
X011912Y010495D02*
X011920Y010487D01*
X011920Y009952D01*
X011902Y010084D02*
X011939Y010084D01*
X011939Y010242D02*
X011902Y010242D01*
X011887Y010718D02*
X011851Y010718D01*
X011851Y010876D02*
X011887Y010876D01*
X011887Y011035D02*
X011851Y011035D01*
X011519Y008920D02*
X010684Y008086D01*
X009987Y008086D01*
X009552Y008023D02*
X004885Y008023D01*
X004927Y008065D02*
X004988Y008211D01*
X004988Y008369D01*
X004927Y008516D01*
X004877Y008566D01*
X004927Y008616D01*
X004941Y008651D01*
X005061Y008601D01*
X005220Y008601D01*
X005366Y008661D01*
X005478Y008773D01*
X005481Y008780D01*
X009552Y008780D01*
X009552Y007578D01*
X009572Y007558D01*
X009552Y007706D02*
X004759Y007706D01*
X004669Y007892D02*
X004815Y007953D01*
X004927Y008065D01*
X004975Y008182D02*
X009552Y008182D01*
X009552Y008340D02*
X004988Y008340D01*
X004934Y008499D02*
X009552Y008499D01*
X009552Y008657D02*
X005356Y008657D01*
X004669Y007892D02*
X004510Y007892D01*
X004364Y007953D01*
X004280Y008036D01*
X004280Y008023D02*
X004293Y008023D01*
X004280Y007865D02*
X009552Y007865D01*
X007453Y006914D02*
X004813Y006914D01*
X004420Y007706D02*
X004280Y007706D01*
X005846Y010401D02*
X005924Y010401D01*
X005973Y010559D02*
X005983Y010559D01*
X006011Y010718D02*
X006199Y010718D01*
X006444Y010718D02*
X006475Y010718D01*
X006502Y010876D02*
X005984Y010876D01*
X006189Y014839D02*
X006702Y014839D01*
X006702Y014997D02*
X006300Y014997D01*
X006326Y015156D02*
X006702Y015156D01*
X006702Y015314D02*
X006287Y015314D01*
X002803Y017737D02*
X002627Y017810D01*
X001828Y017810D01*
X002627Y017810D01*
X002810Y017886D01*
X002871Y017946D01*
X002917Y017900D01*
X002803Y017786D01*
X002803Y017737D01*
X002867Y017850D02*
X002724Y017850D01*
X002887Y018658D02*
X002810Y018734D01*
X002627Y018810D01*
X001828Y018810D01*
X002627Y018810D01*
X002803Y018883D01*
X002803Y018802D01*
X002917Y018688D01*
X002887Y018658D01*
X002803Y018801D02*
X002648Y018801D01*
X002803Y019737D02*
X002627Y019810D01*
X001828Y019810D01*
X002627Y019810D01*
X002803Y019883D01*
X002803Y019737D01*
X002803Y019752D02*
X002766Y019752D01*
X004484Y023239D02*
X004671Y023239D01*
X004594Y023398D02*
X004561Y023398D01*
X004561Y023556D02*
X004594Y023556D01*
X004594Y023715D02*
X004561Y023715D01*
X004953Y023556D02*
X004990Y023556D01*
X004990Y023588D02*
X004990Y023207D01*
X005192Y023207D01*
X005238Y023220D01*
X005279Y023243D01*
X005312Y023277D01*
X005336Y023318D01*
X005348Y023364D01*
X005348Y023588D01*
X004990Y023588D01*
X004990Y023398D02*
X004953Y023398D01*
X004953Y023239D02*
X004990Y023239D01*
X005271Y023239D02*
X005459Y023239D01*
X005382Y023398D02*
X005348Y023398D01*
X005348Y023556D02*
X005382Y023556D01*
X005382Y023715D02*
X005348Y023715D01*
X005740Y023556D02*
X005777Y023556D01*
X005777Y023588D02*
X005777Y023207D01*
X005979Y023207D01*
X006025Y023220D01*
X006066Y023243D01*
X006100Y023277D01*
X006123Y023318D01*
X006136Y023364D01*
X006136Y023588D01*
X005777Y023588D01*
X005777Y023398D02*
X005740Y023398D01*
X005740Y023239D02*
X005777Y023239D01*
X006059Y023239D02*
X006246Y023239D01*
X006169Y023398D02*
X006136Y023398D01*
X006136Y023556D02*
X006169Y023556D01*
X006169Y023715D02*
X006136Y023715D01*
X006528Y023556D02*
X006565Y023556D01*
X006565Y023588D02*
X006565Y023207D01*
X006767Y023207D01*
X006812Y023220D01*
X006854Y023243D01*
X006887Y023277D01*
X006911Y023318D01*
X006923Y023364D01*
X006923Y023588D01*
X006565Y023588D01*
X006565Y023398D02*
X006528Y023398D01*
X006528Y023239D02*
X006565Y023239D01*
X006846Y023239D02*
X007033Y023239D01*
X006957Y023398D02*
X006923Y023398D01*
X006923Y023556D02*
X006957Y023556D01*
X006957Y023715D02*
X006923Y023715D01*
X007315Y023556D02*
X007352Y023556D01*
X007352Y023588D02*
X007352Y023207D01*
X007554Y023207D01*
X007600Y023220D01*
X007641Y023243D01*
X007674Y023277D01*
X007698Y023318D01*
X007710Y023364D01*
X007710Y023588D01*
X007352Y023588D01*
X007352Y023398D02*
X007315Y023398D01*
X007315Y023239D02*
X007352Y023239D01*
X007634Y023239D02*
X007821Y023239D01*
X007814Y023243D02*
X007855Y023220D01*
X007900Y023207D01*
X008103Y023207D01*
X008103Y023588D01*
X007744Y023588D01*
X007744Y023364D01*
X007756Y023318D01*
X007780Y023277D01*
X007814Y023243D01*
X007744Y023398D02*
X007710Y023398D01*
X007710Y023556D02*
X007744Y023556D01*
X007744Y023715D02*
X007710Y023715D01*
X008103Y023556D02*
X008139Y023556D01*
X008139Y023588D02*
X008139Y023207D01*
X008341Y023207D01*
X008387Y023220D01*
X008428Y023243D01*
X008462Y023277D01*
X008486Y023318D01*
X008498Y023364D01*
X008498Y023588D01*
X008139Y023588D01*
X008139Y023398D02*
X008103Y023398D01*
X008103Y023239D02*
X008139Y023239D01*
X008421Y023239D02*
X008608Y023239D01*
X008531Y023398D02*
X008498Y023398D01*
X008498Y023556D02*
X008531Y023556D01*
X008531Y023715D02*
X008498Y023715D01*
X008890Y023556D02*
X008927Y023556D01*
X008927Y023588D02*
X008927Y023207D01*
X009129Y023207D01*
X009175Y023220D01*
X009216Y023243D01*
X009249Y023277D01*
X009273Y023318D01*
X009285Y023364D01*
X009285Y023588D01*
X008927Y023588D01*
X008927Y023398D02*
X008890Y023398D01*
X008890Y023239D02*
X008927Y023239D01*
X009208Y023239D02*
X009396Y023239D01*
X009319Y023398D02*
X009285Y023398D01*
X009285Y023556D02*
X009319Y023556D01*
X009319Y023715D02*
X009285Y023715D01*
X009677Y023556D02*
X009714Y023556D01*
X009714Y023588D02*
X009714Y023207D01*
X009916Y023207D01*
X009962Y023220D01*
X010003Y023243D01*
X010037Y023277D01*
X010060Y023318D01*
X010073Y023364D01*
X010073Y023588D01*
X009714Y023588D01*
X009714Y023398D02*
X009677Y023398D01*
X009677Y023239D02*
X009714Y023239D01*
X009996Y023239D02*
X010183Y023239D01*
X010106Y023398D02*
X010073Y023398D01*
X010073Y023556D02*
X010106Y023556D01*
X010106Y023715D02*
X010073Y023715D01*
X010465Y023556D02*
X010502Y023556D01*
X010502Y023398D02*
X010465Y023398D01*
X010465Y023239D02*
X010502Y023239D01*
X010860Y023556D02*
X014546Y023556D01*
X014546Y023398D02*
X011765Y023398D01*
X011864Y023239D02*
X014546Y023239D01*
X014546Y023081D02*
X011864Y023081D01*
X011864Y022922D02*
X014546Y022922D01*
X014546Y022764D02*
X011864Y022764D01*
X011770Y022605D02*
X014546Y022605D01*
X014546Y022447D02*
X011864Y022447D01*
X011864Y022288D02*
X014546Y022288D01*
X014546Y022130D02*
X011864Y022130D01*
X011864Y021971D02*
X014546Y021971D01*
X014546Y021813D02*
X011775Y021813D01*
X011864Y021654D02*
X014546Y021654D01*
X014546Y021496D02*
X011864Y021496D01*
X011864Y021337D02*
X014546Y021337D01*
X014546Y021179D02*
X011864Y021179D01*
X011780Y021020D02*
X014546Y021020D01*
X014546Y023715D02*
X010860Y023715D01*
X002374Y011810D02*
X001828Y011810D01*
X002374Y011810D01*
X002374Y011810D01*
X007114Y002317D02*
X007873Y002317D01*
X008392Y002317D02*
X009117Y002317D01*
X009015Y002159D02*
X007085Y002159D01*
X007134Y002000D02*
X009015Y002000D01*
X009015Y001842D02*
X007134Y001842D01*
X007134Y001683D02*
X009015Y001683D01*
X009015Y001525D02*
X007134Y001525D01*
X007134Y001366D02*
X009015Y001366D01*
X009015Y001208D02*
X007134Y001208D01*
X007134Y001049D02*
X012547Y001049D01*
X012481Y001208D02*
X012372Y001208D01*
X012375Y001213D02*
X012388Y001259D01*
X012388Y001628D01*
X011736Y001628D01*
X011736Y001788D01*
X011576Y001788D01*
X011576Y002313D01*
X011081Y002313D01*
X011036Y002300D01*
X010995Y002277D01*
X010961Y002243D01*
X010937Y002202D01*
X010925Y002156D01*
X010925Y001788D01*
X011576Y001788D01*
X011576Y001628D01*
X010925Y001628D01*
X010925Y001259D01*
X010937Y001213D01*
X010961Y001172D01*
X010995Y001138D01*
X011036Y001115D01*
X011081Y001102D01*
X011576Y001102D01*
X011576Y001628D01*
X011736Y001628D01*
X011736Y001102D01*
X012231Y001102D01*
X012277Y001115D01*
X012318Y001138D01*
X012352Y001172D01*
X012375Y001213D01*
X012388Y001366D02*
X012474Y001366D01*
X012522Y001525D02*
X012388Y001525D01*
X012388Y001788D02*
X012388Y002156D01*
X012375Y002202D01*
X012352Y002243D01*
X012318Y002277D01*
X012277Y002300D01*
X012231Y002313D01*
X011736Y002313D01*
X011736Y001788D01*
X012388Y001788D01*
X012388Y001842D02*
X012775Y001842D01*
X012648Y001683D02*
X011736Y001683D01*
X011736Y001525D02*
X011576Y001525D01*
X011576Y001683D02*
X010518Y001683D01*
X010518Y001525D02*
X010925Y001525D01*
X010925Y001366D02*
X010518Y001366D01*
X010518Y001208D02*
X010940Y001208D01*
X010925Y001842D02*
X010518Y001842D01*
X010518Y002000D02*
X010925Y002000D01*
X010926Y002159D02*
X010518Y002159D01*
X010416Y002317D02*
X012414Y002317D01*
X012387Y002159D02*
X012472Y002159D01*
X012553Y002000D02*
X012388Y002000D01*
X012255Y002476D02*
X011385Y002476D01*
X011496Y002634D02*
X012097Y002634D01*
X011938Y002793D02*
X011523Y002793D01*
X011484Y002951D02*
X011780Y002951D01*
X012045Y003392D02*
X012043Y003395D01*
X012124Y003395D01*
X012420Y003098D01*
X012512Y003060D01*
X012513Y003060D01*
X012527Y003027D01*
X012668Y002886D01*
X012851Y002810D01*
X013650Y002810D01*
X012851Y002810D01*
X012693Y002744D01*
X012045Y003392D01*
X012170Y003268D02*
X012250Y003268D01*
X012328Y003110D02*
X012409Y003110D01*
X012487Y002951D02*
X012602Y002951D01*
X012645Y002793D02*
X012810Y002793D01*
X012580Y003646D02*
X012439Y003786D01*
X012436Y003789D01*
X012526Y003826D01*
X012627Y003927D01*
X012668Y003886D01*
X012851Y003810D01*
X013650Y003810D01*
X012851Y003810D01*
X012668Y003734D01*
X012580Y003646D01*
X012482Y003744D02*
X012692Y003744D01*
X012651Y003902D02*
X012602Y003902D01*
X013104Y004810D02*
X013104Y004810D01*
X013650Y004810D01*
X013104Y004810D01*
X013755Y004853D02*
X014546Y004853D01*
X014546Y004695D02*
X013873Y004695D01*
X013998Y004536D02*
X014546Y004536D01*
X014546Y004378D02*
X014051Y004378D01*
X014051Y004219D02*
X014546Y004219D01*
X014546Y004061D02*
X013989Y004061D01*
X013850Y003902D02*
X014546Y003902D01*
X014546Y003744D02*
X013810Y003744D01*
X013978Y003585D02*
X014546Y003585D01*
X014546Y003427D02*
X014044Y003427D01*
X014051Y003268D02*
X014546Y003268D01*
X014546Y003110D02*
X014009Y003110D01*
X013899Y002951D02*
X014546Y002951D01*
X014546Y002793D02*
X013692Y002793D01*
X013934Y002634D02*
X014546Y002634D01*
X014546Y002476D02*
X014023Y002476D01*
X014051Y002317D02*
X014546Y002317D01*
X014546Y002159D02*
X014029Y002159D01*
X013948Y002000D02*
X014546Y002000D01*
X014546Y001842D02*
X013727Y001842D01*
X013854Y001683D02*
X014546Y001683D01*
X014546Y001525D02*
X013980Y001525D01*
X014028Y001366D02*
X014546Y001366D01*
X014546Y001208D02*
X014021Y001208D01*
X013955Y001049D02*
X014546Y001049D01*
X014546Y000891D02*
X013785Y000891D01*
X013271Y001366D02*
X013231Y001366D01*
X013231Y001525D02*
X013271Y001525D01*
X013271Y001683D02*
X013231Y001683D01*
X012716Y000891D02*
X007134Y000891D01*
X008504Y002476D02*
X008896Y002476D01*
X008785Y002634D02*
X008531Y002634D01*
X009417Y002476D02*
X009480Y002476D01*
X011576Y002159D02*
X011736Y002159D01*
X011736Y002000D02*
X011576Y002000D01*
X011576Y001842D02*
X011736Y001842D01*
X011736Y001366D02*
X011576Y001366D01*
X011576Y001208D02*
X011736Y001208D01*
X013960Y005012D02*
X014546Y005012D01*
X014546Y005170D02*
X014034Y005170D01*
X014051Y005329D02*
X014546Y005329D01*
X014546Y005487D02*
X014019Y005487D01*
X013922Y005646D02*
X014546Y005646D01*
X014546Y005804D02*
X013664Y005804D01*
X013650Y005810D02*
X013104Y005810D01*
X013104Y005810D01*
X013650Y005810D01*
X013911Y005963D02*
X014546Y005963D01*
X014546Y006121D02*
X014014Y006121D01*
X014051Y006280D02*
X014546Y006280D01*
X014546Y006438D02*
X014039Y006438D01*
X013971Y006597D02*
X014546Y006597D01*
X014546Y006755D02*
X013782Y006755D01*
X013650Y006810D02*
X013104Y006810D01*
X013650Y006810D01*
X013862Y006914D02*
X014546Y006914D01*
X014546Y007072D02*
X013994Y007072D01*
X014051Y007231D02*
X014546Y007231D01*
X014546Y007389D02*
X014051Y007389D01*
X013994Y007548D02*
X014546Y007548D01*
X014546Y007706D02*
X013862Y007706D01*
X013783Y007865D02*
X014546Y007865D01*
X014546Y008023D02*
X013971Y008023D01*
X014039Y008182D02*
X014546Y008182D01*
X014546Y008340D02*
X014051Y008340D01*
X014014Y008499D02*
X014546Y008499D01*
X014546Y008657D02*
X013911Y008657D01*
X013104Y006810D02*
X013104Y006810D01*
M02*
