G75*
G70*
%OFA0B0*%
%FSLAX24Y24*%
%IPPOS*%
%LPD*%
%AMOC8*
5,1,8,0,0,1.08239X$1,22.5*
%
%ADD10C,0.0050*%
%ADD11C,0.0030*%
%ADD12C,0.0020*%
%ADD13C,0.0060*%
%ADD14C,0.0100*%
%ADD15C,0.0040*%
%ADD16R,0.0118X0.0059*%
%ADD17R,0.0118X0.0118*%
D10*
X003167Y001622D02*
X003167Y001928D01*
X003268Y002029D01*
X003472Y002029D01*
X003574Y001928D01*
X003574Y001622D01*
X003777Y001622D02*
X003167Y001622D01*
X003167Y002230D02*
X003777Y002230D01*
X003574Y002434D01*
X003777Y002637D01*
X003167Y002637D01*
X003167Y002838D02*
X003167Y003143D01*
X003268Y003245D01*
X003472Y003245D01*
X003574Y003143D01*
X003574Y002838D01*
X003777Y002838D02*
X003167Y002838D01*
X003574Y003041D02*
X003777Y003245D01*
X009339Y003355D02*
X009339Y003965D01*
X009644Y003965D01*
X009746Y003863D01*
X009746Y003660D01*
X009644Y003558D01*
X009339Y003558D01*
X009542Y003558D02*
X009746Y003355D01*
X009947Y003355D02*
X010354Y003355D01*
X010554Y003456D02*
X010656Y003355D01*
X010860Y003355D01*
X010961Y003456D01*
X010961Y003558D01*
X010860Y003660D01*
X010656Y003660D01*
X010554Y003762D01*
X010554Y003863D01*
X010656Y003965D01*
X010860Y003965D01*
X010961Y003863D01*
X011162Y003965D02*
X011162Y003355D01*
X011569Y003355D01*
X011366Y003660D02*
X011162Y003660D01*
X011162Y003965D02*
X011569Y003965D01*
X011770Y003965D02*
X012177Y003965D01*
X011973Y003965D02*
X011973Y003355D01*
X010354Y003965D02*
X009947Y003965D01*
X009947Y003355D01*
X009947Y003660D02*
X010150Y003660D01*
X010845Y007530D02*
X010845Y009499D01*
X011042Y008790D02*
X011475Y008790D01*
X011475Y008869D01*
X011475Y008790D02*
X011908Y008790D01*
X011869Y008672D02*
X011869Y008357D01*
X011830Y008357D02*
X011121Y008357D01*
X011082Y008357D02*
X011082Y008672D01*
X011121Y008672D02*
X011830Y008672D01*
X011908Y008239D02*
X011475Y008239D01*
X011475Y008160D01*
X011475Y008239D02*
X011042Y008239D01*
X012105Y007530D02*
X012105Y009499D01*
D11*
X011775Y008830D02*
X011775Y008583D01*
X011775Y008462D02*
X011405Y008215D01*
X011405Y008462D02*
X011775Y008215D01*
X011528Y008583D02*
X011405Y008706D01*
X011775Y008706D01*
X014053Y008438D02*
X014053Y008148D01*
X014198Y008148D01*
X014247Y008196D01*
X014247Y008245D01*
X014198Y008293D01*
X014053Y008293D01*
X014053Y008438D02*
X014198Y008438D01*
X014247Y008390D01*
X014247Y008341D01*
X014198Y008293D01*
X014348Y008293D02*
X014348Y008196D01*
X014396Y008148D01*
X014493Y008148D01*
X014541Y008196D01*
X014541Y008245D01*
X014493Y008293D01*
X014348Y008293D01*
X014445Y008390D01*
X014541Y008438D01*
X014348Y009171D02*
X014348Y009220D01*
X014541Y009413D01*
X014541Y009462D01*
X014348Y009462D01*
X014247Y009413D02*
X014247Y009365D01*
X014198Y009317D01*
X014053Y009317D01*
X014053Y009462D02*
X014053Y009171D01*
X014198Y009171D01*
X014247Y009220D01*
X014247Y009268D01*
X014198Y009317D01*
X014247Y009413D02*
X014198Y009462D01*
X014053Y009462D01*
X014053Y010195D02*
X014198Y010195D01*
X014247Y010243D01*
X014247Y010437D01*
X014198Y010485D01*
X014053Y010485D01*
X014053Y010195D01*
X014348Y010243D02*
X014541Y010437D01*
X014541Y010243D01*
X014493Y010195D01*
X014396Y010195D01*
X014348Y010243D01*
X014348Y010437D01*
X014396Y010485D01*
X014493Y010485D01*
X014541Y010437D01*
X014541Y011140D02*
X014348Y011140D01*
X014445Y011140D02*
X014445Y011430D01*
X014348Y011333D01*
X014247Y011382D02*
X014247Y011188D01*
X014198Y011140D01*
X014053Y011140D01*
X014053Y011430D01*
X014198Y011430D01*
X014247Y011382D01*
X014198Y012164D02*
X014102Y012164D01*
X014053Y012212D01*
X014053Y012405D01*
X014102Y012454D01*
X014198Y012454D01*
X014247Y012405D01*
X014348Y012405D02*
X014348Y012212D01*
X014541Y012405D01*
X014541Y012212D01*
X014493Y012164D01*
X014396Y012164D01*
X014348Y012212D01*
X014247Y012212D02*
X014198Y012164D01*
X014348Y012405D02*
X014396Y012454D01*
X014493Y012454D01*
X014541Y012405D01*
X014541Y013187D02*
X014348Y013187D01*
X014445Y013187D02*
X014445Y013477D01*
X014348Y013381D01*
X014247Y013429D02*
X014198Y013477D01*
X014102Y013477D01*
X014053Y013429D01*
X014053Y013235D01*
X014102Y013187D01*
X014198Y013187D01*
X014247Y013235D01*
X014198Y014132D02*
X014102Y014132D01*
X014053Y014180D01*
X014053Y014374D01*
X014102Y014422D01*
X014198Y014422D01*
X014247Y014374D01*
X014348Y014374D02*
X014396Y014422D01*
X014493Y014422D01*
X014541Y014374D01*
X014541Y014326D01*
X014348Y014132D01*
X014541Y014132D01*
X014247Y014180D02*
X014198Y014132D01*
X014198Y015156D02*
X014102Y015156D01*
X014053Y015204D01*
X014053Y015398D01*
X014102Y015446D01*
X014198Y015446D01*
X014247Y015398D01*
X014348Y015398D02*
X014396Y015446D01*
X014493Y015446D01*
X014541Y015398D01*
X014541Y015349D01*
X014493Y015301D01*
X014541Y015252D01*
X014541Y015204D01*
X014493Y015156D01*
X014396Y015156D01*
X014348Y015204D01*
X014247Y015204D02*
X014198Y015156D01*
X014445Y015301D02*
X014493Y015301D01*
X014493Y016179D02*
X014493Y016469D01*
X014348Y016324D01*
X014541Y016324D01*
X014247Y016228D02*
X014198Y016179D01*
X014102Y016179D01*
X014053Y016228D01*
X014053Y016421D01*
X014102Y016469D01*
X014198Y016469D01*
X014247Y016421D01*
X014198Y017203D02*
X014102Y017203D01*
X014053Y017251D01*
X014053Y017445D01*
X014102Y017493D01*
X014198Y017493D01*
X014247Y017445D01*
X014348Y017493D02*
X014348Y017348D01*
X014445Y017396D01*
X014493Y017396D01*
X014541Y017348D01*
X014541Y017251D01*
X014493Y017203D01*
X014396Y017203D01*
X014348Y017251D01*
X014247Y017251D02*
X014198Y017203D01*
X014348Y017493D02*
X014541Y017493D01*
X014493Y018148D02*
X014396Y018148D01*
X014348Y018196D01*
X014348Y018293D01*
X014493Y018293D01*
X014541Y018245D01*
X014541Y018196D01*
X014493Y018148D01*
X014348Y018293D02*
X014445Y018390D01*
X014541Y018438D01*
X014247Y018390D02*
X014198Y018438D01*
X014102Y018438D01*
X014053Y018390D01*
X014053Y018196D01*
X014102Y018148D01*
X014198Y018148D01*
X014247Y018196D01*
X014198Y019171D02*
X014102Y019171D01*
X014053Y019220D01*
X014053Y019413D01*
X014102Y019462D01*
X014198Y019462D01*
X014247Y019413D01*
X014348Y019462D02*
X014541Y019462D01*
X014541Y019413D01*
X014348Y019220D01*
X014348Y019171D01*
X014247Y019220D02*
X014198Y019171D01*
X013627Y020982D02*
X013530Y021079D01*
X013530Y021273D01*
X013429Y021224D02*
X013429Y021176D01*
X013381Y021128D01*
X013429Y021079D01*
X013429Y021031D01*
X013381Y020982D01*
X013284Y020982D01*
X013235Y021031D01*
X013136Y021031D02*
X013136Y020982D01*
X013088Y020982D01*
X013088Y021031D01*
X013136Y021031D01*
X012987Y021031D02*
X012939Y020982D01*
X012842Y020982D01*
X012793Y021031D01*
X012890Y021128D02*
X012939Y021128D01*
X012987Y021079D01*
X012987Y021031D01*
X012939Y021128D02*
X012987Y021176D01*
X012987Y021224D01*
X012939Y021273D01*
X012842Y021273D01*
X012793Y021224D01*
X013235Y021224D02*
X013284Y021273D01*
X013381Y021273D01*
X013429Y021224D01*
X013381Y021128D02*
X013332Y021128D01*
X013627Y020982D02*
X013724Y021079D01*
X013724Y021273D01*
X014053Y007493D02*
X014198Y007493D01*
X014247Y007445D01*
X014247Y007396D01*
X014198Y007348D01*
X014053Y007348D01*
X014053Y007203D02*
X014053Y007493D01*
X014198Y007348D02*
X014247Y007300D01*
X014247Y007251D01*
X014198Y007203D01*
X014053Y007203D01*
X014348Y007251D02*
X014396Y007203D01*
X014493Y007203D01*
X014541Y007251D01*
X014541Y007348D01*
X014493Y007396D01*
X014445Y007396D01*
X014348Y007348D01*
X014348Y007493D01*
X014541Y007493D01*
X014493Y006469D02*
X014348Y006324D01*
X014541Y006324D01*
X014493Y006179D02*
X014493Y006469D01*
X014247Y006421D02*
X014247Y006373D01*
X014198Y006324D01*
X014053Y006324D01*
X014053Y006179D02*
X014198Y006179D01*
X014247Y006228D01*
X014247Y006276D01*
X014198Y006324D01*
X014247Y006421D02*
X014198Y006469D01*
X014053Y006469D01*
X014053Y006179D01*
X014053Y005682D02*
X014198Y005682D01*
X014247Y005634D01*
X014247Y005585D01*
X014198Y005537D01*
X014053Y005537D01*
X014053Y005392D02*
X014053Y005682D01*
X014198Y005537D02*
X014247Y005489D01*
X014247Y005440D01*
X014198Y005392D01*
X014053Y005392D01*
X014348Y005440D02*
X014396Y005392D01*
X014493Y005392D01*
X014541Y005440D01*
X014541Y005489D01*
X014493Y005537D01*
X014445Y005537D01*
X014493Y005537D02*
X014541Y005585D01*
X014541Y005634D01*
X014493Y005682D01*
X014396Y005682D01*
X014348Y005634D01*
X014396Y004658D02*
X014348Y004610D01*
X014396Y004658D02*
X014493Y004658D01*
X014541Y004610D01*
X014541Y004562D01*
X014348Y004368D01*
X014541Y004368D01*
X014247Y004417D02*
X014198Y004368D01*
X014053Y004368D01*
X014053Y004658D01*
X014198Y004658D01*
X014247Y004610D01*
X014247Y004562D01*
X014198Y004513D01*
X014053Y004513D01*
X014198Y004513D02*
X014247Y004465D01*
X014247Y004417D01*
X014198Y003635D02*
X014053Y003635D01*
X014053Y003345D01*
X014198Y003345D01*
X014247Y003393D01*
X014247Y003441D01*
X014198Y003490D01*
X014053Y003490D01*
X014198Y003490D02*
X014247Y003538D01*
X014247Y003586D01*
X014198Y003635D01*
X014348Y003538D02*
X014445Y003635D01*
X014445Y003345D01*
X014541Y003345D02*
X014348Y003345D01*
X014396Y002454D02*
X014493Y002454D01*
X014541Y002405D01*
X014348Y002212D01*
X014396Y002164D01*
X014493Y002164D01*
X014541Y002212D01*
X014541Y002405D01*
X014396Y002454D02*
X014348Y002405D01*
X014348Y002212D01*
X014247Y002212D02*
X014198Y002164D01*
X014053Y002164D01*
X014053Y002454D01*
X014198Y002454D01*
X014247Y002405D01*
X014247Y002357D01*
X014198Y002309D01*
X014053Y002309D01*
X014198Y002309D02*
X014247Y002260D01*
X014247Y002212D01*
X014226Y001036D02*
X014226Y000746D01*
X014033Y001036D01*
X014033Y000746D01*
X013932Y000795D02*
X013932Y000891D01*
X013835Y000891D01*
X013738Y000795D02*
X013738Y000988D01*
X013787Y001036D01*
X013883Y001036D01*
X013932Y000988D01*
X013932Y000795D02*
X013883Y000746D01*
X013787Y000746D01*
X013738Y000795D01*
X014328Y000746D02*
X014473Y000746D01*
X014521Y000795D01*
X014521Y000988D01*
X014473Y001036D01*
X014328Y001036D01*
X014328Y000746D01*
X002603Y020982D02*
X002700Y021079D01*
X002700Y021273D01*
X002506Y021273D02*
X002506Y021079D01*
X002603Y020982D01*
X002405Y021031D02*
X002357Y020982D01*
X002260Y020982D01*
X002212Y021031D01*
X002113Y021031D02*
X002113Y020982D01*
X002064Y020982D01*
X002064Y021031D01*
X002113Y021031D01*
X001963Y021031D02*
X001915Y020982D01*
X001818Y020982D01*
X001770Y021031D01*
X001867Y021128D02*
X001915Y021128D01*
X001963Y021079D01*
X001963Y021031D01*
X001915Y021128D02*
X001963Y021176D01*
X001963Y021224D01*
X001915Y021273D01*
X001818Y021273D01*
X001770Y021224D01*
X002212Y021224D02*
X002260Y021273D01*
X002357Y021273D01*
X002405Y021224D01*
X002405Y021176D01*
X002357Y021128D01*
X002405Y021079D01*
X002405Y021031D01*
X002357Y021128D02*
X002309Y021128D01*
X001471Y019462D02*
X001277Y019462D01*
X001176Y019365D02*
X001176Y019171D01*
X001277Y019171D02*
X001277Y019220D01*
X001471Y019413D01*
X001471Y019462D01*
X001176Y019365D02*
X001079Y019462D01*
X000982Y019365D01*
X000982Y019171D01*
X000982Y019317D02*
X001176Y019317D01*
X001079Y018438D02*
X001176Y018341D01*
X001176Y018148D01*
X001277Y018196D02*
X001325Y018148D01*
X001422Y018148D01*
X001471Y018196D01*
X001471Y018245D01*
X001422Y018293D01*
X001277Y018293D01*
X001277Y018196D01*
X001277Y018293D02*
X001374Y018390D01*
X001471Y018438D01*
X001176Y018293D02*
X000982Y018293D01*
X000982Y018341D02*
X001079Y018438D01*
X000982Y018341D02*
X000982Y018148D01*
X001079Y017414D02*
X001176Y017318D01*
X001176Y017124D01*
X001277Y017173D02*
X001325Y017124D01*
X001422Y017124D01*
X001471Y017173D01*
X001471Y017269D01*
X001422Y017318D01*
X001374Y017318D01*
X001277Y017269D01*
X001277Y017414D01*
X001471Y017414D01*
X001176Y017269D02*
X000982Y017269D01*
X000982Y017318D02*
X001079Y017414D01*
X000982Y017318D02*
X000982Y017124D01*
X001079Y016469D02*
X000982Y016373D01*
X000982Y016179D01*
X000982Y016324D02*
X001176Y016324D01*
X001176Y016373D02*
X001176Y016179D01*
X001277Y016324D02*
X001471Y016324D01*
X001422Y016179D02*
X001422Y016469D01*
X001277Y016324D01*
X001176Y016373D02*
X001079Y016469D01*
X001079Y015525D02*
X000982Y015428D01*
X000982Y015234D01*
X000982Y015379D02*
X001176Y015379D01*
X001176Y015428D02*
X001176Y015234D01*
X001277Y015283D02*
X001325Y015234D01*
X001422Y015234D01*
X001471Y015283D01*
X001471Y015331D01*
X001422Y015379D01*
X001374Y015379D01*
X001422Y015379D02*
X001471Y015428D01*
X001471Y015476D01*
X001422Y015525D01*
X001325Y015525D01*
X001277Y015476D01*
X001176Y015428D02*
X001079Y015525D01*
X001079Y014501D02*
X000982Y014404D01*
X000982Y014211D01*
X000982Y014356D02*
X001176Y014356D01*
X001176Y014404D02*
X001176Y014211D01*
X001277Y014211D02*
X001471Y014404D01*
X001471Y014453D01*
X001422Y014501D01*
X001325Y014501D01*
X001277Y014453D01*
X001176Y014404D02*
X001079Y014501D01*
X001277Y014211D02*
X001471Y014211D01*
X001374Y013477D02*
X001374Y013187D01*
X001277Y013187D02*
X001471Y013187D01*
X001277Y013381D02*
X001374Y013477D01*
X001176Y013381D02*
X001176Y013187D01*
X001176Y013332D02*
X000982Y013332D01*
X000982Y013381D02*
X001079Y013477D01*
X001176Y013381D01*
X000982Y013381D02*
X000982Y013187D01*
X001079Y012454D02*
X001176Y012357D01*
X001176Y012164D01*
X001277Y012212D02*
X001277Y012405D01*
X001325Y012454D01*
X001422Y012454D01*
X001471Y012405D01*
X001277Y012212D01*
X001325Y012164D01*
X001422Y012164D01*
X001471Y012212D01*
X001471Y012405D01*
X001176Y012309D02*
X000982Y012309D01*
X000982Y012357D02*
X001079Y012454D01*
X000982Y012357D02*
X000982Y012164D01*
X000982Y011509D02*
X001176Y011509D01*
X001277Y011509D02*
X001471Y011509D01*
X001471Y011460D01*
X001277Y011267D01*
X001277Y011219D01*
X001079Y011364D02*
X000982Y011364D01*
X000982Y011219D02*
X000982Y011509D01*
X000982Y010485D02*
X001176Y010485D01*
X001079Y010340D02*
X000982Y010340D01*
X000982Y010195D02*
X000982Y010485D01*
X001277Y010340D02*
X001422Y010340D01*
X001471Y010292D01*
X001471Y010243D01*
X001422Y010195D01*
X001325Y010195D01*
X001277Y010243D01*
X001277Y010340D01*
X001374Y010437D01*
X001471Y010485D01*
X001471Y009462D02*
X001277Y009462D01*
X001277Y009317D01*
X001374Y009365D01*
X001422Y009365D01*
X001471Y009317D01*
X001471Y009220D01*
X001422Y009171D01*
X001325Y009171D01*
X001277Y009220D01*
X001079Y009317D02*
X000982Y009317D01*
X000982Y009462D02*
X000982Y009171D01*
X000982Y009462D02*
X001176Y009462D01*
X001176Y008517D02*
X000982Y008517D01*
X000982Y008226D01*
X000982Y008372D02*
X001079Y008372D01*
X001277Y008372D02*
X001471Y008372D01*
X001422Y008517D02*
X001277Y008372D01*
X001422Y008226D02*
X001422Y008517D01*
X001422Y007493D02*
X001325Y007493D01*
X001277Y007445D01*
X001176Y007493D02*
X000982Y007493D01*
X000982Y007203D01*
X000982Y007348D02*
X001079Y007348D01*
X001277Y007251D02*
X001325Y007203D01*
X001422Y007203D01*
X001471Y007251D01*
X001471Y007300D01*
X001422Y007348D01*
X001374Y007348D01*
X001422Y007348D02*
X001471Y007396D01*
X001471Y007445D01*
X001422Y007493D01*
X001422Y006469D02*
X001325Y006469D01*
X001277Y006421D01*
X001176Y006469D02*
X000982Y006469D01*
X000982Y006179D01*
X000982Y006324D02*
X001079Y006324D01*
X001277Y006179D02*
X001471Y006373D01*
X001471Y006421D01*
X001422Y006469D01*
X001471Y006179D02*
X001277Y006179D01*
X001374Y005446D02*
X001374Y005156D01*
X001277Y005156D02*
X001471Y005156D01*
X001277Y005349D02*
X001374Y005446D01*
X001176Y005446D02*
X000982Y005446D01*
X000982Y005156D01*
X000982Y005301D02*
X001079Y005301D01*
X000982Y004501D02*
X001176Y004501D01*
X001277Y004453D02*
X001277Y004259D01*
X001471Y004453D01*
X001471Y004259D01*
X001422Y004211D01*
X001325Y004211D01*
X001277Y004259D01*
X001277Y004453D02*
X001325Y004501D01*
X001422Y004501D01*
X001471Y004453D01*
X001079Y004356D02*
X000982Y004356D01*
X000982Y004211D02*
X000982Y004501D01*
X000982Y003477D02*
X000982Y003187D01*
X001176Y003187D01*
X001277Y003235D02*
X001277Y003332D01*
X001422Y003332D01*
X001471Y003284D01*
X001471Y003235D01*
X001422Y003187D01*
X001325Y003187D01*
X001277Y003235D01*
X001277Y003332D02*
X001374Y003429D01*
X001471Y003477D01*
X001176Y003477D02*
X000982Y003477D01*
X000982Y003332D02*
X001079Y003332D01*
X000982Y002454D02*
X000982Y002164D01*
X001176Y002164D01*
X001277Y002164D02*
X001277Y002212D01*
X001471Y002405D01*
X001471Y002454D01*
X001277Y002454D01*
X001176Y002454D02*
X000982Y002454D01*
X000982Y002309D02*
X001079Y002309D01*
X001031Y001036D02*
X000982Y000988D01*
X000982Y000795D01*
X001031Y000746D01*
X001128Y000746D01*
X001176Y000795D01*
X001176Y000891D01*
X001079Y000891D01*
X001176Y000988D02*
X001128Y001036D01*
X001031Y001036D01*
X001277Y001036D02*
X001277Y000746D01*
X001471Y000746D02*
X001277Y001036D01*
X001471Y001036D02*
X001471Y000746D01*
X001572Y000746D02*
X001572Y001036D01*
X001717Y001036D01*
X001765Y000988D01*
X001765Y000795D01*
X001717Y000746D01*
X001572Y000746D01*
D12*
X013891Y002983D02*
X013927Y002946D01*
X014001Y002946D01*
X014038Y002983D01*
X014038Y003019D01*
X014001Y003056D01*
X013927Y003056D01*
X013891Y003093D01*
X013891Y003129D01*
X013927Y003166D01*
X014001Y003166D01*
X014038Y003129D01*
X014112Y003129D02*
X014112Y002983D01*
X014148Y002946D01*
X014222Y002946D01*
X014259Y002983D01*
X014333Y002946D02*
X014333Y003166D01*
X014259Y003129D02*
X014222Y003166D01*
X014148Y003166D01*
X014112Y003129D01*
X014333Y002946D02*
X014480Y002946D01*
X014554Y002946D02*
X014554Y003166D01*
X014590Y003056D02*
X014701Y002946D01*
X014554Y003019D02*
X014701Y003166D01*
X014706Y003970D02*
X014632Y003970D01*
X014669Y003970D02*
X014669Y004190D01*
X014632Y004190D02*
X014706Y004190D01*
X014558Y004153D02*
X014522Y004190D01*
X014448Y004190D01*
X014412Y004153D01*
X014412Y004116D01*
X014448Y004080D01*
X014522Y004080D01*
X014558Y004043D01*
X014558Y004006D01*
X014522Y003970D01*
X014448Y003970D01*
X014412Y004006D01*
X014337Y004006D02*
X014337Y004153D01*
X014301Y004190D01*
X014227Y004190D01*
X014191Y004153D01*
X014191Y004006D01*
X014227Y003970D01*
X014301Y003970D01*
X014337Y004006D01*
X014116Y003970D02*
X014116Y004190D01*
X014043Y004116D01*
X013970Y004190D01*
X013970Y003970D01*
X013970Y004993D02*
X013970Y005213D01*
X014043Y005140D01*
X014116Y005213D01*
X014116Y004993D01*
X014191Y004993D02*
X014264Y004993D01*
X014227Y004993D02*
X014227Y005213D01*
X014191Y005213D02*
X014264Y005213D01*
X014338Y005177D02*
X014338Y005140D01*
X014375Y005103D01*
X014448Y005103D01*
X014485Y005067D01*
X014485Y005030D01*
X014448Y004993D01*
X014375Y004993D01*
X014338Y005030D01*
X014338Y005177D02*
X014375Y005213D01*
X014448Y005213D01*
X014485Y005177D01*
X014559Y005177D02*
X014559Y005030D01*
X014596Y004993D01*
X014669Y004993D01*
X014706Y005030D01*
X014706Y005177D01*
X014669Y005213D01*
X014596Y005213D01*
X014559Y005177D01*
D13*
X013751Y005060D02*
X013501Y004810D01*
X013751Y004560D01*
X013751Y004060D01*
X013501Y003810D01*
X013001Y003810D01*
X012751Y004060D01*
X012751Y004560D01*
X013001Y004810D01*
X012751Y005060D01*
X012751Y005560D01*
X013001Y005810D01*
X012751Y006060D01*
X012751Y006560D01*
X013001Y006810D01*
X012751Y007060D01*
X012751Y007560D01*
X013001Y007810D01*
X012751Y008060D01*
X012751Y008560D01*
X013001Y008810D01*
X012751Y009060D01*
X012751Y009560D01*
X013001Y009810D01*
X012751Y010060D01*
X012751Y010560D01*
X013001Y010810D01*
X012751Y011060D01*
X012751Y011560D01*
X013001Y011810D01*
X012751Y012060D01*
X012751Y012560D01*
X013001Y012810D01*
X012751Y013060D01*
X012751Y013560D01*
X013001Y013810D01*
X012751Y014060D01*
X012751Y014560D01*
X013001Y014810D01*
X012751Y015060D01*
X012751Y015560D01*
X013001Y015810D01*
X012751Y016060D01*
X012751Y016560D01*
X013001Y016810D01*
X012751Y017060D01*
X012751Y017560D01*
X013001Y017810D01*
X012751Y018060D01*
X012751Y018560D01*
X013001Y018810D01*
X012751Y019060D01*
X012751Y019560D01*
X013001Y019810D01*
X012751Y020060D01*
X012751Y020560D01*
X013001Y020810D01*
X013501Y020810D01*
X013751Y020560D01*
X013751Y020060D01*
X013501Y019810D01*
X013751Y019560D01*
X013751Y019060D01*
X013501Y018810D01*
X013001Y018810D01*
X013501Y018810D02*
X013751Y018560D01*
X013751Y018060D01*
X013501Y017810D01*
X013751Y017560D01*
X013751Y017060D01*
X013501Y016810D01*
X013751Y016560D01*
X013751Y016060D01*
X013501Y015810D01*
X013001Y015810D01*
X013501Y015810D02*
X013751Y015560D01*
X013751Y015060D01*
X013501Y014810D01*
X013751Y014560D01*
X013751Y014060D01*
X013501Y013810D01*
X013751Y013560D01*
X013751Y013060D01*
X013501Y012810D01*
X013001Y012810D01*
X013501Y012810D02*
X013751Y012560D01*
X013751Y012060D01*
X013501Y011810D01*
X013751Y011560D01*
X013751Y011060D01*
X013501Y010810D01*
X013751Y010560D01*
X013751Y010060D01*
X013501Y009810D01*
X013001Y009810D01*
X013501Y009810D02*
X013751Y009560D01*
X013751Y009060D01*
X013501Y008810D01*
X013751Y008560D01*
X013751Y008060D01*
X013501Y007810D01*
X013751Y007560D01*
X013751Y007060D01*
X013501Y006810D01*
X013001Y006810D01*
X013501Y006810D02*
X013751Y006560D01*
X013751Y006060D01*
X013501Y005810D01*
X013751Y005560D01*
X013751Y005060D01*
X013501Y004810D02*
X013001Y004810D01*
X013001Y005810D02*
X013501Y005810D01*
X013501Y007810D02*
X013001Y007810D01*
X013001Y008810D02*
X013501Y008810D01*
X013501Y010810D02*
X013001Y010810D01*
X013001Y011810D02*
X013501Y011810D01*
X013501Y013810D02*
X013001Y013810D01*
X013001Y014810D02*
X013501Y014810D01*
X013501Y016810D02*
X013001Y016810D01*
X013001Y017810D02*
X013501Y017810D01*
X013501Y019810D02*
X013001Y019810D01*
X013424Y022257D02*
X013308Y022374D01*
X013308Y022608D01*
X013424Y022724D01*
X013541Y022724D01*
X014008Y022257D01*
X014008Y022724D01*
X014008Y022957D02*
X013308Y023424D01*
X013424Y023657D02*
X013308Y023774D01*
X013308Y024007D01*
X013424Y024124D01*
X013541Y024124D01*
X014008Y023657D01*
X014008Y024124D01*
X014008Y024357D02*
X013541Y024824D01*
X013424Y024824D01*
X013308Y024707D01*
X013308Y024473D01*
X013424Y024357D01*
X014008Y024357D02*
X014008Y024824D01*
X014008Y025056D02*
X013308Y025523D01*
X013541Y025756D02*
X013308Y025990D01*
X014008Y025990D01*
X014008Y026223D02*
X014008Y025756D01*
X013892Y026456D02*
X014008Y026573D01*
X014008Y026806D01*
X013892Y026923D01*
X013775Y026923D01*
X013658Y026806D01*
X013658Y026690D01*
X013658Y026806D02*
X013541Y026923D01*
X013424Y026923D01*
X013308Y026806D01*
X013308Y026573D01*
X013424Y026456D01*
X012827Y026471D02*
X012827Y026938D01*
X012827Y026704D02*
X012127Y026704D01*
X012360Y026471D01*
X012710Y025538D02*
X012827Y025538D01*
X012827Y025421D01*
X012710Y025421D01*
X012710Y025538D01*
X012360Y025188D02*
X012360Y025071D01*
X012594Y024838D01*
X012594Y024605D02*
X012594Y024138D01*
X012710Y024138D02*
X012477Y024138D01*
X012360Y024255D01*
X012360Y024488D01*
X012477Y024605D01*
X012594Y024605D01*
X012827Y024838D02*
X012360Y024838D01*
X012827Y024488D02*
X012827Y024255D01*
X012710Y024138D01*
X012594Y023905D02*
X012127Y023905D01*
X012127Y023438D02*
X012594Y023438D01*
X012827Y023672D01*
X012594Y023905D01*
X009686Y011013D02*
X009686Y005473D01*
X004316Y005473D01*
X004146Y005643D01*
X004146Y011013D01*
X009686Y011013D01*
X013001Y003810D02*
X012751Y003560D01*
X012751Y003060D01*
X013001Y002810D01*
X012751Y002560D01*
X012751Y002060D01*
X013001Y001810D01*
X012751Y001560D01*
X012751Y001060D01*
X013001Y000810D01*
X013501Y000810D01*
X013751Y001060D01*
X013751Y001560D01*
X013501Y001810D01*
X013001Y001810D01*
X013501Y001810D02*
X013751Y002060D01*
X013751Y002560D01*
X013501Y002810D01*
X013001Y002810D01*
X013501Y002810D02*
X013751Y003060D01*
X013751Y003560D01*
X013501Y003810D01*
X004381Y005928D02*
X004383Y005957D01*
X004389Y005986D01*
X004398Y006014D01*
X004412Y006040D01*
X004428Y006064D01*
X004448Y006086D01*
X004471Y006105D01*
X004495Y006121D01*
X004522Y006133D01*
X004550Y006142D01*
X004579Y006147D01*
X004608Y006148D01*
X004638Y006145D01*
X004666Y006138D01*
X004694Y006128D01*
X004719Y006113D01*
X004743Y006096D01*
X004764Y006076D01*
X004782Y006053D01*
X004797Y006027D01*
X004809Y006000D01*
X004817Y005972D01*
X004821Y005943D01*
X004821Y005913D01*
X004817Y005884D01*
X004809Y005856D01*
X004797Y005829D01*
X004782Y005803D01*
X004764Y005780D01*
X004743Y005760D01*
X004719Y005743D01*
X004694Y005728D01*
X004666Y005718D01*
X004638Y005711D01*
X004608Y005708D01*
X004579Y005709D01*
X004550Y005714D01*
X004522Y005723D01*
X004495Y005735D01*
X004471Y005751D01*
X004448Y005770D01*
X004428Y005792D01*
X004412Y005816D01*
X004398Y005842D01*
X004389Y005870D01*
X004383Y005899D01*
X004381Y005928D01*
X002727Y006060D02*
X002477Y005810D01*
X002727Y005560D01*
X002727Y005060D01*
X002477Y004810D01*
X002727Y004560D01*
X002727Y004060D01*
X002477Y003810D01*
X001977Y003810D01*
X001727Y004060D01*
X001727Y004560D01*
X001977Y004810D01*
X001727Y005060D01*
X001727Y005560D01*
X001977Y005810D01*
X001727Y006060D01*
X001727Y006560D01*
X001977Y006810D01*
X001727Y007060D01*
X001727Y007560D01*
X001977Y007810D01*
X001727Y008060D01*
X001727Y008560D01*
X001977Y008810D01*
X001727Y009060D01*
X001727Y009560D01*
X001977Y009810D01*
X001727Y010060D01*
X001727Y010560D01*
X001977Y010810D01*
X001727Y011060D01*
X001727Y011560D01*
X001977Y011810D01*
X001727Y012060D01*
X001727Y012560D01*
X001977Y012810D01*
X001727Y013060D01*
X001727Y013560D01*
X001977Y013810D01*
X001727Y014060D01*
X001727Y014560D01*
X001977Y014810D01*
X001727Y015060D01*
X001727Y015560D01*
X001977Y015810D01*
X001727Y016060D01*
X001727Y016560D01*
X001977Y016810D01*
X001727Y017060D01*
X001727Y017560D01*
X001977Y017810D01*
X001727Y018060D01*
X001727Y018560D01*
X001977Y018810D01*
X001727Y019060D01*
X001727Y019560D01*
X001977Y019810D01*
X001727Y020060D01*
X001727Y020560D01*
X001977Y020810D01*
X002477Y020810D01*
X002727Y020560D01*
X002727Y020060D01*
X002477Y019810D01*
X002727Y019560D01*
X002727Y019060D01*
X002477Y018810D01*
X001977Y018810D01*
X002477Y018810D02*
X002727Y018560D01*
X002727Y018060D01*
X002477Y017810D01*
X002727Y017560D01*
X002727Y017060D01*
X002477Y016810D01*
X002727Y016560D01*
X002727Y016060D01*
X002477Y015810D01*
X001977Y015810D01*
X002477Y015810D02*
X002727Y015560D01*
X002727Y015060D01*
X002477Y014810D01*
X002727Y014560D01*
X002727Y014060D01*
X002477Y013810D01*
X002727Y013560D01*
X002727Y013060D01*
X002477Y012810D01*
X001977Y012810D01*
X002477Y012810D02*
X002727Y012560D01*
X002727Y012060D01*
X002477Y011810D01*
X002727Y011560D01*
X002727Y011060D01*
X002477Y010810D01*
X002727Y010560D01*
X002727Y010060D01*
X002477Y009810D01*
X001977Y009810D01*
X001977Y008810D02*
X002477Y008810D01*
X002727Y008560D01*
X002727Y008060D01*
X002477Y007810D01*
X002727Y007560D01*
X002727Y007060D01*
X002477Y006810D01*
X001977Y006810D01*
X001977Y005810D02*
X002477Y005810D01*
X002727Y006060D02*
X002727Y006560D01*
X002477Y006810D01*
X002477Y007810D02*
X001977Y007810D01*
X002477Y008810D02*
X002727Y009060D01*
X002727Y009560D01*
X002477Y009810D01*
X002477Y010810D02*
X001977Y010810D01*
X001977Y011810D02*
X002477Y011810D01*
X002477Y013810D02*
X001977Y013810D01*
X001977Y014810D02*
X002477Y014810D01*
X002477Y016810D02*
X001977Y016810D01*
X001977Y017810D02*
X002477Y017810D01*
X002477Y019810D02*
X001977Y019810D01*
X002197Y021864D02*
X001497Y021864D01*
X001497Y022331D02*
X002197Y022331D01*
X001964Y022097D01*
X002197Y021864D01*
X002197Y022563D02*
X002197Y022797D01*
X002197Y022680D02*
X001730Y022680D01*
X001730Y022563D01*
X001847Y023030D02*
X001847Y023263D01*
X002197Y023030D02*
X001497Y023030D01*
X001497Y023497D01*
X001497Y023846D02*
X001380Y023846D01*
X001730Y023846D02*
X002197Y023846D01*
X002197Y023730D02*
X002197Y023963D01*
X001730Y023846D02*
X001730Y023730D01*
X001497Y022680D02*
X001380Y022680D01*
X001613Y024896D02*
X001497Y025013D01*
X001497Y025246D01*
X001613Y025363D01*
X001497Y025596D02*
X001497Y025946D01*
X001613Y026063D01*
X001847Y026063D01*
X001964Y025946D01*
X001964Y025596D01*
X002080Y025363D02*
X002197Y025246D01*
X002197Y025013D01*
X002080Y024896D01*
X001613Y024896D01*
X001497Y025596D02*
X002197Y025596D01*
X002080Y026296D02*
X002197Y026412D01*
X002197Y026646D01*
X002080Y026763D01*
X001497Y026763D01*
X001497Y026296D02*
X002080Y026296D01*
X001977Y004810D02*
X002477Y004810D01*
X002477Y003810D02*
X002727Y003560D01*
X002727Y003060D01*
X002477Y002810D01*
X002727Y002560D01*
X002727Y002060D01*
X002477Y001810D01*
X002727Y001560D01*
X002727Y001060D01*
X002477Y000810D01*
X001977Y000810D01*
X001727Y001060D01*
X001727Y001560D01*
X001977Y001810D01*
X001727Y002060D01*
X001727Y002560D01*
X001977Y002810D01*
X001727Y003060D01*
X001727Y003560D01*
X001977Y003810D01*
X001977Y002810D02*
X002477Y002810D01*
X002477Y001810D02*
X001977Y001810D01*
D14*
X000652Y000574D02*
X000652Y027345D01*
X014826Y027345D01*
X014826Y000574D01*
X000652Y000574D01*
X003200Y012586D02*
X003593Y012586D01*
X003200Y012586D02*
X003200Y012979D01*
X003200Y023609D02*
X003200Y024003D01*
X003593Y024003D01*
X011074Y024003D02*
X011467Y024003D01*
X011467Y023609D01*
X011467Y012979D02*
X011467Y012586D01*
X011074Y012586D01*
D15*
X011121Y011791D02*
X011352Y011791D01*
X011428Y011714D01*
X011428Y011561D01*
X011352Y011484D01*
X011121Y011484D01*
X011121Y011330D02*
X011121Y011791D01*
X011275Y011484D02*
X011428Y011330D01*
X011582Y011330D02*
X011889Y011637D01*
X011889Y011714D01*
X011812Y011791D01*
X011658Y011791D01*
X011582Y011714D01*
X011582Y011330D02*
X011889Y011330D01*
X012253Y010271D02*
X012330Y010271D01*
X012407Y010194D01*
X012483Y010271D01*
X012560Y010271D01*
X012637Y010194D01*
X012637Y010041D01*
X012560Y009964D01*
X012560Y009810D02*
X012637Y009734D01*
X012637Y009580D01*
X012560Y009504D01*
X012253Y009504D01*
X012176Y009580D01*
X012176Y009734D01*
X012253Y009810D01*
X012253Y009964D02*
X012176Y010041D01*
X012176Y010194D01*
X012253Y010271D01*
X012407Y010194D02*
X012407Y010117D01*
X012354Y013621D02*
X012354Y014081D01*
X012200Y013928D01*
X012047Y014005D02*
X012047Y013851D01*
X011970Y013774D01*
X011740Y013774D01*
X011740Y013621D02*
X011740Y014081D01*
X011970Y014081D01*
X012047Y014005D01*
X011893Y013774D02*
X012047Y013621D01*
X012200Y013621D02*
X012507Y013621D01*
X011139Y006215D02*
X010909Y005985D01*
X011216Y005985D01*
X011334Y005946D02*
X011334Y005639D01*
X011411Y005563D01*
X011564Y005563D01*
X011641Y005639D01*
X011794Y005639D02*
X011871Y005563D01*
X012025Y005563D01*
X012101Y005639D01*
X012101Y005793D01*
X012025Y005870D01*
X011948Y005870D01*
X011794Y005793D01*
X011794Y006023D01*
X012101Y006023D01*
X011641Y005946D02*
X011564Y006023D01*
X011411Y006023D01*
X011334Y005946D01*
X011139Y005755D02*
X011139Y006215D01*
X010755Y006138D02*
X010679Y006215D01*
X010525Y006215D01*
X010448Y006138D01*
X010448Y005831D01*
X010525Y005755D01*
X010679Y005755D01*
X010755Y005831D01*
X011555Y003203D02*
X011785Y003203D01*
X011862Y003127D01*
X011862Y002973D01*
X011785Y002896D01*
X011555Y002896D01*
X011555Y002743D02*
X011555Y003203D01*
X011708Y002896D02*
X011862Y002743D01*
X012015Y002973D02*
X012322Y002973D01*
X012245Y002743D02*
X012245Y003203D01*
X012015Y002973D01*
X009126Y002337D02*
X009126Y002030D01*
X009126Y001877D02*
X008972Y001723D01*
X009126Y001570D01*
X008665Y001570D01*
X008742Y001416D02*
X008665Y001340D01*
X008665Y001186D01*
X008742Y001109D01*
X008819Y001109D01*
X008895Y001186D01*
X008895Y001340D01*
X008972Y001416D01*
X009049Y001416D01*
X009126Y001340D01*
X009126Y001186D01*
X009049Y001109D01*
X009126Y001877D02*
X008665Y001877D01*
X008819Y002030D02*
X008665Y002184D01*
X009126Y002184D01*
X007709Y002223D02*
X007249Y002223D01*
X007402Y002070D01*
X007326Y001916D02*
X007249Y001839D01*
X007249Y001609D01*
X007709Y001609D01*
X007709Y001839D01*
X007632Y001916D01*
X007326Y001916D01*
X007249Y001456D02*
X007709Y001456D01*
X007709Y001149D02*
X007249Y001149D01*
X007479Y001149D02*
X007479Y001456D01*
X007709Y002070D02*
X007709Y002377D01*
X006324Y004318D02*
X006171Y004318D01*
X006094Y004394D01*
X005940Y004318D02*
X005787Y004471D01*
X005864Y004471D02*
X005633Y004471D01*
X005633Y004318D02*
X005633Y004778D01*
X005864Y004778D01*
X005940Y004701D01*
X005940Y004548D01*
X005864Y004471D01*
X006094Y004701D02*
X006171Y004778D01*
X006324Y004778D01*
X006401Y004701D01*
X006401Y004625D01*
X006324Y004548D01*
X006401Y004471D01*
X006401Y004394D01*
X006324Y004318D01*
X006324Y004548D02*
X006247Y004548D01*
X003676Y004957D02*
X003369Y004650D01*
X003369Y004574D01*
X003216Y004650D02*
X003139Y004574D01*
X002986Y004574D01*
X002909Y004650D01*
X002909Y004957D01*
X002986Y005034D01*
X003139Y005034D01*
X003216Y004957D01*
X003369Y005034D02*
X003676Y005034D01*
X003676Y004957D01*
X003347Y007023D02*
X003041Y007023D01*
X002964Y007100D01*
X002964Y007253D01*
X003041Y007330D01*
X003194Y007484D02*
X003041Y007637D01*
X002964Y007791D01*
X003194Y007714D02*
X003194Y007484D01*
X003347Y007484D01*
X003424Y007560D01*
X003424Y007714D01*
X003347Y007791D01*
X003271Y007791D01*
X003194Y007714D01*
X003347Y007330D02*
X003424Y007253D01*
X003424Y007100D01*
X003347Y007023D01*
X003461Y009995D02*
X003154Y009995D01*
X003077Y010072D01*
X003077Y010226D01*
X003154Y010302D01*
X003154Y010456D02*
X003077Y010532D01*
X003077Y010686D01*
X003154Y010763D01*
X003231Y010763D01*
X003538Y010456D01*
X003538Y010763D01*
X003461Y010302D02*
X003538Y010226D01*
X003538Y010072D01*
X003461Y009995D01*
X007181Y011816D02*
X007257Y011739D01*
X007411Y011739D01*
X007488Y011816D01*
X007641Y011739D02*
X007948Y011739D01*
X007795Y011739D02*
X007795Y012199D01*
X007641Y012046D01*
X007488Y012123D02*
X007411Y012199D01*
X007257Y012199D01*
X007181Y012123D01*
X007181Y011816D01*
X005581Y022208D02*
X005274Y022208D01*
X005428Y022208D02*
X005428Y022668D01*
X005274Y022515D01*
X005121Y022592D02*
X005044Y022668D01*
X004891Y022668D01*
X004814Y022592D01*
X004814Y022515D01*
X004891Y022438D01*
X005044Y022438D01*
X005121Y022361D01*
X005121Y022285D01*
X005044Y022208D01*
X004891Y022208D01*
X004814Y022285D01*
X004660Y022285D02*
X004660Y022668D01*
X004660Y022285D02*
X004584Y022208D01*
X004430Y022208D01*
X004354Y022285D01*
X004354Y022668D01*
X004967Y022745D02*
X004967Y022131D01*
D16*
X011200Y010690D03*
X011200Y010395D03*
X003562Y003836D03*
X003562Y003540D03*
D17*
X003562Y003688D03*
X011200Y010542D03*
M02*
