G75*
G70*
%OFA0B0*%
%FSLAX24Y24*%
%IPPOS*%
%LPD*%
%AMOC8*
5,1,8,0,0,1.08239X$1,22.5*
%
%ADD10R,0.1024X0.0256*%
%ADD11R,0.0394X0.0433*%
%ADD12C,0.0600*%
%ADD13C,0.0120*%
%ADD14C,0.0050*%
D10*
X003536Y001674D03*
X003536Y002174D03*
X003536Y002674D03*
X003536Y003174D03*
X006528Y003174D03*
X006528Y002674D03*
X006528Y002174D03*
X006528Y001674D03*
D11*
X005387Y003950D03*
X004678Y003950D03*
D12*
X002332Y003926D02*
X001732Y003926D01*
X001732Y002926D02*
X002332Y002926D01*
X002332Y001926D02*
X001732Y001926D01*
X001732Y000926D02*
X002332Y000926D01*
X007732Y000926D02*
X008332Y000926D01*
X008332Y001926D02*
X007732Y001926D01*
X007732Y002926D02*
X008332Y002926D01*
X008332Y003926D02*
X007732Y003926D01*
D13*
X007780Y003922D02*
X008028Y003922D01*
X008032Y003926D01*
X007780Y003922D02*
X007032Y003174D01*
X006528Y003174D01*
X005930Y003174D01*
X005339Y003765D01*
X005339Y003902D01*
X005387Y003950D01*
X004709Y003918D02*
X004709Y003765D01*
X004119Y003174D01*
X003536Y003174D01*
X003017Y003174D01*
X002269Y003922D01*
X002036Y003922D01*
X002032Y003926D01*
X002032Y002926D02*
X002284Y002674D01*
X003536Y002674D01*
X003536Y002174D02*
X002280Y002174D01*
X002032Y001926D01*
X003013Y001674D02*
X002269Y000930D01*
X002036Y000930D01*
X002032Y000926D01*
X003013Y001674D02*
X003536Y001674D01*
X006528Y001674D02*
X007036Y001674D01*
X007780Y000930D01*
X008028Y000930D01*
X008032Y000926D01*
X008032Y001926D02*
X007784Y002174D01*
X006528Y002174D01*
X006528Y002674D02*
X007780Y002674D01*
X008032Y002926D01*
X004709Y003918D02*
X004678Y003950D01*
D14*
X000486Y004287D02*
X000486Y000408D01*
X009641Y000408D01*
X009641Y004287D01*
X008601Y004287D01*
X008710Y004178D01*
X008777Y004015D01*
X008777Y003837D01*
X008710Y003674D01*
X008584Y003549D01*
X008421Y003481D01*
X007644Y003481D01*
X007633Y003485D01*
X007185Y003037D01*
X007185Y002986D01*
X007123Y002924D01*
X007168Y002879D01*
X007287Y002879D01*
X007287Y003015D01*
X007355Y003178D01*
X007480Y003303D01*
X007644Y003371D01*
X008421Y003371D01*
X008584Y003303D01*
X008710Y003178D01*
X008777Y003015D01*
X008777Y002837D01*
X008710Y002674D01*
X008584Y002549D01*
X008421Y002481D01*
X007877Y002481D01*
X007865Y002469D01*
X007168Y002469D01*
X007123Y002424D01*
X007168Y002379D01*
X007869Y002379D01*
X007877Y002371D01*
X008421Y002371D01*
X008584Y002303D01*
X008710Y002178D01*
X008777Y002015D01*
X008777Y001837D01*
X008710Y001674D01*
X008584Y001549D01*
X008421Y001481D01*
X007644Y001481D01*
X007480Y001549D01*
X007451Y001549D01*
X007480Y001549D02*
X007355Y001674D01*
X007287Y001837D01*
X007287Y001969D01*
X007168Y001969D01*
X007123Y001924D01*
X007185Y001862D01*
X007185Y001815D01*
X007633Y001367D01*
X007644Y001371D01*
X008421Y001371D01*
X008584Y001303D01*
X008710Y001178D01*
X008777Y001015D01*
X008777Y001016D02*
X009641Y001016D01*
X009641Y001064D02*
X008757Y001064D01*
X008737Y001113D02*
X009641Y001113D01*
X009641Y001161D02*
X008717Y001161D01*
X008678Y001210D02*
X009641Y001210D01*
X009641Y001258D02*
X008630Y001258D01*
X008576Y001307D02*
X009641Y001307D01*
X009641Y001355D02*
X008459Y001355D01*
X008468Y001501D02*
X009641Y001501D01*
X009641Y001452D02*
X007548Y001452D01*
X007500Y001501D02*
X007597Y001501D01*
X007597Y001404D02*
X009641Y001404D01*
X009641Y001549D02*
X008585Y001549D01*
X008633Y001598D02*
X009641Y001598D01*
X009641Y001646D02*
X008682Y001646D01*
X008718Y001695D02*
X009641Y001695D01*
X009641Y001743D02*
X008738Y001743D01*
X008758Y001792D02*
X009641Y001792D01*
X009641Y001840D02*
X008777Y001840D01*
X008777Y001889D02*
X009641Y001889D01*
X009641Y001937D02*
X008777Y001937D01*
X008777Y001986D02*
X009641Y001986D01*
X009641Y002034D02*
X008769Y002034D01*
X008749Y002083D02*
X009641Y002083D01*
X009641Y002131D02*
X008729Y002131D01*
X008708Y002180D02*
X009641Y002180D01*
X009641Y002228D02*
X008660Y002228D01*
X008611Y002277D02*
X009641Y002277D01*
X009641Y002325D02*
X008532Y002325D01*
X008513Y002519D02*
X009641Y002519D01*
X009641Y002471D02*
X007867Y002471D01*
X007875Y002374D02*
X009641Y002374D01*
X009641Y002422D02*
X007125Y002422D01*
X007136Y001937D02*
X007287Y001937D01*
X007287Y001889D02*
X007159Y001889D01*
X007185Y001840D02*
X007287Y001840D01*
X007306Y001792D02*
X007209Y001792D01*
X007257Y001743D02*
X007326Y001743D01*
X007306Y001695D02*
X007346Y001695D01*
X007354Y001646D02*
X007383Y001646D01*
X007403Y001598D02*
X007431Y001598D01*
X007019Y001401D02*
X007322Y001098D01*
X007287Y001015D01*
X007287Y000837D01*
X007355Y000674D01*
X007480Y000549D01*
X007644Y000481D01*
X008421Y000481D01*
X008584Y000549D01*
X008710Y000674D01*
X008777Y000837D01*
X008777Y001015D01*
X008777Y000967D02*
X009641Y000967D01*
X009641Y000919D02*
X008777Y000919D01*
X008777Y000870D02*
X009641Y000870D01*
X009641Y000822D02*
X008771Y000822D01*
X008751Y000773D02*
X009641Y000773D01*
X009641Y000725D02*
X008730Y000725D01*
X008710Y000676D02*
X009641Y000676D01*
X009641Y000628D02*
X008663Y000628D01*
X008615Y000579D02*
X009641Y000579D01*
X009641Y000531D02*
X008540Y000531D01*
X008423Y000482D02*
X009641Y000482D01*
X009641Y000434D02*
X000486Y000434D01*
X000486Y000482D02*
X007641Y000482D01*
X007524Y000531D02*
X002491Y000531D01*
X002495Y000532D02*
X002555Y000562D01*
X002609Y000602D01*
X002656Y000649D01*
X002696Y000703D01*
X002726Y000763D01*
X002747Y000826D01*
X002757Y000893D01*
X002757Y000901D01*
X002057Y000901D01*
X002057Y000501D01*
X002366Y000501D01*
X002432Y000511D01*
X002495Y000532D01*
X002578Y000579D02*
X007450Y000579D01*
X007401Y000628D02*
X002635Y000628D01*
X002676Y000676D02*
X007354Y000676D01*
X007334Y000725D02*
X002707Y000725D01*
X002729Y000773D02*
X007314Y000773D01*
X007294Y000822D02*
X002745Y000822D01*
X002754Y000870D02*
X007287Y000870D01*
X007287Y000919D02*
X002057Y000919D01*
X002057Y000901D02*
X002057Y000951D01*
X002007Y000951D01*
X002007Y000901D01*
X001307Y000901D01*
X001307Y000893D01*
X001318Y000826D01*
X001338Y000763D01*
X001369Y000703D01*
X001408Y000649D01*
X001455Y000602D01*
X001510Y000562D01*
X001569Y000532D01*
X001633Y000511D01*
X001699Y000501D01*
X002007Y000501D01*
X002007Y000901D01*
X002057Y000901D01*
X002057Y000870D02*
X002007Y000870D01*
X002007Y000822D02*
X002057Y000822D01*
X002057Y000773D02*
X002007Y000773D01*
X002007Y000725D02*
X002057Y000725D01*
X002057Y000676D02*
X002007Y000676D01*
X002007Y000628D02*
X002057Y000628D01*
X002057Y000579D02*
X002007Y000579D01*
X002007Y000531D02*
X002057Y000531D01*
X001574Y000531D02*
X000486Y000531D01*
X000486Y000579D02*
X001487Y000579D01*
X001430Y000628D02*
X000486Y000628D01*
X000486Y000676D02*
X001389Y000676D01*
X001358Y000725D02*
X000486Y000725D01*
X000486Y000773D02*
X001335Y000773D01*
X001319Y000822D02*
X000486Y000822D01*
X000486Y000870D02*
X001311Y000870D01*
X001307Y000951D02*
X002007Y000951D01*
X002007Y001351D01*
X001699Y001351D01*
X001633Y001341D01*
X001569Y001320D01*
X001510Y001289D01*
X001455Y001250D01*
X001408Y001203D01*
X001369Y001149D01*
X001338Y001089D01*
X001318Y001026D01*
X001307Y000959D01*
X001307Y000951D01*
X001308Y000967D02*
X000486Y000967D01*
X000486Y000919D02*
X002007Y000919D01*
X002007Y000967D02*
X002057Y000967D01*
X002057Y000951D02*
X002057Y001351D01*
X002366Y001351D01*
X002432Y001341D01*
X002495Y001320D01*
X002555Y001289D01*
X002609Y001250D01*
X002656Y001203D01*
X002696Y001149D01*
X002726Y001089D01*
X002747Y001026D01*
X002757Y000959D01*
X002757Y000951D01*
X002057Y000951D01*
X002057Y001016D02*
X002007Y001016D01*
X002007Y001064D02*
X002057Y001064D01*
X002057Y001113D02*
X002007Y001113D01*
X002007Y001161D02*
X002057Y001161D01*
X002057Y001210D02*
X002007Y001210D01*
X002007Y001258D02*
X002057Y001258D01*
X002057Y001307D02*
X002007Y001307D01*
X001644Y001481D02*
X002421Y001481D01*
X002584Y001549D01*
X002710Y001674D01*
X002777Y001837D01*
X002777Y001969D01*
X002896Y001969D01*
X002958Y001908D01*
X002948Y001902D01*
X002924Y001879D01*
X002908Y001850D01*
X002899Y001818D01*
X002899Y001699D01*
X003511Y001699D01*
X003511Y001649D01*
X002899Y001649D01*
X002899Y001530D01*
X002908Y001498D01*
X002924Y001469D01*
X002948Y001446D01*
X002976Y001430D01*
X003008Y001421D01*
X003511Y001421D01*
X003511Y001649D01*
X003561Y001649D01*
X003561Y001421D01*
X004064Y001421D01*
X004096Y001430D01*
X004125Y001446D01*
X004148Y001469D01*
X004165Y001498D01*
X004173Y001530D01*
X004173Y001649D01*
X003561Y001649D01*
X003561Y001699D01*
X004173Y001699D01*
X004173Y001818D01*
X004165Y001850D01*
X004148Y001879D01*
X004125Y001902D01*
X004115Y001908D01*
X004193Y001986D01*
X004193Y002362D01*
X004131Y002424D01*
X004193Y002486D01*
X004193Y002862D01*
X004131Y002924D01*
X004176Y002969D01*
X004204Y002969D01*
X004794Y003560D01*
X004823Y003588D01*
X004935Y003588D01*
X005020Y003673D01*
X005020Y004226D01*
X004959Y004287D01*
X005106Y004287D01*
X005045Y004226D01*
X005045Y003673D01*
X005130Y003588D01*
X005226Y003588D01*
X005254Y003560D01*
X005845Y002969D01*
X005889Y002969D01*
X005934Y002924D01*
X005872Y002862D01*
X005872Y002486D01*
X005934Y002424D01*
X005872Y002362D01*
X005872Y001986D01*
X005934Y001924D01*
X005872Y001862D01*
X005872Y001486D01*
X005956Y001401D01*
X007019Y001401D01*
X007065Y001355D02*
X000486Y001355D01*
X000486Y001307D02*
X001543Y001307D01*
X001466Y001258D02*
X000486Y001258D01*
X000486Y001210D02*
X001415Y001210D01*
X001378Y001161D02*
X000486Y001161D01*
X000486Y001113D02*
X001350Y001113D01*
X001330Y001064D02*
X000486Y001064D01*
X000486Y001016D02*
X001316Y001016D01*
X000486Y001404D02*
X005954Y001404D01*
X005906Y001452D02*
X004131Y001452D01*
X004165Y001501D02*
X005872Y001501D01*
X005872Y001549D02*
X004173Y001549D01*
X004173Y001598D02*
X005872Y001598D01*
X005872Y001646D02*
X004173Y001646D01*
X004173Y001743D02*
X005872Y001743D01*
X005872Y001695D02*
X003561Y001695D01*
X003561Y001646D02*
X003511Y001646D01*
X003511Y001598D02*
X003561Y001598D01*
X003561Y001549D02*
X003511Y001549D01*
X003511Y001501D02*
X003561Y001501D01*
X003561Y001452D02*
X003511Y001452D01*
X002942Y001452D02*
X000486Y001452D01*
X000486Y001501D02*
X001597Y001501D01*
X001644Y001481D02*
X001480Y001549D01*
X000486Y001549D01*
X000486Y001598D02*
X001431Y001598D01*
X001383Y001646D02*
X000486Y001646D01*
X000486Y001695D02*
X001346Y001695D01*
X001355Y001674D02*
X001480Y001549D01*
X001355Y001674D02*
X001287Y001837D01*
X001287Y002015D01*
X001355Y002178D01*
X001480Y002303D01*
X001644Y002371D01*
X002187Y002371D01*
X002195Y002379D01*
X002896Y002379D01*
X002941Y002424D01*
X002896Y002469D01*
X002199Y002469D01*
X002187Y002481D01*
X001644Y002481D01*
X001480Y002549D01*
X001355Y002674D01*
X001287Y002837D01*
X001287Y003015D01*
X001355Y003178D01*
X001480Y003303D01*
X001644Y003371D01*
X002421Y003371D01*
X002584Y003303D01*
X002710Y003178D01*
X002777Y003015D01*
X002777Y002879D01*
X002896Y002879D01*
X002941Y002924D01*
X002879Y002986D01*
X002879Y003021D01*
X002420Y003481D01*
X001644Y003481D01*
X001480Y003549D01*
X001355Y003674D01*
X001287Y003837D01*
X001287Y004015D01*
X001355Y004178D01*
X001464Y004287D01*
X000486Y004287D01*
X000486Y004265D02*
X001442Y004265D01*
X001394Y004217D02*
X000486Y004217D01*
X000486Y004168D02*
X001351Y004168D01*
X001331Y004120D02*
X000486Y004120D01*
X000486Y004071D02*
X001311Y004071D01*
X001291Y004023D02*
X000486Y004023D01*
X000486Y003974D02*
X001287Y003974D01*
X001287Y003926D02*
X000486Y003926D01*
X000486Y003877D02*
X001287Y003877D01*
X001291Y003829D02*
X000486Y003829D01*
X000486Y003780D02*
X001311Y003780D01*
X001331Y003732D02*
X000486Y003732D01*
X000486Y003683D02*
X001351Y003683D01*
X001394Y003635D02*
X000486Y003635D01*
X000486Y003586D02*
X001443Y003586D01*
X001507Y003538D02*
X000486Y003538D01*
X000486Y003489D02*
X001624Y003489D01*
X001578Y003344D02*
X000486Y003344D01*
X000486Y003392D02*
X002509Y003392D01*
X002487Y003344D02*
X002557Y003344D01*
X002593Y003295D02*
X002606Y003295D01*
X002641Y003247D02*
X002654Y003247D01*
X002690Y003198D02*
X002703Y003198D01*
X002721Y003150D02*
X002751Y003150D01*
X002741Y003101D02*
X002800Y003101D01*
X002762Y003053D02*
X002848Y003053D01*
X002879Y003004D02*
X002777Y003004D01*
X002777Y002956D02*
X002910Y002956D01*
X002924Y002907D02*
X002777Y002907D01*
X002198Y002471D02*
X000486Y002471D01*
X000486Y002519D02*
X001552Y002519D01*
X001461Y002568D02*
X000486Y002568D01*
X000486Y002616D02*
X001413Y002616D01*
X001364Y002665D02*
X000486Y002665D01*
X000486Y002713D02*
X001339Y002713D01*
X001319Y002762D02*
X000486Y002762D01*
X000486Y002810D02*
X001299Y002810D01*
X001287Y002859D02*
X000486Y002859D01*
X000486Y002907D02*
X001287Y002907D01*
X001287Y002956D02*
X000486Y002956D01*
X000486Y003004D02*
X001287Y003004D01*
X001303Y003053D02*
X000486Y003053D01*
X000486Y003101D02*
X001323Y003101D01*
X001343Y003150D02*
X000486Y003150D01*
X000486Y003198D02*
X001375Y003198D01*
X001424Y003247D02*
X000486Y003247D01*
X000486Y003295D02*
X001472Y003295D01*
X000486Y003441D02*
X002460Y003441D01*
X004163Y002956D02*
X005902Y002956D01*
X005810Y003004D02*
X004239Y003004D01*
X004287Y003053D02*
X005761Y003053D01*
X005713Y003101D02*
X004336Y003101D01*
X004384Y003150D02*
X005664Y003150D01*
X005616Y003198D02*
X004433Y003198D01*
X004481Y003247D02*
X005567Y003247D01*
X005519Y003295D02*
X004530Y003295D01*
X004578Y003344D02*
X005470Y003344D01*
X005422Y003392D02*
X004627Y003392D01*
X004675Y003441D02*
X005373Y003441D01*
X005325Y003489D02*
X004724Y003489D01*
X004772Y003538D02*
X005276Y003538D01*
X005228Y003586D02*
X004821Y003586D01*
X004981Y003635D02*
X005083Y003635D01*
X005045Y003683D02*
X005020Y003683D01*
X005020Y003732D02*
X005045Y003732D01*
X005045Y003780D02*
X005020Y003780D01*
X005020Y003829D02*
X005045Y003829D01*
X005045Y003877D02*
X005020Y003877D01*
X005020Y003926D02*
X005045Y003926D01*
X005045Y003974D02*
X005020Y003974D01*
X005020Y004023D02*
X005045Y004023D01*
X005045Y004071D02*
X005020Y004071D01*
X005020Y004120D02*
X005045Y004120D01*
X005045Y004168D02*
X005020Y004168D01*
X005020Y004217D02*
X005045Y004217D01*
X005084Y004265D02*
X004981Y004265D01*
X007298Y003150D02*
X007343Y003150D01*
X007346Y003198D02*
X007375Y003198D01*
X007395Y003247D02*
X007424Y003247D01*
X007443Y003295D02*
X007472Y003295D01*
X007492Y003344D02*
X007578Y003344D01*
X007540Y003392D02*
X009641Y003392D01*
X009641Y003344D02*
X008487Y003344D01*
X008593Y003295D02*
X009641Y003295D01*
X009641Y003247D02*
X008641Y003247D01*
X008690Y003198D02*
X009641Y003198D01*
X009641Y003150D02*
X008721Y003150D01*
X008741Y003101D02*
X009641Y003101D01*
X009641Y003053D02*
X008762Y003053D01*
X008777Y003004D02*
X009641Y003004D01*
X009641Y002956D02*
X008777Y002956D01*
X008777Y002907D02*
X009641Y002907D01*
X009641Y002859D02*
X008777Y002859D01*
X008766Y002810D02*
X009641Y002810D01*
X009641Y002762D02*
X008746Y002762D01*
X008726Y002713D02*
X009641Y002713D01*
X009641Y002665D02*
X008700Y002665D01*
X008652Y002616D02*
X009641Y002616D01*
X009641Y002568D02*
X008603Y002568D01*
X007287Y002907D02*
X007140Y002907D01*
X007155Y002956D02*
X007287Y002956D01*
X007287Y003004D02*
X007185Y003004D01*
X007201Y003053D02*
X007303Y003053D01*
X007323Y003101D02*
X007249Y003101D01*
X007589Y003441D02*
X009641Y003441D01*
X009641Y003489D02*
X008440Y003489D01*
X008557Y003538D02*
X009641Y003538D01*
X009641Y003586D02*
X008622Y003586D01*
X008670Y003635D02*
X009641Y003635D01*
X009641Y003683D02*
X008713Y003683D01*
X008733Y003732D02*
X009641Y003732D01*
X009641Y003780D02*
X008753Y003780D01*
X008774Y003829D02*
X009641Y003829D01*
X009641Y003877D02*
X008777Y003877D01*
X008777Y003926D02*
X009641Y003926D01*
X009641Y003974D02*
X008777Y003974D01*
X008774Y004023D02*
X009641Y004023D01*
X009641Y004071D02*
X008754Y004071D01*
X008734Y004120D02*
X009641Y004120D01*
X009641Y004168D02*
X008714Y004168D01*
X008671Y004217D02*
X009641Y004217D01*
X009641Y004265D02*
X008623Y004265D01*
X005917Y002907D02*
X004148Y002907D01*
X004193Y002859D02*
X005872Y002859D01*
X005872Y002810D02*
X004193Y002810D01*
X004193Y002762D02*
X005872Y002762D01*
X005872Y002713D02*
X004193Y002713D01*
X004193Y002665D02*
X005872Y002665D01*
X005872Y002616D02*
X004193Y002616D01*
X004193Y002568D02*
X005872Y002568D01*
X005872Y002519D02*
X004193Y002519D01*
X004178Y002471D02*
X005887Y002471D01*
X005932Y002422D02*
X004133Y002422D01*
X004182Y002374D02*
X005883Y002374D01*
X005872Y002325D02*
X004193Y002325D01*
X004193Y002277D02*
X005872Y002277D01*
X005872Y002228D02*
X004193Y002228D01*
X004193Y002180D02*
X005872Y002180D01*
X005872Y002131D02*
X004193Y002131D01*
X004193Y002083D02*
X005872Y002083D01*
X005872Y002034D02*
X004193Y002034D01*
X004193Y001986D02*
X005872Y001986D01*
X005921Y001937D02*
X004144Y001937D01*
X004138Y001889D02*
X005898Y001889D01*
X005872Y001840D02*
X004167Y001840D01*
X004173Y001792D02*
X005872Y001792D01*
X007114Y001307D02*
X002522Y001307D01*
X002598Y001258D02*
X007162Y001258D01*
X007211Y001210D02*
X002650Y001210D01*
X002687Y001161D02*
X007259Y001161D01*
X007308Y001113D02*
X002714Y001113D01*
X002734Y001064D02*
X007308Y001064D01*
X007288Y001016D02*
X002748Y001016D01*
X002756Y000967D02*
X007287Y000967D01*
X003511Y001695D02*
X002718Y001695D01*
X002738Y001743D02*
X002899Y001743D01*
X002899Y001792D02*
X002758Y001792D01*
X002777Y001840D02*
X002905Y001840D01*
X002934Y001889D02*
X002777Y001889D01*
X002777Y001937D02*
X002928Y001937D01*
X002899Y001646D02*
X002682Y001646D01*
X002633Y001598D02*
X002899Y001598D01*
X002899Y001549D02*
X002585Y001549D01*
X002468Y001501D02*
X002907Y001501D01*
X001326Y001743D02*
X000486Y001743D01*
X000486Y001792D02*
X001306Y001792D01*
X001287Y001840D02*
X000486Y001840D01*
X000486Y001889D02*
X001287Y001889D01*
X001287Y001937D02*
X000486Y001937D01*
X000486Y001986D02*
X001287Y001986D01*
X001295Y002034D02*
X000486Y002034D01*
X000486Y002083D02*
X001315Y002083D01*
X001336Y002131D02*
X000486Y002131D01*
X000486Y002180D02*
X001357Y002180D01*
X001405Y002228D02*
X000486Y002228D01*
X000486Y002277D02*
X001454Y002277D01*
X001533Y002325D02*
X000486Y002325D01*
X000486Y002374D02*
X002190Y002374D01*
X002939Y002422D02*
X000486Y002422D01*
M02*
