G75*
G70*
%OFA0B0*%
%FSLAX24Y24*%
%IPPOS*%
%LPD*%
%AMOC8*
5,1,8,0,0,1.08239X$1,22.5*
%
%ADD10C,0.0600*%
%ADD11C,0.0050*%
D10*
X001732Y000926D02*
X002332Y000926D01*
X002332Y001926D02*
X001732Y001926D01*
X001732Y002926D02*
X002332Y002926D01*
X002332Y003926D02*
X001732Y003926D01*
X007732Y003926D02*
X008332Y003926D01*
X008332Y002926D02*
X007732Y002926D01*
X007732Y001926D02*
X008332Y001926D01*
X008332Y000926D02*
X007732Y000926D01*
D11*
X000486Y000408D02*
X000486Y004287D01*
X001493Y004287D01*
X001492Y004286D01*
X001372Y004167D01*
X001307Y004011D01*
X001307Y003841D01*
X001372Y003685D01*
X001492Y003566D01*
X001648Y003501D01*
X002417Y003501D01*
X002573Y003566D01*
X002693Y003685D01*
X002757Y003841D01*
X002757Y004011D01*
X002693Y004167D01*
X002573Y004286D01*
X002571Y004287D01*
X007493Y004287D01*
X007492Y004286D01*
X007372Y004167D01*
X007307Y004011D01*
X007307Y003841D01*
X007372Y003685D01*
X007492Y003566D01*
X007648Y003501D01*
X008417Y003501D01*
X008573Y003566D01*
X008693Y003685D01*
X008757Y003841D01*
X008757Y004011D01*
X008693Y004167D01*
X008573Y004286D01*
X008571Y004287D01*
X009641Y004287D01*
X009641Y000408D01*
X000486Y000408D01*
X000486Y000434D02*
X009641Y000434D01*
X009641Y000482D02*
X000486Y000482D01*
X000486Y000531D02*
X001574Y000531D01*
X001569Y000532D02*
X001633Y000511D01*
X001699Y000501D01*
X002007Y000501D01*
X002007Y000901D01*
X001307Y000901D01*
X001307Y000893D01*
X001318Y000826D01*
X001338Y000763D01*
X001369Y000703D01*
X001408Y000649D01*
X001455Y000602D01*
X001510Y000562D01*
X001569Y000532D01*
X001487Y000579D02*
X000486Y000579D01*
X000486Y000628D02*
X001430Y000628D01*
X001389Y000676D02*
X000486Y000676D01*
X000486Y000725D02*
X001358Y000725D01*
X001335Y000773D02*
X000486Y000773D01*
X000486Y000822D02*
X001319Y000822D01*
X001311Y000870D02*
X000486Y000870D01*
X000486Y000919D02*
X002007Y000919D01*
X002007Y000901D02*
X002007Y000951D01*
X001307Y000951D01*
X001307Y000959D01*
X001318Y001026D01*
X001338Y001089D01*
X001369Y001149D01*
X001408Y001203D01*
X001455Y001250D01*
X001510Y001289D01*
X001569Y001320D01*
X001633Y001341D01*
X001699Y001351D01*
X002007Y001351D01*
X002007Y000951D01*
X002057Y000951D01*
X002057Y001351D01*
X002366Y001351D01*
X002432Y001341D01*
X002495Y001320D01*
X002555Y001289D01*
X002609Y001250D01*
X002656Y001203D01*
X002696Y001149D01*
X002726Y001089D01*
X002747Y001026D01*
X002757Y000959D01*
X002757Y000951D01*
X002057Y000951D01*
X002057Y000901D01*
X002057Y000501D01*
X002366Y000501D01*
X002432Y000511D01*
X002495Y000532D01*
X002555Y000562D01*
X002609Y000602D01*
X002656Y000649D01*
X002696Y000703D01*
X002726Y000763D01*
X002747Y000826D01*
X002757Y000893D01*
X002757Y000901D01*
X002057Y000901D01*
X002007Y000901D01*
X002007Y000870D02*
X002057Y000870D01*
X002057Y000822D02*
X002007Y000822D01*
X002007Y000773D02*
X002057Y000773D01*
X002057Y000725D02*
X002007Y000725D01*
X002007Y000676D02*
X002057Y000676D01*
X002057Y000628D02*
X002007Y000628D01*
X002007Y000579D02*
X002057Y000579D01*
X002057Y000531D02*
X002007Y000531D01*
X002491Y000531D02*
X007576Y000531D01*
X007648Y000501D02*
X007492Y000566D01*
X007372Y000685D01*
X007307Y000841D01*
X007307Y001011D01*
X007372Y001167D01*
X007492Y001286D01*
X007648Y001351D01*
X008417Y001351D01*
X008573Y001286D01*
X008693Y001167D01*
X008757Y001011D01*
X008757Y000841D01*
X008693Y000685D01*
X008573Y000566D01*
X008417Y000501D01*
X007648Y000501D01*
X007478Y000579D02*
X002578Y000579D01*
X002635Y000628D02*
X007430Y000628D01*
X007381Y000676D02*
X002676Y000676D01*
X002707Y000725D02*
X007356Y000725D01*
X007336Y000773D02*
X002729Y000773D01*
X002745Y000822D02*
X007316Y000822D01*
X007307Y000870D02*
X002754Y000870D01*
X002756Y000967D02*
X007307Y000967D01*
X007307Y000919D02*
X002057Y000919D01*
X002057Y000967D02*
X002007Y000967D01*
X002007Y001016D02*
X002057Y001016D01*
X002057Y001064D02*
X002007Y001064D01*
X002007Y001113D02*
X002057Y001113D01*
X002057Y001161D02*
X002007Y001161D01*
X002007Y001210D02*
X002057Y001210D01*
X002057Y001258D02*
X002007Y001258D01*
X002007Y001307D02*
X002057Y001307D01*
X002417Y001501D02*
X001648Y001501D01*
X001492Y001566D01*
X001372Y001685D01*
X001307Y001841D01*
X001307Y002011D01*
X001372Y002167D01*
X001492Y002286D01*
X001648Y002351D01*
X002417Y002351D01*
X002573Y002286D01*
X002693Y002167D01*
X002757Y002011D01*
X002757Y001841D01*
X002693Y001685D01*
X002573Y001566D01*
X002417Y001501D01*
X002533Y001549D02*
X007532Y001549D01*
X007492Y001566D02*
X007648Y001501D01*
X008417Y001501D01*
X008573Y001566D01*
X008693Y001685D01*
X008757Y001841D01*
X008757Y002011D01*
X008693Y002167D01*
X008573Y002286D01*
X008417Y002351D01*
X007648Y002351D01*
X007492Y002286D01*
X007372Y002167D01*
X007307Y002011D01*
X007307Y001841D01*
X007372Y001685D01*
X007492Y001566D01*
X007460Y001598D02*
X002605Y001598D01*
X002653Y001646D02*
X007411Y001646D01*
X007368Y001695D02*
X002696Y001695D01*
X002717Y001743D02*
X007348Y001743D01*
X007328Y001792D02*
X002737Y001792D01*
X002757Y001840D02*
X007308Y001840D01*
X007307Y001889D02*
X002757Y001889D01*
X002757Y001937D02*
X007307Y001937D01*
X007307Y001986D02*
X002757Y001986D01*
X002748Y002034D02*
X007317Y002034D01*
X007337Y002083D02*
X002727Y002083D01*
X002707Y002131D02*
X007357Y002131D01*
X007385Y002180D02*
X002680Y002180D01*
X002631Y002228D02*
X007433Y002228D01*
X007482Y002277D02*
X002583Y002277D01*
X002479Y002325D02*
X007585Y002325D01*
X007648Y002501D02*
X008417Y002501D01*
X008573Y002566D01*
X008693Y002685D01*
X008757Y002841D01*
X008757Y003011D01*
X008693Y003167D01*
X008573Y003286D01*
X008417Y003351D01*
X007648Y003351D01*
X007492Y003286D01*
X007372Y003167D01*
X007307Y003011D01*
X007307Y002841D01*
X007372Y002685D01*
X007492Y002566D01*
X007648Y002501D01*
X007604Y002519D02*
X002460Y002519D01*
X002417Y002501D02*
X002573Y002566D01*
X002693Y002685D01*
X002757Y002841D01*
X002757Y003011D01*
X002693Y003167D01*
X002573Y003286D01*
X002417Y003351D01*
X001648Y003351D01*
X001492Y003286D01*
X001372Y003167D01*
X001307Y003011D01*
X001307Y002841D01*
X001372Y002685D01*
X001492Y002566D01*
X001648Y002501D01*
X002417Y002501D01*
X002575Y002568D02*
X007490Y002568D01*
X007441Y002616D02*
X002623Y002616D01*
X002672Y002665D02*
X007393Y002665D01*
X007360Y002713D02*
X002704Y002713D01*
X002724Y002762D02*
X007340Y002762D01*
X007320Y002810D02*
X002744Y002810D01*
X002757Y002859D02*
X007307Y002859D01*
X007307Y002907D02*
X002757Y002907D01*
X002757Y002956D02*
X007307Y002956D01*
X007307Y003004D02*
X002757Y003004D01*
X002740Y003053D02*
X007325Y003053D01*
X007345Y003101D02*
X002720Y003101D01*
X002700Y003150D02*
X007365Y003150D01*
X007403Y003198D02*
X002661Y003198D01*
X002613Y003247D02*
X007452Y003247D01*
X007513Y003295D02*
X002552Y003295D01*
X002435Y003344D02*
X007630Y003344D01*
X007559Y003538D02*
X002505Y003538D01*
X002593Y003586D02*
X007471Y003586D01*
X007423Y003635D02*
X002642Y003635D01*
X002690Y003683D02*
X007374Y003683D01*
X007353Y003732D02*
X002712Y003732D01*
X002732Y003780D02*
X007333Y003780D01*
X007313Y003829D02*
X002752Y003829D01*
X002757Y003877D02*
X007307Y003877D01*
X007307Y003926D02*
X002757Y003926D01*
X002757Y003974D02*
X007307Y003974D01*
X007312Y004023D02*
X002752Y004023D01*
X002732Y004071D02*
X007332Y004071D01*
X007352Y004120D02*
X002712Y004120D01*
X002691Y004168D02*
X007373Y004168D01*
X007422Y004217D02*
X002643Y004217D01*
X002594Y004265D02*
X007470Y004265D01*
X008594Y004265D02*
X009641Y004265D01*
X009641Y004217D02*
X008643Y004217D01*
X008691Y004168D02*
X009641Y004168D01*
X009641Y004120D02*
X008712Y004120D01*
X008732Y004071D02*
X009641Y004071D01*
X009641Y004023D02*
X008752Y004023D01*
X008757Y003974D02*
X009641Y003974D01*
X009641Y003926D02*
X008757Y003926D01*
X008757Y003877D02*
X009641Y003877D01*
X009641Y003829D02*
X008752Y003829D01*
X008732Y003780D02*
X009641Y003780D01*
X009641Y003732D02*
X008712Y003732D01*
X008690Y003683D02*
X009641Y003683D01*
X009641Y003635D02*
X008642Y003635D01*
X008593Y003586D02*
X009641Y003586D01*
X009641Y003538D02*
X008505Y003538D01*
X008435Y003344D02*
X009641Y003344D01*
X009641Y003392D02*
X000486Y003392D01*
X000486Y003344D02*
X001630Y003344D01*
X001513Y003295D02*
X000486Y003295D01*
X000486Y003247D02*
X001452Y003247D01*
X001403Y003198D02*
X000486Y003198D01*
X000486Y003150D02*
X001365Y003150D01*
X001345Y003101D02*
X000486Y003101D01*
X000486Y003053D02*
X001325Y003053D01*
X001307Y003004D02*
X000486Y003004D01*
X000486Y002956D02*
X001307Y002956D01*
X001307Y002907D02*
X000486Y002907D01*
X000486Y002859D02*
X001307Y002859D01*
X001320Y002810D02*
X000486Y002810D01*
X000486Y002762D02*
X001340Y002762D01*
X001360Y002713D02*
X000486Y002713D01*
X000486Y002665D02*
X001393Y002665D01*
X001441Y002616D02*
X000486Y002616D01*
X000486Y002568D02*
X001490Y002568D01*
X001604Y002519D02*
X000486Y002519D01*
X000486Y002471D02*
X009641Y002471D01*
X009641Y002519D02*
X008460Y002519D01*
X008575Y002568D02*
X009641Y002568D01*
X009641Y002616D02*
X008623Y002616D01*
X008672Y002665D02*
X009641Y002665D01*
X009641Y002713D02*
X008704Y002713D01*
X008724Y002762D02*
X009641Y002762D01*
X009641Y002810D02*
X008744Y002810D01*
X008757Y002859D02*
X009641Y002859D01*
X009641Y002907D02*
X008757Y002907D01*
X008757Y002956D02*
X009641Y002956D01*
X009641Y003004D02*
X008757Y003004D01*
X008740Y003053D02*
X009641Y003053D01*
X009641Y003101D02*
X008720Y003101D01*
X008700Y003150D02*
X009641Y003150D01*
X009641Y003198D02*
X008661Y003198D01*
X008613Y003247D02*
X009641Y003247D01*
X009641Y003295D02*
X008552Y003295D01*
X009641Y003441D02*
X000486Y003441D01*
X000486Y003489D02*
X009641Y003489D01*
X009641Y002422D02*
X000486Y002422D01*
X000486Y002374D02*
X009641Y002374D01*
X009641Y002325D02*
X008479Y002325D01*
X008583Y002277D02*
X009641Y002277D01*
X009641Y002228D02*
X008631Y002228D01*
X008680Y002180D02*
X009641Y002180D01*
X009641Y002131D02*
X008707Y002131D01*
X008727Y002083D02*
X009641Y002083D01*
X009641Y002034D02*
X008748Y002034D01*
X008757Y001986D02*
X009641Y001986D01*
X009641Y001937D02*
X008757Y001937D01*
X008757Y001889D02*
X009641Y001889D01*
X009641Y001840D02*
X008757Y001840D01*
X008737Y001792D02*
X009641Y001792D01*
X009641Y001743D02*
X008717Y001743D01*
X008696Y001695D02*
X009641Y001695D01*
X009641Y001646D02*
X008653Y001646D01*
X008605Y001598D02*
X009641Y001598D01*
X009641Y001549D02*
X008533Y001549D01*
X008524Y001307D02*
X009641Y001307D01*
X009641Y001355D02*
X000486Y001355D01*
X000486Y001307D02*
X001543Y001307D01*
X001466Y001258D02*
X000486Y001258D01*
X000486Y001210D02*
X001415Y001210D01*
X001378Y001161D02*
X000486Y001161D01*
X000486Y001113D02*
X001350Y001113D01*
X001330Y001064D02*
X000486Y001064D01*
X000486Y001016D02*
X001316Y001016D01*
X001308Y000967D02*
X000486Y000967D01*
X000486Y001404D02*
X009641Y001404D01*
X009641Y001452D02*
X000486Y001452D01*
X000486Y001501D02*
X009641Y001501D01*
X009641Y001258D02*
X008601Y001258D01*
X008650Y001210D02*
X009641Y001210D01*
X009641Y001161D02*
X008695Y001161D01*
X008715Y001113D02*
X009641Y001113D01*
X009641Y001064D02*
X008735Y001064D01*
X008755Y001016D02*
X009641Y001016D01*
X009641Y000967D02*
X008757Y000967D01*
X008757Y000919D02*
X009641Y000919D01*
X009641Y000870D02*
X008757Y000870D01*
X008749Y000822D02*
X009641Y000822D01*
X009641Y000773D02*
X008729Y000773D01*
X008709Y000725D02*
X009641Y000725D01*
X009641Y000676D02*
X008683Y000676D01*
X008635Y000628D02*
X009641Y000628D01*
X009641Y000579D02*
X008586Y000579D01*
X008488Y000531D02*
X009641Y000531D01*
X007540Y001307D02*
X002522Y001307D01*
X002598Y001258D02*
X007463Y001258D01*
X007415Y001210D02*
X002650Y001210D01*
X002687Y001161D02*
X007370Y001161D01*
X007350Y001113D02*
X002714Y001113D01*
X002734Y001064D02*
X007329Y001064D01*
X007309Y001016D02*
X002748Y001016D01*
X001532Y001549D02*
X000486Y001549D01*
X000486Y001598D02*
X001460Y001598D01*
X001411Y001646D02*
X000486Y001646D01*
X000486Y001695D02*
X001368Y001695D01*
X001348Y001743D02*
X000486Y001743D01*
X000486Y001792D02*
X001328Y001792D01*
X001308Y001840D02*
X000486Y001840D01*
X000486Y001889D02*
X001307Y001889D01*
X001307Y001937D02*
X000486Y001937D01*
X000486Y001986D02*
X001307Y001986D01*
X001317Y002034D02*
X000486Y002034D01*
X000486Y002083D02*
X001337Y002083D01*
X001357Y002131D02*
X000486Y002131D01*
X000486Y002180D02*
X001385Y002180D01*
X001433Y002228D02*
X000486Y002228D01*
X000486Y002277D02*
X001482Y002277D01*
X001585Y002325D02*
X000486Y002325D01*
X000486Y003538D02*
X001559Y003538D01*
X001471Y003586D02*
X000486Y003586D01*
X000486Y003635D02*
X001423Y003635D01*
X001374Y003683D02*
X000486Y003683D01*
X000486Y003732D02*
X001353Y003732D01*
X001333Y003780D02*
X000486Y003780D01*
X000486Y003829D02*
X001313Y003829D01*
X001307Y003877D02*
X000486Y003877D01*
X000486Y003926D02*
X001307Y003926D01*
X001307Y003974D02*
X000486Y003974D01*
X000486Y004023D02*
X001312Y004023D01*
X001332Y004071D02*
X000486Y004071D01*
X000486Y004120D02*
X001352Y004120D01*
X001373Y004168D02*
X000486Y004168D01*
X000486Y004217D02*
X001422Y004217D01*
X001470Y004265D02*
X000486Y004265D01*
M02*
