G75*
G70*
%OFA0B0*%
%FSLAX24Y24*%
%IPPOS*%
%LPD*%
%AMOC8*
5,1,8,0,0,1.08239X$1,22.5*
%
%ADD10C,0.0600*%
%ADD11C,0.0396*%
%ADD12C,0.0100*%
%ADD13C,0.0160*%
%ADD14C,0.0120*%
D10*
X001811Y003326D02*
X002411Y003326D01*
X002411Y004326D02*
X001811Y004326D01*
X001811Y005326D02*
X002411Y005326D01*
X002411Y006326D02*
X001811Y006326D01*
X008819Y006326D02*
X009419Y006326D01*
X009419Y005326D02*
X008819Y005326D01*
X008819Y004326D02*
X009419Y004326D01*
X009419Y003326D02*
X008819Y003326D01*
D11*
X007662Y002897D03*
X007072Y004117D03*
X004906Y004117D03*
X004198Y004314D03*
X005969Y006440D03*
X005536Y006912D03*
X004828Y007621D03*
X004513Y008881D03*
X007387Y008960D03*
X007465Y008172D03*
D12*
X000550Y009143D02*
X000550Y000430D01*
X010680Y000430D01*
X010680Y009143D01*
X000550Y009143D01*
X000550Y009045D02*
X010680Y009045D01*
X010680Y008947D02*
X000550Y008947D01*
X000550Y008848D02*
X010680Y008848D01*
X010680Y008750D02*
X000550Y008750D01*
X000550Y008651D02*
X010680Y008651D01*
X010680Y008553D02*
X000550Y008553D01*
X000550Y008454D02*
X010680Y008454D01*
X010680Y008356D02*
X000550Y008356D01*
X000550Y008257D02*
X010680Y008257D01*
X010680Y008159D02*
X000550Y008159D01*
X000550Y008060D02*
X010680Y008060D01*
X010680Y007962D02*
X005064Y007962D01*
X005059Y007967D02*
X004909Y008029D01*
X004746Y008029D01*
X004596Y007967D01*
X004482Y007852D01*
X004419Y007702D01*
X004419Y007540D01*
X004482Y007390D01*
X004538Y007334D01*
X004538Y004293D01*
X004498Y004198D01*
X004498Y004036D01*
X004560Y003886D01*
X004675Y003771D01*
X004825Y003709D01*
X004987Y003709D01*
X005137Y003771D01*
X005252Y003886D01*
X005314Y004036D01*
X005314Y004198D01*
X005252Y004348D01*
X005137Y004463D01*
X005118Y004471D01*
X005118Y007334D01*
X005174Y007390D01*
X005236Y007540D01*
X005236Y007702D01*
X005174Y007852D01*
X005059Y007967D01*
X005163Y007863D02*
X010680Y007863D01*
X010680Y007765D02*
X005210Y007765D01*
X005236Y007666D02*
X010680Y007666D01*
X010680Y007568D02*
X005236Y007568D01*
X005206Y007469D02*
X010680Y007469D01*
X010680Y007371D02*
X005154Y007371D01*
X005118Y007272D02*
X010680Y007272D01*
X010680Y007174D02*
X005118Y007174D01*
X005118Y007075D02*
X010680Y007075D01*
X010680Y006977D02*
X005118Y006977D01*
X005118Y006878D02*
X010680Y006878D01*
X010680Y006780D02*
X009656Y006780D01*
X009708Y006758D02*
X009520Y006836D01*
X008717Y006836D01*
X008530Y006758D01*
X008387Y006615D01*
X008309Y006427D01*
X008309Y006224D01*
X008387Y006037D01*
X008530Y005893D01*
X008717Y005816D01*
X009520Y005816D01*
X009708Y005893D01*
X009851Y006037D01*
X009929Y006224D01*
X009929Y006427D01*
X009851Y006615D01*
X009708Y006758D01*
X009785Y006681D02*
X010680Y006681D01*
X010680Y006583D02*
X009865Y006583D01*
X009905Y006484D02*
X010680Y006484D01*
X010680Y006386D02*
X009929Y006386D01*
X009929Y006287D02*
X010680Y006287D01*
X010680Y006189D02*
X009914Y006189D01*
X009873Y006090D02*
X010680Y006090D01*
X010680Y005992D02*
X009806Y005992D01*
X009707Y005893D02*
X010680Y005893D01*
X010680Y005795D02*
X005118Y005795D01*
X005118Y005893D02*
X008531Y005893D01*
X008432Y005992D02*
X005118Y005992D01*
X005118Y006090D02*
X008364Y006090D01*
X008324Y006189D02*
X005118Y006189D01*
X005118Y006287D02*
X008309Y006287D01*
X008309Y006386D02*
X005118Y006386D01*
X005118Y006484D02*
X008332Y006484D01*
X008373Y006583D02*
X005118Y006583D01*
X005118Y006681D02*
X008453Y006681D01*
X008582Y006780D02*
X005118Y006780D01*
X004538Y006780D02*
X002648Y006780D01*
X002700Y006758D02*
X002512Y006836D01*
X001710Y006836D01*
X001522Y006758D01*
X001379Y006615D01*
X001301Y006427D01*
X001301Y006224D01*
X001379Y006037D01*
X001522Y005893D01*
X001685Y005826D01*
X001522Y005758D01*
X001379Y005615D01*
X001301Y005427D01*
X001301Y005224D01*
X001379Y005037D01*
X001522Y004893D01*
X001710Y004816D01*
X002512Y004816D01*
X002700Y004893D01*
X002843Y005037D01*
X002921Y005224D01*
X002921Y005427D01*
X002843Y005615D01*
X002700Y005758D01*
X002537Y005826D01*
X002700Y005893D01*
X002843Y006037D01*
X002921Y006224D01*
X002921Y006427D01*
X002843Y006615D01*
X002700Y006758D01*
X002777Y006681D02*
X004538Y006681D01*
X004538Y006583D02*
X002857Y006583D01*
X002897Y006484D02*
X004538Y006484D01*
X004538Y006386D02*
X002921Y006386D01*
X002921Y006287D02*
X004538Y006287D01*
X004538Y006189D02*
X002906Y006189D01*
X002865Y006090D02*
X004538Y006090D01*
X004538Y005992D02*
X002798Y005992D01*
X002699Y005893D02*
X004538Y005893D01*
X004538Y005795D02*
X002612Y005795D01*
X002762Y005696D02*
X004538Y005696D01*
X004538Y005598D02*
X002850Y005598D01*
X002891Y005499D02*
X004538Y005499D01*
X004538Y005401D02*
X002921Y005401D01*
X002921Y005302D02*
X004538Y005302D01*
X004538Y005204D02*
X002912Y005204D01*
X002872Y005105D02*
X004538Y005105D01*
X004538Y005007D02*
X002813Y005007D01*
X002715Y004908D02*
X004538Y004908D01*
X004538Y004810D02*
X000550Y004810D01*
X000550Y004908D02*
X001507Y004908D01*
X001409Y005007D02*
X000550Y005007D01*
X000550Y005105D02*
X001350Y005105D01*
X001310Y005204D02*
X000550Y005204D01*
X000550Y005302D02*
X001301Y005302D01*
X001301Y005401D02*
X000550Y005401D01*
X000550Y005499D02*
X001331Y005499D01*
X001372Y005598D02*
X000550Y005598D01*
X000550Y005696D02*
X001460Y005696D01*
X001610Y005795D02*
X000550Y005795D01*
X000550Y005893D02*
X001523Y005893D01*
X001424Y005992D02*
X000550Y005992D01*
X000550Y006090D02*
X001357Y006090D01*
X001316Y006189D02*
X000550Y006189D01*
X000550Y006287D02*
X001301Y006287D01*
X001301Y006386D02*
X000550Y006386D01*
X000550Y006484D02*
X001325Y006484D01*
X001365Y006583D02*
X000550Y006583D01*
X000550Y006681D02*
X001445Y006681D01*
X001574Y006780D02*
X000550Y006780D01*
X000550Y006878D02*
X004538Y006878D01*
X004538Y006977D02*
X000550Y006977D01*
X000550Y007075D02*
X004538Y007075D01*
X004538Y007174D02*
X000550Y007174D01*
X000550Y007272D02*
X004538Y007272D01*
X004501Y007371D02*
X000550Y007371D01*
X000550Y007469D02*
X004449Y007469D01*
X004419Y007568D02*
X000550Y007568D01*
X000550Y007666D02*
X004419Y007666D01*
X004445Y007765D02*
X000550Y007765D01*
X000550Y007863D02*
X004492Y007863D01*
X004591Y007962D02*
X000550Y007962D01*
X001638Y004743D02*
X001706Y004765D01*
X001776Y004776D01*
X002061Y004776D01*
X002061Y004376D01*
X002161Y004376D01*
X002161Y004776D01*
X002446Y004776D01*
X002516Y004765D01*
X002584Y004743D01*
X002647Y004711D01*
X002704Y004669D01*
X002754Y004619D01*
X002796Y004562D01*
X002828Y004498D01*
X002850Y004431D01*
X002859Y004376D01*
X002161Y004376D01*
X002161Y004276D01*
X002859Y004276D01*
X002850Y004220D01*
X002828Y004153D01*
X002796Y004090D01*
X002754Y004033D01*
X002704Y003982D01*
X002647Y003941D01*
X002584Y003909D01*
X002516Y003887D01*
X002446Y003876D01*
X002161Y003876D01*
X002161Y004276D01*
X002061Y004276D01*
X001363Y004276D01*
X001372Y004220D01*
X001394Y004153D01*
X001426Y004090D01*
X001468Y004033D01*
X001518Y003982D01*
X001575Y003941D01*
X001638Y003909D01*
X001706Y003887D01*
X001776Y003876D01*
X002061Y003876D01*
X002061Y004276D01*
X002061Y004376D01*
X001363Y004376D01*
X001372Y004431D01*
X001394Y004498D01*
X001426Y004562D01*
X001468Y004619D01*
X001518Y004669D01*
X001575Y004711D01*
X001638Y004743D01*
X001576Y004711D02*
X000550Y004711D01*
X000550Y004613D02*
X001463Y004613D01*
X001402Y004514D02*
X000550Y004514D01*
X000550Y004416D02*
X001370Y004416D01*
X001373Y004219D02*
X000550Y004219D01*
X000550Y004317D02*
X002061Y004317D01*
X002061Y004219D02*
X002161Y004219D01*
X002161Y004317D02*
X004538Y004317D01*
X004538Y004416D02*
X002852Y004416D01*
X002820Y004514D02*
X004538Y004514D01*
X004538Y004613D02*
X002759Y004613D01*
X002646Y004711D02*
X004538Y004711D01*
X004507Y004219D02*
X002849Y004219D01*
X002811Y004120D02*
X004498Y004120D01*
X004504Y004022D02*
X002743Y004022D01*
X002612Y003923D02*
X004545Y003923D01*
X004622Y003825D02*
X002539Y003825D01*
X002512Y003836D02*
X002700Y003758D01*
X002843Y003615D01*
X002921Y003427D01*
X002921Y003224D01*
X002843Y003037D01*
X002700Y002893D01*
X002512Y002816D01*
X001710Y002816D01*
X001522Y002893D01*
X001379Y003037D01*
X001301Y003224D01*
X001301Y003427D01*
X001379Y003615D01*
X001522Y003758D01*
X001710Y003836D01*
X002512Y003836D01*
X002732Y003726D02*
X004784Y003726D01*
X005029Y003726D02*
X006949Y003726D01*
X006990Y003709D02*
X006840Y003771D01*
X006726Y003886D01*
X006664Y004036D01*
X006664Y004198D01*
X006726Y004348D01*
X006840Y004463D01*
X006990Y004525D01*
X007153Y004525D01*
X007303Y004463D01*
X007418Y004348D01*
X007480Y004198D01*
X007480Y004036D01*
X007418Y003886D01*
X007303Y003771D01*
X007153Y003709D01*
X006990Y003709D01*
X007194Y003726D02*
X008498Y003726D01*
X008530Y003758D02*
X008387Y003615D01*
X008309Y003427D01*
X008309Y003224D01*
X008387Y003037D01*
X008530Y002893D01*
X008717Y002816D01*
X009520Y002816D01*
X009708Y002893D01*
X009851Y003037D01*
X009929Y003224D01*
X009929Y003427D01*
X009851Y003615D01*
X009708Y003758D01*
X009544Y003826D01*
X009708Y003893D01*
X009851Y004037D01*
X009929Y004224D01*
X009929Y004427D01*
X009851Y004615D01*
X009708Y004758D01*
X009520Y004836D01*
X008717Y004836D01*
X008530Y004758D01*
X008387Y004615D01*
X008309Y004427D01*
X008309Y004224D01*
X008387Y004037D01*
X008530Y003893D01*
X008693Y003826D01*
X008530Y003758D01*
X008500Y003923D02*
X007433Y003923D01*
X007474Y004022D02*
X008402Y004022D01*
X008352Y004120D02*
X007480Y004120D01*
X007471Y004219D02*
X008311Y004219D01*
X008309Y004317D02*
X007431Y004317D01*
X007350Y004416D02*
X008309Y004416D01*
X008345Y004514D02*
X007180Y004514D01*
X006964Y004514D02*
X005118Y004514D01*
X005118Y004613D02*
X008386Y004613D01*
X008483Y004711D02*
X005118Y004711D01*
X005118Y004810D02*
X008654Y004810D01*
X008714Y004887D02*
X008783Y004876D01*
X009069Y004876D01*
X009069Y005276D01*
X008371Y005276D01*
X008380Y005220D01*
X008402Y005153D01*
X008434Y005090D01*
X008476Y005033D01*
X008526Y004982D01*
X008583Y004941D01*
X008646Y004909D01*
X008714Y004887D01*
X008648Y004908D02*
X005118Y004908D01*
X005118Y005007D02*
X008502Y005007D01*
X008426Y005105D02*
X005118Y005105D01*
X005118Y005204D02*
X008385Y005204D01*
X008371Y005376D02*
X009069Y005376D01*
X009069Y005776D01*
X008783Y005776D01*
X008714Y005765D01*
X008646Y005743D01*
X008583Y005711D01*
X008526Y005669D01*
X008476Y005619D01*
X008434Y005562D01*
X008402Y005498D01*
X008380Y005431D01*
X008371Y005376D01*
X008375Y005401D02*
X005118Y005401D01*
X005118Y005499D02*
X008402Y005499D01*
X008460Y005598D02*
X005118Y005598D01*
X005118Y005696D02*
X008563Y005696D01*
X009069Y005696D02*
X009169Y005696D01*
X009169Y005776D02*
X009169Y005376D01*
X009069Y005376D01*
X009069Y005276D01*
X009169Y005276D01*
X009169Y005376D01*
X009867Y005376D01*
X009858Y005431D01*
X009836Y005498D01*
X009804Y005562D01*
X009762Y005619D01*
X009712Y005669D01*
X009655Y005711D01*
X009592Y005743D01*
X009524Y005765D01*
X009454Y005776D01*
X009169Y005776D01*
X009169Y005598D02*
X009069Y005598D01*
X009069Y005499D02*
X009169Y005499D01*
X009169Y005401D02*
X009069Y005401D01*
X009069Y005302D02*
X005118Y005302D01*
X005185Y004416D02*
X006793Y004416D01*
X006713Y004317D02*
X005265Y004317D01*
X005306Y004219D02*
X006672Y004219D01*
X006664Y004120D02*
X005314Y004120D01*
X005308Y004022D02*
X006669Y004022D01*
X006710Y003923D02*
X005268Y003923D01*
X005191Y003825D02*
X006787Y003825D01*
X007356Y003825D02*
X008691Y003825D01*
X008399Y003628D02*
X002830Y003628D01*
X002879Y003529D02*
X008351Y003529D01*
X008310Y003431D02*
X002920Y003431D01*
X002921Y003332D02*
X008309Y003332D01*
X008309Y003234D02*
X002921Y003234D01*
X002884Y003135D02*
X008346Y003135D01*
X008387Y003037D02*
X002843Y003037D01*
X002745Y002938D02*
X008485Y002938D01*
X008660Y002840D02*
X002570Y002840D01*
X001652Y002840D02*
X000550Y002840D01*
X000550Y002938D02*
X001477Y002938D01*
X001379Y003037D02*
X000550Y003037D01*
X000550Y003135D02*
X001338Y003135D01*
X001301Y003234D02*
X000550Y003234D01*
X000550Y003332D02*
X001301Y003332D01*
X001302Y003431D02*
X000550Y003431D01*
X000550Y003529D02*
X001343Y003529D01*
X001392Y003628D02*
X000550Y003628D01*
X000550Y003726D02*
X001490Y003726D01*
X001610Y003923D02*
X000550Y003923D01*
X000550Y003825D02*
X001683Y003825D01*
X001479Y004022D02*
X000550Y004022D01*
X000550Y004120D02*
X001411Y004120D01*
X002061Y004120D02*
X002161Y004120D01*
X002161Y004022D02*
X002061Y004022D01*
X002061Y003923D02*
X002161Y003923D01*
X002161Y004416D02*
X002061Y004416D01*
X002061Y004514D02*
X002161Y004514D01*
X002161Y004613D02*
X002061Y004613D01*
X002061Y004711D02*
X002161Y004711D01*
X000550Y002741D02*
X010680Y002741D01*
X010680Y002643D02*
X000550Y002643D01*
X000550Y002544D02*
X010680Y002544D01*
X010680Y002446D02*
X000550Y002446D01*
X000550Y002347D02*
X010680Y002347D01*
X010680Y002249D02*
X000550Y002249D01*
X000550Y002150D02*
X010680Y002150D01*
X010680Y002052D02*
X000550Y002052D01*
X000550Y001953D02*
X010680Y001953D01*
X010680Y001855D02*
X000550Y001855D01*
X000550Y001756D02*
X010680Y001756D01*
X010680Y001658D02*
X000550Y001658D01*
X000550Y001559D02*
X010680Y001559D01*
X010680Y001461D02*
X000550Y001461D01*
X000550Y001362D02*
X010680Y001362D01*
X010680Y001264D02*
X000550Y001264D01*
X000550Y001165D02*
X010680Y001165D01*
X010680Y001067D02*
X000550Y001067D01*
X000550Y000968D02*
X010680Y000968D01*
X010680Y000870D02*
X000550Y000870D01*
X000550Y000771D02*
X010680Y000771D01*
X010680Y000673D02*
X000550Y000673D01*
X000550Y000574D02*
X010680Y000574D01*
X010680Y000476D02*
X000550Y000476D01*
X009069Y004908D02*
X009169Y004908D01*
X009169Y004876D02*
X009454Y004876D01*
X009524Y004887D01*
X009592Y004909D01*
X009655Y004941D01*
X009712Y004982D01*
X009762Y005033D01*
X009804Y005090D01*
X009836Y005153D01*
X009858Y005220D01*
X009867Y005276D01*
X009169Y005276D01*
X009169Y004876D01*
X009169Y005007D02*
X009069Y005007D01*
X009069Y005105D02*
X009169Y005105D01*
X009169Y005204D02*
X009069Y005204D01*
X009169Y005302D02*
X010680Y005302D01*
X010680Y005204D02*
X009852Y005204D01*
X009812Y005105D02*
X010680Y005105D01*
X010680Y005007D02*
X009736Y005007D01*
X009590Y004908D02*
X010680Y004908D01*
X010680Y004810D02*
X009583Y004810D01*
X009755Y004711D02*
X010680Y004711D01*
X010680Y004613D02*
X009852Y004613D01*
X009893Y004514D02*
X010680Y004514D01*
X010680Y004416D02*
X009929Y004416D01*
X009929Y004317D02*
X010680Y004317D01*
X010680Y004219D02*
X009927Y004219D01*
X009886Y004120D02*
X010680Y004120D01*
X010680Y004022D02*
X009836Y004022D01*
X009737Y003923D02*
X010680Y003923D01*
X010680Y003825D02*
X009547Y003825D01*
X009740Y003726D02*
X010680Y003726D01*
X010680Y003628D02*
X009838Y003628D01*
X009887Y003529D02*
X010680Y003529D01*
X010680Y003431D02*
X009927Y003431D01*
X009929Y003332D02*
X010680Y003332D01*
X010680Y003234D02*
X009929Y003234D01*
X009892Y003135D02*
X010680Y003135D01*
X010680Y003037D02*
X009851Y003037D01*
X009752Y002938D02*
X010680Y002938D01*
X010680Y002840D02*
X009578Y002840D01*
X009863Y005401D02*
X010680Y005401D01*
X010680Y005499D02*
X009836Y005499D01*
X009778Y005598D02*
X010680Y005598D01*
X010680Y005696D02*
X009675Y005696D01*
D13*
X004828Y004196D02*
X004828Y007621D01*
D14*
X004828Y004196D02*
X004906Y004117D01*
M02*
