G75*
G70*
%OFA0B0*%
%FSLAX24Y24*%
%IPPOS*%
%LPD*%
%AMOC8*
5,1,8,0,0,1.08239X$1,22.5*
%
%ADD10R,0.1024X0.1024*%
%ADD11R,0.0118X0.0315*%
%ADD12R,0.0315X0.0118*%
%ADD13R,0.0394X0.0394*%
%ADD14R,0.1575X0.0787*%
%ADD15R,0.0394X0.0433*%
%ADD16R,0.0433X0.0394*%
D10*
X005761Y006652D03*
D11*
X005859Y007420D03*
X005662Y007420D03*
X005465Y007420D03*
X005269Y007420D03*
X006056Y007420D03*
X006253Y007420D03*
X006253Y005885D03*
X006056Y005885D03*
X005859Y005885D03*
X005662Y005885D03*
X005465Y005885D03*
X005269Y005885D03*
D12*
X004993Y006160D03*
X004993Y006357D03*
X004993Y006554D03*
X004993Y006751D03*
X004993Y006948D03*
X004993Y007145D03*
X006528Y007145D03*
X006528Y006948D03*
X006528Y006751D03*
X006528Y006554D03*
X006528Y006357D03*
X006528Y006160D03*
D13*
X003450Y003487D03*
X003477Y004097D03*
X004316Y003487D03*
X005650Y004141D03*
X005650Y005007D03*
X005052Y004971D03*
X004186Y004971D03*
X003477Y004963D03*
X003410Y006278D03*
X003402Y007026D03*
X004269Y007026D03*
X004276Y006278D03*
X004509Y008239D03*
X005375Y008239D03*
D14*
X004355Y002117D03*
X007150Y002117D03*
D15*
X007276Y004763D03*
X007052Y005357D03*
X007044Y005987D03*
X007753Y005987D03*
X007761Y005357D03*
X007985Y004763D03*
X007737Y006735D03*
X007745Y007365D03*
X007036Y007365D03*
X007028Y006735D03*
X004206Y007660D03*
X003497Y007660D03*
X003477Y005629D03*
X004186Y005629D03*
D16*
X006442Y004861D03*
X006442Y004152D03*
X005969Y008239D03*
X005969Y008948D03*
X006757Y008963D03*
X006757Y008255D03*
M02*
