G75*
G70*
%OFA0B0*%
%FSLAX24Y24*%
%IPPOS*%
%LPD*%
%AMOC8*
5,1,8,0,0,1.08239X$1,22.5*
%
%ADD10C,0.0040*%
%ADD11C,0.0030*%
%ADD12C,0.0100*%
%ADD13C,0.0050*%
%ADD14C,0.0020*%
%ADD15C,0.0001*%
%ADD16C,0.0060*%
D10*
X004139Y001408D02*
X004139Y001723D01*
X004139Y001408D02*
X005044Y000503D01*
X007367Y000503D01*
X007367Y001723D01*
X007367Y002511D02*
X007367Y003731D01*
X005044Y003731D01*
X004139Y002826D01*
X004139Y002511D01*
X001477Y007763D02*
X001477Y008223D01*
X001707Y008223D01*
X001784Y008147D01*
X001784Y007993D01*
X001707Y007917D01*
X001477Y007917D01*
X001324Y007917D02*
X001324Y008147D01*
X001247Y008223D01*
X001170Y008147D01*
X001170Y007917D01*
X001017Y007917D02*
X001017Y008223D01*
X001093Y008223D01*
X001170Y008147D01*
X000863Y008147D02*
X000556Y008147D01*
X000556Y008223D02*
X000710Y008377D01*
X000863Y008223D01*
X000863Y007917D01*
X000556Y007917D02*
X000556Y008223D01*
X000556Y008546D02*
X000556Y008623D01*
X000863Y008930D01*
X000863Y009007D01*
X000556Y009007D01*
X001017Y009007D02*
X001017Y008546D01*
X001170Y008700D01*
X001324Y008546D01*
X001324Y009007D01*
X001937Y008853D02*
X001937Y008546D01*
X001937Y008377D02*
X002014Y008377D01*
X002014Y007917D01*
X001937Y007917D02*
X002091Y007917D01*
X002244Y007917D02*
X002398Y007917D01*
X002321Y007917D02*
X002321Y008223D01*
X002244Y008223D01*
X002321Y008377D02*
X002321Y008454D01*
X002244Y008546D02*
X002244Y008853D01*
X002091Y009007D01*
X001937Y008853D01*
X001937Y008777D02*
X002244Y008777D01*
X002398Y008853D02*
X002398Y008623D01*
X002475Y008546D01*
X002705Y008546D01*
X002705Y008853D01*
X002858Y008777D02*
X002935Y008853D01*
X003165Y008853D01*
X003319Y008853D02*
X003395Y008853D01*
X003395Y008546D01*
X003319Y008546D02*
X003472Y008546D01*
X003626Y008623D02*
X003626Y008777D01*
X003702Y008853D01*
X003856Y008853D01*
X003932Y008777D01*
X003932Y008623D01*
X003856Y008546D01*
X003702Y008546D01*
X003626Y008623D01*
X003626Y008223D02*
X003626Y007917D01*
X003626Y008070D02*
X003779Y008223D01*
X003856Y008223D01*
X003472Y008147D02*
X003472Y008070D01*
X003165Y008070D01*
X003165Y008147D02*
X003242Y008223D01*
X003395Y008223D01*
X003472Y008147D01*
X003395Y007917D02*
X003242Y007917D01*
X003165Y007993D01*
X003165Y008147D01*
X002935Y008223D02*
X002935Y007917D01*
X002858Y007917D02*
X003012Y007917D01*
X002705Y008147D02*
X002551Y008147D01*
X002628Y008300D02*
X002628Y007917D01*
X002858Y008223D02*
X002935Y008223D01*
X002935Y008377D02*
X002935Y008454D01*
X002935Y008546D02*
X002858Y008623D01*
X002858Y008777D01*
X002935Y008546D02*
X003165Y008546D01*
X003165Y009007D01*
X003395Y009007D02*
X003395Y009084D01*
X002705Y008377D02*
X002628Y008300D01*
X007722Y008700D02*
X007875Y008546D01*
X008029Y008700D01*
X008029Y009007D01*
X008259Y008853D02*
X008412Y008853D01*
X008489Y008777D01*
X008489Y008700D01*
X008182Y008700D01*
X008182Y008777D02*
X008259Y008853D01*
X008182Y008777D02*
X008182Y008623D01*
X008259Y008546D01*
X008412Y008546D01*
X008642Y008546D02*
X008642Y008853D01*
X008642Y008700D02*
X008796Y008853D01*
X008873Y008853D01*
X009026Y008623D02*
X009103Y008623D01*
X009103Y008546D01*
X009026Y008546D01*
X009026Y008623D01*
X009717Y008546D02*
X010024Y008546D01*
X010177Y008546D02*
X010177Y008623D01*
X010254Y008623D01*
X010254Y008546D01*
X010177Y008546D01*
X010407Y008623D02*
X010714Y008930D01*
X010714Y008623D01*
X010637Y008546D01*
X010484Y008546D01*
X010407Y008623D01*
X010407Y008930D01*
X010484Y009007D01*
X010637Y009007D01*
X010714Y008930D01*
X009870Y009007D02*
X009870Y008546D01*
X009717Y008853D02*
X009870Y009007D01*
X007722Y009007D02*
X007722Y008700D01*
D11*
X009939Y006469D02*
X010036Y006373D01*
X010036Y006179D01*
X010137Y006179D02*
X010234Y006179D01*
X010186Y006179D02*
X010186Y006469D01*
X010234Y006469D02*
X010137Y006469D01*
X010036Y006324D02*
X009843Y006324D01*
X009843Y006373D02*
X009939Y006469D01*
X009843Y006373D02*
X009843Y006179D01*
X010334Y006179D02*
X010334Y006469D01*
X010527Y006179D01*
X010527Y006469D01*
X010577Y005446D02*
X010432Y005446D01*
X010432Y005156D01*
X010577Y005156D01*
X010625Y005204D01*
X010625Y005398D01*
X010577Y005446D01*
X010331Y005446D02*
X010331Y005156D01*
X010137Y005446D01*
X010137Y005156D01*
X010036Y005204D02*
X010036Y005301D01*
X009939Y005301D01*
X009843Y005398D02*
X009843Y005204D01*
X009891Y005156D01*
X009988Y005156D01*
X010036Y005204D01*
X010036Y005398D02*
X009988Y005446D01*
X009891Y005446D01*
X009843Y005398D01*
X009843Y004501D02*
X009939Y004404D01*
X010036Y004501D01*
X010036Y004211D01*
X010137Y004259D02*
X010186Y004211D01*
X010282Y004211D01*
X010331Y004259D01*
X010331Y004501D01*
X010432Y004501D02*
X010625Y004501D01*
X010529Y004501D02*
X010529Y004211D01*
X010727Y004211D02*
X010920Y004211D01*
X010823Y004356D02*
X010727Y004356D01*
X010727Y004501D02*
X010727Y004211D01*
X010727Y004501D02*
X010920Y004501D01*
X010137Y004501D02*
X010137Y004259D01*
X009843Y004211D02*
X009843Y004501D01*
X009891Y003477D02*
X009843Y003429D01*
X009891Y003477D02*
X009988Y003477D01*
X010036Y003429D01*
X010036Y003381D01*
X009988Y003332D01*
X010036Y003284D01*
X010036Y003235D01*
X009988Y003187D01*
X009891Y003187D01*
X009843Y003235D01*
X009939Y003332D02*
X009988Y003332D01*
X010137Y003235D02*
X010186Y003235D01*
X010186Y003187D01*
X010137Y003187D01*
X010137Y003235D01*
X010285Y003235D02*
X010333Y003187D01*
X010430Y003187D01*
X010478Y003235D01*
X010478Y003284D01*
X010430Y003332D01*
X010381Y003332D01*
X010430Y003332D02*
X010478Y003381D01*
X010478Y003429D01*
X010430Y003477D01*
X010333Y003477D01*
X010285Y003429D01*
X010579Y003477D02*
X010579Y003284D01*
X010676Y003187D01*
X010773Y003284D01*
X010773Y003477D01*
X001392Y005301D02*
X001199Y005301D01*
X001296Y005398D02*
X001296Y005204D01*
X001098Y005446D02*
X000904Y005446D01*
X001001Y005446D02*
X001001Y005156D01*
X000803Y005204D02*
X000803Y005446D01*
X000610Y005446D02*
X000610Y005204D01*
X000658Y005156D01*
X000755Y005156D01*
X000803Y005204D01*
X000508Y005204D02*
X000460Y005156D01*
X000363Y005156D01*
X000315Y005204D01*
X000315Y005398D01*
X000363Y005446D01*
X000460Y005446D01*
X000508Y005398D01*
X000508Y005204D01*
X000460Y004501D02*
X000363Y004501D01*
X000315Y004453D01*
X000315Y004259D01*
X000363Y004211D01*
X000460Y004211D01*
X000508Y004259D01*
X000508Y004356D01*
X000412Y004356D01*
X000508Y004453D02*
X000460Y004501D01*
X000610Y004501D02*
X000803Y004211D01*
X000803Y004501D01*
X000904Y004501D02*
X001049Y004501D01*
X001098Y004453D01*
X001098Y004259D01*
X001049Y004211D01*
X000904Y004211D01*
X000904Y004501D01*
X000610Y004501D02*
X000610Y004211D01*
X000658Y003477D02*
X000610Y003429D01*
X000610Y003235D01*
X000658Y003187D01*
X000755Y003187D01*
X000803Y003235D01*
X000904Y003235D02*
X000953Y003187D01*
X001049Y003187D01*
X001098Y003235D01*
X000904Y003235D02*
X000904Y003429D01*
X000953Y003477D01*
X001049Y003477D01*
X001098Y003429D01*
X000803Y003429D02*
X000755Y003477D01*
X000658Y003477D01*
X000508Y003477D02*
X000508Y003284D01*
X000412Y003187D01*
X000315Y003284D01*
X000315Y003477D01*
X000363Y006179D02*
X000460Y006179D01*
X000508Y006228D01*
X000508Y006421D01*
X000460Y006469D01*
X000363Y006469D01*
X000315Y006421D01*
X000315Y006228D01*
X000363Y006179D01*
X000610Y006228D02*
X000658Y006179D01*
X000755Y006179D01*
X000803Y006228D01*
X000803Y006469D01*
X000904Y006469D02*
X001098Y006469D01*
X001001Y006469D02*
X001001Y006179D01*
X001199Y006324D02*
X001392Y006324D01*
X000610Y006228D02*
X000610Y006469D01*
D12*
X000300Y009393D02*
X000300Y000180D01*
X010930Y000180D01*
X010930Y009393D01*
X000300Y009393D01*
D13*
X003442Y007263D02*
X004229Y007263D01*
X004229Y006790D02*
X003442Y006790D01*
X003450Y006515D02*
X004237Y006515D01*
X004237Y006042D02*
X003450Y006042D01*
X004225Y005208D02*
X005013Y005208D01*
X005414Y004967D02*
X005414Y004180D01*
X005887Y004180D02*
X005887Y004967D01*
X005013Y004735D02*
X004225Y004735D01*
X003713Y004924D02*
X003713Y004137D01*
X003489Y003723D02*
X004276Y003723D01*
X004276Y003251D02*
X003489Y003251D01*
X003241Y004137D02*
X003241Y004924D01*
X004838Y005806D02*
X004840Y005820D01*
X004846Y005834D01*
X004854Y005846D01*
X004866Y005854D01*
X004880Y005860D01*
X004894Y005862D01*
X004908Y005860D01*
X004922Y005854D01*
X004934Y005846D01*
X004942Y005834D01*
X004948Y005820D01*
X004950Y005806D01*
X004948Y005792D01*
X004942Y005778D01*
X004934Y005766D01*
X004922Y005758D01*
X004908Y005752D01*
X004894Y005750D01*
X004880Y005752D01*
X004866Y005758D01*
X004854Y005766D01*
X004846Y005778D01*
X004840Y005792D01*
X004838Y005806D01*
X004973Y005885D02*
X005131Y005885D01*
X004973Y005885D02*
X004973Y006042D01*
X004973Y007302D02*
X004973Y007460D01*
X005131Y007460D01*
X005335Y008003D02*
X004548Y008003D01*
X004548Y008475D02*
X005335Y008475D01*
X006391Y007460D02*
X006548Y007460D01*
X006548Y007302D01*
X006548Y006003D02*
X006548Y005885D01*
X006391Y005885D01*
D14*
X006365Y005406D02*
X006255Y005406D01*
X006255Y005186D01*
X006255Y005259D02*
X006365Y005259D01*
X006402Y005296D01*
X006402Y005369D01*
X006365Y005406D01*
X006476Y005369D02*
X006513Y005406D01*
X006586Y005406D01*
X006623Y005369D01*
X006623Y005332D01*
X006586Y005296D01*
X006623Y005259D01*
X006623Y005222D01*
X006586Y005186D01*
X006513Y005186D01*
X006476Y005222D01*
X006402Y005186D02*
X006329Y005259D01*
X006550Y005296D02*
X006586Y005296D01*
X005934Y005450D02*
X005787Y005450D01*
X005898Y005560D01*
X005898Y005340D01*
X005713Y005340D02*
X005566Y005340D01*
X005640Y005340D02*
X005640Y005560D01*
X005566Y005486D01*
X005492Y005523D02*
X005456Y005560D01*
X005382Y005560D01*
X005345Y005523D01*
X005345Y005376D01*
X005382Y005340D01*
X005456Y005340D01*
X005492Y005376D01*
X005104Y005516D02*
X004957Y005516D01*
X005104Y005663D01*
X005104Y005700D01*
X005067Y005737D01*
X004994Y005737D01*
X004957Y005700D01*
X004810Y005737D02*
X004810Y005516D01*
X004883Y005516D02*
X004736Y005516D01*
X004662Y005553D02*
X004625Y005516D01*
X004552Y005516D01*
X004515Y005553D01*
X004515Y005700D01*
X004552Y005737D01*
X004625Y005737D01*
X004662Y005700D01*
X004736Y005663D02*
X004810Y005737D01*
X004747Y005989D02*
X004527Y005989D01*
X004527Y006136D01*
X004527Y006210D02*
X004527Y006320D01*
X004563Y006357D01*
X004600Y006357D01*
X004637Y006320D01*
X004637Y006210D01*
X004747Y006210D02*
X004747Y006320D01*
X004710Y006357D01*
X004673Y006357D01*
X004637Y006320D01*
X004563Y006431D02*
X004527Y006468D01*
X004527Y006541D01*
X004563Y006578D01*
X004600Y006578D01*
X004747Y006431D01*
X004747Y006578D01*
X004747Y006706D02*
X004527Y006706D01*
X004527Y006853D01*
X004527Y006927D02*
X004527Y007037D01*
X004563Y007074D01*
X004600Y007074D01*
X004637Y007037D01*
X004637Y006927D01*
X004747Y006927D02*
X004527Y006927D01*
X004637Y006779D02*
X004637Y006706D01*
X004747Y006927D02*
X004747Y007037D01*
X004710Y007074D01*
X004673Y007074D01*
X004637Y007037D01*
X004710Y007148D02*
X004747Y007184D01*
X004747Y007258D01*
X004710Y007295D01*
X004673Y007295D01*
X004637Y007258D01*
X004637Y007221D01*
X004637Y007258D02*
X004600Y007295D01*
X004563Y007295D01*
X004527Y007258D01*
X004527Y007184D01*
X004563Y007148D01*
X004527Y006210D02*
X004747Y006210D01*
X004637Y006063D02*
X004637Y005989D01*
X004578Y004623D02*
X004504Y004623D01*
X004467Y004586D01*
X004467Y004439D01*
X004504Y004403D01*
X004578Y004403D01*
X004614Y004439D01*
X004688Y004439D02*
X004725Y004403D01*
X004799Y004403D01*
X004835Y004439D01*
X004835Y004476D01*
X004799Y004513D01*
X004688Y004513D01*
X004688Y004439D01*
X004688Y004513D02*
X004762Y004586D01*
X004835Y004623D01*
X004614Y004586D02*
X004578Y004623D01*
X003150Y004586D02*
X003150Y004549D01*
X003114Y004513D01*
X003040Y004513D01*
X003003Y004549D01*
X003003Y004586D01*
X003040Y004623D01*
X003114Y004623D01*
X003150Y004586D01*
X003114Y004513D02*
X003150Y004476D01*
X003150Y004439D01*
X003114Y004403D01*
X003040Y004403D01*
X003003Y004439D01*
X003003Y004476D01*
X003040Y004513D01*
X002929Y004586D02*
X002893Y004623D01*
X002819Y004623D01*
X002782Y004586D01*
X002782Y004439D01*
X002819Y004403D01*
X002893Y004403D01*
X002929Y004439D01*
X003668Y003154D02*
X003815Y003154D01*
X003889Y003154D02*
X003999Y003154D01*
X004036Y003118D01*
X004036Y003081D01*
X003999Y003044D01*
X003889Y003044D01*
X003889Y002934D02*
X003999Y002934D01*
X004036Y002971D01*
X004036Y003007D01*
X003999Y003044D01*
X004110Y003081D02*
X004184Y003154D01*
X004184Y002934D01*
X004257Y002934D02*
X004110Y002934D01*
X003889Y002934D02*
X003889Y003154D01*
X003742Y003044D02*
X003668Y003044D01*
X003668Y002934D02*
X003668Y003154D01*
X004047Y000953D02*
X004011Y000917D01*
X004011Y000770D01*
X004047Y000733D01*
X004121Y000733D01*
X004158Y000770D01*
X004232Y000770D02*
X004232Y000733D01*
X004232Y000770D02*
X004379Y000917D01*
X004379Y000953D01*
X004232Y000953D01*
X004158Y000917D02*
X004121Y000953D01*
X004047Y000953D01*
X007330Y004254D02*
X007367Y004217D01*
X007440Y004217D01*
X007477Y004254D01*
X007551Y004217D02*
X007698Y004217D01*
X007624Y004217D02*
X007624Y004437D01*
X007551Y004364D01*
X007477Y004401D02*
X007440Y004437D01*
X007367Y004437D01*
X007330Y004401D01*
X007330Y004254D01*
X007772Y004254D02*
X007809Y004217D01*
X007882Y004217D01*
X007919Y004254D01*
X007919Y004401D01*
X007772Y004254D01*
X007772Y004401D01*
X007809Y004437D01*
X007882Y004437D01*
X007919Y004401D01*
X008051Y005245D02*
X008051Y005465D01*
X008161Y005465D01*
X008197Y005428D01*
X008197Y005355D01*
X008161Y005318D01*
X008051Y005318D01*
X008124Y005318D02*
X008197Y005245D01*
X008272Y005245D02*
X008418Y005392D01*
X008418Y005428D01*
X008382Y005465D01*
X008308Y005465D01*
X008272Y005428D01*
X008272Y005245D02*
X008418Y005245D01*
X008410Y005875D02*
X008264Y005875D01*
X008337Y005875D02*
X008337Y006095D01*
X008264Y006021D01*
X008189Y006058D02*
X008189Y005985D01*
X008153Y005948D01*
X008043Y005948D01*
X008116Y005948D02*
X008189Y005875D01*
X008043Y005875D02*
X008043Y006095D01*
X008153Y006095D01*
X008189Y006058D01*
X008176Y006623D02*
X008213Y006659D01*
X008176Y006623D02*
X008103Y006623D01*
X008066Y006659D01*
X008066Y006806D01*
X008103Y006843D01*
X008176Y006843D01*
X008213Y006806D01*
X008287Y006769D02*
X008361Y006843D01*
X008361Y006623D01*
X008434Y006623D02*
X008287Y006623D01*
X008508Y006623D02*
X008655Y006623D01*
X008582Y006623D02*
X008582Y006843D01*
X008508Y006769D01*
X008405Y007213D02*
X008442Y007250D01*
X008442Y007397D01*
X008405Y007433D01*
X008332Y007433D01*
X008295Y007397D01*
X008295Y007360D01*
X008332Y007323D01*
X008442Y007323D01*
X008405Y007213D02*
X008332Y007213D01*
X008295Y007250D01*
X008221Y007250D02*
X008184Y007213D01*
X008111Y007213D01*
X008074Y007250D01*
X008074Y007397D01*
X008111Y007433D01*
X008184Y007433D01*
X008221Y007397D01*
X007642Y008453D02*
X007569Y008453D01*
X007532Y008490D01*
X007532Y008563D01*
X007642Y008563D01*
X007679Y008527D01*
X007679Y008490D01*
X007642Y008453D01*
X007532Y008563D02*
X007605Y008637D01*
X007679Y008674D01*
X007458Y008453D02*
X007311Y008453D01*
X007384Y008453D02*
X007384Y008674D01*
X007311Y008600D01*
X007237Y008637D02*
X007200Y008674D01*
X007127Y008674D01*
X007090Y008637D01*
X007090Y008490D01*
X007127Y008453D01*
X007200Y008453D01*
X007237Y008490D01*
X005655Y008963D02*
X005618Y008926D01*
X005545Y008926D01*
X005508Y008963D01*
X005508Y009036D02*
X005582Y009073D01*
X005618Y009073D01*
X005655Y009036D01*
X005655Y008963D01*
X005508Y009036D02*
X005508Y009146D01*
X005655Y009146D01*
X005434Y008926D02*
X005287Y008926D01*
X005361Y008926D02*
X005361Y009146D01*
X005287Y009073D01*
X005213Y009109D02*
X005176Y009146D01*
X005103Y009146D01*
X005066Y009109D01*
X005066Y008963D01*
X005103Y008926D01*
X005176Y008926D01*
X005213Y008963D01*
X005221Y008796D02*
X005074Y008796D01*
X005074Y008686D01*
X005148Y008723D01*
X005184Y008723D01*
X005221Y008686D01*
X005221Y008613D01*
X005184Y008576D01*
X005111Y008576D01*
X005074Y008613D01*
X005000Y008613D02*
X004963Y008576D01*
X004890Y008576D01*
X004853Y008613D01*
X004853Y008759D01*
X004890Y008796D01*
X004963Y008796D01*
X005000Y008759D01*
X003234Y007731D02*
X003234Y007695D01*
X003197Y007658D01*
X003234Y007621D01*
X003234Y007585D01*
X003197Y007548D01*
X003124Y007548D01*
X003087Y007585D01*
X003013Y007548D02*
X002866Y007548D01*
X002939Y007548D02*
X002939Y007768D01*
X002866Y007695D01*
X002792Y007731D02*
X002755Y007768D01*
X002682Y007768D01*
X002645Y007731D01*
X002645Y007585D01*
X002682Y007548D01*
X002755Y007548D01*
X002792Y007585D01*
X003087Y007731D02*
X003124Y007768D01*
X003197Y007768D01*
X003234Y007731D01*
X003197Y007658D02*
X003160Y007658D01*
D15*
X007288Y002476D02*
X007250Y002467D01*
X007251Y002468D02*
X007231Y002543D01*
X007207Y002617D01*
X007180Y002690D01*
X007149Y002761D01*
X007115Y002831D01*
X007077Y002899D01*
X007036Y002965D01*
X006991Y003029D01*
X006944Y003090D01*
X006893Y003149D01*
X006839Y003206D01*
X006783Y003259D01*
X006724Y003310D01*
X006662Y003358D01*
X006598Y003402D01*
X006532Y003443D01*
X006464Y003481D01*
X006394Y003515D01*
X006323Y003546D01*
X006250Y003573D01*
X006175Y003596D01*
X006100Y003615D01*
X006024Y003631D01*
X005947Y003643D01*
X005870Y003651D01*
X005792Y003655D01*
X005714Y003655D01*
X005636Y003651D01*
X005559Y003643D01*
X005482Y003631D01*
X005406Y003615D01*
X005331Y003596D01*
X005256Y003573D01*
X005183Y003546D01*
X005112Y003515D01*
X005042Y003481D01*
X004974Y003443D01*
X004908Y003402D01*
X004844Y003358D01*
X004782Y003310D01*
X004723Y003259D01*
X004667Y003206D01*
X004613Y003149D01*
X004562Y003090D01*
X004515Y003029D01*
X004470Y002965D01*
X004429Y002899D01*
X004391Y002831D01*
X004357Y002761D01*
X004326Y002690D01*
X004299Y002617D01*
X004275Y002543D01*
X004255Y002468D01*
X004218Y002476D01*
X004237Y002552D01*
X004261Y002627D01*
X004288Y002700D01*
X004319Y002772D01*
X004353Y002843D01*
X004391Y002911D01*
X004432Y002978D01*
X004476Y003043D01*
X004524Y003105D01*
X004574Y003165D01*
X004628Y003222D01*
X004684Y003276D01*
X004743Y003328D01*
X004804Y003377D01*
X004868Y003422D01*
X004934Y003464D01*
X005002Y003504D01*
X005071Y003539D01*
X005143Y003571D01*
X005216Y003600D01*
X005290Y003625D01*
X005365Y003646D01*
X005442Y003663D01*
X005519Y003677D01*
X005597Y003686D01*
X005675Y003692D01*
X005753Y003694D01*
X005831Y003692D01*
X005909Y003686D01*
X005987Y003677D01*
X006064Y003663D01*
X006141Y003646D01*
X006216Y003625D01*
X006290Y003600D01*
X006363Y003571D01*
X006435Y003539D01*
X006504Y003504D01*
X006572Y003464D01*
X006638Y003422D01*
X006702Y003377D01*
X006763Y003328D01*
X006822Y003276D01*
X006878Y003222D01*
X006932Y003165D01*
X006982Y003105D01*
X007030Y003043D01*
X007074Y002978D01*
X007115Y002911D01*
X007153Y002843D01*
X007187Y002772D01*
X007218Y002700D01*
X007245Y002627D01*
X007269Y002552D01*
X007288Y002476D01*
X007268Y002552D01*
X007244Y002627D01*
X007217Y002700D01*
X007186Y002772D01*
X007152Y002842D01*
X007114Y002911D01*
X007073Y002977D01*
X007029Y003042D01*
X006982Y003104D01*
X006931Y003164D01*
X006878Y003221D01*
X006821Y003276D01*
X006763Y003327D01*
X006701Y003376D01*
X006638Y003421D01*
X006572Y003464D01*
X006504Y003503D01*
X006434Y003538D01*
X006363Y003570D01*
X006290Y003599D01*
X006216Y003624D01*
X006140Y003645D01*
X006064Y003662D01*
X005987Y003676D01*
X005909Y003685D01*
X005831Y003691D01*
X005753Y003693D01*
X005675Y003691D01*
X005597Y003685D01*
X005519Y003676D01*
X005442Y003662D01*
X005366Y003645D01*
X005290Y003624D01*
X005216Y003599D01*
X005143Y003570D01*
X005072Y003538D01*
X005002Y003503D01*
X004934Y003464D01*
X004868Y003421D01*
X004805Y003376D01*
X004743Y003327D01*
X004685Y003276D01*
X004628Y003221D01*
X004575Y003164D01*
X004524Y003104D01*
X004477Y003042D01*
X004433Y002977D01*
X004392Y002911D01*
X004354Y002842D01*
X004320Y002772D01*
X004289Y002700D01*
X004262Y002627D01*
X004238Y002552D01*
X004218Y002476D01*
X004219Y002476D01*
X004239Y002552D01*
X004263Y002626D01*
X004290Y002700D01*
X004320Y002772D01*
X004355Y002842D01*
X004392Y002910D01*
X004433Y002977D01*
X004478Y003041D01*
X004525Y003104D01*
X004576Y003163D01*
X004629Y003220D01*
X004685Y003275D01*
X004744Y003326D01*
X004805Y003375D01*
X004869Y003421D01*
X004935Y003463D01*
X005003Y003502D01*
X005072Y003537D01*
X005144Y003569D01*
X005216Y003598D01*
X005291Y003623D01*
X005366Y003644D01*
X005442Y003661D01*
X005519Y003675D01*
X005597Y003684D01*
X005675Y003690D01*
X005753Y003692D01*
X005831Y003690D01*
X005909Y003684D01*
X005987Y003675D01*
X006064Y003661D01*
X006140Y003644D01*
X006215Y003623D01*
X006290Y003598D01*
X006362Y003569D01*
X006434Y003537D01*
X006503Y003502D01*
X006571Y003463D01*
X006637Y003421D01*
X006701Y003375D01*
X006762Y003326D01*
X006821Y003275D01*
X006877Y003220D01*
X006930Y003163D01*
X006981Y003104D01*
X007028Y003041D01*
X007073Y002977D01*
X007114Y002910D01*
X007151Y002842D01*
X007186Y002772D01*
X007216Y002700D01*
X007243Y002626D01*
X007267Y002552D01*
X007287Y002476D01*
X007286Y002476D01*
X007266Y002551D01*
X007242Y002626D01*
X007215Y002699D01*
X007185Y002771D01*
X007150Y002841D01*
X007113Y002910D01*
X007072Y002976D01*
X007027Y003041D01*
X006980Y003103D01*
X006930Y003163D01*
X006876Y003220D01*
X006820Y003274D01*
X006761Y003326D01*
X006700Y003374D01*
X006636Y003420D01*
X006571Y003462D01*
X006503Y003501D01*
X006433Y003536D01*
X006362Y003568D01*
X006289Y003597D01*
X006215Y003622D01*
X006140Y003643D01*
X006064Y003660D01*
X005987Y003674D01*
X005909Y003683D01*
X005831Y003689D01*
X005753Y003691D01*
X005675Y003689D01*
X005597Y003683D01*
X005519Y003674D01*
X005442Y003660D01*
X005366Y003643D01*
X005291Y003622D01*
X005217Y003597D01*
X005144Y003568D01*
X005073Y003536D01*
X005003Y003501D01*
X004935Y003462D01*
X004870Y003420D01*
X004806Y003374D01*
X004745Y003326D01*
X004686Y003274D01*
X004630Y003220D01*
X004576Y003163D01*
X004526Y003103D01*
X004479Y003041D01*
X004434Y002976D01*
X004393Y002910D01*
X004356Y002841D01*
X004321Y002771D01*
X004291Y002699D01*
X004264Y002626D01*
X004240Y002551D01*
X004220Y002476D01*
X004221Y002476D01*
X004241Y002551D01*
X004265Y002626D01*
X004292Y002699D01*
X004322Y002771D01*
X004356Y002841D01*
X004394Y002909D01*
X004435Y002976D01*
X004479Y003040D01*
X004527Y003102D01*
X004577Y003162D01*
X004631Y003219D01*
X004687Y003273D01*
X004745Y003325D01*
X004807Y003373D01*
X004870Y003419D01*
X004936Y003461D01*
X005004Y003500D01*
X005073Y003535D01*
X005144Y003567D01*
X005217Y003596D01*
X005291Y003621D01*
X005366Y003642D01*
X005443Y003659D01*
X005520Y003673D01*
X005597Y003682D01*
X005675Y003688D01*
X005753Y003690D01*
X005831Y003688D01*
X005909Y003682D01*
X005986Y003673D01*
X006063Y003659D01*
X006140Y003642D01*
X006215Y003621D01*
X006289Y003596D01*
X006362Y003567D01*
X006433Y003535D01*
X006502Y003500D01*
X006570Y003461D01*
X006636Y003419D01*
X006699Y003373D01*
X006761Y003325D01*
X006819Y003273D01*
X006875Y003219D01*
X006929Y003162D01*
X006979Y003102D01*
X007027Y003040D01*
X007071Y002976D01*
X007112Y002909D01*
X007150Y002841D01*
X007184Y002771D01*
X007214Y002699D01*
X007241Y002626D01*
X007265Y002551D01*
X007285Y002476D01*
X007284Y002475D01*
X007264Y002551D01*
X007241Y002625D01*
X007213Y002699D01*
X007183Y002770D01*
X007149Y002840D01*
X007111Y002909D01*
X007070Y002975D01*
X007026Y003040D01*
X006978Y003102D01*
X006928Y003161D01*
X006875Y003218D01*
X006819Y003273D01*
X006760Y003324D01*
X006699Y003373D01*
X006635Y003418D01*
X006570Y003460D01*
X006502Y003499D01*
X006432Y003535D01*
X006361Y003567D01*
X006289Y003595D01*
X006214Y003620D01*
X006139Y003641D01*
X006063Y003658D01*
X005986Y003672D01*
X005909Y003681D01*
X005831Y003687D01*
X005753Y003689D01*
X005675Y003687D01*
X005597Y003681D01*
X005520Y003672D01*
X005443Y003658D01*
X005367Y003641D01*
X005292Y003620D01*
X005217Y003595D01*
X005145Y003567D01*
X005074Y003535D01*
X005004Y003499D01*
X004936Y003460D01*
X004871Y003418D01*
X004807Y003373D01*
X004746Y003324D01*
X004687Y003273D01*
X004631Y003218D01*
X004578Y003161D01*
X004528Y003102D01*
X004480Y003040D01*
X004436Y002975D01*
X004395Y002909D01*
X004357Y002840D01*
X004323Y002770D01*
X004293Y002699D01*
X004265Y002625D01*
X004242Y002551D01*
X004222Y002475D01*
X004223Y002475D01*
X004243Y002551D01*
X004266Y002625D01*
X004293Y002698D01*
X004324Y002770D01*
X004358Y002840D01*
X004396Y002908D01*
X004437Y002975D01*
X004481Y003039D01*
X004528Y003101D01*
X004579Y003161D01*
X004632Y003218D01*
X004688Y003272D01*
X004747Y003323D01*
X004808Y003372D01*
X004871Y003417D01*
X004937Y003459D01*
X005005Y003498D01*
X005074Y003534D01*
X005145Y003566D01*
X005218Y003594D01*
X005292Y003619D01*
X005367Y003640D01*
X005443Y003657D01*
X005520Y003671D01*
X005597Y003680D01*
X005675Y003686D01*
X005753Y003688D01*
X005831Y003686D01*
X005909Y003680D01*
X005986Y003671D01*
X006063Y003657D01*
X006139Y003640D01*
X006214Y003619D01*
X006288Y003594D01*
X006361Y003566D01*
X006432Y003534D01*
X006501Y003498D01*
X006569Y003459D01*
X006635Y003417D01*
X006698Y003372D01*
X006759Y003323D01*
X006818Y003272D01*
X006874Y003218D01*
X006927Y003161D01*
X006978Y003101D01*
X007025Y003039D01*
X007069Y002975D01*
X007110Y002908D01*
X007148Y002840D01*
X007182Y002770D01*
X007213Y002698D01*
X007240Y002625D01*
X007263Y002551D01*
X007283Y002475D01*
X007282Y002475D01*
X007262Y002550D01*
X007239Y002625D01*
X007212Y002698D01*
X007181Y002769D01*
X007147Y002840D01*
X007109Y002908D01*
X007068Y002974D01*
X007024Y003038D01*
X006977Y003100D01*
X006927Y003160D01*
X006873Y003217D01*
X006817Y003271D01*
X006759Y003323D01*
X006698Y003371D01*
X006634Y003416D01*
X006569Y003459D01*
X006501Y003497D01*
X006432Y003533D01*
X006360Y003565D01*
X006288Y003593D01*
X006214Y003618D01*
X006139Y003639D01*
X006063Y003656D01*
X005986Y003670D01*
X005909Y003679D01*
X005831Y003685D01*
X005753Y003687D01*
X005675Y003685D01*
X005597Y003679D01*
X005520Y003670D01*
X005443Y003656D01*
X005367Y003639D01*
X005292Y003618D01*
X005218Y003593D01*
X005146Y003565D01*
X005074Y003533D01*
X005005Y003497D01*
X004937Y003459D01*
X004872Y003416D01*
X004808Y003371D01*
X004747Y003323D01*
X004689Y003271D01*
X004633Y003217D01*
X004579Y003160D01*
X004529Y003100D01*
X004482Y003038D01*
X004438Y002974D01*
X004397Y002908D01*
X004359Y002840D01*
X004325Y002769D01*
X004294Y002698D01*
X004267Y002625D01*
X004244Y002550D01*
X004224Y002475D01*
X004225Y002475D01*
X004245Y002550D01*
X004268Y002624D01*
X004295Y002697D01*
X004326Y002769D01*
X004360Y002839D01*
X004398Y002907D01*
X004439Y002974D01*
X004483Y003038D01*
X004530Y003100D01*
X004580Y003159D01*
X004633Y003216D01*
X004689Y003270D01*
X004748Y003322D01*
X004809Y003370D01*
X004872Y003416D01*
X004938Y003458D01*
X005005Y003496D01*
X005075Y003532D01*
X005146Y003564D01*
X005218Y003592D01*
X005292Y003617D01*
X005367Y003638D01*
X005443Y003655D01*
X005520Y003669D01*
X005597Y003678D01*
X005675Y003684D01*
X005753Y003686D01*
X005831Y003684D01*
X005909Y003678D01*
X005986Y003669D01*
X006063Y003655D01*
X006139Y003638D01*
X006214Y003617D01*
X006288Y003592D01*
X006360Y003564D01*
X006431Y003532D01*
X006501Y003496D01*
X006568Y003458D01*
X006634Y003416D01*
X006697Y003370D01*
X006758Y003322D01*
X006817Y003270D01*
X006873Y003216D01*
X006926Y003159D01*
X006976Y003100D01*
X007023Y003038D01*
X007067Y002974D01*
X007108Y002907D01*
X007146Y002839D01*
X007180Y002769D01*
X007211Y002697D01*
X007238Y002624D01*
X007261Y002550D01*
X007281Y002475D01*
X007280Y002474D01*
X007260Y002550D01*
X007237Y002624D01*
X007210Y002697D01*
X007179Y002769D01*
X007145Y002839D01*
X007108Y002907D01*
X007067Y002973D01*
X007023Y003037D01*
X006975Y003099D01*
X006925Y003159D01*
X006872Y003216D01*
X006816Y003270D01*
X006757Y003321D01*
X006696Y003369D01*
X006633Y003415D01*
X006568Y003457D01*
X006500Y003496D01*
X006431Y003531D01*
X006360Y003563D01*
X006287Y003591D01*
X006213Y003616D01*
X006138Y003637D01*
X006062Y003654D01*
X005986Y003668D01*
X005908Y003677D01*
X005831Y003683D01*
X005753Y003685D01*
X005675Y003683D01*
X005598Y003677D01*
X005520Y003668D01*
X005444Y003654D01*
X005368Y003637D01*
X005293Y003616D01*
X005219Y003591D01*
X005146Y003563D01*
X005075Y003531D01*
X005006Y003496D01*
X004938Y003457D01*
X004873Y003415D01*
X004810Y003369D01*
X004749Y003321D01*
X004690Y003270D01*
X004634Y003216D01*
X004581Y003159D01*
X004531Y003099D01*
X004483Y003037D01*
X004439Y002973D01*
X004398Y002907D01*
X004361Y002839D01*
X004327Y002769D01*
X004296Y002697D01*
X004269Y002624D01*
X004246Y002550D01*
X004226Y002474D01*
X004227Y002474D01*
X004247Y002549D01*
X004270Y002624D01*
X004297Y002697D01*
X004328Y002768D01*
X004362Y002838D01*
X004399Y002906D01*
X004440Y002973D01*
X004484Y003037D01*
X004532Y003099D01*
X004582Y003158D01*
X004635Y003215D01*
X004691Y003269D01*
X004749Y003320D01*
X004810Y003369D01*
X004873Y003414D01*
X004939Y003456D01*
X005006Y003495D01*
X005076Y003530D01*
X005147Y003562D01*
X005219Y003590D01*
X005293Y003615D01*
X005368Y003636D01*
X005444Y003653D01*
X005520Y003667D01*
X005598Y003676D01*
X005675Y003682D01*
X005753Y003684D01*
X005831Y003682D01*
X005908Y003676D01*
X005986Y003667D01*
X006062Y003653D01*
X006138Y003636D01*
X006213Y003615D01*
X006287Y003590D01*
X006359Y003562D01*
X006430Y003530D01*
X006500Y003495D01*
X006567Y003456D01*
X006633Y003414D01*
X006696Y003369D01*
X006757Y003320D01*
X006815Y003269D01*
X006871Y003215D01*
X006924Y003158D01*
X006974Y003099D01*
X007022Y003037D01*
X007066Y002973D01*
X007107Y002906D01*
X007144Y002838D01*
X007178Y002768D01*
X007209Y002697D01*
X007236Y002624D01*
X007259Y002549D01*
X007279Y002474D01*
X007278Y002474D01*
X007258Y002549D01*
X007235Y002623D01*
X007208Y002696D01*
X007177Y002768D01*
X007143Y002838D01*
X007106Y002906D01*
X007065Y002972D01*
X007021Y003036D01*
X006974Y003098D01*
X006924Y003157D01*
X006870Y003214D01*
X006815Y003268D01*
X006756Y003320D01*
X006695Y003368D01*
X006632Y003413D01*
X006567Y003455D01*
X006499Y003494D01*
X006430Y003529D01*
X006359Y003561D01*
X006286Y003589D01*
X006213Y003614D01*
X006138Y003635D01*
X006062Y003652D01*
X005985Y003666D01*
X005908Y003675D01*
X005831Y003681D01*
X005753Y003683D01*
X005675Y003681D01*
X005598Y003675D01*
X005521Y003666D01*
X005444Y003652D01*
X005368Y003635D01*
X005293Y003614D01*
X005220Y003589D01*
X005147Y003561D01*
X005076Y003529D01*
X005007Y003494D01*
X004939Y003455D01*
X004874Y003413D01*
X004811Y003368D01*
X004750Y003320D01*
X004691Y003268D01*
X004636Y003214D01*
X004582Y003157D01*
X004532Y003098D01*
X004485Y003036D01*
X004441Y002972D01*
X004400Y002906D01*
X004363Y002838D01*
X004329Y002768D01*
X004298Y002696D01*
X004271Y002623D01*
X004248Y002549D01*
X004228Y002474D01*
X004229Y002474D01*
X004249Y002549D01*
X004272Y002623D01*
X004299Y002696D01*
X004330Y002767D01*
X004364Y002837D01*
X004401Y002905D01*
X004442Y002971D01*
X004486Y003036D01*
X004533Y003097D01*
X004583Y003157D01*
X004636Y003213D01*
X004692Y003268D01*
X004750Y003319D01*
X004811Y003367D01*
X004875Y003412D01*
X004940Y003454D01*
X005007Y003493D01*
X005077Y003528D01*
X005147Y003560D01*
X005220Y003588D01*
X005294Y003613D01*
X005368Y003634D01*
X005444Y003651D01*
X005521Y003665D01*
X005598Y003674D01*
X005675Y003680D01*
X005753Y003682D01*
X005831Y003680D01*
X005908Y003674D01*
X005985Y003665D01*
X006062Y003651D01*
X006138Y003634D01*
X006212Y003613D01*
X006286Y003588D01*
X006359Y003560D01*
X006429Y003528D01*
X006499Y003493D01*
X006566Y003454D01*
X006631Y003412D01*
X006695Y003367D01*
X006756Y003319D01*
X006814Y003268D01*
X006870Y003213D01*
X006923Y003157D01*
X006973Y003097D01*
X007020Y003036D01*
X007064Y002971D01*
X007105Y002905D01*
X007142Y002837D01*
X007176Y002767D01*
X007207Y002696D01*
X007234Y002623D01*
X007257Y002549D01*
X007277Y002474D01*
X007276Y002473D01*
X007256Y002549D01*
X007233Y002623D01*
X007206Y002696D01*
X007176Y002767D01*
X007142Y002837D01*
X007104Y002905D01*
X007063Y002971D01*
X007019Y003035D01*
X006972Y003097D01*
X006922Y003156D01*
X006869Y003213D01*
X006813Y003267D01*
X006755Y003318D01*
X006694Y003366D01*
X006631Y003411D01*
X006565Y003453D01*
X006498Y003492D01*
X006429Y003527D01*
X006358Y003559D01*
X006286Y003587D01*
X006212Y003612D01*
X006137Y003633D01*
X006062Y003650D01*
X005985Y003664D01*
X005908Y003673D01*
X005831Y003679D01*
X005753Y003681D01*
X005675Y003679D01*
X005598Y003673D01*
X005521Y003664D01*
X005444Y003650D01*
X005369Y003633D01*
X005294Y003612D01*
X005220Y003587D01*
X005148Y003559D01*
X005077Y003527D01*
X005008Y003492D01*
X004941Y003453D01*
X004875Y003411D01*
X004812Y003366D01*
X004751Y003318D01*
X004693Y003267D01*
X004637Y003213D01*
X004584Y003156D01*
X004534Y003097D01*
X004487Y003035D01*
X004443Y002971D01*
X004402Y002905D01*
X004364Y002837D01*
X004330Y002767D01*
X004300Y002696D01*
X004273Y002623D01*
X004250Y002549D01*
X004230Y002473D01*
X004231Y002473D01*
X004251Y002548D01*
X004274Y002622D01*
X004301Y002695D01*
X004331Y002767D01*
X004365Y002836D01*
X004403Y002904D01*
X004444Y002970D01*
X004488Y003034D01*
X004535Y003096D01*
X004585Y003155D01*
X004638Y003212D01*
X004693Y003266D01*
X004752Y003317D01*
X004813Y003365D01*
X004876Y003411D01*
X004941Y003453D01*
X005008Y003491D01*
X005077Y003526D01*
X005148Y003558D01*
X005221Y003587D01*
X005294Y003611D01*
X005369Y003632D01*
X005445Y003649D01*
X005521Y003663D01*
X005598Y003672D01*
X005675Y003678D01*
X005753Y003680D01*
X005831Y003678D01*
X005908Y003672D01*
X005985Y003663D01*
X006061Y003649D01*
X006137Y003632D01*
X006212Y003611D01*
X006285Y003587D01*
X006358Y003558D01*
X006429Y003526D01*
X006498Y003491D01*
X006565Y003453D01*
X006630Y003411D01*
X006693Y003365D01*
X006754Y003317D01*
X006813Y003266D01*
X006868Y003212D01*
X006921Y003155D01*
X006971Y003096D01*
X007018Y003034D01*
X007062Y002970D01*
X007103Y002904D01*
X007141Y002836D01*
X007175Y002767D01*
X007205Y002695D01*
X007232Y002622D01*
X007255Y002548D01*
X007275Y002473D01*
X007274Y002473D01*
X007254Y002548D01*
X007231Y002622D01*
X007204Y002695D01*
X007174Y002766D01*
X007140Y002836D01*
X007102Y002904D01*
X007062Y002970D01*
X007018Y003034D01*
X006971Y003095D01*
X006921Y003155D01*
X006868Y003211D01*
X006812Y003265D01*
X006754Y003316D01*
X006693Y003365D01*
X006630Y003410D01*
X006564Y003452D01*
X006497Y003490D01*
X006428Y003526D01*
X006357Y003557D01*
X006285Y003586D01*
X006212Y003610D01*
X006137Y003631D01*
X006061Y003648D01*
X005985Y003662D01*
X005908Y003671D01*
X005831Y003677D01*
X005753Y003679D01*
X005675Y003677D01*
X005598Y003671D01*
X005521Y003662D01*
X005445Y003648D01*
X005369Y003631D01*
X005294Y003610D01*
X005221Y003586D01*
X005149Y003557D01*
X005078Y003526D01*
X005009Y003490D01*
X004942Y003452D01*
X004876Y003410D01*
X004813Y003365D01*
X004752Y003316D01*
X004694Y003265D01*
X004638Y003211D01*
X004585Y003155D01*
X004535Y003095D01*
X004488Y003034D01*
X004444Y002970D01*
X004404Y002904D01*
X004366Y002836D01*
X004332Y002766D01*
X004302Y002695D01*
X004275Y002622D01*
X004252Y002548D01*
X004232Y002473D01*
X004233Y002473D01*
X004253Y002548D01*
X004276Y002622D01*
X004303Y002694D01*
X004333Y002766D01*
X004367Y002835D01*
X004405Y002903D01*
X004445Y002969D01*
X004489Y003033D01*
X004536Y003095D01*
X004586Y003154D01*
X004639Y003211D01*
X004695Y003265D01*
X004753Y003316D01*
X004814Y003364D01*
X004877Y003409D01*
X004942Y003451D01*
X005009Y003489D01*
X005078Y003525D01*
X005149Y003556D01*
X005221Y003585D01*
X005295Y003609D01*
X005369Y003630D01*
X005445Y003647D01*
X005521Y003661D01*
X005598Y003670D01*
X005676Y003676D01*
X005753Y003678D01*
X005830Y003676D01*
X005908Y003670D01*
X005985Y003661D01*
X006061Y003647D01*
X006137Y003630D01*
X006211Y003609D01*
X006285Y003585D01*
X006357Y003556D01*
X006428Y003525D01*
X006497Y003489D01*
X006564Y003451D01*
X006629Y003409D01*
X006692Y003364D01*
X006753Y003316D01*
X006811Y003265D01*
X006867Y003211D01*
X006920Y003154D01*
X006970Y003095D01*
X007017Y003033D01*
X007061Y002969D01*
X007101Y002903D01*
X007139Y002835D01*
X007173Y002766D01*
X007203Y002694D01*
X007230Y002622D01*
X007253Y002548D01*
X007273Y002473D01*
X007272Y002473D01*
X007252Y002548D01*
X007229Y002621D01*
X007202Y002694D01*
X007172Y002765D01*
X007138Y002835D01*
X007101Y002903D01*
X007060Y002969D01*
X007016Y003033D01*
X006969Y003094D01*
X006919Y003153D01*
X006866Y003210D01*
X006811Y003264D01*
X006752Y003315D01*
X006692Y003363D01*
X006629Y003408D01*
X006563Y003450D01*
X006496Y003489D01*
X006427Y003524D01*
X006357Y003555D01*
X006284Y003584D01*
X006211Y003608D01*
X006136Y003629D01*
X006061Y003646D01*
X005985Y003660D01*
X005908Y003669D01*
X005830Y003675D01*
X005753Y003677D01*
X005676Y003675D01*
X005598Y003669D01*
X005521Y003660D01*
X005445Y003646D01*
X005370Y003629D01*
X005295Y003608D01*
X005222Y003584D01*
X005149Y003555D01*
X005079Y003524D01*
X005010Y003489D01*
X004943Y003450D01*
X004877Y003408D01*
X004814Y003363D01*
X004754Y003315D01*
X004695Y003264D01*
X004640Y003210D01*
X004587Y003153D01*
X004537Y003094D01*
X004490Y003033D01*
X004446Y002969D01*
X004405Y002903D01*
X004368Y002835D01*
X004334Y002765D01*
X004304Y002694D01*
X004277Y002621D01*
X004254Y002548D01*
X004234Y002473D01*
X004235Y002472D01*
X004255Y002547D01*
X004278Y002621D01*
X004305Y002694D01*
X004335Y002765D01*
X004369Y002835D01*
X004406Y002902D01*
X004447Y002968D01*
X004491Y003032D01*
X004538Y003094D01*
X004588Y003153D01*
X004641Y003209D01*
X004696Y003263D01*
X004754Y003314D01*
X004815Y003362D01*
X004878Y003407D01*
X004943Y003449D01*
X005010Y003488D01*
X005079Y003523D01*
X005150Y003555D01*
X005222Y003583D01*
X005295Y003607D01*
X005370Y003628D01*
X005445Y003645D01*
X005522Y003659D01*
X005598Y003668D01*
X005676Y003674D01*
X005753Y003676D01*
X005830Y003674D01*
X005908Y003668D01*
X005984Y003659D01*
X006061Y003645D01*
X006136Y003628D01*
X006211Y003607D01*
X006284Y003583D01*
X006356Y003555D01*
X006427Y003523D01*
X006496Y003488D01*
X006563Y003449D01*
X006628Y003407D01*
X006691Y003362D01*
X006752Y003314D01*
X006810Y003263D01*
X006865Y003209D01*
X006918Y003153D01*
X006968Y003094D01*
X007015Y003032D01*
X007059Y002968D01*
X007100Y002902D01*
X007137Y002835D01*
X007171Y002765D01*
X007201Y002694D01*
X007228Y002621D01*
X007251Y002547D01*
X007271Y002472D01*
X007270Y002472D01*
X007250Y002547D01*
X007227Y002621D01*
X007200Y002693D01*
X007170Y002765D01*
X007136Y002834D01*
X007099Y002902D01*
X007058Y002968D01*
X007014Y003031D01*
X006967Y003093D01*
X006918Y003152D01*
X006865Y003209D01*
X006809Y003262D01*
X006751Y003313D01*
X006690Y003361D01*
X006627Y003406D01*
X006562Y003448D01*
X006495Y003487D01*
X006426Y003522D01*
X006356Y003554D01*
X006284Y003582D01*
X006210Y003606D01*
X006136Y003627D01*
X006060Y003644D01*
X005984Y003658D01*
X005907Y003667D01*
X005830Y003673D01*
X005753Y003675D01*
X005676Y003673D01*
X005599Y003667D01*
X005522Y003658D01*
X005446Y003644D01*
X005370Y003627D01*
X005296Y003606D01*
X005222Y003582D01*
X005150Y003554D01*
X005080Y003522D01*
X005011Y003487D01*
X004944Y003448D01*
X004879Y003406D01*
X004816Y003361D01*
X004755Y003313D01*
X004697Y003262D01*
X004641Y003209D01*
X004588Y003152D01*
X004539Y003093D01*
X004492Y003031D01*
X004448Y002968D01*
X004407Y002902D01*
X004370Y002834D01*
X004336Y002765D01*
X004306Y002693D01*
X004279Y002621D01*
X004256Y002547D01*
X004236Y002472D01*
X004237Y002472D01*
X004257Y002548D01*
X004281Y002623D01*
X004308Y002697D01*
X004339Y002769D01*
X004374Y002840D01*
X004412Y002909D01*
X004454Y002976D01*
X004499Y003040D01*
X004548Y003102D01*
X004599Y003162D01*
X004653Y003219D01*
X004710Y003273D01*
X004770Y003325D01*
X004833Y003373D01*
X004897Y003418D01*
X004964Y003459D01*
X005033Y003498D01*
X005104Y003532D01*
X005176Y003563D01*
X005250Y003591D01*
X005325Y003614D01*
X005402Y003634D01*
X005479Y003650D01*
X005557Y003662D01*
X005635Y003670D01*
X005714Y003674D01*
X005792Y003674D01*
X005871Y003670D01*
X005949Y003662D01*
X006027Y003650D01*
X006104Y003634D01*
X006181Y003614D01*
X006256Y003591D01*
X006330Y003563D01*
X006402Y003532D01*
X006473Y003498D01*
X006542Y003459D01*
X006609Y003418D01*
X006673Y003373D01*
X006736Y003325D01*
X006796Y003273D01*
X006853Y003219D01*
X006907Y003162D01*
X006958Y003102D01*
X007007Y003040D01*
X007052Y002976D01*
X007094Y002909D01*
X007132Y002840D01*
X007167Y002769D01*
X007198Y002697D01*
X007225Y002623D01*
X007249Y002548D01*
X007269Y002472D01*
X007268Y002472D01*
X007248Y002548D01*
X007224Y002623D01*
X007197Y002697D01*
X007166Y002769D01*
X007131Y002840D01*
X007093Y002908D01*
X007051Y002975D01*
X007006Y003040D01*
X006958Y003102D01*
X006906Y003162D01*
X006852Y003219D01*
X006795Y003273D01*
X006735Y003324D01*
X006673Y003372D01*
X006608Y003417D01*
X006541Y003459D01*
X006472Y003497D01*
X006402Y003531D01*
X006329Y003562D01*
X006256Y003590D01*
X006180Y003613D01*
X006104Y003633D01*
X006027Y003649D01*
X005949Y003661D01*
X005871Y003669D01*
X005792Y003673D01*
X005714Y003673D01*
X005635Y003669D01*
X005557Y003661D01*
X005479Y003649D01*
X005402Y003633D01*
X005326Y003613D01*
X005250Y003590D01*
X005177Y003562D01*
X005104Y003531D01*
X005034Y003497D01*
X004965Y003459D01*
X004898Y003417D01*
X004833Y003372D01*
X004771Y003324D01*
X004711Y003273D01*
X004654Y003219D01*
X004600Y003162D01*
X004548Y003102D01*
X004500Y003040D01*
X004455Y002975D01*
X004413Y002908D01*
X004375Y002840D01*
X004340Y002769D01*
X004309Y002697D01*
X004282Y002623D01*
X004258Y002548D01*
X004238Y002472D01*
X004239Y002471D01*
X004259Y002548D01*
X004282Y002623D01*
X004310Y002696D01*
X004341Y002769D01*
X004376Y002839D01*
X004414Y002908D01*
X004456Y002975D01*
X004501Y003039D01*
X004549Y003101D01*
X004600Y003161D01*
X004655Y003218D01*
X004712Y003272D01*
X004772Y003323D01*
X004834Y003371D01*
X004898Y003416D01*
X004965Y003458D01*
X005034Y003496D01*
X005105Y003530D01*
X005177Y003561D01*
X005251Y003589D01*
X005326Y003612D01*
X005402Y003632D01*
X005479Y003648D01*
X005557Y003660D01*
X005635Y003668D01*
X005714Y003672D01*
X005792Y003672D01*
X005871Y003668D01*
X005949Y003660D01*
X006027Y003648D01*
X006104Y003632D01*
X006180Y003612D01*
X006255Y003589D01*
X006329Y003561D01*
X006401Y003530D01*
X006472Y003496D01*
X006541Y003458D01*
X006608Y003416D01*
X006672Y003371D01*
X006734Y003323D01*
X006794Y003272D01*
X006851Y003218D01*
X006906Y003161D01*
X006957Y003101D01*
X007005Y003039D01*
X007050Y002975D01*
X007092Y002908D01*
X007130Y002839D01*
X007165Y002769D01*
X007196Y002696D01*
X007224Y002623D01*
X007247Y002548D01*
X007267Y002471D01*
X007266Y002471D01*
X007246Y002547D01*
X007223Y002622D01*
X007195Y002696D01*
X007164Y002768D01*
X007129Y002839D01*
X007091Y002907D01*
X007049Y002974D01*
X007004Y003038D01*
X006956Y003101D01*
X006905Y003160D01*
X006851Y003217D01*
X006794Y003271D01*
X006734Y003322D01*
X006672Y003370D01*
X006607Y003415D01*
X006540Y003457D01*
X006472Y003495D01*
X006401Y003529D01*
X006329Y003560D01*
X006255Y003588D01*
X006180Y003611D01*
X006104Y003631D01*
X006027Y003647D01*
X005949Y003659D01*
X005871Y003667D01*
X005792Y003671D01*
X005714Y003671D01*
X005635Y003667D01*
X005557Y003659D01*
X005479Y003647D01*
X005402Y003631D01*
X005326Y003611D01*
X005251Y003588D01*
X005177Y003560D01*
X005105Y003529D01*
X005034Y003495D01*
X004966Y003457D01*
X004899Y003415D01*
X004834Y003370D01*
X004772Y003322D01*
X004712Y003271D01*
X004655Y003217D01*
X004601Y003160D01*
X004550Y003101D01*
X004502Y003038D01*
X004457Y002974D01*
X004415Y002907D01*
X004377Y002839D01*
X004342Y002768D01*
X004311Y002696D01*
X004283Y002622D01*
X004260Y002547D01*
X004240Y002471D01*
X004241Y002471D01*
X004261Y002547D01*
X004284Y002622D01*
X004312Y002696D01*
X004343Y002768D01*
X004378Y002838D01*
X004416Y002907D01*
X004458Y002973D01*
X004502Y003038D01*
X004551Y003100D01*
X004602Y003160D01*
X004656Y003216D01*
X004713Y003270D01*
X004773Y003322D01*
X004835Y003370D01*
X004899Y003414D01*
X004966Y003456D01*
X005035Y003494D01*
X005105Y003529D01*
X005178Y003560D01*
X005251Y003587D01*
X005326Y003610D01*
X005402Y003630D01*
X005479Y003646D01*
X005557Y003658D01*
X005635Y003666D01*
X005714Y003670D01*
X005792Y003670D01*
X005871Y003666D01*
X005949Y003658D01*
X006027Y003646D01*
X006104Y003630D01*
X006180Y003610D01*
X006255Y003587D01*
X006328Y003560D01*
X006401Y003529D01*
X006471Y003494D01*
X006540Y003456D01*
X006607Y003414D01*
X006671Y003370D01*
X006733Y003322D01*
X006793Y003270D01*
X006850Y003216D01*
X006904Y003160D01*
X006955Y003100D01*
X007004Y003038D01*
X007048Y002973D01*
X007090Y002907D01*
X007128Y002838D01*
X007163Y002768D01*
X007194Y002696D01*
X007222Y002622D01*
X007245Y002547D01*
X007265Y002471D01*
X007264Y002471D01*
X007244Y002547D01*
X007221Y002622D01*
X007193Y002695D01*
X007162Y002767D01*
X007127Y002838D01*
X007089Y002906D01*
X007048Y002973D01*
X007003Y003037D01*
X006955Y003099D01*
X006903Y003159D01*
X006849Y003216D01*
X006792Y003270D01*
X006733Y003321D01*
X006670Y003369D01*
X006606Y003414D01*
X006539Y003455D01*
X006471Y003493D01*
X006400Y003528D01*
X006328Y003559D01*
X006254Y003586D01*
X006179Y003609D01*
X006103Y003629D01*
X006026Y003645D01*
X005949Y003657D01*
X005871Y003665D01*
X005792Y003669D01*
X005714Y003669D01*
X005635Y003665D01*
X005557Y003657D01*
X005480Y003645D01*
X005403Y003629D01*
X005327Y003609D01*
X005252Y003586D01*
X005178Y003559D01*
X005106Y003528D01*
X005035Y003493D01*
X004967Y003455D01*
X004900Y003414D01*
X004836Y003369D01*
X004773Y003321D01*
X004714Y003270D01*
X004657Y003216D01*
X004603Y003159D01*
X004551Y003099D01*
X004503Y003037D01*
X004458Y002973D01*
X004417Y002906D01*
X004379Y002838D01*
X004344Y002767D01*
X004313Y002695D01*
X004285Y002622D01*
X004262Y002547D01*
X004242Y002471D01*
X004243Y002471D01*
X004263Y002546D01*
X004286Y002621D01*
X004314Y002695D01*
X004345Y002767D01*
X004379Y002837D01*
X004418Y002906D01*
X004459Y002972D01*
X004504Y003037D01*
X004552Y003099D01*
X004603Y003158D01*
X004658Y003215D01*
X004714Y003269D01*
X004774Y003320D01*
X004836Y003368D01*
X004901Y003413D01*
X004967Y003454D01*
X005036Y003492D01*
X005106Y003527D01*
X005178Y003558D01*
X005252Y003585D01*
X005327Y003608D01*
X005403Y003628D01*
X005480Y003644D01*
X005557Y003656D01*
X005635Y003664D01*
X005714Y003668D01*
X005792Y003668D01*
X005871Y003664D01*
X005949Y003656D01*
X006026Y003644D01*
X006103Y003628D01*
X006179Y003608D01*
X006254Y003585D01*
X006328Y003558D01*
X006400Y003527D01*
X006470Y003492D01*
X006539Y003454D01*
X006605Y003413D01*
X006670Y003368D01*
X006732Y003320D01*
X006792Y003269D01*
X006848Y003215D01*
X006903Y003158D01*
X006954Y003099D01*
X007002Y003037D01*
X007047Y002972D01*
X007088Y002906D01*
X007127Y002837D01*
X007161Y002767D01*
X007192Y002695D01*
X007220Y002621D01*
X007243Y002546D01*
X007263Y002471D01*
X007262Y002470D01*
X007242Y002546D01*
X007219Y002621D01*
X007191Y002694D01*
X007160Y002766D01*
X007126Y002837D01*
X007088Y002905D01*
X007046Y002972D01*
X007001Y003036D01*
X006953Y003098D01*
X006902Y003157D01*
X006848Y003214D01*
X006791Y003268D01*
X006731Y003319D01*
X006669Y003367D01*
X006605Y003412D01*
X006538Y003453D01*
X006470Y003491D01*
X006399Y003526D01*
X006327Y003557D01*
X006254Y003584D01*
X006179Y003607D01*
X006103Y003627D01*
X006026Y003643D01*
X005949Y003655D01*
X005871Y003663D01*
X005792Y003667D01*
X005714Y003667D01*
X005635Y003663D01*
X005557Y003655D01*
X005480Y003643D01*
X005403Y003627D01*
X005327Y003607D01*
X005252Y003584D01*
X005179Y003557D01*
X005107Y003526D01*
X005036Y003491D01*
X004968Y003453D01*
X004901Y003412D01*
X004837Y003367D01*
X004775Y003319D01*
X004715Y003268D01*
X004658Y003214D01*
X004604Y003157D01*
X004553Y003098D01*
X004505Y003036D01*
X004460Y002972D01*
X004418Y002905D01*
X004380Y002837D01*
X004346Y002766D01*
X004315Y002694D01*
X004287Y002621D01*
X004264Y002546D01*
X004244Y002470D01*
X004245Y002470D01*
X004265Y002546D01*
X004288Y002621D01*
X004316Y002694D01*
X004347Y002766D01*
X004381Y002836D01*
X004419Y002905D01*
X004461Y002971D01*
X004506Y003036D01*
X004554Y003097D01*
X004605Y003157D01*
X004659Y003214D01*
X004716Y003267D01*
X004775Y003318D01*
X004837Y003366D01*
X004902Y003411D01*
X004968Y003452D01*
X005037Y003490D01*
X005107Y003525D01*
X005179Y003556D01*
X005253Y003583D01*
X005327Y003606D01*
X005403Y003626D01*
X005480Y003642D01*
X005558Y003654D01*
X005636Y003662D01*
X005714Y003666D01*
X005792Y003666D01*
X005870Y003662D01*
X005948Y003654D01*
X006026Y003642D01*
X006103Y003626D01*
X006179Y003606D01*
X006253Y003583D01*
X006327Y003556D01*
X006399Y003525D01*
X006469Y003490D01*
X006538Y003452D01*
X006604Y003411D01*
X006669Y003366D01*
X006731Y003318D01*
X006790Y003267D01*
X006847Y003214D01*
X006901Y003157D01*
X006952Y003097D01*
X007000Y003036D01*
X007045Y002971D01*
X007087Y002905D01*
X007125Y002836D01*
X007159Y002766D01*
X007190Y002694D01*
X007218Y002621D01*
X007241Y002546D01*
X007261Y002470D01*
X007260Y002470D01*
X007240Y002546D01*
X007217Y002620D01*
X007190Y002694D01*
X007159Y002766D01*
X007124Y002836D01*
X007086Y002904D01*
X007044Y002971D01*
X006999Y003035D01*
X006951Y003097D01*
X006900Y003156D01*
X006846Y003213D01*
X006790Y003267D01*
X006730Y003318D01*
X006668Y003366D01*
X006604Y003410D01*
X006537Y003452D01*
X006469Y003490D01*
X006398Y003524D01*
X006326Y003555D01*
X006253Y003582D01*
X006178Y003605D01*
X006102Y003625D01*
X006026Y003641D01*
X005948Y003653D01*
X005870Y003661D01*
X005792Y003665D01*
X005714Y003665D01*
X005636Y003661D01*
X005558Y003653D01*
X005480Y003641D01*
X005404Y003625D01*
X005328Y003605D01*
X005253Y003582D01*
X005180Y003555D01*
X005108Y003524D01*
X005037Y003490D01*
X004969Y003452D01*
X004902Y003410D01*
X004838Y003366D01*
X004776Y003318D01*
X004716Y003267D01*
X004660Y003213D01*
X004606Y003156D01*
X004555Y003097D01*
X004507Y003035D01*
X004462Y002971D01*
X004420Y002904D01*
X004382Y002836D01*
X004347Y002766D01*
X004316Y002694D01*
X004289Y002620D01*
X004266Y002546D01*
X004246Y002470D01*
X004247Y002470D01*
X004266Y002545D01*
X004290Y002620D01*
X004317Y002693D01*
X004348Y002765D01*
X004383Y002835D01*
X004421Y002904D01*
X004463Y002970D01*
X004507Y003034D01*
X004555Y003096D01*
X004606Y003155D01*
X004660Y003212D01*
X004717Y003266D01*
X004777Y003317D01*
X004839Y003365D01*
X004903Y003409D01*
X004969Y003451D01*
X005038Y003489D01*
X005108Y003523D01*
X005180Y003554D01*
X005253Y003581D01*
X005328Y003604D01*
X005404Y003624D01*
X005480Y003640D01*
X005558Y003652D01*
X005636Y003660D01*
X005714Y003664D01*
X005792Y003664D01*
X005870Y003660D01*
X005948Y003652D01*
X006026Y003640D01*
X006102Y003624D01*
X006178Y003604D01*
X006253Y003581D01*
X006326Y003554D01*
X006398Y003523D01*
X006468Y003489D01*
X006537Y003451D01*
X006603Y003409D01*
X006667Y003365D01*
X006729Y003317D01*
X006789Y003266D01*
X006846Y003212D01*
X006900Y003155D01*
X006951Y003096D01*
X006999Y003034D01*
X007043Y002970D01*
X007085Y002904D01*
X007123Y002835D01*
X007158Y002765D01*
X007189Y002693D01*
X007216Y002620D01*
X007240Y002545D01*
X007259Y002470D01*
X007258Y002469D01*
X007239Y002545D01*
X007215Y002620D01*
X007188Y002693D01*
X007157Y002765D01*
X007122Y002835D01*
X007084Y002903D01*
X007043Y002970D01*
X006998Y003034D01*
X006950Y003096D01*
X006899Y003155D01*
X006845Y003211D01*
X006788Y003265D01*
X006729Y003316D01*
X006667Y003364D01*
X006603Y003409D01*
X006536Y003450D01*
X006468Y003488D01*
X006398Y003522D01*
X006326Y003553D01*
X006252Y003580D01*
X006178Y003604D01*
X006102Y003623D01*
X006025Y003639D01*
X005948Y003651D01*
X005870Y003659D01*
X005792Y003663D01*
X005714Y003663D01*
X005636Y003659D01*
X005558Y003651D01*
X005481Y003639D01*
X005404Y003623D01*
X005328Y003604D01*
X005254Y003580D01*
X005180Y003553D01*
X005108Y003522D01*
X005038Y003488D01*
X004970Y003450D01*
X004903Y003409D01*
X004839Y003364D01*
X004777Y003316D01*
X004718Y003265D01*
X004661Y003211D01*
X004607Y003155D01*
X004556Y003096D01*
X004508Y003034D01*
X004463Y002970D01*
X004422Y002903D01*
X004384Y002835D01*
X004349Y002765D01*
X004318Y002693D01*
X004291Y002620D01*
X004267Y002545D01*
X004248Y002469D01*
X004249Y002469D01*
X004268Y002545D01*
X004292Y002619D01*
X004319Y002693D01*
X004350Y002764D01*
X004385Y002834D01*
X004423Y002903D01*
X004464Y002969D01*
X004509Y003033D01*
X004557Y003095D01*
X004608Y003154D01*
X004662Y003211D01*
X004718Y003265D01*
X004778Y003315D01*
X004840Y003363D01*
X004904Y003408D01*
X004970Y003449D01*
X005039Y003487D01*
X005109Y003521D01*
X005181Y003552D01*
X005254Y003579D01*
X005329Y003603D01*
X005404Y003622D01*
X005481Y003638D01*
X005558Y003650D01*
X005636Y003658D01*
X005714Y003662D01*
X005792Y003662D01*
X005870Y003658D01*
X005948Y003650D01*
X006025Y003638D01*
X006102Y003622D01*
X006177Y003603D01*
X006252Y003579D01*
X006325Y003552D01*
X006397Y003521D01*
X006467Y003487D01*
X006536Y003449D01*
X006602Y003408D01*
X006666Y003363D01*
X006728Y003315D01*
X006788Y003265D01*
X006844Y003211D01*
X006898Y003154D01*
X006949Y003095D01*
X006997Y003033D01*
X007042Y002969D01*
X007083Y002903D01*
X007121Y002834D01*
X007156Y002764D01*
X007187Y002693D01*
X007214Y002619D01*
X007238Y002545D01*
X007257Y002469D01*
X007256Y002469D01*
X007237Y002545D01*
X007213Y002619D01*
X007186Y002692D01*
X007155Y002764D01*
X007120Y002834D01*
X007082Y002902D01*
X007041Y002968D01*
X006996Y003033D01*
X006948Y003094D01*
X006897Y003153D01*
X006844Y003210D01*
X006787Y003264D01*
X006728Y003315D01*
X006666Y003362D01*
X006602Y003407D01*
X006535Y003448D01*
X006467Y003486D01*
X006397Y003520D01*
X006325Y003551D01*
X006252Y003578D01*
X006177Y003602D01*
X006102Y003621D01*
X006025Y003637D01*
X005948Y003649D01*
X005870Y003657D01*
X005792Y003661D01*
X005714Y003661D01*
X005636Y003657D01*
X005558Y003649D01*
X005481Y003637D01*
X005404Y003621D01*
X005329Y003602D01*
X005254Y003578D01*
X005181Y003551D01*
X005109Y003520D01*
X005039Y003486D01*
X004971Y003448D01*
X004904Y003407D01*
X004840Y003362D01*
X004778Y003315D01*
X004719Y003264D01*
X004662Y003210D01*
X004609Y003153D01*
X004558Y003094D01*
X004510Y003033D01*
X004465Y002968D01*
X004424Y002902D01*
X004386Y002834D01*
X004351Y002764D01*
X004320Y002692D01*
X004293Y002619D01*
X004269Y002545D01*
X004250Y002469D01*
X004251Y002469D01*
X004270Y002544D01*
X004294Y002619D01*
X004321Y002692D01*
X004352Y002764D01*
X004386Y002834D01*
X004424Y002902D01*
X004466Y002968D01*
X004511Y003032D01*
X004558Y003094D01*
X004609Y003153D01*
X004663Y003209D01*
X004720Y003263D01*
X004779Y003314D01*
X004841Y003362D01*
X004905Y003406D01*
X004971Y003447D01*
X005040Y003485D01*
X005110Y003519D01*
X005181Y003550D01*
X005255Y003577D01*
X005329Y003601D01*
X005405Y003620D01*
X005481Y003636D01*
X005558Y003648D01*
X005636Y003656D01*
X005714Y003660D01*
X005792Y003660D01*
X005870Y003656D01*
X005948Y003648D01*
X006025Y003636D01*
X006101Y003620D01*
X006177Y003601D01*
X006251Y003577D01*
X006325Y003550D01*
X006396Y003519D01*
X006466Y003485D01*
X006535Y003447D01*
X006601Y003406D01*
X006665Y003362D01*
X006727Y003314D01*
X006786Y003263D01*
X006843Y003209D01*
X006897Y003153D01*
X006948Y003094D01*
X006995Y003032D01*
X007040Y002968D01*
X007082Y002902D01*
X007120Y002834D01*
X007154Y002764D01*
X007185Y002692D01*
X007212Y002619D01*
X007236Y002544D01*
X007255Y002469D01*
X007254Y002468D01*
X007235Y002544D01*
X007211Y002618D01*
X007184Y002691D01*
X007153Y002763D01*
X007119Y002833D01*
X007081Y002901D01*
X007039Y002967D01*
X006995Y003031D01*
X006947Y003093D01*
X006896Y003152D01*
X006842Y003209D01*
X006786Y003262D01*
X006726Y003313D01*
X006665Y003361D01*
X006600Y003405D01*
X006534Y003446D01*
X006466Y003484D01*
X006396Y003519D01*
X006324Y003549D01*
X006251Y003576D01*
X006177Y003600D01*
X006101Y003619D01*
X006025Y003635D01*
X005948Y003647D01*
X005870Y003655D01*
X005792Y003659D01*
X005714Y003659D01*
X005636Y003655D01*
X005558Y003647D01*
X005481Y003635D01*
X005405Y003619D01*
X005329Y003600D01*
X005255Y003576D01*
X005182Y003549D01*
X005110Y003519D01*
X005040Y003484D01*
X004972Y003446D01*
X004906Y003405D01*
X004841Y003361D01*
X004780Y003313D01*
X004720Y003262D01*
X004664Y003209D01*
X004610Y003152D01*
X004559Y003093D01*
X004511Y003031D01*
X004467Y002967D01*
X004425Y002901D01*
X004387Y002833D01*
X004353Y002763D01*
X004322Y002691D01*
X004295Y002618D01*
X004271Y002544D01*
X004252Y002468D01*
X004253Y002468D01*
X004272Y002544D01*
X004296Y002618D01*
X004323Y002691D01*
X004354Y002763D01*
X004388Y002833D01*
X004426Y002901D01*
X004468Y002967D01*
X004512Y003031D01*
X004560Y003092D01*
X004611Y003151D01*
X004665Y003208D01*
X004721Y003262D01*
X004780Y003312D01*
X004842Y003360D01*
X004906Y003404D01*
X004972Y003446D01*
X005040Y003483D01*
X005110Y003518D01*
X005182Y003548D01*
X005255Y003575D01*
X005330Y003599D01*
X005405Y003618D01*
X005482Y003634D01*
X005559Y003646D01*
X005636Y003654D01*
X005714Y003658D01*
X005792Y003658D01*
X005870Y003654D01*
X005947Y003646D01*
X006024Y003634D01*
X006101Y003618D01*
X006176Y003599D01*
X006251Y003575D01*
X006324Y003548D01*
X006396Y003518D01*
X006466Y003483D01*
X006534Y003446D01*
X006600Y003404D01*
X006664Y003360D01*
X006726Y003312D01*
X006785Y003262D01*
X006841Y003208D01*
X006895Y003151D01*
X006946Y003092D01*
X006994Y003031D01*
X007038Y002967D01*
X007080Y002901D01*
X007118Y002833D01*
X007152Y002763D01*
X007183Y002691D01*
X007210Y002618D01*
X007234Y002544D01*
X007253Y002468D01*
X007252Y002468D01*
X007233Y002543D01*
X007209Y002618D01*
X007182Y002691D01*
X007151Y002762D01*
X007117Y002832D01*
X007079Y002900D01*
X007038Y002966D01*
X006993Y003030D01*
X006945Y003092D01*
X006894Y003151D01*
X006841Y003207D01*
X006784Y003261D01*
X006725Y003311D01*
X006663Y003359D01*
X006599Y003404D01*
X006533Y003445D01*
X006465Y003482D01*
X006395Y003517D01*
X006323Y003547D01*
X006250Y003574D01*
X006176Y003598D01*
X006101Y003617D01*
X006024Y003633D01*
X005947Y003645D01*
X005870Y003653D01*
X005792Y003657D01*
X005714Y003657D01*
X005636Y003653D01*
X005559Y003645D01*
X005482Y003633D01*
X005405Y003617D01*
X005330Y003598D01*
X005256Y003574D01*
X005183Y003547D01*
X005111Y003517D01*
X005041Y003482D01*
X004973Y003445D01*
X004907Y003404D01*
X004843Y003359D01*
X004781Y003311D01*
X004722Y003261D01*
X004665Y003207D01*
X004612Y003151D01*
X004561Y003092D01*
X004513Y003030D01*
X004468Y002966D01*
X004427Y002900D01*
X004389Y002832D01*
X004355Y002762D01*
X004324Y002691D01*
X004297Y002618D01*
X004273Y002543D01*
X004254Y002468D01*
X004255Y002468D01*
X004274Y002543D01*
X004298Y002617D01*
X004325Y002690D01*
X004356Y002762D01*
X004390Y002832D01*
X004428Y002900D01*
X004469Y002966D01*
X004514Y003030D01*
X004562Y003091D01*
X004612Y003150D01*
X004666Y003206D01*
X004722Y003260D01*
X004782Y003311D01*
X004843Y003358D01*
X004907Y003403D01*
X004973Y003444D01*
X005041Y003482D01*
X005111Y003516D01*
X005183Y003547D01*
X005256Y003574D01*
X005330Y003597D01*
X005406Y003616D01*
X005482Y003632D01*
X005559Y003644D01*
X005636Y003652D01*
X005714Y003656D01*
X005792Y003656D01*
X005870Y003652D01*
X005947Y003644D01*
X006024Y003632D01*
X006100Y003616D01*
X006176Y003597D01*
X006250Y003574D01*
X006323Y003547D01*
X006395Y003516D01*
X006465Y003482D01*
X006533Y003444D01*
X006599Y003403D01*
X006663Y003358D01*
X006724Y003311D01*
X006784Y003260D01*
X006840Y003206D01*
X006894Y003150D01*
X006944Y003091D01*
X006992Y003030D01*
X007037Y002966D01*
X007078Y002900D01*
X007116Y002832D01*
X007150Y002762D01*
X007181Y002690D01*
X007208Y002617D01*
X007232Y002543D01*
X007251Y002468D01*
X004218Y001758D02*
X004256Y001767D01*
X004255Y001766D02*
X004275Y001691D01*
X004299Y001617D01*
X004326Y001544D01*
X004357Y001473D01*
X004391Y001403D01*
X004429Y001335D01*
X004470Y001269D01*
X004515Y001205D01*
X004562Y001144D01*
X004613Y001085D01*
X004667Y001028D01*
X004723Y000975D01*
X004782Y000924D01*
X004844Y000876D01*
X004908Y000832D01*
X004974Y000791D01*
X005042Y000753D01*
X005112Y000719D01*
X005183Y000688D01*
X005256Y000661D01*
X005331Y000638D01*
X005406Y000619D01*
X005482Y000603D01*
X005559Y000591D01*
X005636Y000583D01*
X005714Y000579D01*
X005792Y000579D01*
X005870Y000583D01*
X005947Y000591D01*
X006024Y000603D01*
X006100Y000619D01*
X006175Y000638D01*
X006250Y000661D01*
X006323Y000688D01*
X006394Y000719D01*
X006464Y000753D01*
X006532Y000791D01*
X006598Y000832D01*
X006662Y000876D01*
X006724Y000924D01*
X006783Y000975D01*
X006839Y001028D01*
X006893Y001085D01*
X006944Y001144D01*
X006991Y001205D01*
X007036Y001269D01*
X007077Y001335D01*
X007115Y001403D01*
X007149Y001473D01*
X007180Y001544D01*
X007207Y001617D01*
X007231Y001691D01*
X007251Y001766D01*
X007288Y001758D01*
X007269Y001682D01*
X007245Y001607D01*
X007218Y001534D01*
X007187Y001462D01*
X007153Y001391D01*
X007115Y001323D01*
X007074Y001256D01*
X007030Y001191D01*
X006982Y001129D01*
X006932Y001069D01*
X006878Y001012D01*
X006822Y000958D01*
X006763Y000906D01*
X006702Y000857D01*
X006638Y000812D01*
X006572Y000770D01*
X006504Y000730D01*
X006435Y000695D01*
X006363Y000663D01*
X006290Y000634D01*
X006216Y000609D01*
X006141Y000588D01*
X006064Y000571D01*
X005987Y000557D01*
X005909Y000548D01*
X005831Y000542D01*
X005753Y000540D01*
X005675Y000542D01*
X005597Y000548D01*
X005519Y000557D01*
X005442Y000571D01*
X005365Y000588D01*
X005290Y000609D01*
X005216Y000634D01*
X005143Y000663D01*
X005071Y000695D01*
X005002Y000730D01*
X004934Y000770D01*
X004868Y000812D01*
X004804Y000857D01*
X004743Y000906D01*
X004684Y000958D01*
X004628Y001012D01*
X004574Y001069D01*
X004524Y001129D01*
X004476Y001191D01*
X004432Y001256D01*
X004391Y001323D01*
X004353Y001391D01*
X004319Y001462D01*
X004288Y001534D01*
X004261Y001607D01*
X004237Y001682D01*
X004218Y001758D01*
X004238Y001682D01*
X004262Y001607D01*
X004289Y001534D01*
X004320Y001462D01*
X004354Y001392D01*
X004392Y001323D01*
X004433Y001257D01*
X004477Y001192D01*
X004524Y001130D01*
X004575Y001070D01*
X004628Y001013D01*
X004685Y000958D01*
X004743Y000907D01*
X004805Y000858D01*
X004868Y000813D01*
X004934Y000770D01*
X005002Y000731D01*
X005072Y000696D01*
X005143Y000664D01*
X005216Y000635D01*
X005290Y000610D01*
X005366Y000589D01*
X005442Y000572D01*
X005519Y000558D01*
X005597Y000549D01*
X005675Y000543D01*
X005753Y000541D01*
X005831Y000543D01*
X005909Y000549D01*
X005987Y000558D01*
X006064Y000572D01*
X006140Y000589D01*
X006216Y000610D01*
X006290Y000635D01*
X006363Y000664D01*
X006434Y000696D01*
X006504Y000731D01*
X006572Y000770D01*
X006638Y000813D01*
X006701Y000858D01*
X006763Y000907D01*
X006821Y000958D01*
X006878Y001013D01*
X006931Y001070D01*
X006982Y001130D01*
X007029Y001192D01*
X007073Y001257D01*
X007114Y001323D01*
X007152Y001392D01*
X007186Y001462D01*
X007217Y001534D01*
X007244Y001607D01*
X007268Y001682D01*
X007288Y001758D01*
X007287Y001758D01*
X007267Y001682D01*
X007243Y001608D01*
X007216Y001534D01*
X007186Y001462D01*
X007151Y001392D01*
X007114Y001324D01*
X007073Y001257D01*
X007028Y001193D01*
X006981Y001130D01*
X006930Y001071D01*
X006877Y001014D01*
X006821Y000959D01*
X006762Y000908D01*
X006701Y000859D01*
X006637Y000813D01*
X006571Y000771D01*
X006503Y000732D01*
X006434Y000697D01*
X006362Y000665D01*
X006290Y000636D01*
X006215Y000611D01*
X006140Y000590D01*
X006064Y000573D01*
X005987Y000559D01*
X005909Y000550D01*
X005831Y000544D01*
X005753Y000542D01*
X005675Y000544D01*
X005597Y000550D01*
X005519Y000559D01*
X005442Y000573D01*
X005366Y000590D01*
X005291Y000611D01*
X005216Y000636D01*
X005144Y000665D01*
X005072Y000697D01*
X005003Y000732D01*
X004935Y000771D01*
X004869Y000813D01*
X004805Y000859D01*
X004744Y000908D01*
X004685Y000959D01*
X004629Y001014D01*
X004576Y001071D01*
X004525Y001130D01*
X004478Y001193D01*
X004433Y001257D01*
X004392Y001324D01*
X004355Y001392D01*
X004320Y001462D01*
X004290Y001534D01*
X004263Y001608D01*
X004239Y001682D01*
X004219Y001758D01*
X004220Y001758D01*
X004240Y001683D01*
X004264Y001608D01*
X004291Y001535D01*
X004321Y001463D01*
X004356Y001393D01*
X004393Y001324D01*
X004434Y001258D01*
X004479Y001193D01*
X004526Y001131D01*
X004576Y001071D01*
X004630Y001014D01*
X004686Y000960D01*
X004745Y000908D01*
X004806Y000860D01*
X004870Y000814D01*
X004935Y000772D01*
X005003Y000733D01*
X005073Y000698D01*
X005144Y000666D01*
X005217Y000637D01*
X005291Y000612D01*
X005366Y000591D01*
X005442Y000574D01*
X005519Y000560D01*
X005597Y000551D01*
X005675Y000545D01*
X005753Y000543D01*
X005831Y000545D01*
X005909Y000551D01*
X005987Y000560D01*
X006064Y000574D01*
X006140Y000591D01*
X006215Y000612D01*
X006289Y000637D01*
X006362Y000666D01*
X006433Y000698D01*
X006503Y000733D01*
X006571Y000772D01*
X006636Y000814D01*
X006700Y000860D01*
X006761Y000908D01*
X006820Y000960D01*
X006876Y001014D01*
X006930Y001071D01*
X006980Y001131D01*
X007027Y001193D01*
X007072Y001258D01*
X007113Y001324D01*
X007150Y001393D01*
X007185Y001463D01*
X007215Y001535D01*
X007242Y001608D01*
X007266Y001683D01*
X007286Y001758D01*
X007285Y001758D01*
X007265Y001683D01*
X007241Y001608D01*
X007214Y001535D01*
X007184Y001463D01*
X007150Y001393D01*
X007112Y001325D01*
X007071Y001258D01*
X007027Y001194D01*
X006979Y001132D01*
X006929Y001072D01*
X006875Y001015D01*
X006819Y000961D01*
X006761Y000909D01*
X006699Y000861D01*
X006636Y000815D01*
X006570Y000773D01*
X006502Y000734D01*
X006433Y000699D01*
X006362Y000667D01*
X006289Y000638D01*
X006215Y000613D01*
X006140Y000592D01*
X006063Y000575D01*
X005986Y000561D01*
X005909Y000552D01*
X005831Y000546D01*
X005753Y000544D01*
X005675Y000546D01*
X005597Y000552D01*
X005520Y000561D01*
X005443Y000575D01*
X005366Y000592D01*
X005291Y000613D01*
X005217Y000638D01*
X005144Y000667D01*
X005073Y000699D01*
X005004Y000734D01*
X004936Y000773D01*
X004870Y000815D01*
X004807Y000861D01*
X004745Y000909D01*
X004687Y000961D01*
X004631Y001015D01*
X004577Y001072D01*
X004527Y001132D01*
X004479Y001194D01*
X004435Y001258D01*
X004394Y001325D01*
X004356Y001393D01*
X004322Y001463D01*
X004292Y001535D01*
X004265Y001608D01*
X004241Y001683D01*
X004221Y001758D01*
X004222Y001759D01*
X004242Y001683D01*
X004265Y001609D01*
X004293Y001535D01*
X004323Y001464D01*
X004357Y001394D01*
X004395Y001325D01*
X004436Y001259D01*
X004480Y001194D01*
X004528Y001132D01*
X004578Y001073D01*
X004631Y001016D01*
X004687Y000961D01*
X004746Y000910D01*
X004807Y000861D01*
X004871Y000816D01*
X004936Y000774D01*
X005004Y000735D01*
X005074Y000699D01*
X005145Y000667D01*
X005217Y000639D01*
X005292Y000614D01*
X005367Y000593D01*
X005443Y000576D01*
X005520Y000562D01*
X005597Y000553D01*
X005675Y000547D01*
X005753Y000545D01*
X005831Y000547D01*
X005909Y000553D01*
X005986Y000562D01*
X006063Y000576D01*
X006139Y000593D01*
X006214Y000614D01*
X006289Y000639D01*
X006361Y000667D01*
X006432Y000699D01*
X006502Y000735D01*
X006570Y000774D01*
X006635Y000816D01*
X006699Y000861D01*
X006760Y000910D01*
X006819Y000961D01*
X006875Y001016D01*
X006928Y001073D01*
X006978Y001132D01*
X007026Y001194D01*
X007070Y001259D01*
X007111Y001325D01*
X007149Y001394D01*
X007183Y001464D01*
X007213Y001535D01*
X007241Y001609D01*
X007264Y001683D01*
X007284Y001759D01*
X007283Y001759D01*
X007263Y001683D01*
X007240Y001609D01*
X007213Y001536D01*
X007182Y001464D01*
X007148Y001394D01*
X007110Y001326D01*
X007069Y001259D01*
X007025Y001195D01*
X006978Y001133D01*
X006927Y001073D01*
X006874Y001016D01*
X006818Y000962D01*
X006759Y000911D01*
X006698Y000862D01*
X006635Y000817D01*
X006569Y000775D01*
X006501Y000736D01*
X006432Y000700D01*
X006361Y000668D01*
X006288Y000640D01*
X006214Y000615D01*
X006139Y000594D01*
X006063Y000577D01*
X005986Y000563D01*
X005909Y000554D01*
X005831Y000548D01*
X005753Y000546D01*
X005675Y000548D01*
X005597Y000554D01*
X005520Y000563D01*
X005443Y000577D01*
X005367Y000594D01*
X005292Y000615D01*
X005218Y000640D01*
X005145Y000668D01*
X005074Y000700D01*
X005005Y000736D01*
X004937Y000775D01*
X004871Y000817D01*
X004808Y000862D01*
X004747Y000911D01*
X004688Y000962D01*
X004632Y001016D01*
X004579Y001073D01*
X004528Y001133D01*
X004481Y001195D01*
X004437Y001259D01*
X004396Y001326D01*
X004358Y001394D01*
X004324Y001464D01*
X004293Y001536D01*
X004266Y001609D01*
X004243Y001683D01*
X004223Y001759D01*
X004224Y001759D01*
X004244Y001684D01*
X004267Y001609D01*
X004294Y001536D01*
X004325Y001465D01*
X004359Y001394D01*
X004397Y001326D01*
X004438Y001260D01*
X004482Y001196D01*
X004529Y001134D01*
X004579Y001074D01*
X004633Y001017D01*
X004689Y000963D01*
X004747Y000911D01*
X004808Y000863D01*
X004872Y000818D01*
X004937Y000775D01*
X005005Y000737D01*
X005074Y000701D01*
X005146Y000669D01*
X005218Y000641D01*
X005292Y000616D01*
X005367Y000595D01*
X005443Y000578D01*
X005520Y000564D01*
X005597Y000555D01*
X005675Y000549D01*
X005753Y000547D01*
X005831Y000549D01*
X005909Y000555D01*
X005986Y000564D01*
X006063Y000578D01*
X006139Y000595D01*
X006214Y000616D01*
X006288Y000641D01*
X006360Y000669D01*
X006432Y000701D01*
X006501Y000737D01*
X006569Y000775D01*
X006634Y000818D01*
X006698Y000863D01*
X006759Y000911D01*
X006817Y000963D01*
X006873Y001017D01*
X006927Y001074D01*
X006977Y001134D01*
X007024Y001196D01*
X007068Y001260D01*
X007109Y001326D01*
X007147Y001394D01*
X007181Y001465D01*
X007212Y001536D01*
X007239Y001609D01*
X007262Y001684D01*
X007282Y001759D01*
X007281Y001759D01*
X007261Y001684D01*
X007238Y001610D01*
X007211Y001537D01*
X007180Y001465D01*
X007146Y001395D01*
X007108Y001327D01*
X007067Y001260D01*
X007023Y001196D01*
X006976Y001134D01*
X006926Y001075D01*
X006873Y001018D01*
X006817Y000964D01*
X006758Y000912D01*
X006697Y000864D01*
X006634Y000818D01*
X006568Y000776D01*
X006501Y000738D01*
X006431Y000702D01*
X006360Y000670D01*
X006288Y000642D01*
X006214Y000617D01*
X006139Y000596D01*
X006063Y000579D01*
X005986Y000565D01*
X005909Y000556D01*
X005831Y000550D01*
X005753Y000548D01*
X005675Y000550D01*
X005597Y000556D01*
X005520Y000565D01*
X005443Y000579D01*
X005367Y000596D01*
X005292Y000617D01*
X005218Y000642D01*
X005146Y000670D01*
X005075Y000702D01*
X005005Y000738D01*
X004938Y000776D01*
X004872Y000818D01*
X004809Y000864D01*
X004748Y000912D01*
X004689Y000964D01*
X004633Y001018D01*
X004580Y001075D01*
X004530Y001134D01*
X004483Y001196D01*
X004439Y001260D01*
X004398Y001327D01*
X004360Y001395D01*
X004326Y001465D01*
X004295Y001537D01*
X004268Y001610D01*
X004245Y001684D01*
X004225Y001759D01*
X004226Y001760D01*
X004246Y001684D01*
X004269Y001610D01*
X004296Y001537D01*
X004327Y001465D01*
X004361Y001395D01*
X004398Y001327D01*
X004439Y001261D01*
X004483Y001197D01*
X004531Y001135D01*
X004581Y001075D01*
X004634Y001018D01*
X004690Y000964D01*
X004749Y000913D01*
X004810Y000865D01*
X004873Y000819D01*
X004938Y000777D01*
X005006Y000738D01*
X005075Y000703D01*
X005146Y000671D01*
X005219Y000643D01*
X005293Y000618D01*
X005368Y000597D01*
X005444Y000580D01*
X005520Y000566D01*
X005598Y000557D01*
X005675Y000551D01*
X005753Y000549D01*
X005831Y000551D01*
X005908Y000557D01*
X005986Y000566D01*
X006062Y000580D01*
X006138Y000597D01*
X006213Y000618D01*
X006287Y000643D01*
X006360Y000671D01*
X006431Y000703D01*
X006500Y000738D01*
X006568Y000777D01*
X006633Y000819D01*
X006696Y000865D01*
X006757Y000913D01*
X006816Y000964D01*
X006872Y001018D01*
X006925Y001075D01*
X006975Y001135D01*
X007023Y001197D01*
X007067Y001261D01*
X007108Y001327D01*
X007145Y001395D01*
X007179Y001465D01*
X007210Y001537D01*
X007237Y001610D01*
X007260Y001684D01*
X007280Y001760D01*
X007279Y001760D01*
X007259Y001685D01*
X007236Y001610D01*
X007209Y001537D01*
X007178Y001466D01*
X007144Y001396D01*
X007107Y001328D01*
X007066Y001261D01*
X007022Y001197D01*
X006974Y001135D01*
X006924Y001076D01*
X006871Y001019D01*
X006815Y000965D01*
X006757Y000914D01*
X006696Y000865D01*
X006633Y000820D01*
X006567Y000778D01*
X006500Y000739D01*
X006430Y000704D01*
X006359Y000672D01*
X006287Y000644D01*
X006213Y000619D01*
X006138Y000598D01*
X006062Y000581D01*
X005986Y000567D01*
X005908Y000558D01*
X005831Y000552D01*
X005753Y000550D01*
X005675Y000552D01*
X005598Y000558D01*
X005520Y000567D01*
X005444Y000581D01*
X005368Y000598D01*
X005293Y000619D01*
X005219Y000644D01*
X005147Y000672D01*
X005076Y000704D01*
X005006Y000739D01*
X004939Y000778D01*
X004873Y000820D01*
X004810Y000865D01*
X004749Y000914D01*
X004691Y000965D01*
X004635Y001019D01*
X004582Y001076D01*
X004532Y001135D01*
X004484Y001197D01*
X004440Y001261D01*
X004399Y001328D01*
X004362Y001396D01*
X004328Y001466D01*
X004297Y001537D01*
X004270Y001610D01*
X004247Y001685D01*
X004227Y001760D01*
X004228Y001760D01*
X004248Y001685D01*
X004271Y001611D01*
X004298Y001538D01*
X004329Y001466D01*
X004363Y001396D01*
X004400Y001328D01*
X004441Y001262D01*
X004485Y001198D01*
X004532Y001136D01*
X004582Y001077D01*
X004636Y001020D01*
X004691Y000966D01*
X004750Y000914D01*
X004811Y000866D01*
X004874Y000821D01*
X004939Y000779D01*
X005007Y000740D01*
X005076Y000705D01*
X005147Y000673D01*
X005220Y000645D01*
X005293Y000620D01*
X005368Y000599D01*
X005444Y000582D01*
X005521Y000568D01*
X005598Y000559D01*
X005675Y000553D01*
X005753Y000551D01*
X005831Y000553D01*
X005908Y000559D01*
X005985Y000568D01*
X006062Y000582D01*
X006138Y000599D01*
X006213Y000620D01*
X006286Y000645D01*
X006359Y000673D01*
X006430Y000705D01*
X006499Y000740D01*
X006567Y000779D01*
X006632Y000821D01*
X006695Y000866D01*
X006756Y000914D01*
X006815Y000966D01*
X006870Y001020D01*
X006924Y001077D01*
X006974Y001136D01*
X007021Y001198D01*
X007065Y001262D01*
X007106Y001328D01*
X007143Y001396D01*
X007177Y001466D01*
X007208Y001538D01*
X007235Y001611D01*
X007258Y001685D01*
X007278Y001760D01*
X007277Y001760D01*
X007257Y001685D01*
X007234Y001611D01*
X007207Y001538D01*
X007176Y001467D01*
X007142Y001397D01*
X007105Y001329D01*
X007064Y001263D01*
X007020Y001198D01*
X006973Y001137D01*
X006923Y001077D01*
X006870Y001021D01*
X006814Y000966D01*
X006756Y000915D01*
X006695Y000867D01*
X006631Y000822D01*
X006566Y000780D01*
X006499Y000741D01*
X006429Y000706D01*
X006359Y000674D01*
X006286Y000646D01*
X006212Y000621D01*
X006138Y000600D01*
X006062Y000583D01*
X005985Y000569D01*
X005908Y000560D01*
X005831Y000554D01*
X005753Y000552D01*
X005675Y000554D01*
X005598Y000560D01*
X005521Y000569D01*
X005444Y000583D01*
X005368Y000600D01*
X005294Y000621D01*
X005220Y000646D01*
X005147Y000674D01*
X005077Y000706D01*
X005007Y000741D01*
X004940Y000780D01*
X004875Y000822D01*
X004811Y000867D01*
X004750Y000915D01*
X004692Y000966D01*
X004636Y001021D01*
X004583Y001077D01*
X004533Y001137D01*
X004486Y001198D01*
X004442Y001263D01*
X004401Y001329D01*
X004364Y001397D01*
X004330Y001467D01*
X004299Y001538D01*
X004272Y001611D01*
X004249Y001685D01*
X004229Y001760D01*
X004230Y001761D01*
X004250Y001685D01*
X004273Y001611D01*
X004300Y001538D01*
X004330Y001467D01*
X004364Y001397D01*
X004402Y001329D01*
X004443Y001263D01*
X004487Y001199D01*
X004534Y001137D01*
X004584Y001078D01*
X004637Y001021D01*
X004693Y000967D01*
X004751Y000916D01*
X004812Y000868D01*
X004875Y000823D01*
X004941Y000781D01*
X005008Y000742D01*
X005077Y000707D01*
X005148Y000675D01*
X005220Y000647D01*
X005294Y000622D01*
X005369Y000601D01*
X005444Y000584D01*
X005521Y000570D01*
X005598Y000561D01*
X005675Y000555D01*
X005753Y000553D01*
X005831Y000555D01*
X005908Y000561D01*
X005985Y000570D01*
X006062Y000584D01*
X006137Y000601D01*
X006212Y000622D01*
X006286Y000647D01*
X006358Y000675D01*
X006429Y000707D01*
X006498Y000742D01*
X006565Y000781D01*
X006631Y000823D01*
X006694Y000868D01*
X006755Y000916D01*
X006813Y000967D01*
X006869Y001021D01*
X006922Y001078D01*
X006972Y001137D01*
X007019Y001199D01*
X007063Y001263D01*
X007104Y001329D01*
X007142Y001397D01*
X007176Y001467D01*
X007206Y001538D01*
X007233Y001611D01*
X007256Y001685D01*
X007276Y001761D01*
X007275Y001761D01*
X007255Y001686D01*
X007232Y001612D01*
X007205Y001539D01*
X007175Y001467D01*
X007141Y001398D01*
X007103Y001330D01*
X007062Y001264D01*
X007018Y001200D01*
X006971Y001138D01*
X006921Y001079D01*
X006868Y001022D01*
X006813Y000968D01*
X006754Y000917D01*
X006693Y000869D01*
X006630Y000823D01*
X006565Y000781D01*
X006498Y000743D01*
X006429Y000708D01*
X006358Y000676D01*
X006285Y000647D01*
X006212Y000623D01*
X006137Y000602D01*
X006061Y000585D01*
X005985Y000571D01*
X005908Y000562D01*
X005831Y000556D01*
X005753Y000554D01*
X005675Y000556D01*
X005598Y000562D01*
X005521Y000571D01*
X005445Y000585D01*
X005369Y000602D01*
X005294Y000623D01*
X005221Y000647D01*
X005148Y000676D01*
X005077Y000708D01*
X005008Y000743D01*
X004941Y000781D01*
X004876Y000823D01*
X004813Y000869D01*
X004752Y000917D01*
X004693Y000968D01*
X004638Y001022D01*
X004585Y001079D01*
X004535Y001138D01*
X004488Y001200D01*
X004444Y001264D01*
X004403Y001330D01*
X004365Y001398D01*
X004331Y001467D01*
X004301Y001539D01*
X004274Y001612D01*
X004251Y001686D01*
X004231Y001761D01*
X004232Y001761D01*
X004252Y001686D01*
X004275Y001612D01*
X004302Y001539D01*
X004332Y001468D01*
X004366Y001398D01*
X004404Y001330D01*
X004444Y001264D01*
X004488Y001200D01*
X004535Y001139D01*
X004585Y001079D01*
X004638Y001023D01*
X004694Y000969D01*
X004752Y000918D01*
X004813Y000869D01*
X004876Y000824D01*
X004942Y000782D01*
X005009Y000744D01*
X005078Y000708D01*
X005149Y000677D01*
X005221Y000648D01*
X005294Y000624D01*
X005369Y000603D01*
X005445Y000586D01*
X005521Y000572D01*
X005598Y000563D01*
X005675Y000557D01*
X005753Y000555D01*
X005831Y000557D01*
X005908Y000563D01*
X005985Y000572D01*
X006061Y000586D01*
X006137Y000603D01*
X006212Y000624D01*
X006285Y000648D01*
X006357Y000677D01*
X006428Y000708D01*
X006497Y000744D01*
X006564Y000782D01*
X006630Y000824D01*
X006693Y000869D01*
X006754Y000918D01*
X006812Y000969D01*
X006868Y001023D01*
X006921Y001079D01*
X006971Y001139D01*
X007018Y001200D01*
X007062Y001264D01*
X007102Y001330D01*
X007140Y001398D01*
X007174Y001468D01*
X007204Y001539D01*
X007231Y001612D01*
X007254Y001686D01*
X007274Y001761D01*
X007273Y001761D01*
X007253Y001686D01*
X007230Y001612D01*
X007203Y001540D01*
X007173Y001468D01*
X007139Y001399D01*
X007101Y001331D01*
X007061Y001265D01*
X007017Y001201D01*
X006970Y001139D01*
X006920Y001080D01*
X006867Y001023D01*
X006811Y000969D01*
X006753Y000918D01*
X006692Y000870D01*
X006629Y000825D01*
X006564Y000783D01*
X006497Y000745D01*
X006428Y000709D01*
X006357Y000678D01*
X006285Y000649D01*
X006211Y000625D01*
X006137Y000604D01*
X006061Y000587D01*
X005985Y000573D01*
X005908Y000564D01*
X005830Y000558D01*
X005753Y000556D01*
X005676Y000558D01*
X005598Y000564D01*
X005521Y000573D01*
X005445Y000587D01*
X005369Y000604D01*
X005295Y000625D01*
X005221Y000649D01*
X005149Y000678D01*
X005078Y000709D01*
X005009Y000745D01*
X004942Y000783D01*
X004877Y000825D01*
X004814Y000870D01*
X004753Y000918D01*
X004695Y000969D01*
X004639Y001023D01*
X004586Y001080D01*
X004536Y001139D01*
X004489Y001201D01*
X004445Y001265D01*
X004405Y001331D01*
X004367Y001399D01*
X004333Y001468D01*
X004303Y001540D01*
X004276Y001612D01*
X004253Y001686D01*
X004233Y001761D01*
X004234Y001761D01*
X004254Y001686D01*
X004277Y001613D01*
X004304Y001540D01*
X004334Y001469D01*
X004368Y001399D01*
X004405Y001331D01*
X004446Y001265D01*
X004490Y001201D01*
X004537Y001140D01*
X004587Y001081D01*
X004640Y001024D01*
X004695Y000970D01*
X004754Y000919D01*
X004814Y000871D01*
X004877Y000826D01*
X004943Y000784D01*
X005010Y000745D01*
X005079Y000710D01*
X005149Y000679D01*
X005222Y000650D01*
X005295Y000626D01*
X005370Y000605D01*
X005445Y000588D01*
X005521Y000574D01*
X005598Y000565D01*
X005676Y000559D01*
X005753Y000557D01*
X005830Y000559D01*
X005908Y000565D01*
X005985Y000574D01*
X006061Y000588D01*
X006136Y000605D01*
X006211Y000626D01*
X006284Y000650D01*
X006357Y000679D01*
X006427Y000710D01*
X006496Y000745D01*
X006563Y000784D01*
X006629Y000826D01*
X006692Y000871D01*
X006752Y000919D01*
X006811Y000970D01*
X006866Y001024D01*
X006919Y001081D01*
X006969Y001140D01*
X007016Y001201D01*
X007060Y001265D01*
X007101Y001331D01*
X007138Y001399D01*
X007172Y001469D01*
X007202Y001540D01*
X007229Y001613D01*
X007252Y001686D01*
X007272Y001761D01*
X007271Y001762D01*
X007251Y001687D01*
X007228Y001613D01*
X007201Y001540D01*
X007171Y001469D01*
X007137Y001399D01*
X007100Y001332D01*
X007059Y001266D01*
X007015Y001202D01*
X006968Y001140D01*
X006918Y001081D01*
X006865Y001025D01*
X006810Y000971D01*
X006752Y000920D01*
X006691Y000872D01*
X006628Y000827D01*
X006563Y000785D01*
X006496Y000746D01*
X006427Y000711D01*
X006356Y000679D01*
X006284Y000651D01*
X006211Y000627D01*
X006136Y000606D01*
X006061Y000589D01*
X005984Y000575D01*
X005908Y000566D01*
X005830Y000560D01*
X005753Y000558D01*
X005676Y000560D01*
X005598Y000566D01*
X005522Y000575D01*
X005445Y000589D01*
X005370Y000606D01*
X005295Y000627D01*
X005222Y000651D01*
X005150Y000679D01*
X005079Y000711D01*
X005010Y000746D01*
X004943Y000785D01*
X004878Y000827D01*
X004815Y000872D01*
X004754Y000920D01*
X004696Y000971D01*
X004641Y001025D01*
X004588Y001081D01*
X004538Y001140D01*
X004491Y001202D01*
X004447Y001266D01*
X004406Y001332D01*
X004369Y001399D01*
X004335Y001469D01*
X004305Y001540D01*
X004278Y001613D01*
X004255Y001687D01*
X004235Y001762D01*
X004236Y001762D01*
X004256Y001687D01*
X004279Y001613D01*
X004306Y001541D01*
X004336Y001469D01*
X004370Y001400D01*
X004407Y001332D01*
X004448Y001266D01*
X004492Y001203D01*
X004539Y001141D01*
X004588Y001082D01*
X004641Y001025D01*
X004697Y000972D01*
X004755Y000921D01*
X004816Y000873D01*
X004879Y000828D01*
X004944Y000786D01*
X005011Y000747D01*
X005080Y000712D01*
X005150Y000680D01*
X005222Y000652D01*
X005296Y000628D01*
X005370Y000607D01*
X005446Y000590D01*
X005522Y000576D01*
X005599Y000567D01*
X005676Y000561D01*
X005753Y000559D01*
X005830Y000561D01*
X005907Y000567D01*
X005984Y000576D01*
X006060Y000590D01*
X006136Y000607D01*
X006210Y000628D01*
X006284Y000652D01*
X006356Y000680D01*
X006426Y000712D01*
X006495Y000747D01*
X006562Y000786D01*
X006627Y000828D01*
X006690Y000873D01*
X006751Y000921D01*
X006809Y000972D01*
X006865Y001025D01*
X006918Y001082D01*
X006967Y001141D01*
X007014Y001203D01*
X007058Y001266D01*
X007099Y001332D01*
X007136Y001400D01*
X007170Y001469D01*
X007200Y001541D01*
X007227Y001613D01*
X007250Y001687D01*
X007270Y001762D01*
X007269Y001762D01*
X007249Y001686D01*
X007225Y001611D01*
X007198Y001537D01*
X007167Y001465D01*
X007132Y001394D01*
X007094Y001325D01*
X007052Y001258D01*
X007007Y001194D01*
X006958Y001132D01*
X006907Y001072D01*
X006853Y001015D01*
X006796Y000961D01*
X006736Y000909D01*
X006673Y000861D01*
X006609Y000816D01*
X006542Y000775D01*
X006473Y000736D01*
X006402Y000702D01*
X006330Y000671D01*
X006256Y000643D01*
X006181Y000620D01*
X006104Y000600D01*
X006027Y000584D01*
X005949Y000572D01*
X005871Y000564D01*
X005792Y000560D01*
X005714Y000560D01*
X005635Y000564D01*
X005557Y000572D01*
X005479Y000584D01*
X005402Y000600D01*
X005325Y000620D01*
X005250Y000643D01*
X005176Y000671D01*
X005104Y000702D01*
X005033Y000736D01*
X004964Y000775D01*
X004897Y000816D01*
X004833Y000861D01*
X004770Y000909D01*
X004710Y000961D01*
X004653Y001015D01*
X004599Y001072D01*
X004548Y001132D01*
X004499Y001194D01*
X004454Y001258D01*
X004412Y001325D01*
X004374Y001394D01*
X004339Y001465D01*
X004308Y001537D01*
X004281Y001611D01*
X004257Y001686D01*
X004237Y001762D01*
X004238Y001762D01*
X004258Y001686D01*
X004282Y001611D01*
X004309Y001537D01*
X004340Y001465D01*
X004375Y001394D01*
X004413Y001326D01*
X004455Y001259D01*
X004500Y001194D01*
X004548Y001132D01*
X004600Y001072D01*
X004654Y001015D01*
X004711Y000961D01*
X004771Y000910D01*
X004833Y000862D01*
X004898Y000817D01*
X004965Y000775D01*
X005034Y000737D01*
X005104Y000703D01*
X005177Y000672D01*
X005250Y000644D01*
X005326Y000621D01*
X005402Y000601D01*
X005479Y000585D01*
X005557Y000573D01*
X005635Y000565D01*
X005714Y000561D01*
X005792Y000561D01*
X005871Y000565D01*
X005949Y000573D01*
X006027Y000585D01*
X006104Y000601D01*
X006180Y000621D01*
X006256Y000644D01*
X006329Y000672D01*
X006402Y000703D01*
X006472Y000737D01*
X006541Y000775D01*
X006608Y000817D01*
X006673Y000862D01*
X006735Y000910D01*
X006795Y000961D01*
X006852Y001015D01*
X006906Y001072D01*
X006958Y001132D01*
X007006Y001194D01*
X007051Y001259D01*
X007093Y001326D01*
X007131Y001394D01*
X007166Y001465D01*
X007197Y001537D01*
X007224Y001611D01*
X007248Y001686D01*
X007268Y001762D01*
X007267Y001763D01*
X007247Y001686D01*
X007224Y001611D01*
X007196Y001538D01*
X007165Y001465D01*
X007130Y001395D01*
X007092Y001326D01*
X007050Y001259D01*
X007005Y001195D01*
X006957Y001133D01*
X006906Y001073D01*
X006851Y001016D01*
X006794Y000962D01*
X006734Y000911D01*
X006672Y000863D01*
X006608Y000818D01*
X006541Y000776D01*
X006472Y000738D01*
X006401Y000704D01*
X006329Y000673D01*
X006255Y000645D01*
X006180Y000622D01*
X006104Y000602D01*
X006027Y000586D01*
X005949Y000574D01*
X005871Y000566D01*
X005792Y000562D01*
X005714Y000562D01*
X005635Y000566D01*
X005557Y000574D01*
X005479Y000586D01*
X005402Y000602D01*
X005326Y000622D01*
X005251Y000645D01*
X005177Y000673D01*
X005105Y000704D01*
X005034Y000738D01*
X004965Y000776D01*
X004898Y000818D01*
X004834Y000863D01*
X004772Y000911D01*
X004712Y000962D01*
X004655Y001016D01*
X004600Y001073D01*
X004549Y001133D01*
X004501Y001195D01*
X004456Y001259D01*
X004414Y001326D01*
X004376Y001395D01*
X004341Y001465D01*
X004310Y001538D01*
X004282Y001611D01*
X004259Y001686D01*
X004239Y001763D01*
X004240Y001763D01*
X004260Y001687D01*
X004283Y001612D01*
X004311Y001538D01*
X004342Y001466D01*
X004377Y001395D01*
X004415Y001327D01*
X004457Y001260D01*
X004502Y001196D01*
X004550Y001133D01*
X004601Y001074D01*
X004655Y001017D01*
X004712Y000963D01*
X004772Y000912D01*
X004834Y000864D01*
X004899Y000819D01*
X004966Y000777D01*
X005034Y000739D01*
X005105Y000705D01*
X005177Y000674D01*
X005251Y000646D01*
X005326Y000623D01*
X005402Y000603D01*
X005479Y000587D01*
X005557Y000575D01*
X005635Y000567D01*
X005714Y000563D01*
X005792Y000563D01*
X005871Y000567D01*
X005949Y000575D01*
X006027Y000587D01*
X006104Y000603D01*
X006180Y000623D01*
X006255Y000646D01*
X006329Y000674D01*
X006401Y000705D01*
X006472Y000739D01*
X006540Y000777D01*
X006607Y000819D01*
X006672Y000864D01*
X006734Y000912D01*
X006794Y000963D01*
X006851Y001017D01*
X006905Y001074D01*
X006956Y001133D01*
X007004Y001196D01*
X007049Y001260D01*
X007091Y001327D01*
X007129Y001395D01*
X007164Y001466D01*
X007195Y001538D01*
X007223Y001612D01*
X007246Y001687D01*
X007266Y001763D01*
X007265Y001763D01*
X007245Y001687D01*
X007222Y001612D01*
X007194Y001538D01*
X007163Y001466D01*
X007128Y001396D01*
X007090Y001327D01*
X007048Y001261D01*
X007004Y001196D01*
X006955Y001134D01*
X006904Y001074D01*
X006850Y001018D01*
X006793Y000964D01*
X006733Y000912D01*
X006671Y000864D01*
X006607Y000820D01*
X006540Y000778D01*
X006471Y000740D01*
X006401Y000705D01*
X006328Y000674D01*
X006255Y000647D01*
X006180Y000624D01*
X006104Y000604D01*
X006027Y000588D01*
X005949Y000576D01*
X005871Y000568D01*
X005792Y000564D01*
X005714Y000564D01*
X005635Y000568D01*
X005557Y000576D01*
X005479Y000588D01*
X005402Y000604D01*
X005326Y000624D01*
X005251Y000647D01*
X005178Y000674D01*
X005105Y000705D01*
X005035Y000740D01*
X004966Y000778D01*
X004899Y000820D01*
X004835Y000864D01*
X004773Y000912D01*
X004713Y000964D01*
X004656Y001018D01*
X004602Y001074D01*
X004551Y001134D01*
X004502Y001196D01*
X004458Y001261D01*
X004416Y001327D01*
X004378Y001396D01*
X004343Y001466D01*
X004312Y001538D01*
X004284Y001612D01*
X004261Y001687D01*
X004241Y001763D01*
X004242Y001763D01*
X004262Y001687D01*
X004285Y001612D01*
X004313Y001539D01*
X004344Y001467D01*
X004379Y001396D01*
X004417Y001328D01*
X004458Y001261D01*
X004503Y001197D01*
X004551Y001135D01*
X004603Y001075D01*
X004657Y001018D01*
X004714Y000964D01*
X004773Y000913D01*
X004836Y000865D01*
X004900Y000820D01*
X004967Y000779D01*
X005035Y000741D01*
X005106Y000706D01*
X005178Y000675D01*
X005252Y000648D01*
X005327Y000625D01*
X005403Y000605D01*
X005480Y000589D01*
X005557Y000577D01*
X005635Y000569D01*
X005714Y000565D01*
X005792Y000565D01*
X005871Y000569D01*
X005949Y000577D01*
X006026Y000589D01*
X006103Y000605D01*
X006179Y000625D01*
X006254Y000648D01*
X006328Y000675D01*
X006400Y000706D01*
X006471Y000741D01*
X006539Y000779D01*
X006606Y000820D01*
X006670Y000865D01*
X006733Y000913D01*
X006792Y000964D01*
X006849Y001018D01*
X006903Y001075D01*
X006955Y001135D01*
X007003Y001197D01*
X007048Y001261D01*
X007089Y001328D01*
X007127Y001396D01*
X007162Y001467D01*
X007193Y001539D01*
X007221Y001612D01*
X007244Y001687D01*
X007264Y001763D01*
X007263Y001763D01*
X007243Y001688D01*
X007220Y001613D01*
X007192Y001539D01*
X007161Y001467D01*
X007127Y001397D01*
X007088Y001328D01*
X007047Y001262D01*
X007002Y001197D01*
X006954Y001135D01*
X006903Y001076D01*
X006848Y001019D01*
X006792Y000965D01*
X006732Y000914D01*
X006670Y000866D01*
X006605Y000821D01*
X006539Y000780D01*
X006470Y000742D01*
X006400Y000707D01*
X006328Y000676D01*
X006254Y000649D01*
X006179Y000626D01*
X006103Y000606D01*
X006026Y000590D01*
X005949Y000578D01*
X005871Y000570D01*
X005792Y000566D01*
X005714Y000566D01*
X005635Y000570D01*
X005557Y000578D01*
X005480Y000590D01*
X005403Y000606D01*
X005327Y000626D01*
X005252Y000649D01*
X005178Y000676D01*
X005106Y000707D01*
X005036Y000742D01*
X004967Y000780D01*
X004901Y000821D01*
X004836Y000866D01*
X004774Y000914D01*
X004714Y000965D01*
X004658Y001019D01*
X004603Y001076D01*
X004552Y001135D01*
X004504Y001197D01*
X004459Y001262D01*
X004418Y001328D01*
X004379Y001397D01*
X004345Y001467D01*
X004314Y001539D01*
X004286Y001613D01*
X004263Y001688D01*
X004243Y001763D01*
X004244Y001764D01*
X004264Y001688D01*
X004287Y001613D01*
X004315Y001540D01*
X004346Y001468D01*
X004380Y001397D01*
X004418Y001329D01*
X004460Y001262D01*
X004505Y001198D01*
X004553Y001136D01*
X004604Y001077D01*
X004658Y001020D01*
X004715Y000966D01*
X004775Y000915D01*
X004837Y000867D01*
X004901Y000822D01*
X004968Y000781D01*
X005036Y000743D01*
X005107Y000708D01*
X005179Y000677D01*
X005252Y000650D01*
X005327Y000627D01*
X005403Y000607D01*
X005480Y000591D01*
X005557Y000579D01*
X005635Y000571D01*
X005714Y000567D01*
X005792Y000567D01*
X005871Y000571D01*
X005949Y000579D01*
X006026Y000591D01*
X006103Y000607D01*
X006179Y000627D01*
X006254Y000650D01*
X006327Y000677D01*
X006399Y000708D01*
X006470Y000743D01*
X006538Y000781D01*
X006605Y000822D01*
X006669Y000867D01*
X006731Y000915D01*
X006791Y000966D01*
X006848Y001020D01*
X006902Y001077D01*
X006953Y001136D01*
X007001Y001198D01*
X007046Y001262D01*
X007088Y001329D01*
X007126Y001397D01*
X007160Y001468D01*
X007191Y001540D01*
X007219Y001613D01*
X007242Y001688D01*
X007262Y001764D01*
X007261Y001764D01*
X007241Y001688D01*
X007218Y001613D01*
X007190Y001540D01*
X007159Y001468D01*
X007125Y001398D01*
X007087Y001329D01*
X007045Y001263D01*
X007000Y001198D01*
X006952Y001137D01*
X006901Y001077D01*
X006847Y001020D01*
X006790Y000967D01*
X006731Y000916D01*
X006669Y000868D01*
X006604Y000823D01*
X006538Y000782D01*
X006469Y000744D01*
X006399Y000709D01*
X006327Y000678D01*
X006253Y000651D01*
X006179Y000628D01*
X006103Y000608D01*
X006026Y000592D01*
X005948Y000580D01*
X005870Y000572D01*
X005792Y000568D01*
X005714Y000568D01*
X005636Y000572D01*
X005558Y000580D01*
X005480Y000592D01*
X005403Y000608D01*
X005327Y000628D01*
X005253Y000651D01*
X005179Y000678D01*
X005107Y000709D01*
X005037Y000744D01*
X004968Y000782D01*
X004902Y000823D01*
X004837Y000868D01*
X004775Y000916D01*
X004716Y000967D01*
X004659Y001020D01*
X004605Y001077D01*
X004554Y001137D01*
X004506Y001198D01*
X004461Y001263D01*
X004419Y001329D01*
X004381Y001398D01*
X004347Y001468D01*
X004316Y001540D01*
X004288Y001613D01*
X004265Y001688D01*
X004245Y001764D01*
X004246Y001764D01*
X004266Y001688D01*
X004289Y001614D01*
X004316Y001540D01*
X004347Y001468D01*
X004382Y001398D01*
X004420Y001330D01*
X004462Y001263D01*
X004507Y001199D01*
X004555Y001137D01*
X004606Y001078D01*
X004660Y001021D01*
X004716Y000967D01*
X004776Y000916D01*
X004838Y000868D01*
X004902Y000824D01*
X004969Y000782D01*
X005037Y000744D01*
X005108Y000710D01*
X005180Y000679D01*
X005253Y000652D01*
X005328Y000629D01*
X005404Y000609D01*
X005480Y000593D01*
X005558Y000581D01*
X005636Y000573D01*
X005714Y000569D01*
X005792Y000569D01*
X005870Y000573D01*
X005948Y000581D01*
X006026Y000593D01*
X006102Y000609D01*
X006178Y000629D01*
X006253Y000652D01*
X006326Y000679D01*
X006398Y000710D01*
X006469Y000744D01*
X006537Y000782D01*
X006604Y000824D01*
X006668Y000868D01*
X006730Y000916D01*
X006790Y000967D01*
X006846Y001021D01*
X006900Y001078D01*
X006951Y001137D01*
X006999Y001199D01*
X007044Y001263D01*
X007086Y001330D01*
X007124Y001398D01*
X007159Y001468D01*
X007190Y001540D01*
X007217Y001614D01*
X007240Y001688D01*
X007260Y001764D01*
X007259Y001764D01*
X007240Y001689D01*
X007216Y001614D01*
X007189Y001541D01*
X007158Y001469D01*
X007123Y001399D01*
X007085Y001330D01*
X007043Y001264D01*
X006999Y001200D01*
X006951Y001138D01*
X006900Y001079D01*
X006846Y001022D01*
X006789Y000968D01*
X006729Y000917D01*
X006667Y000869D01*
X006603Y000825D01*
X006537Y000783D01*
X006468Y000745D01*
X006398Y000711D01*
X006326Y000680D01*
X006253Y000653D01*
X006178Y000630D01*
X006102Y000610D01*
X006026Y000594D01*
X005948Y000582D01*
X005870Y000574D01*
X005792Y000570D01*
X005714Y000570D01*
X005636Y000574D01*
X005558Y000582D01*
X005480Y000594D01*
X005404Y000610D01*
X005328Y000630D01*
X005253Y000653D01*
X005180Y000680D01*
X005108Y000711D01*
X005038Y000745D01*
X004969Y000783D01*
X004903Y000825D01*
X004839Y000869D01*
X004777Y000917D01*
X004717Y000968D01*
X004660Y001022D01*
X004606Y001079D01*
X004555Y001138D01*
X004507Y001200D01*
X004463Y001264D01*
X004421Y001330D01*
X004383Y001399D01*
X004348Y001469D01*
X004317Y001541D01*
X004290Y001614D01*
X004266Y001689D01*
X004247Y001764D01*
X004248Y001765D01*
X004267Y001689D01*
X004291Y001614D01*
X004318Y001541D01*
X004349Y001469D01*
X004384Y001399D01*
X004422Y001331D01*
X004463Y001264D01*
X004508Y001200D01*
X004556Y001138D01*
X004607Y001079D01*
X004661Y001023D01*
X004718Y000969D01*
X004777Y000918D01*
X004839Y000870D01*
X004903Y000825D01*
X004970Y000784D01*
X005038Y000746D01*
X005108Y000712D01*
X005180Y000681D01*
X005254Y000654D01*
X005328Y000630D01*
X005404Y000611D01*
X005481Y000595D01*
X005558Y000583D01*
X005636Y000575D01*
X005714Y000571D01*
X005792Y000571D01*
X005870Y000575D01*
X005948Y000583D01*
X006025Y000595D01*
X006102Y000611D01*
X006178Y000630D01*
X006252Y000654D01*
X006326Y000681D01*
X006398Y000712D01*
X006468Y000746D01*
X006536Y000784D01*
X006603Y000825D01*
X006667Y000870D01*
X006729Y000918D01*
X006788Y000969D01*
X006845Y001023D01*
X006899Y001079D01*
X006950Y001138D01*
X006998Y001200D01*
X007043Y001264D01*
X007084Y001331D01*
X007122Y001399D01*
X007157Y001469D01*
X007188Y001541D01*
X007215Y001614D01*
X007239Y001689D01*
X007258Y001765D01*
X007257Y001765D01*
X007238Y001689D01*
X007214Y001615D01*
X007187Y001541D01*
X007156Y001470D01*
X007121Y001400D01*
X007083Y001331D01*
X007042Y001265D01*
X006997Y001201D01*
X006949Y001139D01*
X006898Y001080D01*
X006844Y001023D01*
X006788Y000969D01*
X006728Y000919D01*
X006666Y000871D01*
X006602Y000826D01*
X006536Y000785D01*
X006467Y000747D01*
X006397Y000713D01*
X006325Y000682D01*
X006252Y000655D01*
X006177Y000631D01*
X006102Y000612D01*
X006025Y000596D01*
X005948Y000584D01*
X005870Y000576D01*
X005792Y000572D01*
X005714Y000572D01*
X005636Y000576D01*
X005558Y000584D01*
X005481Y000596D01*
X005404Y000612D01*
X005329Y000631D01*
X005254Y000655D01*
X005181Y000682D01*
X005109Y000713D01*
X005039Y000747D01*
X004970Y000785D01*
X004904Y000826D01*
X004840Y000871D01*
X004778Y000919D01*
X004718Y000969D01*
X004662Y001023D01*
X004608Y001080D01*
X004557Y001139D01*
X004509Y001201D01*
X004464Y001265D01*
X004423Y001331D01*
X004385Y001400D01*
X004350Y001470D01*
X004319Y001541D01*
X004292Y001615D01*
X004268Y001689D01*
X004249Y001765D01*
X004250Y001765D01*
X004269Y001689D01*
X004293Y001615D01*
X004320Y001542D01*
X004351Y001470D01*
X004386Y001400D01*
X004424Y001332D01*
X004465Y001266D01*
X004510Y001201D01*
X004558Y001140D01*
X004609Y001081D01*
X004662Y001024D01*
X004719Y000970D01*
X004778Y000919D01*
X004840Y000872D01*
X004904Y000827D01*
X004971Y000786D01*
X005039Y000748D01*
X005109Y000714D01*
X005181Y000683D01*
X005254Y000656D01*
X005329Y000632D01*
X005404Y000613D01*
X005481Y000597D01*
X005558Y000585D01*
X005636Y000577D01*
X005714Y000573D01*
X005792Y000573D01*
X005870Y000577D01*
X005948Y000585D01*
X006025Y000597D01*
X006102Y000613D01*
X006177Y000632D01*
X006252Y000656D01*
X006325Y000683D01*
X006397Y000714D01*
X006467Y000748D01*
X006535Y000786D01*
X006602Y000827D01*
X006666Y000872D01*
X006728Y000919D01*
X006787Y000970D01*
X006844Y001024D01*
X006897Y001081D01*
X006948Y001140D01*
X006996Y001201D01*
X007041Y001266D01*
X007082Y001332D01*
X007120Y001400D01*
X007155Y001470D01*
X007186Y001542D01*
X007213Y001615D01*
X007237Y001689D01*
X007256Y001765D01*
X007255Y001765D01*
X007236Y001690D01*
X007212Y001615D01*
X007185Y001542D01*
X007154Y001470D01*
X007120Y001400D01*
X007082Y001332D01*
X007040Y001266D01*
X006995Y001202D01*
X006948Y001140D01*
X006897Y001081D01*
X006843Y001025D01*
X006786Y000971D01*
X006727Y000920D01*
X006665Y000872D01*
X006601Y000828D01*
X006535Y000787D01*
X006466Y000749D01*
X006396Y000715D01*
X006325Y000684D01*
X006251Y000657D01*
X006177Y000633D01*
X006101Y000614D01*
X006025Y000598D01*
X005948Y000586D01*
X005870Y000578D01*
X005792Y000574D01*
X005714Y000574D01*
X005636Y000578D01*
X005558Y000586D01*
X005481Y000598D01*
X005405Y000614D01*
X005329Y000633D01*
X005255Y000657D01*
X005181Y000684D01*
X005110Y000715D01*
X005040Y000749D01*
X004971Y000787D01*
X004905Y000828D01*
X004841Y000872D01*
X004779Y000920D01*
X004720Y000971D01*
X004663Y001025D01*
X004609Y001081D01*
X004558Y001140D01*
X004511Y001202D01*
X004466Y001266D01*
X004424Y001332D01*
X004386Y001400D01*
X004352Y001470D01*
X004321Y001542D01*
X004294Y001615D01*
X004270Y001690D01*
X004251Y001765D01*
X004252Y001766D01*
X004271Y001690D01*
X004295Y001616D01*
X004322Y001543D01*
X004353Y001471D01*
X004387Y001401D01*
X004425Y001333D01*
X004467Y001267D01*
X004511Y001203D01*
X004559Y001141D01*
X004610Y001082D01*
X004664Y001025D01*
X004720Y000972D01*
X004780Y000921D01*
X004841Y000873D01*
X004906Y000829D01*
X004972Y000788D01*
X005040Y000750D01*
X005110Y000715D01*
X005182Y000685D01*
X005255Y000658D01*
X005329Y000634D01*
X005405Y000615D01*
X005481Y000599D01*
X005558Y000587D01*
X005636Y000579D01*
X005714Y000575D01*
X005792Y000575D01*
X005870Y000579D01*
X005948Y000587D01*
X006025Y000599D01*
X006101Y000615D01*
X006177Y000634D01*
X006251Y000658D01*
X006324Y000685D01*
X006396Y000715D01*
X006466Y000750D01*
X006534Y000788D01*
X006600Y000829D01*
X006665Y000873D01*
X006726Y000921D01*
X006786Y000972D01*
X006842Y001025D01*
X006896Y001082D01*
X006947Y001141D01*
X006995Y001203D01*
X007039Y001267D01*
X007081Y001333D01*
X007119Y001401D01*
X007153Y001471D01*
X007184Y001543D01*
X007211Y001616D01*
X007235Y001690D01*
X007254Y001766D01*
X007253Y001766D01*
X007234Y001690D01*
X007210Y001616D01*
X007183Y001543D01*
X007152Y001471D01*
X007118Y001401D01*
X007080Y001333D01*
X007038Y001267D01*
X006994Y001203D01*
X006946Y001142D01*
X006895Y001083D01*
X006841Y001026D01*
X006785Y000972D01*
X006726Y000922D01*
X006664Y000874D01*
X006600Y000830D01*
X006534Y000788D01*
X006466Y000751D01*
X006396Y000716D01*
X006324Y000686D01*
X006251Y000659D01*
X006176Y000635D01*
X006101Y000616D01*
X006024Y000600D01*
X005947Y000588D01*
X005870Y000580D01*
X005792Y000576D01*
X005714Y000576D01*
X005636Y000580D01*
X005559Y000588D01*
X005482Y000600D01*
X005405Y000616D01*
X005330Y000635D01*
X005255Y000659D01*
X005182Y000686D01*
X005110Y000716D01*
X005040Y000751D01*
X004972Y000788D01*
X004906Y000830D01*
X004842Y000874D01*
X004780Y000922D01*
X004721Y000972D01*
X004665Y001026D01*
X004611Y001083D01*
X004560Y001142D01*
X004512Y001203D01*
X004468Y001267D01*
X004426Y001333D01*
X004388Y001401D01*
X004354Y001471D01*
X004323Y001543D01*
X004296Y001616D01*
X004272Y001690D01*
X004253Y001766D01*
X004254Y001766D01*
X004273Y001691D01*
X004297Y001616D01*
X004324Y001543D01*
X004355Y001472D01*
X004389Y001402D01*
X004427Y001334D01*
X004468Y001268D01*
X004513Y001204D01*
X004561Y001142D01*
X004612Y001083D01*
X004665Y001027D01*
X004722Y000973D01*
X004781Y000923D01*
X004843Y000875D01*
X004907Y000830D01*
X004973Y000789D01*
X005041Y000752D01*
X005111Y000717D01*
X005183Y000687D01*
X005256Y000660D01*
X005330Y000636D01*
X005405Y000617D01*
X005482Y000601D01*
X005559Y000589D01*
X005636Y000581D01*
X005714Y000577D01*
X005792Y000577D01*
X005870Y000581D01*
X005947Y000589D01*
X006024Y000601D01*
X006101Y000617D01*
X006176Y000636D01*
X006250Y000660D01*
X006323Y000687D01*
X006395Y000717D01*
X006465Y000752D01*
X006533Y000789D01*
X006599Y000830D01*
X006663Y000875D01*
X006725Y000923D01*
X006784Y000973D01*
X006841Y001027D01*
X006894Y001083D01*
X006945Y001142D01*
X006993Y001204D01*
X007038Y001268D01*
X007079Y001334D01*
X007117Y001402D01*
X007151Y001472D01*
X007182Y001543D01*
X007209Y001616D01*
X007233Y001691D01*
X007252Y001766D01*
X007251Y001766D01*
X007232Y001691D01*
X007208Y001617D01*
X007181Y001544D01*
X007150Y001472D01*
X007116Y001402D01*
X007078Y001334D01*
X007037Y001268D01*
X006992Y001204D01*
X006944Y001143D01*
X006894Y001084D01*
X006840Y001028D01*
X006784Y000974D01*
X006724Y000923D01*
X006663Y000876D01*
X006599Y000831D01*
X006533Y000790D01*
X006465Y000752D01*
X006395Y000718D01*
X006323Y000687D01*
X006250Y000660D01*
X006176Y000637D01*
X006100Y000618D01*
X006024Y000602D01*
X005947Y000590D01*
X005870Y000582D01*
X005792Y000578D01*
X005714Y000578D01*
X005636Y000582D01*
X005559Y000590D01*
X005482Y000602D01*
X005406Y000618D01*
X005330Y000637D01*
X005256Y000660D01*
X005183Y000687D01*
X005111Y000718D01*
X005041Y000752D01*
X004973Y000790D01*
X004907Y000831D01*
X004843Y000876D01*
X004782Y000923D01*
X004722Y000974D01*
X004666Y001028D01*
X004612Y001084D01*
X004562Y001143D01*
X004514Y001204D01*
X004469Y001268D01*
X004428Y001334D01*
X004390Y001402D01*
X004356Y001472D01*
X004325Y001544D01*
X004298Y001617D01*
X004274Y001691D01*
X004255Y001766D01*
D16*
X002611Y003076D02*
X002361Y002826D01*
X001861Y002826D01*
X001611Y003076D01*
X001611Y003576D01*
X001861Y003826D01*
X001611Y004076D01*
X001611Y004576D01*
X001861Y004826D01*
X001611Y005076D01*
X001611Y005576D01*
X001861Y005826D01*
X001611Y006076D01*
X001611Y006576D01*
X001861Y006826D01*
X002361Y006826D01*
X002611Y006576D01*
X002611Y006076D01*
X002361Y005826D01*
X002611Y005576D01*
X002611Y005076D01*
X002361Y004826D01*
X001861Y004826D01*
X002361Y004826D02*
X002611Y004576D01*
X002611Y004076D01*
X002361Y003826D01*
X002611Y003576D01*
X002611Y003076D01*
X002361Y003826D02*
X001861Y003826D01*
X001861Y005826D02*
X002361Y005826D01*
X008619Y006076D02*
X008869Y005826D01*
X009369Y005826D01*
X009619Y006076D01*
X009619Y006576D01*
X009369Y006826D01*
X008869Y006826D01*
X008619Y006576D01*
X008619Y006076D01*
X008869Y005826D02*
X008619Y005576D01*
X008619Y005076D01*
X008869Y004826D01*
X009369Y004826D01*
X009619Y004576D01*
X009619Y004076D01*
X009369Y003826D01*
X009619Y003576D01*
X009619Y003076D01*
X009369Y002826D01*
X008869Y002826D01*
X008619Y003076D01*
X008619Y003576D01*
X008869Y003826D01*
X008619Y004076D01*
X008619Y004576D01*
X008869Y004826D01*
X009369Y004826D02*
X009619Y005076D01*
X009619Y005576D01*
X009369Y005826D01*
X009369Y003826D02*
X008869Y003826D01*
M02*
