G75*
G70*
%OFA0B0*%
%FSLAX24Y24*%
%IPPOS*%
%LPD*%
%AMOC8*
5,1,8,0,0,1.08239X$1,22.5*
%
%ADD10R,0.1024X0.1024*%
%ADD11R,0.0118X0.0315*%
%ADD12R,0.0315X0.0118*%
%ADD13R,0.0394X0.0394*%
%ADD14R,0.1575X0.0787*%
%ADD15R,0.0394X0.0433*%
%ADD16R,0.0433X0.0394*%
%ADD17C,0.0600*%
%ADD18C,0.0396*%
%ADD19C,0.0100*%
%ADD20C,0.0320*%
%ADD21C,0.0120*%
%ADD22C,0.0160*%
%ADD23C,0.0080*%
%ADD24C,0.0500*%
D10*
X005761Y006652D03*
D11*
X005859Y007420D03*
X005662Y007420D03*
X005465Y007420D03*
X005269Y007420D03*
X006056Y007420D03*
X006253Y007420D03*
X006253Y005885D03*
X006056Y005885D03*
X005859Y005885D03*
X005662Y005885D03*
X005465Y005885D03*
X005269Y005885D03*
D12*
X004993Y006160D03*
X004993Y006357D03*
X004993Y006554D03*
X004993Y006751D03*
X004993Y006948D03*
X004993Y007145D03*
X006528Y007145D03*
X006528Y006948D03*
X006528Y006751D03*
X006528Y006554D03*
X006528Y006357D03*
X006528Y006160D03*
D13*
X005650Y005007D03*
X005052Y004971D03*
X004186Y004971D03*
X003477Y004963D03*
X003477Y004097D03*
X003450Y003487D03*
X004316Y003487D03*
X005650Y004141D03*
X004276Y006278D03*
X004269Y007026D03*
X003402Y007026D03*
X003410Y006278D03*
X004509Y008239D03*
X005375Y008239D03*
D14*
X004355Y002117D03*
X007150Y002117D03*
D15*
X007276Y004763D03*
X007052Y005357D03*
X007044Y005987D03*
X007753Y005987D03*
X007761Y005357D03*
X007985Y004763D03*
X007737Y006735D03*
X007745Y007365D03*
X007036Y007365D03*
X007028Y006735D03*
X004206Y007660D03*
X003497Y007660D03*
X003477Y005629D03*
X004186Y005629D03*
D16*
X006442Y004861D03*
X006442Y004152D03*
X005969Y008239D03*
X005969Y008948D03*
X006757Y008963D03*
X006757Y008255D03*
D17*
X008819Y006326D02*
X009419Y006326D01*
X009419Y005326D02*
X008819Y005326D01*
X008819Y004326D02*
X009419Y004326D01*
X009419Y003326D02*
X008819Y003326D01*
X002411Y003326D02*
X001811Y003326D01*
X001811Y004326D02*
X002411Y004326D01*
X002411Y005326D02*
X001811Y005326D01*
X001811Y006326D02*
X002411Y006326D01*
D18*
X004198Y004314D03*
X004906Y004117D03*
X007072Y004117D03*
X007662Y002897D03*
X005969Y006440D03*
X005536Y006912D03*
X004828Y007621D03*
X004513Y008881D03*
X007387Y008960D03*
X007465Y008172D03*
D19*
X000550Y009143D02*
X000550Y000430D01*
X010680Y000430D01*
X010680Y009143D01*
X007123Y009143D01*
X007123Y009012D01*
X006805Y009012D01*
X006805Y008915D01*
X007123Y008915D01*
X007123Y008747D01*
X007113Y008709D01*
X007093Y008675D01*
X007070Y008652D01*
X007183Y008539D01*
X007183Y007971D01*
X007060Y007848D01*
X007027Y007848D01*
X007027Y007843D01*
X007005Y007792D01*
X007320Y007792D01*
X007433Y007679D01*
X007456Y007702D01*
X007490Y007721D01*
X007528Y007732D01*
X007696Y007732D01*
X007696Y007413D01*
X007793Y007413D01*
X008092Y007413D01*
X008092Y007601D01*
X008082Y007639D01*
X008062Y007674D01*
X008034Y007702D01*
X008000Y007721D01*
X007961Y007732D01*
X007793Y007732D01*
X007793Y007413D01*
X007793Y007317D01*
X008092Y007317D01*
X008092Y007129D01*
X008082Y007091D01*
X008062Y007056D01*
X008051Y007046D01*
X008054Y007044D01*
X008074Y007010D01*
X008084Y006971D01*
X008084Y006784D01*
X007785Y006784D01*
X007689Y006784D01*
X007689Y006999D01*
X007696Y006999D01*
X007696Y007317D01*
X007793Y007317D01*
X007793Y007102D01*
X007785Y007102D01*
X007785Y006784D01*
X007785Y006687D01*
X008084Y006687D01*
X008084Y006499D01*
X008074Y006461D01*
X008054Y006426D01*
X008039Y006411D01*
X008160Y006291D01*
X008160Y005902D01*
X008360Y006102D01*
X008309Y006224D01*
X008309Y006427D01*
X008387Y006615D01*
X008530Y006758D01*
X008717Y006836D01*
X009520Y006836D01*
X009708Y006758D01*
X009851Y006615D01*
X009929Y006427D01*
X009929Y006224D01*
X009851Y006037D01*
X009708Y005893D01*
X009520Y005816D01*
X008837Y005816D01*
X008797Y005776D01*
X009069Y005776D01*
X009069Y005376D01*
X009169Y005376D01*
X009169Y005776D01*
X009454Y005776D01*
X009524Y005765D01*
X009592Y005743D01*
X009655Y005711D01*
X009712Y005669D01*
X009762Y005619D01*
X009804Y005562D01*
X009836Y005498D01*
X009858Y005431D01*
X009867Y005376D01*
X009169Y005376D01*
X009169Y005276D01*
X009867Y005276D01*
X009858Y005220D01*
X009836Y005153D01*
X009804Y005090D01*
X009762Y005033D01*
X009712Y004982D01*
X009655Y004941D01*
X009592Y004909D01*
X009524Y004887D01*
X009454Y004876D01*
X009169Y004876D01*
X009169Y005276D01*
X009069Y005276D01*
X009069Y004876D01*
X008783Y004876D01*
X008714Y004887D01*
X008646Y004909D01*
X008583Y004941D01*
X008526Y004982D01*
X008523Y004985D01*
X008523Y004977D01*
X008482Y004877D01*
X008406Y004801D01*
X008406Y004801D01*
X008392Y004788D01*
X008392Y004620D01*
X008530Y004758D01*
X008717Y004836D01*
X009520Y004836D01*
X009708Y004758D01*
X009851Y004615D01*
X009929Y004427D01*
X009929Y004224D01*
X009851Y004037D01*
X009708Y003893D01*
X009544Y003826D01*
X009708Y003758D01*
X009851Y003615D01*
X009929Y003427D01*
X009929Y003224D01*
X009851Y003037D01*
X009708Y002893D01*
X009520Y002816D01*
X008717Y002816D01*
X008530Y002893D01*
X008387Y003037D01*
X008309Y003224D01*
X008309Y003427D01*
X008387Y003615D01*
X008530Y003758D01*
X008693Y003826D01*
X008593Y003867D01*
X008158Y003433D01*
X008066Y003395D01*
X006628Y003395D01*
X006536Y003433D01*
X006466Y003503D01*
X006230Y003739D01*
X006227Y003746D01*
X006138Y003746D01*
X006042Y003842D01*
X006020Y003820D01*
X006020Y003339D01*
X005964Y003203D01*
X005353Y002591D01*
X005353Y001636D01*
X005230Y001513D01*
X003481Y001513D01*
X003358Y001636D01*
X003358Y002598D01*
X003481Y002721D01*
X003946Y002721D01*
X003946Y003166D01*
X003909Y003203D01*
X003909Y003394D01*
X003856Y003267D01*
X003856Y003203D01*
X003733Y003080D01*
X003693Y003080D01*
X003549Y002936D01*
X003380Y002866D01*
X002633Y002866D01*
X002512Y002816D01*
X001710Y002816D01*
X001522Y002893D01*
X001379Y003037D01*
X001301Y003224D01*
X001301Y003427D01*
X001379Y003615D01*
X001522Y003758D01*
X001710Y003836D01*
X002512Y003836D01*
X002633Y003786D01*
X003058Y003786D01*
X003078Y003806D01*
X003070Y003813D01*
X003070Y004381D01*
X003193Y004504D01*
X003761Y004504D01*
X003884Y004381D01*
X003884Y003813D01*
X003849Y003778D01*
X003856Y003771D01*
X003856Y003707D01*
X003909Y003580D01*
X003909Y003771D01*
X004032Y003894D01*
X004557Y003894D01*
X004498Y004036D01*
X004498Y004198D01*
X004560Y004348D01*
X004654Y004442D01*
X004654Y004678D01*
X004645Y004688D01*
X004645Y005255D01*
X004768Y005378D01*
X004833Y005378D01*
X004833Y005785D01*
X004874Y005884D01*
X004881Y005891D01*
X004748Y005891D01*
X004739Y005900D01*
X004589Y005900D01*
X004560Y005872D01*
X004531Y005872D01*
X004533Y005865D01*
X004533Y005677D01*
X004234Y005677D01*
X004234Y005580D01*
X004234Y005262D01*
X004234Y005020D01*
X004137Y005020D01*
X004137Y004923D01*
X003839Y004923D01*
X003839Y004755D01*
X003849Y004717D01*
X003869Y004682D01*
X003897Y004654D01*
X003931Y004635D01*
X003969Y004624D01*
X004137Y004624D01*
X004137Y004923D01*
X004234Y004923D01*
X004234Y004624D01*
X004402Y004624D01*
X004441Y004635D01*
X004475Y004654D01*
X004503Y004682D01*
X004522Y004717D01*
X004533Y004755D01*
X004533Y004923D01*
X004234Y004923D01*
X004234Y005020D01*
X004533Y005020D01*
X004533Y005188D01*
X004522Y005226D01*
X004503Y005260D01*
X004475Y005288D01*
X004471Y005290D01*
X004475Y005292D01*
X004503Y005320D01*
X004522Y005354D01*
X004533Y005393D01*
X004533Y005580D01*
X004234Y005580D01*
X004137Y005580D01*
X004137Y005020D01*
X003839Y005020D01*
X003839Y005188D01*
X003849Y005226D01*
X003869Y005260D01*
X003897Y005288D01*
X003900Y005290D01*
X003897Y005292D01*
X003874Y005315D01*
X003800Y005242D01*
X003814Y005218D01*
X003824Y005180D01*
X003824Y005012D01*
X003526Y005012D01*
X003526Y004915D01*
X003824Y004915D01*
X003824Y004747D01*
X003814Y004709D01*
X003794Y004675D01*
X003766Y004647D01*
X003732Y004627D01*
X003694Y004617D01*
X003526Y004617D01*
X003526Y004915D01*
X003429Y004915D01*
X003429Y004617D01*
X003261Y004617D01*
X003222Y004627D01*
X003188Y004647D01*
X003160Y004675D01*
X003141Y004709D01*
X003130Y004747D01*
X003130Y004915D01*
X003429Y004915D01*
X003429Y005012D01*
X003130Y005012D01*
X003130Y005153D01*
X003010Y005153D01*
X002973Y005116D01*
X002973Y005116D01*
X002844Y004987D01*
X002758Y004951D01*
X002700Y004893D01*
X002512Y004816D01*
X001710Y004816D01*
X001522Y004893D01*
X001379Y005037D01*
X001301Y005224D01*
X001301Y005427D01*
X001379Y005615D01*
X001522Y005758D01*
X001685Y005826D01*
X001522Y005893D01*
X001379Y006037D01*
X001301Y006224D01*
X001301Y006427D01*
X001379Y006615D01*
X001522Y006758D01*
X001710Y006836D01*
X001970Y006836D01*
X002551Y007416D01*
X002720Y007486D01*
X003032Y007486D01*
X003032Y007639D01*
X003089Y007775D01*
X003090Y007777D01*
X003090Y007964D01*
X003213Y008087D01*
X003781Y008087D01*
X003894Y007974D01*
X003917Y007997D01*
X003951Y008017D01*
X003989Y008027D01*
X004157Y008027D01*
X004157Y007709D01*
X004254Y007709D01*
X004254Y007902D01*
X004254Y007902D01*
X004220Y007922D01*
X004192Y007950D01*
X004172Y007984D01*
X004162Y008022D01*
X004162Y008191D01*
X004460Y008191D01*
X004460Y008287D01*
X004162Y008287D01*
X004162Y008456D01*
X004172Y008494D01*
X004192Y008528D01*
X004220Y008556D01*
X004254Y008576D01*
X004292Y008586D01*
X004460Y008586D01*
X004460Y008287D01*
X004557Y008287D01*
X004856Y008287D01*
X004856Y008456D01*
X004845Y008494D01*
X004826Y008528D01*
X004798Y008556D01*
X004763Y008576D01*
X004725Y008586D01*
X004557Y008586D01*
X004557Y008287D01*
X004557Y008191D01*
X004856Y008191D01*
X004856Y008029D01*
X004909Y008029D01*
X004968Y008005D01*
X004968Y008523D01*
X005091Y008646D01*
X005561Y008646D01*
X005543Y008664D01*
X005543Y009143D01*
X000550Y009143D01*
X000550Y009045D02*
X005543Y009045D01*
X005543Y008947D02*
X000550Y008947D01*
X000550Y008848D02*
X005543Y008848D01*
X005543Y008750D02*
X000550Y008750D01*
X000550Y008651D02*
X005556Y008651D01*
X005969Y008948D02*
X006363Y008554D01*
X006363Y007897D01*
X006284Y007818D01*
X005969Y007818D01*
X005859Y007708D01*
X005859Y007420D01*
X005662Y007420D02*
X005662Y007865D01*
X005851Y008054D01*
X005851Y008121D01*
X005969Y008239D01*
X005465Y008149D02*
X005465Y007420D01*
X005269Y007420D02*
X005269Y008133D01*
X004968Y008159D02*
X004856Y008159D01*
X004856Y008060D02*
X004968Y008060D01*
X004968Y008257D02*
X004557Y008257D01*
X004460Y008257D02*
X000550Y008257D01*
X000550Y008159D02*
X004162Y008159D01*
X004162Y008060D02*
X003808Y008060D01*
X004157Y007962D02*
X004185Y007962D01*
X004157Y007863D02*
X004254Y007863D01*
X004254Y007765D02*
X004157Y007765D01*
X004162Y008356D02*
X000550Y008356D01*
X000550Y008454D02*
X004162Y008454D01*
X004216Y008553D02*
X000550Y008553D01*
X000550Y008060D02*
X003186Y008060D01*
X003090Y007962D02*
X000550Y007962D01*
X000550Y007863D02*
X003090Y007863D01*
X003084Y007765D02*
X000550Y007765D01*
X000550Y007666D02*
X003043Y007666D01*
X003032Y007568D02*
X000550Y007568D01*
X000550Y007469D02*
X002678Y007469D01*
X002505Y007371D02*
X000550Y007371D01*
X000550Y007272D02*
X002407Y007272D01*
X002308Y007174D02*
X000550Y007174D01*
X000550Y007075D02*
X002210Y007075D01*
X002111Y006977D02*
X000550Y006977D01*
X000550Y006878D02*
X002013Y006878D01*
X001574Y006780D02*
X000550Y006780D01*
X000550Y006681D02*
X001445Y006681D01*
X001365Y006583D02*
X000550Y006583D01*
X000550Y006484D02*
X001325Y006484D01*
X001301Y006386D02*
X000550Y006386D01*
X000550Y006287D02*
X001301Y006287D01*
X001316Y006189D02*
X000550Y006189D01*
X000550Y006090D02*
X001357Y006090D01*
X001424Y005992D02*
X000550Y005992D01*
X000550Y005893D02*
X001523Y005893D01*
X001610Y005795D02*
X000550Y005795D01*
X000550Y005696D02*
X001460Y005696D01*
X001372Y005598D02*
X000550Y005598D01*
X000550Y005499D02*
X001331Y005499D01*
X001301Y005401D02*
X000550Y005401D01*
X000550Y005302D02*
X001301Y005302D01*
X001310Y005204D02*
X000550Y005204D01*
X000550Y005105D02*
X001350Y005105D01*
X001409Y005007D02*
X000550Y005007D01*
X000550Y004908D02*
X001507Y004908D01*
X001576Y004711D02*
X000550Y004711D01*
X000550Y004613D02*
X001463Y004613D01*
X001468Y004619D02*
X001426Y004562D01*
X001394Y004498D01*
X001372Y004431D01*
X001363Y004376D01*
X002061Y004376D01*
X002061Y004776D01*
X001776Y004776D01*
X001706Y004765D01*
X001638Y004743D01*
X001575Y004711D01*
X001518Y004669D01*
X001468Y004619D01*
X001402Y004514D02*
X000550Y004514D01*
X000550Y004416D02*
X001370Y004416D01*
X001363Y004276D02*
X001372Y004220D01*
X001394Y004153D01*
X001426Y004090D01*
X001468Y004033D01*
X001518Y003982D01*
X001575Y003941D01*
X001638Y003909D01*
X001706Y003887D01*
X001776Y003876D01*
X002061Y003876D01*
X002061Y004276D01*
X001363Y004276D01*
X001373Y004219D02*
X000550Y004219D01*
X000550Y004317D02*
X002061Y004317D01*
X002061Y004276D02*
X002061Y004376D01*
X002161Y004376D01*
X002161Y004776D01*
X002446Y004776D01*
X002516Y004765D01*
X002584Y004743D01*
X002647Y004711D01*
X002704Y004669D01*
X002754Y004619D01*
X002796Y004562D01*
X002828Y004498D01*
X002850Y004431D01*
X002859Y004376D01*
X002161Y004376D01*
X002161Y004276D01*
X002859Y004276D01*
X002850Y004220D01*
X002828Y004153D01*
X002796Y004090D01*
X002754Y004033D01*
X002704Y003982D01*
X002647Y003941D01*
X002584Y003909D01*
X002516Y003887D01*
X002446Y003876D01*
X002161Y003876D01*
X002161Y004276D01*
X002061Y004276D01*
X002061Y004219D02*
X002161Y004219D01*
X002161Y004317D02*
X003070Y004317D01*
X003070Y004219D02*
X002849Y004219D01*
X002811Y004120D02*
X003070Y004120D01*
X003070Y004022D02*
X002743Y004022D01*
X002612Y003923D02*
X003070Y003923D01*
X003070Y003825D02*
X002539Y003825D01*
X002161Y003923D02*
X002061Y003923D01*
X002061Y004022D02*
X002161Y004022D01*
X002161Y004120D02*
X002061Y004120D01*
X002061Y004416D02*
X002161Y004416D01*
X002161Y004514D02*
X002061Y004514D01*
X002061Y004613D02*
X002161Y004613D01*
X002161Y004711D02*
X002061Y004711D01*
X002646Y004711D02*
X003140Y004711D01*
X003130Y004810D02*
X000550Y004810D01*
X000550Y004120D02*
X001411Y004120D01*
X001479Y004022D02*
X000550Y004022D01*
X000550Y003923D02*
X001610Y003923D01*
X001683Y003825D02*
X000550Y003825D01*
X000550Y003726D02*
X001490Y003726D01*
X001392Y003628D02*
X000550Y003628D01*
X000550Y003529D02*
X001343Y003529D01*
X001302Y003431D02*
X000550Y003431D01*
X000550Y003332D02*
X001301Y003332D01*
X001301Y003234D02*
X000550Y003234D01*
X000550Y003135D02*
X001338Y003135D01*
X001379Y003037D02*
X000550Y003037D01*
X000550Y002938D02*
X001477Y002938D01*
X001652Y002840D02*
X000550Y002840D01*
X000550Y002741D02*
X003946Y002741D01*
X003946Y002840D02*
X002570Y002840D01*
X003358Y002544D02*
X000550Y002544D01*
X000550Y002446D02*
X003358Y002446D01*
X003358Y002347D02*
X000550Y002347D01*
X000550Y002249D02*
X003358Y002249D01*
X003358Y002150D02*
X000550Y002150D01*
X000550Y002052D02*
X003358Y002052D01*
X003358Y001953D02*
X000550Y001953D01*
X000550Y001855D02*
X003358Y001855D01*
X003358Y001756D02*
X000550Y001756D01*
X000550Y001658D02*
X003358Y001658D01*
X003435Y001559D02*
X000550Y001559D01*
X000550Y001461D02*
X010680Y001461D01*
X010680Y001559D02*
X005275Y001559D01*
X005353Y001658D02*
X006228Y001658D01*
X006223Y001665D02*
X006243Y001631D01*
X006271Y001603D01*
X006305Y001584D01*
X006343Y001573D01*
X007100Y001573D01*
X007100Y002067D01*
X006213Y002067D01*
X006213Y001704D01*
X006223Y001665D01*
X006213Y001756D02*
X005353Y001756D01*
X005353Y001855D02*
X006213Y001855D01*
X006213Y001953D02*
X005353Y001953D01*
X005353Y002052D02*
X006213Y002052D01*
X006213Y002167D02*
X007100Y002167D01*
X007100Y002067D01*
X007200Y002067D01*
X007200Y001573D01*
X007958Y001573D01*
X007996Y001584D01*
X008030Y001603D01*
X008058Y001631D01*
X008078Y001665D01*
X008088Y001704D01*
X008088Y002067D01*
X007200Y002067D01*
X007200Y002167D01*
X007100Y002167D01*
X007100Y002661D01*
X006343Y002661D01*
X006305Y002650D01*
X006271Y002631D01*
X006243Y002603D01*
X006223Y002569D01*
X006213Y002530D01*
X006213Y002167D01*
X006213Y002249D02*
X005353Y002249D01*
X005353Y002347D02*
X006213Y002347D01*
X006213Y002446D02*
X005353Y002446D01*
X005353Y002544D02*
X006217Y002544D01*
X006291Y002643D02*
X005404Y002643D01*
X005502Y002741D02*
X010680Y002741D01*
X010680Y002643D02*
X008010Y002643D01*
X007996Y002650D02*
X007958Y002661D01*
X007200Y002661D01*
X007200Y002167D01*
X008088Y002167D01*
X008088Y002530D01*
X008078Y002569D01*
X008058Y002603D01*
X008030Y002631D01*
X007996Y002650D01*
X008084Y002544D02*
X010680Y002544D01*
X010680Y002446D02*
X008088Y002446D01*
X008088Y002347D02*
X010680Y002347D01*
X010680Y002249D02*
X008088Y002249D01*
X008088Y002052D02*
X010680Y002052D01*
X010680Y002150D02*
X007200Y002150D01*
X007200Y002052D02*
X007100Y002052D01*
X007100Y002150D02*
X005353Y002150D01*
X005601Y002840D02*
X008660Y002840D01*
X008485Y002938D02*
X005699Y002938D01*
X005798Y003037D02*
X008387Y003037D01*
X008346Y003135D02*
X005896Y003135D01*
X005977Y003234D02*
X008309Y003234D01*
X008309Y003332D02*
X006018Y003332D01*
X006020Y003431D02*
X006541Y003431D01*
X006440Y003529D02*
X006020Y003529D01*
X006020Y003628D02*
X006341Y003628D01*
X006243Y003726D02*
X006020Y003726D01*
X006025Y003825D02*
X006059Y003825D01*
X006442Y004152D02*
X006048Y004546D01*
X006048Y005219D01*
X005859Y005408D01*
X005859Y005885D01*
X005662Y005885D02*
X005662Y006786D01*
X005536Y006912D01*
X005536Y006751D01*
X004993Y006751D01*
X004993Y006948D02*
X004347Y006948D01*
X004387Y007145D02*
X004993Y007145D01*
X005536Y006912D02*
X005536Y006554D01*
X004993Y006554D01*
X004993Y006357D02*
X004355Y006357D01*
X004394Y006160D02*
X004993Y006160D01*
X004747Y005893D02*
X004582Y005893D01*
X004533Y005795D02*
X004837Y005795D01*
X004833Y005696D02*
X004533Y005696D01*
X004533Y005499D02*
X004833Y005499D01*
X004833Y005401D02*
X004533Y005401D01*
X004485Y005302D02*
X004692Y005302D01*
X004645Y005204D02*
X004529Y005204D01*
X004533Y005105D02*
X004645Y005105D01*
X004645Y005007D02*
X004234Y005007D01*
X004137Y005007D02*
X003526Y005007D01*
X003429Y005007D02*
X002864Y005007D01*
X002962Y005105D02*
X003130Y005105D01*
X003130Y004908D02*
X002715Y004908D01*
X002759Y004613D02*
X004654Y004613D01*
X004645Y004711D02*
X004519Y004711D01*
X004533Y004810D02*
X004645Y004810D01*
X004645Y004908D02*
X004533Y004908D01*
X004234Y004908D02*
X004137Y004908D01*
X004137Y004810D02*
X004234Y004810D01*
X004234Y004711D02*
X004137Y004711D01*
X003852Y004711D02*
X003814Y004711D01*
X003824Y004810D02*
X003839Y004810D01*
X003839Y004908D02*
X003824Y004908D01*
X003824Y005105D02*
X003839Y005105D01*
X003843Y005204D02*
X003818Y005204D01*
X003861Y005302D02*
X003887Y005302D01*
X004137Y005302D02*
X004234Y005302D01*
X004234Y005204D02*
X004137Y005204D01*
X004137Y005105D02*
X004234Y005105D01*
X004234Y005401D02*
X004137Y005401D01*
X004137Y005499D02*
X004234Y005499D01*
X004234Y005598D02*
X004833Y005598D01*
X005465Y005885D02*
X005465Y005192D01*
X006056Y005526D02*
X006056Y005885D01*
X006056Y005526D02*
X006442Y005141D01*
X006442Y004861D01*
X007426Y005416D02*
X007485Y005357D01*
X007761Y005357D01*
X007426Y005416D02*
X007426Y005652D01*
X007229Y005849D01*
X007182Y005849D01*
X007044Y005987D01*
X007024Y006007D01*
X006757Y006007D01*
X006603Y006160D01*
X006528Y006160D01*
X006528Y006357D02*
X007383Y006357D01*
X007753Y005987D01*
X008160Y005992D02*
X008249Y005992D01*
X008160Y006090D02*
X008348Y006090D01*
X008324Y006189D02*
X008160Y006189D01*
X008160Y006287D02*
X008309Y006287D01*
X008309Y006386D02*
X008065Y006386D01*
X008080Y006484D02*
X008332Y006484D01*
X008373Y006583D02*
X008084Y006583D01*
X008084Y006681D02*
X008453Y006681D01*
X008582Y006780D02*
X007785Y006780D01*
X007785Y006878D02*
X007689Y006878D01*
X007689Y006977D02*
X007785Y006977D01*
X007785Y007075D02*
X007696Y007075D01*
X007696Y007174D02*
X007793Y007174D01*
X007793Y007272D02*
X007696Y007272D01*
X007793Y007371D02*
X010680Y007371D01*
X010680Y007469D02*
X008092Y007469D01*
X008092Y007568D02*
X010680Y007568D01*
X010680Y007666D02*
X008066Y007666D01*
X007793Y007666D02*
X007696Y007666D01*
X007696Y007568D02*
X007793Y007568D01*
X007793Y007469D02*
X007696Y007469D01*
X007347Y007765D02*
X010680Y007765D01*
X010680Y007863D02*
X007075Y007863D01*
X007174Y007962D02*
X010680Y007962D01*
X010680Y008060D02*
X007183Y008060D01*
X007183Y008159D02*
X010680Y008159D01*
X010680Y008257D02*
X007183Y008257D01*
X007183Y008356D02*
X010680Y008356D01*
X010680Y008454D02*
X007183Y008454D01*
X007169Y008553D02*
X010680Y008553D01*
X010680Y008651D02*
X007071Y008651D01*
X007123Y008750D02*
X010680Y008750D01*
X010680Y008848D02*
X007123Y008848D01*
X007123Y009045D02*
X010680Y009045D01*
X010680Y008947D02*
X006805Y008947D01*
X004998Y008553D02*
X004801Y008553D01*
X004856Y008454D02*
X004968Y008454D01*
X004968Y008356D02*
X004856Y008356D01*
X004557Y008356D02*
X004460Y008356D01*
X004460Y008454D02*
X004557Y008454D01*
X004557Y008553D02*
X004460Y008553D01*
X005572Y006948D02*
X005812Y006948D01*
X006528Y006948D01*
X006528Y006751D02*
X005698Y006751D01*
X006528Y006554D02*
X006713Y006554D01*
X006717Y006558D01*
X006757Y006558D01*
X006835Y006637D01*
X006930Y006637D01*
X007028Y006735D01*
X008073Y007075D02*
X010680Y007075D01*
X010680Y006977D02*
X008082Y006977D01*
X008084Y006878D02*
X010680Y006878D01*
X010680Y006780D02*
X009656Y006780D01*
X009785Y006681D02*
X010680Y006681D01*
X010680Y006583D02*
X009865Y006583D01*
X009905Y006484D02*
X010680Y006484D01*
X010680Y006386D02*
X009929Y006386D01*
X009929Y006287D02*
X010680Y006287D01*
X010680Y006189D02*
X009914Y006189D01*
X009873Y006090D02*
X010680Y006090D01*
X010680Y005992D02*
X009806Y005992D01*
X009707Y005893D02*
X010680Y005893D01*
X010680Y005795D02*
X008816Y005795D01*
X009069Y005696D02*
X009169Y005696D01*
X009169Y005598D02*
X009069Y005598D01*
X009069Y005499D02*
X009169Y005499D01*
X009169Y005401D02*
X009069Y005401D01*
X009169Y005302D02*
X010680Y005302D01*
X010680Y005204D02*
X009852Y005204D01*
X009812Y005105D02*
X010680Y005105D01*
X010680Y005007D02*
X009736Y005007D01*
X009590Y004908D02*
X010680Y004908D01*
X010680Y004810D02*
X009583Y004810D01*
X009755Y004711D02*
X010680Y004711D01*
X010680Y004613D02*
X009852Y004613D01*
X009893Y004514D02*
X010680Y004514D01*
X010680Y004416D02*
X009929Y004416D01*
X009929Y004317D02*
X010680Y004317D01*
X010680Y004219D02*
X009927Y004219D01*
X009886Y004120D02*
X010680Y004120D01*
X010680Y004022D02*
X009836Y004022D01*
X009737Y003923D02*
X010680Y003923D01*
X010680Y003825D02*
X009547Y003825D01*
X009740Y003726D02*
X010680Y003726D01*
X010680Y003628D02*
X009838Y003628D01*
X009887Y003529D02*
X010680Y003529D01*
X010680Y003431D02*
X009927Y003431D01*
X009929Y003332D02*
X010680Y003332D01*
X010680Y003234D02*
X009929Y003234D01*
X009892Y003135D02*
X010680Y003135D01*
X010680Y003037D02*
X009851Y003037D01*
X009752Y002938D02*
X010680Y002938D01*
X010680Y002840D02*
X009578Y002840D01*
X008691Y003825D02*
X008550Y003825D01*
X008498Y003726D02*
X008452Y003726D01*
X008399Y003628D02*
X008353Y003628D01*
X008351Y003529D02*
X008255Y003529D01*
X008310Y003431D02*
X008153Y003431D01*
X007200Y002643D02*
X007100Y002643D01*
X007100Y002544D02*
X007200Y002544D01*
X007200Y002446D02*
X007100Y002446D01*
X007100Y002347D02*
X007200Y002347D01*
X007200Y002249D02*
X007100Y002249D01*
X007100Y001953D02*
X007200Y001953D01*
X007200Y001855D02*
X007100Y001855D01*
X007100Y001756D02*
X007200Y001756D01*
X007200Y001658D02*
X007100Y001658D01*
X008073Y001658D02*
X010680Y001658D01*
X010680Y001756D02*
X008088Y001756D01*
X008088Y001855D02*
X010680Y001855D01*
X010680Y001953D02*
X008088Y001953D01*
X010680Y001362D02*
X000550Y001362D01*
X000550Y001264D02*
X010680Y001264D01*
X010680Y001165D02*
X000550Y001165D01*
X000550Y001067D02*
X010680Y001067D01*
X010680Y000968D02*
X000550Y000968D01*
X000550Y000870D02*
X010680Y000870D01*
X010680Y000771D02*
X000550Y000771D01*
X000550Y000673D02*
X010680Y000673D01*
X010680Y000574D02*
X000550Y000574D01*
X000550Y000476D02*
X010680Y000476D01*
X008483Y004711D02*
X008392Y004711D01*
X008414Y004810D02*
X008654Y004810D01*
X008648Y004908D02*
X008494Y004908D01*
X009069Y004908D02*
X009169Y004908D01*
X009169Y005007D02*
X009069Y005007D01*
X009069Y005105D02*
X009169Y005105D01*
X009169Y005204D02*
X009069Y005204D01*
X009675Y005696D02*
X010680Y005696D01*
X010680Y005598D02*
X009778Y005598D01*
X009836Y005499D02*
X010680Y005499D01*
X010680Y005401D02*
X009863Y005401D01*
X010680Y007174D02*
X008092Y007174D01*
X008092Y007272D02*
X010680Y007272D01*
X004654Y004514D02*
X002820Y004514D01*
X002852Y004416D02*
X003105Y004416D01*
X003429Y004711D02*
X003526Y004711D01*
X003526Y004810D02*
X003429Y004810D01*
X003429Y004908D02*
X003526Y004908D01*
X003850Y004416D02*
X004628Y004416D01*
X004547Y004317D02*
X003884Y004317D01*
X003884Y004219D02*
X004507Y004219D01*
X004498Y004120D02*
X003884Y004120D01*
X003884Y004022D02*
X004504Y004022D01*
X004545Y003923D02*
X003884Y003923D01*
X003884Y003825D02*
X003962Y003825D01*
X003909Y003726D02*
X003856Y003726D01*
X003889Y003628D02*
X003909Y003628D01*
X003909Y003332D02*
X003883Y003332D01*
X003856Y003234D02*
X003909Y003234D01*
X003946Y003135D02*
X003788Y003135D01*
X003650Y003037D02*
X003946Y003037D01*
X003946Y002938D02*
X003551Y002938D01*
X003403Y002643D02*
X000550Y002643D01*
D20*
X003450Y003487D02*
X003477Y003515D01*
X003477Y004097D01*
X004186Y004326D02*
X004198Y004314D01*
X004186Y004326D02*
X004186Y004971D01*
X004178Y004963D01*
X003477Y004963D01*
X004186Y004971D02*
X004186Y005629D01*
X003477Y005629D02*
X003410Y005696D01*
X003410Y006278D01*
X003402Y007026D02*
X003402Y007566D01*
X003497Y007660D01*
X004206Y007660D02*
X004206Y007936D01*
X004509Y008239D01*
X004509Y008877D01*
X004513Y008881D01*
X006757Y008963D02*
X007383Y008963D01*
X007387Y008960D01*
X007465Y008881D01*
X007465Y008172D01*
X007745Y007893D01*
X007745Y007365D01*
X007745Y006743D01*
X007737Y006735D01*
X005052Y004971D02*
X005024Y004944D01*
X005024Y004511D01*
X005202Y004334D01*
X005394Y004141D01*
X005650Y004141D01*
X005650Y003412D01*
X004509Y002271D01*
X004316Y002463D01*
X004316Y003487D01*
X004509Y002271D02*
X004355Y002117D01*
X007150Y002117D02*
X007662Y002629D01*
X007662Y002897D01*
D21*
X007985Y004763D02*
X008253Y005030D01*
X008253Y005613D01*
X008965Y006326D01*
X009119Y006326D01*
X007276Y004763D02*
X007032Y005007D01*
X007032Y005337D01*
X007052Y005357D01*
X007032Y005337D02*
X006757Y005337D01*
X006253Y005841D01*
X006253Y005885D01*
X005465Y005192D02*
X005650Y005007D01*
X005103Y005023D02*
X005052Y004971D01*
X005103Y005023D02*
X005103Y005731D01*
X005257Y005885D01*
X005269Y005885D01*
X004394Y006160D02*
X004276Y006278D01*
X004355Y006357D01*
X004347Y006948D02*
X004269Y007026D01*
X004387Y007145D01*
X005028Y007420D02*
X005269Y007420D01*
X005572Y006948D02*
X005536Y006912D01*
X005698Y006834D02*
X005698Y006751D01*
X005698Y006834D02*
X005812Y006948D01*
X006056Y007420D02*
X006253Y007420D01*
X006280Y007420D01*
X006757Y007897D01*
X006757Y008255D01*
X006678Y007345D02*
X007017Y007345D01*
X007036Y007365D01*
X006678Y007345D02*
X006528Y007196D01*
X006528Y007145D01*
X005465Y008149D02*
X005375Y008239D01*
X005269Y008133D01*
D22*
X004828Y007621D02*
X005028Y007420D01*
X005202Y004334D02*
X004985Y004117D01*
X004906Y004117D01*
D23*
X006442Y004152D02*
X006442Y003881D01*
X006678Y003645D01*
X008017Y003645D01*
X008646Y004274D01*
X009068Y004274D01*
X009119Y004326D01*
X007072Y004117D02*
X006835Y004353D01*
X006835Y004826D01*
X006800Y004861D01*
X006442Y004861D01*
D24*
X003410Y005696D02*
X003328Y005613D01*
X002820Y005613D01*
X002583Y005377D01*
X002162Y005377D01*
X002111Y005326D01*
X002111Y006326D02*
X002812Y007026D01*
X003402Y007026D01*
X003450Y003487D02*
X003288Y003326D01*
X002111Y003326D01*
M02*
