G75*
G70*
%OFA0B0*%
%FSLAX24Y24*%
%IPPOS*%
%LPD*%
%AMOC8*
5,1,8,0,0,1.08239X$1,22.5*
%
%ADD10C,0.0600*%
%ADD11C,0.0396*%
%ADD12C,0.0160*%
D10*
X002111Y003326D03*
X002111Y004326D03*
X002111Y005326D03*
X002111Y006326D03*
X009119Y006326D03*
X009119Y005326D03*
X009119Y004326D03*
X009119Y003326D03*
D11*
X007662Y002897D03*
X007072Y004117D03*
X004906Y004117D03*
X004198Y004314D03*
X005969Y006440D03*
X005536Y006912D03*
X004828Y007621D03*
X004513Y008881D03*
X007387Y008960D03*
X007465Y008172D03*
D12*
X000580Y009113D02*
X000580Y000460D01*
X010650Y000460D01*
X010650Y009113D01*
X007732Y009113D01*
X007765Y009035D01*
X007765Y008884D01*
X007707Y008745D01*
X007601Y008639D01*
X007462Y008581D01*
X007311Y008581D01*
X007172Y008639D01*
X007066Y008745D01*
X007009Y008884D01*
X007009Y009035D01*
X007041Y009113D01*
X004816Y009113D01*
X004833Y009095D01*
X004891Y008956D01*
X004891Y008806D01*
X004833Y008667D01*
X004727Y008560D01*
X004588Y008503D01*
X004437Y008503D01*
X004298Y008560D01*
X004192Y008667D01*
X004134Y008806D01*
X004134Y008956D01*
X004192Y009095D01*
X004210Y009113D01*
X000580Y009113D01*
X000580Y009056D02*
X004176Y009056D01*
X004134Y008898D02*
X000580Y008898D01*
X000580Y008739D02*
X004162Y008739D01*
X004278Y008581D02*
X000580Y008581D01*
X000580Y008422D02*
X007181Y008422D01*
X007145Y008386D02*
X007251Y008493D01*
X007390Y008550D01*
X007541Y008550D01*
X007680Y008493D01*
X007786Y008386D01*
X007843Y008247D01*
X007843Y008097D01*
X007786Y007958D01*
X007680Y007852D01*
X007541Y007794D01*
X007390Y007794D01*
X007251Y007852D01*
X007145Y007958D01*
X007087Y008097D01*
X007087Y008247D01*
X007145Y008386D01*
X007094Y008264D02*
X000580Y008264D01*
X000580Y008105D02*
X007087Y008105D01*
X007156Y007947D02*
X005030Y007947D01*
X005042Y007941D02*
X004903Y007999D01*
X004752Y007999D01*
X004613Y007941D01*
X004507Y007835D01*
X004449Y007696D01*
X004449Y007546D01*
X004507Y007407D01*
X004613Y007300D01*
X004752Y007243D01*
X004903Y007243D01*
X005042Y007300D01*
X005148Y007407D01*
X005206Y007546D01*
X005206Y007696D01*
X005148Y007835D01*
X005042Y007941D01*
X005168Y007788D02*
X010650Y007788D01*
X010650Y007947D02*
X007774Y007947D01*
X007843Y008105D02*
X010650Y008105D01*
X010650Y008264D02*
X007837Y008264D01*
X007750Y008422D02*
X010650Y008422D01*
X010650Y008581D02*
X004747Y008581D01*
X004863Y008739D02*
X007072Y008739D01*
X007009Y008898D02*
X004891Y008898D01*
X004849Y009056D02*
X007017Y009056D01*
X007701Y008739D02*
X010650Y008739D01*
X010650Y008898D02*
X007765Y008898D01*
X007756Y009056D02*
X010650Y009056D01*
X010650Y007630D02*
X005206Y007630D01*
X005175Y007471D02*
X010650Y007471D01*
X010650Y007313D02*
X005054Y007313D01*
X005243Y007154D02*
X000580Y007154D01*
X000580Y007313D02*
X004601Y007313D01*
X004480Y007471D02*
X000580Y007471D01*
X000580Y007630D02*
X004449Y007630D01*
X004487Y007788D02*
X000580Y007788D01*
X000580Y007947D02*
X004626Y007947D01*
X005322Y007233D02*
X005216Y007126D01*
X005158Y006987D01*
X005158Y006837D01*
X005216Y006698D01*
X005322Y006592D01*
X005461Y006534D01*
X005599Y006534D01*
X005591Y006515D01*
X005591Y006365D01*
X005649Y006226D01*
X005755Y006119D01*
X005894Y006062D01*
X006045Y006062D01*
X006183Y006119D01*
X006290Y006226D01*
X006347Y006365D01*
X006347Y006515D01*
X006290Y006654D01*
X006183Y006760D01*
X006045Y006818D01*
X005906Y006818D01*
X005914Y006837D01*
X010650Y006837D01*
X010650Y006996D02*
X005911Y006996D01*
X005914Y006987D02*
X005857Y007126D01*
X005750Y007233D01*
X005611Y007290D01*
X005461Y007290D01*
X005322Y007233D01*
X005161Y006996D02*
X000580Y006996D01*
X000580Y006837D02*
X005158Y006837D01*
X005235Y006679D02*
X002437Y006679D01*
X002383Y006733D02*
X002207Y006806D01*
X002016Y006806D01*
X001839Y006733D01*
X001704Y006598D01*
X001631Y006421D01*
X001631Y006230D01*
X001704Y006054D01*
X001839Y005919D01*
X002016Y005846D01*
X002207Y005846D01*
X002383Y005919D01*
X002518Y006054D01*
X002591Y006230D01*
X002591Y006421D01*
X002518Y006598D01*
X002383Y006733D01*
X002550Y006520D02*
X005593Y006520D01*
X005592Y006362D02*
X002591Y006362D01*
X002580Y006203D02*
X005671Y006203D01*
X006267Y006203D02*
X008650Y006203D01*
X008639Y006230D02*
X008712Y006054D01*
X008847Y005919D01*
X009023Y005846D01*
X009214Y005846D01*
X009391Y005919D01*
X009526Y006054D01*
X009599Y006230D01*
X009599Y006421D01*
X009526Y006598D01*
X009391Y006733D01*
X009214Y006806D01*
X009023Y006806D01*
X008847Y006733D01*
X008712Y006598D01*
X008639Y006421D01*
X008639Y006230D01*
X008639Y006362D02*
X006346Y006362D01*
X006345Y006520D02*
X008680Y006520D01*
X008793Y006679D02*
X006265Y006679D01*
X005914Y006837D02*
X005914Y006987D01*
X005829Y007154D02*
X010650Y007154D01*
X010650Y006679D02*
X009445Y006679D01*
X009558Y006520D02*
X010650Y006520D01*
X010650Y006362D02*
X009599Y006362D01*
X009588Y006203D02*
X010650Y006203D01*
X010650Y006045D02*
X009517Y006045D01*
X009312Y005886D02*
X010650Y005886D01*
X010650Y005728D02*
X009396Y005728D01*
X009391Y005733D02*
X009214Y005806D01*
X009023Y005806D01*
X008847Y005733D01*
X008712Y005598D01*
X008639Y005421D01*
X008639Y005230D01*
X008712Y005054D01*
X008847Y004919D01*
X009023Y004846D01*
X009214Y004846D01*
X009391Y004919D01*
X009526Y005054D01*
X009599Y005230D01*
X009599Y005421D01*
X009526Y005598D01*
X009391Y005733D01*
X009538Y005569D02*
X010650Y005569D01*
X010650Y005411D02*
X009599Y005411D01*
X009599Y005252D02*
X010650Y005252D01*
X010650Y005094D02*
X009542Y005094D01*
X009407Y004935D02*
X010650Y004935D01*
X010650Y004777D02*
X009285Y004777D01*
X009214Y004806D02*
X009023Y004806D01*
X008847Y004733D01*
X008712Y004598D01*
X008639Y004421D01*
X008639Y004230D01*
X008712Y004054D01*
X008847Y003919D01*
X009023Y003846D01*
X009214Y003846D01*
X009391Y003919D01*
X009526Y004054D01*
X009599Y004230D01*
X009599Y004421D01*
X009526Y004598D01*
X009391Y004733D01*
X009214Y004806D01*
X009505Y004618D02*
X010650Y004618D01*
X010650Y004460D02*
X009583Y004460D01*
X009599Y004301D02*
X010650Y004301D01*
X010650Y004143D02*
X009563Y004143D01*
X009456Y003984D02*
X010650Y003984D01*
X010650Y003826D02*
X005150Y003826D01*
X005120Y003796D02*
X005227Y003903D01*
X005284Y004042D01*
X005284Y004192D01*
X005227Y004331D01*
X005120Y004438D01*
X004982Y004495D01*
X004831Y004495D01*
X004692Y004438D01*
X004586Y004331D01*
X004576Y004307D01*
X004576Y004389D01*
X004518Y004528D01*
X004412Y004634D01*
X004273Y004692D01*
X004122Y004692D01*
X003983Y004634D01*
X003877Y004528D01*
X003820Y004389D01*
X003820Y004239D01*
X003877Y004100D01*
X003983Y003993D01*
X004122Y003936D01*
X004273Y003936D01*
X004412Y003993D01*
X004518Y004100D01*
X004528Y004124D01*
X004528Y004042D01*
X004586Y003903D01*
X004692Y003796D01*
X004831Y003739D01*
X004982Y003739D01*
X005120Y003796D01*
X005260Y003984D02*
X008782Y003984D01*
X008675Y004143D02*
X005284Y004143D01*
X005239Y004301D02*
X008639Y004301D01*
X008655Y004460D02*
X005067Y004460D01*
X004745Y004460D02*
X004547Y004460D01*
X004428Y004618D02*
X008732Y004618D01*
X008953Y004777D02*
X002277Y004777D01*
X002207Y004806D02*
X002383Y004733D01*
X002518Y004598D01*
X002591Y004421D01*
X002591Y004230D01*
X002518Y004054D01*
X002383Y003919D01*
X002207Y003846D01*
X002016Y003846D01*
X001839Y003919D01*
X001704Y004054D01*
X001631Y004230D01*
X001631Y004421D01*
X001704Y004598D01*
X001839Y004733D01*
X002016Y004806D01*
X002207Y004806D01*
X002207Y004846D02*
X002383Y004919D01*
X002518Y005054D01*
X002591Y005230D01*
X002591Y005421D01*
X002518Y005598D01*
X002383Y005733D01*
X002207Y005806D01*
X002016Y005806D01*
X001839Y005733D01*
X001704Y005598D01*
X001631Y005421D01*
X001631Y005230D01*
X001704Y005054D01*
X001839Y004919D01*
X002016Y004846D01*
X002207Y004846D01*
X002399Y004935D02*
X008831Y004935D01*
X008696Y005094D02*
X002534Y005094D01*
X002591Y005252D02*
X008639Y005252D01*
X008639Y005411D02*
X002591Y005411D01*
X002530Y005569D02*
X008700Y005569D01*
X008842Y005728D02*
X002388Y005728D01*
X002304Y005886D02*
X008926Y005886D01*
X008721Y006045D02*
X002509Y006045D01*
X001918Y005886D02*
X000580Y005886D01*
X000580Y005728D02*
X001834Y005728D01*
X001692Y005569D02*
X000580Y005569D01*
X000580Y005411D02*
X001631Y005411D01*
X001631Y005252D02*
X000580Y005252D01*
X000580Y005094D02*
X001688Y005094D01*
X001823Y004935D02*
X000580Y004935D01*
X000580Y004777D02*
X001945Y004777D01*
X001725Y004618D02*
X000580Y004618D01*
X000580Y004460D02*
X001647Y004460D01*
X001631Y004301D02*
X000580Y004301D01*
X000580Y004143D02*
X001667Y004143D01*
X001774Y003984D02*
X000580Y003984D01*
X000580Y003826D02*
X004663Y003826D01*
X004552Y003984D02*
X004389Y003984D01*
X004006Y003984D02*
X002448Y003984D01*
X002555Y004143D02*
X003859Y004143D01*
X003820Y004301D02*
X002591Y004301D01*
X002575Y004460D02*
X003849Y004460D01*
X003967Y004618D02*
X002498Y004618D01*
X002207Y003806D02*
X002016Y003806D01*
X001839Y003733D01*
X001704Y003598D01*
X001631Y003421D01*
X001631Y003230D01*
X001704Y003054D01*
X001839Y002919D01*
X002016Y002846D01*
X002207Y002846D01*
X002383Y002919D01*
X002518Y003054D01*
X002591Y003230D01*
X002591Y003421D01*
X002518Y003598D01*
X002383Y003733D01*
X002207Y003806D01*
X002449Y003667D02*
X008781Y003667D01*
X008806Y003692D02*
X008753Y003638D01*
X008708Y003577D01*
X008674Y003510D01*
X008651Y003438D01*
X008639Y003363D01*
X008639Y003346D01*
X009099Y003346D01*
X009099Y003806D01*
X009081Y003806D01*
X009006Y003794D01*
X008935Y003771D01*
X008867Y003736D01*
X008806Y003692D01*
X008674Y003509D02*
X002555Y003509D01*
X002591Y003350D02*
X008639Y003350D01*
X008639Y003306D02*
X008639Y003288D01*
X008651Y003213D01*
X008674Y003141D01*
X008708Y003074D01*
X008753Y003013D01*
X008806Y002960D01*
X008867Y002915D01*
X008935Y002881D01*
X009006Y002857D01*
X009081Y002846D01*
X009099Y002846D01*
X009099Y003306D01*
X008639Y003306D01*
X008658Y003192D02*
X007902Y003192D01*
X007876Y003217D02*
X007737Y003275D01*
X007587Y003275D01*
X007448Y003217D01*
X007342Y003111D01*
X007284Y002972D01*
X007284Y002821D01*
X007342Y002682D01*
X007448Y002576D01*
X007587Y002518D01*
X007737Y002518D01*
X007876Y002576D01*
X007983Y002682D01*
X008040Y002821D01*
X008040Y002972D01*
X007983Y003111D01*
X007876Y003217D01*
X008015Y003033D02*
X008738Y003033D01*
X008954Y002875D02*
X008040Y002875D01*
X007997Y002716D02*
X010650Y002716D01*
X010650Y002875D02*
X009284Y002875D01*
X009303Y002881D02*
X009370Y002915D01*
X009432Y002960D01*
X009485Y003013D01*
X009529Y003074D01*
X009564Y003141D01*
X009587Y003213D01*
X009599Y003288D01*
X009599Y003306D01*
X009139Y003306D01*
X009139Y003346D01*
X009099Y003346D01*
X009099Y003306D01*
X009139Y003306D01*
X009139Y002846D01*
X009157Y002846D01*
X009231Y002857D01*
X009303Y002881D01*
X009139Y002875D02*
X009099Y002875D01*
X009099Y003033D02*
X009139Y003033D01*
X009139Y003192D02*
X009099Y003192D01*
X009099Y003350D02*
X009139Y003350D01*
X009139Y003346D02*
X009139Y003806D01*
X009157Y003806D01*
X009231Y003794D01*
X009303Y003771D01*
X009370Y003736D01*
X009432Y003692D01*
X009485Y003638D01*
X009529Y003577D01*
X009564Y003510D01*
X009587Y003438D01*
X009599Y003363D01*
X009599Y003346D01*
X009139Y003346D01*
X009139Y003509D02*
X009099Y003509D01*
X009099Y003667D02*
X009139Y003667D01*
X009456Y003667D02*
X010650Y003667D01*
X010650Y003509D02*
X009564Y003509D01*
X009599Y003350D02*
X010650Y003350D01*
X010650Y003192D02*
X009580Y003192D01*
X009500Y003033D02*
X010650Y003033D01*
X010650Y002558D02*
X007832Y002558D01*
X007493Y002558D02*
X000580Y002558D01*
X000580Y002399D02*
X010650Y002399D01*
X010650Y002241D02*
X000580Y002241D01*
X000580Y002082D02*
X010650Y002082D01*
X010650Y001924D02*
X000580Y001924D01*
X000580Y001765D02*
X010650Y001765D01*
X010650Y001607D02*
X000580Y001607D01*
X000580Y001448D02*
X010650Y001448D01*
X010650Y001290D02*
X000580Y001290D01*
X000580Y001131D02*
X010650Y001131D01*
X010650Y000973D02*
X000580Y000973D01*
X000580Y000814D02*
X010650Y000814D01*
X010650Y000656D02*
X000580Y000656D01*
X000580Y000497D02*
X010650Y000497D01*
X007422Y003192D02*
X002575Y003192D01*
X002497Y003033D02*
X007309Y003033D01*
X007284Y002875D02*
X002276Y002875D01*
X001946Y002875D02*
X000580Y002875D01*
X000580Y002716D02*
X007328Y002716D01*
X001725Y003033D02*
X000580Y003033D01*
X000580Y003192D02*
X001647Y003192D01*
X001631Y003350D02*
X000580Y003350D01*
X000580Y003509D02*
X001667Y003509D01*
X001774Y003667D02*
X000580Y003667D01*
X000580Y006045D02*
X001713Y006045D01*
X001642Y006203D02*
X000580Y006203D01*
X000580Y006362D02*
X001631Y006362D01*
X001672Y006520D02*
X000580Y006520D01*
X000580Y006679D02*
X001785Y006679D01*
M02*
