G75*
G70*
%OFA0B0*%
%FSLAX24Y24*%
%IPPOS*%
%LPD*%
%AMOC8*
5,1,8,0,0,1.08239X$1,22.5*
%
%ADD10C,0.0000*%
%ADD11C,0.0040*%
%ADD12C,0.0080*%
%ADD13C,0.0320*%
%ADD14C,0.0020*%
%ADD15C,0.0030*%
%ADD16C,0.0050*%
%ADD17C,0.0060*%
D10*
X000210Y000180D02*
X000210Y006150D01*
X008602Y006150D01*
X008602Y000180D01*
X000210Y000180D01*
D11*
X001030Y000447D02*
X001077Y000400D01*
X001170Y000400D01*
X001217Y000447D01*
X001217Y000493D01*
X001170Y000540D01*
X001077Y000540D01*
X001030Y000587D01*
X001030Y000634D01*
X001077Y000680D01*
X001170Y000680D01*
X001217Y000634D01*
X001325Y000680D02*
X001465Y000680D01*
X001511Y000634D01*
X001511Y000540D01*
X001465Y000493D01*
X001325Y000493D01*
X001325Y000400D02*
X001325Y000680D01*
X001619Y000680D02*
X001713Y000680D01*
X001666Y000680D02*
X001666Y000400D01*
X001619Y000400D02*
X001713Y000400D01*
X002110Y000400D02*
X002110Y000680D01*
X002204Y000587D01*
X002297Y000680D01*
X002297Y000400D01*
X002405Y000447D02*
X002405Y000540D01*
X002452Y000587D01*
X002545Y000587D01*
X002592Y000540D01*
X002592Y000493D01*
X002405Y000493D01*
X002405Y000447D02*
X002452Y000400D01*
X002545Y000400D01*
X002700Y000400D02*
X002700Y000587D01*
X002746Y000587D01*
X002793Y000540D01*
X002840Y000587D01*
X002887Y000540D01*
X002887Y000400D01*
X002793Y000400D02*
X002793Y000540D01*
X002994Y000540D02*
X002994Y000447D01*
X003041Y000400D01*
X003134Y000400D01*
X003181Y000447D01*
X003181Y000540D01*
X003134Y000587D01*
X003041Y000587D01*
X002994Y000540D01*
X003289Y000493D02*
X003382Y000587D01*
X003429Y000587D01*
X003535Y000587D02*
X003535Y000447D01*
X003581Y000400D01*
X003721Y000400D01*
X003721Y000353D02*
X003675Y000307D01*
X003628Y000307D01*
X003721Y000353D02*
X003721Y000587D01*
X003289Y000587D02*
X003289Y000400D01*
X000911Y000847D02*
X000911Y001034D01*
X000865Y001080D01*
X000771Y001080D01*
X000725Y001034D01*
X000725Y000847D01*
X000771Y000800D01*
X000865Y000800D01*
X000911Y000847D01*
X000617Y000847D02*
X000570Y000800D01*
X000477Y000800D01*
X000430Y000847D01*
X000477Y000940D02*
X000570Y000940D01*
X000617Y000893D01*
X000617Y000847D01*
X000477Y000940D02*
X000430Y000987D01*
X000430Y001034D01*
X000477Y001080D01*
X000570Y001080D01*
X000617Y001034D01*
X001556Y002400D02*
X001743Y002400D01*
X001790Y002447D01*
X001790Y002540D01*
X001743Y002587D01*
X001743Y002695D02*
X001790Y002741D01*
X001790Y002835D01*
X001743Y002881D01*
X001697Y002881D01*
X001650Y002835D01*
X001650Y002741D01*
X001603Y002695D01*
X001556Y002695D01*
X001510Y002741D01*
X001510Y002835D01*
X001556Y002881D01*
X001556Y002587D02*
X001510Y002540D01*
X001510Y002447D01*
X001556Y002400D01*
X001510Y003300D02*
X001697Y003300D01*
X001790Y003393D01*
X001697Y003487D01*
X001510Y003487D01*
X001556Y003595D02*
X001743Y003595D01*
X001790Y003641D01*
X001790Y003735D01*
X001743Y003781D01*
X001743Y003889D02*
X001556Y003889D01*
X001510Y003936D01*
X001510Y004029D01*
X001556Y004076D01*
X001743Y004076D02*
X001790Y004029D01*
X001790Y003936D01*
X001743Y003889D01*
X001556Y003781D02*
X001510Y003735D01*
X001510Y003641D01*
X001556Y003595D01*
X001454Y005300D02*
X001314Y005300D01*
X001314Y005580D01*
X001454Y005580D01*
X001501Y005534D01*
X001501Y005347D01*
X001454Y005300D01*
X001206Y005300D02*
X001019Y005300D01*
X001019Y005580D01*
X000911Y005534D02*
X000865Y005580D01*
X000771Y005580D01*
X000725Y005534D01*
X000725Y005347D01*
X000771Y005300D01*
X000865Y005300D01*
X000911Y005347D01*
X000911Y005534D01*
X000617Y005580D02*
X000617Y005300D01*
X000617Y005440D02*
X000430Y005440D01*
X000430Y005300D02*
X000430Y005580D01*
X003980Y003410D02*
X004133Y003410D01*
X004057Y003410D02*
X004057Y002950D01*
X004133Y002950D02*
X003980Y002950D01*
X004287Y003027D02*
X004364Y002950D01*
X004517Y002950D01*
X004594Y003027D01*
X004747Y002950D02*
X005054Y002950D01*
X004901Y002950D02*
X004901Y003410D01*
X004747Y003257D01*
X004594Y003334D02*
X004517Y003410D01*
X004364Y003410D01*
X004287Y003334D01*
X004287Y003027D01*
X006530Y002934D02*
X006530Y002747D01*
X006577Y002700D01*
X006670Y002700D01*
X006717Y002747D01*
X006717Y002840D01*
X006623Y002840D01*
X006530Y002934D02*
X006577Y002980D01*
X006670Y002980D01*
X006717Y002934D01*
X006825Y002980D02*
X007011Y002700D01*
X007011Y002980D01*
X007119Y002980D02*
X007259Y002980D01*
X007306Y002934D01*
X007306Y002747D01*
X007259Y002700D01*
X007119Y002700D01*
X007119Y002980D01*
X006825Y002980D02*
X006825Y002700D01*
X006825Y003700D02*
X006918Y003700D01*
X006871Y003700D02*
X006871Y003980D01*
X006825Y003980D02*
X006918Y003980D01*
X006717Y003934D02*
X006670Y003980D01*
X006577Y003980D01*
X006530Y003934D01*
X006530Y003887D01*
X006577Y003840D01*
X006670Y003840D01*
X006717Y003793D01*
X006717Y003747D01*
X006670Y003700D01*
X006577Y003700D01*
X006530Y003747D01*
X006577Y004700D02*
X006530Y004747D01*
X006577Y004700D02*
X006670Y004700D01*
X006717Y004747D01*
X006717Y004793D01*
X006670Y004840D01*
X006577Y004840D01*
X006530Y004887D01*
X006530Y004934D01*
X006577Y004980D01*
X006670Y004980D01*
X006717Y004934D01*
X006825Y004934D02*
X006825Y004747D01*
X006871Y004700D01*
X006965Y004700D01*
X007011Y004747D01*
X007119Y004793D02*
X007306Y004980D01*
X007119Y004980D02*
X007119Y004700D01*
X007166Y004840D02*
X007306Y004700D01*
X007011Y004934D02*
X006965Y004980D01*
X006871Y004980D01*
X006825Y004934D01*
X007830Y001080D02*
X007830Y000800D01*
X007923Y000893D01*
X008017Y000800D01*
X008017Y001080D01*
D12*
X005768Y000719D02*
X005768Y005641D01*
X003052Y005641D01*
X003052Y000719D01*
X005768Y000719D01*
D13*
X003410Y005180D03*
D14*
X002189Y004019D02*
X002110Y004019D01*
X002110Y004059D01*
X002110Y004019D02*
X002031Y004019D01*
X002031Y003941D02*
X002110Y003941D01*
X002110Y003901D01*
X002110Y003941D02*
X002189Y003941D01*
D15*
X001979Y004566D02*
X001839Y004566D01*
X001909Y004566D02*
X001909Y004776D01*
X001839Y004706D01*
X001758Y004741D02*
X001723Y004776D01*
X001653Y004776D01*
X001618Y004741D01*
X001618Y004601D01*
X001653Y004566D01*
X001723Y004566D01*
X001758Y004601D01*
D16*
X002463Y005158D02*
X002463Y005333D01*
X002522Y005392D01*
X002639Y005392D01*
X002697Y005333D01*
X002697Y005158D01*
X002814Y005158D02*
X002463Y005158D01*
X002697Y005275D02*
X002814Y005392D01*
X002755Y005526D02*
X002814Y005585D01*
X002814Y005702D01*
X002755Y005760D01*
X002697Y005760D01*
X002639Y005702D01*
X002639Y005643D01*
X002639Y005702D02*
X002580Y005760D01*
X002522Y005760D01*
X002463Y005702D01*
X002463Y005585D01*
X002522Y005526D01*
X002373Y001527D02*
X002373Y001176D01*
X002256Y001176D02*
X002490Y001176D01*
X002256Y001410D02*
X002373Y001527D01*
X002122Y001468D02*
X002122Y001351D01*
X002063Y001293D01*
X001888Y001293D01*
X002005Y001293D02*
X002122Y001176D01*
X001888Y001176D02*
X001888Y001527D01*
X002063Y001527D01*
X002122Y001468D01*
X005988Y001127D02*
X005988Y000776D01*
X005988Y000893D02*
X006163Y000893D01*
X006222Y000951D01*
X006222Y001068D01*
X006163Y001127D01*
X005988Y001127D01*
X006105Y000893D02*
X006222Y000776D01*
X006356Y000776D02*
X006590Y001010D01*
X006590Y001068D01*
X006532Y001127D01*
X006415Y001127D01*
X006356Y001068D01*
X006356Y000776D02*
X006590Y000776D01*
D17*
X007410Y001430D02*
X007660Y001180D01*
X008160Y001180D01*
X008410Y001430D01*
X008410Y001930D01*
X008160Y002180D01*
X008410Y002430D01*
X008410Y002930D01*
X008160Y003180D01*
X007660Y003180D01*
X007410Y002930D01*
X007410Y002430D01*
X007660Y002180D01*
X008160Y002180D01*
X007660Y002180D02*
X007410Y001930D01*
X007410Y001430D01*
X007660Y003180D02*
X007410Y003430D01*
X007410Y003930D01*
X007660Y004180D01*
X007410Y004430D01*
X007410Y004930D01*
X007660Y005180D01*
X008160Y005180D01*
X008410Y004930D01*
X008410Y004430D01*
X008160Y004180D01*
X008410Y003930D01*
X008410Y003430D01*
X008160Y003180D01*
X008160Y004180D02*
X007660Y004180D01*
X001410Y003930D02*
X001410Y003430D01*
X001160Y003180D01*
X000660Y003180D01*
X000410Y003430D01*
X000410Y003930D01*
X000660Y004180D01*
X000410Y004430D01*
X000410Y004930D01*
X000660Y005180D01*
X001160Y005180D01*
X001410Y004930D01*
X001410Y004430D01*
X001160Y004180D01*
X001410Y003930D01*
X001160Y004180D02*
X000660Y004180D01*
X000660Y003180D02*
X000410Y002930D01*
X000410Y002430D01*
X000660Y002180D01*
X000410Y001930D01*
X000410Y001430D01*
X000660Y001180D01*
X001160Y001180D01*
X001410Y001430D01*
X001410Y001930D01*
X001160Y002180D01*
X000660Y002180D01*
X001160Y002180D02*
X001410Y002430D01*
X001410Y002930D01*
X001160Y003180D01*
M02*
