G75*
G70*
%OFA0B0*%
%FSLAX24Y24*%
%IPPOS*%
%LPD*%
%AMOC8*
5,1,8,0,0,1.08239X$1,22.5*
%
%ADD10R,0.0472X0.0236*%
%ADD11R,0.0433X0.0394*%
%ADD12C,0.0600*%
%ADD13C,0.0396*%
%ADD14C,0.0160*%
%ADD15C,0.0120*%
D10*
X002660Y001430D03*
X002660Y001930D03*
X002660Y002430D03*
X002660Y002930D03*
X002660Y003430D03*
X002660Y003930D03*
X002660Y004430D03*
X002660Y004930D03*
X006160Y004930D03*
X006160Y004430D03*
X006160Y003930D03*
X006160Y003430D03*
X006160Y002930D03*
X006160Y002430D03*
X006160Y001930D03*
X006160Y001430D03*
D11*
X006910Y001634D03*
X006910Y000926D03*
X002110Y001826D03*
X002110Y002534D03*
X002110Y003626D03*
X002110Y004334D03*
X002110Y005026D03*
X002110Y005734D03*
D12*
X001210Y004680D02*
X000610Y004680D01*
X000610Y003680D02*
X001210Y003680D01*
X001210Y002680D02*
X000610Y002680D01*
X000610Y001680D02*
X001210Y001680D01*
X007610Y001680D02*
X008210Y001680D01*
X008210Y002680D02*
X007610Y002680D01*
X007610Y003680D02*
X008210Y003680D01*
X008210Y004680D02*
X007610Y004680D01*
D13*
X005410Y001980D03*
X007410Y000580D03*
X002110Y003080D03*
X001510Y000980D03*
D14*
X000490Y001189D02*
X000490Y000460D01*
X008322Y000460D01*
X008322Y001185D01*
X008309Y001180D01*
X007511Y001180D01*
X007327Y001256D01*
X007277Y001305D01*
X007252Y001280D01*
X007327Y001205D01*
X007327Y000646D01*
X007209Y000529D01*
X006611Y000529D01*
X006493Y000646D01*
X006493Y000666D01*
X005016Y000666D01*
X004913Y000666D01*
X004817Y000705D01*
X003102Y002420D01*
X003096Y002420D01*
X003096Y002229D01*
X003047Y002180D01*
X003096Y002131D01*
X003096Y001729D01*
X003047Y001680D01*
X003096Y001631D01*
X003096Y001229D01*
X002979Y001112D01*
X002341Y001112D01*
X002283Y001170D01*
X001108Y001170D01*
X001084Y001180D01*
X000511Y001180D01*
X000490Y001189D01*
X000490Y001131D02*
X002322Y001131D01*
X002998Y001131D02*
X004391Y001131D01*
X004550Y000973D02*
X000490Y000973D01*
X000490Y000814D02*
X004708Y000814D01*
X005072Y001186D02*
X003430Y002827D01*
X003357Y002900D01*
X003262Y002940D01*
X003096Y002940D01*
X003096Y003131D01*
X003047Y003180D01*
X003096Y003229D01*
X003096Y003631D01*
X003047Y003680D01*
X003096Y003729D01*
X003096Y004131D01*
X003047Y004180D01*
X003055Y004188D01*
X003107Y004210D01*
X003357Y004460D01*
X003430Y004533D01*
X003470Y004628D01*
X003470Y005432D01*
X003430Y005527D01*
X003130Y005827D01*
X003088Y005870D01*
X008322Y005870D01*
X008322Y005175D01*
X008309Y005180D01*
X007736Y005180D01*
X007712Y005190D01*
X006537Y005190D01*
X006479Y005248D01*
X005841Y005248D01*
X005724Y005131D01*
X005724Y004729D01*
X005773Y004680D01*
X005724Y004631D01*
X005724Y004229D01*
X005773Y004180D01*
X005724Y004131D01*
X005724Y003729D01*
X005773Y003680D01*
X005724Y003631D01*
X005724Y003229D01*
X005773Y003180D01*
X005724Y003131D01*
X005724Y002729D01*
X005773Y002680D01*
X005724Y002631D01*
X005724Y002229D01*
X005787Y002166D01*
X005780Y002159D01*
X005756Y002118D01*
X005744Y002072D01*
X005744Y001930D01*
X005744Y001788D01*
X005756Y001742D01*
X005780Y001701D01*
X005787Y001694D01*
X005724Y001631D01*
X005724Y001229D01*
X005767Y001186D01*
X005072Y001186D01*
X004968Y001290D02*
X005724Y001290D01*
X005724Y001448D02*
X004810Y001448D01*
X004651Y001607D02*
X005724Y001607D01*
X005750Y001765D02*
X004493Y001765D01*
X004334Y001924D02*
X005744Y001924D01*
X005744Y001930D02*
X006160Y001930D01*
X006460Y001930D01*
X007210Y002680D01*
X007910Y002680D01*
X007930Y002700D02*
X007890Y002700D01*
X007890Y003160D01*
X007572Y003160D01*
X007498Y003148D01*
X007426Y003125D01*
X007358Y003091D01*
X007297Y003046D01*
X007244Y002993D01*
X007199Y002932D01*
X007165Y002864D01*
X007142Y002792D01*
X007130Y002718D01*
X007130Y002700D01*
X007890Y002700D01*
X007890Y002660D01*
X007930Y002660D01*
X007930Y002200D01*
X008248Y002200D01*
X008322Y002212D01*
X008322Y002175D01*
X008309Y002180D01*
X007511Y002180D01*
X007327Y002104D01*
X007232Y002009D01*
X007209Y002031D01*
X006611Y002031D01*
X006576Y001997D01*
X006576Y002072D01*
X006564Y002118D01*
X006540Y002159D01*
X006533Y002166D01*
X006596Y002229D01*
X006596Y002631D01*
X006547Y002680D01*
X006596Y002729D01*
X006596Y003131D01*
X006547Y003180D01*
X006596Y003229D01*
X006596Y003631D01*
X006547Y003680D01*
X006596Y003729D01*
X006596Y004131D01*
X006557Y004170D01*
X007052Y004170D01*
X007223Y004000D01*
X007186Y003963D01*
X007110Y003779D01*
X007110Y003581D01*
X007186Y003397D01*
X007327Y003256D01*
X007511Y003180D01*
X008309Y003180D01*
X008322Y003185D01*
X008322Y003148D01*
X008248Y003160D01*
X007930Y003160D01*
X007930Y002700D01*
X007930Y002716D02*
X007890Y002716D01*
X007890Y002660D02*
X007130Y002660D01*
X007130Y002642D01*
X007142Y002568D01*
X007165Y002496D01*
X007199Y002428D01*
X007244Y002367D01*
X007297Y002314D01*
X007358Y002269D01*
X007426Y002235D01*
X007498Y002212D01*
X007572Y002200D01*
X007890Y002200D01*
X007890Y002660D01*
X007890Y002558D02*
X007930Y002558D01*
X007930Y002399D02*
X007890Y002399D01*
X007890Y002241D02*
X007930Y002241D01*
X007415Y002241D02*
X006596Y002241D01*
X006596Y002399D02*
X007221Y002399D01*
X007145Y002558D02*
X006596Y002558D01*
X006583Y002716D02*
X007130Y002716D01*
X007170Y002875D02*
X006596Y002875D01*
X006596Y003033D02*
X007284Y003033D01*
X007483Y003192D02*
X006559Y003192D01*
X006596Y003350D02*
X007233Y003350D01*
X007140Y003509D02*
X006596Y003509D01*
X006560Y003667D02*
X007110Y003667D01*
X007129Y003826D02*
X006596Y003826D01*
X006596Y003984D02*
X007207Y003984D01*
X007080Y004143D02*
X006585Y004143D01*
X005735Y004143D02*
X003085Y004143D01*
X003199Y004301D02*
X005724Y004301D01*
X005724Y004460D02*
X003357Y004460D01*
X003466Y004618D02*
X005724Y004618D01*
X005724Y004777D02*
X003470Y004777D01*
X003470Y004935D02*
X005724Y004935D01*
X005724Y005094D02*
X003470Y005094D01*
X003470Y005252D02*
X008322Y005252D01*
X008322Y005411D02*
X003470Y005411D01*
X003389Y005569D02*
X008322Y005569D01*
X008322Y005728D02*
X003230Y005728D01*
X002660Y004430D02*
X002206Y004430D01*
X002110Y004334D01*
X001864Y004334D01*
X001210Y003680D01*
X000910Y003680D01*
X001597Y003360D02*
X001634Y003397D01*
X001710Y003581D01*
X001710Y003779D01*
X001709Y003783D01*
X001713Y003787D01*
X001713Y003644D01*
X002092Y003644D01*
X002092Y003607D01*
X002128Y003607D01*
X002128Y003249D01*
X002224Y003249D01*
X002224Y003229D01*
X002273Y003180D01*
X002224Y003131D01*
X002224Y002940D01*
X002204Y002940D01*
X002183Y002931D01*
X002027Y002931D01*
X001597Y003360D01*
X001608Y003350D02*
X001731Y003350D01*
X001726Y003359D02*
X001749Y003318D01*
X001783Y003285D01*
X001824Y003261D01*
X001870Y003249D01*
X002092Y003249D01*
X002092Y003607D01*
X001713Y003607D01*
X001713Y003405D01*
X001726Y003359D01*
X001766Y003192D02*
X002261Y003192D01*
X002110Y003080D02*
X002110Y003626D01*
X002092Y003509D02*
X002128Y003509D01*
X002128Y003350D02*
X002092Y003350D01*
X001713Y003509D02*
X001680Y003509D01*
X001710Y003667D02*
X001713Y003667D01*
X001925Y003033D02*
X002224Y003033D01*
X003059Y003192D02*
X005761Y003192D01*
X005724Y003350D02*
X003096Y003350D01*
X003096Y003509D02*
X005724Y003509D01*
X005760Y003667D02*
X003060Y003667D01*
X003096Y003826D02*
X005724Y003826D01*
X005724Y003984D02*
X003096Y003984D01*
X003096Y003033D02*
X005724Y003033D01*
X005724Y002875D02*
X003383Y002875D01*
X003542Y002716D02*
X005737Y002716D01*
X005724Y002558D02*
X003700Y002558D01*
X003859Y002399D02*
X005724Y002399D01*
X005724Y002241D02*
X004017Y002241D01*
X004176Y002082D02*
X005747Y002082D01*
X005744Y001930D02*
X006160Y001930D01*
X006509Y001930D01*
X006160Y001930D01*
X006160Y001930D01*
X006160Y002112D01*
X006160Y002112D01*
X006160Y001930D01*
X006160Y001930D01*
X006160Y001930D01*
X006160Y001748D01*
X006160Y001930D01*
X006160Y001930D01*
X006160Y001924D02*
X006160Y001924D01*
X006160Y002082D02*
X006160Y002082D01*
X006509Y001930D02*
X006509Y001930D01*
X006573Y002082D02*
X007305Y002082D01*
X007293Y001290D02*
X007261Y001290D01*
X007327Y001131D02*
X008322Y001131D01*
X008322Y000973D02*
X007327Y000973D01*
X007327Y000814D02*
X008322Y000814D01*
X008322Y000656D02*
X007327Y000656D01*
X006493Y000656D02*
X000490Y000656D01*
X000490Y000497D02*
X008322Y000497D01*
X006160Y001748D02*
X006160Y001748D01*
X006160Y001765D02*
X006160Y001765D01*
X007890Y002875D02*
X007930Y002875D01*
X007930Y003033D02*
X007890Y003033D01*
X004233Y001290D02*
X003096Y001290D01*
X003096Y001448D02*
X004074Y001448D01*
X003916Y001607D02*
X003096Y001607D01*
X003096Y001765D02*
X003757Y001765D01*
X003599Y001924D02*
X003096Y001924D01*
X003096Y002082D02*
X003440Y002082D01*
X003282Y002241D02*
X003096Y002241D01*
X003096Y002399D02*
X003123Y002399D01*
D15*
X003210Y002680D02*
X002256Y002680D01*
X002110Y002534D01*
X002056Y002534D01*
X000910Y003680D01*
X000910Y002680D02*
X001764Y001826D01*
X002110Y001826D01*
X002214Y001930D01*
X002660Y001930D01*
X002660Y001430D02*
X001160Y001430D01*
X000910Y001680D01*
X003210Y002680D02*
X004964Y000926D01*
X006910Y000926D01*
X006706Y001430D02*
X006160Y001430D01*
X006706Y001430D02*
X006910Y001634D01*
X007864Y001634D01*
X007910Y001680D01*
X007910Y003680D02*
X007160Y004430D01*
X006160Y004430D01*
X006160Y004930D02*
X007660Y004930D01*
X007910Y004680D01*
X003210Y004680D02*
X003210Y005380D01*
X002910Y005680D01*
X002164Y005680D01*
X002110Y005734D01*
X002110Y005026D02*
X001256Y005026D01*
X000910Y004680D01*
X002110Y005026D02*
X002206Y004930D01*
X002660Y004930D01*
X002960Y004430D02*
X003210Y004680D01*
X002960Y004430D02*
X002660Y004430D01*
M02*
