G75*
G70*
%OFA0B0*%
%FSLAX24Y24*%
%IPPOS*%
%LPD*%
%AMOC8*
5,1,8,0,0,1.08239X$1,22.5*
%
%ADD10R,0.0532X0.0296*%
%ADD11R,0.0493X0.0454*%
%ADD12C,0.0660*%
%ADD13C,0.0456*%
D10*
X002660Y001430D03*
X002660Y001930D03*
X002660Y002430D03*
X002660Y002930D03*
X002660Y003430D03*
X002660Y003930D03*
X002660Y004430D03*
X002660Y004930D03*
X006160Y004930D03*
X006160Y004430D03*
X006160Y003930D03*
X006160Y003430D03*
X006160Y002930D03*
X006160Y002430D03*
X006160Y001930D03*
X006160Y001430D03*
D11*
X006910Y001634D03*
X006910Y000926D03*
X002110Y001826D03*
X002110Y002534D03*
X002110Y003626D03*
X002110Y004334D03*
X002110Y005026D03*
X002110Y005734D03*
D12*
X001210Y004680D02*
X000610Y004680D01*
X000610Y003680D02*
X001210Y003680D01*
X001210Y002680D02*
X000610Y002680D01*
X000610Y001680D02*
X001210Y001680D01*
X007610Y001680D02*
X008210Y001680D01*
X008210Y002680D02*
X007610Y002680D01*
X007610Y003680D02*
X008210Y003680D01*
X008210Y004680D02*
X007610Y004680D01*
D13*
X001510Y000980D03*
X002110Y003080D03*
X005410Y001980D03*
X007410Y000580D03*
M02*
