G75*
G70*
%OFA0B0*%
%FSLAX24Y24*%
%IPPOS*%
%LPD*%
%AMOC8*
5,1,8,0,0,1.08239X$1,22.5*
%
%ADD10R,0.0530X0.0280*%
%ADD11R,0.0280X0.0530*%
%ADD12R,0.1162X0.0910*%
%ADD13R,0.0560X0.1060*%
%ADD14R,0.0375X0.0375*%
%ADD15R,0.1005X0.0729*%
%ADD16R,0.0454X0.0493*%
%ADD17R,0.0493X0.0454*%
%ADD18C,0.0660*%
%ADD19R,0.1180X0.0660*%
%ADD20R,0.0660X0.1180*%
%ADD21C,0.0456*%
D10*
X018193Y005957D03*
X018193Y006272D03*
X018193Y006587D03*
X018193Y006902D03*
X018193Y007217D03*
X018193Y007532D03*
X018193Y007847D03*
X018193Y008162D03*
X018193Y008477D03*
X018193Y008792D03*
X018193Y009107D03*
X018193Y009422D03*
X018193Y009737D03*
X018193Y010052D03*
X018193Y010367D03*
X018193Y010681D03*
X024335Y010681D03*
X024335Y010367D03*
X024335Y010052D03*
X024335Y009737D03*
X024335Y009422D03*
X024335Y009107D03*
X024335Y008792D03*
X024335Y008477D03*
X024335Y008162D03*
X024335Y007847D03*
X024335Y007532D03*
X024335Y007217D03*
X024335Y006902D03*
X024335Y006587D03*
X024335Y006272D03*
X024335Y005957D03*
D11*
X023626Y005248D03*
X023311Y005248D03*
X022996Y005248D03*
X022681Y005248D03*
X022366Y005248D03*
X022051Y005248D03*
X021736Y005248D03*
X021421Y005248D03*
X021106Y005248D03*
X020791Y005248D03*
X020476Y005248D03*
X020161Y005248D03*
X019846Y005248D03*
X019531Y005248D03*
X019217Y005248D03*
X018902Y005248D03*
X018902Y011390D03*
X019217Y011390D03*
X019531Y011390D03*
X019846Y011390D03*
X020161Y011390D03*
X020476Y011390D03*
X020791Y011390D03*
X021106Y011390D03*
X021421Y011390D03*
X021736Y011390D03*
X022051Y011390D03*
X022366Y011390D03*
X022681Y011390D03*
X022996Y011390D03*
X023311Y011390D03*
X023626Y011390D03*
D12*
X024114Y001784D03*
X026004Y001784D03*
D13*
X021031Y001532D03*
X020031Y001532D03*
X019031Y001532D03*
X019031Y003782D03*
X020031Y003782D03*
X021031Y003782D03*
D14*
X018171Y001839D03*
X017580Y001839D03*
X024968Y010619D03*
X025558Y010619D03*
D15*
X025823Y009319D03*
X025823Y007863D03*
D16*
X025638Y007193D03*
X024929Y007193D03*
X025559Y010028D03*
X026268Y010028D03*
X026217Y011134D03*
X025508Y011134D03*
X018280Y005445D03*
X017571Y005445D03*
X017569Y004064D03*
X018278Y004064D03*
X024224Y002843D03*
X024933Y002843D03*
D17*
X026268Y006489D03*
X026268Y007197D03*
X017606Y006744D03*
X017606Y006036D03*
X017606Y009087D03*
X017606Y009796D03*
X015592Y019919D03*
X015592Y020628D03*
X016175Y022346D03*
X016800Y022346D03*
X016800Y023054D03*
X016175Y023054D03*
D18*
X016275Y001386D02*
X016875Y001386D01*
X016875Y002386D02*
X016275Y002386D01*
X016275Y003386D02*
X016875Y003386D01*
X016875Y004386D02*
X016275Y004386D01*
X016275Y005386D02*
X016875Y005386D01*
X016875Y006386D02*
X016275Y006386D01*
X016275Y007386D02*
X016875Y007386D01*
X016875Y008386D02*
X016275Y008386D01*
X016275Y009386D02*
X016875Y009386D01*
X016875Y010386D02*
X016275Y010386D01*
X016275Y011386D02*
X016875Y011386D01*
X016875Y012386D02*
X016275Y012386D01*
X016275Y013386D02*
X016875Y013386D01*
X016875Y014386D02*
X016275Y014386D01*
X016275Y015386D02*
X016875Y015386D01*
X016875Y016386D02*
X016275Y016386D01*
X016275Y017386D02*
X016875Y017386D01*
X016875Y018386D02*
X016275Y018386D01*
X016275Y019386D02*
X016875Y019386D01*
X016875Y020386D02*
X016275Y020386D01*
X027298Y020386D02*
X027898Y020386D01*
X027898Y019386D02*
X027298Y019386D01*
X027298Y018386D02*
X027898Y018386D01*
X027898Y017386D02*
X027298Y017386D01*
X027298Y016386D02*
X027898Y016386D01*
X027898Y015386D02*
X027298Y015386D01*
X027298Y014386D02*
X027898Y014386D01*
X027898Y013386D02*
X027298Y013386D01*
X027298Y012386D02*
X027898Y012386D01*
X027898Y011386D02*
X027298Y011386D01*
X027298Y010386D02*
X027898Y010386D01*
X027898Y009386D02*
X027298Y009386D01*
X027298Y008386D02*
X027898Y008386D01*
X027898Y007386D02*
X027298Y007386D01*
X027298Y006386D02*
X027898Y006386D01*
X027898Y005386D02*
X027298Y005386D01*
X027298Y004386D02*
X027898Y004386D01*
X027898Y003386D02*
X027298Y003386D01*
X027298Y002386D02*
X027898Y002386D01*
X027898Y001386D02*
X027298Y001386D01*
D19*
X026330Y014190D03*
X026330Y014980D03*
X026330Y015770D03*
X026330Y016560D03*
X026330Y017350D03*
X026330Y018140D03*
X026330Y018930D03*
X026330Y019720D03*
X026330Y020510D03*
X026330Y021300D03*
X026330Y022090D03*
X026330Y022880D03*
X026330Y023670D03*
X026330Y024460D03*
X026330Y025250D03*
X026330Y026040D03*
X017870Y023670D03*
X017870Y022880D03*
X017870Y022090D03*
X017870Y021300D03*
X017870Y020510D03*
X017870Y019720D03*
X017870Y018930D03*
X017870Y018140D03*
X017870Y017350D03*
X017870Y016560D03*
X017870Y015770D03*
X017870Y014980D03*
X017870Y014190D03*
D20*
X019350Y013500D03*
X020140Y013500D03*
X020930Y013500D03*
X021720Y013500D03*
X022510Y013500D03*
X023300Y013500D03*
X024090Y013500D03*
X024880Y013500D03*
D21*
X025950Y013125D03*
X023525Y010800D03*
X023100Y010575D03*
X022650Y010400D03*
X020750Y010800D03*
X020275Y010800D03*
X019461Y010807D03*
X018780Y009941D03*
X018944Y009469D03*
X018937Y008918D03*
X018937Y008367D03*
X018937Y007422D03*
X018780Y006870D03*
X019409Y006241D03*
X018307Y004902D03*
X018858Y004666D03*
X019567Y004666D03*
X021025Y006150D03*
X021614Y006162D03*
X022087Y006713D03*
X022480Y006162D03*
X023000Y006150D03*
X023425Y006792D03*
X023425Y007343D03*
X023425Y007894D03*
X024921Y008603D03*
X024921Y009154D03*
X024925Y009675D03*
X026260Y010571D03*
X022850Y012650D03*
X022175Y012650D03*
X021425Y012650D03*
X021050Y012200D03*
X020300Y012650D03*
X019889Y012192D03*
X019525Y012650D03*
X018881Y012667D03*
X018412Y012673D03*
X018625Y013125D03*
X017925Y013125D03*
X017813Y011560D03*
X017835Y011080D03*
X024291Y005374D03*
X025079Y006634D03*
X025630Y006634D03*
X022480Y004115D03*
X022087Y003800D03*
X021693Y003485D03*
X022480Y002697D03*
X023504Y002855D03*
X025472Y002855D03*
X026074Y002844D03*
X021063Y002382D03*
X019016Y002382D03*
X016800Y021800D03*
X016175Y021800D03*
X015475Y021800D03*
X015625Y023050D03*
X027200Y023100D03*
M02*
