G75*
G70*
%OFA0B0*%
%FSLAX24Y24*%
%IPPOS*%
%LPD*%
%AMOC8*
5,1,8,0,0,1.08239X$1,22.5*
%
%ADD10C,0.0600*%
%ADD11C,0.0396*%
%ADD12C,0.0160*%
D10*
X016575Y001386D03*
X016575Y002386D03*
X016575Y003386D03*
X016575Y004386D03*
X016575Y005386D03*
X016575Y006386D03*
X016575Y007386D03*
X016575Y008386D03*
X016575Y009386D03*
X016575Y010386D03*
X016575Y011386D03*
X016575Y012386D03*
X016575Y013386D03*
X016575Y014386D03*
X016575Y015386D03*
X016575Y016386D03*
X016575Y017386D03*
X016575Y018386D03*
X016575Y019386D03*
X016575Y020386D03*
X027598Y020386D03*
X027598Y019386D03*
X027598Y018386D03*
X027598Y017386D03*
X027598Y016386D03*
X027598Y015386D03*
X027598Y014386D03*
X027598Y013386D03*
X027598Y012386D03*
X027598Y011386D03*
X027598Y010386D03*
X027598Y009386D03*
X027598Y008386D03*
X027598Y007386D03*
X027598Y006386D03*
X027598Y005386D03*
X027598Y004386D03*
X027598Y003386D03*
X027598Y002386D03*
X027598Y001386D03*
D11*
X026074Y002844D03*
X025472Y002855D03*
X023504Y002855D03*
X022480Y002697D03*
X021693Y003485D03*
X022087Y003800D03*
X022480Y004115D03*
X024291Y005374D03*
X023000Y006150D03*
X022480Y006162D03*
X022087Y006713D03*
X021614Y006162D03*
X021025Y006150D03*
X019409Y006241D03*
X018780Y006870D03*
X018937Y007422D03*
X018937Y008367D03*
X018937Y008918D03*
X018944Y009469D03*
X018780Y009941D03*
X019461Y010807D03*
X020275Y010800D03*
X020750Y010800D03*
X021050Y012200D03*
X021425Y012650D03*
X022175Y012650D03*
X022850Y012650D03*
X023525Y010800D03*
X023100Y010575D03*
X022650Y010400D03*
X024925Y009675D03*
X024921Y009154D03*
X024921Y008603D03*
X023425Y007894D03*
X023425Y007343D03*
X023425Y006792D03*
X025079Y006634D03*
X025630Y006634D03*
X026260Y010571D03*
X025950Y013125D03*
X020300Y012650D03*
X019889Y012192D03*
X019525Y012650D03*
X018881Y012667D03*
X018412Y012673D03*
X018625Y013125D03*
X017925Y013125D03*
X017813Y011560D03*
X017835Y011080D03*
X018307Y004902D03*
X018858Y004666D03*
X019567Y004666D03*
X019016Y002382D03*
X021063Y002382D03*
X016800Y021800D03*
X016175Y021800D03*
X015475Y021800D03*
X015625Y023050D03*
X027200Y023100D03*
D12*
X015280Y021517D02*
X015280Y000930D01*
X016426Y000930D01*
X016391Y000941D01*
X016323Y000976D01*
X016262Y001020D01*
X016209Y001074D01*
X016164Y001135D01*
X016130Y001202D01*
X016107Y001274D01*
X016095Y001348D01*
X016095Y001366D01*
X016555Y001366D01*
X016555Y001406D01*
X016095Y001406D01*
X016095Y001424D01*
X016107Y001499D01*
X016130Y001570D01*
X016164Y001638D01*
X016209Y001699D01*
X016262Y001752D01*
X016323Y001797D01*
X016391Y001831D01*
X016462Y001854D01*
X016537Y001866D01*
X016555Y001866D01*
X016555Y001406D01*
X016595Y001406D01*
X017055Y001406D01*
X017055Y001424D01*
X017043Y001499D01*
X017020Y001570D01*
X016985Y001638D01*
X016941Y001699D01*
X016888Y001752D01*
X016826Y001797D01*
X016759Y001831D01*
X016687Y001854D01*
X016613Y001866D01*
X016595Y001866D01*
X016595Y001406D01*
X016595Y001366D01*
X017055Y001366D01*
X017055Y001348D01*
X017043Y001274D01*
X017020Y001202D01*
X016985Y001135D01*
X016941Y001074D01*
X016888Y001020D01*
X016826Y000976D01*
X016759Y000941D01*
X016724Y000930D01*
X027449Y000930D01*
X027414Y000941D01*
X027347Y000976D01*
X027286Y001020D01*
X027232Y001074D01*
X027188Y001135D01*
X027154Y001202D01*
X027130Y001274D01*
X027118Y001348D01*
X027118Y001366D01*
X027578Y001366D01*
X027578Y001406D01*
X027118Y001406D01*
X027118Y001424D01*
X027130Y001499D01*
X027154Y001570D01*
X027188Y001638D01*
X027232Y001699D01*
X027286Y001752D01*
X027347Y001797D01*
X027414Y001831D01*
X027486Y001854D01*
X027561Y001866D01*
X027578Y001866D01*
X027578Y001406D01*
X027618Y001406D01*
X027618Y001866D01*
X027636Y001866D01*
X027711Y001854D01*
X027783Y001831D01*
X027850Y001797D01*
X027911Y001752D01*
X027965Y001699D01*
X028009Y001638D01*
X028043Y001570D01*
X028067Y001499D01*
X028078Y001424D01*
X028078Y001406D01*
X027618Y001406D01*
X027618Y001366D01*
X028078Y001366D01*
X028078Y001348D01*
X028067Y001274D01*
X028043Y001202D01*
X028009Y001135D01*
X027965Y001074D01*
X027911Y001020D01*
X027850Y000976D01*
X027783Y000941D01*
X027748Y000930D01*
X028893Y000930D01*
X028893Y023378D01*
X015280Y023378D01*
X015280Y022083D01*
X015283Y022087D01*
X015408Y022138D01*
X015542Y022138D01*
X015667Y022087D01*
X015762Y021992D01*
X015813Y021867D01*
X015813Y021733D01*
X015762Y021608D01*
X015667Y021513D01*
X015542Y021462D01*
X015408Y021462D01*
X015283Y021513D01*
X015280Y021517D01*
X015280Y021414D02*
X028893Y021414D01*
X028893Y021572D02*
X017050Y021572D01*
X017087Y021608D02*
X017138Y021733D01*
X017138Y021867D01*
X017087Y021992D01*
X016992Y022087D01*
X016867Y022138D01*
X016733Y022138D01*
X016608Y022087D01*
X016513Y021992D01*
X016487Y021929D01*
X016462Y021992D01*
X016367Y022087D01*
X016242Y022138D01*
X016108Y022138D01*
X015983Y022087D01*
X015888Y021992D01*
X015837Y021867D01*
X015837Y021733D01*
X015888Y021608D01*
X015983Y021513D01*
X016108Y021462D01*
X016242Y021462D01*
X016367Y021513D01*
X016462Y021608D01*
X016487Y021671D01*
X016513Y021608D01*
X016608Y021513D01*
X016733Y021462D01*
X016867Y021462D01*
X016992Y021513D01*
X017087Y021608D01*
X017137Y021731D02*
X028893Y021731D01*
X028893Y021889D02*
X017129Y021889D01*
X017031Y022048D02*
X028893Y022048D01*
X028893Y022206D02*
X015280Y022206D01*
X015280Y022365D02*
X028893Y022365D01*
X028893Y022523D02*
X015280Y022523D01*
X015280Y022682D02*
X028893Y022682D01*
X028893Y022840D02*
X015280Y022840D01*
X015280Y022999D02*
X028893Y022999D01*
X028893Y023157D02*
X015280Y023157D01*
X015280Y023316D02*
X028893Y023316D01*
X028893Y021255D02*
X015280Y021255D01*
X015280Y021097D02*
X028893Y021097D01*
X028893Y020938D02*
X015280Y020938D01*
X015280Y020780D02*
X016375Y020780D01*
X016326Y020759D02*
X016487Y020826D01*
X016662Y020826D01*
X016824Y020759D01*
X016948Y020635D01*
X017015Y020474D01*
X017015Y020299D01*
X016948Y020137D01*
X016824Y020013D01*
X016662Y019946D01*
X016487Y019946D01*
X016326Y020013D01*
X016202Y020137D01*
X016135Y020299D01*
X016135Y020474D01*
X016202Y020635D01*
X016326Y020759D01*
X016196Y020621D02*
X015280Y020621D01*
X015280Y020463D02*
X016135Y020463D01*
X016135Y020304D02*
X015280Y020304D01*
X015280Y020146D02*
X016198Y020146D01*
X016389Y019987D02*
X015280Y019987D01*
X015280Y019829D02*
X028893Y019829D01*
X028893Y019987D02*
X027784Y019987D01*
X027848Y020013D02*
X027686Y019946D01*
X027511Y019946D01*
X027349Y020013D01*
X027225Y020137D01*
X027158Y020299D01*
X027158Y020474D01*
X027225Y020635D01*
X027349Y020759D01*
X027511Y020826D01*
X027686Y020826D01*
X027848Y020759D01*
X027971Y020635D01*
X028038Y020474D01*
X028038Y020299D01*
X027971Y020137D01*
X027848Y020013D01*
X027975Y020146D02*
X028893Y020146D01*
X028893Y020304D02*
X028038Y020304D01*
X028038Y020463D02*
X028893Y020463D01*
X028893Y020621D02*
X027977Y020621D01*
X027799Y020780D02*
X028893Y020780D01*
X028893Y019670D02*
X027937Y019670D01*
X027971Y019635D02*
X027848Y019759D01*
X027686Y019826D01*
X027511Y019826D01*
X027349Y019759D01*
X027225Y019635D01*
X027158Y019474D01*
X027158Y019299D01*
X027225Y019137D01*
X027349Y019013D01*
X027511Y018946D01*
X027686Y018946D01*
X027848Y019013D01*
X027971Y019137D01*
X028038Y019299D01*
X028038Y019474D01*
X027971Y019635D01*
X028023Y019512D02*
X028893Y019512D01*
X028893Y019353D02*
X028038Y019353D01*
X027995Y019195D02*
X028893Y019195D01*
X028893Y019036D02*
X027870Y019036D01*
X027848Y018759D02*
X027686Y018826D01*
X027511Y018826D01*
X027349Y018759D01*
X027225Y018635D01*
X027158Y018474D01*
X027158Y018299D01*
X027225Y018137D01*
X027349Y018013D01*
X027511Y017946D01*
X027686Y017946D01*
X027848Y018013D01*
X027971Y018137D01*
X028038Y018299D01*
X028038Y018474D01*
X027971Y018635D01*
X027848Y018759D01*
X027888Y018719D02*
X028893Y018719D01*
X028893Y018561D02*
X028002Y018561D01*
X028038Y018402D02*
X028893Y018402D01*
X028893Y018244D02*
X028016Y018244D01*
X027919Y018085D02*
X028893Y018085D01*
X028893Y017927D02*
X015280Y017927D01*
X015280Y018085D02*
X016254Y018085D01*
X016202Y018137D02*
X016326Y018013D01*
X016487Y017946D01*
X016662Y017946D01*
X016824Y018013D01*
X016948Y018137D01*
X017015Y018299D01*
X017015Y018474D01*
X016948Y018635D01*
X016824Y018759D01*
X016662Y018826D01*
X016487Y018826D01*
X016326Y018759D01*
X016202Y018635D01*
X016135Y018474D01*
X016135Y018299D01*
X016202Y018137D01*
X016158Y018244D02*
X015280Y018244D01*
X015280Y018402D02*
X016135Y018402D01*
X016171Y018561D02*
X015280Y018561D01*
X015280Y018719D02*
X016285Y018719D01*
X016326Y019013D02*
X016487Y018946D01*
X016662Y018946D01*
X016824Y019013D01*
X016948Y019137D01*
X017015Y019299D01*
X017015Y019474D01*
X016948Y019635D01*
X016824Y019759D01*
X016662Y019826D01*
X016487Y019826D01*
X016326Y019759D01*
X016202Y019635D01*
X016135Y019474D01*
X016135Y019299D01*
X016202Y019137D01*
X016326Y019013D01*
X016303Y019036D02*
X015280Y019036D01*
X015280Y018878D02*
X028893Y018878D01*
X028893Y017768D02*
X027826Y017768D01*
X027848Y017759D02*
X027686Y017826D01*
X027511Y017826D01*
X027349Y017759D01*
X027225Y017635D01*
X027158Y017474D01*
X027158Y017299D01*
X027225Y017137D01*
X027349Y017013D01*
X027511Y016946D01*
X027686Y016946D01*
X027848Y017013D01*
X027971Y017137D01*
X028038Y017299D01*
X028038Y017474D01*
X027971Y017635D01*
X027848Y017759D01*
X027982Y017610D02*
X028893Y017610D01*
X028893Y017451D02*
X028038Y017451D01*
X028036Y017293D02*
X028893Y017293D01*
X028893Y017134D02*
X027968Y017134D01*
X027757Y016976D02*
X028893Y016976D01*
X028893Y016817D02*
X027708Y016817D01*
X027686Y016826D02*
X027511Y016826D01*
X027349Y016759D01*
X027225Y016635D01*
X027158Y016474D01*
X027158Y016299D01*
X027225Y016137D01*
X027349Y016013D01*
X027511Y015946D01*
X027686Y015946D01*
X027848Y016013D01*
X027971Y016137D01*
X028038Y016299D01*
X028038Y016474D01*
X027971Y016635D01*
X027848Y016759D01*
X027686Y016826D01*
X027489Y016817D02*
X016685Y016817D01*
X016662Y016826D02*
X016487Y016826D01*
X016326Y016759D01*
X016202Y016635D01*
X016135Y016474D01*
X016135Y016299D01*
X016202Y016137D01*
X016326Y016013D01*
X016487Y015946D01*
X016662Y015946D01*
X016824Y016013D01*
X016948Y016137D01*
X017015Y016299D01*
X017015Y016474D01*
X016948Y016635D01*
X016824Y016759D01*
X016662Y016826D01*
X016662Y016946D02*
X016824Y017013D01*
X016948Y017137D01*
X017015Y017299D01*
X017015Y017474D01*
X016948Y017635D01*
X016824Y017759D01*
X016662Y017826D01*
X016487Y017826D01*
X016326Y017759D01*
X016202Y017635D01*
X016135Y017474D01*
X016135Y017299D01*
X016202Y017137D01*
X016326Y017013D01*
X016487Y016946D01*
X016662Y016946D01*
X016733Y016976D02*
X027440Y016976D01*
X027228Y017134D02*
X016945Y017134D01*
X017012Y017293D02*
X027161Y017293D01*
X027158Y017451D02*
X017015Y017451D01*
X016959Y017610D02*
X027215Y017610D01*
X027370Y017768D02*
X016803Y017768D01*
X016896Y018085D02*
X027277Y018085D01*
X027181Y018244D02*
X016992Y018244D01*
X017015Y018402D02*
X027158Y018402D01*
X027194Y018561D02*
X016979Y018561D01*
X016864Y018719D02*
X027309Y018719D01*
X027326Y019036D02*
X016847Y019036D01*
X016972Y019195D02*
X027202Y019195D01*
X027158Y019353D02*
X017015Y019353D01*
X016999Y019512D02*
X027174Y019512D01*
X027260Y019670D02*
X016913Y019670D01*
X016761Y019987D02*
X027412Y019987D01*
X027222Y020146D02*
X016951Y020146D01*
X017015Y020304D02*
X027158Y020304D01*
X027158Y020463D02*
X017015Y020463D01*
X016954Y020621D02*
X027219Y020621D01*
X027398Y020780D02*
X016775Y020780D01*
X016236Y019670D02*
X015280Y019670D01*
X015280Y019512D02*
X016150Y019512D01*
X016135Y019353D02*
X015280Y019353D01*
X015280Y019195D02*
X016178Y019195D01*
X016347Y017768D02*
X015280Y017768D01*
X015280Y017610D02*
X016191Y017610D01*
X016135Y017451D02*
X015280Y017451D01*
X015280Y017293D02*
X016137Y017293D01*
X016205Y017134D02*
X015280Y017134D01*
X015280Y016976D02*
X016417Y016976D01*
X016465Y016817D02*
X015280Y016817D01*
X015280Y016659D02*
X016225Y016659D01*
X016146Y016500D02*
X015280Y016500D01*
X015280Y016342D02*
X016135Y016342D01*
X016183Y016183D02*
X015280Y016183D01*
X015280Y016025D02*
X016314Y016025D01*
X016487Y015826D02*
X016326Y015759D01*
X016202Y015635D01*
X016135Y015474D01*
X016135Y015299D01*
X016202Y015137D01*
X016326Y015013D01*
X016487Y014946D01*
X016662Y014946D01*
X016824Y015013D01*
X016948Y015137D01*
X017015Y015299D01*
X017015Y015474D01*
X016948Y015635D01*
X016824Y015759D01*
X016662Y015826D01*
X016487Y015826D01*
X016274Y015708D02*
X015280Y015708D01*
X015280Y015866D02*
X028893Y015866D01*
X028893Y015708D02*
X027899Y015708D01*
X027848Y015759D02*
X027686Y015826D01*
X027511Y015826D01*
X027349Y015759D01*
X027225Y015635D01*
X027158Y015474D01*
X027158Y015299D01*
X027225Y015137D01*
X027349Y015013D01*
X027511Y014946D01*
X027686Y014946D01*
X027848Y015013D01*
X027971Y015137D01*
X028038Y015299D01*
X028038Y015474D01*
X027971Y015635D01*
X027848Y015759D01*
X028007Y015549D02*
X028893Y015549D01*
X028893Y015391D02*
X028038Y015391D01*
X028011Y015232D02*
X028893Y015232D01*
X028893Y015074D02*
X027908Y015074D01*
X027848Y014759D02*
X027686Y014826D01*
X027511Y014826D01*
X027349Y014759D01*
X027225Y014635D01*
X027158Y014474D01*
X027158Y014299D01*
X027225Y014137D01*
X027349Y014013D01*
X027511Y013946D01*
X027686Y013946D01*
X027848Y014013D01*
X027971Y014137D01*
X028038Y014299D01*
X028038Y014474D01*
X027971Y014635D01*
X027848Y014759D01*
X027850Y014757D02*
X028893Y014757D01*
X028893Y014915D02*
X015280Y014915D01*
X015280Y014757D02*
X016323Y014757D01*
X016326Y014759D02*
X016202Y014635D01*
X016135Y014474D01*
X016135Y014299D01*
X016202Y014137D01*
X016326Y014013D01*
X016487Y013946D01*
X016662Y013946D01*
X016824Y014013D01*
X016948Y014137D01*
X017015Y014299D01*
X017015Y014474D01*
X016948Y014635D01*
X016824Y014759D01*
X016662Y014826D01*
X016487Y014826D01*
X016326Y014759D01*
X016186Y014598D02*
X015280Y014598D01*
X015280Y014440D02*
X016135Y014440D01*
X016142Y014281D02*
X015280Y014281D01*
X015280Y014123D02*
X016216Y014123D01*
X016444Y013964D02*
X015280Y013964D01*
X015280Y013806D02*
X016437Y013806D01*
X016487Y013826D02*
X016326Y013759D01*
X016202Y013635D01*
X016135Y013474D01*
X016135Y013299D01*
X016202Y013137D01*
X016326Y013013D01*
X015280Y013013D01*
X015280Y012855D02*
X017717Y012855D01*
X017733Y012838D02*
X017858Y012787D01*
X017992Y012787D01*
X018114Y012837D01*
X018074Y012740D01*
X018074Y012606D01*
X018125Y012482D01*
X018220Y012387D01*
X018345Y012335D01*
X018479Y012335D01*
X018604Y012387D01*
X018643Y012426D01*
X018689Y012381D01*
X018813Y012329D01*
X018948Y012329D01*
X019072Y012381D01*
X019167Y012476D01*
X019199Y012553D01*
X019238Y012458D01*
X019333Y012363D01*
X019458Y012312D01*
X019573Y012312D01*
X019551Y012260D01*
X019551Y012125D01*
X019603Y012001D01*
X019698Y011906D01*
X019822Y011854D01*
X019957Y011854D01*
X020081Y011906D01*
X020176Y012001D01*
X020227Y012125D01*
X020227Y012260D01*
X020200Y012325D01*
X020233Y012312D01*
X020367Y012312D01*
X020492Y012363D01*
X020587Y012458D01*
X020638Y012583D01*
X020638Y012717D01*
X020587Y012842D01*
X020492Y012937D01*
X020367Y012988D01*
X020233Y012988D01*
X020108Y012937D01*
X020013Y012842D01*
X019962Y012717D01*
X019962Y012583D01*
X019989Y012517D01*
X019957Y012530D01*
X019841Y012530D01*
X019863Y012583D01*
X019863Y012717D01*
X019812Y012842D01*
X019717Y012937D01*
X019592Y012988D01*
X019458Y012988D01*
X019333Y012937D01*
X019238Y012842D01*
X019206Y012764D01*
X019167Y012859D01*
X019072Y012954D01*
X018948Y013005D01*
X018813Y013005D01*
X018689Y012954D01*
X018649Y012914D01*
X018604Y012960D01*
X018479Y013011D01*
X018345Y013011D01*
X018223Y012961D01*
X018263Y013058D01*
X018263Y013192D01*
X018212Y013317D01*
X018117Y013412D01*
X017992Y013463D01*
X017858Y013463D01*
X017733Y013412D01*
X017638Y013317D01*
X017587Y013192D01*
X017587Y013058D01*
X017638Y012933D01*
X017733Y012838D01*
X017605Y013013D02*
X016824Y013013D01*
X016948Y013137D01*
X017015Y013299D01*
X017015Y013474D01*
X016948Y013635D01*
X016824Y013759D01*
X016662Y013826D01*
X016487Y013826D01*
X016712Y013806D02*
X027461Y013806D01*
X027511Y013826D02*
X027349Y013759D01*
X027225Y013635D01*
X027158Y013474D01*
X027158Y013299D01*
X027225Y013137D01*
X027349Y013013D01*
X027511Y012946D01*
X027686Y012946D01*
X027848Y013013D01*
X027971Y013137D01*
X028038Y013299D01*
X028038Y013474D01*
X027971Y013635D01*
X027848Y013759D01*
X027686Y013826D01*
X027511Y013826D01*
X027468Y013964D02*
X016705Y013964D01*
X016933Y014123D02*
X027240Y014123D01*
X027166Y014281D02*
X017007Y014281D01*
X017015Y014440D02*
X027158Y014440D01*
X027210Y014598D02*
X016963Y014598D01*
X016827Y014757D02*
X027346Y014757D01*
X027289Y015074D02*
X016884Y015074D01*
X016987Y015232D02*
X027186Y015232D01*
X027158Y015391D02*
X017015Y015391D01*
X016984Y015549D02*
X027190Y015549D01*
X027297Y015708D02*
X016876Y015708D01*
X016835Y016025D02*
X027338Y016025D01*
X027206Y016183D02*
X016967Y016183D01*
X017015Y016342D02*
X027158Y016342D01*
X027169Y016500D02*
X017004Y016500D01*
X016925Y016659D02*
X027248Y016659D01*
X027948Y016659D02*
X028893Y016659D01*
X028893Y016500D02*
X028028Y016500D01*
X028038Y016342D02*
X028893Y016342D01*
X028893Y016183D02*
X027991Y016183D01*
X027859Y016025D02*
X028893Y016025D01*
X028893Y014598D02*
X027987Y014598D01*
X028038Y014440D02*
X028893Y014440D01*
X028893Y014281D02*
X028031Y014281D01*
X027957Y014123D02*
X028893Y014123D01*
X028893Y013964D02*
X027729Y013964D01*
X027736Y013806D02*
X028893Y013806D01*
X028893Y013647D02*
X027960Y013647D01*
X028032Y013489D02*
X028893Y013489D01*
X028893Y013330D02*
X028038Y013330D01*
X027986Y013172D02*
X028893Y013172D01*
X028893Y013013D02*
X027847Y013013D01*
X027686Y012826D02*
X027511Y012826D01*
X027349Y012759D01*
X027225Y012635D01*
X027158Y012474D01*
X027158Y012299D01*
X027225Y012137D01*
X027349Y012013D01*
X027511Y011946D01*
X027686Y011946D01*
X027848Y012013D01*
X027971Y012137D01*
X028038Y012299D01*
X028038Y012474D01*
X027971Y012635D01*
X027848Y012759D01*
X027686Y012826D01*
X027911Y012696D02*
X028893Y012696D01*
X028893Y012538D02*
X028012Y012538D01*
X028038Y012379D02*
X028893Y012379D01*
X028893Y012221D02*
X028006Y012221D01*
X027896Y012062D02*
X028893Y012062D01*
X028893Y011904D02*
X021218Y011904D01*
X021242Y011913D02*
X021337Y012008D01*
X021388Y012133D01*
X021388Y012267D01*
X021370Y012312D01*
X021492Y012312D01*
X021617Y012363D01*
X021712Y012458D01*
X021763Y012583D01*
X021763Y012717D01*
X021712Y012842D01*
X021617Y012937D01*
X021492Y012988D01*
X021358Y012988D01*
X021233Y012937D01*
X021138Y012842D01*
X021087Y012717D01*
X021087Y012583D01*
X021105Y012538D01*
X020983Y012538D01*
X020858Y012487D01*
X020763Y012392D01*
X020712Y012267D01*
X020712Y012133D01*
X020763Y012008D01*
X020858Y011913D01*
X020983Y011862D01*
X021117Y011862D01*
X021242Y011913D01*
X021359Y012062D02*
X027300Y012062D01*
X027191Y012221D02*
X021388Y012221D01*
X021632Y012379D02*
X021968Y012379D01*
X021983Y012363D02*
X022108Y012312D01*
X022242Y012312D01*
X022367Y012363D01*
X022462Y012458D01*
X022513Y012581D01*
X022563Y012458D01*
X022658Y012363D01*
X022783Y012312D01*
X022917Y012312D01*
X023042Y012363D01*
X023137Y012458D01*
X023188Y012583D01*
X023188Y012717D01*
X023137Y012842D01*
X023042Y012937D01*
X022917Y012988D01*
X022783Y012988D01*
X022658Y012937D01*
X022563Y012842D01*
X022513Y012719D01*
X022462Y012842D01*
X022367Y012937D01*
X022242Y012988D01*
X022108Y012988D01*
X021983Y012937D01*
X021888Y012842D01*
X021837Y012717D01*
X021837Y012583D01*
X021888Y012458D01*
X021983Y012363D01*
X021856Y012538D02*
X021744Y012538D01*
X021763Y012696D02*
X021837Y012696D01*
X021901Y012855D02*
X021699Y012855D01*
X022449Y012855D02*
X022576Y012855D01*
X022531Y012538D02*
X022494Y012538D01*
X022382Y012379D02*
X022643Y012379D01*
X023057Y012379D02*
X027158Y012379D01*
X027185Y012538D02*
X023169Y012538D01*
X023188Y012696D02*
X027286Y012696D01*
X027350Y013013D02*
X018245Y013013D01*
X018263Y013172D02*
X027211Y013172D01*
X027158Y013330D02*
X018198Y013330D01*
X018074Y012696D02*
X016887Y012696D01*
X016948Y012635D02*
X016824Y012759D01*
X016662Y012826D01*
X016487Y012826D01*
X016326Y012759D01*
X016202Y012635D01*
X016135Y012474D01*
X016135Y012299D01*
X016202Y012137D01*
X016326Y012013D01*
X016487Y011946D01*
X016662Y011946D01*
X016824Y012013D01*
X016948Y012137D01*
X017015Y012299D01*
X017015Y012474D01*
X016948Y012635D01*
X016988Y012538D02*
X018102Y012538D01*
X018239Y012379D02*
X017015Y012379D01*
X016982Y012221D02*
X019551Y012221D01*
X019577Y012062D02*
X016873Y012062D01*
X016824Y011759D02*
X016662Y011826D01*
X016487Y011826D01*
X016326Y011759D01*
X016202Y011635D01*
X016135Y011474D01*
X016135Y011299D01*
X016202Y011137D01*
X016326Y011013D01*
X016487Y010946D01*
X016662Y010946D01*
X016824Y011013D01*
X016948Y011137D01*
X017015Y011299D01*
X017015Y011474D01*
X016948Y011635D01*
X016824Y011759D01*
X016838Y011745D02*
X017524Y011745D01*
X017527Y011751D02*
X017475Y011627D01*
X017475Y011493D01*
X017527Y011368D01*
X017586Y011309D01*
X017548Y011271D01*
X017497Y011147D01*
X017497Y011013D01*
X017548Y010888D01*
X017643Y010793D01*
X017767Y010742D01*
X017902Y010742D01*
X018026Y010793D01*
X018121Y010888D01*
X018173Y011013D01*
X018173Y011147D01*
X018121Y011271D01*
X018062Y011331D01*
X018100Y011368D01*
X018151Y011493D01*
X018151Y011627D01*
X018100Y011751D01*
X018005Y011846D01*
X017881Y011898D01*
X017746Y011898D01*
X017622Y011846D01*
X017527Y011751D01*
X017475Y011587D02*
X016968Y011587D01*
X017015Y011428D02*
X017502Y011428D01*
X017547Y011270D02*
X017003Y011270D01*
X016922Y011111D02*
X017497Y011111D01*
X017521Y010953D02*
X016678Y010953D01*
X016662Y010826D02*
X016487Y010826D01*
X016326Y010759D01*
X016202Y010635D01*
X016135Y010474D01*
X016135Y010299D01*
X016202Y010137D01*
X016326Y010013D01*
X016487Y009946D01*
X016662Y009946D01*
X016824Y010013D01*
X016948Y010137D01*
X017015Y010299D01*
X017015Y010474D01*
X016948Y010635D01*
X016824Y010759D01*
X016662Y010826D01*
X016740Y010794D02*
X017642Y010794D01*
X018027Y010794D02*
X019123Y010794D01*
X019123Y010740D02*
X019174Y010616D01*
X019269Y010521D01*
X019393Y010469D01*
X019528Y010469D01*
X019652Y010521D01*
X019747Y010616D01*
X019799Y010740D01*
X019799Y010875D01*
X019747Y010999D01*
X019652Y011094D01*
X019528Y011146D01*
X019393Y011146D01*
X019269Y011094D01*
X019174Y010999D01*
X019123Y010875D01*
X019123Y010740D01*
X019166Y010636D02*
X016948Y010636D01*
X017013Y010477D02*
X019375Y010477D01*
X019546Y010477D02*
X020171Y010477D01*
X020208Y010462D02*
X020342Y010462D01*
X020467Y010513D01*
X020512Y010559D01*
X020558Y010513D01*
X020683Y010462D01*
X020817Y010462D01*
X020942Y010513D01*
X021037Y010608D01*
X021088Y010733D01*
X021088Y010867D01*
X021037Y010992D01*
X020942Y011087D01*
X020817Y011138D01*
X020683Y011138D01*
X020558Y011087D01*
X020512Y011041D01*
X020467Y011087D01*
X020342Y011138D01*
X020208Y011138D01*
X020083Y011087D01*
X019988Y010992D01*
X019937Y010867D01*
X019937Y010733D01*
X019988Y010608D01*
X020083Y010513D01*
X020208Y010462D01*
X020379Y010477D02*
X020646Y010477D01*
X020854Y010477D02*
X022316Y010477D01*
X022312Y010467D02*
X022312Y010333D01*
X022363Y010208D01*
X022458Y010113D01*
X022583Y010062D01*
X022717Y010062D01*
X022842Y010113D01*
X022937Y010208D01*
X022961Y010267D01*
X023033Y010237D01*
X023167Y010237D01*
X023292Y010288D01*
X023387Y010383D01*
X023425Y010476D01*
X023458Y010462D01*
X023592Y010462D01*
X023717Y010513D01*
X023812Y010608D01*
X023863Y010733D01*
X023863Y010867D01*
X023812Y010992D01*
X023717Y011087D01*
X023592Y011138D01*
X023458Y011138D01*
X023333Y011087D01*
X023238Y010992D01*
X023200Y010899D01*
X023167Y010913D01*
X023033Y010913D01*
X022908Y010862D01*
X022813Y010767D01*
X022789Y010708D01*
X022717Y010738D01*
X022583Y010738D01*
X022458Y010687D01*
X022363Y010592D01*
X022312Y010467D01*
X022318Y010319D02*
X017015Y010319D01*
X016957Y010160D02*
X018520Y010160D01*
X018493Y010133D02*
X018441Y010009D01*
X018441Y009874D01*
X018493Y009750D01*
X018588Y009655D01*
X018712Y009603D01*
X018847Y009603D01*
X018971Y009655D01*
X019066Y009750D01*
X019118Y009874D01*
X019118Y010009D01*
X019066Y010133D01*
X018971Y010228D01*
X018847Y010279D01*
X018712Y010279D01*
X018588Y010228D01*
X018493Y010133D01*
X018441Y010002D02*
X016796Y010002D01*
X016662Y009826D02*
X016824Y009759D01*
X016948Y009635D01*
X017015Y009474D01*
X017015Y009299D01*
X016948Y009137D01*
X016824Y009013D01*
X016662Y008946D01*
X016487Y008946D01*
X016326Y009013D01*
X016202Y009137D01*
X016135Y009299D01*
X016135Y009474D01*
X016202Y009635D01*
X016326Y009759D01*
X016487Y009826D01*
X016662Y009826D01*
X016899Y009685D02*
X018558Y009685D01*
X018454Y009843D02*
X015280Y009843D01*
X015280Y009685D02*
X016251Y009685D01*
X016156Y009526D02*
X015280Y009526D01*
X015280Y009368D02*
X016135Y009368D01*
X016172Y009209D02*
X015280Y009209D01*
X015280Y009051D02*
X016288Y009051D01*
X016326Y008759D02*
X016202Y008635D01*
X016135Y008474D01*
X016135Y008299D01*
X016202Y008137D01*
X016326Y008013D01*
X016487Y007946D01*
X016662Y007946D01*
X016824Y008013D01*
X016948Y008137D01*
X017015Y008299D01*
X017015Y008474D01*
X016948Y008635D01*
X016824Y008759D01*
X016662Y008826D01*
X016487Y008826D01*
X016326Y008759D01*
X016300Y008734D02*
X015280Y008734D01*
X015280Y008892D02*
X018599Y008892D01*
X018599Y008850D02*
X018650Y008726D01*
X018734Y008642D01*
X018650Y008558D01*
X018599Y008434D01*
X018599Y008299D01*
X018650Y008175D01*
X018745Y008080D01*
X018870Y008028D01*
X019004Y008028D01*
X019129Y008080D01*
X019224Y008175D01*
X019275Y008299D01*
X019275Y008434D01*
X019224Y008558D01*
X019140Y008642D01*
X019224Y008726D01*
X019275Y008850D01*
X019275Y008985D01*
X019224Y009109D01*
X019129Y009204D01*
X019004Y009256D01*
X018870Y009256D01*
X018745Y009204D01*
X018650Y009109D01*
X018599Y008985D01*
X018599Y008850D01*
X018647Y008734D02*
X016850Y008734D01*
X016973Y008575D02*
X018667Y008575D01*
X018599Y008417D02*
X017015Y008417D01*
X016998Y008258D02*
X018616Y008258D01*
X018726Y008100D02*
X016910Y008100D01*
X016768Y007783D02*
X027405Y007783D01*
X027349Y007759D02*
X027511Y007826D01*
X027686Y007826D01*
X027848Y007759D01*
X027971Y007635D01*
X028038Y007474D01*
X028038Y007299D01*
X027971Y007137D01*
X027848Y007013D01*
X027686Y006946D01*
X027511Y006946D01*
X027349Y007013D01*
X027225Y007137D01*
X027158Y007299D01*
X027158Y007474D01*
X027225Y007635D01*
X027349Y007759D01*
X027221Y007624D02*
X023622Y007624D01*
X023617Y007630D02*
X023492Y007681D01*
X023358Y007681D01*
X023234Y007630D01*
X023139Y007534D01*
X023087Y007410D01*
X023087Y007276D01*
X023139Y007151D01*
X023223Y007067D01*
X023139Y006983D01*
X023087Y006859D01*
X023087Y006724D01*
X023139Y006600D01*
X023234Y006505D01*
X023358Y006454D01*
X023492Y006454D01*
X023617Y006505D01*
X023712Y006600D01*
X023763Y006724D01*
X023763Y006859D01*
X023712Y006983D01*
X023628Y007067D01*
X023712Y007151D01*
X023763Y007276D01*
X023763Y007410D01*
X023712Y007534D01*
X023617Y007630D01*
X023740Y007466D02*
X027158Y007466D01*
X027158Y007307D02*
X023763Y007307D01*
X023709Y007149D02*
X027221Y007149D01*
X027405Y006990D02*
X023705Y006990D01*
X023763Y006832D02*
X024798Y006832D01*
X024792Y006826D02*
X024741Y006702D01*
X024741Y006567D01*
X024792Y006443D01*
X024887Y006348D01*
X025011Y006296D01*
X025146Y006296D01*
X025270Y006348D01*
X025365Y006443D01*
X025417Y006567D01*
X025417Y006702D01*
X025365Y006826D01*
X025270Y006921D01*
X025146Y006972D01*
X025011Y006972D01*
X024887Y006921D01*
X024792Y006826D01*
X024741Y006673D02*
X023742Y006673D01*
X023626Y006515D02*
X024762Y006515D01*
X024879Y006356D02*
X023272Y006356D01*
X023287Y006342D02*
X023192Y006437D01*
X023067Y006488D01*
X022933Y006488D01*
X022808Y006437D01*
X022746Y006374D01*
X022672Y006448D01*
X022548Y006500D01*
X022413Y006500D01*
X022308Y006457D01*
X022373Y006521D01*
X022425Y006646D01*
X022425Y006780D01*
X022373Y006905D01*
X022278Y007000D01*
X022154Y007051D01*
X022019Y007051D01*
X021895Y007000D01*
X021800Y006905D01*
X021749Y006780D01*
X021749Y006646D01*
X021800Y006521D01*
X021895Y006426D01*
X022019Y006375D01*
X022154Y006375D01*
X022259Y006418D01*
X022194Y006353D01*
X022142Y006229D01*
X022142Y006095D01*
X022194Y005970D01*
X022289Y005875D01*
X022413Y005824D01*
X022548Y005824D01*
X022672Y005875D01*
X022734Y005938D01*
X022808Y005863D01*
X022933Y005812D01*
X023067Y005812D01*
X023192Y005863D01*
X023287Y005958D01*
X023338Y006083D01*
X023338Y006217D01*
X023287Y006342D01*
X023338Y006198D02*
X027200Y006198D01*
X027225Y006137D02*
X027349Y006013D01*
X027511Y005946D01*
X027686Y005946D01*
X027848Y006013D01*
X027971Y006137D01*
X028038Y006299D01*
X028038Y006474D01*
X027971Y006635D01*
X027848Y006759D01*
X027686Y006826D01*
X027511Y006826D01*
X027349Y006759D01*
X027225Y006635D01*
X027158Y006474D01*
X027158Y006299D01*
X027225Y006137D01*
X027323Y006039D02*
X023320Y006039D01*
X023209Y005881D02*
X028893Y005881D01*
X028893Y006039D02*
X027873Y006039D01*
X027997Y006198D02*
X028893Y006198D01*
X028893Y006356D02*
X028038Y006356D01*
X028022Y006515D02*
X028893Y006515D01*
X028893Y006673D02*
X027934Y006673D01*
X027792Y006990D02*
X028893Y006990D01*
X028893Y006832D02*
X025360Y006832D01*
X025417Y006673D02*
X027263Y006673D01*
X027175Y006515D02*
X025395Y006515D01*
X025279Y006356D02*
X027158Y006356D01*
X027349Y005759D02*
X027225Y005635D01*
X027158Y005474D01*
X027158Y005299D01*
X027225Y005137D01*
X027349Y005013D01*
X027511Y004946D01*
X027686Y004946D01*
X027848Y005013D01*
X027971Y005137D01*
X028038Y005299D01*
X028038Y005474D01*
X027971Y005635D01*
X027848Y005759D01*
X027686Y005826D01*
X027511Y005826D01*
X027349Y005759D01*
X027312Y005722D02*
X016861Y005722D01*
X016824Y005759D02*
X016662Y005826D01*
X016487Y005826D01*
X016326Y005759D01*
X016202Y005635D01*
X016135Y005474D01*
X016135Y005299D01*
X016202Y005137D01*
X016326Y005013D01*
X016487Y004946D01*
X016662Y004946D01*
X016824Y005013D01*
X016948Y005137D01*
X017015Y005299D01*
X017015Y005474D01*
X016948Y005635D01*
X016824Y005759D01*
X016662Y005946D02*
X016824Y006013D01*
X016948Y006137D01*
X017015Y006299D01*
X017015Y006474D01*
X016948Y006635D01*
X016824Y006759D01*
X016662Y006826D01*
X016487Y006826D01*
X016326Y006759D01*
X016202Y006635D01*
X016135Y006474D01*
X016135Y006299D01*
X016202Y006137D01*
X016326Y006013D01*
X016487Y005946D01*
X016662Y005946D01*
X016850Y006039D02*
X020705Y006039D01*
X020687Y006083D02*
X020738Y005958D01*
X020833Y005863D01*
X020958Y005812D01*
X021092Y005812D01*
X021217Y005863D01*
X021312Y005958D01*
X021322Y005984D01*
X021328Y005970D01*
X021423Y005875D01*
X021547Y005824D01*
X021681Y005824D01*
X021806Y005875D01*
X021901Y005970D01*
X021952Y006095D01*
X021952Y006229D01*
X021901Y006353D01*
X021806Y006448D01*
X021681Y006500D01*
X021547Y006500D01*
X021423Y006448D01*
X021328Y006353D01*
X021317Y006328D01*
X021312Y006342D01*
X021217Y006437D01*
X021092Y006488D01*
X020958Y006488D01*
X020833Y006437D01*
X020738Y006342D01*
X020687Y006217D01*
X020687Y006083D01*
X020687Y006198D02*
X016973Y006198D01*
X017015Y006356D02*
X020753Y006356D01*
X020816Y005881D02*
X015280Y005881D01*
X015280Y006039D02*
X016300Y006039D01*
X016177Y006198D02*
X015280Y006198D01*
X015280Y006356D02*
X016135Y006356D01*
X016152Y006515D02*
X015280Y006515D01*
X015280Y006673D02*
X016239Y006673D01*
X016382Y006990D02*
X015280Y006990D01*
X015280Y006832D02*
X018441Y006832D01*
X018441Y006803D02*
X018493Y006679D01*
X018588Y006584D01*
X018712Y006532D01*
X018847Y006532D01*
X018971Y006584D01*
X019066Y006679D01*
X019118Y006803D01*
X019118Y006938D01*
X019066Y007062D01*
X019033Y007095D01*
X019129Y007135D01*
X019224Y007230D01*
X019275Y007354D01*
X019275Y007489D01*
X019224Y007613D01*
X019129Y007708D01*
X019004Y007760D01*
X018870Y007760D01*
X018745Y007708D01*
X018650Y007613D01*
X018599Y007489D01*
X018599Y007354D01*
X018650Y007230D01*
X018684Y007197D01*
X018588Y007157D01*
X018493Y007062D01*
X018441Y006938D01*
X018441Y006803D01*
X018499Y006673D02*
X016910Y006673D01*
X016998Y006515D02*
X021807Y006515D01*
X021749Y006673D02*
X019060Y006673D01*
X019118Y006832D02*
X021770Y006832D01*
X021885Y006990D02*
X019096Y006990D01*
X019142Y007149D02*
X023141Y007149D01*
X023145Y006990D02*
X022288Y006990D01*
X022403Y006832D02*
X023087Y006832D01*
X023108Y006673D02*
X022425Y006673D01*
X022366Y006515D02*
X023224Y006515D01*
X022791Y005881D02*
X022677Y005881D01*
X022283Y005881D02*
X021811Y005881D01*
X021929Y006039D02*
X022165Y006039D01*
X022142Y006198D02*
X021952Y006198D01*
X021898Y006356D02*
X022196Y006356D01*
X021330Y006356D02*
X021297Y006356D01*
X021234Y005881D02*
X021417Y005881D01*
X022289Y004401D02*
X022194Y004306D01*
X022142Y004182D01*
X022142Y004138D01*
X022019Y004138D01*
X021895Y004086D01*
X021800Y003991D01*
X021749Y003867D01*
X021749Y003823D01*
X021626Y003823D01*
X021501Y003771D01*
X021406Y003676D01*
X021355Y003552D01*
X021355Y003417D01*
X021406Y003293D01*
X021501Y003198D01*
X021626Y003147D01*
X021760Y003147D01*
X021884Y003198D01*
X021980Y003293D01*
X022031Y003417D01*
X022031Y003461D01*
X022154Y003461D01*
X022278Y003513D01*
X022373Y003608D01*
X022425Y003732D01*
X022425Y003776D01*
X022548Y003776D01*
X022672Y003828D01*
X022767Y003923D01*
X022818Y004047D01*
X022818Y004182D01*
X022767Y004306D01*
X022672Y004401D01*
X022548Y004453D01*
X022413Y004453D01*
X022289Y004401D01*
X022189Y004296D02*
X017013Y004296D01*
X017015Y004299D02*
X016948Y004137D01*
X022018Y004137D01*
X021795Y003979D02*
X016740Y003979D01*
X016662Y003946D02*
X016824Y004013D01*
X016948Y004137D01*
X017015Y004299D02*
X017015Y004474D01*
X016948Y004635D01*
X016824Y004759D01*
X016662Y004826D01*
X016487Y004826D01*
X016326Y004759D01*
X016202Y004635D01*
X016135Y004474D01*
X016135Y004299D01*
X016202Y004137D01*
X016326Y004013D01*
X016487Y003946D01*
X016662Y003946D01*
X016662Y003826D02*
X016487Y003826D01*
X016326Y003759D01*
X016202Y003635D01*
X016135Y003474D01*
X016135Y003299D01*
X016202Y003137D01*
X016326Y003013D01*
X016487Y002946D01*
X016662Y002946D01*
X016824Y003013D01*
X016948Y003137D01*
X017015Y003299D01*
X017015Y003474D01*
X016948Y003635D01*
X016824Y003759D01*
X016662Y003826D01*
X016677Y003820D02*
X021619Y003820D01*
X021400Y003662D02*
X016922Y003662D01*
X017003Y003503D02*
X021355Y003503D01*
X021385Y003345D02*
X017015Y003345D01*
X016968Y003186D02*
X021530Y003186D01*
X021855Y003186D02*
X023420Y003186D01*
X023437Y003193D02*
X023312Y003141D01*
X023217Y003046D01*
X023166Y002922D01*
X023166Y002787D01*
X023217Y002663D01*
X023312Y002568D01*
X023437Y002517D01*
X023571Y002517D01*
X023695Y002568D01*
X023791Y002663D01*
X023842Y002787D01*
X023842Y002922D01*
X023791Y003046D01*
X023695Y003141D01*
X023571Y003193D01*
X023437Y003193D01*
X023588Y003186D02*
X025389Y003186D01*
X025405Y003193D02*
X025281Y003141D01*
X025186Y003046D01*
X025134Y002922D01*
X025134Y002787D01*
X025186Y002663D01*
X025281Y002568D01*
X025405Y002517D01*
X025540Y002517D01*
X025664Y002568D01*
X025759Y002663D01*
X025811Y002787D01*
X025811Y002922D01*
X025759Y003046D01*
X025664Y003141D01*
X025540Y003193D01*
X025405Y003193D01*
X025556Y003186D02*
X027205Y003186D01*
X027225Y003137D02*
X027158Y003299D01*
X027158Y003474D01*
X027225Y003635D01*
X027349Y003759D01*
X027511Y003826D01*
X027686Y003826D01*
X027848Y003759D01*
X027971Y003635D01*
X028038Y003474D01*
X028038Y003299D01*
X027971Y003137D01*
X027848Y003013D01*
X027686Y002946D01*
X027511Y002946D01*
X027349Y003013D01*
X027225Y003137D01*
X027335Y003028D02*
X025767Y003028D01*
X025811Y002869D02*
X028893Y002869D01*
X028893Y002711D02*
X027896Y002711D01*
X027848Y002759D02*
X027971Y002635D01*
X028038Y002474D01*
X028038Y002299D01*
X027971Y002137D01*
X027848Y002013D01*
X027686Y001946D01*
X027511Y001946D01*
X027349Y002013D01*
X027225Y002137D01*
X027158Y002299D01*
X027158Y002474D01*
X027225Y002635D01*
X027349Y002759D01*
X027511Y002826D01*
X027686Y002826D01*
X027848Y002759D01*
X028006Y002552D02*
X028893Y002552D01*
X028893Y002394D02*
X028038Y002394D01*
X028012Y002235D02*
X028893Y002235D01*
X028893Y002077D02*
X027911Y002077D01*
X027901Y001760D02*
X028893Y001760D01*
X028893Y001918D02*
X015280Y001918D01*
X015280Y001760D02*
X016272Y001760D01*
X016146Y001601D02*
X015280Y001601D01*
X015280Y001443D02*
X016098Y001443D01*
X016105Y001284D02*
X015280Y001284D01*
X015280Y001126D02*
X016171Y001126D01*
X016340Y000967D02*
X015280Y000967D01*
X015280Y002077D02*
X016262Y002077D01*
X016202Y002137D02*
X016326Y002013D01*
X016487Y001946D01*
X016662Y001946D01*
X016824Y002013D01*
X016948Y002137D01*
X017015Y002299D01*
X017015Y002474D01*
X016948Y002635D01*
X016824Y002759D01*
X016662Y002826D01*
X016487Y002826D01*
X016326Y002759D01*
X016202Y002635D01*
X016135Y002474D01*
X016135Y002299D01*
X016202Y002137D01*
X016161Y002235D02*
X015280Y002235D01*
X015280Y002394D02*
X016135Y002394D01*
X016167Y002552D02*
X015280Y002552D01*
X015280Y002711D02*
X016277Y002711D01*
X016311Y003028D02*
X015280Y003028D01*
X015280Y003186D02*
X016181Y003186D01*
X016135Y003345D02*
X015280Y003345D01*
X015280Y003503D02*
X016147Y003503D01*
X016228Y003662D02*
X015280Y003662D01*
X015280Y003820D02*
X016472Y003820D01*
X016409Y003979D02*
X015280Y003979D01*
X015280Y004137D02*
X016202Y004137D01*
X016136Y004296D02*
X015280Y004296D01*
X015280Y004454D02*
X016135Y004454D01*
X016192Y004613D02*
X015280Y004613D01*
X015280Y004771D02*
X016354Y004771D01*
X016251Y005088D02*
X015280Y005088D01*
X015280Y004930D02*
X017969Y004930D01*
X017969Y004969D02*
X017969Y004835D01*
X018020Y004710D01*
X018116Y004615D01*
X018240Y004564D01*
X018374Y004564D01*
X018499Y004615D01*
X018520Y004637D01*
X018520Y004598D01*
X018572Y004474D01*
X018667Y004379D01*
X018791Y004328D01*
X018926Y004328D01*
X019050Y004379D01*
X019145Y004474D01*
X019196Y004598D01*
X019196Y004733D01*
X019145Y004857D01*
X019050Y004952D01*
X018926Y005004D01*
X018791Y005004D01*
X018667Y004952D01*
X018645Y004931D01*
X018645Y004969D01*
X018594Y005093D01*
X018499Y005189D01*
X018374Y005240D01*
X018240Y005240D01*
X018116Y005189D01*
X018020Y005093D01*
X017969Y004969D01*
X018018Y005088D02*
X016899Y005088D01*
X016993Y005247D02*
X023978Y005247D01*
X023953Y005307D02*
X024005Y005183D01*
X024100Y005088D01*
X024224Y005036D01*
X024359Y005036D01*
X024483Y005088D01*
X027274Y005088D01*
X027180Y005247D02*
X024604Y005247D01*
X024629Y005307D02*
X024578Y005183D01*
X024483Y005088D01*
X024629Y005307D02*
X024629Y005442D01*
X024578Y005566D01*
X024483Y005661D01*
X024359Y005713D01*
X024224Y005713D01*
X024100Y005661D01*
X024005Y005566D01*
X023953Y005442D01*
X023953Y005307D01*
X023953Y005405D02*
X017015Y005405D01*
X016978Y005564D02*
X024004Y005564D01*
X024579Y005564D02*
X027196Y005564D01*
X027158Y005405D02*
X024629Y005405D01*
X024100Y005088D02*
X018596Y005088D01*
X018520Y004613D02*
X018492Y004613D01*
X018592Y004454D02*
X017015Y004454D01*
X016957Y004613D02*
X018122Y004613D01*
X017995Y004771D02*
X016796Y004771D01*
X016156Y005247D02*
X015280Y005247D01*
X015280Y005405D02*
X016135Y005405D01*
X016172Y005564D02*
X015280Y005564D01*
X015280Y005722D02*
X016288Y005722D01*
X016487Y006946D02*
X016326Y007013D01*
X016202Y007137D01*
X016135Y007299D01*
X016135Y007474D01*
X016202Y007635D01*
X016326Y007759D01*
X016487Y007826D01*
X016662Y007826D01*
X016824Y007759D01*
X016948Y007635D01*
X017015Y007474D01*
X017015Y007299D01*
X016948Y007137D01*
X016824Y007013D01*
X016662Y006946D01*
X016487Y006946D01*
X016768Y006990D02*
X018463Y006990D01*
X018579Y007149D02*
X016953Y007149D01*
X017015Y007307D02*
X018619Y007307D01*
X018599Y007466D02*
X017015Y007466D01*
X016953Y007624D02*
X018661Y007624D01*
X019213Y007624D02*
X023228Y007624D01*
X023110Y007466D02*
X019275Y007466D01*
X019255Y007307D02*
X023087Y007307D01*
X024635Y008411D02*
X024730Y008316D01*
X024854Y008265D01*
X024989Y008265D01*
X025113Y008316D01*
X025208Y008411D01*
X025259Y008536D01*
X025259Y008670D01*
X025208Y008794D01*
X025124Y008878D01*
X025208Y008962D01*
X025259Y009087D01*
X025259Y009221D01*
X025208Y009345D01*
X025141Y009413D01*
X025212Y009483D01*
X025263Y009608D01*
X025263Y009742D01*
X025212Y009867D01*
X025117Y009962D01*
X024992Y010013D01*
X024858Y010013D01*
X024733Y009962D01*
X024638Y009867D01*
X024587Y009742D01*
X024587Y009608D01*
X024638Y009483D01*
X024706Y009416D01*
X024635Y009345D01*
X024583Y009221D01*
X024583Y009087D01*
X024635Y008962D01*
X024719Y008878D01*
X024635Y008794D01*
X024583Y008670D01*
X024583Y008536D01*
X024635Y008411D01*
X024632Y008417D02*
X019275Y008417D01*
X019258Y008258D02*
X027175Y008258D01*
X027158Y008299D02*
X027225Y008137D01*
X027349Y008013D01*
X027511Y007946D01*
X027686Y007946D01*
X027848Y008013D01*
X027971Y008137D01*
X028038Y008299D01*
X028038Y008474D01*
X027971Y008635D01*
X027848Y008759D01*
X027686Y008826D01*
X027511Y008826D01*
X027349Y008759D01*
X027225Y008635D01*
X027158Y008474D01*
X027158Y008299D01*
X027158Y008417D02*
X025210Y008417D01*
X025259Y008575D02*
X027200Y008575D01*
X027323Y008734D02*
X025233Y008734D01*
X025137Y008892D02*
X028893Y008892D01*
X028893Y008734D02*
X027873Y008734D01*
X027996Y008575D02*
X028893Y008575D01*
X028893Y008417D02*
X028038Y008417D01*
X028022Y008258D02*
X028893Y008258D01*
X028893Y008100D02*
X027934Y008100D01*
X027791Y007783D02*
X028893Y007783D01*
X028893Y007941D02*
X015280Y007941D01*
X015280Y007783D02*
X016382Y007783D01*
X016197Y007624D02*
X015280Y007624D01*
X015280Y007466D02*
X016135Y007466D01*
X016135Y007307D02*
X015280Y007307D01*
X015280Y007149D02*
X016197Y007149D01*
X016239Y008100D02*
X015280Y008100D01*
X015280Y008258D02*
X016152Y008258D01*
X016135Y008417D02*
X015280Y008417D01*
X015280Y008575D02*
X016177Y008575D01*
X016861Y009051D02*
X018626Y009051D01*
X018757Y009209D02*
X016978Y009209D01*
X017015Y009368D02*
X024657Y009368D01*
X024621Y009526D02*
X016993Y009526D01*
X016354Y010002D02*
X015280Y010002D01*
X015280Y010160D02*
X016192Y010160D01*
X016135Y010319D02*
X015280Y010319D01*
X015280Y010477D02*
X016136Y010477D01*
X016202Y010636D02*
X015280Y010636D01*
X015280Y010794D02*
X016410Y010794D01*
X016472Y010953D02*
X015280Y010953D01*
X015280Y011111D02*
X016228Y011111D01*
X016147Y011270D02*
X015280Y011270D01*
X015280Y011428D02*
X016135Y011428D01*
X016182Y011587D02*
X015280Y011587D01*
X015280Y011745D02*
X016311Y011745D01*
X016277Y012062D02*
X015280Y012062D01*
X015280Y011904D02*
X019703Y011904D01*
X020076Y011904D02*
X020882Y011904D01*
X020741Y012062D02*
X020201Y012062D01*
X020227Y012221D02*
X020712Y012221D01*
X020758Y012379D02*
X020507Y012379D01*
X020619Y012538D02*
X020981Y012538D01*
X021087Y012696D02*
X020638Y012696D01*
X020574Y012855D02*
X021151Y012855D01*
X020026Y012855D02*
X019799Y012855D01*
X019863Y012696D02*
X019962Y012696D01*
X019981Y012538D02*
X019844Y012538D01*
X019318Y012379D02*
X019068Y012379D01*
X019193Y012538D02*
X019206Y012538D01*
X019169Y012855D02*
X019251Y012855D01*
X018693Y012379D02*
X018585Y012379D01*
X018103Y011745D02*
X027335Y011745D01*
X027349Y011759D02*
X027225Y011635D01*
X027158Y011474D01*
X027158Y011299D01*
X027225Y011137D01*
X027349Y011013D01*
X027511Y010946D01*
X027686Y010946D01*
X027848Y011013D01*
X027971Y011137D01*
X028038Y011299D01*
X028038Y011474D01*
X027971Y011635D01*
X027848Y011759D01*
X027686Y011826D01*
X027511Y011826D01*
X027349Y011759D01*
X027205Y011587D02*
X018151Y011587D01*
X018125Y011428D02*
X027158Y011428D01*
X027171Y011270D02*
X018122Y011270D01*
X018173Y011111D02*
X019310Y011111D01*
X019155Y010953D02*
X018148Y010953D01*
X019039Y010160D02*
X022412Y010160D01*
X022888Y010160D02*
X027216Y010160D01*
X027225Y010137D02*
X027349Y010013D01*
X027511Y009946D01*
X027686Y009946D01*
X027848Y010013D01*
X027971Y010137D01*
X028038Y010299D01*
X028038Y010474D01*
X027971Y010635D01*
X027848Y010759D01*
X027686Y010826D01*
X027511Y010826D01*
X027349Y010759D01*
X027225Y010635D01*
X027158Y010474D01*
X027158Y010299D01*
X027225Y010137D01*
X027158Y010319D02*
X023322Y010319D01*
X023629Y010477D02*
X027160Y010477D01*
X027225Y010636D02*
X023823Y010636D01*
X023863Y010794D02*
X027433Y010794D01*
X027496Y010953D02*
X023828Y010953D01*
X023658Y011111D02*
X027251Y011111D01*
X027701Y010953D02*
X028893Y010953D01*
X028893Y011111D02*
X027945Y011111D01*
X028026Y011270D02*
X028893Y011270D01*
X028893Y011428D02*
X028038Y011428D01*
X027992Y011587D02*
X028893Y011587D01*
X028893Y011745D02*
X027862Y011745D01*
X027764Y010794D02*
X028893Y010794D01*
X028893Y010636D02*
X027971Y010636D01*
X028037Y010477D02*
X028893Y010477D01*
X028893Y010319D02*
X028038Y010319D01*
X027981Y010160D02*
X028893Y010160D01*
X028893Y010002D02*
X027819Y010002D01*
X027686Y009826D02*
X027511Y009826D01*
X027349Y009759D01*
X027225Y009635D01*
X027158Y009474D01*
X027158Y009299D01*
X027225Y009137D01*
X027349Y009013D01*
X027511Y008946D01*
X027686Y008946D01*
X027848Y009013D01*
X027971Y009137D01*
X028038Y009299D01*
X028038Y009474D01*
X027971Y009635D01*
X027848Y009759D01*
X027686Y009826D01*
X027922Y009685D02*
X028893Y009685D01*
X028893Y009843D02*
X025221Y009843D01*
X025263Y009685D02*
X027274Y009685D01*
X027180Y009526D02*
X025229Y009526D01*
X025186Y009368D02*
X027158Y009368D01*
X027196Y009209D02*
X025259Y009209D01*
X025244Y009051D02*
X027312Y009051D01*
X027885Y009051D02*
X028893Y009051D01*
X028893Y009209D02*
X028001Y009209D01*
X028038Y009368D02*
X028893Y009368D01*
X028893Y009526D02*
X028017Y009526D01*
X027377Y010002D02*
X025020Y010002D01*
X024830Y010002D02*
X019118Y010002D01*
X019105Y009843D02*
X024629Y009843D01*
X024587Y009685D02*
X019001Y009685D01*
X019117Y009209D02*
X024583Y009209D01*
X024598Y009051D02*
X019248Y009051D01*
X019275Y008892D02*
X024705Y008892D01*
X024609Y008734D02*
X019227Y008734D01*
X019207Y008575D02*
X024583Y008575D01*
X027263Y008100D02*
X019148Y008100D01*
X019755Y010636D02*
X019977Y010636D01*
X019937Y010794D02*
X019799Y010794D01*
X019767Y010953D02*
X019972Y010953D01*
X020142Y011111D02*
X019611Y011111D01*
X020408Y011111D02*
X020617Y011111D01*
X020883Y011111D02*
X023392Y011111D01*
X023222Y010953D02*
X021053Y010953D01*
X021088Y010794D02*
X022841Y010794D01*
X022407Y010636D02*
X021048Y010636D01*
X023124Y012855D02*
X028893Y012855D01*
X027237Y013647D02*
X016936Y013647D01*
X017009Y013489D02*
X027165Y013489D01*
X027976Y007624D02*
X028893Y007624D01*
X028893Y007466D02*
X028038Y007466D01*
X028038Y007307D02*
X028893Y007307D01*
X028893Y007149D02*
X027976Y007149D01*
X027885Y005722D02*
X028893Y005722D01*
X028893Y005564D02*
X028001Y005564D01*
X028038Y005405D02*
X028893Y005405D01*
X028893Y005247D02*
X028017Y005247D01*
X027922Y005088D02*
X028893Y005088D01*
X028893Y004930D02*
X019781Y004930D01*
X019758Y004952D02*
X019634Y005004D01*
X019500Y005004D01*
X019375Y004952D01*
X019280Y004857D01*
X019229Y004733D01*
X019229Y004598D01*
X019280Y004474D01*
X019375Y004379D01*
X019500Y004328D01*
X019634Y004328D01*
X019758Y004379D01*
X019854Y004474D01*
X019905Y004598D01*
X019905Y004733D01*
X019854Y004857D01*
X019758Y004952D01*
X019889Y004771D02*
X027378Y004771D01*
X027349Y004759D02*
X027225Y004635D01*
X027158Y004474D01*
X027158Y004299D01*
X027225Y004137D01*
X022818Y004137D01*
X022790Y003979D02*
X027433Y003979D01*
X027511Y003946D02*
X027686Y003946D01*
X027848Y004013D01*
X027971Y004137D01*
X028038Y004299D01*
X028038Y004474D01*
X027971Y004635D01*
X027848Y004759D01*
X027686Y004826D01*
X027511Y004826D01*
X027349Y004759D01*
X027216Y004613D02*
X019905Y004613D01*
X019833Y004454D02*
X027158Y004454D01*
X027160Y004296D02*
X022771Y004296D01*
X022653Y003820D02*
X027496Y003820D01*
X027511Y003946D02*
X027349Y004013D01*
X027225Y004137D01*
X027251Y003662D02*
X022395Y003662D01*
X022254Y003503D02*
X027171Y003503D01*
X027158Y003345D02*
X022001Y003345D01*
X022289Y002984D02*
X022194Y002889D01*
X022142Y002764D01*
X022142Y002630D01*
X022194Y002506D01*
X022289Y002411D01*
X022413Y002359D01*
X022548Y002359D01*
X022672Y002411D01*
X022767Y002506D01*
X022818Y002630D01*
X022818Y002764D01*
X022767Y002889D01*
X022672Y002984D01*
X022548Y003035D01*
X022413Y003035D01*
X022289Y002984D01*
X022394Y003028D02*
X016838Y003028D01*
X016873Y002711D02*
X020972Y002711D01*
X020996Y002720D02*
X020871Y002669D01*
X020776Y002574D01*
X020725Y002450D01*
X020725Y002315D01*
X020776Y002191D01*
X020871Y002096D01*
X020996Y002044D01*
X021130Y002044D01*
X021255Y002096D01*
X021350Y002191D01*
X021401Y002315D01*
X021401Y002450D01*
X021350Y002574D01*
X021255Y002669D01*
X021130Y002720D01*
X020996Y002720D01*
X021154Y002711D02*
X022142Y002711D01*
X022175Y002552D02*
X021359Y002552D01*
X021401Y002394D02*
X022330Y002394D01*
X022631Y002394D02*
X027158Y002394D01*
X027185Y002235D02*
X021368Y002235D01*
X021208Y002077D02*
X027286Y002077D01*
X027296Y001760D02*
X016878Y001760D01*
X017004Y001601D02*
X027169Y001601D01*
X027121Y001443D02*
X017052Y001443D01*
X017045Y001284D02*
X027129Y001284D01*
X027195Y001126D02*
X016979Y001126D01*
X016809Y000967D02*
X027364Y000967D01*
X027833Y000967D02*
X028893Y000967D01*
X028893Y001126D02*
X028002Y001126D01*
X028068Y001284D02*
X028893Y001284D01*
X028893Y001443D02*
X028075Y001443D01*
X028028Y001601D02*
X028893Y001601D01*
X027618Y001601D02*
X027578Y001601D01*
X027578Y001443D02*
X027618Y001443D01*
X027618Y001760D02*
X027578Y001760D01*
X027191Y002552D02*
X025625Y002552D01*
X025779Y002711D02*
X027300Y002711D01*
X027862Y003028D02*
X028893Y003028D01*
X028893Y003186D02*
X027992Y003186D01*
X028038Y003345D02*
X028893Y003345D01*
X028893Y003503D02*
X028026Y003503D01*
X027945Y003662D02*
X028893Y003662D01*
X028893Y003820D02*
X027701Y003820D01*
X027764Y003979D02*
X028893Y003979D01*
X028893Y004137D02*
X027971Y004137D01*
X028037Y004296D02*
X028893Y004296D01*
X028893Y004454D02*
X028038Y004454D01*
X027981Y004613D02*
X028893Y004613D01*
X028893Y004771D02*
X027819Y004771D01*
X025178Y003028D02*
X023798Y003028D01*
X023842Y002869D02*
X025134Y002869D01*
X025166Y002711D02*
X023810Y002711D01*
X023657Y002552D02*
X025320Y002552D01*
X023351Y002552D02*
X022786Y002552D01*
X022818Y002711D02*
X023198Y002711D01*
X023166Y002869D02*
X022775Y002869D01*
X022567Y003028D02*
X023210Y003028D01*
X022185Y002869D02*
X015280Y002869D01*
X016555Y001760D02*
X016595Y001760D01*
X016595Y001601D02*
X016555Y001601D01*
X016555Y001443D02*
X016595Y001443D01*
X016887Y002077D02*
X020918Y002077D01*
X020758Y002235D02*
X016988Y002235D01*
X017015Y002394D02*
X020725Y002394D01*
X020767Y002552D02*
X016982Y002552D01*
X019125Y004454D02*
X019301Y004454D01*
X019229Y004613D02*
X019196Y004613D01*
X019181Y004771D02*
X019245Y004771D01*
X019353Y004930D02*
X019073Y004930D01*
X016167Y012221D02*
X015280Y012221D01*
X015280Y012379D02*
X016135Y012379D01*
X016161Y012538D02*
X015280Y012538D01*
X015280Y012696D02*
X016262Y012696D01*
X016326Y013013D02*
X016487Y012946D01*
X016662Y012946D01*
X016824Y013013D01*
X016962Y013172D02*
X017587Y013172D01*
X017652Y013330D02*
X017015Y013330D01*
X016187Y013172D02*
X015280Y013172D01*
X015280Y013330D02*
X016135Y013330D01*
X016141Y013489D02*
X015280Y013489D01*
X015280Y013647D02*
X016213Y013647D01*
X016265Y015074D02*
X015280Y015074D01*
X015280Y015232D02*
X016162Y015232D01*
X016135Y015391D02*
X015280Y015391D01*
X015280Y015549D02*
X016166Y015549D01*
X015925Y021572D02*
X015725Y021572D01*
X015812Y021731D02*
X015838Y021731D01*
X015846Y021889D02*
X015804Y021889D01*
X015706Y022048D02*
X015944Y022048D01*
X016406Y022048D02*
X016569Y022048D01*
X016550Y021572D02*
X016425Y021572D01*
M02*
