G75*
G70*
%OFA0B0*%
%FSLAX24Y24*%
%IPPOS*%
%LPD*%
%AMOC8*
5,1,8,0,0,1.08239X$1,22.5*
%
%ADD10R,0.0470X0.0220*%
%ADD11R,0.0220X0.0470*%
%ADD12R,0.1102X0.0850*%
%ADD13R,0.0500X0.1000*%
%ADD14R,0.0315X0.0315*%
%ADD15R,0.0945X0.0669*%
%ADD16R,0.0394X0.0433*%
%ADD17R,0.0433X0.0394*%
%ADD18C,0.0600*%
%ADD19R,0.1120X0.0600*%
%ADD20R,0.0600X0.1120*%
%ADD21C,0.0396*%
%ADD22C,0.0100*%
%ADD23C,0.0160*%
%ADD24C,0.0120*%
D10*
X018193Y005957D03*
X018193Y006272D03*
X018193Y006587D03*
X018193Y006902D03*
X018193Y007217D03*
X018193Y007532D03*
X018193Y007847D03*
X018193Y008162D03*
X018193Y008477D03*
X018193Y008792D03*
X018193Y009107D03*
X018193Y009422D03*
X018193Y009737D03*
X018193Y010052D03*
X018193Y010367D03*
X018193Y010681D03*
X024335Y010681D03*
X024335Y010367D03*
X024335Y010052D03*
X024335Y009737D03*
X024335Y009422D03*
X024335Y009107D03*
X024335Y008792D03*
X024335Y008477D03*
X024335Y008162D03*
X024335Y007847D03*
X024335Y007532D03*
X024335Y007217D03*
X024335Y006902D03*
X024335Y006587D03*
X024335Y006272D03*
X024335Y005957D03*
D11*
X023626Y005248D03*
X023311Y005248D03*
X022996Y005248D03*
X022681Y005248D03*
X022366Y005248D03*
X022051Y005248D03*
X021736Y005248D03*
X021421Y005248D03*
X021106Y005248D03*
X020791Y005248D03*
X020476Y005248D03*
X020161Y005248D03*
X019846Y005248D03*
X019531Y005248D03*
X019217Y005248D03*
X018902Y005248D03*
X018902Y011390D03*
X019217Y011390D03*
X019531Y011390D03*
X019846Y011390D03*
X020161Y011390D03*
X020476Y011390D03*
X020791Y011390D03*
X021106Y011390D03*
X021421Y011390D03*
X021736Y011390D03*
X022051Y011390D03*
X022366Y011390D03*
X022681Y011390D03*
X022996Y011390D03*
X023311Y011390D03*
X023626Y011390D03*
D12*
X024114Y001784D03*
X026004Y001784D03*
D13*
X021031Y001532D03*
X020031Y001532D03*
X019031Y001532D03*
X019031Y003782D03*
X020031Y003782D03*
X021031Y003782D03*
D14*
X018171Y001839D03*
X017580Y001839D03*
X024968Y010619D03*
X025558Y010619D03*
D15*
X025823Y009319D03*
X025823Y007863D03*
D16*
X025638Y007193D03*
X024929Y007193D03*
X025559Y010028D03*
X026268Y010028D03*
X026217Y011134D03*
X025508Y011134D03*
X018280Y005445D03*
X017571Y005445D03*
X017569Y004064D03*
X018278Y004064D03*
X024224Y002843D03*
X024933Y002843D03*
D17*
X026268Y006489D03*
X026268Y007197D03*
X017606Y006744D03*
X017606Y006036D03*
X017606Y009087D03*
X017606Y009796D03*
X015592Y019919D03*
X015592Y020628D03*
X016175Y022346D03*
X016800Y022346D03*
X016800Y023054D03*
X016175Y023054D03*
D18*
X016275Y020386D02*
X016875Y020386D01*
X016875Y019386D02*
X016275Y019386D01*
X016275Y018386D02*
X016875Y018386D01*
X016875Y017386D02*
X016275Y017386D01*
X016275Y016386D02*
X016875Y016386D01*
X016875Y015386D02*
X016275Y015386D01*
X016275Y014386D02*
X016875Y014386D01*
X016875Y013386D02*
X016275Y013386D01*
X016275Y012386D02*
X016875Y012386D01*
X016875Y011386D02*
X016275Y011386D01*
X016275Y010386D02*
X016875Y010386D01*
X016875Y009386D02*
X016275Y009386D01*
X016275Y008386D02*
X016875Y008386D01*
X016875Y007386D02*
X016275Y007386D01*
X016275Y006386D02*
X016875Y006386D01*
X016875Y005386D02*
X016275Y005386D01*
X016275Y004386D02*
X016875Y004386D01*
X016875Y003386D02*
X016275Y003386D01*
X016275Y002386D02*
X016875Y002386D01*
X016875Y001386D02*
X016275Y001386D01*
X027298Y001386D02*
X027898Y001386D01*
X027898Y002386D02*
X027298Y002386D01*
X027298Y003386D02*
X027898Y003386D01*
X027898Y004386D02*
X027298Y004386D01*
X027298Y005386D02*
X027898Y005386D01*
X027898Y006386D02*
X027298Y006386D01*
X027298Y007386D02*
X027898Y007386D01*
X027898Y008386D02*
X027298Y008386D01*
X027298Y009386D02*
X027898Y009386D01*
X027898Y010386D02*
X027298Y010386D01*
X027298Y011386D02*
X027898Y011386D01*
X027898Y012386D02*
X027298Y012386D01*
X027298Y013386D02*
X027898Y013386D01*
X027898Y014386D02*
X027298Y014386D01*
X027298Y015386D02*
X027898Y015386D01*
X027898Y016386D02*
X027298Y016386D01*
X027298Y017386D02*
X027898Y017386D01*
X027898Y018386D02*
X027298Y018386D01*
X027298Y019386D02*
X027898Y019386D01*
X027898Y020386D02*
X027298Y020386D01*
D19*
X026330Y020510D03*
X026330Y019720D03*
X026330Y018930D03*
X026330Y018140D03*
X026330Y017350D03*
X026330Y016560D03*
X026330Y015770D03*
X026330Y014980D03*
X026330Y014190D03*
X026330Y021300D03*
X026330Y022090D03*
X026330Y022880D03*
X026330Y023670D03*
X026330Y024460D03*
X026330Y025250D03*
X026330Y026040D03*
X017870Y023670D03*
X017870Y022880D03*
X017870Y022090D03*
X017870Y021300D03*
X017870Y020510D03*
X017870Y019720D03*
X017870Y018930D03*
X017870Y018140D03*
X017870Y017350D03*
X017870Y016560D03*
X017870Y015770D03*
X017870Y014980D03*
X017870Y014190D03*
D20*
X019350Y013500D03*
X020140Y013500D03*
X020930Y013500D03*
X021720Y013500D03*
X022510Y013500D03*
X023300Y013500D03*
X024090Y013500D03*
X024880Y013500D03*
D21*
X025950Y013125D03*
X023525Y010800D03*
X023100Y010575D03*
X022650Y010400D03*
X020750Y010800D03*
X020275Y010800D03*
X019461Y010807D03*
X018780Y009941D03*
X018944Y009469D03*
X018937Y008918D03*
X018937Y008367D03*
X018937Y007422D03*
X018780Y006870D03*
X019409Y006241D03*
X018307Y004902D03*
X018858Y004666D03*
X019567Y004666D03*
X021025Y006150D03*
X021614Y006162D03*
X022087Y006713D03*
X022480Y006162D03*
X023000Y006150D03*
X023425Y006792D03*
X023425Y007343D03*
X023425Y007894D03*
X024921Y008603D03*
X024921Y009154D03*
X024925Y009675D03*
X026260Y010571D03*
X022850Y012650D03*
X022175Y012650D03*
X021425Y012650D03*
X021050Y012200D03*
X020300Y012650D03*
X019889Y012192D03*
X019525Y012650D03*
X018881Y012667D03*
X018412Y012673D03*
X018625Y013125D03*
X017925Y013125D03*
X017813Y011560D03*
X017835Y011080D03*
X024291Y005374D03*
X025079Y006634D03*
X025630Y006634D03*
X022480Y004115D03*
X022087Y003800D03*
X021693Y003485D03*
X022480Y002697D03*
X023504Y002855D03*
X025472Y002855D03*
X026074Y002844D03*
X021063Y002382D03*
X019016Y002382D03*
X016800Y021800D03*
X016175Y021800D03*
X015475Y021800D03*
X015625Y023050D03*
X027200Y023100D03*
D22*
X015250Y019607D02*
X015250Y000900D01*
X018710Y000900D01*
X018689Y000912D01*
X018661Y000940D01*
X018642Y000974D01*
X018631Y001012D01*
X018631Y001482D01*
X018981Y001482D01*
X018981Y001582D01*
X018631Y001582D01*
X018631Y002052D01*
X018642Y002090D01*
X018661Y002124D01*
X018689Y002152D01*
X018724Y002172D01*
X018762Y002182D01*
X018981Y002182D01*
X018981Y001582D01*
X019081Y001582D01*
X019081Y002182D01*
X019301Y002182D01*
X019339Y002172D01*
X019374Y002152D01*
X019402Y002124D01*
X019421Y002090D01*
X019431Y002052D01*
X019431Y001582D01*
X019081Y001582D01*
X019081Y001482D01*
X019431Y001482D01*
X019431Y001012D01*
X019421Y000974D01*
X019402Y000940D01*
X019374Y000912D01*
X019353Y000900D01*
X019673Y000900D01*
X019611Y000961D01*
X019611Y002102D01*
X019711Y002202D01*
X019811Y002202D01*
X019811Y002466D01*
X020213Y002867D01*
X020217Y002871D01*
X019003Y002871D01*
X018874Y003000D01*
X018811Y003063D01*
X018811Y003112D01*
X018711Y003112D01*
X018611Y003211D01*
X018611Y003744D01*
X018545Y003677D01*
X018011Y003677D01*
X017924Y003765D01*
X017837Y003677D01*
X017800Y003677D01*
X017800Y002167D01*
X017808Y002167D01*
X017891Y002084D01*
X017893Y002089D01*
X017921Y002117D01*
X017955Y002136D01*
X017993Y002147D01*
X018142Y002147D01*
X018142Y001868D01*
X018199Y001868D01*
X018199Y002147D01*
X018348Y002147D01*
X018386Y002136D01*
X018420Y002117D01*
X018448Y002089D01*
X018468Y002055D01*
X018478Y002016D01*
X018478Y001868D01*
X018199Y001868D01*
X018199Y001810D01*
X018199Y001532D01*
X018348Y001532D01*
X018386Y001542D01*
X018420Y001562D01*
X018448Y001590D01*
X018468Y001624D01*
X018478Y001662D01*
X018478Y001810D01*
X018199Y001810D01*
X018142Y001810D01*
X018142Y001532D01*
X017993Y001532D01*
X017955Y001542D01*
X017921Y001562D01*
X017893Y001590D01*
X017891Y001594D01*
X017808Y001512D01*
X017352Y001512D01*
X017278Y001586D01*
X017292Y001559D01*
X017314Y001492D01*
X017322Y001436D01*
X016625Y001436D01*
X016625Y001336D01*
X017322Y001336D01*
X017314Y001281D01*
X017292Y001213D01*
X017260Y001150D01*
X017218Y001093D01*
X017168Y001043D01*
X017111Y001001D01*
X017048Y000969D01*
X016980Y000947D01*
X016910Y000936D01*
X016625Y000936D01*
X016625Y001336D01*
X016525Y001336D01*
X016525Y000936D01*
X016239Y000936D01*
X016169Y000947D01*
X016102Y000969D01*
X016039Y001001D01*
X015982Y001043D01*
X015932Y001093D01*
X015890Y001150D01*
X015858Y001213D01*
X015836Y001281D01*
X015827Y001336D01*
X016525Y001336D01*
X016525Y001436D01*
X015827Y001436D01*
X015836Y001492D01*
X015858Y001559D01*
X015890Y001622D01*
X015932Y001679D01*
X015982Y001729D01*
X016039Y001771D01*
X016102Y001803D01*
X016169Y001825D01*
X016239Y001836D01*
X016525Y001836D01*
X016525Y001436D01*
X016625Y001436D01*
X016625Y001836D01*
X016910Y001836D01*
X016980Y001825D01*
X017048Y001803D01*
X017111Y001771D01*
X017168Y001729D01*
X017218Y001679D01*
X017253Y001632D01*
X017253Y002067D01*
X017352Y002167D01*
X017360Y002167D01*
X017360Y003677D01*
X017302Y003677D01*
X017203Y003777D01*
X017203Y004049D01*
X017141Y003988D01*
X016968Y003916D01*
X016181Y003916D01*
X016009Y003988D01*
X015876Y004120D01*
X015805Y004293D01*
X015805Y004480D01*
X015876Y004652D01*
X016009Y004785D01*
X016181Y004856D01*
X016968Y004856D01*
X017141Y004785D01*
X017273Y004652D01*
X017345Y004480D01*
X017345Y004451D01*
X017837Y004451D01*
X017924Y004363D01*
X018011Y004451D01*
X018058Y004451D01*
X018058Y004630D01*
X017995Y004693D01*
X017939Y004829D01*
X017939Y004975D01*
X017985Y005086D01*
X017913Y005158D01*
X017913Y005190D01*
X017907Y005171D01*
X017888Y005137D01*
X017860Y005109D01*
X017826Y005089D01*
X017787Y005079D01*
X017619Y005079D01*
X017619Y005397D01*
X017522Y005397D01*
X017522Y005079D01*
X017354Y005079D01*
X017316Y005089D01*
X017282Y005109D01*
X017272Y005119D01*
X017141Y004988D01*
X016968Y004916D01*
X016181Y004916D01*
X016009Y004988D01*
X015876Y005120D01*
X015805Y005293D01*
X015805Y005480D01*
X015876Y005652D01*
X016009Y005785D01*
X016181Y005856D01*
X016968Y005856D01*
X017141Y005785D01*
X017228Y005697D01*
X017234Y005720D01*
X017254Y005754D01*
X017261Y005761D01*
X017250Y005781D01*
X017240Y005819D01*
X017240Y005987D01*
X017558Y005987D01*
X017655Y005987D01*
X017655Y005812D01*
X017619Y005812D01*
X017619Y005494D01*
X017522Y005494D01*
X017522Y005689D01*
X017558Y005689D01*
X017558Y005987D01*
X017558Y006084D01*
X017240Y006084D01*
X017240Y006087D01*
X017141Y005988D01*
X016968Y005916D01*
X016181Y005916D01*
X016009Y005988D01*
X015876Y006120D01*
X015805Y006293D01*
X015805Y006480D01*
X015876Y006652D01*
X016009Y006785D01*
X016181Y006856D01*
X016734Y006856D01*
X016794Y006916D01*
X016181Y006916D01*
X016009Y006988D01*
X015876Y007120D01*
X015805Y007293D01*
X015805Y007480D01*
X015876Y007652D01*
X016009Y007785D01*
X016181Y007856D01*
X016734Y007856D01*
X016794Y007916D01*
X016181Y007916D01*
X016009Y007988D01*
X015876Y008120D01*
X015805Y008293D01*
X015805Y008480D01*
X015876Y008652D01*
X016009Y008785D01*
X016181Y008856D01*
X016794Y008856D01*
X016734Y008916D01*
X016181Y008916D01*
X016009Y008988D01*
X015876Y009120D01*
X015805Y009293D01*
X015805Y009480D01*
X015876Y009652D01*
X016009Y009785D01*
X016181Y009856D01*
X016968Y009856D01*
X017141Y009785D01*
X017220Y009706D01*
X017220Y010063D01*
X017319Y010163D01*
X017539Y010163D01*
X017429Y010273D01*
X017345Y010356D01*
X017345Y010293D01*
X017273Y010120D01*
X017141Y009988D01*
X016968Y009916D01*
X016181Y009916D01*
X016009Y009988D01*
X015876Y010120D01*
X015805Y010293D01*
X015805Y010480D01*
X015876Y010652D01*
X016009Y010785D01*
X016181Y010856D01*
X016968Y010856D01*
X017141Y010785D01*
X017273Y010652D01*
X017300Y010589D01*
X017300Y011184D01*
X017273Y011120D01*
X017141Y010988D01*
X016968Y010916D01*
X016181Y010916D01*
X016009Y010988D01*
X015876Y011120D01*
X015805Y011293D01*
X015805Y011480D01*
X015876Y011652D01*
X016009Y011785D01*
X016181Y011856D01*
X016794Y011856D01*
X016734Y011916D01*
X016181Y011916D01*
X016009Y011988D01*
X015876Y012120D01*
X015805Y012293D01*
X015805Y012480D01*
X015876Y012652D01*
X015879Y012655D01*
X015759Y012655D01*
X015459Y012955D01*
X015330Y013084D01*
X015330Y019552D01*
X015305Y019552D01*
X015250Y019607D01*
X015250Y019562D02*
X015295Y019562D01*
X015330Y019464D02*
X015250Y019464D01*
X015250Y019365D02*
X015330Y019365D01*
X015330Y019267D02*
X015250Y019267D01*
X015250Y019168D02*
X015330Y019168D01*
X015330Y019070D02*
X015250Y019070D01*
X015250Y018971D02*
X015330Y018971D01*
X015330Y018873D02*
X015250Y018873D01*
X015250Y018774D02*
X015330Y018774D01*
X015330Y018676D02*
X015250Y018676D01*
X015250Y018577D02*
X015330Y018577D01*
X015330Y018479D02*
X015250Y018479D01*
X015250Y018380D02*
X015330Y018380D01*
X015330Y018282D02*
X015250Y018282D01*
X015250Y018183D02*
X015330Y018183D01*
X015330Y018085D02*
X015250Y018085D01*
X015250Y017986D02*
X015330Y017986D01*
X015330Y017888D02*
X015250Y017888D01*
X015250Y017789D02*
X015330Y017789D01*
X015330Y017691D02*
X015250Y017691D01*
X015250Y017592D02*
X015330Y017592D01*
X015330Y017494D02*
X015250Y017494D01*
X015250Y017395D02*
X015330Y017395D01*
X015330Y017297D02*
X015250Y017297D01*
X015250Y017198D02*
X015330Y017198D01*
X015330Y017100D02*
X015250Y017100D01*
X015250Y017001D02*
X015330Y017001D01*
X015330Y016903D02*
X015250Y016903D01*
X015250Y016804D02*
X015330Y016804D01*
X015330Y016706D02*
X015250Y016706D01*
X015250Y016607D02*
X015330Y016607D01*
X015330Y016509D02*
X015250Y016509D01*
X015250Y016410D02*
X015330Y016410D01*
X015330Y016312D02*
X015250Y016312D01*
X015250Y016213D02*
X015330Y016213D01*
X015330Y016115D02*
X015250Y016115D01*
X015250Y016016D02*
X015330Y016016D01*
X015330Y015918D02*
X015250Y015918D01*
X015250Y015819D02*
X015330Y015819D01*
X015330Y015721D02*
X015250Y015721D01*
X015250Y015622D02*
X015330Y015622D01*
X015330Y015524D02*
X015250Y015524D01*
X015250Y015425D02*
X015330Y015425D01*
X015330Y015327D02*
X015250Y015327D01*
X015250Y015228D02*
X015330Y015228D01*
X015330Y015130D02*
X015250Y015130D01*
X015250Y015031D02*
X015330Y015031D01*
X015330Y014933D02*
X015250Y014933D01*
X015250Y014834D02*
X015330Y014834D01*
X015330Y014736D02*
X015250Y014736D01*
X015250Y014637D02*
X015330Y014637D01*
X015330Y014539D02*
X015250Y014539D01*
X015250Y014440D02*
X015330Y014440D01*
X015330Y014342D02*
X015250Y014342D01*
X015250Y014243D02*
X015330Y014243D01*
X015330Y014145D02*
X015250Y014145D01*
X015250Y014046D02*
X015330Y014046D01*
X015330Y013948D02*
X015250Y013948D01*
X015250Y013849D02*
X015330Y013849D01*
X015330Y013751D02*
X015250Y013751D01*
X015250Y013652D02*
X015330Y013652D01*
X015330Y013554D02*
X015250Y013554D01*
X015250Y013455D02*
X015330Y013455D01*
X015330Y013357D02*
X015250Y013357D01*
X015250Y013258D02*
X015330Y013258D01*
X015330Y013160D02*
X015250Y013160D01*
X015250Y013061D02*
X015353Y013061D01*
X015451Y012963D02*
X015250Y012963D01*
X015250Y012864D02*
X015550Y012864D01*
X015648Y012766D02*
X015250Y012766D01*
X015250Y012667D02*
X015747Y012667D01*
X015842Y012569D02*
X015250Y012569D01*
X015250Y012470D02*
X015805Y012470D01*
X015805Y012372D02*
X015250Y012372D01*
X015250Y012273D02*
X015813Y012273D01*
X015854Y012175D02*
X015250Y012175D01*
X015250Y012076D02*
X015920Y012076D01*
X016033Y011978D02*
X015250Y011978D01*
X015250Y011879D02*
X016771Y011879D01*
X016575Y012386D02*
X017520Y011441D01*
X017520Y010493D01*
X017961Y010052D01*
X018193Y010052D01*
X018193Y010367D02*
X017882Y010367D01*
X017756Y010493D01*
X017756Y011001D01*
X017835Y011080D01*
X018193Y011180D02*
X017813Y011560D01*
X018193Y011180D02*
X018193Y010681D01*
X018400Y011050D02*
X018400Y011625D01*
X017150Y012875D01*
X015850Y012875D01*
X015550Y013175D01*
X015550Y019877D01*
X015592Y019919D01*
X017671Y019919D01*
X017870Y019720D01*
X017140Y018987D02*
X017140Y018785D01*
X016968Y018856D01*
X016181Y018856D01*
X016009Y018785D01*
X015876Y018652D01*
X015805Y018480D01*
X015805Y018293D01*
X015876Y018120D01*
X016009Y017988D01*
X016181Y017916D01*
X016968Y017916D01*
X017140Y017987D01*
X017140Y017785D01*
X016968Y017856D01*
X016181Y017856D01*
X016009Y017785D01*
X015876Y017652D01*
X015805Y017480D01*
X015805Y017293D01*
X015876Y017120D01*
X016009Y016988D01*
X016181Y016916D01*
X016968Y016916D01*
X017140Y016987D01*
X017140Y016980D01*
X017165Y016955D01*
X017140Y016930D01*
X017140Y016785D01*
X016968Y016856D01*
X016181Y016856D01*
X016009Y016785D01*
X015876Y016652D01*
X015805Y016480D01*
X015805Y016293D01*
X015876Y016120D01*
X016009Y015988D01*
X016181Y015916D01*
X016968Y015916D01*
X017141Y015988D01*
X017160Y016007D01*
X017160Y015820D01*
X017600Y015820D01*
X017600Y015720D01*
X017206Y015720D01*
X017141Y015785D01*
X016968Y015856D01*
X016181Y015856D01*
X016009Y015785D01*
X015876Y015652D01*
X015805Y015480D01*
X015805Y015293D01*
X015876Y015120D01*
X015893Y015104D01*
X015780Y014991D01*
X015770Y014981D01*
X015770Y019552D01*
X015835Y019552D01*
X015805Y019480D01*
X015805Y019293D01*
X015876Y019120D01*
X016009Y018988D01*
X016181Y018916D01*
X016968Y018916D01*
X017140Y018987D01*
X017140Y018971D02*
X017101Y018971D01*
X017140Y018873D02*
X015770Y018873D01*
X015770Y018971D02*
X016049Y018971D01*
X015927Y019070D02*
X015770Y019070D01*
X015770Y019168D02*
X015856Y019168D01*
X015816Y019267D02*
X015770Y019267D01*
X015770Y019365D02*
X015805Y019365D01*
X015805Y019464D02*
X015770Y019464D01*
X015770Y018774D02*
X015998Y018774D01*
X015899Y018676D02*
X015770Y018676D01*
X015770Y018577D02*
X015845Y018577D01*
X015805Y018479D02*
X015770Y018479D01*
X015770Y018380D02*
X015805Y018380D01*
X015809Y018282D02*
X015770Y018282D01*
X015770Y018183D02*
X015850Y018183D01*
X015912Y018085D02*
X015770Y018085D01*
X015770Y017986D02*
X016013Y017986D01*
X016019Y017789D02*
X015770Y017789D01*
X015770Y017691D02*
X015914Y017691D01*
X015851Y017592D02*
X015770Y017592D01*
X015770Y017494D02*
X015811Y017494D01*
X015805Y017395D02*
X015770Y017395D01*
X015770Y017297D02*
X015805Y017297D01*
X015770Y017198D02*
X015844Y017198D01*
X015897Y017100D02*
X015770Y017100D01*
X015770Y017001D02*
X015995Y017001D01*
X016055Y016804D02*
X015770Y016804D01*
X015770Y016706D02*
X015929Y016706D01*
X015858Y016607D02*
X015770Y016607D01*
X015770Y016509D02*
X015817Y016509D01*
X015805Y016410D02*
X015770Y016410D01*
X015770Y016312D02*
X015805Y016312D01*
X015838Y016213D02*
X015770Y016213D01*
X015770Y016115D02*
X015882Y016115D01*
X015980Y016016D02*
X015770Y016016D01*
X015770Y015918D02*
X016178Y015918D01*
X016092Y015819D02*
X015770Y015819D01*
X015770Y015721D02*
X015944Y015721D01*
X015864Y015622D02*
X015770Y015622D01*
X015770Y015524D02*
X015823Y015524D01*
X015805Y015425D02*
X015770Y015425D01*
X015770Y015327D02*
X015805Y015327D01*
X015832Y015228D02*
X015770Y015228D01*
X015770Y015130D02*
X015872Y015130D01*
X015820Y015031D02*
X015770Y015031D01*
X016000Y014900D02*
X015825Y014725D01*
X015825Y014100D01*
X016050Y013875D01*
X017100Y013875D01*
X017500Y013475D01*
X017500Y012825D01*
X018600Y011725D01*
X018600Y011150D01*
X020328Y009422D01*
X024335Y009422D01*
X024335Y009737D02*
X021338Y009737D01*
X020275Y010800D01*
X019846Y010996D02*
X019650Y010800D01*
X019468Y010800D01*
X019461Y010807D01*
X019846Y010996D02*
X019846Y011390D01*
X019531Y011390D02*
X019531Y011719D01*
X018875Y012375D01*
X018875Y012662D01*
X018881Y012667D01*
X018880Y013035D02*
X018807Y013035D01*
X018672Y012979D01*
X018649Y012957D01*
X018621Y012985D01*
X018485Y013041D01*
X018339Y013041D01*
X018278Y013016D01*
X018293Y013052D01*
X018293Y013198D01*
X018251Y013300D01*
X018880Y013300D01*
X018880Y013035D01*
X018880Y013061D02*
X018293Y013061D01*
X018293Y013160D02*
X018880Y013160D01*
X018880Y013258D02*
X018268Y013258D01*
X017925Y013125D02*
X017900Y013100D01*
X017900Y012725D01*
X018902Y011723D01*
X018902Y011390D01*
X019217Y011390D02*
X019217Y011709D01*
X018937Y011989D01*
X018936Y011989D01*
X018412Y012513D01*
X018412Y012673D01*
X018643Y012963D02*
X018655Y012963D01*
X019350Y012825D02*
X019525Y012650D01*
X019350Y012825D02*
X019350Y013500D01*
X020140Y013500D02*
X020200Y013290D01*
X020200Y012750D01*
X020300Y012650D01*
X019889Y012192D02*
X020161Y011920D01*
X020161Y011390D01*
X020791Y011390D02*
X020791Y011941D01*
X021050Y012200D01*
X021421Y011971D02*
X021575Y012125D01*
X022325Y012125D01*
X022850Y012650D01*
X022975Y012325D02*
X026200Y012325D01*
X026800Y012925D01*
X026800Y013588D01*
X027598Y014386D01*
X028570Y014342D02*
X028923Y014342D01*
X028923Y014440D02*
X028570Y014440D01*
X028570Y014539D02*
X028923Y014539D01*
X028923Y014637D02*
X028570Y014637D01*
X028570Y014736D02*
X028923Y014736D01*
X028923Y014834D02*
X028570Y014834D01*
X028570Y014933D02*
X028923Y014933D01*
X028923Y015031D02*
X028570Y015031D01*
X028570Y015130D02*
X028923Y015130D01*
X028923Y015228D02*
X028570Y015228D01*
X028570Y015327D02*
X028923Y015327D01*
X028923Y015425D02*
X028570Y015425D01*
X028570Y015524D02*
X028923Y015524D01*
X028923Y015622D02*
X028570Y015622D01*
X028570Y015721D02*
X028923Y015721D01*
X028923Y015819D02*
X028570Y015819D01*
X028570Y015918D02*
X028923Y015918D01*
X028923Y016016D02*
X028570Y016016D01*
X028570Y016115D02*
X028923Y016115D01*
X028923Y016213D02*
X028570Y016213D01*
X028570Y016312D02*
X028923Y016312D01*
X028923Y016410D02*
X028570Y016410D01*
X028570Y016509D02*
X028923Y016509D01*
X028923Y016607D02*
X028570Y016607D01*
X028570Y016706D02*
X028923Y016706D01*
X028923Y016804D02*
X028570Y016804D01*
X028570Y016903D02*
X028923Y016903D01*
X028923Y017001D02*
X028570Y017001D01*
X028570Y017100D02*
X028923Y017100D01*
X028923Y017198D02*
X028570Y017198D01*
X028570Y017297D02*
X028923Y017297D01*
X028923Y017395D02*
X028570Y017395D01*
X028570Y017494D02*
X028923Y017494D01*
X028923Y017592D02*
X028570Y017592D01*
X028570Y017691D02*
X028923Y017691D01*
X028923Y017789D02*
X028570Y017789D01*
X028570Y017888D02*
X028923Y017888D01*
X028923Y017986D02*
X028570Y017986D01*
X028570Y018085D02*
X028923Y018085D01*
X028923Y018183D02*
X028570Y018183D01*
X028570Y018282D02*
X028923Y018282D01*
X028923Y018380D02*
X028570Y018380D01*
X028570Y018479D02*
X028923Y018479D01*
X028923Y018577D02*
X028570Y018577D01*
X028570Y018676D02*
X028923Y018676D01*
X028923Y018774D02*
X028570Y018774D01*
X028570Y018816D02*
X028370Y019016D01*
X028282Y019105D01*
X028297Y019120D01*
X028368Y019293D01*
X028368Y019480D01*
X028297Y019652D01*
X028165Y019785D01*
X027992Y019856D01*
X027205Y019856D01*
X027060Y019796D01*
X027060Y019976D01*
X027205Y019916D01*
X027992Y019916D01*
X028165Y019988D01*
X028297Y020120D01*
X028368Y020293D01*
X028368Y020480D01*
X028297Y020652D01*
X028165Y020785D01*
X027992Y020856D01*
X027205Y020856D01*
X027060Y020796D01*
X027060Y020880D01*
X027035Y020905D01*
X027060Y020930D01*
X027060Y021670D01*
X027035Y021695D01*
X027060Y021720D01*
X027060Y022460D01*
X027035Y022485D01*
X027060Y022510D01*
X027060Y023250D01*
X027035Y023275D01*
X027060Y023300D01*
X027060Y023325D01*
X028923Y023325D01*
X028923Y000900D01*
X021390Y000900D01*
X021451Y000961D01*
X021451Y002102D01*
X021377Y002177D01*
X021431Y002309D01*
X021431Y002456D01*
X021389Y002556D01*
X022140Y002556D01*
X022168Y002489D01*
X022272Y002385D01*
X022407Y002329D01*
X022554Y002329D01*
X022689Y002385D01*
X022792Y002489D01*
X022848Y002624D01*
X022848Y002770D01*
X022807Y002871D01*
X023136Y002871D01*
X023136Y002782D01*
X023192Y002646D01*
X023295Y002543D01*
X023431Y002487D01*
X023577Y002487D01*
X023712Y002543D01*
X023805Y002635D01*
X023858Y002635D01*
X023858Y002556D01*
X023957Y002456D01*
X024004Y002456D01*
X024004Y002379D01*
X023493Y002379D01*
X023393Y002279D01*
X023393Y001288D01*
X023493Y001189D01*
X024736Y001189D01*
X024835Y001288D01*
X024835Y002279D01*
X024736Y002379D01*
X024444Y002379D01*
X024444Y002456D01*
X024492Y002456D01*
X024579Y002543D01*
X024666Y002456D01*
X025200Y002456D01*
X025280Y002536D01*
X025399Y002487D01*
X025546Y002487D01*
X025681Y002543D01*
X025785Y002646D01*
X025841Y002782D01*
X025841Y002928D01*
X025785Y003063D01*
X025741Y003107D01*
X026090Y003107D01*
X026828Y002369D01*
X026828Y002293D01*
X026900Y002120D01*
X027032Y001988D01*
X027205Y001916D01*
X027992Y001916D01*
X028165Y001988D01*
X028297Y002120D01*
X028368Y002293D01*
X028368Y002480D01*
X028297Y002652D01*
X028165Y002785D01*
X027992Y002856D01*
X027205Y002856D01*
X027034Y002785D01*
X026401Y003418D01*
X026319Y003501D01*
X026484Y003501D01*
X026818Y003166D01*
X026881Y003166D01*
X026900Y003120D01*
X027032Y002988D01*
X027205Y002916D01*
X027992Y002916D01*
X028165Y002988D01*
X028297Y003120D01*
X028368Y003293D01*
X028368Y003480D01*
X028297Y003652D01*
X028165Y003785D01*
X027992Y003856D01*
X027205Y003856D01*
X027032Y003785D01*
X026927Y003680D01*
X026795Y003812D01*
X026712Y003895D01*
X026823Y003895D01*
X026952Y004023D01*
X026974Y004046D01*
X027032Y003988D01*
X027205Y003916D01*
X027992Y003916D01*
X028165Y003988D01*
X028297Y004120D01*
X028368Y004293D01*
X028368Y004480D01*
X028297Y004652D01*
X028165Y004785D01*
X027992Y004856D01*
X027380Y004856D01*
X027440Y004916D01*
X027992Y004916D01*
X028165Y004988D01*
X028297Y005120D01*
X028368Y005293D01*
X028368Y005480D01*
X028297Y005652D01*
X028165Y005785D01*
X027992Y005856D01*
X027380Y005856D01*
X027440Y005916D01*
X027992Y005916D01*
X028165Y005988D01*
X028297Y006120D01*
X028368Y006293D01*
X028368Y006480D01*
X028297Y006652D01*
X028165Y006785D01*
X027992Y006856D01*
X027380Y006856D01*
X027440Y006916D01*
X027992Y006916D01*
X028165Y006988D01*
X028297Y007120D01*
X028368Y007293D01*
X028368Y007480D01*
X028297Y007652D01*
X028165Y007785D01*
X027992Y007856D01*
X027205Y007856D01*
X027032Y007785D01*
X026900Y007652D01*
X026828Y007480D01*
X026828Y007293D01*
X026900Y007120D01*
X026961Y007059D01*
X026628Y006727D01*
X026624Y006743D01*
X026604Y006778D01*
X026576Y006805D01*
X026542Y006825D01*
X026523Y006830D01*
X026555Y006830D01*
X026654Y006930D01*
X026654Y007465D01*
X026555Y007564D01*
X026475Y007564D01*
X026465Y007574D01*
X026465Y008268D01*
X026366Y008367D01*
X025590Y008367D01*
X026008Y008785D01*
X026038Y008815D01*
X026366Y008815D01*
X026465Y008914D01*
X026465Y009661D01*
X026484Y009661D01*
X026522Y009672D01*
X026557Y009691D01*
X026585Y009719D01*
X026604Y009754D01*
X026615Y009792D01*
X026615Y009980D01*
X026316Y009980D01*
X026316Y010076D01*
X026615Y010076D01*
X026615Y010264D01*
X026604Y010302D01*
X026585Y010337D01*
X026557Y010365D01*
X026522Y010384D01*
X026484Y010394D01*
X026316Y010394D01*
X026316Y010076D01*
X026219Y010076D01*
X026219Y010394D01*
X026051Y010394D01*
X026013Y010384D01*
X025979Y010365D01*
X025951Y010337D01*
X025931Y010302D01*
X025926Y010283D01*
X025926Y010315D01*
X025868Y010373D01*
X025886Y010391D01*
X025886Y010846D01*
X025875Y010858D01*
X025875Y010879D01*
X025880Y010860D01*
X025900Y010826D01*
X025928Y010798D01*
X025962Y010778D01*
X026000Y010768D01*
X026168Y010768D01*
X026168Y011086D01*
X026265Y011086D01*
X026265Y011183D01*
X026563Y011183D01*
X026563Y011371D01*
X026553Y011409D01*
X026541Y011430D01*
X026828Y011430D01*
X026828Y011293D01*
X026900Y011120D01*
X027032Y010988D01*
X027205Y010916D01*
X027992Y010916D01*
X028165Y010988D01*
X028297Y011120D01*
X028368Y011293D01*
X028368Y011480D01*
X028297Y011652D01*
X028294Y011655D01*
X028316Y011655D01*
X028441Y011780D01*
X028570Y011909D01*
X028570Y018816D01*
X028514Y018873D02*
X028923Y018873D01*
X028923Y018971D02*
X028415Y018971D01*
X028317Y019070D02*
X028923Y019070D01*
X028923Y019168D02*
X028317Y019168D01*
X028358Y019267D02*
X028923Y019267D01*
X028923Y019365D02*
X028368Y019365D01*
X028368Y019464D02*
X028923Y019464D01*
X028923Y019562D02*
X028334Y019562D01*
X028289Y019661D02*
X028923Y019661D01*
X028923Y019759D02*
X028190Y019759D01*
X028088Y019956D02*
X028923Y019956D01*
X028923Y019858D02*
X027060Y019858D01*
X027060Y019956D02*
X027109Y019956D01*
X028231Y020055D02*
X028923Y020055D01*
X028923Y020153D02*
X028311Y020153D01*
X028351Y020252D02*
X028923Y020252D01*
X028923Y020350D02*
X028368Y020350D01*
X028368Y020449D02*
X028923Y020449D01*
X028923Y020547D02*
X028341Y020547D01*
X028300Y020646D02*
X028923Y020646D01*
X028923Y020744D02*
X028205Y020744D01*
X028025Y020843D02*
X028923Y020843D01*
X028923Y020941D02*
X027060Y020941D01*
X027060Y020843D02*
X027172Y020843D01*
X027060Y021040D02*
X028923Y021040D01*
X028923Y021138D02*
X027060Y021138D01*
X027060Y021237D02*
X028923Y021237D01*
X028923Y021335D02*
X027060Y021335D01*
X027060Y021434D02*
X028923Y021434D01*
X028923Y021532D02*
X027060Y021532D01*
X027060Y021631D02*
X028923Y021631D01*
X028923Y021729D02*
X027060Y021729D01*
X027060Y021828D02*
X028923Y021828D01*
X028923Y021926D02*
X027060Y021926D01*
X027060Y022025D02*
X028923Y022025D01*
X028923Y022123D02*
X027060Y022123D01*
X027060Y022222D02*
X028923Y022222D01*
X028923Y022320D02*
X027060Y022320D01*
X027060Y022419D02*
X028923Y022419D01*
X028923Y022517D02*
X027060Y022517D01*
X027060Y022616D02*
X028923Y022616D01*
X028923Y022714D02*
X027060Y022714D01*
X027060Y022813D02*
X028923Y022813D01*
X028923Y022911D02*
X027060Y022911D01*
X027060Y023010D02*
X028923Y023010D01*
X028923Y023108D02*
X027060Y023108D01*
X027060Y023207D02*
X028923Y023207D01*
X028923Y023305D02*
X027060Y023305D01*
X026330Y018930D02*
X026335Y018925D01*
X028150Y018925D01*
X028350Y018725D01*
X028350Y012000D01*
X028225Y011875D01*
X027100Y011875D01*
X026875Y011650D01*
X025350Y011650D01*
X024675Y010975D01*
X023975Y010975D01*
X023850Y010850D01*
X023850Y010500D01*
X023983Y010367D01*
X024335Y010367D01*
X024335Y010681D02*
X024968Y010681D01*
X024968Y010619D01*
X025508Y010619D02*
X025508Y011134D01*
X025886Y010796D02*
X025931Y010796D01*
X025886Y010697D02*
X026945Y010697D01*
X026900Y010652D02*
X026828Y010480D01*
X026828Y010293D01*
X026900Y010120D01*
X027032Y009988D01*
X027205Y009916D01*
X027992Y009916D01*
X028165Y009988D01*
X028297Y010120D01*
X028368Y010293D01*
X028368Y010480D01*
X028297Y010652D01*
X028165Y010785D01*
X027992Y010856D01*
X027205Y010856D01*
X027032Y010785D01*
X026900Y010652D01*
X026878Y010599D02*
X025886Y010599D01*
X025886Y010500D02*
X026837Y010500D01*
X026828Y010402D02*
X025886Y010402D01*
X025926Y010303D02*
X025931Y010303D01*
X026219Y010303D02*
X026316Y010303D01*
X026316Y010205D02*
X026219Y010205D01*
X026219Y010106D02*
X026316Y010106D01*
X026316Y010008D02*
X027012Y010008D01*
X026914Y010106D02*
X026615Y010106D01*
X026615Y010205D02*
X026865Y010205D01*
X026828Y010303D02*
X026604Y010303D01*
X026615Y009909D02*
X028923Y009909D01*
X028923Y009811D02*
X028102Y009811D01*
X028165Y009785D02*
X027992Y009856D01*
X027205Y009856D01*
X027032Y009785D01*
X026900Y009652D01*
X026828Y009480D01*
X026828Y009293D01*
X026900Y009120D01*
X027032Y008988D01*
X027205Y008916D01*
X027992Y008916D01*
X028165Y008988D01*
X028297Y009120D01*
X028368Y009293D01*
X028368Y009480D01*
X028297Y009652D01*
X028165Y009785D01*
X028237Y009712D02*
X028923Y009712D01*
X028923Y009614D02*
X028313Y009614D01*
X028354Y009515D02*
X028923Y009515D01*
X028923Y009417D02*
X028368Y009417D01*
X028368Y009318D02*
X028923Y009318D01*
X028923Y009220D02*
X028338Y009220D01*
X028297Y009121D02*
X028923Y009121D01*
X028923Y009023D02*
X028199Y009023D01*
X028011Y008924D02*
X028923Y008924D01*
X028923Y008826D02*
X028066Y008826D01*
X027992Y008856D02*
X028165Y008785D01*
X028297Y008652D01*
X028368Y008480D01*
X028368Y008293D01*
X028297Y008120D01*
X028165Y007988D01*
X027992Y007916D01*
X027205Y007916D01*
X027032Y007988D01*
X026900Y008120D01*
X026828Y008293D01*
X026828Y008480D01*
X026900Y008652D01*
X027032Y008785D01*
X027205Y008856D01*
X027992Y008856D01*
X028222Y008727D02*
X028923Y008727D01*
X028923Y008629D02*
X028307Y008629D01*
X028348Y008530D02*
X028923Y008530D01*
X028923Y008432D02*
X028368Y008432D01*
X028368Y008333D02*
X028923Y008333D01*
X028923Y008235D02*
X028344Y008235D01*
X028304Y008136D02*
X028923Y008136D01*
X028923Y008038D02*
X028214Y008038D01*
X028047Y007939D02*
X028923Y007939D01*
X028923Y007841D02*
X028030Y007841D01*
X028207Y007742D02*
X028923Y007742D01*
X028923Y007644D02*
X028301Y007644D01*
X028341Y007545D02*
X028923Y007545D01*
X028923Y007447D02*
X028368Y007447D01*
X028368Y007348D02*
X028923Y007348D01*
X028923Y007250D02*
X028351Y007250D01*
X028310Y007151D02*
X028923Y007151D01*
X028923Y007053D02*
X028229Y007053D01*
X028083Y006954D02*
X028923Y006954D01*
X028923Y006856D02*
X027994Y006856D01*
X028192Y006757D02*
X028923Y006757D01*
X028923Y006659D02*
X028291Y006659D01*
X028335Y006560D02*
X028923Y006560D01*
X028923Y006462D02*
X028368Y006462D01*
X028368Y006363D02*
X028923Y006363D01*
X028923Y006265D02*
X028357Y006265D01*
X028316Y006166D02*
X028923Y006166D01*
X028923Y006068D02*
X028244Y006068D01*
X028119Y005969D02*
X028923Y005969D01*
X028923Y005871D02*
X027394Y005871D01*
X027598Y005386D02*
X026563Y004351D01*
X022795Y004351D01*
X022681Y004465D01*
X022681Y004587D01*
X021299Y004587D01*
X021031Y004319D01*
X021031Y003782D01*
X021693Y003485D02*
X021850Y003327D01*
X026181Y003327D01*
X027122Y002386D01*
X027598Y002386D01*
X027110Y002817D02*
X027002Y002817D01*
X026904Y002916D02*
X028923Y002916D01*
X028923Y003014D02*
X028191Y003014D01*
X028289Y003113D02*
X028923Y003113D01*
X028923Y003211D02*
X028335Y003211D01*
X028368Y003310D02*
X028923Y003310D01*
X028923Y003408D02*
X028368Y003408D01*
X028357Y003507D02*
X028923Y003507D01*
X028923Y003605D02*
X028317Y003605D01*
X028246Y003704D02*
X028923Y003704D01*
X028923Y003802D02*
X028123Y003802D01*
X028176Y003999D02*
X028923Y003999D01*
X028923Y003901D02*
X026829Y003901D01*
X026805Y003802D02*
X027074Y003802D01*
X026951Y003704D02*
X026903Y003704D01*
X026928Y003999D02*
X027021Y003999D01*
X026732Y004115D02*
X027004Y004386D01*
X027598Y004386D01*
X027409Y004886D02*
X028923Y004886D01*
X028923Y004984D02*
X028156Y004984D01*
X028259Y005083D02*
X028923Y005083D01*
X028923Y005181D02*
X028322Y005181D01*
X028363Y005280D02*
X028923Y005280D01*
X028923Y005378D02*
X028368Y005378D01*
X028368Y005477D02*
X028923Y005477D01*
X028923Y005575D02*
X028329Y005575D01*
X028276Y005674D02*
X028923Y005674D01*
X028923Y005772D02*
X028177Y005772D01*
X027598Y006386D02*
X025799Y004587D01*
X023110Y004587D01*
X022996Y004701D01*
X022996Y005248D01*
X022681Y005248D02*
X022681Y005831D01*
X023000Y006150D01*
X022746Y006417D02*
X022689Y006474D01*
X022554Y006530D01*
X022409Y006530D01*
X022455Y006640D01*
X022455Y006786D01*
X022399Y006922D01*
X022295Y007025D01*
X022160Y007081D01*
X022013Y007081D01*
X021878Y007025D01*
X021775Y006922D01*
X021719Y006786D01*
X021719Y006640D01*
X021775Y006504D01*
X021793Y006486D01*
X021687Y006530D01*
X021541Y006530D01*
X021406Y006474D01*
X021314Y006382D01*
X021234Y006462D01*
X021098Y006518D01*
X020952Y006518D01*
X020816Y006462D01*
X020713Y006359D01*
X020657Y006223D01*
X020657Y006077D01*
X020713Y005941D01*
X020816Y005838D01*
X020952Y005782D01*
X021018Y005782D01*
X021146Y005653D01*
X018721Y005653D01*
X018646Y005579D01*
X018646Y005732D01*
X018598Y005781D01*
X018598Y006138D01*
X018578Y006158D01*
X018578Y006267D01*
X018198Y006267D01*
X018198Y006277D01*
X018578Y006277D01*
X018578Y006387D01*
X018598Y006407D01*
X018598Y006547D01*
X018706Y006502D01*
X018853Y006502D01*
X018988Y006558D01*
X019092Y006662D01*
X019148Y006797D01*
X019148Y006944D01*
X019092Y007079D01*
X019086Y007085D01*
X019146Y007110D01*
X019249Y007213D01*
X019305Y007348D01*
X023057Y007348D01*
X023057Y007416D02*
X023057Y007270D01*
X023113Y007134D01*
X023180Y007067D01*
X023113Y007000D01*
X023057Y006865D01*
X023057Y006719D01*
X023113Y006583D01*
X023217Y006480D01*
X023352Y006424D01*
X023498Y006424D01*
X023634Y006480D01*
X023737Y006583D01*
X023778Y006682D01*
X023930Y006682D01*
X023930Y005777D01*
X024029Y005677D01*
X024073Y005677D01*
X023991Y005594D01*
X023865Y005594D01*
X023806Y005653D01*
X022901Y005653D01*
X022901Y005740D01*
X022943Y005782D01*
X023073Y005782D01*
X023209Y005838D01*
X023312Y005941D01*
X023368Y006077D01*
X023368Y006223D01*
X023312Y006359D01*
X023209Y006462D01*
X023073Y006518D01*
X022927Y006518D01*
X022791Y006462D01*
X022746Y006417D01*
X022701Y006462D02*
X022791Y006462D01*
X023082Y006659D02*
X022455Y006659D01*
X022455Y006757D02*
X023057Y006757D01*
X023057Y006856D02*
X022426Y006856D01*
X022366Y006954D02*
X023094Y006954D01*
X023165Y007053D02*
X022229Y007053D01*
X021944Y007053D02*
X019103Y007053D01*
X019143Y006954D02*
X021807Y006954D01*
X021747Y006856D02*
X019148Y006856D01*
X019131Y006757D02*
X021719Y006757D01*
X021719Y006659D02*
X019088Y006659D01*
X018990Y006560D02*
X021752Y006560D01*
X022087Y006713D02*
X022087Y005284D01*
X022051Y005248D01*
X022051Y004867D01*
X022008Y004823D01*
X020512Y004823D01*
X020118Y004430D01*
X020118Y003869D01*
X020031Y003782D01*
X020163Y002817D02*
X017800Y002817D01*
X017800Y002719D02*
X020064Y002719D01*
X019966Y002620D02*
X017800Y002620D01*
X017800Y002522D02*
X019867Y002522D01*
X019811Y002423D02*
X017800Y002423D01*
X017800Y002325D02*
X019811Y002325D01*
X019811Y002226D02*
X017800Y002226D01*
X017847Y002128D02*
X017940Y002128D01*
X018142Y002128D02*
X018199Y002128D01*
X018199Y002029D02*
X018142Y002029D01*
X018142Y001931D02*
X018199Y001931D01*
X018171Y001839D02*
X018724Y001839D01*
X019031Y001532D01*
X019031Y002367D01*
X019016Y002382D01*
X018981Y002128D02*
X019081Y002128D01*
X019081Y002029D02*
X018981Y002029D01*
X018981Y001931D02*
X019081Y001931D01*
X019081Y001832D02*
X018981Y001832D01*
X018981Y001734D02*
X019081Y001734D01*
X019081Y001635D02*
X018981Y001635D01*
X018981Y001537D02*
X018366Y001537D01*
X018471Y001635D02*
X018631Y001635D01*
X018631Y001734D02*
X018478Y001734D01*
X018631Y001832D02*
X018199Y001832D01*
X018199Y001734D02*
X018142Y001734D01*
X018142Y001635D02*
X018199Y001635D01*
X018199Y001537D02*
X018142Y001537D01*
X017975Y001537D02*
X017833Y001537D01*
X017580Y001839D02*
X017580Y004053D01*
X017569Y004064D01*
X017203Y003999D02*
X017152Y003999D01*
X017203Y003901D02*
X015250Y003901D01*
X015250Y003999D02*
X015997Y003999D01*
X015899Y004098D02*
X015250Y004098D01*
X015250Y004196D02*
X015845Y004196D01*
X015805Y004295D02*
X015250Y004295D01*
X015250Y004393D02*
X015805Y004393D01*
X015810Y004492D02*
X015250Y004492D01*
X015250Y004590D02*
X015850Y004590D01*
X015912Y004689D02*
X015250Y004689D01*
X015250Y004787D02*
X016014Y004787D01*
X016018Y004984D02*
X015250Y004984D01*
X015250Y004886D02*
X017939Y004886D01*
X017943Y004984D02*
X017132Y004984D01*
X017236Y005083D02*
X017340Y005083D01*
X017522Y005083D02*
X017619Y005083D01*
X017619Y005181D02*
X017522Y005181D01*
X017522Y005280D02*
X017619Y005280D01*
X017619Y005378D02*
X017522Y005378D01*
X017522Y005575D02*
X017619Y005575D01*
X017619Y005674D02*
X017522Y005674D01*
X017558Y005772D02*
X017619Y005772D01*
X017655Y005871D02*
X017558Y005871D01*
X017558Y005969D02*
X017655Y005969D01*
X017558Y006068D02*
X017221Y006068D01*
X017240Y005969D02*
X017096Y005969D01*
X017240Y005871D02*
X015250Y005871D01*
X015250Y005969D02*
X016054Y005969D01*
X015929Y006068D02*
X015250Y006068D01*
X015250Y006166D02*
X015857Y006166D01*
X015816Y006265D02*
X015250Y006265D01*
X015250Y006363D02*
X015805Y006363D01*
X015805Y006462D02*
X015250Y006462D01*
X015250Y006560D02*
X015838Y006560D01*
X015882Y006659D02*
X015250Y006659D01*
X015250Y006757D02*
X015981Y006757D01*
X016180Y006856D02*
X015250Y006856D01*
X015250Y006954D02*
X016090Y006954D01*
X015944Y007053D02*
X015250Y007053D01*
X015250Y007151D02*
X015864Y007151D01*
X015823Y007250D02*
X015250Y007250D01*
X015250Y007348D02*
X015805Y007348D01*
X015805Y007447D02*
X015250Y007447D01*
X015250Y007545D02*
X015832Y007545D01*
X015873Y007644D02*
X015250Y007644D01*
X015250Y007742D02*
X015966Y007742D01*
X016143Y007841D02*
X015250Y007841D01*
X015250Y007939D02*
X016126Y007939D01*
X015959Y008038D02*
X015250Y008038D01*
X015250Y008136D02*
X015870Y008136D01*
X015829Y008235D02*
X015250Y008235D01*
X015250Y008333D02*
X015805Y008333D01*
X015805Y008432D02*
X015250Y008432D01*
X015250Y008530D02*
X015826Y008530D01*
X015866Y008629D02*
X015250Y008629D01*
X015250Y008727D02*
X015951Y008727D01*
X016107Y008826D02*
X015250Y008826D01*
X015250Y008924D02*
X016162Y008924D01*
X015974Y009023D02*
X015250Y009023D01*
X015250Y009121D02*
X015876Y009121D01*
X015835Y009220D02*
X015250Y009220D01*
X015250Y009318D02*
X015805Y009318D01*
X015805Y009417D02*
X015250Y009417D01*
X015250Y009515D02*
X015819Y009515D01*
X015860Y009614D02*
X015250Y009614D01*
X015250Y009712D02*
X015936Y009712D01*
X016071Y009811D02*
X015250Y009811D01*
X015250Y009909D02*
X017220Y009909D01*
X017220Y009811D02*
X017079Y009811D01*
X017214Y009712D02*
X017220Y009712D01*
X017220Y010008D02*
X017161Y010008D01*
X017259Y010106D02*
X017263Y010106D01*
X017308Y010205D02*
X017497Y010205D01*
X017398Y010303D02*
X017345Y010303D01*
X017300Y010599D02*
X017296Y010599D01*
X017300Y010697D02*
X017229Y010697D01*
X017300Y010796D02*
X017115Y010796D01*
X017146Y010993D02*
X017300Y010993D01*
X017300Y011091D02*
X017244Y011091D01*
X017300Y010894D02*
X015250Y010894D01*
X015250Y010796D02*
X016035Y010796D01*
X015921Y010697D02*
X015250Y010697D01*
X015250Y010599D02*
X015854Y010599D01*
X015813Y010500D02*
X015250Y010500D01*
X015250Y010402D02*
X015805Y010402D01*
X015805Y010303D02*
X015250Y010303D01*
X015250Y010205D02*
X015841Y010205D01*
X015890Y010106D02*
X015250Y010106D01*
X015250Y010008D02*
X015989Y010008D01*
X016575Y009386D02*
X017484Y008477D01*
X018193Y008477D01*
X018193Y008792D02*
X018512Y008792D01*
X018937Y008367D01*
X019196Y008629D02*
X023930Y008629D01*
X023930Y008727D02*
X019256Y008727D01*
X019249Y008709D02*
X019305Y008844D01*
X019305Y008991D01*
X019249Y009126D01*
X019146Y009230D01*
X019010Y009286D01*
X018880Y009286D01*
X018839Y009327D01*
X018578Y009327D01*
X018578Y009417D01*
X018198Y009417D01*
X018198Y009427D01*
X018578Y009427D01*
X018578Y009487D01*
X018625Y009487D01*
X018716Y009525D01*
X018765Y009573D01*
X018853Y009573D01*
X018988Y009629D01*
X019092Y009733D01*
X019148Y009868D01*
X019148Y009991D01*
X020252Y008887D01*
X020434Y008887D01*
X023930Y008887D01*
X023930Y007666D01*
X023950Y007646D01*
X023950Y007537D01*
X024330Y007537D01*
X024330Y007527D01*
X023950Y007527D01*
X023950Y007467D01*
X023772Y007467D01*
X023737Y007551D01*
X023634Y007655D01*
X023498Y007711D01*
X023352Y007711D01*
X023217Y007655D01*
X023113Y007551D01*
X023057Y007416D01*
X023070Y007447D02*
X019305Y007447D01*
X019305Y007495D02*
X019305Y007348D01*
X019264Y007250D02*
X023065Y007250D01*
X023106Y007151D02*
X019187Y007151D01*
X019305Y007495D02*
X019249Y007630D01*
X019146Y007734D01*
X019010Y007790D01*
X018864Y007790D01*
X018728Y007734D01*
X018625Y007630D01*
X018598Y007565D01*
X018598Y008223D01*
X018625Y008158D01*
X018728Y008054D01*
X018864Y007998D01*
X019010Y007998D01*
X019146Y008054D01*
X019249Y008158D01*
X019305Y008293D01*
X019305Y008440D01*
X019249Y008575D01*
X019182Y008642D01*
X019249Y008709D01*
X019297Y008826D02*
X023930Y008826D01*
X023930Y008530D02*
X019268Y008530D01*
X019305Y008432D02*
X023930Y008432D01*
X023930Y008333D02*
X019305Y008333D01*
X019281Y008235D02*
X023930Y008235D01*
X023930Y008136D02*
X019227Y008136D01*
X019105Y008038D02*
X023930Y008038D01*
X023930Y007939D02*
X018598Y007939D01*
X018598Y007841D02*
X023930Y007841D01*
X023930Y007742D02*
X019125Y007742D01*
X019236Y007644D02*
X023205Y007644D01*
X023110Y007545D02*
X019284Y007545D01*
X018937Y007422D02*
X018732Y007217D01*
X018193Y007217D01*
X018193Y007532D02*
X017720Y007532D01*
X016575Y006386D01*
X017154Y005772D02*
X017255Y005772D01*
X017910Y005181D02*
X017913Y005181D01*
X017983Y005083D02*
X017802Y005083D01*
X017956Y004787D02*
X017135Y004787D01*
X017237Y004689D02*
X018000Y004689D01*
X018058Y004590D02*
X017299Y004590D01*
X017340Y004492D02*
X018058Y004492D01*
X017953Y004393D02*
X017894Y004393D01*
X018278Y004064D02*
X018278Y004873D01*
X018307Y004902D01*
X018858Y004666D02*
X018902Y004709D01*
X018902Y005248D01*
X019217Y005248D02*
X019217Y004937D01*
X019409Y004744D01*
X019488Y004744D01*
X019567Y004666D01*
X019031Y003782D02*
X019031Y003154D01*
X019094Y003091D01*
X023268Y003091D01*
X023504Y002855D01*
X024213Y002855D01*
X024224Y002843D01*
X024224Y001894D01*
X024114Y001784D01*
X023440Y001241D02*
X021451Y001241D01*
X021451Y001143D02*
X026919Y001143D01*
X026914Y001150D02*
X026955Y001093D01*
X027005Y001043D01*
X027063Y001001D01*
X027126Y000969D01*
X027193Y000947D01*
X027263Y000936D01*
X027548Y000936D01*
X027548Y001336D01*
X026851Y001336D01*
X026860Y001281D01*
X026881Y001213D01*
X026914Y001150D01*
X026872Y001241D02*
X026650Y001241D01*
X026647Y001239D02*
X026675Y001267D01*
X026695Y001301D01*
X026705Y001339D01*
X026705Y001734D01*
X026054Y001734D01*
X026054Y001834D01*
X025954Y001834D01*
X025954Y002359D01*
X025433Y002359D01*
X025395Y002349D01*
X025361Y002329D01*
X025333Y002301D01*
X025313Y002267D01*
X025303Y002229D01*
X025303Y001834D01*
X025954Y001834D01*
X025954Y001734D01*
X025303Y001734D01*
X025303Y001339D01*
X025313Y001301D01*
X025333Y001267D01*
X025361Y001239D01*
X025395Y001219D01*
X025433Y001209D01*
X025954Y001209D01*
X025954Y001734D01*
X026054Y001734D01*
X026054Y001209D01*
X026575Y001209D01*
X026613Y001219D01*
X026647Y001239D01*
X026705Y001340D02*
X027548Y001340D01*
X027548Y001336D02*
X027548Y001436D01*
X026851Y001436D01*
X026860Y001492D01*
X026881Y001559D01*
X026914Y001622D01*
X026955Y001679D01*
X027005Y001729D01*
X027063Y001771D01*
X027126Y001803D01*
X027193Y001825D01*
X027263Y001836D01*
X027548Y001836D01*
X027548Y001436D01*
X027648Y001436D01*
X027648Y001836D01*
X027934Y001836D01*
X028004Y001825D01*
X028071Y001803D01*
X028134Y001771D01*
X028192Y001729D01*
X028242Y001679D01*
X028283Y001622D01*
X028315Y001559D01*
X028337Y001492D01*
X028346Y001436D01*
X027648Y001436D01*
X027648Y001336D01*
X027648Y000936D01*
X027934Y000936D01*
X028004Y000947D01*
X028071Y000969D01*
X028134Y001001D01*
X028192Y001043D01*
X028242Y001093D01*
X028283Y001150D01*
X028315Y001213D01*
X028337Y001281D01*
X028346Y001336D01*
X027648Y001336D01*
X027548Y001336D01*
X027548Y001241D02*
X027648Y001241D01*
X027648Y001143D02*
X027548Y001143D01*
X027548Y001044D02*
X027648Y001044D01*
X027648Y000946D02*
X027548Y000946D01*
X027204Y000946D02*
X021436Y000946D01*
X021451Y001044D02*
X027004Y001044D01*
X026851Y001438D02*
X026705Y001438D01*
X026705Y001537D02*
X026874Y001537D01*
X026923Y001635D02*
X026705Y001635D01*
X026705Y001734D02*
X027011Y001734D01*
X027236Y001832D02*
X026054Y001832D01*
X026054Y001834D02*
X026705Y001834D01*
X026705Y002229D01*
X026695Y002267D01*
X026675Y002301D01*
X026647Y002329D01*
X026613Y002349D01*
X026575Y002359D01*
X026054Y002359D01*
X026054Y001834D01*
X026004Y001784D02*
X026004Y002774D01*
X026074Y002844D01*
X026183Y003014D02*
X025805Y003014D01*
X025841Y002916D02*
X026282Y002916D01*
X026380Y002817D02*
X025841Y002817D01*
X025814Y002719D02*
X026479Y002719D01*
X026577Y002620D02*
X025758Y002620D01*
X025630Y002522D02*
X026676Y002522D01*
X026774Y002423D02*
X024444Y002423D01*
X024557Y002522D02*
X024601Y002522D01*
X024790Y002325D02*
X025356Y002325D01*
X025303Y002226D02*
X024835Y002226D01*
X024835Y002128D02*
X025303Y002128D01*
X025303Y002029D02*
X024835Y002029D01*
X024835Y001931D02*
X025303Y001931D01*
X025303Y001734D02*
X024835Y001734D01*
X024835Y001832D02*
X025954Y001832D01*
X025954Y001734D02*
X026054Y001734D01*
X026054Y001635D02*
X025954Y001635D01*
X025954Y001537D02*
X026054Y001537D01*
X026054Y001438D02*
X025954Y001438D01*
X025954Y001340D02*
X026054Y001340D01*
X026054Y001241D02*
X025954Y001241D01*
X025358Y001241D02*
X024788Y001241D01*
X024835Y001340D02*
X025303Y001340D01*
X025303Y001438D02*
X024835Y001438D01*
X024835Y001537D02*
X025303Y001537D01*
X025303Y001635D02*
X024835Y001635D01*
X025265Y002522D02*
X025315Y002522D01*
X025461Y002843D02*
X024933Y002843D01*
X025461Y002843D02*
X025472Y002855D01*
X025954Y002325D02*
X026054Y002325D01*
X026054Y002226D02*
X025954Y002226D01*
X025954Y002128D02*
X026054Y002128D01*
X026054Y002029D02*
X025954Y002029D01*
X025954Y001931D02*
X026054Y001931D01*
X026705Y001931D02*
X027170Y001931D01*
X026991Y002029D02*
X026705Y002029D01*
X026705Y002128D02*
X026897Y002128D01*
X026856Y002226D02*
X026705Y002226D01*
X026652Y002325D02*
X026828Y002325D01*
X026805Y003014D02*
X027006Y003014D01*
X026907Y003113D02*
X026707Y003113D01*
X026774Y003211D02*
X026608Y003211D01*
X026675Y003310D02*
X026510Y003310D01*
X026577Y003408D02*
X026411Y003408D01*
X026575Y003721D02*
X022165Y003721D01*
X022087Y003800D01*
X022480Y004115D02*
X026732Y004115D01*
X026575Y003721D02*
X026909Y003386D01*
X027598Y003386D01*
X028087Y002817D02*
X028923Y002817D01*
X028923Y002719D02*
X028231Y002719D01*
X028310Y002620D02*
X028923Y002620D01*
X028923Y002522D02*
X028351Y002522D01*
X028368Y002423D02*
X028923Y002423D01*
X028923Y002325D02*
X028368Y002325D01*
X028341Y002226D02*
X028923Y002226D01*
X028923Y002128D02*
X028300Y002128D01*
X028206Y002029D02*
X028923Y002029D01*
X028923Y001931D02*
X028026Y001931D01*
X027960Y001832D02*
X028923Y001832D01*
X028923Y001734D02*
X028186Y001734D01*
X028274Y001635D02*
X028923Y001635D01*
X028923Y001537D02*
X028323Y001537D01*
X028346Y001438D02*
X028923Y001438D01*
X028923Y001340D02*
X027648Y001340D01*
X027648Y001438D02*
X027548Y001438D01*
X027548Y001537D02*
X027648Y001537D01*
X027648Y001635D02*
X027548Y001635D01*
X027548Y001734D02*
X027648Y001734D01*
X027648Y001832D02*
X027548Y001832D01*
X028324Y001241D02*
X028923Y001241D01*
X028923Y001143D02*
X028278Y001143D01*
X028193Y001044D02*
X028923Y001044D01*
X028923Y000946D02*
X027992Y000946D01*
X028274Y004098D02*
X028923Y004098D01*
X028923Y004196D02*
X028328Y004196D01*
X028368Y004295D02*
X028923Y004295D01*
X028923Y004393D02*
X028368Y004393D01*
X028364Y004492D02*
X028923Y004492D01*
X028923Y004590D02*
X028323Y004590D01*
X028261Y004689D02*
X028923Y004689D01*
X028923Y004787D02*
X028159Y004787D01*
X026732Y006162D02*
X026732Y006520D01*
X027598Y007386D01*
X027167Y007841D02*
X026465Y007841D01*
X026465Y007939D02*
X027150Y007939D01*
X026982Y008038D02*
X026465Y008038D01*
X026465Y008136D02*
X026893Y008136D01*
X026853Y008235D02*
X026465Y008235D01*
X026400Y008333D02*
X026828Y008333D01*
X026828Y008432D02*
X025655Y008432D01*
X025753Y008530D02*
X026849Y008530D01*
X026890Y008629D02*
X025852Y008629D01*
X025950Y008727D02*
X026975Y008727D01*
X027131Y008826D02*
X026377Y008826D01*
X026465Y008924D02*
X027186Y008924D01*
X026997Y009023D02*
X026465Y009023D01*
X026465Y009121D02*
X026900Y009121D01*
X026859Y009220D02*
X026465Y009220D01*
X026465Y009318D02*
X026828Y009318D01*
X026828Y009417D02*
X026465Y009417D01*
X026465Y009515D02*
X026843Y009515D01*
X026884Y009614D02*
X026465Y009614D01*
X026577Y009712D02*
X026960Y009712D01*
X027095Y009811D02*
X026615Y009811D01*
X026260Y010571D02*
X026217Y010615D01*
X026217Y011134D01*
X026265Y011091D02*
X026929Y011091D01*
X026871Y011190D02*
X026563Y011190D01*
X026563Y011288D02*
X026830Y011288D01*
X026828Y011387D02*
X026559Y011387D01*
X026563Y011086D02*
X026265Y011086D01*
X026265Y010768D01*
X026433Y010768D01*
X026471Y010778D01*
X026505Y010798D01*
X026533Y010826D01*
X026553Y010860D01*
X026563Y010898D01*
X026563Y011086D01*
X026563Y010993D02*
X027027Y010993D01*
X027058Y010796D02*
X026502Y010796D01*
X026562Y010894D02*
X028923Y010894D01*
X028923Y010796D02*
X028138Y010796D01*
X028252Y010697D02*
X028923Y010697D01*
X028923Y010599D02*
X028319Y010599D01*
X028360Y010500D02*
X028923Y010500D01*
X028923Y010402D02*
X028368Y010402D01*
X028368Y010303D02*
X028923Y010303D01*
X028923Y010205D02*
X028332Y010205D01*
X028283Y010106D02*
X028923Y010106D01*
X028923Y010008D02*
X028184Y010008D01*
X028169Y010993D02*
X028923Y010993D01*
X028923Y011091D02*
X028268Y011091D01*
X028326Y011190D02*
X028923Y011190D01*
X028923Y011288D02*
X028366Y011288D01*
X028368Y011387D02*
X028923Y011387D01*
X028923Y011485D02*
X028366Y011485D01*
X028325Y011584D02*
X028923Y011584D01*
X028923Y011682D02*
X028343Y011682D01*
X028442Y011781D02*
X028923Y011781D01*
X028923Y011879D02*
X028540Y011879D01*
X028570Y011978D02*
X028923Y011978D01*
X028923Y012076D02*
X028570Y012076D01*
X028570Y012175D02*
X028923Y012175D01*
X028923Y012273D02*
X028570Y012273D01*
X028570Y012372D02*
X028923Y012372D01*
X028923Y012470D02*
X028570Y012470D01*
X028570Y012569D02*
X028923Y012569D01*
X028923Y012667D02*
X028570Y012667D01*
X028570Y012766D02*
X028923Y012766D01*
X028923Y012864D02*
X028570Y012864D01*
X028570Y012963D02*
X028923Y012963D01*
X028923Y013061D02*
X028570Y013061D01*
X028570Y013160D02*
X028923Y013160D01*
X028923Y013258D02*
X028570Y013258D01*
X028570Y013357D02*
X028923Y013357D01*
X028923Y013455D02*
X028570Y013455D01*
X028570Y013554D02*
X028923Y013554D01*
X028923Y013652D02*
X028570Y013652D01*
X028570Y013751D02*
X028923Y013751D01*
X028923Y013849D02*
X028570Y013849D01*
X028570Y013948D02*
X028923Y013948D01*
X028923Y014046D02*
X028570Y014046D01*
X028570Y014145D02*
X028923Y014145D01*
X028923Y014243D02*
X028570Y014243D01*
X027598Y013386D02*
X026312Y012100D01*
X023050Y012100D01*
X022681Y011731D01*
X022681Y011390D01*
X022366Y011390D02*
X022366Y011716D01*
X022975Y012325D01*
X023205Y012545D02*
X023218Y012577D01*
X023218Y012723D01*
X023199Y012770D01*
X023670Y012770D01*
X023695Y012795D01*
X023720Y012770D01*
X024460Y012770D01*
X024485Y012795D01*
X024510Y012770D01*
X025250Y012770D01*
X025350Y012870D01*
X025350Y013300D01*
X026525Y013300D01*
X026525Y013740D01*
X026641Y013740D01*
X026580Y013679D01*
X026580Y013016D01*
X026109Y012545D01*
X023205Y012545D01*
X023215Y012569D02*
X026132Y012569D01*
X026231Y012667D02*
X023218Y012667D01*
X023201Y012766D02*
X026329Y012766D01*
X026428Y012864D02*
X025344Y012864D01*
X025350Y012963D02*
X026526Y012963D01*
X026580Y013061D02*
X025350Y013061D01*
X025350Y013160D02*
X026580Y013160D01*
X026580Y013258D02*
X025350Y013258D01*
X026525Y013357D02*
X026580Y013357D01*
X026580Y013455D02*
X026525Y013455D01*
X026525Y013554D02*
X026580Y013554D01*
X026580Y013652D02*
X026525Y013652D01*
X026950Y012400D02*
X027585Y012400D01*
X027598Y012386D01*
X026950Y012400D02*
X026400Y011850D01*
X023150Y011850D01*
X022996Y011696D01*
X022996Y011390D01*
X023425Y010900D02*
X022150Y010900D01*
X022051Y010999D01*
X022051Y011390D01*
X021736Y011390D02*
X021736Y010814D01*
X021825Y010725D01*
X022925Y010725D01*
X023075Y010575D01*
X023100Y010575D01*
X023425Y010900D02*
X023525Y010800D01*
X022650Y010400D02*
X022525Y010525D01*
X021525Y010525D01*
X021106Y010944D01*
X021106Y011390D01*
X021421Y011390D02*
X021421Y011971D01*
X021425Y012650D02*
X020930Y013145D01*
X020930Y013500D01*
X021720Y013500D02*
X021720Y013105D01*
X022175Y012650D01*
X020750Y010800D02*
X021498Y010052D01*
X024335Y010052D01*
X024335Y009107D02*
X020343Y009107D01*
X018400Y011050D01*
X019148Y009909D02*
X019230Y009909D01*
X019328Y009811D02*
X019124Y009811D01*
X019071Y009712D02*
X019427Y009712D01*
X019525Y009614D02*
X018950Y009614D01*
X018693Y009515D02*
X019624Y009515D01*
X019722Y009417D02*
X018578Y009417D01*
X018848Y009318D02*
X019821Y009318D01*
X019919Y009220D02*
X019156Y009220D01*
X019251Y009121D02*
X020018Y009121D01*
X020116Y009023D02*
X019292Y009023D01*
X019305Y008924D02*
X020215Y008924D01*
X018937Y008918D02*
X018748Y009107D01*
X018193Y009107D01*
X017788Y008740D02*
X017788Y008697D01*
X017575Y008697D01*
X017532Y008740D01*
X017558Y008740D01*
X017558Y009039D01*
X017240Y009039D01*
X017240Y009032D01*
X017213Y009059D01*
X017273Y009120D01*
X017280Y009135D01*
X017558Y009135D01*
X017558Y009039D01*
X017655Y009039D01*
X017655Y008740D01*
X017788Y008740D01*
X017788Y008727D02*
X017545Y008727D01*
X017558Y008826D02*
X017655Y008826D01*
X017655Y008924D02*
X017558Y008924D01*
X017558Y009023D02*
X017655Y009023D01*
X017655Y009135D02*
X017558Y009135D01*
X017558Y009429D01*
X017655Y009429D01*
X017655Y009135D01*
X017655Y009220D02*
X017558Y009220D01*
X017558Y009318D02*
X017655Y009318D01*
X017655Y009417D02*
X017558Y009417D01*
X017558Y009121D02*
X017274Y009121D01*
X016575Y008386D02*
X016799Y008162D01*
X018193Y008162D01*
X018193Y007847D02*
X017035Y007847D01*
X016575Y007386D01*
X018193Y006902D02*
X018748Y006902D01*
X018780Y006870D01*
X018598Y006462D02*
X020816Y006462D01*
X020717Y006363D02*
X018578Y006363D01*
X018578Y006265D02*
X020674Y006265D01*
X020657Y006166D02*
X018578Y006166D01*
X018598Y006068D02*
X020661Y006068D01*
X020702Y005969D02*
X018598Y005969D01*
X018598Y005871D02*
X020784Y005871D01*
X021028Y005772D02*
X018607Y005772D01*
X018646Y005674D02*
X021126Y005674D01*
X021614Y006162D02*
X021736Y006040D01*
X021736Y005248D01*
X022366Y005248D02*
X022366Y006048D01*
X022480Y006162D01*
X022422Y006560D02*
X023136Y006560D01*
X023209Y006462D02*
X023260Y006462D01*
X023308Y006363D02*
X023930Y006363D01*
X023930Y006265D02*
X023351Y006265D01*
X023368Y006166D02*
X023930Y006166D01*
X023930Y006068D02*
X023364Y006068D01*
X023323Y005969D02*
X023930Y005969D01*
X023930Y005871D02*
X023241Y005871D01*
X022933Y005772D02*
X023934Y005772D01*
X024070Y005674D02*
X022901Y005674D01*
X022681Y005248D02*
X022681Y004587D01*
X023311Y004859D02*
X023346Y004823D01*
X025394Y004823D01*
X026732Y006162D01*
X026401Y006142D02*
X025303Y005043D01*
X024454Y005043D01*
X024500Y005062D01*
X024603Y005166D01*
X024659Y005301D01*
X024659Y005448D01*
X024603Y005583D01*
X024509Y005677D01*
X024640Y005677D01*
X024700Y005737D01*
X024729Y005737D01*
X025170Y006178D01*
X025299Y006307D01*
X025299Y006334D01*
X025391Y006426D01*
X025447Y006561D01*
X025447Y006707D01*
X025394Y006834D01*
X025421Y006827D01*
X025589Y006827D01*
X025589Y007145D01*
X025686Y007145D01*
X025686Y006827D01*
X025854Y006827D01*
X025893Y006837D01*
X025927Y006857D01*
X025941Y006871D01*
X025981Y006830D01*
X026013Y006830D01*
X025993Y006825D01*
X025959Y006805D01*
X025931Y006778D01*
X025911Y006743D01*
X025901Y006705D01*
X025901Y006537D01*
X026219Y006537D01*
X026219Y006440D01*
X025901Y006440D01*
X025901Y006272D01*
X025911Y006234D01*
X025931Y006200D01*
X025959Y006172D01*
X025993Y006152D01*
X026031Y006142D01*
X026219Y006142D01*
X026219Y006440D01*
X026316Y006440D01*
X026316Y006142D01*
X026401Y006142D01*
X026316Y006166D02*
X026219Y006166D01*
X026219Y006265D02*
X026316Y006265D01*
X026316Y006363D02*
X026219Y006363D01*
X026219Y006462D02*
X025406Y006462D01*
X025446Y006560D02*
X025901Y006560D01*
X025901Y006659D02*
X025447Y006659D01*
X025426Y006757D02*
X025919Y006757D01*
X025925Y006856D02*
X025956Y006856D01*
X025686Y006856D02*
X025589Y006856D01*
X025589Y006954D02*
X025686Y006954D01*
X025686Y007053D02*
X025589Y007053D01*
X025079Y006634D02*
X025079Y006398D01*
X024638Y005957D01*
X024335Y005957D01*
X024513Y005674D02*
X025933Y005674D01*
X026031Y005772D02*
X024764Y005772D01*
X024862Y005871D02*
X026130Y005871D01*
X026228Y005969D02*
X024961Y005969D01*
X025059Y006068D02*
X026327Y006068D01*
X025969Y006166D02*
X025158Y006166D01*
X025256Y006265D02*
X025903Y006265D01*
X025901Y006363D02*
X025328Y006363D01*
X024929Y007193D02*
X024906Y007217D01*
X024335Y006902D02*
X023535Y006902D01*
X023425Y006792D01*
X023768Y006659D02*
X023930Y006659D01*
X023930Y006560D02*
X023714Y006560D01*
X023590Y006462D02*
X023930Y006462D01*
X024607Y005575D02*
X025834Y005575D01*
X025736Y005477D02*
X024647Y005477D01*
X024659Y005378D02*
X025637Y005378D01*
X025539Y005280D02*
X024650Y005280D01*
X024610Y005181D02*
X025440Y005181D01*
X025342Y005083D02*
X024520Y005083D01*
X024291Y005374D02*
X023752Y005374D01*
X023626Y005248D01*
X023311Y005248D02*
X023311Y004859D01*
X021393Y006462D02*
X021234Y006462D01*
X023645Y007644D02*
X023950Y007644D01*
X023950Y007545D02*
X023740Y007545D01*
X024335Y008477D02*
X024795Y008477D01*
X024921Y008603D01*
X024685Y008839D02*
X024921Y009154D01*
X024685Y008839D02*
X024638Y008792D01*
X024335Y008792D01*
X026465Y007742D02*
X026990Y007742D01*
X026896Y007644D02*
X026465Y007644D01*
X026574Y007545D02*
X026855Y007545D01*
X026828Y007447D02*
X026654Y007447D01*
X026654Y007348D02*
X026828Y007348D01*
X026846Y007250D02*
X026654Y007250D01*
X026654Y007151D02*
X026887Y007151D01*
X026954Y007053D02*
X026654Y007053D01*
X026654Y006954D02*
X026855Y006954D01*
X026757Y006856D02*
X026580Y006856D01*
X026616Y006757D02*
X026658Y006757D01*
X025558Y010619D02*
X025508Y010619D01*
X026168Y010796D02*
X026265Y010796D01*
X026265Y010894D02*
X026168Y010894D01*
X026168Y010993D02*
X026265Y010993D01*
X018769Y008038D02*
X018598Y008038D01*
X018598Y008136D02*
X018647Y008136D01*
X018598Y007742D02*
X018749Y007742D01*
X018638Y007644D02*
X018598Y007644D01*
X015996Y005772D02*
X015250Y005772D01*
X015250Y005674D02*
X015897Y005674D01*
X015844Y005575D02*
X015250Y005575D01*
X015250Y005477D02*
X015805Y005477D01*
X015805Y005378D02*
X015250Y005378D01*
X015250Y005280D02*
X015810Y005280D01*
X015851Y005181D02*
X015250Y005181D01*
X015250Y005083D02*
X015914Y005083D01*
X016181Y003856D02*
X016009Y003785D01*
X015876Y003652D01*
X015805Y003480D01*
X015805Y003293D01*
X015876Y003120D01*
X016009Y002988D01*
X016181Y002916D01*
X016968Y002916D01*
X017141Y002988D01*
X017273Y003120D01*
X017345Y003293D01*
X017345Y003480D01*
X017273Y003652D01*
X017141Y003785D01*
X016968Y003856D01*
X016181Y003856D01*
X016050Y003802D02*
X015250Y003802D01*
X015250Y003704D02*
X015927Y003704D01*
X015857Y003605D02*
X015250Y003605D01*
X015250Y003507D02*
X015816Y003507D01*
X015805Y003408D02*
X015250Y003408D01*
X015250Y003310D02*
X015805Y003310D01*
X015839Y003211D02*
X015250Y003211D01*
X015250Y003113D02*
X015884Y003113D01*
X015982Y003014D02*
X015250Y003014D01*
X015250Y002916D02*
X017360Y002916D01*
X017360Y003014D02*
X017167Y003014D01*
X017266Y003113D02*
X017360Y003113D01*
X017360Y003211D02*
X017311Y003211D01*
X017345Y003310D02*
X017360Y003310D01*
X017360Y003408D02*
X017345Y003408D01*
X017334Y003507D02*
X017360Y003507D01*
X017360Y003605D02*
X017293Y003605D01*
X017276Y003704D02*
X017222Y003704D01*
X017203Y003802D02*
X017099Y003802D01*
X017800Y003605D02*
X018611Y003605D01*
X018611Y003507D02*
X017800Y003507D01*
X017800Y003408D02*
X018611Y003408D01*
X018611Y003310D02*
X017800Y003310D01*
X017800Y003211D02*
X018612Y003211D01*
X018710Y003113D02*
X017800Y003113D01*
X017800Y003014D02*
X018860Y003014D01*
X018959Y002916D02*
X017800Y002916D01*
X017360Y002817D02*
X017063Y002817D01*
X017141Y002785D02*
X016968Y002856D01*
X016181Y002856D01*
X016009Y002785D01*
X015876Y002652D01*
X015805Y002480D01*
X015805Y002293D01*
X015876Y002120D01*
X016009Y001988D01*
X016181Y001916D01*
X016968Y001916D01*
X017141Y001988D01*
X017273Y002120D01*
X017345Y002293D01*
X017345Y002480D01*
X017273Y002652D01*
X017141Y002785D01*
X017207Y002719D02*
X017360Y002719D01*
X017360Y002620D02*
X017287Y002620D01*
X017327Y002522D02*
X017360Y002522D01*
X017360Y002423D02*
X017345Y002423D01*
X017345Y002325D02*
X017360Y002325D01*
X017360Y002226D02*
X017317Y002226D01*
X017313Y002128D02*
X017276Y002128D01*
X017253Y002029D02*
X017182Y002029D01*
X017253Y001931D02*
X017003Y001931D01*
X016937Y001832D02*
X017253Y001832D01*
X017253Y001734D02*
X017162Y001734D01*
X017250Y001635D02*
X017253Y001635D01*
X017299Y001537D02*
X017327Y001537D01*
X017322Y001438D02*
X018631Y001438D01*
X018631Y001340D02*
X016625Y001340D01*
X016625Y001438D02*
X016525Y001438D01*
X016525Y001340D02*
X015250Y001340D01*
X015250Y001438D02*
X015827Y001438D01*
X015850Y001537D02*
X015250Y001537D01*
X015250Y001635D02*
X015899Y001635D01*
X015987Y001734D02*
X015250Y001734D01*
X015250Y001832D02*
X016213Y001832D01*
X016147Y001931D02*
X015250Y001931D01*
X015250Y002029D02*
X015967Y002029D01*
X015873Y002128D02*
X015250Y002128D01*
X015250Y002226D02*
X015832Y002226D01*
X015805Y002325D02*
X015250Y002325D01*
X015250Y002423D02*
X015805Y002423D01*
X015822Y002522D02*
X015250Y002522D01*
X015250Y002620D02*
X015863Y002620D01*
X015942Y002719D02*
X015250Y002719D01*
X015250Y002817D02*
X016087Y002817D01*
X016525Y001832D02*
X016625Y001832D01*
X016625Y001734D02*
X016525Y001734D01*
X016525Y001635D02*
X016625Y001635D01*
X016625Y001537D02*
X016525Y001537D01*
X016525Y001241D02*
X016625Y001241D01*
X016625Y001143D02*
X016525Y001143D01*
X016525Y001044D02*
X016625Y001044D01*
X016625Y000946D02*
X016525Y000946D01*
X016181Y000946D02*
X015250Y000946D01*
X015250Y001044D02*
X015981Y001044D01*
X015896Y001143D02*
X015250Y001143D01*
X015250Y001241D02*
X015849Y001241D01*
X016969Y000946D02*
X018658Y000946D01*
X018631Y001044D02*
X017169Y001044D01*
X017254Y001143D02*
X018631Y001143D01*
X018631Y001241D02*
X017301Y001241D01*
X018478Y001931D02*
X018631Y001931D01*
X018631Y002029D02*
X018475Y002029D01*
X018402Y002128D02*
X018665Y002128D01*
X019398Y002128D02*
X019637Y002128D01*
X019611Y002029D02*
X019431Y002029D01*
X019431Y001931D02*
X019611Y001931D01*
X019611Y001832D02*
X019431Y001832D01*
X019431Y001734D02*
X019611Y001734D01*
X019611Y001635D02*
X019431Y001635D01*
X019431Y001438D02*
X019611Y001438D01*
X019611Y001340D02*
X019431Y001340D01*
X019431Y001241D02*
X019611Y001241D01*
X019611Y001143D02*
X019431Y001143D01*
X019431Y001044D02*
X019611Y001044D01*
X019627Y000946D02*
X019405Y000946D01*
X019611Y001537D02*
X019081Y001537D01*
X020031Y001532D02*
X020031Y002374D01*
X020433Y002776D01*
X022402Y002776D01*
X022480Y002697D01*
X022234Y002423D02*
X021431Y002423D01*
X021431Y002325D02*
X023438Y002325D01*
X023393Y002226D02*
X021397Y002226D01*
X021426Y002128D02*
X023393Y002128D01*
X023393Y002029D02*
X021451Y002029D01*
X021451Y001931D02*
X023393Y001931D01*
X023393Y001832D02*
X021451Y001832D01*
X021451Y001734D02*
X023393Y001734D01*
X023393Y001635D02*
X021451Y001635D01*
X021451Y001537D02*
X023393Y001537D01*
X023393Y001438D02*
X021451Y001438D01*
X021451Y001340D02*
X023393Y001340D01*
X023346Y002522D02*
X022806Y002522D01*
X022847Y002620D02*
X023218Y002620D01*
X023162Y002719D02*
X022848Y002719D01*
X022829Y002817D02*
X023136Y002817D01*
X022727Y002423D02*
X024004Y002423D01*
X023892Y002522D02*
X023661Y002522D01*
X023790Y002620D02*
X023858Y002620D01*
X022155Y002522D02*
X021404Y002522D01*
X021063Y002382D02*
X021031Y002351D01*
X021031Y001532D01*
X019016Y003766D02*
X019031Y003782D01*
X018611Y003704D02*
X018571Y003704D01*
X017985Y003704D02*
X017863Y003704D01*
X016004Y010993D02*
X015250Y010993D01*
X015250Y011091D02*
X015905Y011091D01*
X015848Y011190D02*
X015250Y011190D01*
X015250Y011288D02*
X015807Y011288D01*
X015805Y011387D02*
X015250Y011387D01*
X015250Y011485D02*
X015807Y011485D01*
X015848Y011584D02*
X015250Y011584D01*
X015250Y011682D02*
X015906Y011682D01*
X016004Y011781D02*
X015250Y011781D01*
X016000Y014900D02*
X017790Y014900D01*
X017870Y014980D01*
X017600Y015721D02*
X017205Y015721D01*
X017058Y015819D02*
X017600Y015819D01*
X017160Y015918D02*
X016971Y015918D01*
X017094Y016804D02*
X017140Y016804D01*
X017140Y016903D02*
X015770Y016903D01*
X015770Y017888D02*
X017140Y017888D01*
X017137Y017986D02*
X017140Y017986D01*
X017130Y017789D02*
X017140Y017789D01*
X016925Y021800D02*
X016800Y021800D01*
X016925Y021800D02*
X017215Y022090D01*
X017870Y022090D01*
X016752Y023006D02*
X016223Y023006D01*
X016223Y023103D01*
X016542Y023103D01*
X016752Y023103D01*
X016752Y023006D01*
X016752Y023010D02*
X016223Y023010D01*
X016127Y023010D02*
X015250Y023010D01*
X015250Y023108D02*
X015808Y023108D01*
X015808Y023103D02*
X016127Y023103D01*
X016127Y023006D01*
X015808Y023006D01*
X015808Y022838D01*
X015819Y022800D01*
X015838Y022765D01*
X015866Y022737D01*
X015901Y022718D01*
X015920Y022713D01*
X015888Y022713D01*
X015788Y022613D01*
X015788Y022078D01*
X015862Y022005D01*
X015825Y021917D01*
X015787Y022009D01*
X015684Y022112D01*
X015548Y022168D01*
X015402Y022168D01*
X015266Y022112D01*
X015250Y022096D01*
X015250Y023150D01*
X015808Y023150D01*
X015808Y023103D01*
X015808Y022911D02*
X015250Y022911D01*
X015250Y022813D02*
X015815Y022813D01*
X015914Y022714D02*
X015250Y022714D01*
X015250Y022616D02*
X015791Y022616D01*
X015788Y022517D02*
X015250Y022517D01*
X015250Y022419D02*
X015788Y022419D01*
X015788Y022320D02*
X015250Y022320D01*
X015250Y022222D02*
X015788Y022222D01*
X015788Y022123D02*
X015657Y022123D01*
X015771Y022025D02*
X015842Y022025D01*
X015829Y021926D02*
X015821Y021926D01*
X015293Y022123D02*
X015250Y022123D01*
D23*
X016175Y022346D02*
X016175Y021800D01*
X016175Y022346D02*
X016800Y022346D01*
X016929Y022475D01*
X017000Y022475D01*
X017405Y022880D01*
X017870Y022880D01*
X017870Y023670D02*
X017416Y023670D01*
X016800Y023054D01*
X016175Y023054D01*
X015629Y023054D01*
X015625Y023050D01*
X015592Y020628D02*
X016333Y020628D01*
X016575Y020386D01*
X017870Y015770D02*
X018555Y015770D01*
X018650Y015675D01*
X018650Y014275D01*
X018575Y014200D01*
X017880Y014200D01*
X017870Y014190D01*
X018625Y013435D01*
X018625Y013125D01*
X018780Y009941D02*
X018575Y009737D01*
X018193Y009737D01*
X017665Y009737D01*
X017606Y009796D01*
X017709Y009422D02*
X017598Y009311D01*
X017598Y009095D01*
X017606Y009087D01*
X017709Y009422D02*
X018193Y009422D01*
X018897Y009422D01*
X018944Y009469D01*
X017606Y006744D02*
X017764Y006587D01*
X018193Y006587D01*
X018193Y006272D02*
X017843Y006272D01*
X017606Y006036D01*
X017571Y006000D01*
X017571Y005445D01*
X018193Y005532D02*
X018193Y005957D01*
X018193Y006272D02*
X019378Y006272D01*
X019409Y006241D01*
X018280Y005445D02*
X018280Y004930D01*
X018307Y004902D01*
X018303Y004898D01*
X018280Y005445D02*
X018193Y005532D01*
X023425Y007343D02*
X023551Y007217D01*
X024335Y007217D01*
X024906Y007217D01*
X024335Y007532D02*
X024024Y007532D01*
X023661Y007894D01*
X023425Y007894D01*
X024335Y007847D02*
X025807Y007847D01*
X025823Y007863D01*
X026268Y007418D01*
X026268Y007197D01*
X025638Y007193D02*
X025638Y006642D01*
X025630Y006634D01*
X025776Y006489D01*
X026268Y006489D01*
X025031Y008162D02*
X024335Y008162D01*
X025031Y008162D02*
X025866Y008996D01*
X025866Y009276D01*
X025823Y009319D01*
X025559Y009583D01*
X025559Y010028D01*
X026268Y010028D02*
X026268Y010563D01*
X026260Y010571D01*
X025950Y013125D02*
X025950Y013810D01*
X026330Y014190D01*
X027200Y023100D02*
X027200Y024000D01*
X026890Y024310D01*
X026330Y024460D01*
D24*
X017870Y021300D02*
X015975Y021300D01*
X015475Y021800D01*
X025278Y010028D02*
X024925Y009675D01*
X025278Y010028D02*
X025559Y010028D01*
X021025Y006150D02*
X021025Y006100D01*
X021400Y005725D01*
X021400Y005270D01*
X021421Y005248D01*
M02*
