G75*
G70*
%OFA0B0*%
%FSLAX24Y24*%
%IPPOS*%
%LPD*%
%AMOC8*
5,1,8,0,0,1.08239X$1,22.5*
%
%ADD10C,0.0600*%
%ADD11C,0.0396*%
%ADD12C,0.0100*%
D10*
X002040Y001926D03*
X002040Y002926D03*
X002040Y003926D03*
X002040Y004926D03*
X002040Y005926D03*
X002040Y006926D03*
X002040Y007926D03*
X002040Y008926D03*
X011016Y008926D03*
X011016Y007926D03*
X011016Y006926D03*
X011016Y005926D03*
X011016Y004926D03*
X011016Y003926D03*
X011016Y002926D03*
X011016Y001926D03*
D11*
X007945Y002670D03*
X007394Y002355D03*
X006843Y004166D03*
X005898Y004166D03*
X004953Y002827D03*
X004953Y002276D03*
X007394Y005347D03*
X007394Y006213D03*
X006764Y006292D03*
X006056Y005741D03*
X005347Y005583D03*
X004087Y005977D03*
X003378Y005977D03*
X004874Y007630D03*
X005426Y008890D03*
X005819Y009441D03*
X005819Y010229D03*
X007158Y010150D03*
X007158Y008260D03*
X008339Y007788D03*
X009284Y006607D03*
X009599Y007237D03*
X009678Y008339D03*
X009914Y010071D03*
X004244Y010150D03*
D12*
X000400Y010609D02*
X000400Y000400D01*
X012656Y000400D01*
X012656Y010609D01*
X000400Y010609D01*
X000400Y010591D02*
X012656Y010591D01*
X012656Y010493D02*
X007241Y010493D01*
X007227Y010498D02*
X007089Y010498D01*
X006961Y010445D01*
X006863Y010347D01*
X006810Y010219D01*
X006810Y010081D01*
X006863Y009953D01*
X006961Y009855D01*
X007089Y009802D01*
X007227Y009802D01*
X007355Y009855D01*
X007453Y009953D01*
X007506Y010081D01*
X007506Y010219D01*
X007453Y010347D01*
X007355Y010445D01*
X007227Y010498D01*
X007406Y010394D02*
X009783Y010394D01*
X009845Y010419D02*
X009717Y010366D01*
X009619Y010268D01*
X009566Y010141D01*
X009566Y010002D01*
X009619Y009874D01*
X009717Y009776D01*
X009845Y009723D01*
X009983Y009723D01*
X010111Y009776D01*
X010209Y009874D01*
X010262Y010002D01*
X010262Y010141D01*
X010209Y010268D01*
X010111Y010366D01*
X009983Y010419D01*
X009845Y010419D01*
X010044Y010394D02*
X012656Y010394D01*
X012656Y010296D02*
X010182Y010296D01*
X010238Y010197D02*
X012656Y010197D01*
X012656Y010099D02*
X010262Y010099D01*
X010261Y010000D02*
X012656Y010000D01*
X012656Y009902D02*
X010220Y009902D01*
X010138Y009803D02*
X012656Y009803D01*
X012656Y009705D02*
X006048Y009705D01*
X006016Y009736D02*
X006114Y009639D01*
X006167Y009511D01*
X006167Y009372D01*
X006114Y009244D01*
X006016Y009146D01*
X005889Y009093D01*
X005750Y009093D01*
X005690Y009118D01*
X005721Y009087D01*
X005774Y008959D01*
X005774Y008821D01*
X005721Y008693D01*
X005623Y008595D01*
X005495Y008542D01*
X005356Y008542D01*
X005228Y008595D01*
X005130Y008693D01*
X005077Y008821D01*
X005077Y008959D01*
X005130Y009087D01*
X005228Y009185D01*
X005356Y009238D01*
X005495Y009238D01*
X005555Y009213D01*
X005524Y009244D01*
X005471Y009372D01*
X005471Y009511D01*
X005524Y009639D01*
X005622Y009736D01*
X005750Y009789D01*
X005889Y009789D01*
X006016Y009736D01*
X006128Y009606D02*
X012656Y009606D01*
X012656Y009508D02*
X006167Y009508D01*
X006167Y009409D02*
X012656Y009409D01*
X012656Y009311D02*
X011263Y009311D01*
X011271Y009307D02*
X011106Y009376D01*
X010927Y009376D01*
X010761Y009307D01*
X010635Y009180D01*
X010566Y009015D01*
X005751Y009015D01*
X005774Y008917D02*
X010566Y008917D01*
X010566Y008836D02*
X010566Y009015D01*
X010607Y009114D02*
X005938Y009114D01*
X006082Y009212D02*
X010666Y009212D01*
X010770Y009311D02*
X006142Y009311D01*
X005701Y009114D02*
X005695Y009114D01*
X005497Y009311D02*
X002286Y009311D01*
X002295Y009307D02*
X002129Y009376D01*
X001950Y009376D01*
X001785Y009307D01*
X001658Y009180D01*
X001590Y009015D01*
X000400Y009015D01*
X000400Y008917D02*
X001590Y008917D01*
X001590Y008836D02*
X001590Y009015D01*
X001631Y009114D02*
X000400Y009114D01*
X000400Y009212D02*
X001690Y009212D01*
X001793Y009311D02*
X000400Y009311D01*
X000400Y009409D02*
X005471Y009409D01*
X005471Y009508D02*
X000400Y009508D01*
X000400Y009606D02*
X005511Y009606D01*
X005590Y009705D02*
X000400Y009705D01*
X000400Y009803D02*
X004173Y009803D01*
X004175Y009802D02*
X004314Y009802D01*
X004442Y009855D01*
X004540Y009953D01*
X004593Y010081D01*
X004593Y010219D01*
X004540Y010347D01*
X004442Y010445D01*
X004314Y010498D01*
X004175Y010498D01*
X004047Y010445D01*
X003949Y010347D01*
X003896Y010219D01*
X003896Y010081D01*
X003949Y009953D01*
X004047Y009855D01*
X004175Y009802D01*
X004316Y009803D02*
X007086Y009803D01*
X007230Y009803D02*
X009690Y009803D01*
X009607Y009902D02*
X007402Y009902D01*
X007473Y010000D02*
X009566Y010000D01*
X009566Y010099D02*
X007506Y010099D01*
X007506Y010197D02*
X009589Y010197D01*
X009646Y010296D02*
X007474Y010296D01*
X007075Y010493D02*
X006048Y010493D01*
X006016Y010524D02*
X006114Y010426D01*
X006167Y010298D01*
X006167Y010159D01*
X006114Y010032D01*
X006016Y009934D01*
X005889Y009881D01*
X005750Y009881D01*
X005622Y009934D01*
X005524Y010032D01*
X005471Y010159D01*
X005471Y010298D01*
X005524Y010426D01*
X005622Y010524D01*
X005750Y010577D01*
X005889Y010577D01*
X006016Y010524D01*
X006128Y010394D02*
X006910Y010394D01*
X006841Y010296D02*
X006167Y010296D01*
X006167Y010197D02*
X006810Y010197D01*
X006810Y010099D02*
X006142Y010099D01*
X006083Y010000D02*
X006843Y010000D01*
X006914Y009902D02*
X005939Y009902D01*
X005700Y009902D02*
X004488Y009902D01*
X004559Y010000D02*
X005556Y010000D01*
X005496Y010099D02*
X004593Y010099D01*
X004593Y010197D02*
X005471Y010197D01*
X005471Y010296D02*
X004561Y010296D01*
X004493Y010394D02*
X005511Y010394D01*
X005591Y010493D02*
X004327Y010493D01*
X004162Y010493D02*
X000400Y010493D01*
X000400Y010394D02*
X003996Y010394D01*
X003928Y010296D02*
X000400Y010296D01*
X000400Y010197D02*
X003896Y010197D01*
X003896Y010099D02*
X000400Y010099D01*
X000400Y010000D02*
X003930Y010000D01*
X004001Y009902D02*
X000400Y009902D01*
X000400Y008818D02*
X001597Y008818D01*
X001590Y008836D02*
X001658Y008671D01*
X001785Y008544D01*
X001950Y008476D01*
X002129Y008476D01*
X002295Y008544D01*
X002421Y008671D01*
X002490Y008836D01*
X002490Y009015D01*
X005101Y009015D01*
X005077Y008917D02*
X002490Y008917D01*
X002490Y009015D02*
X002421Y009180D01*
X002295Y009307D01*
X002390Y009212D02*
X005293Y009212D01*
X005157Y009114D02*
X002449Y009114D01*
X002482Y008818D02*
X005079Y008818D01*
X005119Y008720D02*
X002441Y008720D01*
X002372Y008621D02*
X005202Y008621D01*
X005649Y008621D02*
X010684Y008621D01*
X010635Y008671D02*
X010761Y008544D01*
X010927Y008476D01*
X011106Y008476D01*
X011271Y008544D01*
X011398Y008671D01*
X011466Y008836D01*
X011466Y009015D01*
X012656Y009015D01*
X012656Y008917D02*
X011466Y008917D01*
X011466Y009015D02*
X011398Y009180D01*
X011271Y009307D01*
X011366Y009212D02*
X012656Y009212D01*
X012656Y009114D02*
X011425Y009114D01*
X011459Y008818D02*
X012656Y008818D01*
X012656Y008720D02*
X011418Y008720D01*
X011348Y008621D02*
X012656Y008621D01*
X012656Y008523D02*
X011219Y008523D01*
X011106Y008376D02*
X010927Y008376D01*
X010761Y008307D01*
X010635Y008180D01*
X010566Y008015D01*
X010566Y007836D01*
X010635Y007671D01*
X010761Y007544D01*
X010927Y007476D01*
X011106Y007476D01*
X011271Y007544D01*
X011398Y007671D01*
X011466Y007836D01*
X011466Y008015D01*
X011398Y008180D01*
X011271Y008307D01*
X011106Y008376D01*
X011227Y008326D02*
X012656Y008326D01*
X012656Y008424D02*
X007467Y008424D01*
X007453Y008457D02*
X007355Y008555D01*
X007227Y008608D01*
X007089Y008608D01*
X006961Y008555D01*
X006863Y008457D01*
X006810Y008329D01*
X006810Y008191D01*
X006863Y008063D01*
X006961Y007965D01*
X007089Y007912D01*
X007227Y007912D01*
X007355Y007965D01*
X007453Y008063D01*
X007506Y008191D01*
X007506Y008329D01*
X007453Y008457D01*
X007388Y008523D02*
X010813Y008523D01*
X010635Y008671D02*
X010566Y008836D01*
X010574Y008818D02*
X005773Y008818D01*
X005732Y008720D02*
X010614Y008720D01*
X010806Y008326D02*
X007506Y008326D01*
X007506Y008227D02*
X010681Y008227D01*
X010613Y008129D02*
X007480Y008129D01*
X007420Y008030D02*
X010572Y008030D01*
X010566Y007932D02*
X007274Y007932D01*
X007042Y007932D02*
X002490Y007932D01*
X002490Y008015D02*
X002421Y008180D01*
X002295Y008307D01*
X002129Y008376D01*
X001950Y008376D01*
X001785Y008307D01*
X001658Y008180D01*
X001590Y008015D01*
X001590Y007836D01*
X001658Y007671D01*
X001785Y007544D01*
X001950Y007476D01*
X002129Y007476D01*
X002295Y007544D01*
X002421Y007671D01*
X002490Y007836D01*
X002490Y008015D01*
X002484Y008030D02*
X006896Y008030D01*
X006836Y008129D02*
X002443Y008129D01*
X002375Y008227D02*
X006810Y008227D01*
X006810Y008326D02*
X002250Y008326D01*
X002243Y008523D02*
X006928Y008523D01*
X006849Y008424D02*
X000400Y008424D01*
X000400Y008326D02*
X001829Y008326D01*
X001705Y008227D02*
X000400Y008227D01*
X000400Y008129D02*
X001637Y008129D01*
X001596Y008030D02*
X000400Y008030D01*
X000400Y007932D02*
X001590Y007932D01*
X001591Y007833D02*
X000400Y007833D01*
X000400Y007735D02*
X001632Y007735D01*
X001693Y007636D02*
X000400Y007636D01*
X000400Y007538D02*
X001801Y007538D01*
X001950Y007376D02*
X001785Y007307D01*
X001658Y007180D01*
X001590Y007015D01*
X001590Y006836D01*
X001658Y006671D01*
X001785Y006544D01*
X001950Y006476D01*
X002129Y006476D01*
X002295Y006544D01*
X002421Y006671D01*
X002490Y006836D01*
X002490Y007015D01*
X002421Y007180D01*
X002295Y007307D01*
X002129Y007376D01*
X001950Y007376D01*
X001866Y007341D02*
X000400Y007341D01*
X000400Y007439D02*
X009309Y007439D01*
X009304Y007434D02*
X009251Y007306D01*
X009251Y007167D01*
X009304Y007039D01*
X009402Y006942D01*
X009530Y006889D01*
X009668Y006889D01*
X009796Y006942D01*
X009894Y007039D01*
X009947Y007167D01*
X009947Y007306D01*
X009894Y007434D01*
X009796Y007532D01*
X009668Y007585D01*
X009530Y007585D01*
X009402Y007532D01*
X009304Y007434D01*
X009265Y007341D02*
X002214Y007341D01*
X002360Y007242D02*
X009251Y007242D01*
X009261Y007144D02*
X002437Y007144D01*
X002477Y007045D02*
X009301Y007045D01*
X009353Y006955D02*
X009215Y006955D01*
X009087Y006902D01*
X008989Y006804D01*
X008936Y006676D01*
X008936Y006537D01*
X008989Y006410D01*
X009087Y006312D01*
X009215Y006259D01*
X009353Y006259D01*
X009481Y006312D01*
X009579Y006410D01*
X009632Y006537D01*
X009632Y006676D01*
X009579Y006804D01*
X009481Y006902D01*
X009353Y006955D01*
X009373Y006947D02*
X009397Y006947D01*
X009535Y006848D02*
X010566Y006848D01*
X010566Y006836D02*
X010635Y006671D01*
X010761Y006544D01*
X010927Y006476D01*
X011106Y006476D01*
X011271Y006544D01*
X011398Y006671D01*
X011466Y006836D01*
X011466Y007015D01*
X011398Y007180D01*
X011271Y007307D01*
X011106Y007376D01*
X010927Y007376D01*
X010761Y007307D01*
X010635Y007180D01*
X010566Y007015D01*
X010566Y006836D01*
X010602Y006750D02*
X009601Y006750D01*
X009632Y006651D02*
X010654Y006651D01*
X010753Y006553D02*
X009632Y006553D01*
X009597Y006454D02*
X012656Y006454D01*
X012656Y006356D02*
X011154Y006356D01*
X011106Y006376D02*
X011271Y006307D01*
X011398Y006180D01*
X011466Y006015D01*
X011466Y005836D01*
X011398Y005671D01*
X011271Y005544D01*
X011106Y005476D01*
X010927Y005476D01*
X010761Y005544D01*
X010635Y005671D01*
X010566Y005836D01*
X010566Y006015D01*
X010635Y006180D01*
X010761Y006307D01*
X010927Y006376D01*
X011106Y006376D01*
X010878Y006356D02*
X009525Y006356D01*
X009043Y006356D02*
X007712Y006356D01*
X007689Y006410D02*
X007591Y006508D01*
X007463Y006561D01*
X007325Y006561D01*
X007197Y006508D01*
X007099Y006410D01*
X007095Y006402D01*
X007059Y006489D01*
X006961Y006587D01*
X006833Y006640D01*
X006695Y006640D01*
X006567Y006587D01*
X006469Y006489D01*
X006416Y006361D01*
X006416Y006222D01*
X006469Y006095D01*
X006567Y005997D01*
X006695Y005944D01*
X006833Y005944D01*
X006961Y005997D01*
X007059Y006095D01*
X007063Y006103D01*
X007099Y006016D01*
X007197Y005918D01*
X007325Y005865D01*
X007463Y005865D01*
X007591Y005918D01*
X007689Y006016D01*
X007742Y006144D01*
X007742Y006282D01*
X007689Y006410D01*
X007645Y006454D02*
X008970Y006454D01*
X008936Y006553D02*
X007484Y006553D01*
X007304Y006553D02*
X006996Y006553D01*
X007074Y006454D02*
X007143Y006454D01*
X007081Y006060D02*
X007025Y006060D01*
X007153Y005962D02*
X006877Y005962D01*
X006652Y005962D02*
X006327Y005962D01*
X006351Y005938D02*
X006253Y006036D01*
X006125Y006089D01*
X005986Y006089D01*
X005858Y006036D01*
X005760Y005938D01*
X005707Y005810D01*
X005707Y005671D01*
X005760Y005543D01*
X005858Y005445D01*
X005986Y005392D01*
X006125Y005392D01*
X006253Y005445D01*
X006351Y005543D01*
X006404Y005671D01*
X006404Y005810D01*
X006351Y005938D01*
X006382Y005863D02*
X010566Y005863D01*
X010566Y005962D02*
X007635Y005962D01*
X007708Y006060D02*
X010585Y006060D01*
X010626Y006159D02*
X007742Y006159D01*
X007742Y006257D02*
X010711Y006257D01*
X010596Y005765D02*
X006404Y005765D01*
X006401Y005666D02*
X010639Y005666D01*
X010738Y005568D02*
X006361Y005568D01*
X006276Y005469D02*
X012656Y005469D01*
X012656Y005371D02*
X011118Y005371D01*
X011106Y005376D02*
X010927Y005376D01*
X010761Y005307D01*
X010635Y005180D01*
X010566Y005015D01*
X010566Y004836D01*
X010635Y004671D01*
X010761Y004544D01*
X010927Y004476D01*
X011106Y004476D01*
X011271Y004544D01*
X011398Y004671D01*
X011466Y004836D01*
X011466Y005015D01*
X011398Y005180D01*
X011271Y005307D01*
X011106Y005376D01*
X010914Y005371D02*
X005627Y005371D01*
X005642Y005386D02*
X005544Y005288D01*
X005416Y005235D01*
X005278Y005235D01*
X005150Y005288D01*
X005052Y005386D01*
X004999Y005514D01*
X004999Y005652D01*
X005052Y005780D01*
X005150Y005878D01*
X005278Y005931D01*
X005416Y005931D01*
X005544Y005878D01*
X005642Y005780D01*
X005695Y005652D01*
X005695Y005514D01*
X005642Y005386D01*
X005676Y005469D02*
X005835Y005469D01*
X005750Y005568D02*
X005695Y005568D01*
X005689Y005666D02*
X005710Y005666D01*
X005707Y005765D02*
X005648Y005765D01*
X005729Y005863D02*
X005559Y005863D01*
X005784Y005962D02*
X003726Y005962D01*
X003726Y005908D02*
X003673Y005780D01*
X003576Y005682D01*
X003448Y005629D01*
X003309Y005629D01*
X003181Y005682D01*
X003083Y005780D01*
X003030Y005908D01*
X003030Y006046D01*
X003083Y006174D01*
X003181Y006272D01*
X003309Y006325D01*
X003448Y006325D01*
X003576Y006272D01*
X003673Y006174D01*
X003726Y006046D01*
X003726Y005908D01*
X003708Y005863D02*
X005134Y005863D01*
X005045Y005765D02*
X003658Y005765D01*
X003538Y005666D02*
X005004Y005666D01*
X004999Y005568D02*
X002318Y005568D01*
X002295Y005544D02*
X002129Y005476D01*
X001950Y005476D01*
X001785Y005544D01*
X001658Y005671D01*
X001590Y005836D01*
X001590Y006015D01*
X001658Y006180D01*
X001785Y006307D01*
X001950Y006376D01*
X002129Y006376D01*
X002295Y006307D01*
X002421Y006180D01*
X002490Y006015D01*
X002490Y005836D01*
X002421Y005671D01*
X002295Y005544D01*
X002417Y005666D02*
X003219Y005666D01*
X003098Y005765D02*
X002460Y005765D01*
X002490Y005863D02*
X003049Y005863D01*
X003030Y005962D02*
X002490Y005962D01*
X002471Y006060D02*
X003036Y006060D01*
X003077Y006159D02*
X002430Y006159D01*
X002345Y006257D02*
X003166Y006257D01*
X003590Y006257D02*
X006416Y006257D01*
X006416Y006356D02*
X002178Y006356D01*
X002303Y006553D02*
X006533Y006553D01*
X006455Y006454D02*
X000400Y006454D01*
X000400Y006356D02*
X001902Y006356D01*
X001735Y006257D02*
X000400Y006257D01*
X000400Y006159D02*
X001649Y006159D01*
X001608Y006060D02*
X000400Y006060D01*
X000400Y005962D02*
X001590Y005962D01*
X001590Y005863D02*
X000400Y005863D01*
X000400Y005765D02*
X001619Y005765D01*
X001663Y005666D02*
X000400Y005666D01*
X000400Y005568D02*
X001761Y005568D01*
X001785Y005307D02*
X001658Y005180D01*
X001590Y005015D01*
X001590Y004836D01*
X001658Y004671D01*
X001785Y004544D01*
X001950Y004476D01*
X002129Y004476D01*
X002295Y004544D01*
X002421Y004671D01*
X002490Y004836D01*
X002490Y005015D01*
X002421Y005180D01*
X002295Y005307D01*
X002129Y005376D01*
X001950Y005376D01*
X001785Y005307D01*
X001750Y005272D02*
X000400Y005272D01*
X000400Y005174D02*
X001655Y005174D01*
X001615Y005075D02*
X000400Y005075D01*
X000400Y004977D02*
X001590Y004977D01*
X001590Y004878D02*
X000400Y004878D01*
X000400Y004780D02*
X001613Y004780D01*
X001654Y004681D02*
X000400Y004681D01*
X000400Y004583D02*
X001746Y004583D01*
X001930Y004484D02*
X000400Y004484D01*
X000400Y004386D02*
X005625Y004386D01*
X005603Y004363D02*
X005550Y004235D01*
X005550Y004097D01*
X005603Y003969D01*
X005701Y003871D01*
X005829Y003818D01*
X005967Y003818D01*
X006095Y003871D01*
X006193Y003969D01*
X006246Y004097D01*
X006246Y004235D01*
X006193Y004363D01*
X006095Y004461D01*
X005967Y004514D01*
X005829Y004514D01*
X005701Y004461D01*
X005603Y004363D01*
X005571Y004287D02*
X002315Y004287D01*
X002295Y004307D02*
X002129Y004376D01*
X001950Y004376D01*
X001785Y004307D01*
X001658Y004180D01*
X001590Y004015D01*
X001590Y003836D01*
X001658Y003671D01*
X001785Y003544D01*
X001950Y003476D01*
X002129Y003476D01*
X002295Y003544D01*
X002421Y003671D01*
X002490Y003836D01*
X002490Y004015D01*
X002421Y004180D01*
X002295Y004307D01*
X002413Y004189D02*
X005550Y004189D01*
X005553Y004090D02*
X002459Y004090D01*
X002490Y003992D02*
X005593Y003992D01*
X005678Y003893D02*
X002490Y003893D01*
X002473Y003795D02*
X010583Y003795D01*
X010566Y003836D02*
X010635Y003671D01*
X010761Y003544D01*
X010927Y003476D01*
X011106Y003476D01*
X011271Y003544D01*
X011398Y003671D01*
X011466Y003836D01*
X011466Y004015D01*
X011398Y004180D01*
X011271Y004307D01*
X011106Y004376D01*
X010927Y004376D01*
X010761Y004307D01*
X010635Y004180D01*
X010566Y004015D01*
X010566Y003836D01*
X010566Y003893D02*
X007062Y003893D01*
X007040Y003871D02*
X007138Y003969D01*
X007191Y004097D01*
X007191Y004235D01*
X007138Y004363D01*
X007040Y004461D01*
X006912Y004514D01*
X006774Y004514D01*
X006646Y004461D01*
X006548Y004363D01*
X006495Y004235D01*
X006495Y004097D01*
X006548Y003969D01*
X006646Y003871D01*
X006774Y003818D01*
X006912Y003818D01*
X007040Y003871D01*
X007148Y003992D02*
X010566Y003992D01*
X010597Y004090D02*
X007188Y004090D01*
X007191Y004189D02*
X010643Y004189D01*
X010741Y004287D02*
X007169Y004287D01*
X007115Y004386D02*
X012656Y004386D01*
X012656Y004484D02*
X011126Y004484D01*
X010906Y004484D02*
X006984Y004484D01*
X006702Y004484D02*
X006039Y004484D01*
X006171Y004386D02*
X006570Y004386D01*
X006516Y004287D02*
X006225Y004287D01*
X006246Y004189D02*
X006495Y004189D01*
X006497Y004090D02*
X006243Y004090D01*
X006203Y003992D02*
X006538Y003992D01*
X006623Y003893D02*
X006118Y003893D01*
X005757Y004484D02*
X002150Y004484D01*
X002333Y004583D02*
X010723Y004583D01*
X010630Y004681D02*
X002426Y004681D01*
X002466Y004780D02*
X010590Y004780D01*
X010566Y004878D02*
X002490Y004878D01*
X002490Y004977D02*
X010566Y004977D01*
X010591Y005075D02*
X002465Y005075D01*
X002424Y005174D02*
X010632Y005174D01*
X010726Y005272D02*
X005506Y005272D01*
X005188Y005272D02*
X002330Y005272D01*
X002142Y005371D02*
X005067Y005371D01*
X005017Y005469D02*
X000400Y005469D01*
X000400Y005371D02*
X001938Y005371D01*
X001765Y004287D02*
X000400Y004287D01*
X000400Y004189D02*
X001666Y004189D01*
X001621Y004090D02*
X000400Y004090D01*
X000400Y003992D02*
X001590Y003992D01*
X001590Y003893D02*
X000400Y003893D01*
X000400Y003795D02*
X001607Y003795D01*
X001648Y003696D02*
X000400Y003696D01*
X000400Y003598D02*
X001731Y003598D01*
X001894Y003499D02*
X000400Y003499D01*
X000400Y003401D02*
X012656Y003401D01*
X012656Y003499D02*
X011162Y003499D01*
X011106Y003376D02*
X010927Y003376D01*
X010761Y003307D01*
X010635Y003180D01*
X010566Y003015D01*
X010566Y002836D01*
X010635Y002671D01*
X010761Y002544D01*
X010927Y002476D01*
X011106Y002476D01*
X011271Y002544D01*
X011398Y002671D01*
X011466Y002836D01*
X011466Y003015D01*
X011398Y003180D01*
X011271Y003307D01*
X011106Y003376D01*
X011276Y003302D02*
X012656Y003302D01*
X012656Y003204D02*
X011375Y003204D01*
X011429Y003105D02*
X012656Y003105D01*
X012656Y003007D02*
X011466Y003007D01*
X011466Y002908D02*
X012656Y002908D01*
X012656Y002810D02*
X011455Y002810D01*
X011414Y002711D02*
X012656Y002711D01*
X012656Y002613D02*
X011339Y002613D01*
X011198Y002514D02*
X012656Y002514D01*
X012656Y002416D02*
X007742Y002416D01*
X007742Y002424D02*
X007689Y002552D01*
X007591Y002650D01*
X007463Y002703D01*
X007325Y002703D01*
X007197Y002650D01*
X007099Y002552D01*
X007046Y002424D01*
X007046Y002285D01*
X007099Y002158D01*
X007197Y002060D01*
X007325Y002007D01*
X007463Y002007D01*
X007591Y002060D01*
X007689Y002158D01*
X007742Y002285D01*
X007742Y002424D01*
X007705Y002514D02*
X010834Y002514D01*
X010911Y002365D02*
X010966Y002373D01*
X010966Y001976D01*
X011066Y001976D01*
X011066Y002373D01*
X011122Y002365D01*
X011189Y002343D01*
X011252Y002310D01*
X011309Y002269D01*
X011359Y002219D01*
X011401Y002161D01*
X011433Y002098D01*
X011455Y002031D01*
X011464Y001976D01*
X011066Y001976D01*
X011066Y001876D01*
X011464Y001876D01*
X011455Y001820D01*
X011433Y001753D01*
X011401Y001690D01*
X011359Y001632D01*
X011309Y001582D01*
X011252Y001541D01*
X011189Y001509D01*
X011122Y001487D01*
X011066Y001478D01*
X011066Y001876D01*
X010966Y001876D01*
X010568Y001876D01*
X010577Y001820D01*
X010599Y001753D01*
X010631Y001690D01*
X010673Y001632D01*
X010723Y001582D01*
X010780Y001541D01*
X010843Y001509D01*
X010911Y001487D01*
X010966Y001478D01*
X010966Y001876D01*
X010966Y001976D01*
X010568Y001976D01*
X010577Y002031D01*
X010599Y002098D01*
X010631Y002161D01*
X010673Y002219D01*
X010723Y002269D01*
X010780Y002310D01*
X010843Y002343D01*
X010911Y002365D01*
X010966Y002317D02*
X011066Y002317D01*
X011066Y002219D02*
X010966Y002219D01*
X010966Y002120D02*
X011066Y002120D01*
X011066Y002022D02*
X010966Y002022D01*
X010966Y001923D02*
X002090Y001923D01*
X002090Y001876D02*
X002090Y001976D01*
X001990Y001976D01*
X001990Y002373D01*
X001934Y002365D01*
X001867Y002343D01*
X001804Y002310D01*
X001747Y002269D01*
X001697Y002219D01*
X001655Y002161D01*
X001623Y002098D01*
X001601Y002031D01*
X001592Y001976D01*
X001990Y001976D01*
X001990Y001876D01*
X001592Y001876D01*
X001601Y001820D01*
X001623Y001753D01*
X001655Y001690D01*
X001697Y001632D01*
X001747Y001582D01*
X001804Y001541D01*
X001867Y001509D01*
X001934Y001487D01*
X001990Y001478D01*
X001990Y001876D01*
X002090Y001876D01*
X002487Y001876D01*
X002479Y001820D01*
X002457Y001753D01*
X002425Y001690D01*
X002383Y001632D01*
X002333Y001582D01*
X002276Y001541D01*
X002213Y001509D01*
X002145Y001487D01*
X002090Y001478D01*
X002090Y001876D01*
X002090Y001825D02*
X001990Y001825D01*
X001990Y001923D02*
X000400Y001923D01*
X000400Y001825D02*
X001600Y001825D01*
X001636Y001726D02*
X000400Y001726D01*
X000400Y001628D02*
X001701Y001628D01*
X001827Y001529D02*
X000400Y001529D01*
X000400Y001431D02*
X012656Y001431D01*
X012656Y001529D02*
X011229Y001529D01*
X011354Y001628D02*
X012656Y001628D01*
X012656Y001726D02*
X011419Y001726D01*
X011456Y001825D02*
X012656Y001825D01*
X012656Y001923D02*
X011066Y001923D01*
X011066Y001825D02*
X010966Y001825D01*
X010966Y001726D02*
X011066Y001726D01*
X011066Y001628D02*
X010966Y001628D01*
X010966Y001529D02*
X011066Y001529D01*
X010803Y001529D02*
X002253Y001529D01*
X002378Y001628D02*
X010678Y001628D01*
X010613Y001726D02*
X002443Y001726D01*
X002479Y001825D02*
X010577Y001825D01*
X010576Y002022D02*
X007499Y002022D01*
X007652Y002120D02*
X010610Y002120D01*
X010673Y002219D02*
X007714Y002219D01*
X007742Y002317D02*
X010793Y002317D01*
X010693Y002613D02*
X007629Y002613D01*
X007160Y002613D02*
X005050Y002613D01*
X005022Y002624D02*
X004884Y002624D01*
X004756Y002571D01*
X004658Y002473D01*
X004605Y002345D01*
X004605Y002207D01*
X004658Y002079D01*
X004756Y001981D01*
X004884Y001928D01*
X005022Y001928D01*
X005150Y001981D01*
X005248Y002079D01*
X005301Y002207D01*
X005301Y002345D01*
X005248Y002473D01*
X005150Y002571D01*
X005022Y002624D01*
X004856Y002613D02*
X002363Y002613D01*
X002421Y002671D02*
X002490Y002836D01*
X002490Y003015D01*
X002421Y003180D01*
X002295Y003307D01*
X002129Y003376D01*
X001950Y003376D01*
X001785Y003307D01*
X001658Y003180D01*
X001590Y003015D01*
X001590Y002836D01*
X001658Y002671D01*
X001785Y002544D01*
X001950Y002476D01*
X002129Y002476D01*
X002295Y002544D01*
X002421Y002671D01*
X002438Y002711D02*
X010618Y002711D01*
X010577Y002810D02*
X002479Y002810D01*
X002490Y002908D02*
X010566Y002908D01*
X010566Y003007D02*
X002490Y003007D01*
X002453Y003105D02*
X010603Y003105D01*
X010658Y003204D02*
X002398Y003204D01*
X002300Y003302D02*
X010756Y003302D01*
X010870Y003499D02*
X002186Y003499D01*
X002348Y003598D02*
X010708Y003598D01*
X010624Y003696D02*
X002432Y003696D01*
X001780Y003302D02*
X000400Y003302D01*
X000400Y003204D02*
X001681Y003204D01*
X001627Y003105D02*
X000400Y003105D01*
X000400Y003007D02*
X001590Y003007D01*
X001590Y002908D02*
X000400Y002908D01*
X000400Y002810D02*
X001601Y002810D01*
X001642Y002711D02*
X000400Y002711D01*
X000400Y002613D02*
X001716Y002613D01*
X001858Y002514D02*
X000400Y002514D01*
X000400Y002416D02*
X004634Y002416D01*
X004605Y002317D02*
X002263Y002317D01*
X002276Y002310D02*
X002213Y002343D01*
X002145Y002365D01*
X002090Y002373D01*
X002090Y001976D01*
X002487Y001976D01*
X002479Y002031D01*
X002457Y002098D01*
X002425Y002161D01*
X002383Y002219D01*
X002333Y002269D01*
X002276Y002310D01*
X002383Y002219D02*
X004605Y002219D01*
X004641Y002120D02*
X002446Y002120D01*
X002480Y002022D02*
X004715Y002022D01*
X005191Y002022D02*
X007289Y002022D01*
X007137Y002120D02*
X005265Y002120D01*
X005301Y002219D02*
X007074Y002219D01*
X007046Y002317D02*
X005301Y002317D01*
X005272Y002416D02*
X007046Y002416D01*
X007083Y002514D02*
X005207Y002514D01*
X004699Y002514D02*
X002222Y002514D01*
X002090Y002317D02*
X001990Y002317D01*
X001990Y002219D02*
X002090Y002219D01*
X002090Y002120D02*
X001990Y002120D01*
X001990Y002022D02*
X002090Y002022D01*
X002090Y001726D02*
X001990Y001726D01*
X001990Y001628D02*
X002090Y001628D01*
X002090Y001529D02*
X001990Y001529D01*
X001599Y002022D02*
X000400Y002022D01*
X000400Y002120D02*
X001634Y002120D01*
X001696Y002219D02*
X000400Y002219D01*
X000400Y002317D02*
X001817Y002317D01*
X000400Y001332D02*
X012656Y001332D01*
X012656Y001234D02*
X000400Y001234D01*
X000400Y001135D02*
X012656Y001135D01*
X012656Y001037D02*
X000400Y001037D01*
X000400Y000938D02*
X012656Y000938D01*
X012656Y000840D02*
X000400Y000840D01*
X000400Y000741D02*
X012656Y000741D01*
X012656Y000643D02*
X000400Y000643D01*
X000400Y000544D02*
X012656Y000544D01*
X012656Y000446D02*
X000400Y000446D01*
X003721Y006060D02*
X005917Y006060D01*
X006194Y006060D02*
X006504Y006060D01*
X006443Y006159D02*
X003680Y006159D01*
X002454Y006750D02*
X008966Y006750D01*
X008936Y006651D02*
X002402Y006651D01*
X002490Y006848D02*
X009033Y006848D01*
X009195Y006947D02*
X002490Y006947D01*
X002279Y007538D02*
X009416Y007538D01*
X009782Y007538D02*
X010777Y007538D01*
X010669Y007636D02*
X002387Y007636D01*
X002448Y007735D02*
X010608Y007735D01*
X010567Y007833D02*
X002488Y007833D01*
X001837Y008523D02*
X000400Y008523D01*
X000400Y008621D02*
X001708Y008621D01*
X001638Y008720D02*
X000400Y008720D01*
X000400Y007242D02*
X001720Y007242D01*
X001643Y007144D02*
X000400Y007144D01*
X000400Y007045D02*
X001602Y007045D01*
X001590Y006947D02*
X000400Y006947D01*
X000400Y006848D02*
X001590Y006848D01*
X001626Y006750D02*
X000400Y006750D01*
X000400Y006651D02*
X001678Y006651D01*
X001776Y006553D02*
X000400Y006553D01*
X009801Y006947D02*
X010566Y006947D01*
X010579Y007045D02*
X009896Y007045D01*
X009937Y007144D02*
X010619Y007144D01*
X010696Y007242D02*
X009947Y007242D01*
X009933Y007341D02*
X010842Y007341D01*
X011190Y007341D02*
X012656Y007341D01*
X012656Y007439D02*
X009889Y007439D01*
X011255Y007538D02*
X012656Y007538D01*
X012656Y007636D02*
X011363Y007636D01*
X011424Y007735D02*
X012656Y007735D01*
X012656Y007833D02*
X011465Y007833D01*
X011466Y007932D02*
X012656Y007932D01*
X012656Y008030D02*
X011460Y008030D01*
X011419Y008129D02*
X012656Y008129D01*
X012656Y008227D02*
X011351Y008227D01*
X011336Y007242D02*
X012656Y007242D01*
X012656Y007144D02*
X011413Y007144D01*
X011454Y007045D02*
X012656Y007045D01*
X012656Y006947D02*
X011466Y006947D01*
X011466Y006848D02*
X012656Y006848D01*
X012656Y006750D02*
X011430Y006750D01*
X011378Y006651D02*
X012656Y006651D01*
X012656Y006553D02*
X011279Y006553D01*
X011321Y006257D02*
X012656Y006257D01*
X012656Y006159D02*
X011407Y006159D01*
X011448Y006060D02*
X012656Y006060D01*
X012656Y005962D02*
X011466Y005962D01*
X011466Y005863D02*
X012656Y005863D01*
X012656Y005765D02*
X011436Y005765D01*
X011393Y005666D02*
X012656Y005666D01*
X012656Y005568D02*
X011294Y005568D01*
X011306Y005272D02*
X012656Y005272D01*
X012656Y005174D02*
X011401Y005174D01*
X011441Y005075D02*
X012656Y005075D01*
X012656Y004977D02*
X011466Y004977D01*
X011466Y004878D02*
X012656Y004878D01*
X012656Y004780D02*
X011443Y004780D01*
X011402Y004681D02*
X012656Y004681D01*
X012656Y004583D02*
X011309Y004583D01*
X011291Y004287D02*
X012656Y004287D01*
X012656Y004189D02*
X011390Y004189D01*
X011435Y004090D02*
X012656Y004090D01*
X012656Y003992D02*
X011466Y003992D01*
X011466Y003893D02*
X012656Y003893D01*
X012656Y003795D02*
X011449Y003795D01*
X011408Y003696D02*
X012656Y003696D01*
X012656Y003598D02*
X011324Y003598D01*
X011239Y002317D02*
X012656Y002317D01*
X012656Y002219D02*
X011360Y002219D01*
X011422Y002120D02*
X012656Y002120D01*
X012656Y002022D02*
X011457Y002022D01*
M02*
