%
M48
M72
T01C0.0236
T02C0.0400
%
T01
X4953Y2276
X4953Y2827
X5898Y4166
X6843Y4166
X7394Y5347
X7394Y6213
X6764Y6292
X6056Y5741
X5347Y5583
X4087Y5977
X3378Y5977
X4874Y7630
X5426Y8890
X5819Y9441
X5819Y10229
X7158Y10150
X7158Y8260
X8339Y7788
X9284Y6607
X9599Y7237
X9678Y8339
X9914Y10071
X4244Y10150
X7945Y2670
X7394Y2355
T02
X2040Y1926
X2040Y2926
X2040Y3926
X2040Y4926
X2040Y5926
X2040Y6926
X2040Y7926
X2040Y8926
X11016Y8926
X11016Y7926
X11016Y6926
X11016Y5926
X11016Y4926
X11016Y3926
X11016Y2926
X11016Y1926
M30
