G75*
G70*
%OFA0B0*%
%FSLAX24Y24*%
%IPPOS*%
%LPD*%
%AMOC8*
5,1,8,0,0,1.08239X$1,22.5*
%
%ADD10C,0.0660*%
%ADD11C,0.0456*%
D10*
X001740Y001926D02*
X002340Y001926D01*
X002340Y002926D02*
X001740Y002926D01*
X001740Y003926D02*
X002340Y003926D01*
X002340Y004926D02*
X001740Y004926D01*
X001740Y005926D02*
X002340Y005926D01*
X002340Y006926D02*
X001740Y006926D01*
X001740Y007926D02*
X002340Y007926D01*
X002340Y008926D02*
X001740Y008926D01*
X010716Y008926D02*
X011316Y008926D01*
X011316Y007926D02*
X010716Y007926D01*
X010716Y006926D02*
X011316Y006926D01*
X011316Y005926D02*
X010716Y005926D01*
X010716Y004926D02*
X011316Y004926D01*
X011316Y003926D02*
X010716Y003926D01*
X010716Y002926D02*
X011316Y002926D01*
X011316Y001926D02*
X010716Y001926D01*
D11*
X007945Y002670D03*
X007394Y002355D03*
X006843Y004166D03*
X005898Y004166D03*
X004953Y002827D03*
X004953Y002276D03*
X007394Y005347D03*
X007394Y006213D03*
X006764Y006292D03*
X006056Y005741D03*
X005347Y005583D03*
X004087Y005977D03*
X003378Y005977D03*
X004874Y007630D03*
X005426Y008890D03*
X005819Y009441D03*
X005819Y010229D03*
X007158Y010150D03*
X007158Y008260D03*
X008339Y007788D03*
X009284Y006607D03*
X009599Y007237D03*
X009678Y008339D03*
X009914Y010071D03*
X004244Y010150D03*
M02*
