G75*
G70*
%OFA0B0*%
%FSLAX24Y24*%
%IPPOS*%
%LPD*%
%AMOC8*
5,1,8,0,0,1.08239X$1,22.5*
%
%ADD10R,0.0450X0.0100*%
%ADD11R,0.0100X0.0450*%
%ADD12R,0.0394X0.0433*%
%ADD13R,0.0433X0.0394*%
%ADD14R,0.0630X0.0984*%
%ADD15R,0.0669X0.0945*%
D10*
X004705Y004099D03*
X004705Y004296D03*
X004705Y004493D03*
X004705Y004689D03*
X004705Y004886D03*
X004705Y005083D03*
X004705Y005280D03*
X004705Y005477D03*
X004705Y005674D03*
X004705Y005870D03*
X004705Y006067D03*
X004705Y006264D03*
X008052Y006264D03*
X008052Y006067D03*
X008052Y005870D03*
X008052Y005674D03*
X008052Y005477D03*
X008052Y005280D03*
X008052Y005083D03*
X008052Y004886D03*
X008052Y004689D03*
X008052Y004493D03*
X008052Y004296D03*
X008052Y004099D03*
D11*
X007461Y003508D03*
X007264Y003508D03*
X007067Y003508D03*
X006870Y003508D03*
X006674Y003508D03*
X006477Y003508D03*
X006280Y003508D03*
X006083Y003508D03*
X005886Y003508D03*
X005689Y003508D03*
X005493Y003508D03*
X005296Y003508D03*
X005296Y006855D03*
X005493Y006855D03*
X005689Y006855D03*
X005886Y006855D03*
X006083Y006855D03*
X006280Y006855D03*
X006477Y006855D03*
X006674Y006855D03*
X006870Y006855D03*
X007067Y006855D03*
X007264Y006855D03*
X007461Y006855D03*
D12*
X003394Y004221D03*
X003394Y004831D03*
X003402Y005437D03*
X004111Y005437D03*
X004103Y004831D03*
X004103Y004221D03*
X004122Y006524D03*
X003414Y006524D03*
X006032Y007705D03*
X006741Y007705D03*
X008276Y007229D03*
X008985Y007229D03*
X009307Y006079D03*
X009307Y005508D03*
X008599Y005508D03*
X008599Y006079D03*
X006414Y001670D03*
X005705Y001670D03*
D13*
X005489Y002260D03*
X005489Y002969D03*
X004662Y001741D03*
X004662Y001032D03*
X006705Y002260D03*
X006705Y002969D03*
X007437Y001741D03*
X007437Y001032D03*
X005426Y007685D03*
X005426Y008394D03*
X004811Y008166D03*
X004811Y008874D03*
X004804Y009457D03*
X004804Y010166D03*
X006382Y010244D03*
X006382Y009536D03*
X006378Y008953D03*
X006378Y008244D03*
X007721Y008166D03*
X007721Y008874D03*
X007721Y009457D03*
X007721Y010166D03*
D14*
X009016Y010107D03*
X009016Y008729D03*
X008693Y002280D03*
X008693Y000902D03*
D15*
X006784Y000859D03*
X005327Y000859D03*
M02*
