G75*
G70*
%OFA0B0*%
%FSLAX24Y24*%
%IPPOS*%
%LPD*%
%AMOC8*
5,1,8,0,0,1.08239X$1,22.5*
%
%ADD10R,0.0510X0.0160*%
%ADD11R,0.0160X0.0510*%
%ADD12R,0.0454X0.0493*%
%ADD13R,0.0493X0.0454*%
%ADD14R,0.0690X0.1044*%
%ADD15R,0.0729X0.1005*%
%ADD16C,0.0660*%
%ADD17C,0.0456*%
D10*
X004705Y004099D03*
X004705Y004296D03*
X004705Y004493D03*
X004705Y004689D03*
X004705Y004886D03*
X004705Y005083D03*
X004705Y005280D03*
X004705Y005477D03*
X004705Y005674D03*
X004705Y005870D03*
X004705Y006067D03*
X004705Y006264D03*
X008052Y006264D03*
X008052Y006067D03*
X008052Y005870D03*
X008052Y005674D03*
X008052Y005477D03*
X008052Y005280D03*
X008052Y005083D03*
X008052Y004886D03*
X008052Y004689D03*
X008052Y004493D03*
X008052Y004296D03*
X008052Y004099D03*
D11*
X007461Y003508D03*
X007264Y003508D03*
X007067Y003508D03*
X006870Y003508D03*
X006674Y003508D03*
X006477Y003508D03*
X006280Y003508D03*
X006083Y003508D03*
X005886Y003508D03*
X005689Y003508D03*
X005493Y003508D03*
X005296Y003508D03*
X005296Y006855D03*
X005493Y006855D03*
X005689Y006855D03*
X005886Y006855D03*
X006083Y006855D03*
X006280Y006855D03*
X006477Y006855D03*
X006674Y006855D03*
X006870Y006855D03*
X007067Y006855D03*
X007264Y006855D03*
X007461Y006855D03*
D12*
X006741Y007705D03*
X006032Y007705D03*
X004122Y006524D03*
X003414Y006524D03*
X003402Y005437D03*
X003394Y004831D03*
X003394Y004221D03*
X004103Y004221D03*
X004103Y004831D03*
X004111Y005437D03*
X005705Y001670D03*
X006414Y001670D03*
X008599Y005508D03*
X008599Y006079D03*
X009307Y006079D03*
X009307Y005508D03*
X008985Y007229D03*
X008276Y007229D03*
D13*
X007721Y008166D03*
X007721Y008874D03*
X007721Y009457D03*
X007721Y010166D03*
X006382Y010244D03*
X006382Y009536D03*
X006378Y008953D03*
X006378Y008244D03*
X005426Y008394D03*
X004811Y008166D03*
X004811Y008874D03*
X004804Y009457D03*
X004804Y010166D03*
X005426Y007685D03*
X005489Y002969D03*
X005489Y002260D03*
X004662Y001741D03*
X004662Y001032D03*
X006705Y002260D03*
X006705Y002969D03*
X007437Y001741D03*
X007437Y001032D03*
D14*
X008693Y000902D03*
X008693Y002280D03*
X009016Y008729D03*
X009016Y010107D03*
D15*
X006784Y000859D03*
X005327Y000859D03*
D16*
X002340Y001926D02*
X001740Y001926D01*
X001740Y002926D02*
X002340Y002926D01*
X002340Y003926D02*
X001740Y003926D01*
X001740Y004926D02*
X002340Y004926D01*
X002340Y005926D02*
X001740Y005926D01*
X001740Y006926D02*
X002340Y006926D01*
X002340Y007926D02*
X001740Y007926D01*
X001740Y008926D02*
X002340Y008926D01*
X010716Y008926D02*
X011316Y008926D01*
X011316Y007926D02*
X010716Y007926D01*
X010716Y006926D02*
X011316Y006926D01*
X011316Y005926D02*
X010716Y005926D01*
X010716Y004926D02*
X011316Y004926D01*
X011316Y003926D02*
X010716Y003926D01*
X010716Y002926D02*
X011316Y002926D01*
X011316Y001926D02*
X010716Y001926D01*
D17*
X007945Y002670D03*
X007394Y002355D03*
X006843Y004166D03*
X005898Y004166D03*
X004953Y002827D03*
X004953Y002276D03*
X007394Y005347D03*
X007394Y006213D03*
X006764Y006292D03*
X006056Y005741D03*
X005347Y005583D03*
X004087Y005977D03*
X003378Y005977D03*
X004874Y007630D03*
X005426Y008890D03*
X005819Y009441D03*
X005819Y010229D03*
X007158Y010150D03*
X007158Y008260D03*
X008339Y007788D03*
X009284Y006607D03*
X009599Y007237D03*
X009678Y008339D03*
X009914Y010071D03*
X004244Y010150D03*
M02*
