G75*
G70*
%OFA0B0*%
%FSLAX24Y24*%
%IPPOS*%
%LPD*%
%AMOC8*
5,1,8,0,0,1.08239X$1,22.5*
%
%ADD10C,0.0600*%
%ADD11C,0.0396*%
%ADD12C,0.0100*%
D10*
X002040Y001926D03*
X002040Y002926D03*
X002040Y003926D03*
X002040Y004926D03*
X002040Y005926D03*
X002040Y006926D03*
X002040Y007926D03*
X002040Y008926D03*
X011016Y008926D03*
X011016Y007926D03*
X011016Y006926D03*
X011016Y005926D03*
X011016Y004926D03*
X011016Y003926D03*
X011016Y002926D03*
X011016Y001926D03*
D11*
X007945Y002670D03*
X007394Y002355D03*
X006843Y004166D03*
X005898Y004166D03*
X004953Y002827D03*
X004953Y002276D03*
X007394Y005347D03*
X007394Y006213D03*
X006764Y006292D03*
X006056Y005741D03*
X005347Y005583D03*
X004087Y005977D03*
X003378Y005977D03*
X004874Y007630D03*
X005426Y008890D03*
X005819Y009441D03*
X005819Y010229D03*
X007158Y010150D03*
X007158Y008260D03*
X008339Y007788D03*
X009284Y006607D03*
X009599Y007237D03*
X009678Y008339D03*
X009914Y010071D03*
X004244Y010150D03*
D12*
X000400Y010609D02*
X000400Y000400D01*
X012656Y000400D01*
X012656Y010609D01*
X000400Y010609D01*
X000400Y010591D02*
X012656Y010591D01*
X012656Y010493D02*
X000400Y010493D01*
X000400Y010394D02*
X012656Y010394D01*
X012656Y010296D02*
X000400Y010296D01*
X000400Y010197D02*
X012656Y010197D01*
X012656Y010099D02*
X000400Y010099D01*
X000400Y010000D02*
X012656Y010000D01*
X012656Y009902D02*
X000400Y009902D01*
X000400Y009803D02*
X012656Y009803D01*
X012656Y009705D02*
X006048Y009705D01*
X006016Y009736D02*
X006114Y009639D01*
X006167Y009511D01*
X006167Y009372D01*
X006114Y009244D01*
X006016Y009146D01*
X005889Y009093D01*
X005750Y009093D01*
X005622Y009146D01*
X005524Y009244D01*
X005471Y009372D01*
X005471Y009511D01*
X005524Y009639D01*
X005622Y009736D01*
X005750Y009789D01*
X005889Y009789D01*
X006016Y009736D01*
X006128Y009606D02*
X012656Y009606D01*
X012656Y009508D02*
X006167Y009508D01*
X006167Y009409D02*
X012656Y009409D01*
X012656Y009311D02*
X011252Y009311D01*
X011252Y009310D02*
X011189Y009343D01*
X011122Y009365D01*
X011066Y009373D01*
X011066Y008976D01*
X010966Y008976D01*
X010966Y009373D01*
X010911Y009365D01*
X010843Y009343D01*
X010780Y009310D01*
X010723Y009269D01*
X010673Y009219D01*
X010631Y009161D01*
X010599Y009098D01*
X010577Y009031D01*
X010568Y008976D01*
X010966Y008976D01*
X010966Y008876D01*
X010568Y008876D01*
X010577Y008820D01*
X010599Y008753D01*
X010631Y008690D01*
X010673Y008632D01*
X010723Y008582D01*
X010780Y008541D01*
X010843Y008509D01*
X010911Y008487D01*
X010966Y008478D01*
X010966Y008876D01*
X011066Y008876D01*
X011066Y008976D01*
X011464Y008976D01*
X011455Y009031D01*
X011433Y009098D01*
X011401Y009161D01*
X011359Y009219D01*
X011309Y009269D01*
X011252Y009310D01*
X011364Y009212D02*
X012656Y009212D01*
X012656Y009114D02*
X011425Y009114D01*
X011458Y009015D02*
X012656Y009015D01*
X012656Y008917D02*
X011066Y008917D01*
X011066Y008876D02*
X011464Y008876D01*
X011455Y008820D01*
X011433Y008753D01*
X011401Y008690D01*
X011359Y008632D01*
X011309Y008582D01*
X011252Y008541D01*
X011189Y008509D01*
X011122Y008487D01*
X011066Y008478D01*
X011066Y008876D01*
X011066Y008818D02*
X010966Y008818D01*
X010966Y008720D02*
X011066Y008720D01*
X011066Y008621D02*
X010966Y008621D01*
X010966Y008523D02*
X011066Y008523D01*
X011216Y008523D02*
X012656Y008523D01*
X012656Y008621D02*
X011348Y008621D01*
X011416Y008720D02*
X012656Y008720D01*
X012656Y008818D02*
X011454Y008818D01*
X011066Y009015D02*
X010966Y009015D01*
X010966Y008917D02*
X002090Y008917D01*
X002090Y008876D02*
X002090Y008976D01*
X001990Y008976D01*
X001990Y009373D01*
X001934Y009365D01*
X001867Y009343D01*
X001804Y009310D01*
X001747Y009269D01*
X001697Y009219D01*
X001655Y009161D01*
X001623Y009098D01*
X001601Y009031D01*
X001592Y008976D01*
X001990Y008976D01*
X001990Y008876D01*
X001592Y008876D01*
X001601Y008820D01*
X001623Y008753D01*
X001655Y008690D01*
X001697Y008632D01*
X001747Y008582D01*
X001804Y008541D01*
X001867Y008509D01*
X001934Y008487D01*
X001990Y008478D01*
X001990Y008876D01*
X002090Y008876D01*
X002487Y008876D01*
X002479Y008820D01*
X002457Y008753D01*
X002425Y008690D01*
X002383Y008632D01*
X002333Y008582D01*
X002276Y008541D01*
X002213Y008509D01*
X002145Y008487D01*
X002090Y008478D01*
X002090Y008876D01*
X002090Y008818D02*
X001990Y008818D01*
X001990Y008720D02*
X002090Y008720D01*
X002090Y008621D02*
X001990Y008621D01*
X001990Y008523D02*
X002090Y008523D01*
X002129Y008376D02*
X001950Y008376D01*
X001785Y008307D01*
X001658Y008180D01*
X001590Y008015D01*
X001590Y007836D01*
X001658Y007671D01*
X001785Y007544D01*
X001950Y007476D01*
X002129Y007476D01*
X002295Y007544D01*
X002421Y007671D01*
X002490Y007836D01*
X002490Y008015D01*
X002421Y008180D01*
X002295Y008307D01*
X002129Y008376D01*
X002250Y008326D02*
X006810Y008326D01*
X006810Y008329D02*
X006810Y008191D01*
X006863Y008063D01*
X006961Y007965D01*
X007089Y007912D01*
X007227Y007912D01*
X007355Y007965D01*
X007453Y008063D01*
X007506Y008191D01*
X007506Y008329D01*
X007453Y008457D01*
X007355Y008555D01*
X007227Y008608D01*
X007089Y008608D01*
X006961Y008555D01*
X006863Y008457D01*
X006810Y008329D01*
X006810Y008227D02*
X002375Y008227D01*
X002443Y008129D02*
X006836Y008129D01*
X006896Y008030D02*
X002484Y008030D01*
X002490Y007932D02*
X004692Y007932D01*
X004677Y007925D02*
X004579Y007828D01*
X004526Y007700D01*
X004526Y007561D01*
X004579Y007433D01*
X004677Y007335D01*
X004805Y007282D01*
X004944Y007282D01*
X005072Y007335D01*
X005170Y007433D01*
X005223Y007561D01*
X005223Y007700D01*
X005170Y007828D01*
X005072Y007925D01*
X004944Y007978D01*
X004805Y007978D01*
X004677Y007925D01*
X004585Y007833D02*
X002488Y007833D01*
X002448Y007735D02*
X004541Y007735D01*
X004526Y007636D02*
X002387Y007636D01*
X002279Y007538D02*
X004536Y007538D01*
X004577Y007439D02*
X000400Y007439D01*
X000400Y007341D02*
X001866Y007341D01*
X001785Y007307D02*
X001950Y007376D01*
X002129Y007376D01*
X002295Y007307D01*
X002421Y007180D01*
X002490Y007015D01*
X002490Y006836D01*
X002421Y006671D01*
X002295Y006544D01*
X002129Y006476D01*
X001950Y006476D01*
X001785Y006544D01*
X001658Y006671D01*
X001590Y006836D01*
X001590Y007015D01*
X001658Y007180D01*
X001785Y007307D01*
X001720Y007242D02*
X000400Y007242D01*
X000400Y007144D02*
X001643Y007144D01*
X001602Y007045D02*
X000400Y007045D01*
X000400Y006947D02*
X001590Y006947D01*
X001590Y006848D02*
X000400Y006848D01*
X000400Y006750D02*
X001626Y006750D01*
X001678Y006651D02*
X000400Y006651D01*
X000400Y006553D02*
X001776Y006553D01*
X001902Y006356D02*
X000400Y006356D01*
X000400Y006454D02*
X012656Y006454D01*
X012656Y006356D02*
X011154Y006356D01*
X011106Y006376D02*
X011271Y006307D01*
X011398Y006180D01*
X011466Y006015D01*
X011466Y005836D01*
X011398Y005671D01*
X011271Y005544D01*
X011106Y005476D01*
X010927Y005476D01*
X010761Y005544D01*
X010635Y005671D01*
X010566Y005836D01*
X010566Y006015D01*
X010635Y006180D01*
X010761Y006307D01*
X010927Y006376D01*
X011106Y006376D01*
X011106Y006476D02*
X010927Y006476D01*
X010761Y006544D01*
X010635Y006671D01*
X010566Y006836D01*
X010566Y007015D01*
X010635Y007180D01*
X010761Y007307D01*
X010927Y007376D01*
X011106Y007376D01*
X011271Y007307D01*
X011398Y007180D01*
X011466Y007015D01*
X011466Y006836D01*
X011398Y006671D01*
X011271Y006544D01*
X011106Y006476D01*
X011279Y006553D02*
X012656Y006553D01*
X012656Y006651D02*
X011378Y006651D01*
X011430Y006750D02*
X012656Y006750D01*
X012656Y006848D02*
X011466Y006848D01*
X011466Y006947D02*
X012656Y006947D01*
X012656Y007045D02*
X011454Y007045D01*
X011413Y007144D02*
X012656Y007144D01*
X012656Y007242D02*
X011336Y007242D01*
X011190Y007341D02*
X012656Y007341D01*
X012656Y007439D02*
X005172Y007439D01*
X005213Y007538D02*
X008097Y007538D01*
X008142Y007493D02*
X008044Y007591D01*
X007991Y007719D01*
X007991Y007857D01*
X008044Y007985D01*
X008142Y008083D01*
X008270Y008136D01*
X008408Y008136D01*
X008536Y008083D01*
X008634Y007985D01*
X008687Y007857D01*
X008687Y007719D01*
X008634Y007591D01*
X008536Y007493D01*
X008408Y007440D01*
X008270Y007440D01*
X008142Y007493D01*
X008025Y007636D02*
X005223Y007636D01*
X005208Y007735D02*
X007991Y007735D01*
X007991Y007833D02*
X005164Y007833D01*
X005057Y007932D02*
X007042Y007932D01*
X007274Y007932D02*
X008022Y007932D01*
X008089Y008030D02*
X007420Y008030D01*
X007480Y008129D02*
X008252Y008129D01*
X008426Y008129D02*
X009396Y008129D01*
X009382Y008142D02*
X009480Y008044D01*
X009608Y007991D01*
X009747Y007991D01*
X009875Y008044D01*
X009973Y008142D01*
X010026Y008270D01*
X010026Y008408D01*
X009973Y008536D01*
X009875Y008634D01*
X009747Y008687D01*
X009608Y008687D01*
X009480Y008634D01*
X009382Y008536D01*
X009329Y008408D01*
X009329Y008270D01*
X009382Y008142D01*
X009347Y008227D02*
X007506Y008227D01*
X007506Y008326D02*
X009329Y008326D01*
X009336Y008424D02*
X007467Y008424D01*
X007388Y008523D02*
X009377Y008523D01*
X009467Y008621D02*
X002372Y008621D01*
X002440Y008720D02*
X010616Y008720D01*
X010578Y008818D02*
X002478Y008818D01*
X002487Y008976D02*
X002479Y009031D01*
X002457Y009098D01*
X002425Y009161D01*
X002383Y009219D01*
X002333Y009269D01*
X002276Y009310D01*
X002213Y009343D01*
X002145Y009365D01*
X002090Y009373D01*
X002090Y008976D01*
X002487Y008976D01*
X002481Y009015D02*
X010575Y009015D01*
X010607Y009114D02*
X005938Y009114D01*
X006082Y009212D02*
X010668Y009212D01*
X010780Y009311D02*
X006142Y009311D01*
X005701Y009114D02*
X002449Y009114D01*
X002388Y009212D02*
X005556Y009212D01*
X005497Y009311D02*
X002275Y009311D01*
X002090Y009311D02*
X001990Y009311D01*
X001990Y009212D02*
X002090Y009212D01*
X002090Y009114D02*
X001990Y009114D01*
X001990Y009015D02*
X002090Y009015D01*
X001990Y008917D02*
X000400Y008917D01*
X000400Y009015D02*
X001598Y009015D01*
X001630Y009114D02*
X000400Y009114D01*
X000400Y009212D02*
X001692Y009212D01*
X001804Y009311D02*
X000400Y009311D01*
X000400Y009409D02*
X005471Y009409D01*
X005471Y009508D02*
X000400Y009508D01*
X000400Y009606D02*
X005511Y009606D01*
X005590Y009705D02*
X000400Y009705D01*
X000400Y008818D02*
X001602Y008818D01*
X001640Y008720D02*
X000400Y008720D01*
X000400Y008621D02*
X001708Y008621D01*
X001840Y008523D02*
X000400Y008523D01*
X000400Y008424D02*
X006849Y008424D01*
X006928Y008523D02*
X002240Y008523D01*
X001829Y008326D02*
X000400Y008326D01*
X000400Y008227D02*
X001705Y008227D01*
X001637Y008129D02*
X000400Y008129D01*
X000400Y008030D02*
X001596Y008030D01*
X001590Y007932D02*
X000400Y007932D01*
X000400Y007833D02*
X001591Y007833D01*
X001632Y007735D02*
X000400Y007735D01*
X000400Y007636D02*
X001693Y007636D01*
X001801Y007538D02*
X000400Y007538D01*
X000400Y006257D02*
X001735Y006257D01*
X001785Y006307D02*
X001658Y006180D01*
X001590Y006015D01*
X001590Y005836D01*
X001658Y005671D01*
X001785Y005544D01*
X001950Y005476D01*
X002129Y005476D01*
X002295Y005544D01*
X002421Y005671D01*
X002490Y005836D01*
X002490Y006015D01*
X002421Y006180D01*
X002295Y006307D01*
X002129Y006376D01*
X001950Y006376D01*
X001785Y006307D01*
X001649Y006159D02*
X000400Y006159D01*
X000400Y006060D02*
X001608Y006060D01*
X001590Y005962D02*
X000400Y005962D01*
X000400Y005863D02*
X001590Y005863D01*
X001619Y005765D02*
X000400Y005765D01*
X000400Y005666D02*
X001663Y005666D01*
X001761Y005568D02*
X000400Y005568D01*
X000400Y005469D02*
X007068Y005469D01*
X007046Y005416D02*
X007046Y005278D01*
X007099Y005150D01*
X007197Y005052D01*
X007325Y004999D01*
X007463Y004999D01*
X007591Y005052D01*
X007689Y005150D01*
X007742Y005278D01*
X007742Y005416D01*
X007689Y005544D01*
X007591Y005642D01*
X007463Y005695D01*
X007325Y005695D01*
X007197Y005642D01*
X007099Y005544D01*
X007046Y005416D01*
X007046Y005371D02*
X002107Y005371D01*
X002090Y005371D02*
X001990Y005371D01*
X001990Y005373D02*
X001934Y005365D01*
X001867Y005343D01*
X001804Y005310D01*
X001747Y005269D01*
X001697Y005219D01*
X001655Y005161D01*
X001623Y005098D01*
X001601Y005031D01*
X001592Y004976D01*
X001990Y004976D01*
X001990Y005373D01*
X001972Y005371D02*
X000400Y005371D01*
X000400Y005272D02*
X001751Y005272D01*
X001664Y005174D02*
X000400Y005174D01*
X000400Y005075D02*
X001615Y005075D01*
X001592Y004977D02*
X000400Y004977D01*
X000400Y004878D02*
X001990Y004878D01*
X001990Y004876D02*
X001592Y004876D01*
X001601Y004820D01*
X001623Y004753D01*
X001655Y004690D01*
X001697Y004632D01*
X001747Y004582D01*
X001804Y004541D01*
X001867Y004509D01*
X001934Y004487D01*
X001990Y004478D01*
X001990Y004876D01*
X001990Y004976D01*
X002090Y004976D01*
X002090Y005373D01*
X002145Y005365D01*
X002213Y005343D01*
X002276Y005310D01*
X002333Y005269D01*
X002383Y005219D01*
X002425Y005161D01*
X002457Y005098D01*
X002479Y005031D01*
X002487Y004976D01*
X002487Y004977D02*
X010569Y004977D01*
X010568Y004976D02*
X010966Y004976D01*
X010966Y005373D01*
X010911Y005365D01*
X010843Y005343D01*
X010780Y005310D01*
X010723Y005269D01*
X010673Y005219D01*
X010631Y005161D01*
X010599Y005098D01*
X010577Y005031D01*
X010568Y004976D01*
X010568Y004876D02*
X010577Y004820D01*
X010599Y004753D01*
X010631Y004690D01*
X010673Y004632D01*
X010723Y004582D01*
X010780Y004541D01*
X010843Y004509D01*
X010911Y004487D01*
X010966Y004478D01*
X010966Y004876D01*
X010568Y004876D01*
X010590Y004780D02*
X002465Y004780D01*
X002457Y004753D02*
X002479Y004820D01*
X002487Y004876D01*
X002090Y004876D01*
X002090Y004976D01*
X002487Y004976D01*
X002464Y005075D02*
X007174Y005075D01*
X007089Y005174D02*
X002416Y005174D01*
X002329Y005272D02*
X007048Y005272D01*
X007122Y005568D02*
X002318Y005568D01*
X002417Y005666D02*
X003928Y005666D01*
X003890Y005682D02*
X004018Y005629D01*
X004156Y005629D01*
X004284Y005682D01*
X004382Y005780D01*
X004435Y005908D01*
X004435Y006046D01*
X004382Y006174D01*
X004284Y006272D01*
X004156Y006325D01*
X004018Y006325D01*
X003890Y006272D01*
X003792Y006174D01*
X003739Y006046D01*
X003739Y005908D01*
X003792Y005780D01*
X003890Y005682D01*
X003807Y005765D02*
X002460Y005765D01*
X002490Y005863D02*
X003757Y005863D01*
X003739Y005962D02*
X002490Y005962D01*
X002471Y006060D02*
X003745Y006060D01*
X003785Y006159D02*
X002430Y006159D01*
X002345Y006257D02*
X003875Y006257D01*
X004299Y006257D02*
X010711Y006257D01*
X010626Y006159D02*
X004389Y006159D01*
X004429Y006060D02*
X010585Y006060D01*
X010566Y005962D02*
X004435Y005962D01*
X004417Y005863D02*
X010566Y005863D01*
X010596Y005765D02*
X004367Y005765D01*
X004246Y005666D02*
X007255Y005666D01*
X007533Y005666D02*
X010639Y005666D01*
X010738Y005568D02*
X007666Y005568D01*
X007720Y005469D02*
X012656Y005469D01*
X012656Y005371D02*
X011084Y005371D01*
X011066Y005371D02*
X010966Y005371D01*
X010949Y005371D02*
X007742Y005371D01*
X007740Y005272D02*
X010727Y005272D01*
X010640Y005174D02*
X007699Y005174D01*
X007615Y005075D02*
X010592Y005075D01*
X010966Y005075D02*
X011066Y005075D01*
X011066Y004977D02*
X010966Y004977D01*
X010966Y004976D02*
X011066Y004976D01*
X011066Y005373D01*
X011122Y005365D01*
X011189Y005343D01*
X011252Y005310D01*
X011309Y005269D01*
X011359Y005219D01*
X011401Y005161D01*
X011433Y005098D01*
X011455Y005031D01*
X011464Y004976D01*
X011066Y004976D01*
X011066Y004876D01*
X011464Y004876D01*
X011455Y004820D01*
X011433Y004753D01*
X011401Y004690D01*
X011359Y004632D01*
X011309Y004582D01*
X011252Y004541D01*
X011189Y004509D01*
X011122Y004487D01*
X011066Y004478D01*
X011066Y004876D01*
X010966Y004876D01*
X010966Y004976D01*
X010966Y004878D02*
X002090Y004878D01*
X002090Y004876D02*
X002090Y004478D01*
X002145Y004487D01*
X002213Y004509D01*
X002276Y004541D01*
X002333Y004582D01*
X002383Y004632D01*
X002425Y004690D01*
X002457Y004753D01*
X002418Y004681D02*
X010638Y004681D01*
X010723Y004583D02*
X002333Y004583D01*
X002128Y004484D02*
X010928Y004484D01*
X010966Y004484D02*
X011066Y004484D01*
X011105Y004484D02*
X012656Y004484D01*
X012656Y004386D02*
X000400Y004386D01*
X000400Y004484D02*
X001951Y004484D01*
X001990Y004484D02*
X002090Y004484D01*
X002090Y004583D02*
X001990Y004583D01*
X001990Y004681D02*
X002090Y004681D01*
X002090Y004780D02*
X001990Y004780D01*
X001990Y004876D02*
X002090Y004876D01*
X002090Y004977D02*
X001990Y004977D01*
X001990Y005075D02*
X002090Y005075D01*
X002090Y005174D02*
X001990Y005174D01*
X001990Y005272D02*
X002090Y005272D01*
X001614Y004780D02*
X000400Y004780D01*
X000400Y004681D02*
X001661Y004681D01*
X001746Y004583D02*
X000400Y004583D01*
X000400Y004287D02*
X001765Y004287D01*
X001785Y004307D02*
X001658Y004180D01*
X001590Y004015D01*
X001590Y003836D01*
X001658Y003671D01*
X001785Y003544D01*
X001950Y003476D01*
X002129Y003476D01*
X002295Y003544D01*
X002421Y003671D01*
X002490Y003836D01*
X002490Y004015D01*
X002421Y004180D01*
X002295Y004307D01*
X002129Y004376D01*
X001950Y004376D01*
X001785Y004307D01*
X001666Y004189D02*
X000400Y004189D01*
X000400Y004090D02*
X001621Y004090D01*
X001590Y003992D02*
X000400Y003992D01*
X000400Y003893D02*
X001590Y003893D01*
X001607Y003795D02*
X000400Y003795D01*
X000400Y003696D02*
X001648Y003696D01*
X001731Y003598D02*
X000400Y003598D01*
X000400Y003499D02*
X001894Y003499D01*
X001950Y003376D02*
X001785Y003307D01*
X001658Y003180D01*
X001590Y003015D01*
X001590Y002836D01*
X001658Y002671D01*
X001785Y002544D01*
X001950Y002476D01*
X002129Y002476D01*
X002295Y002544D01*
X002421Y002671D01*
X002490Y002836D01*
X002490Y003015D01*
X002421Y003180D01*
X002295Y003307D01*
X002129Y003376D01*
X001950Y003376D01*
X001780Y003302D02*
X000400Y003302D01*
X000400Y003204D02*
X001681Y003204D01*
X001627Y003105D02*
X000400Y003105D01*
X000400Y003007D02*
X001590Y003007D01*
X001590Y002908D02*
X000400Y002908D01*
X000400Y002810D02*
X001601Y002810D01*
X001642Y002711D02*
X000400Y002711D01*
X000400Y002613D02*
X001716Y002613D01*
X001858Y002514D02*
X000400Y002514D01*
X000400Y002416D02*
X007707Y002416D01*
X007748Y002375D02*
X007650Y002472D01*
X007597Y002600D01*
X007597Y002739D01*
X007650Y002867D01*
X007748Y002965D01*
X007876Y003018D01*
X008015Y003018D01*
X008142Y002965D01*
X008240Y002867D01*
X008293Y002739D01*
X008293Y002600D01*
X008240Y002472D01*
X008142Y002375D01*
X008015Y002322D01*
X007876Y002322D01*
X007748Y002375D01*
X007633Y002514D02*
X005107Y002514D01*
X005150Y002532D02*
X005022Y002479D01*
X004884Y002479D01*
X004756Y002532D01*
X004658Y002630D01*
X004605Y002758D01*
X004605Y002896D01*
X004658Y003024D01*
X004756Y003122D01*
X004884Y003175D01*
X005022Y003175D01*
X005150Y003122D01*
X005248Y003024D01*
X005301Y002896D01*
X005301Y002758D01*
X005248Y002630D01*
X005150Y002532D01*
X005231Y002613D02*
X007597Y002613D01*
X007597Y002711D02*
X005282Y002711D01*
X005301Y002810D02*
X007626Y002810D01*
X007691Y002908D02*
X005296Y002908D01*
X005256Y003007D02*
X007849Y003007D01*
X008042Y003007D02*
X010566Y003007D01*
X010566Y003015D02*
X010566Y002836D01*
X010635Y002671D01*
X010761Y002544D01*
X010927Y002476D01*
X011106Y002476D01*
X011271Y002544D01*
X011398Y002671D01*
X011466Y002836D01*
X011466Y003015D01*
X011398Y003180D01*
X011271Y003307D01*
X011106Y003376D01*
X010927Y003376D01*
X010761Y003307D01*
X010635Y003180D01*
X010566Y003015D01*
X010603Y003105D02*
X005168Y003105D01*
X004739Y003105D02*
X002453Y003105D01*
X002490Y003007D02*
X004651Y003007D01*
X004610Y002908D02*
X002490Y002908D01*
X002479Y002810D02*
X004605Y002810D01*
X004624Y002711D02*
X002438Y002711D01*
X002363Y002613D02*
X004676Y002613D01*
X004800Y002514D02*
X002222Y002514D01*
X002129Y002376D02*
X001950Y002376D01*
X001785Y002307D01*
X001658Y002180D01*
X001590Y002015D01*
X001590Y001836D01*
X001658Y001671D01*
X001785Y001544D01*
X001950Y001476D01*
X002129Y001476D01*
X002295Y001544D01*
X002421Y001671D01*
X002490Y001836D01*
X002490Y002015D01*
X002421Y002180D01*
X002295Y002307D01*
X002129Y002376D01*
X002271Y002317D02*
X010785Y002317D01*
X010761Y002307D02*
X010635Y002180D01*
X010566Y002015D01*
X010566Y001836D01*
X010635Y001671D01*
X010761Y001544D01*
X010927Y001476D01*
X011106Y001476D01*
X011271Y001544D01*
X011398Y001671D01*
X011466Y001836D01*
X011466Y002015D01*
X011398Y002180D01*
X011271Y002307D01*
X011106Y002376D01*
X010927Y002376D01*
X010761Y002307D01*
X010673Y002219D02*
X002383Y002219D01*
X002446Y002120D02*
X010610Y002120D01*
X010569Y002022D02*
X002487Y002022D01*
X002490Y001923D02*
X010566Y001923D01*
X010571Y001825D02*
X002485Y001825D01*
X002444Y001726D02*
X010612Y001726D01*
X010678Y001628D02*
X002378Y001628D01*
X002258Y001529D02*
X010798Y001529D01*
X011235Y001529D02*
X012656Y001529D01*
X012656Y001431D02*
X000400Y001431D01*
X000400Y001529D02*
X001821Y001529D01*
X001701Y001628D02*
X000400Y001628D01*
X000400Y001726D02*
X001635Y001726D01*
X001595Y001825D02*
X000400Y001825D01*
X000400Y001923D02*
X001590Y001923D01*
X001592Y002022D02*
X000400Y002022D01*
X000400Y002120D02*
X001633Y002120D01*
X001696Y002219D02*
X000400Y002219D01*
X000400Y002317D02*
X001809Y002317D01*
X002398Y003204D02*
X010658Y003204D01*
X010756Y003302D02*
X002300Y003302D01*
X002186Y003499D02*
X010870Y003499D01*
X010927Y003476D02*
X010761Y003544D01*
X010635Y003671D01*
X010566Y003836D01*
X010566Y004015D01*
X010635Y004180D01*
X010761Y004307D01*
X010927Y004376D01*
X011106Y004376D01*
X011271Y004307D01*
X011398Y004180D01*
X011466Y004015D01*
X011466Y003836D01*
X011398Y003671D01*
X011271Y003544D01*
X011106Y003476D01*
X010927Y003476D01*
X011162Y003499D02*
X012656Y003499D01*
X012656Y003401D02*
X000400Y003401D01*
X002348Y003598D02*
X010708Y003598D01*
X010624Y003696D02*
X002432Y003696D01*
X002473Y003795D02*
X010583Y003795D01*
X010566Y003893D02*
X002490Y003893D01*
X002490Y003992D02*
X010566Y003992D01*
X010597Y004090D02*
X002459Y004090D01*
X002413Y004189D02*
X010643Y004189D01*
X010741Y004287D02*
X002315Y004287D01*
X002178Y006356D02*
X010878Y006356D01*
X010753Y006553D02*
X002303Y006553D01*
X002402Y006651D02*
X010654Y006651D01*
X010602Y006750D02*
X002454Y006750D01*
X002490Y006848D02*
X010566Y006848D01*
X010566Y006947D02*
X002490Y006947D01*
X002477Y007045D02*
X010579Y007045D01*
X010619Y007144D02*
X002437Y007144D01*
X002360Y007242D02*
X010696Y007242D01*
X010842Y007341D02*
X005077Y007341D01*
X004672Y007341D02*
X002214Y007341D01*
X000400Y001332D02*
X012656Y001332D01*
X012656Y001234D02*
X000400Y001234D01*
X000400Y001135D02*
X012656Y001135D01*
X012656Y001037D02*
X000400Y001037D01*
X000400Y000938D02*
X012656Y000938D01*
X012656Y000840D02*
X000400Y000840D01*
X000400Y000741D02*
X012656Y000741D01*
X012656Y000643D02*
X000400Y000643D01*
X000400Y000544D02*
X012656Y000544D01*
X012656Y000446D02*
X000400Y000446D01*
X008183Y002416D02*
X012656Y002416D01*
X012656Y002514D02*
X011198Y002514D01*
X011339Y002613D02*
X012656Y002613D01*
X012656Y002711D02*
X011414Y002711D01*
X011455Y002810D02*
X012656Y002810D01*
X012656Y002908D02*
X011466Y002908D01*
X011466Y003007D02*
X012656Y003007D01*
X012656Y003105D02*
X011429Y003105D01*
X011375Y003204D02*
X012656Y003204D01*
X012656Y003302D02*
X011276Y003302D01*
X011324Y003598D02*
X012656Y003598D01*
X012656Y003696D02*
X011408Y003696D01*
X011449Y003795D02*
X012656Y003795D01*
X012656Y003893D02*
X011466Y003893D01*
X011466Y003992D02*
X012656Y003992D01*
X012656Y004090D02*
X011435Y004090D01*
X011390Y004189D02*
X012656Y004189D01*
X012656Y004287D02*
X011291Y004287D01*
X011309Y004583D02*
X012656Y004583D01*
X012656Y004681D02*
X011395Y004681D01*
X011442Y004780D02*
X012656Y004780D01*
X012656Y004878D02*
X011066Y004878D01*
X011066Y004780D02*
X010966Y004780D01*
X010966Y004681D02*
X011066Y004681D01*
X011066Y004583D02*
X010966Y004583D01*
X011464Y004977D02*
X012656Y004977D01*
X012656Y005075D02*
X011441Y005075D01*
X011392Y005174D02*
X012656Y005174D01*
X012656Y005272D02*
X011305Y005272D01*
X011066Y005272D02*
X010966Y005272D01*
X010966Y005174D02*
X011066Y005174D01*
X011294Y005568D02*
X012656Y005568D01*
X012656Y005666D02*
X011393Y005666D01*
X011436Y005765D02*
X012656Y005765D01*
X012656Y005863D02*
X011466Y005863D01*
X011466Y005962D02*
X012656Y005962D01*
X012656Y006060D02*
X011448Y006060D01*
X011407Y006159D02*
X012656Y006159D01*
X012656Y006257D02*
X011321Y006257D01*
X011106Y007476D02*
X010927Y007476D01*
X010761Y007544D01*
X010635Y007671D01*
X010566Y007836D01*
X010566Y008015D01*
X010635Y008180D01*
X010761Y008307D01*
X010927Y008376D01*
X011106Y008376D01*
X011271Y008307D01*
X011398Y008180D01*
X011466Y008015D01*
X011466Y007836D01*
X011398Y007671D01*
X011271Y007544D01*
X011106Y007476D01*
X011255Y007538D02*
X012656Y007538D01*
X012656Y007636D02*
X011363Y007636D01*
X011424Y007735D02*
X012656Y007735D01*
X012656Y007833D02*
X011465Y007833D01*
X011466Y007932D02*
X012656Y007932D01*
X012656Y008030D02*
X011460Y008030D01*
X011419Y008129D02*
X012656Y008129D01*
X012656Y008227D02*
X011351Y008227D01*
X011227Y008326D02*
X012656Y008326D01*
X012656Y008424D02*
X010019Y008424D01*
X010026Y008326D02*
X010806Y008326D01*
X010681Y008227D02*
X010008Y008227D01*
X009959Y008129D02*
X010613Y008129D01*
X010572Y008030D02*
X009841Y008030D01*
X009514Y008030D02*
X008589Y008030D01*
X008656Y007932D02*
X010566Y007932D01*
X010567Y007833D02*
X008687Y007833D01*
X008687Y007735D02*
X010608Y007735D01*
X010669Y007636D02*
X008653Y007636D01*
X008581Y007538D02*
X010777Y007538D01*
X010816Y008523D02*
X009978Y008523D01*
X009888Y008621D02*
X010684Y008621D01*
X010966Y009114D02*
X011066Y009114D01*
X011066Y009212D02*
X010966Y009212D01*
X010966Y009311D02*
X011066Y009311D01*
X010566Y002908D02*
X008199Y002908D01*
X008264Y002810D02*
X010577Y002810D01*
X010618Y002711D02*
X008293Y002711D01*
X008293Y002613D02*
X010693Y002613D01*
X010834Y002514D02*
X008258Y002514D01*
X011247Y002317D02*
X012656Y002317D01*
X012656Y002219D02*
X011360Y002219D01*
X011423Y002120D02*
X012656Y002120D01*
X012656Y002022D02*
X011463Y002022D01*
X011466Y001923D02*
X012656Y001923D01*
X012656Y001825D02*
X011461Y001825D01*
X011421Y001726D02*
X012656Y001726D01*
X012656Y001628D02*
X011354Y001628D01*
M02*
