G75*
G70*
%OFA0B0*%
%FSLAX24Y24*%
%IPPOS*%
%LPD*%
%AMOC8*
5,1,8,0,0,1.08239X$1,22.5*
%
%ADD10R,0.2265X0.0966*%
%ADD11R,0.1399X0.0611*%
%ADD12R,0.0729X0.0651*%
%ADD13R,0.1044X0.2619*%
%ADD14R,0.1635X0.0847*%
%ADD15R,0.3446X0.4273*%
%ADD16R,0.1399X0.0454*%
%ADD17R,0.1576X0.2225*%
%ADD18R,0.0847X0.1635*%
%ADD19R,0.0493X0.0454*%
%ADD20R,0.0375X0.0375*%
%ADD21R,0.0336X0.0532*%
%ADD22C,0.0660*%
%ADD23C,0.0456*%
D10*
X001857Y011054D03*
X001857Y014361D03*
D11*
X003097Y013180D03*
X003097Y012196D03*
D12*
X005786Y011649D03*
X005786Y013656D03*
X009330Y013656D03*
X009330Y011649D03*
D13*
X004121Y004042D03*
X011046Y004042D03*
X011046Y008963D03*
X004121Y008963D03*
D14*
X011991Y013168D03*
X014786Y013168D03*
D15*
X021267Y012511D03*
D16*
X017093Y012511D03*
X017093Y013180D03*
X017093Y013849D03*
X017093Y011841D03*
X017093Y011172D03*
D17*
X018839Y007184D03*
X022757Y007184D03*
D18*
X016211Y006873D03*
X016211Y009668D03*
D19*
X014747Y006834D03*
X014747Y006125D03*
D20*
X015337Y005987D03*
X015337Y005397D03*
D21*
X015928Y011656D03*
X015928Y013113D03*
D22*
X016149Y002055D02*
X016149Y001455D01*
X015149Y001455D02*
X015149Y002055D01*
X014149Y002055D02*
X014149Y001455D01*
X013149Y001455D02*
X013149Y002055D01*
X012149Y002055D02*
X012149Y001455D01*
X011149Y001455D02*
X011149Y002055D01*
X010149Y002055D02*
X010149Y001455D01*
X009149Y001455D02*
X009149Y002055D01*
X008149Y002055D02*
X008149Y001455D01*
D23*
X015337Y004944D03*
X016204Y005219D03*
X016204Y005731D03*
X016204Y004668D03*
X015337Y010141D03*
X018093Y012503D03*
X020062Y014078D03*
X020849Y013290D03*
X021637Y013290D03*
X022424Y014078D03*
X021637Y011715D03*
X020849Y011715D03*
X020062Y010928D03*
X022424Y010928D03*
X011400Y014078D03*
X010219Y013684D03*
X011007Y010534D03*
X004156Y010534D03*
M02*
