%
M48
M72
T01C0.0236
T02C0.0400
%
T01
X15337Y4944
X16204Y5219
X16204Y5731
X16204Y4668
X15337Y10141
X18093Y12503
X20062Y14078
X20849Y13290
X21637Y13290
X22424Y14078
X21637Y11715
X20849Y11715
X20062Y10928
X22424Y10928
X11400Y14078
X10219Y13684
X11007Y10534
X4156Y10534
T02
X8149Y1755
X9149Y1755
X10149Y1755
X11149Y1755
X12149Y1755
X13149Y1755
X14149Y1755
X15149Y1755
X16149Y1755
M30
