G75*
G70*
%OFA0B0*%
%FSLAX24Y24*%
%IPPOS*%
%LPD*%
%AMOC8*
5,1,8,0,0,1.08239X$1,22.5*
%
%ADD10R,0.2205X0.0906*%
%ADD11R,0.1339X0.0551*%
%ADD12R,0.0669X0.0591*%
%ADD13R,0.0984X0.2559*%
%ADD14R,0.1575X0.0787*%
%ADD15R,0.3386X0.4213*%
%ADD16R,0.1339X0.0394*%
%ADD17R,0.1516X0.2165*%
%ADD18R,0.0787X0.1575*%
%ADD19R,0.0433X0.0394*%
%ADD20R,0.0315X0.0315*%
%ADD21R,0.0276X0.0472*%
%ADD22C,0.0600*%
%ADD23C,0.0396*%
%ADD24C,0.0320*%
%ADD25C,0.0500*%
%ADD26C,0.0100*%
%ADD27C,0.0760*%
D10*
X001857Y011054D03*
X001857Y014361D03*
D11*
X003097Y013180D03*
X003097Y012196D03*
D12*
X005786Y011649D03*
X005786Y013656D03*
X009330Y013656D03*
X009330Y011649D03*
D13*
X011046Y008963D03*
X004121Y008963D03*
X004121Y004042D03*
X011046Y004042D03*
D14*
X011991Y013168D03*
X014786Y013168D03*
D15*
X021267Y012511D03*
D16*
X017093Y012511D03*
X017093Y013180D03*
X017093Y013849D03*
X017093Y011841D03*
X017093Y011172D03*
D17*
X018839Y007184D03*
X022757Y007184D03*
D18*
X016211Y006873D03*
X016211Y009668D03*
D19*
X014747Y006834D03*
X014747Y006125D03*
D20*
X015337Y005987D03*
X015337Y005397D03*
D21*
X015928Y011656D03*
X015928Y013113D03*
D22*
X016149Y002055D02*
X016149Y001455D01*
X015149Y001455D02*
X015149Y002055D01*
X014149Y002055D02*
X014149Y001455D01*
X013149Y001455D02*
X013149Y002055D01*
X012149Y002055D02*
X012149Y001455D01*
X011149Y001455D02*
X011149Y002055D01*
X010149Y002055D02*
X010149Y001455D01*
X009149Y001455D02*
X009149Y002055D01*
X008149Y002055D02*
X008149Y001455D01*
D23*
X015337Y004944D03*
X016204Y005219D03*
X016204Y005731D03*
X016204Y004668D03*
X015337Y010141D03*
X018093Y012503D03*
X020062Y014078D03*
X020849Y013290D03*
X021637Y013290D03*
X022424Y014078D03*
X021637Y011715D03*
X020849Y011715D03*
X020062Y010928D03*
X022424Y010928D03*
X011400Y014078D03*
X010219Y013684D03*
X011007Y010534D03*
X004156Y010534D03*
D24*
X014786Y013168D02*
X015467Y013849D01*
X017093Y013849D01*
X017093Y013180D02*
X015987Y013180D01*
X015928Y013121D01*
X015928Y013113D01*
X016054Y012511D02*
X015928Y012385D01*
X015928Y011656D01*
X015928Y011204D01*
X015967Y011164D01*
X017086Y011164D01*
X017093Y011172D01*
X017093Y011841D02*
X018046Y011841D01*
X018290Y011597D01*
X018290Y007733D01*
X018839Y007184D01*
X018528Y006873D01*
X016211Y006873D01*
X016211Y009668D02*
X015810Y009668D01*
X015337Y010141D01*
X016054Y012511D02*
X017093Y012511D01*
X018093Y012511D01*
X018093Y012503D01*
X018684Y013172D02*
X017101Y013172D01*
X017093Y013180D01*
X018684Y013172D02*
X019078Y012778D01*
X019078Y010023D01*
X021916Y007184D01*
X022757Y007184D01*
D25*
X014786Y013168D02*
X013267Y011649D01*
X009330Y011649D01*
X009235Y011649D01*
X009235Y004042D01*
X009235Y001841D01*
X009149Y001755D01*
X010149Y001755D01*
X009149Y001755D02*
X008149Y001755D01*
X009235Y004042D02*
X011046Y004042D01*
X009235Y004042D02*
X004121Y004042D01*
X004121Y008963D02*
X004121Y010499D01*
X004156Y010534D01*
X003645Y011649D02*
X005786Y011649D01*
X003645Y011649D02*
X003097Y012196D01*
X003097Y013180D02*
X003574Y013656D01*
X005786Y013656D01*
X009330Y013656D02*
X010219Y013656D01*
X010219Y013684D01*
X011400Y014078D02*
X011991Y013487D01*
X011991Y013168D01*
X011007Y010534D02*
X011046Y010495D01*
X011046Y008963D01*
D26*
X000864Y010311D02*
X000864Y000864D01*
X023512Y000864D01*
X023512Y005811D01*
X021941Y005811D01*
X021835Y005855D01*
X021753Y005937D01*
X021709Y006044D01*
X021709Y006783D01*
X021661Y006802D01*
X018740Y009724D01*
X018740Y008557D01*
X019655Y008557D01*
X019762Y008512D01*
X019843Y008431D01*
X019887Y008324D01*
X019887Y006044D01*
X019843Y005937D01*
X019762Y005855D01*
X019655Y005811D01*
X018024Y005811D01*
X017917Y005855D01*
X017836Y005937D01*
X017792Y006044D01*
X017792Y006423D01*
X016895Y006423D01*
X016895Y006028D01*
X016874Y005976D01*
X016874Y004535D01*
X016772Y004289D01*
X016583Y004100D01*
X016337Y003998D01*
X016070Y003998D01*
X015824Y004100D01*
X015636Y004289D01*
X015534Y004535D01*
X015534Y005094D01*
X015515Y005089D01*
X015366Y005089D01*
X015366Y005368D01*
X015309Y005368D01*
X015309Y005089D01*
X015160Y005089D01*
X015122Y005099D01*
X015088Y005119D01*
X015060Y005147D01*
X015040Y005181D01*
X015030Y005219D01*
X015030Y005368D01*
X015309Y005368D01*
X015309Y005425D01*
X015030Y005425D01*
X015030Y005574D01*
X015031Y005577D01*
X015016Y005584D01*
X014961Y005638D01*
X014473Y005638D01*
X014366Y005682D01*
X014285Y005764D01*
X014240Y005870D01*
X014240Y006379D01*
X014282Y006479D01*
X014240Y006579D01*
X014240Y007088D01*
X014285Y007195D01*
X014366Y007276D01*
X014473Y007320D01*
X015021Y007320D01*
X015128Y007276D01*
X015209Y007195D01*
X015218Y007174D01*
X015528Y007174D01*
X015528Y007718D01*
X015572Y007825D01*
X015654Y007906D01*
X015760Y007950D01*
X016663Y007950D01*
X016769Y007906D01*
X016851Y007825D01*
X016895Y007718D01*
X016895Y007323D01*
X017792Y007323D01*
X017792Y008324D01*
X017836Y008431D01*
X017840Y008435D01*
X017840Y010847D01*
X017821Y010835D01*
X017782Y010825D01*
X017142Y010825D01*
X017142Y011124D01*
X017045Y011124D01*
X016274Y011124D01*
X016274Y010956D01*
X016284Y010917D01*
X016304Y010883D01*
X016332Y010855D01*
X016366Y010835D01*
X016404Y010825D01*
X017045Y010825D01*
X017045Y011124D01*
X017045Y011221D01*
X016274Y011221D01*
X016274Y011389D01*
X016275Y011392D01*
X016260Y011399D01*
X016216Y011443D01*
X016216Y011400D01*
X016206Y011362D01*
X016186Y011328D01*
X016158Y011300D01*
X016124Y011280D01*
X016086Y011270D01*
X015947Y011270D01*
X015947Y011637D01*
X015909Y011637D01*
X015909Y011270D01*
X015770Y011270D01*
X015732Y011280D01*
X015698Y011300D01*
X015670Y011328D01*
X015650Y011362D01*
X015640Y011400D01*
X015640Y011637D01*
X015909Y011637D01*
X015909Y011675D01*
X015640Y011675D01*
X015640Y011912D01*
X015650Y011950D01*
X015670Y011985D01*
X015698Y012013D01*
X015732Y012032D01*
X015770Y012043D01*
X015909Y012043D01*
X015909Y011675D01*
X015947Y011675D01*
X015947Y012043D01*
X016086Y012043D01*
X016124Y012032D01*
X016134Y012026D01*
X016134Y012096D01*
X016178Y012203D01*
X016260Y012284D01*
X016275Y012290D01*
X016274Y012294D01*
X016274Y012462D01*
X017045Y012462D01*
X017045Y012559D01*
X016274Y012559D01*
X016274Y012675D01*
X016230Y012631D01*
X016124Y012587D01*
X015796Y012587D01*
X015738Y012529D01*
X015631Y012484D01*
X014866Y012484D01*
X013724Y011343D01*
X013572Y011191D01*
X013374Y011109D01*
X009830Y011109D01*
X009829Y011107D01*
X009775Y011085D01*
X009775Y004582D01*
X010264Y004582D01*
X010264Y005379D01*
X010308Y005486D01*
X010390Y005568D01*
X010496Y005612D01*
X011596Y005612D01*
X011703Y005568D01*
X011784Y005486D01*
X011828Y005379D01*
X011828Y002705D01*
X011784Y002598D01*
X011703Y002517D01*
X011596Y002473D01*
X011319Y002473D01*
X011321Y002472D01*
X011384Y002440D01*
X011442Y002398D01*
X011492Y002348D01*
X011533Y002291D01*
X011566Y002228D01*
X011587Y002160D01*
X011599Y002090D01*
X011599Y001805D01*
X011199Y001805D01*
X011199Y001705D01*
X011599Y001705D01*
X011599Y001419D01*
X011587Y001349D01*
X011566Y001282D01*
X011533Y001219D01*
X011492Y001162D01*
X011442Y001112D01*
X011384Y001070D01*
X011321Y001038D01*
X011254Y001016D01*
X011199Y001007D01*
X011199Y001705D01*
X011099Y001705D01*
X011099Y001007D01*
X011043Y001016D01*
X010976Y001038D01*
X010913Y001070D01*
X010855Y001112D01*
X010805Y001162D01*
X010764Y001219D01*
X010731Y001282D01*
X010724Y001304D01*
X010649Y001121D01*
X010483Y000955D01*
X010266Y000865D01*
X010031Y000865D01*
X009814Y000955D01*
X009649Y001120D01*
X009483Y000955D01*
X009266Y000865D01*
X009031Y000865D01*
X008814Y000955D01*
X008649Y001120D01*
X008483Y000955D01*
X008266Y000865D01*
X008031Y000865D01*
X007814Y000955D01*
X007648Y001121D01*
X007559Y001337D01*
X007559Y002172D01*
X007648Y002389D01*
X007814Y002555D01*
X008031Y002645D01*
X008266Y002645D01*
X008483Y002555D01*
X008649Y002389D01*
X008695Y002436D01*
X008695Y003502D01*
X004903Y003502D01*
X004903Y002705D01*
X004859Y002598D01*
X004777Y002517D01*
X004671Y002473D01*
X003571Y002473D01*
X003465Y002517D01*
X003383Y002598D01*
X003339Y002705D01*
X003339Y005379D01*
X003383Y005486D01*
X003465Y005568D01*
X003571Y005612D01*
X004671Y005612D01*
X004777Y005568D01*
X004859Y005486D01*
X004903Y005379D01*
X004903Y004582D01*
X008695Y004582D01*
X008695Y011756D01*
X008705Y011780D01*
X008705Y012001D01*
X008749Y012108D01*
X008831Y012190D01*
X008937Y012234D01*
X009722Y012234D01*
X009829Y012190D01*
X009830Y012189D01*
X013043Y012189D01*
X013709Y012854D01*
X013709Y013620D01*
X013753Y013726D01*
X013835Y013808D01*
X013941Y013852D01*
X014834Y013852D01*
X015212Y014231D01*
X015378Y014299D01*
X016277Y014299D01*
X016366Y014336D01*
X017820Y014336D01*
X017927Y014292D01*
X018009Y014210D01*
X018053Y014104D01*
X018053Y013622D01*
X018773Y013622D01*
X018939Y013554D01*
X019065Y013427D01*
X019065Y013427D01*
X019284Y013209D01*
X019284Y014675D01*
X019328Y014781D01*
X019397Y014851D01*
X003250Y014851D01*
X003250Y014096D01*
X003268Y014114D01*
X003466Y014196D01*
X005286Y014196D01*
X005287Y014198D01*
X005394Y014242D01*
X006179Y014242D01*
X006285Y014198D01*
X006367Y014116D01*
X006411Y014009D01*
X006411Y013303D01*
X006367Y013197D01*
X006285Y013115D01*
X006179Y013071D01*
X005394Y013071D01*
X005287Y013115D01*
X005286Y013116D01*
X004057Y013116D01*
X004057Y012847D01*
X004012Y012740D01*
X003960Y012688D01*
X004012Y012636D01*
X004057Y012529D01*
X004057Y012189D01*
X005286Y012189D01*
X005287Y012190D01*
X005394Y012234D01*
X006179Y012234D01*
X006285Y012190D01*
X006367Y012108D01*
X006411Y012001D01*
X006411Y011296D01*
X006367Y011189D01*
X006285Y011107D01*
X006179Y011063D01*
X005394Y011063D01*
X005287Y011107D01*
X005286Y011109D01*
X003537Y011109D01*
X003339Y011191D01*
X003250Y011280D01*
X003250Y010544D01*
X003205Y010437D01*
X003124Y010355D01*
X003017Y010311D01*
X000864Y010311D01*
X000864Y010227D02*
X003479Y010227D01*
X003479Y010263D02*
X003479Y009013D01*
X004071Y009013D01*
X004071Y008913D01*
X004171Y008913D01*
X004171Y007534D01*
X004633Y007534D01*
X004671Y007544D01*
X004705Y007564D01*
X004733Y007592D01*
X004753Y007626D01*
X004763Y007664D01*
X004763Y008913D01*
X004171Y008913D01*
X004171Y009013D01*
X004763Y009013D01*
X004763Y010263D01*
X004753Y010301D01*
X004733Y010335D01*
X004705Y010363D01*
X004671Y010383D01*
X004633Y010393D01*
X004171Y010393D01*
X004171Y009013D01*
X004071Y009013D01*
X004071Y010393D01*
X003609Y010393D01*
X003571Y010383D01*
X003537Y010363D01*
X003509Y010335D01*
X003489Y010301D01*
X003479Y010263D01*
X003503Y010325D02*
X003051Y010325D01*
X003192Y010424D02*
X008695Y010424D01*
X008695Y010522D02*
X003241Y010522D01*
X003250Y010621D02*
X008695Y010621D01*
X008695Y010719D02*
X003250Y010719D01*
X003250Y010818D02*
X008695Y010818D01*
X008695Y010916D02*
X003250Y010916D01*
X003250Y011015D02*
X008695Y011015D01*
X008695Y011113D02*
X006291Y011113D01*
X006376Y011212D02*
X008695Y011212D01*
X008695Y011310D02*
X006411Y011310D01*
X006411Y011409D02*
X008695Y011409D01*
X008695Y011507D02*
X006411Y011507D01*
X006411Y011606D02*
X008695Y011606D01*
X008695Y011704D02*
X006411Y011704D01*
X006411Y011803D02*
X008705Y011803D01*
X008705Y011901D02*
X006411Y011901D01*
X006411Y012000D02*
X008705Y012000D01*
X008745Y012098D02*
X006371Y012098D01*
X006268Y012197D02*
X008848Y012197D01*
X009811Y012197D02*
X013051Y012197D01*
X013150Y012295D02*
X004057Y012295D01*
X004057Y012197D02*
X005305Y012197D01*
X004057Y012394D02*
X013248Y012394D01*
X013347Y012492D02*
X004057Y012492D01*
X004031Y012591D02*
X013445Y012591D01*
X013544Y012689D02*
X012902Y012689D01*
X012898Y012682D02*
X012918Y012717D01*
X012928Y012755D01*
X012928Y013118D01*
X012041Y013118D01*
X012041Y012624D01*
X012798Y012624D01*
X012836Y012635D01*
X012871Y012654D01*
X012898Y012682D01*
X012928Y012788D02*
X013642Y012788D01*
X013709Y012886D02*
X012928Y012886D01*
X012928Y012985D02*
X013709Y012985D01*
X013709Y013083D02*
X012928Y013083D01*
X012928Y013218D02*
X012928Y013582D01*
X012918Y013620D01*
X012898Y013654D01*
X012871Y013682D01*
X012836Y013702D01*
X012798Y013712D01*
X012041Y013712D01*
X012041Y013218D01*
X012928Y013218D01*
X012928Y013280D02*
X013709Y013280D01*
X013709Y013182D02*
X012041Y013182D01*
X012041Y013218D02*
X012041Y013118D01*
X011941Y013118D01*
X011941Y012624D01*
X011184Y012624D01*
X011146Y012635D01*
X011112Y012654D01*
X011084Y012682D01*
X011064Y012717D01*
X011054Y012755D01*
X011054Y013118D01*
X011941Y013118D01*
X011941Y013218D01*
X011054Y013218D01*
X011054Y013582D01*
X011064Y013620D01*
X011084Y013654D01*
X011112Y013682D01*
X011146Y013702D01*
X011184Y013712D01*
X011941Y013712D01*
X011941Y013218D01*
X012041Y013218D01*
X012041Y013280D02*
X011941Y013280D01*
X011941Y013182D02*
X006352Y013182D01*
X006401Y013280D02*
X008868Y013280D01*
X008875Y013269D02*
X008903Y013241D01*
X008937Y013221D01*
X008975Y013211D01*
X009280Y013211D01*
X009280Y013606D01*
X009380Y013606D01*
X009380Y013706D01*
X009814Y013706D01*
X009814Y013971D01*
X009804Y014010D01*
X009784Y014044D01*
X009756Y014072D01*
X009722Y014091D01*
X009684Y014102D01*
X009380Y014102D01*
X009380Y013706D01*
X009280Y013706D01*
X009280Y014102D01*
X008975Y014102D01*
X008937Y014091D01*
X008903Y014072D01*
X008875Y014044D01*
X008855Y014010D01*
X008845Y013971D01*
X008845Y013706D01*
X009280Y013706D01*
X009280Y013606D01*
X008845Y013606D01*
X008845Y013341D01*
X008855Y013303D01*
X008875Y013269D01*
X008845Y013379D02*
X006411Y013379D01*
X006411Y013477D02*
X008845Y013477D01*
X008845Y013576D02*
X006411Y013576D01*
X006411Y013674D02*
X009280Y013674D01*
X009280Y013576D02*
X009380Y013576D01*
X009380Y013606D02*
X009380Y013211D01*
X009684Y013211D01*
X009722Y013221D01*
X009756Y013241D01*
X009784Y013269D01*
X009804Y013303D01*
X009814Y013341D01*
X009814Y013606D01*
X009380Y013606D01*
X009380Y013674D02*
X011104Y013674D01*
X011054Y013576D02*
X009814Y013576D01*
X009814Y013477D02*
X011054Y013477D01*
X011054Y013379D02*
X009814Y013379D01*
X009791Y013280D02*
X011054Y013280D01*
X011054Y013083D02*
X006208Y013083D01*
X005365Y013083D02*
X004057Y013083D01*
X004057Y012985D02*
X011054Y012985D01*
X011054Y012886D02*
X004057Y012886D01*
X004032Y012788D02*
X011054Y012788D01*
X011080Y012689D02*
X003962Y012689D01*
X003318Y011212D02*
X003250Y011212D01*
X003250Y011113D02*
X003526Y011113D01*
X004071Y010325D02*
X004171Y010325D01*
X004171Y010227D02*
X004071Y010227D01*
X004071Y010128D02*
X004171Y010128D01*
X004171Y010030D02*
X004071Y010030D01*
X004071Y009931D02*
X004171Y009931D01*
X004171Y009833D02*
X004071Y009833D01*
X004071Y009734D02*
X004171Y009734D01*
X004171Y009636D02*
X004071Y009636D01*
X004071Y009537D02*
X004171Y009537D01*
X004171Y009439D02*
X004071Y009439D01*
X004071Y009340D02*
X004171Y009340D01*
X004171Y009242D02*
X004071Y009242D01*
X004071Y009143D02*
X004171Y009143D01*
X004171Y009045D02*
X004071Y009045D01*
X004071Y008946D02*
X000864Y008946D01*
X000864Y008848D02*
X003479Y008848D01*
X003479Y008913D02*
X003479Y007664D01*
X003489Y007626D01*
X003509Y007592D01*
X003537Y007564D01*
X003571Y007544D01*
X003609Y007534D01*
X004071Y007534D01*
X004071Y008913D01*
X003479Y008913D01*
X003479Y009045D02*
X000864Y009045D01*
X000864Y009143D02*
X003479Y009143D01*
X003479Y009242D02*
X000864Y009242D01*
X000864Y009340D02*
X003479Y009340D01*
X003479Y009439D02*
X000864Y009439D01*
X000864Y009537D02*
X003479Y009537D01*
X003479Y009636D02*
X000864Y009636D01*
X000864Y009734D02*
X003479Y009734D01*
X003479Y009833D02*
X000864Y009833D01*
X000864Y009931D02*
X003479Y009931D01*
X003479Y010030D02*
X000864Y010030D01*
X000864Y010128D02*
X003479Y010128D01*
X004739Y010325D02*
X008695Y010325D01*
X008695Y010227D02*
X004763Y010227D01*
X004763Y010128D02*
X008695Y010128D01*
X008695Y010030D02*
X004763Y010030D01*
X004763Y009931D02*
X008695Y009931D01*
X008695Y009833D02*
X004763Y009833D01*
X004763Y009734D02*
X008695Y009734D01*
X008695Y009636D02*
X004763Y009636D01*
X004763Y009537D02*
X008695Y009537D01*
X008695Y009439D02*
X004763Y009439D01*
X004763Y009340D02*
X008695Y009340D01*
X008695Y009242D02*
X004763Y009242D01*
X004763Y009143D02*
X008695Y009143D01*
X008695Y009045D02*
X004763Y009045D01*
X004763Y008848D02*
X008695Y008848D01*
X008695Y008946D02*
X004171Y008946D01*
X004171Y008848D02*
X004071Y008848D01*
X004071Y008749D02*
X004171Y008749D01*
X004171Y008651D02*
X004071Y008651D01*
X004071Y008552D02*
X004171Y008552D01*
X004171Y008454D02*
X004071Y008454D01*
X004071Y008355D02*
X004171Y008355D01*
X004171Y008257D02*
X004071Y008257D01*
X004071Y008158D02*
X004171Y008158D01*
X004171Y008060D02*
X004071Y008060D01*
X004071Y007961D02*
X004171Y007961D01*
X004171Y007863D02*
X004071Y007863D01*
X004071Y007764D02*
X004171Y007764D01*
X004171Y007666D02*
X004071Y007666D01*
X004071Y007567D02*
X004171Y007567D01*
X004708Y007567D02*
X008695Y007567D01*
X008695Y007469D02*
X000864Y007469D01*
X000864Y007567D02*
X003533Y007567D01*
X003479Y007666D02*
X000864Y007666D01*
X000864Y007764D02*
X003479Y007764D01*
X003479Y007863D02*
X000864Y007863D01*
X000864Y007961D02*
X003479Y007961D01*
X003479Y008060D02*
X000864Y008060D01*
X000864Y008158D02*
X003479Y008158D01*
X003479Y008257D02*
X000864Y008257D01*
X000864Y008355D02*
X003479Y008355D01*
X003479Y008454D02*
X000864Y008454D01*
X000864Y008552D02*
X003479Y008552D01*
X003479Y008651D02*
X000864Y008651D01*
X000864Y008749D02*
X003479Y008749D01*
X004763Y008749D02*
X008695Y008749D01*
X008695Y008651D02*
X004763Y008651D01*
X004763Y008552D02*
X008695Y008552D01*
X008695Y008454D02*
X004763Y008454D01*
X004763Y008355D02*
X008695Y008355D01*
X008695Y008257D02*
X004763Y008257D01*
X004763Y008158D02*
X008695Y008158D01*
X008695Y008060D02*
X004763Y008060D01*
X004763Y007961D02*
X008695Y007961D01*
X008695Y007863D02*
X004763Y007863D01*
X004763Y007764D02*
X008695Y007764D01*
X008695Y007666D02*
X004763Y007666D01*
X004706Y005597D02*
X008695Y005597D01*
X008695Y005499D02*
X004846Y005499D01*
X004894Y005400D02*
X008695Y005400D01*
X008695Y005302D02*
X004903Y005302D01*
X004903Y005203D02*
X008695Y005203D01*
X008695Y005105D02*
X004903Y005105D01*
X004903Y005006D02*
X008695Y005006D01*
X008695Y004908D02*
X004903Y004908D01*
X004903Y004809D02*
X008695Y004809D01*
X008695Y004711D02*
X004903Y004711D01*
X004903Y004612D02*
X008695Y004612D01*
X009775Y004612D02*
X010264Y004612D01*
X010264Y004711D02*
X009775Y004711D01*
X009775Y004809D02*
X010264Y004809D01*
X010264Y004908D02*
X009775Y004908D01*
X009775Y005006D02*
X010264Y005006D01*
X010264Y005105D02*
X009775Y005105D01*
X009775Y005203D02*
X010264Y005203D01*
X010264Y005302D02*
X009775Y005302D01*
X009775Y005400D02*
X010273Y005400D01*
X010321Y005499D02*
X009775Y005499D01*
X009775Y005597D02*
X010461Y005597D01*
X009775Y005696D02*
X014353Y005696D01*
X014272Y005794D02*
X009775Y005794D01*
X009775Y005893D02*
X014240Y005893D01*
X014240Y005991D02*
X009775Y005991D01*
X009775Y006090D02*
X014240Y006090D01*
X014240Y006188D02*
X009775Y006188D01*
X009775Y006287D02*
X014240Y006287D01*
X014243Y006385D02*
X009775Y006385D01*
X009775Y006484D02*
X014280Y006484D01*
X014240Y006582D02*
X009775Y006582D01*
X009775Y006681D02*
X014240Y006681D01*
X014240Y006779D02*
X009775Y006779D01*
X009775Y006878D02*
X014240Y006878D01*
X014240Y006976D02*
X009775Y006976D01*
X009775Y007075D02*
X014240Y007075D01*
X014276Y007173D02*
X009775Y007173D01*
X009775Y007272D02*
X014362Y007272D01*
X014747Y006834D02*
X016172Y006834D01*
X016211Y006873D01*
X015528Y007272D02*
X015132Y007272D01*
X015528Y007370D02*
X009775Y007370D01*
X009775Y007469D02*
X015528Y007469D01*
X015528Y007567D02*
X011634Y007567D01*
X011630Y007564D02*
X011658Y007592D01*
X011678Y007626D01*
X011688Y007664D01*
X011688Y008913D01*
X011096Y008913D01*
X011096Y007534D01*
X011558Y007534D01*
X011596Y007544D01*
X011630Y007564D01*
X011688Y007666D02*
X015528Y007666D01*
X015547Y007764D02*
X011688Y007764D01*
X011688Y007863D02*
X015610Y007863D01*
X016813Y007863D02*
X017792Y007863D01*
X017792Y007961D02*
X011688Y007961D01*
X011688Y008060D02*
X017792Y008060D01*
X017792Y008158D02*
X011688Y008158D01*
X011688Y008257D02*
X017792Y008257D01*
X017804Y008355D02*
X011688Y008355D01*
X011688Y008454D02*
X017840Y008454D01*
X017840Y008552D02*
X011688Y008552D01*
X011688Y008651D02*
X017840Y008651D01*
X017840Y008749D02*
X016677Y008749D01*
X016663Y008741D02*
X016697Y008761D01*
X016725Y008789D01*
X016745Y008823D01*
X016755Y008861D01*
X016755Y009618D01*
X016261Y009618D01*
X016261Y008731D01*
X016625Y008731D01*
X016663Y008741D01*
X016752Y008848D02*
X017840Y008848D01*
X017840Y008946D02*
X016755Y008946D01*
X016755Y009045D02*
X017840Y009045D01*
X017840Y009143D02*
X016755Y009143D01*
X016755Y009242D02*
X017840Y009242D01*
X017840Y009340D02*
X016755Y009340D01*
X016755Y009439D02*
X017840Y009439D01*
X017840Y009537D02*
X016755Y009537D01*
X016755Y009718D02*
X016755Y010475D01*
X016745Y010513D01*
X016725Y010548D01*
X016697Y010576D01*
X016663Y010595D01*
X016625Y010606D01*
X016261Y010606D01*
X016261Y009718D01*
X016161Y009718D01*
X016161Y009618D01*
X015668Y009618D01*
X015668Y008861D01*
X015678Y008823D01*
X015698Y008789D01*
X015726Y008761D01*
X015760Y008741D01*
X015798Y008731D01*
X016161Y008731D01*
X016161Y009618D01*
X016261Y009618D01*
X016261Y009718D01*
X016755Y009718D01*
X016755Y009734D02*
X017840Y009734D01*
X017840Y009636D02*
X016261Y009636D01*
X016261Y009734D02*
X016161Y009734D01*
X016161Y009718D02*
X016161Y010606D01*
X015798Y010606D01*
X015760Y010595D01*
X015726Y010576D01*
X015698Y010548D01*
X015678Y010513D01*
X015668Y010475D01*
X015668Y009718D01*
X016161Y009718D01*
X016161Y009636D02*
X011688Y009636D01*
X011688Y009734D02*
X015668Y009734D01*
X015668Y009833D02*
X011688Y009833D01*
X011688Y009931D02*
X015668Y009931D01*
X015668Y010030D02*
X011688Y010030D01*
X011688Y010128D02*
X015668Y010128D01*
X015668Y010227D02*
X011688Y010227D01*
X011688Y010263D02*
X011678Y010301D01*
X011658Y010335D01*
X011630Y010363D01*
X011596Y010383D01*
X011558Y010393D01*
X011096Y010393D01*
X011096Y009013D01*
X011688Y009013D01*
X011688Y010263D01*
X011664Y010325D02*
X015668Y010325D01*
X015668Y010424D02*
X009775Y010424D01*
X009775Y010522D02*
X015683Y010522D01*
X016161Y010522D02*
X016261Y010522D01*
X016261Y010424D02*
X016161Y010424D01*
X016161Y010325D02*
X016261Y010325D01*
X016261Y010227D02*
X016161Y010227D01*
X016161Y010128D02*
X016261Y010128D01*
X016261Y010030D02*
X016161Y010030D01*
X016161Y009931D02*
X016261Y009931D01*
X016261Y009833D02*
X016161Y009833D01*
X016161Y009537D02*
X016261Y009537D01*
X016261Y009439D02*
X016161Y009439D01*
X016161Y009340D02*
X016261Y009340D01*
X016261Y009242D02*
X016161Y009242D01*
X016161Y009143D02*
X016261Y009143D01*
X016261Y009045D02*
X016161Y009045D01*
X016161Y008946D02*
X016261Y008946D01*
X016261Y008848D02*
X016161Y008848D01*
X016161Y008749D02*
X016261Y008749D01*
X015746Y008749D02*
X011688Y008749D01*
X011688Y008848D02*
X015671Y008848D01*
X015668Y008946D02*
X011096Y008946D01*
X011096Y008913D02*
X011096Y009013D01*
X010996Y009013D01*
X010996Y008913D01*
X011096Y008913D01*
X011096Y008848D02*
X010996Y008848D01*
X010996Y008913D02*
X010996Y007534D01*
X010534Y007534D01*
X010496Y007544D01*
X010462Y007564D01*
X010434Y007592D01*
X010414Y007626D01*
X010404Y007664D01*
X010404Y008913D01*
X010996Y008913D01*
X010996Y008946D02*
X009775Y008946D01*
X009775Y008848D02*
X010404Y008848D01*
X010404Y008749D02*
X009775Y008749D01*
X009775Y008651D02*
X010404Y008651D01*
X010404Y008552D02*
X009775Y008552D01*
X009775Y008454D02*
X010404Y008454D01*
X010404Y008355D02*
X009775Y008355D01*
X009775Y008257D02*
X010404Y008257D01*
X010404Y008158D02*
X009775Y008158D01*
X009775Y008060D02*
X010404Y008060D01*
X010404Y007961D02*
X009775Y007961D01*
X009775Y007863D02*
X010404Y007863D01*
X010404Y007764D02*
X009775Y007764D01*
X009775Y007666D02*
X010404Y007666D01*
X010459Y007567D02*
X009775Y007567D01*
X008695Y007370D02*
X000864Y007370D01*
X000864Y007272D02*
X008695Y007272D01*
X008695Y007173D02*
X000864Y007173D01*
X000864Y007075D02*
X008695Y007075D01*
X008695Y006976D02*
X000864Y006976D01*
X000864Y006878D02*
X008695Y006878D01*
X008695Y006779D02*
X000864Y006779D01*
X000864Y006681D02*
X008695Y006681D01*
X008695Y006582D02*
X000864Y006582D01*
X000864Y006484D02*
X008695Y006484D01*
X008695Y006385D02*
X000864Y006385D01*
X000864Y006287D02*
X008695Y006287D01*
X008695Y006188D02*
X000864Y006188D01*
X000864Y006090D02*
X008695Y006090D01*
X008695Y005991D02*
X000864Y005991D01*
X000864Y005893D02*
X008695Y005893D01*
X008695Y005794D02*
X000864Y005794D01*
X000864Y005696D02*
X008695Y005696D01*
X011631Y005597D02*
X015002Y005597D01*
X015030Y005499D02*
X011771Y005499D01*
X011820Y005400D02*
X015309Y005400D01*
X015337Y005397D02*
X015337Y004944D01*
X015309Y005105D02*
X015366Y005105D01*
X015366Y005203D02*
X015309Y005203D01*
X015309Y005302D02*
X015366Y005302D01*
X015113Y005105D02*
X011828Y005105D01*
X011828Y005203D02*
X015034Y005203D01*
X015030Y005302D02*
X011828Y005302D01*
X011828Y005006D02*
X015534Y005006D01*
X015534Y004908D02*
X011828Y004908D01*
X011828Y004809D02*
X015534Y004809D01*
X015534Y004711D02*
X011828Y004711D01*
X011828Y004612D02*
X015534Y004612D01*
X015542Y004514D02*
X011828Y004514D01*
X011828Y004415D02*
X015583Y004415D01*
X015624Y004317D02*
X011828Y004317D01*
X011828Y004218D02*
X015706Y004218D01*
X015805Y004120D02*
X011828Y004120D01*
X011828Y004021D02*
X016015Y004021D01*
X016392Y004021D02*
X023512Y004021D01*
X023512Y003923D02*
X011828Y003923D01*
X011828Y003824D02*
X023512Y003824D01*
X023512Y003726D02*
X011828Y003726D01*
X011828Y003627D02*
X023512Y003627D01*
X023512Y003529D02*
X011828Y003529D01*
X011828Y003430D02*
X023512Y003430D01*
X023512Y003332D02*
X011828Y003332D01*
X011828Y003233D02*
X023512Y003233D01*
X023512Y003135D02*
X011828Y003135D01*
X011828Y003036D02*
X023512Y003036D01*
X023512Y002938D02*
X011828Y002938D01*
X011828Y002839D02*
X023512Y002839D01*
X023512Y002741D02*
X011828Y002741D01*
X011802Y002642D02*
X014025Y002642D01*
X014031Y002645D02*
X013814Y002555D01*
X013648Y002389D01*
X013573Y002206D01*
X013566Y002228D01*
X013533Y002291D01*
X013492Y002348D01*
X013442Y002398D01*
X013384Y002440D01*
X013321Y002472D01*
X013254Y002494D01*
X013199Y002502D01*
X013199Y001805D01*
X013099Y001805D01*
X013099Y002502D01*
X013043Y002494D01*
X012976Y002472D01*
X012913Y002440D01*
X012855Y002398D01*
X012805Y002348D01*
X012764Y002291D01*
X012731Y002228D01*
X012710Y002160D01*
X012699Y002090D01*
X012699Y001805D01*
X013098Y001805D01*
X013098Y001705D01*
X012699Y001705D01*
X012699Y001419D01*
X012710Y001349D01*
X012731Y001282D01*
X012764Y001219D01*
X012805Y001162D01*
X012855Y001112D01*
X012913Y001070D01*
X012976Y001038D01*
X013043Y001016D01*
X013099Y001007D01*
X013099Y001705D01*
X013199Y001705D01*
X013199Y001007D01*
X013254Y001016D01*
X013321Y001038D01*
X013384Y001070D01*
X013442Y001112D01*
X013492Y001162D01*
X013533Y001219D01*
X013566Y001282D01*
X013573Y001304D01*
X013648Y001121D01*
X013814Y000955D01*
X014031Y000865D01*
X014266Y000865D01*
X014483Y000955D01*
X014649Y001120D01*
X014814Y000955D01*
X015031Y000865D01*
X015266Y000865D01*
X015483Y000955D01*
X015649Y001120D01*
X015814Y000955D01*
X016031Y000865D01*
X016266Y000865D01*
X016483Y000955D01*
X016649Y001121D01*
X016739Y001337D01*
X016739Y002172D01*
X016649Y002389D01*
X016483Y002555D01*
X016266Y002645D01*
X016031Y002645D01*
X015814Y002555D01*
X015649Y002389D01*
X015483Y002555D01*
X015266Y002645D01*
X015031Y002645D01*
X014814Y002555D01*
X014649Y002389D01*
X014483Y002555D01*
X014266Y002645D01*
X014031Y002645D01*
X014272Y002642D02*
X015025Y002642D01*
X014803Y002544D02*
X014494Y002544D01*
X014592Y002445D02*
X014705Y002445D01*
X015272Y002642D02*
X016025Y002642D01*
X015803Y002544D02*
X015494Y002544D01*
X015592Y002445D02*
X015705Y002445D01*
X016272Y002642D02*
X023512Y002642D01*
X023512Y002544D02*
X016494Y002544D01*
X016592Y002445D02*
X023512Y002445D01*
X023512Y002347D02*
X016666Y002347D01*
X016707Y002248D02*
X023512Y002248D01*
X023512Y002150D02*
X016739Y002150D01*
X016739Y002051D02*
X023512Y002051D01*
X023512Y001953D02*
X016739Y001953D01*
X016739Y001854D02*
X023512Y001854D01*
X023512Y001756D02*
X016739Y001756D01*
X016739Y001657D02*
X023512Y001657D01*
X023512Y001559D02*
X016739Y001559D01*
X016739Y001460D02*
X023512Y001460D01*
X023512Y001362D02*
X016739Y001362D01*
X016708Y001263D02*
X023512Y001263D01*
X023512Y001165D02*
X016667Y001165D01*
X016594Y001066D02*
X023512Y001066D01*
X023512Y000968D02*
X016496Y000968D01*
X016276Y000869D02*
X023512Y000869D01*
X023512Y004120D02*
X016603Y004120D01*
X016701Y004218D02*
X023512Y004218D01*
X023512Y004317D02*
X016783Y004317D01*
X016824Y004415D02*
X023512Y004415D01*
X023512Y004514D02*
X016865Y004514D01*
X016874Y004612D02*
X023512Y004612D01*
X023512Y004711D02*
X016874Y004711D01*
X016874Y004809D02*
X023512Y004809D01*
X023512Y004908D02*
X016874Y004908D01*
X016874Y005006D02*
X023512Y005006D01*
X023512Y005105D02*
X016874Y005105D01*
X016874Y005203D02*
X023512Y005203D01*
X023512Y005302D02*
X016874Y005302D01*
X016874Y005400D02*
X023512Y005400D01*
X023512Y005499D02*
X016874Y005499D01*
X016874Y005597D02*
X023512Y005597D01*
X023512Y005696D02*
X016874Y005696D01*
X016874Y005794D02*
X023512Y005794D01*
X021797Y005893D02*
X019799Y005893D01*
X019866Y005991D02*
X021731Y005991D01*
X021709Y006090D02*
X019887Y006090D01*
X019887Y006188D02*
X021709Y006188D01*
X021709Y006287D02*
X019887Y006287D01*
X019887Y006385D02*
X021709Y006385D01*
X021709Y006484D02*
X019887Y006484D01*
X019887Y006582D02*
X021709Y006582D01*
X021709Y006681D02*
X019887Y006681D01*
X019887Y006779D02*
X021709Y006779D01*
X021586Y006878D02*
X019887Y006878D01*
X019887Y006976D02*
X021488Y006976D01*
X021389Y007075D02*
X019887Y007075D01*
X019887Y007173D02*
X021291Y007173D01*
X021192Y007272D02*
X019887Y007272D01*
X019887Y007370D02*
X021094Y007370D01*
X020995Y007469D02*
X019887Y007469D01*
X019887Y007567D02*
X020897Y007567D01*
X020798Y007666D02*
X019887Y007666D01*
X019887Y007764D02*
X020700Y007764D01*
X020601Y007863D02*
X019887Y007863D01*
X019887Y007961D02*
X020503Y007961D01*
X020404Y008060D02*
X019887Y008060D01*
X019887Y008158D02*
X020306Y008158D01*
X020207Y008257D02*
X019887Y008257D01*
X019875Y008355D02*
X020109Y008355D01*
X020010Y008454D02*
X019820Y008454D01*
X019912Y008552D02*
X019666Y008552D01*
X019813Y008651D02*
X018740Y008651D01*
X018740Y008749D02*
X019715Y008749D01*
X019616Y008848D02*
X018740Y008848D01*
X018740Y008946D02*
X019518Y008946D01*
X019419Y009045D02*
X018740Y009045D01*
X018740Y009143D02*
X019321Y009143D01*
X019222Y009242D02*
X018740Y009242D01*
X018740Y009340D02*
X019124Y009340D01*
X019025Y009439D02*
X018740Y009439D01*
X018740Y009537D02*
X018927Y009537D01*
X018828Y009636D02*
X018740Y009636D01*
X017840Y009833D02*
X016755Y009833D01*
X016755Y009931D02*
X017840Y009931D01*
X017840Y010030D02*
X016755Y010030D01*
X016755Y010128D02*
X017840Y010128D01*
X017840Y010227D02*
X016755Y010227D01*
X016755Y010325D02*
X017840Y010325D01*
X017840Y010424D02*
X016755Y010424D01*
X016740Y010522D02*
X017840Y010522D01*
X017840Y010621D02*
X009775Y010621D01*
X009775Y010719D02*
X017840Y010719D01*
X017840Y010818D02*
X009775Y010818D01*
X009775Y010916D02*
X016285Y010916D01*
X016274Y011015D02*
X009775Y011015D01*
X010462Y010363D02*
X010496Y010383D01*
X010534Y010393D01*
X010996Y010393D01*
X010996Y009013D01*
X010404Y009013D01*
X010404Y010263D01*
X010414Y010301D01*
X010434Y010335D01*
X010462Y010363D01*
X010428Y010325D02*
X009775Y010325D01*
X009775Y010227D02*
X010404Y010227D01*
X010404Y010128D02*
X009775Y010128D01*
X009775Y010030D02*
X010404Y010030D01*
X010404Y009931D02*
X009775Y009931D01*
X009775Y009833D02*
X010404Y009833D01*
X010404Y009734D02*
X009775Y009734D01*
X009775Y009636D02*
X010404Y009636D01*
X010404Y009537D02*
X009775Y009537D01*
X009775Y009439D02*
X010404Y009439D01*
X010404Y009340D02*
X009775Y009340D01*
X009775Y009242D02*
X010404Y009242D01*
X010404Y009143D02*
X009775Y009143D01*
X009775Y009045D02*
X010404Y009045D01*
X010996Y009045D02*
X011096Y009045D01*
X011096Y009143D02*
X010996Y009143D01*
X010996Y009242D02*
X011096Y009242D01*
X011096Y009340D02*
X010996Y009340D01*
X010996Y009439D02*
X011096Y009439D01*
X011096Y009537D02*
X010996Y009537D01*
X010996Y009636D02*
X011096Y009636D01*
X011096Y009734D02*
X010996Y009734D01*
X010996Y009833D02*
X011096Y009833D01*
X011096Y009931D02*
X010996Y009931D01*
X010996Y010030D02*
X011096Y010030D01*
X011096Y010128D02*
X010996Y010128D01*
X010996Y010227D02*
X011096Y010227D01*
X011096Y010325D02*
X010996Y010325D01*
X011688Y009537D02*
X015668Y009537D01*
X015668Y009439D02*
X011688Y009439D01*
X011688Y009340D02*
X015668Y009340D01*
X015668Y009242D02*
X011688Y009242D01*
X011688Y009143D02*
X015668Y009143D01*
X015668Y009045D02*
X011688Y009045D01*
X011096Y008749D02*
X010996Y008749D01*
X010996Y008651D02*
X011096Y008651D01*
X011096Y008552D02*
X010996Y008552D01*
X010996Y008454D02*
X011096Y008454D01*
X011096Y008355D02*
X010996Y008355D01*
X010996Y008257D02*
X011096Y008257D01*
X011096Y008158D02*
X010996Y008158D01*
X010996Y008060D02*
X011096Y008060D01*
X011096Y007961D02*
X010996Y007961D01*
X010996Y007863D02*
X011096Y007863D01*
X011096Y007764D02*
X010996Y007764D01*
X010996Y007666D02*
X011096Y007666D01*
X011096Y007567D02*
X010996Y007567D01*
X014747Y006125D02*
X014885Y005987D01*
X015337Y005987D01*
X015849Y006086D02*
X016204Y005731D01*
X016874Y005893D02*
X017880Y005893D01*
X017813Y005991D02*
X016880Y005991D01*
X016895Y006090D02*
X017792Y006090D01*
X017792Y006188D02*
X016895Y006188D01*
X016895Y006287D02*
X017792Y006287D01*
X017792Y006385D02*
X016895Y006385D01*
X016895Y007370D02*
X017792Y007370D01*
X017792Y007469D02*
X016895Y007469D01*
X016895Y007567D02*
X017792Y007567D01*
X017792Y007666D02*
X016895Y007666D01*
X016876Y007764D02*
X017792Y007764D01*
X017142Y010916D02*
X017045Y010916D01*
X017045Y011015D02*
X017142Y011015D01*
X017142Y011113D02*
X017045Y011113D01*
X017045Y011212D02*
X013594Y011212D01*
X013692Y011310D02*
X015688Y011310D01*
X015640Y011409D02*
X013791Y011409D01*
X013889Y011507D02*
X015640Y011507D01*
X015640Y011606D02*
X013988Y011606D01*
X014086Y011704D02*
X015640Y011704D01*
X015640Y011803D02*
X014185Y011803D01*
X014283Y011901D02*
X015640Y011901D01*
X015685Y012000D02*
X014382Y012000D01*
X014480Y012098D02*
X016135Y012098D01*
X016176Y012197D02*
X014579Y012197D01*
X014677Y012295D02*
X016274Y012295D01*
X016274Y012394D02*
X014776Y012394D01*
X015650Y012492D02*
X017045Y012492D01*
X017142Y012492D02*
X018628Y012492D01*
X018628Y012394D02*
X017913Y012394D01*
X017913Y012462D02*
X017913Y012294D01*
X017912Y012291D01*
X018136Y012291D01*
X018301Y012223D01*
X018545Y011979D01*
X018628Y011896D01*
X018628Y012592D01*
X018498Y012722D01*
X017913Y012722D01*
X017913Y012559D01*
X017142Y012559D01*
X017142Y012462D01*
X017913Y012462D01*
X017913Y012591D02*
X018628Y012591D01*
X018530Y012689D02*
X017913Y012689D01*
X017913Y012295D02*
X018628Y012295D01*
X018628Y012197D02*
X018327Y012197D01*
X018426Y012098D02*
X018628Y012098D01*
X018628Y012000D02*
X018524Y012000D01*
X018623Y011901D02*
X018628Y011901D01*
X019212Y013280D02*
X019284Y013280D01*
X019284Y013379D02*
X019114Y013379D01*
X019015Y013477D02*
X019284Y013477D01*
X019284Y013576D02*
X018885Y013576D01*
X019284Y013674D02*
X018053Y013674D01*
X018053Y013773D02*
X019284Y013773D01*
X019284Y013871D02*
X018053Y013871D01*
X018053Y013970D02*
X019284Y013970D01*
X019284Y014068D02*
X018053Y014068D01*
X018027Y014167D02*
X019284Y014167D01*
X019284Y014265D02*
X017954Y014265D01*
X019284Y014364D02*
X003250Y014364D01*
X003250Y014462D02*
X019284Y014462D01*
X019284Y014561D02*
X003250Y014561D01*
X003250Y014659D02*
X019284Y014659D01*
X019318Y014758D02*
X003250Y014758D01*
X003250Y014265D02*
X015296Y014265D01*
X015148Y014167D02*
X006316Y014167D01*
X006387Y014068D02*
X008899Y014068D01*
X008845Y013970D02*
X006411Y013970D01*
X006411Y013871D02*
X008845Y013871D01*
X008845Y013773D02*
X006411Y013773D01*
X009280Y013773D02*
X009380Y013773D01*
X009380Y013871D02*
X009280Y013871D01*
X009280Y013970D02*
X009380Y013970D01*
X009380Y014068D02*
X009280Y014068D01*
X009760Y014068D02*
X015050Y014068D01*
X014951Y013970D02*
X009814Y013970D01*
X009814Y013871D02*
X014853Y013871D01*
X013800Y013773D02*
X009814Y013773D01*
X009380Y013477D02*
X009280Y013477D01*
X009280Y013379D02*
X009380Y013379D01*
X009380Y013280D02*
X009280Y013280D01*
X011941Y013379D02*
X012041Y013379D01*
X012041Y013477D02*
X011941Y013477D01*
X011941Y013576D02*
X012041Y013576D01*
X012041Y013674D02*
X011941Y013674D01*
X011941Y013083D02*
X012041Y013083D01*
X012041Y012985D02*
X011941Y012985D01*
X011941Y012886D02*
X012041Y012886D01*
X012041Y012788D02*
X011941Y012788D01*
X011941Y012689D02*
X012041Y012689D01*
X012928Y013379D02*
X013709Y013379D01*
X013709Y013477D02*
X012928Y013477D01*
X012928Y013576D02*
X013709Y013576D01*
X013732Y013674D02*
X012878Y013674D01*
X015909Y012000D02*
X015947Y012000D01*
X015947Y011901D02*
X015909Y011901D01*
X015909Y011803D02*
X015947Y011803D01*
X015947Y011704D02*
X015909Y011704D01*
X015909Y011606D02*
X015947Y011606D01*
X015947Y011507D02*
X015909Y011507D01*
X015909Y011409D02*
X015947Y011409D01*
X015947Y011310D02*
X015909Y011310D01*
X016168Y011310D02*
X016274Y011310D01*
X016250Y011409D02*
X016216Y011409D01*
X016274Y011113D02*
X013385Y011113D01*
X016133Y012591D02*
X016274Y012591D01*
X003536Y005597D02*
X000864Y005597D01*
X000864Y005499D02*
X003396Y005499D01*
X003347Y005400D02*
X000864Y005400D01*
X000864Y005302D02*
X003339Y005302D01*
X003339Y005203D02*
X000864Y005203D01*
X000864Y005105D02*
X003339Y005105D01*
X003339Y005006D02*
X000864Y005006D01*
X000864Y004908D02*
X003339Y004908D01*
X003339Y004809D02*
X000864Y004809D01*
X000864Y004711D02*
X003339Y004711D01*
X003339Y004612D02*
X000864Y004612D01*
X000864Y004514D02*
X003339Y004514D01*
X003339Y004415D02*
X000864Y004415D01*
X000864Y004317D02*
X003339Y004317D01*
X003339Y004218D02*
X000864Y004218D01*
X000864Y004120D02*
X003339Y004120D01*
X003339Y004021D02*
X000864Y004021D01*
X000864Y003923D02*
X003339Y003923D01*
X003339Y003824D02*
X000864Y003824D01*
X000864Y003726D02*
X003339Y003726D01*
X003339Y003627D02*
X000864Y003627D01*
X000864Y003529D02*
X003339Y003529D01*
X003339Y003430D02*
X000864Y003430D01*
X000864Y003332D02*
X003339Y003332D01*
X003339Y003233D02*
X000864Y003233D01*
X000864Y003135D02*
X003339Y003135D01*
X003339Y003036D02*
X000864Y003036D01*
X000864Y002938D02*
X003339Y002938D01*
X003339Y002839D02*
X000864Y002839D01*
X000864Y002741D02*
X003339Y002741D01*
X003365Y002642D02*
X000864Y002642D01*
X000864Y002544D02*
X003438Y002544D01*
X004804Y002544D02*
X007803Y002544D01*
X007705Y002445D02*
X000864Y002445D01*
X000864Y002347D02*
X007631Y002347D01*
X007590Y002248D02*
X000864Y002248D01*
X000864Y002150D02*
X007559Y002150D01*
X007559Y002051D02*
X000864Y002051D01*
X000864Y001953D02*
X007559Y001953D01*
X007559Y001854D02*
X000864Y001854D01*
X000864Y001756D02*
X007559Y001756D01*
X007559Y001657D02*
X000864Y001657D01*
X000864Y001559D02*
X007559Y001559D01*
X007559Y001460D02*
X000864Y001460D01*
X000864Y001362D02*
X007559Y001362D01*
X007589Y001263D02*
X000864Y001263D01*
X000864Y001165D02*
X007630Y001165D01*
X007703Y001066D02*
X000864Y001066D01*
X000864Y000968D02*
X007801Y000968D01*
X008021Y000869D02*
X000864Y000869D01*
X004877Y002642D02*
X008025Y002642D01*
X008272Y002642D02*
X008695Y002642D01*
X008695Y002544D02*
X008494Y002544D01*
X008592Y002445D02*
X008695Y002445D01*
X008695Y002741D02*
X004903Y002741D01*
X004903Y002839D02*
X008695Y002839D01*
X008695Y002938D02*
X004903Y002938D01*
X004903Y003036D02*
X008695Y003036D01*
X008695Y003135D02*
X004903Y003135D01*
X004903Y003233D02*
X008695Y003233D01*
X008695Y003332D02*
X004903Y003332D01*
X004903Y003430D02*
X008695Y003430D01*
X011199Y001756D02*
X012098Y001756D01*
X012098Y001805D02*
X012098Y001705D01*
X011699Y001705D01*
X011699Y001419D01*
X011710Y001349D01*
X011731Y001282D01*
X011764Y001219D01*
X011805Y001162D01*
X011855Y001112D01*
X011913Y001070D01*
X011976Y001038D01*
X012043Y001016D01*
X012099Y001007D01*
X012099Y001705D01*
X012199Y001705D01*
X012199Y001805D01*
X012599Y001805D01*
X012599Y002090D01*
X012587Y002160D01*
X012566Y002228D01*
X012533Y002291D01*
X012492Y002348D01*
X012442Y002398D01*
X012384Y002440D01*
X012321Y002472D01*
X012254Y002494D01*
X012199Y002502D01*
X012199Y001805D01*
X012099Y001805D01*
X012099Y002502D01*
X012043Y002494D01*
X011976Y002472D01*
X011913Y002440D01*
X011855Y002398D01*
X011805Y002348D01*
X011764Y002291D01*
X011731Y002228D01*
X011710Y002160D01*
X011699Y002090D01*
X011699Y001805D01*
X012098Y001805D01*
X012099Y001854D02*
X012199Y001854D01*
X012199Y001756D02*
X013098Y001756D01*
X013099Y001854D02*
X013199Y001854D01*
X013199Y001953D02*
X013099Y001953D01*
X013099Y002051D02*
X013199Y002051D01*
X013199Y002150D02*
X013099Y002150D01*
X013099Y002248D02*
X013199Y002248D01*
X013199Y002347D02*
X013099Y002347D01*
X013099Y002445D02*
X013199Y002445D01*
X013374Y002445D02*
X013705Y002445D01*
X013631Y002347D02*
X013493Y002347D01*
X013555Y002248D02*
X013590Y002248D01*
X013803Y002544D02*
X011729Y002544D01*
X011924Y002445D02*
X011374Y002445D01*
X011493Y002347D02*
X011804Y002347D01*
X011742Y002248D02*
X011555Y002248D01*
X011589Y002150D02*
X011708Y002150D01*
X011699Y002051D02*
X011599Y002051D01*
X011599Y001953D02*
X011699Y001953D01*
X011699Y001854D02*
X011599Y001854D01*
X011599Y001657D02*
X011699Y001657D01*
X011699Y001559D02*
X011599Y001559D01*
X011599Y001460D02*
X011699Y001460D01*
X011708Y001362D02*
X011589Y001362D01*
X011556Y001263D02*
X011741Y001263D01*
X011803Y001165D02*
X011494Y001165D01*
X011377Y001066D02*
X011920Y001066D01*
X012099Y001066D02*
X012199Y001066D01*
X012199Y001007D02*
X012254Y001016D01*
X012321Y001038D01*
X012384Y001070D01*
X012442Y001112D01*
X012492Y001162D01*
X012533Y001219D01*
X012566Y001282D01*
X012587Y001349D01*
X012599Y001419D01*
X012599Y001705D01*
X012199Y001705D01*
X012199Y001007D01*
X012199Y001165D02*
X012099Y001165D01*
X012099Y001263D02*
X012199Y001263D01*
X012199Y001362D02*
X012099Y001362D01*
X012099Y001460D02*
X012199Y001460D01*
X012199Y001559D02*
X012099Y001559D01*
X012099Y001657D02*
X012199Y001657D01*
X012599Y001657D02*
X012699Y001657D01*
X012699Y001559D02*
X012599Y001559D01*
X012599Y001460D02*
X012699Y001460D01*
X012708Y001362D02*
X012589Y001362D01*
X012556Y001263D02*
X012741Y001263D01*
X012803Y001165D02*
X012494Y001165D01*
X012377Y001066D02*
X012920Y001066D01*
X013099Y001066D02*
X013199Y001066D01*
X013199Y001165D02*
X013099Y001165D01*
X013099Y001263D02*
X013199Y001263D01*
X013199Y001362D02*
X013099Y001362D01*
X013099Y001460D02*
X013199Y001460D01*
X013199Y001559D02*
X013099Y001559D01*
X013099Y001657D02*
X013199Y001657D01*
X013556Y001263D02*
X013589Y001263D01*
X013630Y001165D02*
X013494Y001165D01*
X013377Y001066D02*
X013703Y001066D01*
X013801Y000968D02*
X010496Y000968D01*
X010594Y001066D02*
X010920Y001066D01*
X010803Y001165D02*
X010667Y001165D01*
X010708Y001263D02*
X010741Y001263D01*
X011099Y001263D02*
X011199Y001263D01*
X011199Y001165D02*
X011099Y001165D01*
X011099Y001066D02*
X011199Y001066D01*
X011199Y001362D02*
X011099Y001362D01*
X011099Y001460D02*
X011199Y001460D01*
X011199Y001559D02*
X011099Y001559D01*
X011099Y001657D02*
X011199Y001657D01*
X012099Y001953D02*
X012199Y001953D01*
X012199Y002051D02*
X012099Y002051D01*
X012099Y002150D02*
X012199Y002150D01*
X012199Y002248D02*
X012099Y002248D01*
X012099Y002347D02*
X012199Y002347D01*
X012199Y002445D02*
X012099Y002445D01*
X012374Y002445D02*
X012924Y002445D01*
X012804Y002347D02*
X012493Y002347D01*
X012555Y002248D02*
X012742Y002248D01*
X012708Y002150D02*
X012589Y002150D01*
X012599Y002051D02*
X012699Y002051D01*
X012699Y001953D02*
X012599Y001953D01*
X012599Y001854D02*
X012699Y001854D01*
X014021Y000869D02*
X010276Y000869D01*
X010021Y000869D02*
X009276Y000869D01*
X009496Y000968D02*
X009801Y000968D01*
X009703Y001066D02*
X009594Y001066D01*
X009021Y000869D02*
X008276Y000869D01*
X008496Y000968D02*
X008801Y000968D01*
X008703Y001066D02*
X008594Y001066D01*
X014276Y000869D02*
X015021Y000869D01*
X014801Y000968D02*
X014496Y000968D01*
X014594Y001066D02*
X014703Y001066D01*
X015276Y000869D02*
X016021Y000869D01*
X015801Y000968D02*
X015496Y000968D01*
X015594Y001066D02*
X015703Y001066D01*
X003395Y014167D02*
X003250Y014167D01*
D27*
X016204Y006873D02*
X016204Y005731D01*
X016204Y004668D01*
X016211Y006873D02*
X016204Y006873D01*
M02*
