G75*
G70*
%OFA0B0*%
%FSLAX24Y24*%
%IPPOS*%
%LPD*%
%AMOC8*
5,1,8,0,0,1.08239X$1,22.5*
%
%ADD10C,0.0600*%
%ADD11C,0.0396*%
%ADD12C,0.0100*%
D10*
X008149Y001455D02*
X008149Y002055D01*
X009149Y002055D02*
X009149Y001455D01*
X010149Y001455D02*
X010149Y002055D01*
X011149Y002055D02*
X011149Y001455D01*
X012149Y001455D02*
X012149Y002055D01*
X013149Y002055D02*
X013149Y001455D01*
X014149Y001455D02*
X014149Y002055D01*
X015149Y002055D02*
X015149Y001455D01*
X016149Y001455D02*
X016149Y002055D01*
D11*
X016204Y004668D03*
X016204Y005219D03*
X016204Y005731D03*
X015337Y004944D03*
X015337Y010141D03*
X018093Y012503D03*
X020062Y014078D03*
X020849Y013290D03*
X021637Y013290D03*
X022424Y014078D03*
X021637Y011715D03*
X020849Y011715D03*
X020062Y010928D03*
X022424Y010928D03*
X011400Y014078D03*
X010219Y013684D03*
X011007Y010534D03*
X004156Y010534D03*
D12*
X000864Y014851D02*
X000864Y000864D01*
X023512Y000864D01*
X023512Y014851D01*
X000864Y014851D01*
X000864Y014758D02*
X023512Y014758D01*
X023512Y014659D02*
X000864Y014659D01*
X000864Y014561D02*
X023512Y014561D01*
X023512Y014462D02*
X000864Y014462D01*
X000864Y014364D02*
X023512Y014364D01*
X023512Y014265D02*
X000864Y014265D01*
X000864Y014167D02*
X023512Y014167D01*
X023512Y014068D02*
X000864Y014068D01*
X000864Y013970D02*
X023512Y013970D01*
X023512Y013871D02*
X000864Y013871D01*
X000864Y013773D02*
X023512Y013773D01*
X023512Y013674D02*
X000864Y013674D01*
X000864Y013576D02*
X023512Y013576D01*
X023512Y013477D02*
X000864Y013477D01*
X000864Y013379D02*
X023512Y013379D01*
X023512Y013280D02*
X000864Y013280D01*
X000864Y013182D02*
X023512Y013182D01*
X023512Y013083D02*
X000864Y013083D01*
X000864Y012985D02*
X023512Y012985D01*
X023512Y012886D02*
X000864Y012886D01*
X000864Y012788D02*
X023512Y012788D01*
X023512Y012689D02*
X000864Y012689D01*
X000864Y012591D02*
X023512Y012591D01*
X023512Y012492D02*
X000864Y012492D01*
X000864Y012394D02*
X023512Y012394D01*
X023512Y012295D02*
X000864Y012295D01*
X000864Y012197D02*
X023512Y012197D01*
X023512Y012098D02*
X000864Y012098D01*
X000864Y012000D02*
X023512Y012000D01*
X023512Y011901D02*
X000864Y011901D01*
X000864Y011803D02*
X023512Y011803D01*
X023512Y011704D02*
X000864Y011704D01*
X000864Y011606D02*
X023512Y011606D01*
X023512Y011507D02*
X000864Y011507D01*
X000864Y011409D02*
X023512Y011409D01*
X023512Y011310D02*
X000864Y011310D01*
X000864Y011212D02*
X023512Y011212D01*
X023512Y011113D02*
X000864Y011113D01*
X000864Y011015D02*
X023512Y011015D01*
X023512Y010916D02*
X000864Y010916D01*
X000864Y010818D02*
X023512Y010818D01*
X023512Y010719D02*
X000864Y010719D01*
X000864Y010621D02*
X023512Y010621D01*
X023512Y010522D02*
X000864Y010522D01*
X000864Y010424D02*
X023512Y010424D01*
X023512Y010325D02*
X000864Y010325D01*
X000864Y010227D02*
X023512Y010227D01*
X023512Y010128D02*
X000864Y010128D01*
X000864Y010030D02*
X023512Y010030D01*
X023512Y009931D02*
X000864Y009931D01*
X000864Y009833D02*
X023512Y009833D01*
X023512Y009734D02*
X000864Y009734D01*
X000864Y009636D02*
X023512Y009636D01*
X023512Y009537D02*
X000864Y009537D01*
X000864Y009439D02*
X023512Y009439D01*
X023512Y009340D02*
X000864Y009340D01*
X000864Y009242D02*
X023512Y009242D01*
X023512Y009143D02*
X000864Y009143D01*
X000864Y009045D02*
X023512Y009045D01*
X023512Y008946D02*
X000864Y008946D01*
X000864Y008848D02*
X023512Y008848D01*
X023512Y008749D02*
X000864Y008749D01*
X000864Y008651D02*
X023512Y008651D01*
X023512Y008552D02*
X000864Y008552D01*
X000864Y008454D02*
X023512Y008454D01*
X023512Y008355D02*
X000864Y008355D01*
X000864Y008257D02*
X023512Y008257D01*
X023512Y008158D02*
X000864Y008158D01*
X000864Y008060D02*
X023512Y008060D01*
X023512Y007961D02*
X000864Y007961D01*
X000864Y007863D02*
X023512Y007863D01*
X023512Y007764D02*
X000864Y007764D01*
X000864Y007666D02*
X023512Y007666D01*
X023512Y007567D02*
X000864Y007567D01*
X000864Y007469D02*
X023512Y007469D01*
X023512Y007370D02*
X000864Y007370D01*
X000864Y007272D02*
X023512Y007272D01*
X023512Y007173D02*
X000864Y007173D01*
X000864Y007075D02*
X023512Y007075D01*
X023512Y006976D02*
X000864Y006976D01*
X000864Y006878D02*
X023512Y006878D01*
X023512Y006779D02*
X000864Y006779D01*
X000864Y006681D02*
X023512Y006681D01*
X023512Y006582D02*
X000864Y006582D01*
X000864Y006484D02*
X023512Y006484D01*
X023512Y006385D02*
X000864Y006385D01*
X000864Y006287D02*
X023512Y006287D01*
X023512Y006188D02*
X016376Y006188D01*
X016301Y006219D02*
X016480Y006145D01*
X016617Y006008D01*
X016692Y005828D01*
X016692Y005634D01*
X016626Y005475D01*
X016692Y005316D01*
X016692Y005122D01*
X016618Y004944D01*
X016692Y004765D01*
X016692Y004571D01*
X016617Y004392D01*
X016480Y004254D01*
X016301Y004180D01*
X016107Y004180D01*
X015927Y004254D01*
X015790Y004392D01*
X015716Y004571D01*
X015716Y004765D01*
X015789Y004944D01*
X015716Y005122D01*
X015716Y005316D01*
X015781Y005475D01*
X015716Y005634D01*
X015716Y005828D01*
X015790Y006008D01*
X015927Y006145D01*
X016107Y006219D01*
X016301Y006219D01*
X016535Y006090D02*
X023512Y006090D01*
X023512Y005991D02*
X016624Y005991D01*
X016665Y005893D02*
X023512Y005893D01*
X023512Y005794D02*
X016692Y005794D01*
X016692Y005696D02*
X023512Y005696D01*
X023512Y005597D02*
X016676Y005597D01*
X016636Y005499D02*
X023512Y005499D01*
X023512Y005400D02*
X016657Y005400D01*
X016692Y005302D02*
X023512Y005302D01*
X023512Y005203D02*
X016692Y005203D01*
X016684Y005105D02*
X023512Y005105D01*
X023512Y005006D02*
X016644Y005006D01*
X016633Y004908D02*
X023512Y004908D01*
X023512Y004809D02*
X016674Y004809D01*
X016692Y004711D02*
X023512Y004711D01*
X023512Y004612D02*
X016692Y004612D01*
X016668Y004514D02*
X023512Y004514D01*
X023512Y004415D02*
X016627Y004415D01*
X016542Y004317D02*
X023512Y004317D01*
X023512Y004218D02*
X016393Y004218D01*
X016014Y004218D02*
X000864Y004218D01*
X000864Y004120D02*
X023512Y004120D01*
X023512Y004021D02*
X000864Y004021D01*
X000864Y003923D02*
X023512Y003923D01*
X023512Y003824D02*
X000864Y003824D01*
X000864Y003726D02*
X023512Y003726D01*
X023512Y003627D02*
X000864Y003627D01*
X000864Y003529D02*
X023512Y003529D01*
X023512Y003430D02*
X000864Y003430D01*
X000864Y003332D02*
X023512Y003332D01*
X023512Y003233D02*
X000864Y003233D01*
X000864Y003135D02*
X023512Y003135D01*
X023512Y003036D02*
X000864Y003036D01*
X000864Y002938D02*
X023512Y002938D01*
X023512Y002839D02*
X000864Y002839D01*
X000864Y002741D02*
X023512Y002741D01*
X023512Y002642D02*
X016272Y002642D01*
X016266Y002645D02*
X016031Y002645D01*
X015814Y002555D01*
X015649Y002389D01*
X015483Y002555D01*
X015266Y002645D01*
X015031Y002645D01*
X014814Y002555D01*
X014649Y002389D01*
X014483Y002555D01*
X014266Y002645D01*
X014031Y002645D01*
X013814Y002555D01*
X013648Y002389D01*
X013573Y002206D01*
X013566Y002228D01*
X013533Y002291D01*
X013492Y002348D01*
X013442Y002398D01*
X013384Y002440D01*
X013321Y002472D01*
X013254Y002494D01*
X013199Y002502D01*
X013199Y001805D01*
X013099Y001805D01*
X013099Y002502D01*
X013043Y002494D01*
X012976Y002472D01*
X012913Y002440D01*
X012855Y002398D01*
X012805Y002348D01*
X012764Y002291D01*
X012731Y002228D01*
X012710Y002160D01*
X012699Y002090D01*
X012699Y001805D01*
X013098Y001805D01*
X013098Y001705D01*
X012699Y001705D01*
X012699Y001419D01*
X012710Y001349D01*
X012731Y001282D01*
X012764Y001219D01*
X012805Y001162D01*
X012855Y001112D01*
X012913Y001070D01*
X012976Y001038D01*
X013043Y001016D01*
X013099Y001007D01*
X013099Y001705D01*
X013199Y001705D01*
X013199Y001007D01*
X013254Y001016D01*
X013321Y001038D01*
X013384Y001070D01*
X013442Y001112D01*
X013492Y001162D01*
X013533Y001219D01*
X013566Y001282D01*
X013573Y001304D01*
X013648Y001121D01*
X013814Y000955D01*
X014031Y000865D01*
X014266Y000865D01*
X014483Y000955D01*
X014649Y001120D01*
X014814Y000955D01*
X015031Y000865D01*
X015266Y000865D01*
X015483Y000955D01*
X015649Y001120D01*
X015814Y000955D01*
X016031Y000865D01*
X016266Y000865D01*
X016483Y000955D01*
X016649Y001121D01*
X016739Y001337D01*
X016739Y002172D01*
X016649Y002389D01*
X016483Y002555D01*
X016266Y002645D01*
X016025Y002642D02*
X015272Y002642D01*
X015494Y002544D02*
X015803Y002544D01*
X015705Y002445D02*
X015592Y002445D01*
X015025Y002642D02*
X014272Y002642D01*
X014494Y002544D02*
X014803Y002544D01*
X014705Y002445D02*
X014592Y002445D01*
X014025Y002642D02*
X010272Y002642D01*
X010266Y002645D02*
X010031Y002645D01*
X009814Y002555D01*
X009649Y002389D01*
X009483Y002555D01*
X009266Y002645D01*
X009031Y002645D01*
X008814Y002555D01*
X008649Y002389D01*
X008483Y002555D01*
X008266Y002645D01*
X008031Y002645D01*
X007814Y002555D01*
X007648Y002389D01*
X007559Y002172D01*
X007559Y001337D01*
X007648Y001121D01*
X007814Y000955D01*
X008031Y000865D01*
X008266Y000865D01*
X008483Y000955D01*
X008649Y001120D01*
X008814Y000955D01*
X009031Y000865D01*
X009266Y000865D01*
X009483Y000955D01*
X009649Y001120D01*
X009814Y000955D01*
X010031Y000865D01*
X010266Y000865D01*
X010483Y000955D01*
X010649Y001121D01*
X010724Y001304D01*
X010731Y001282D01*
X010764Y001219D01*
X010805Y001162D01*
X010855Y001112D01*
X010913Y001070D01*
X010976Y001038D01*
X011043Y001016D01*
X011099Y001007D01*
X011099Y001705D01*
X011199Y001705D01*
X011199Y001805D01*
X011599Y001805D01*
X011599Y002090D01*
X011587Y002160D01*
X011566Y002228D01*
X011533Y002291D01*
X011492Y002348D01*
X011442Y002398D01*
X011384Y002440D01*
X011321Y002472D01*
X011254Y002494D01*
X011199Y002502D01*
X011199Y001805D01*
X011099Y001805D01*
X011099Y002502D01*
X011043Y002494D01*
X010976Y002472D01*
X010913Y002440D01*
X010855Y002398D01*
X010805Y002348D01*
X010764Y002291D01*
X010731Y002228D01*
X010724Y002206D01*
X010649Y002389D01*
X010483Y002555D01*
X010266Y002645D01*
X010025Y002642D02*
X009272Y002642D01*
X009494Y002544D02*
X009803Y002544D01*
X009705Y002445D02*
X009592Y002445D01*
X009025Y002642D02*
X008272Y002642D01*
X008494Y002544D02*
X008803Y002544D01*
X008705Y002445D02*
X008592Y002445D01*
X008025Y002642D02*
X000864Y002642D01*
X000864Y002544D02*
X007803Y002544D01*
X007705Y002445D02*
X000864Y002445D01*
X000864Y002347D02*
X007631Y002347D01*
X007590Y002248D02*
X000864Y002248D01*
X000864Y002150D02*
X007559Y002150D01*
X007559Y002051D02*
X000864Y002051D01*
X000864Y001953D02*
X007559Y001953D01*
X007559Y001854D02*
X000864Y001854D01*
X000864Y001756D02*
X007559Y001756D01*
X007559Y001657D02*
X000864Y001657D01*
X000864Y001559D02*
X007559Y001559D01*
X007559Y001460D02*
X000864Y001460D01*
X000864Y001362D02*
X007559Y001362D01*
X007589Y001263D02*
X000864Y001263D01*
X000864Y001165D02*
X007630Y001165D01*
X007703Y001066D02*
X000864Y001066D01*
X000864Y000968D02*
X007801Y000968D01*
X008021Y000869D02*
X000864Y000869D01*
X000864Y004317D02*
X015865Y004317D01*
X015780Y004415D02*
X000864Y004415D01*
X000864Y004514D02*
X015739Y004514D01*
X015716Y004612D02*
X000864Y004612D01*
X000864Y004711D02*
X015716Y004711D01*
X015734Y004809D02*
X000864Y004809D01*
X000864Y004908D02*
X015775Y004908D01*
X015764Y005006D02*
X000864Y005006D01*
X000864Y005105D02*
X015723Y005105D01*
X015716Y005203D02*
X000864Y005203D01*
X000864Y005302D02*
X015716Y005302D01*
X015750Y005400D02*
X000864Y005400D01*
X000864Y005499D02*
X015772Y005499D01*
X015731Y005597D02*
X000864Y005597D01*
X000864Y005696D02*
X015716Y005696D01*
X015716Y005794D02*
X000864Y005794D01*
X000864Y005893D02*
X015742Y005893D01*
X015783Y005991D02*
X000864Y005991D01*
X000864Y006090D02*
X015872Y006090D01*
X016032Y006188D02*
X000864Y006188D01*
X008496Y000968D02*
X008801Y000968D01*
X008703Y001066D02*
X008594Y001066D01*
X008276Y000869D02*
X009021Y000869D01*
X009276Y000869D02*
X010021Y000869D01*
X009801Y000968D02*
X009496Y000968D01*
X009594Y001066D02*
X009703Y001066D01*
X010276Y000869D02*
X014021Y000869D01*
X013801Y000968D02*
X010496Y000968D01*
X010594Y001066D02*
X010920Y001066D01*
X010803Y001165D02*
X010667Y001165D01*
X010708Y001263D02*
X010741Y001263D01*
X011099Y001263D02*
X011199Y001263D01*
X011199Y001165D02*
X011099Y001165D01*
X011099Y001066D02*
X011199Y001066D01*
X011199Y001007D02*
X011254Y001016D01*
X011321Y001038D01*
X011384Y001070D01*
X011442Y001112D01*
X011492Y001162D01*
X011533Y001219D01*
X011566Y001282D01*
X011587Y001349D01*
X011599Y001419D01*
X011599Y001705D01*
X011199Y001705D01*
X011199Y001007D01*
X011377Y001066D02*
X011920Y001066D01*
X011913Y001070D02*
X011976Y001038D01*
X012043Y001016D01*
X012099Y001007D01*
X012099Y001705D01*
X012199Y001705D01*
X012199Y001805D01*
X012599Y001805D01*
X012599Y002090D01*
X012587Y002160D01*
X012566Y002228D01*
X012533Y002291D01*
X012492Y002348D01*
X012442Y002398D01*
X012384Y002440D01*
X012321Y002472D01*
X012254Y002494D01*
X012199Y002502D01*
X012199Y001805D01*
X012099Y001805D01*
X012099Y002502D01*
X012043Y002494D01*
X011976Y002472D01*
X011913Y002440D01*
X011855Y002398D01*
X011805Y002348D01*
X011764Y002291D01*
X011731Y002228D01*
X011710Y002160D01*
X011699Y002090D01*
X011699Y001805D01*
X012098Y001805D01*
X012098Y001705D01*
X011699Y001705D01*
X011699Y001419D01*
X011710Y001349D01*
X011731Y001282D01*
X011764Y001219D01*
X011805Y001162D01*
X011855Y001112D01*
X011913Y001070D01*
X011803Y001165D02*
X011494Y001165D01*
X011556Y001263D02*
X011741Y001263D01*
X011708Y001362D02*
X011589Y001362D01*
X011599Y001460D02*
X011699Y001460D01*
X011699Y001559D02*
X011599Y001559D01*
X011599Y001657D02*
X011699Y001657D01*
X011699Y001854D02*
X011599Y001854D01*
X011599Y001953D02*
X011699Y001953D01*
X011699Y002051D02*
X011599Y002051D01*
X011589Y002150D02*
X011708Y002150D01*
X011742Y002248D02*
X011555Y002248D01*
X011493Y002347D02*
X011804Y002347D01*
X011924Y002445D02*
X011374Y002445D01*
X011199Y002445D02*
X011099Y002445D01*
X011099Y002347D02*
X011199Y002347D01*
X011199Y002248D02*
X011099Y002248D01*
X011099Y002150D02*
X011199Y002150D01*
X011199Y002051D02*
X011099Y002051D01*
X011099Y001953D02*
X011199Y001953D01*
X011199Y001854D02*
X011099Y001854D01*
X011199Y001756D02*
X012098Y001756D01*
X012099Y001854D02*
X012199Y001854D01*
X012199Y001756D02*
X013098Y001756D01*
X013099Y001854D02*
X013199Y001854D01*
X013199Y001953D02*
X013099Y001953D01*
X013099Y002051D02*
X013199Y002051D01*
X013199Y002150D02*
X013099Y002150D01*
X013099Y002248D02*
X013199Y002248D01*
X013199Y002347D02*
X013099Y002347D01*
X013099Y002445D02*
X013199Y002445D01*
X013374Y002445D02*
X013705Y002445D01*
X013631Y002347D02*
X013493Y002347D01*
X013555Y002248D02*
X013590Y002248D01*
X013803Y002544D02*
X010494Y002544D01*
X010592Y002445D02*
X010924Y002445D01*
X010804Y002347D02*
X010666Y002347D01*
X010707Y002248D02*
X010742Y002248D01*
X011099Y001657D02*
X011199Y001657D01*
X011199Y001559D02*
X011099Y001559D01*
X011099Y001460D02*
X011199Y001460D01*
X011199Y001362D02*
X011099Y001362D01*
X012099Y001362D02*
X012199Y001362D01*
X012199Y001460D02*
X012099Y001460D01*
X012099Y001559D02*
X012199Y001559D01*
X012199Y001657D02*
X012099Y001657D01*
X012199Y001705D02*
X012199Y001007D01*
X012254Y001016D01*
X012321Y001038D01*
X012384Y001070D01*
X012442Y001112D01*
X012492Y001162D01*
X012533Y001219D01*
X012566Y001282D01*
X012587Y001349D01*
X012599Y001419D01*
X012599Y001705D01*
X012199Y001705D01*
X012599Y001657D02*
X012699Y001657D01*
X012699Y001559D02*
X012599Y001559D01*
X012599Y001460D02*
X012699Y001460D01*
X012708Y001362D02*
X012589Y001362D01*
X012556Y001263D02*
X012741Y001263D01*
X012803Y001165D02*
X012494Y001165D01*
X012377Y001066D02*
X012920Y001066D01*
X013099Y001066D02*
X013199Y001066D01*
X013199Y001165D02*
X013099Y001165D01*
X013099Y001263D02*
X013199Y001263D01*
X013199Y001362D02*
X013099Y001362D01*
X013099Y001460D02*
X013199Y001460D01*
X013199Y001559D02*
X013099Y001559D01*
X013099Y001657D02*
X013199Y001657D01*
X013556Y001263D02*
X013589Y001263D01*
X013630Y001165D02*
X013494Y001165D01*
X013377Y001066D02*
X013703Y001066D01*
X014276Y000869D02*
X015021Y000869D01*
X014801Y000968D02*
X014496Y000968D01*
X014594Y001066D02*
X014703Y001066D01*
X015276Y000869D02*
X016021Y000869D01*
X015801Y000968D02*
X015496Y000968D01*
X015594Y001066D02*
X015703Y001066D01*
X016276Y000869D02*
X023512Y000869D01*
X023512Y000968D02*
X016496Y000968D01*
X016594Y001066D02*
X023512Y001066D01*
X023512Y001165D02*
X016667Y001165D01*
X016708Y001263D02*
X023512Y001263D01*
X023512Y001362D02*
X016739Y001362D01*
X016739Y001460D02*
X023512Y001460D01*
X023512Y001559D02*
X016739Y001559D01*
X016739Y001657D02*
X023512Y001657D01*
X023512Y001756D02*
X016739Y001756D01*
X016739Y001854D02*
X023512Y001854D01*
X023512Y001953D02*
X016739Y001953D01*
X016739Y002051D02*
X023512Y002051D01*
X023512Y002150D02*
X016739Y002150D01*
X016707Y002248D02*
X023512Y002248D01*
X023512Y002347D02*
X016666Y002347D01*
X016592Y002445D02*
X023512Y002445D01*
X023512Y002544D02*
X016494Y002544D01*
X012924Y002445D02*
X012374Y002445D01*
X012493Y002347D02*
X012804Y002347D01*
X012742Y002248D02*
X012555Y002248D01*
X012589Y002150D02*
X012708Y002150D01*
X012699Y002051D02*
X012599Y002051D01*
X012599Y001953D02*
X012699Y001953D01*
X012699Y001854D02*
X012599Y001854D01*
X012199Y001953D02*
X012099Y001953D01*
X012099Y002051D02*
X012199Y002051D01*
X012199Y002150D02*
X012099Y002150D01*
X012099Y002248D02*
X012199Y002248D01*
X012199Y002347D02*
X012099Y002347D01*
X012099Y002445D02*
X012199Y002445D01*
X012199Y001263D02*
X012099Y001263D01*
X012099Y001165D02*
X012199Y001165D01*
X012199Y001066D02*
X012099Y001066D01*
M02*
