G75*
G70*
%OFA0B0*%
%FSLAX24Y24*%
%IPPOS*%
%LPD*%
%AMOC8*
5,1,8,0,0,1.08239X$1,22.5*
%
%ADD10C,0.0600*%
%ADD11C,0.0396*%
%ADD12C,0.0160*%
D10*
X008149Y001755D03*
X009149Y001755D03*
X010149Y001755D03*
X011149Y001755D03*
X012149Y001755D03*
X013149Y001755D03*
X014149Y001755D03*
X015149Y001755D03*
X016149Y001755D03*
D11*
X016204Y004668D03*
X016204Y005219D03*
X016204Y005731D03*
X015337Y004944D03*
X015337Y010141D03*
X018093Y012503D03*
X020062Y014078D03*
X020849Y013290D03*
X021637Y013290D03*
X022424Y014078D03*
X021637Y011715D03*
X020849Y011715D03*
X020062Y010928D03*
X022424Y010928D03*
X011400Y014078D03*
X010219Y013684D03*
X011007Y010534D03*
X004156Y010534D03*
D12*
X000854Y014861D02*
X000854Y000854D01*
X023522Y000854D01*
X023522Y014861D01*
X000854Y014861D01*
X000854Y014839D02*
X023522Y014839D01*
X023522Y014680D02*
X000854Y014680D01*
X000854Y014522D02*
X023522Y014522D01*
X023522Y014363D02*
X000854Y014363D01*
X000854Y014205D02*
X023522Y014205D01*
X023522Y014046D02*
X000854Y014046D01*
X000854Y013888D02*
X023522Y013888D01*
X023522Y013729D02*
X000854Y013729D01*
X000854Y013571D02*
X023522Y013571D01*
X023522Y013412D02*
X000854Y013412D01*
X000854Y013254D02*
X023522Y013254D01*
X023522Y013095D02*
X000854Y013095D01*
X000854Y012937D02*
X023522Y012937D01*
X023522Y012778D02*
X000854Y012778D01*
X000854Y012620D02*
X023522Y012620D01*
X023522Y012461D02*
X000854Y012461D01*
X000854Y012303D02*
X023522Y012303D01*
X023522Y012144D02*
X000854Y012144D01*
X000854Y011986D02*
X023522Y011986D01*
X023522Y011827D02*
X000854Y011827D01*
X000854Y011669D02*
X023522Y011669D01*
X023522Y011510D02*
X000854Y011510D01*
X000854Y011352D02*
X023522Y011352D01*
X023522Y011193D02*
X000854Y011193D01*
X000854Y011035D02*
X023522Y011035D01*
X023522Y010876D02*
X000854Y010876D01*
X000854Y010718D02*
X023522Y010718D01*
X023522Y010559D02*
X000854Y010559D01*
X000854Y010401D02*
X023522Y010401D01*
X023522Y010242D02*
X000854Y010242D01*
X000854Y010084D02*
X023522Y010084D01*
X023522Y009925D02*
X000854Y009925D01*
X000854Y009767D02*
X023522Y009767D01*
X023522Y009608D02*
X000854Y009608D01*
X000854Y009450D02*
X023522Y009450D01*
X023522Y009291D02*
X000854Y009291D01*
X000854Y009133D02*
X023522Y009133D01*
X023522Y008974D02*
X000854Y008974D01*
X000854Y008816D02*
X023522Y008816D01*
X023522Y008657D02*
X000854Y008657D01*
X000854Y008499D02*
X023522Y008499D01*
X023522Y008340D02*
X000854Y008340D01*
X000854Y008182D02*
X023522Y008182D01*
X023522Y008023D02*
X000854Y008023D01*
X000854Y007865D02*
X023522Y007865D01*
X023522Y007706D02*
X000854Y007706D01*
X000854Y007548D02*
X023522Y007548D01*
X023522Y007389D02*
X000854Y007389D01*
X000854Y007231D02*
X023522Y007231D01*
X023522Y007072D02*
X000854Y007072D01*
X000854Y006914D02*
X023522Y006914D01*
X023522Y006755D02*
X000854Y006755D01*
X000854Y006597D02*
X023522Y006597D01*
X023522Y006438D02*
X000854Y006438D01*
X000854Y006280D02*
X023522Y006280D01*
X023522Y006121D02*
X000854Y006121D01*
X000854Y005963D02*
X015900Y005963D01*
X015883Y005945D02*
X015826Y005806D01*
X015826Y005656D01*
X015883Y005517D01*
X015925Y005475D01*
X015883Y005434D01*
X015826Y005295D01*
X015826Y005144D01*
X015883Y005005D01*
X015944Y004944D01*
X015883Y004882D01*
X015826Y004743D01*
X015826Y004593D01*
X015883Y004454D01*
X015989Y004348D01*
X016128Y004290D01*
X016279Y004290D01*
X016418Y004348D01*
X016524Y004454D01*
X016582Y004593D01*
X016582Y004743D01*
X016524Y004882D01*
X016463Y004944D01*
X016524Y005005D01*
X016582Y005144D01*
X016582Y005295D01*
X016524Y005434D01*
X016482Y005475D01*
X016524Y005517D01*
X016582Y005656D01*
X016582Y005806D01*
X016524Y005945D01*
X016418Y006052D01*
X016279Y006109D01*
X016128Y006109D01*
X015989Y006052D01*
X015883Y005945D01*
X015826Y005804D02*
X000854Y005804D01*
X000854Y005646D02*
X015830Y005646D01*
X015913Y005487D02*
X000854Y005487D01*
X000854Y005329D02*
X015840Y005329D01*
X015826Y005170D02*
X000854Y005170D01*
X000854Y005012D02*
X015880Y005012D01*
X015871Y004853D02*
X000854Y004853D01*
X000854Y004695D02*
X015826Y004695D01*
X015849Y004536D02*
X000854Y004536D01*
X000854Y004378D02*
X015959Y004378D01*
X016448Y004378D02*
X023522Y004378D01*
X023522Y004536D02*
X016558Y004536D01*
X016582Y004695D02*
X023522Y004695D01*
X023522Y004853D02*
X016536Y004853D01*
X016527Y005012D02*
X023522Y005012D01*
X023522Y005170D02*
X016582Y005170D01*
X016568Y005329D02*
X023522Y005329D01*
X023522Y005487D02*
X016494Y005487D01*
X016577Y005646D02*
X023522Y005646D01*
X023522Y005804D02*
X016582Y005804D01*
X016507Y005963D02*
X023522Y005963D01*
X023522Y004219D02*
X000854Y004219D01*
X000854Y004061D02*
X023522Y004061D01*
X023522Y003902D02*
X000854Y003902D01*
X000854Y003744D02*
X023522Y003744D01*
X023522Y003585D02*
X000854Y003585D01*
X000854Y003427D02*
X023522Y003427D01*
X023522Y003268D02*
X000854Y003268D01*
X000854Y003110D02*
X023522Y003110D01*
X023522Y002951D02*
X000854Y002951D01*
X000854Y002793D02*
X023522Y002793D01*
X023522Y002634D02*
X000854Y002634D01*
X000854Y002476D02*
X023522Y002476D01*
X023522Y002317D02*
X000854Y002317D01*
X000854Y002159D02*
X007874Y002159D01*
X007877Y002162D02*
X007742Y002027D01*
X007669Y001850D01*
X007669Y001659D01*
X007742Y001483D01*
X007877Y001348D01*
X008053Y001275D01*
X008244Y001275D01*
X008420Y001348D01*
X008555Y001483D01*
X008629Y001659D01*
X008629Y001850D01*
X008555Y002027D01*
X008420Y002162D01*
X008244Y002235D01*
X008053Y002235D01*
X007877Y002162D01*
X007731Y002000D02*
X000854Y002000D01*
X000854Y001842D02*
X007669Y001842D01*
X007669Y001683D02*
X000854Y001683D01*
X000854Y001525D02*
X007724Y001525D01*
X007858Y001366D02*
X000854Y001366D01*
X000854Y001208D02*
X023522Y001208D01*
X023522Y001366D02*
X016439Y001366D01*
X016420Y001348D02*
X016555Y001483D01*
X016629Y001659D01*
X016629Y001850D01*
X016555Y002027D01*
X016420Y002162D01*
X016244Y002235D01*
X016053Y002235D01*
X015877Y002162D01*
X015742Y002027D01*
X015669Y001850D01*
X015669Y001659D01*
X015742Y001483D01*
X015877Y001348D01*
X016053Y001275D01*
X016244Y001275D01*
X016420Y001348D01*
X016573Y001525D02*
X023522Y001525D01*
X023522Y001683D02*
X016629Y001683D01*
X016629Y001842D02*
X023522Y001842D01*
X023522Y002000D02*
X016566Y002000D01*
X016423Y002159D02*
X023522Y002159D01*
X023522Y001049D02*
X000854Y001049D01*
X000854Y000891D02*
X023522Y000891D01*
X015858Y001366D02*
X015439Y001366D01*
X015420Y001348D02*
X015555Y001483D01*
X015629Y001659D01*
X015629Y001850D01*
X015555Y002027D01*
X015420Y002162D01*
X015244Y002235D01*
X015053Y002235D01*
X014877Y002162D01*
X014742Y002027D01*
X014669Y001850D01*
X014669Y001659D01*
X014742Y001483D01*
X014877Y001348D01*
X015053Y001275D01*
X015244Y001275D01*
X015420Y001348D01*
X015573Y001525D02*
X015724Y001525D01*
X015669Y001683D02*
X015629Y001683D01*
X015629Y001842D02*
X015669Y001842D01*
X015731Y002000D02*
X015566Y002000D01*
X015423Y002159D02*
X015874Y002159D01*
X014874Y002159D02*
X014423Y002159D01*
X014420Y002162D02*
X014244Y002235D01*
X014053Y002235D01*
X013877Y002162D01*
X013742Y002027D01*
X013669Y001850D01*
X013669Y001659D01*
X013742Y001483D01*
X013877Y001348D01*
X014053Y001275D01*
X014244Y001275D01*
X014420Y001348D01*
X014555Y001483D01*
X014629Y001659D01*
X014629Y001850D01*
X014555Y002027D01*
X014420Y002162D01*
X014566Y002000D02*
X014731Y002000D01*
X014669Y001842D02*
X014629Y001842D01*
X014629Y001683D02*
X014669Y001683D01*
X014724Y001525D02*
X014573Y001525D01*
X014439Y001366D02*
X014858Y001366D01*
X013858Y001366D02*
X013430Y001366D01*
X013400Y001344D02*
X013461Y001389D01*
X013515Y001442D01*
X013559Y001503D01*
X013593Y001571D01*
X013617Y001642D01*
X013629Y001717D01*
X013629Y001735D01*
X013169Y001735D01*
X013169Y001775D01*
X013629Y001775D01*
X013629Y001793D01*
X013617Y001867D01*
X013593Y001939D01*
X013559Y002006D01*
X013515Y002068D01*
X013461Y002121D01*
X013400Y002165D01*
X013333Y002200D01*
X013261Y002223D01*
X013186Y002235D01*
X013169Y002235D01*
X013169Y001775D01*
X013129Y001775D01*
X013129Y002235D01*
X013111Y002235D01*
X013036Y002223D01*
X012964Y002200D01*
X012897Y002165D01*
X012836Y002121D01*
X012782Y002068D01*
X012738Y002006D01*
X012704Y001939D01*
X012680Y001867D01*
X012669Y001793D01*
X012669Y001775D01*
X013128Y001775D01*
X013128Y001735D01*
X012669Y001735D01*
X012669Y001717D01*
X012680Y001642D01*
X012704Y001571D01*
X012738Y001503D01*
X012782Y001442D01*
X012836Y001389D01*
X012897Y001344D01*
X012964Y001310D01*
X013036Y001287D01*
X013111Y001275D01*
X013129Y001275D01*
X013129Y001735D01*
X013169Y001735D01*
X013169Y001275D01*
X013186Y001275D01*
X013261Y001287D01*
X013333Y001310D01*
X013400Y001344D01*
X013169Y001366D02*
X013129Y001366D01*
X013129Y001525D02*
X013169Y001525D01*
X013169Y001683D02*
X013129Y001683D01*
X013129Y001842D02*
X013169Y001842D01*
X013169Y002000D02*
X013129Y002000D01*
X013129Y002159D02*
X013169Y002159D01*
X013409Y002159D02*
X013874Y002159D01*
X013731Y002000D02*
X013562Y002000D01*
X013621Y001842D02*
X013669Y001842D01*
X013669Y001683D02*
X013623Y001683D01*
X013570Y001525D02*
X013724Y001525D01*
X012867Y001366D02*
X012430Y001366D01*
X012400Y001344D02*
X012461Y001389D01*
X012515Y001442D01*
X012559Y001503D01*
X012593Y001571D01*
X012617Y001642D01*
X012629Y001717D01*
X012629Y001735D01*
X012169Y001735D01*
X012169Y001775D01*
X012629Y001775D01*
X012629Y001793D01*
X012617Y001867D01*
X012593Y001939D01*
X012559Y002006D01*
X012515Y002068D01*
X012461Y002121D01*
X012400Y002165D01*
X012333Y002200D01*
X012261Y002223D01*
X012186Y002235D01*
X012169Y002235D01*
X012169Y001775D01*
X012129Y001775D01*
X012129Y002235D01*
X012111Y002235D01*
X012036Y002223D01*
X011964Y002200D01*
X011897Y002165D01*
X011836Y002121D01*
X011782Y002068D01*
X011738Y002006D01*
X011704Y001939D01*
X011680Y001867D01*
X011669Y001793D01*
X011669Y001775D01*
X012128Y001775D01*
X012128Y001735D01*
X011669Y001735D01*
X011669Y001717D01*
X011680Y001642D01*
X011704Y001571D01*
X011738Y001503D01*
X011782Y001442D01*
X011836Y001389D01*
X011897Y001344D01*
X011964Y001310D01*
X012036Y001287D01*
X012111Y001275D01*
X012129Y001275D01*
X012129Y001735D01*
X012169Y001735D01*
X012169Y001275D01*
X012186Y001275D01*
X012261Y001287D01*
X012333Y001310D01*
X012400Y001344D01*
X012169Y001366D02*
X012129Y001366D01*
X012129Y001525D02*
X012169Y001525D01*
X012169Y001683D02*
X012129Y001683D01*
X012129Y001842D02*
X012169Y001842D01*
X012169Y002000D02*
X012129Y002000D01*
X012129Y002159D02*
X012169Y002159D01*
X012409Y002159D02*
X012888Y002159D01*
X012735Y002000D02*
X012562Y002000D01*
X012621Y001842D02*
X012676Y001842D01*
X012674Y001683D02*
X012623Y001683D01*
X012570Y001525D02*
X012727Y001525D01*
X011867Y001366D02*
X011430Y001366D01*
X011400Y001344D02*
X011461Y001389D01*
X011515Y001442D01*
X011559Y001503D01*
X011593Y001571D01*
X011617Y001642D01*
X011629Y001717D01*
X011629Y001735D01*
X011169Y001735D01*
X011169Y001775D01*
X011629Y001775D01*
X011629Y001793D01*
X011617Y001867D01*
X011593Y001939D01*
X011559Y002006D01*
X011515Y002068D01*
X011461Y002121D01*
X011400Y002165D01*
X011333Y002200D01*
X011261Y002223D01*
X011186Y002235D01*
X011169Y002235D01*
X011169Y001775D01*
X011129Y001775D01*
X011129Y002235D01*
X011111Y002235D01*
X011036Y002223D01*
X010964Y002200D01*
X010897Y002165D01*
X010836Y002121D01*
X010782Y002068D01*
X010738Y002006D01*
X010704Y001939D01*
X010680Y001867D01*
X010669Y001793D01*
X010669Y001775D01*
X011128Y001775D01*
X011128Y001735D01*
X010669Y001735D01*
X010669Y001717D01*
X010680Y001642D01*
X010704Y001571D01*
X010738Y001503D01*
X010782Y001442D01*
X010836Y001389D01*
X010897Y001344D01*
X010964Y001310D01*
X011036Y001287D01*
X011111Y001275D01*
X011129Y001275D01*
X011129Y001735D01*
X011169Y001735D01*
X011169Y001275D01*
X011186Y001275D01*
X011261Y001287D01*
X011333Y001310D01*
X011400Y001344D01*
X011169Y001366D02*
X011129Y001366D01*
X011129Y001525D02*
X011169Y001525D01*
X011169Y001683D02*
X011129Y001683D01*
X011129Y001842D02*
X011169Y001842D01*
X011169Y002000D02*
X011129Y002000D01*
X011129Y002159D02*
X011169Y002159D01*
X011409Y002159D02*
X011888Y002159D01*
X011735Y002000D02*
X011562Y002000D01*
X011621Y001842D02*
X011676Y001842D01*
X011674Y001683D02*
X011623Y001683D01*
X011570Y001525D02*
X011727Y001525D01*
X010867Y001366D02*
X010439Y001366D01*
X010420Y001348D02*
X010555Y001483D01*
X010629Y001659D01*
X010629Y001850D01*
X010555Y002027D01*
X010420Y002162D01*
X010244Y002235D01*
X010053Y002235D01*
X009877Y002162D01*
X009742Y002027D01*
X009669Y001850D01*
X009669Y001659D01*
X009742Y001483D01*
X009877Y001348D01*
X010053Y001275D01*
X010244Y001275D01*
X010420Y001348D01*
X010573Y001525D02*
X010727Y001525D01*
X010674Y001683D02*
X010629Y001683D01*
X010629Y001842D02*
X010676Y001842D01*
X010735Y002000D02*
X010566Y002000D01*
X010423Y002159D02*
X010888Y002159D01*
X009874Y002159D02*
X009423Y002159D01*
X009420Y002162D02*
X009244Y002235D01*
X009053Y002235D01*
X008877Y002162D01*
X008742Y002027D01*
X008669Y001850D01*
X008669Y001659D01*
X008742Y001483D01*
X008877Y001348D01*
X009053Y001275D01*
X009244Y001275D01*
X009420Y001348D01*
X009555Y001483D01*
X009629Y001659D01*
X009629Y001850D01*
X009555Y002027D01*
X009420Y002162D01*
X009566Y002000D02*
X009731Y002000D01*
X009669Y001842D02*
X009629Y001842D01*
X009629Y001683D02*
X009669Y001683D01*
X009724Y001525D02*
X009573Y001525D01*
X009439Y001366D02*
X009858Y001366D01*
X008858Y001366D02*
X008439Y001366D01*
X008573Y001525D02*
X008724Y001525D01*
X008669Y001683D02*
X008629Y001683D01*
X008629Y001842D02*
X008669Y001842D01*
X008731Y002000D02*
X008566Y002000D01*
X008423Y002159D02*
X008874Y002159D01*
M02*
